<?xml version="1.0" encoding="utf-8"?>
<!-- Generator: Adobe Illustrator 25.1.0, SVG Export Plug-In . SVG Version: 6.00 Build 0)  -->
<svg version="1.1" id="Lag_1" xmlns="http://www.w3.org/2000/svg" xmlns:xlink="http://www.w3.org/1999/xlink" x="0px" y="0px"
	 viewBox="0 0 113 106" style="enable-background:new 0 0 113 106;" xml:space="preserve">
<style type="text/css">
	.st0{fill:#C4A474;}
	.st1{fill:#DBB675;}
	.st2{fill:none;stroke:#110B09;stroke-width:3;stroke-miterlimit:10;}
	.st3{fill:#E0CDB8;}
	.st4{fill:#D3BEA5;}
	.st5{fill:#C1AD91;}
	.st6{fill:#F7E7CD;}
</style>
<g>
	<g>
		<polygon class="st0" points="50.9,68.3 8.5,68.3 8.5,38 50.9,38 50.9,16.8 99.1,53.1 50.9,89.5 		"/>
		<path class="st0" d="M51.9,18.8l20.9,15.8l24.7,18.6L72.8,71.7L51.9,87.5V74.2v-6.9H45H9.5V39H45h6.9v-6.9V18.8 M49.9,14.8v3.9
			v13.4V37H45H9.5h-2v2v28.3v2h2H45h4.9v4.9v13.4v3.9l3.1-2.4l21-15.8l24.7-18.6l2.1-1.6l-2.1-1.6L74,33L53.1,17.2L49.9,14.8
			L49.9,14.8z"/>
	</g>
	<path class="st1" d="M50.9,16.8l22.5,17l25.7,19.4L73.4,72.5l-22.5,17V74.2v-5.9H45H8.5V38H45h5.9v-5.9V16.8 M45,5v27.2H2.6v42H45
		v27.2l32-24.2l31.9-24.1L77,29.1L45,5L45,5z"/>
	<polygon class="st2" points="77,29.1 45,5 45,32.1 2.6,32.1 2.6,74.2 45,74.2 45,101.3 77,77.2 108.9,53.1 	"/>
	<polygon class="st3" points="71.1,36.9 54.8,24.7 54.8,32.1 54.8,39 54.8,42 51.9,42 45,42 12.4,42 12.4,64.3 45,64.3 51.9,64.3 
		54.8,64.3 54.8,67.3 54.8,74.2 54.8,81.6 71.1,69.4 92.6,53.1 	"/>
	<path class="st4" d="M61.7,38.5l5.2,3.9l14.3,10.8L66.9,63.9l-5.2,3.9v-0.5v-2.9v-6.9h-6.9h-2.9H45H19.3v-8.6H45h6.9h2.9h6.9V42v-3
		L61.7,38.5 M54.8,24.7v7.5V39v3h-2.9H45H12.4v22.4H45h6.9h2.9v2.9v6.9v7.5L71,69.5l21.5-16.2L71.1,36.9L54.8,24.7L54.8,24.7z"/>
	<path class="st5" d="M58.8,32.6l9.9,7.5l17.4,13.1L68.7,66.3l-9.9,7.5v-6.5v-2.9v-3.9h-3.9H52h-7H16.3V45.9H45h6.9h2.9h3.9V42v-3
		L58.8,32.6 M54.8,24.7v7.5V39v3h-2.9H45H12.4v22.4H45h6.9h2.9v2.9v6.9v7.5L71,69.5l21.5-16.2L71.1,36.9L54.8,24.7L54.8,24.7z"/>
	<polygon class="st2" points="71.1,36.9 54.8,24.7 54.8,32.1 54.8,39 54.8,42 51.9,42 45,42 12.4,42 12.4,64.3 45,64.3 51.9,64.3 
		54.8,64.3 54.8,67.3 54.8,74.2 54.8,81.6 71.1,69.4 92.6,53.1 	"/>
	<g>
		<path class="st6" d="M42.4,36.3h-6.1c-0.5,0-0.9-0.4-0.9-0.9s0.4-0.9,0.9-0.9h6.1c0.5,0,0.9,0.4,0.9,0.9
			C43.3,35.9,42.9,36.3,42.4,36.3z"/>
	</g>
	<g>
		<path class="st6" d="M27,36.3H16.3c-0.5,0-0.9-0.4-0.9-0.9s0.4-0.9,0.9-0.9H27c0.5,0,0.9,0.4,0.9,0.9C28,35.9,27.6,36.3,27,36.3z"
			/>
	</g>
</g>
</svg>
