<?xml version="1.0" encoding="utf-8"?>
<!-- Generator: Adobe Illustrator 24.2.1, SVG Export Plug-In . SVG Version: 6.00 Build 0)  -->
<svg version="1.1" id="Lag_1" xmlns="http://www.w3.org/2000/svg" xmlns:xlink="http://www.w3.org/1999/xlink" x="0px" y="0px"
	 viewBox="0 0 232 89.9" style="enable-background:new 0 0 232 89.9;" xml:space="preserve">
<style type="text/css">
	.st0{fill:#DBC3A9;stroke:#110B09;stroke-width:2;stroke-miterlimit:10;}
	.st1{opacity:0.35;fill:none;stroke:#110B09;stroke-width:2;stroke-miterlimit:10;enable-background:new    ;}
</style>
<g>
	<path class="st0" d="M227.8,12.5l0.4-2.5L216,10.3l-8.8,15.2l-1.4-15L61.3,13.6c-14.4,0.3-28.9-0.4-43.3-2L3.8,10.1l0.3,5.1
		c1.2,18.2,1.2,36.5,0.2,54.7l-0.5,9.4l60.8-1.2l5.8-10.4L75.3,78l29.1-0.6l123.8,2l-1.8-19.9C224.9,43.8,225.4,28.1,227.8,12.5z"/>
	<path class="st1" d="M218.8,18l0.4-2.1l-6.6,0.1l-5.5,9.4l-0.9-9.3L65.7,18.9c-13.3,0.3-26.6-0.3-39.8-1.6L12.8,16l0.3,4.2
		c1,15.1,1.1,30.3,0.2,45.4l-0.5,7.8l54.9-1l2.7-4.8l2.2,4.7l32.7-0.6l113.8,1.7l-1.7-16.5C216.1,44,216.6,30.9,218.8,18z"/>
</g>
</svg>
