<?xml version="1.0" encoding="utf-8"?>
<!-- Generator: Adobe Illustrator 24.3.0, SVG Export Plug-In . SVG Version: 6.00 Build 0)  -->
<svg version="1.1" id="Lag_1" xmlns="http://www.w3.org/2000/svg" xmlns:xlink="http://www.w3.org/1999/xlink" x="0px" y="0px"
	 viewBox="0 0 1115 605" style="enable-background:new 0 0 1115 605;" xml:space="preserve">
<style type="text/css">
	.st0{display:none;}
	.st1{display:inline;}
	.st2{fill:#7A5849;stroke:#110B09;stroke-width:2;stroke-miterlimit:10;}
	.st3{fill:#604333;stroke:#110B09;stroke-width:2;stroke-miterlimit:10;}
	.st4{fill:#D8B75B;stroke:#110B09;stroke-width:2;stroke-miterlimit:10;}
	.st5{fill:none;stroke:#F4DFAB;stroke-width:2;stroke-linecap:round;stroke-miterlimit:10;}
	.st6{fill:#493429;}
	.st7{fill:#382821;}
	.st8{opacity:0.39;enable-background:new    ;}
	.st9{fill:#D3C3B2;stroke:#110B09;stroke-width:2;stroke-miterlimit:10;}
	.st10{fill:none;stroke:#110B09;stroke-width:2;stroke-miterlimit:10;}
	.st11{fill:#E5D2BA;stroke:#110B09;stroke-width:2;stroke-miterlimit:10;}
	.st12{fill:#D3BA9F;}
	.st13{opacity:0.53;fill:#D3BA9F;enable-background:new    ;}
	.st14{opacity:0.56;fill:#DDCCB6;enable-background:new    ;}
	.st15{opacity:0.53;fill:#E0D1C1;enable-background:new    ;}
	.st16{fill:#C9BBAD;}
	.st17{fill:#E5D2BA;}
	.st18{fill:#AD6751;stroke:#110B09;stroke-width:2;stroke-miterlimit:10;}
	.st19{fill:#CCBAAA;stroke:#110B09;stroke-width:2;stroke-miterlimit:10;}
	.st20{fill:#D3C0AB;}
	.st21{fill:#E5D4C1;}
	.st22{fill:#D6C4B0;}
	.st23{fill:#D8C5B2;}
	.st24{fill:#5C797A;stroke:#110B09;stroke-width:2;stroke-miterlimit:10;}
	.st25{fill:#506868;stroke:#110B09;stroke-width:2;stroke-miterlimit:10;}
	.st26{fill:#435454;}
	.st27{fill:#323F3F;}
	.st28{fill:#827B70;}
	.st29{fill:#110B09;}
	.st30{fill:#726C65;}
	.st31{fill:#B5B4B4;}
	.st32{fill:#2D2521;}
	.st33{fill:#E5E5E5;}
	.st34{fill:#9B8767;stroke:#110B09;stroke-width:2;stroke-miterlimit:10;}
</style>
<g>
	<g class="st0">
		<g class="st1">
			<path class="st2" d="M1090.3,115.7c0.7-8.5-6-15.7-14.5-15.7H629.4H486.6H40.2c-8.5,0-15.2,7.3-14.5,15.7L14.3,578
				c-0.7,9.1,7,16.6,16,15.6l129.4-13.5c41.7-4.3,83.7-6.9,125.6-7.5l207.8-3.3c0,0,10.8-13.4,22.9,2.5l0,0
				c25,7.4,51.4,8.1,76.8,2.2l14-3.3c0,0,10.8-15.3,21.3-1.2l202.6,3.2c42,0.7,83.9,3.2,125.6,7.5l129.4,13.5
				c9,0.9,16.7-6.5,16-15.6L1090.3,115.7z"/>
			<path class="st3" d="M1077.4,117.1c0.7-8.5-6-15.8-14.5-15.8H627.6H488.4H53.2c-8.5,0-15.2,7.3-14.5,15.8L27.5,563.9
				c-0.7,9.1,7,16.6,16,15.6l125.8-13c40.7-4.2,81.6-6.6,122.6-7.3l202.7-3.2c0,0,12-12.7,22.3,2.4l0,0c24.4,7.2,50.2,7.9,74.9,2.1
				l13.7-3.2c0,0,12-10.7,20.7-1.2l197.7,3.1c41,0.7,81.9,3.1,122.6,7.3l125.8,13c9,0.9,16.7-6.6,16-15.6L1077.4,117.1z"/>
			<g>
				<path class="st4" d="M1099,567.4c-6.2-6.2-6.2-16.1,0-22.3c2.7-2.7,6-4.2,9.5-4.5c-2-5-1.6-9.7-5.2-13.6l-11.6-359.4
					c4.3-4.3,4.4-9.5,6.7-15.3c-3.5-0.4-6.8-1.9-9.5-4.5c-6.2-6.2-6.2-16.1,0-22.3c2.9-2.9,6.7-4.5,10.5-4.6
					c-4.6-14.1-15.7-25.2-29.8-29.8c-0.1,3.8-1.7,7.6-4.6,10.5c-6.2,6.2-16.1,6.2-22.3,0c-2.7-2.7-4.2-6-4.5-9.5
					c-17.1,6.8-29.1,23.5-29.1,43h35.2l-9.1,20.2l20.2-9.1v35.2c8.4,0,16.3-2.2,23.1-6.2l11.8,343.5c-7.2-4.6-15.7-7.2-24.8-7.2
					v35.2l-20.2-9.1l9.1,20.2h-35.2c0,19.5,12,36.2,29.1,43c0.4-3.5,1.9-6.8,4.5-9.5c6.2-6.2,16.1-6.2,22.3,0
					c2.9,2.9,4.5,6.7,4.6,10.5c14.1-4.6,25.2-15.7,29.8-29.8C1105.7,571.9,1101.9,570.4,1099,567.4z"/>
				<path class="st5" d="M1084.7,110.1c1.2,1.7,2.2,3.5,2.9,5.5l0,0"/>
				<path class="st5" d="M1076.1,103.3l1.8,0.9c0.9,0.4,1.7,1,2.4,1.5"/>
				<path class="st5" d="M1091.3,155.2l-0.3,0.9c-0.7,2.3-1.9,4.4-3.5,6.2l0,0"/>
				<line class="st5" x1="1072.4" y1="171.6" x2="1069.3" y2="173.7"/>
				<line class="st5" x1="1088.2" y1="261.3" x2="1087.8" y2="272.2"/>
				<line class="st5" x1="1088.7" y1="242.4" x2="1088.4" y2="253.9"/>
				<line class="st5" x1="1089.3" y1="226" x2="1089.1" y2="232.3"/>
				<path class="st5" d="M1071.2,516.5l2.4,0.4c3.7,0.6,7.3,2.2,10.3,4.6l0,0"/>
			</g>
			<g>
				<path class="st4" d="M16,567.8c6.2-6.2,6.2-16.1,0-22.3c-2.7-2.7-6-4.2-9.5-4.5c2-5,1.6-9.7,5.2-13.6L23.4,168
					c-4.3-4.3-4.4-9.5-6.7-15.3c3.5-0.4,6.8-1.9,9.5-4.5c6.2-6.2,6.2-16.1,0-22.3c-2.9-2.9-6.7-4.5-10.5-4.6
					c4.6-14.1,15.7-25.2,29.8-29.8c0.1,3.8,1.7,7.6,4.6,10.5c6.2,6.2,16.1,6.2,22.3,0c2.7-2.7,4.2-6,4.5-9.5
					C94,99.3,106,116,106,135.5H70.7l9.1,20.2l-20.2-9.1v35.2c-8.4,0-16.3-2.2-23.1-6.2L24.7,519.1c7.2-4.6,15.7-7.2,24.8-7.2v35.2
					l20.2-9.1l-9.1,20.2h35.2c0,19.5-12,36.2-29.1,43c-0.4-3.5-1.9-6.8-4.5-9.5c-6.2-6.2-16.1-6.2-22.3,0c-2.9,2.9-4.5,6.7-4.6,10.5
					c-14.1-4.6-25.2-15.7-29.8-29.8C9.3,572.3,13.1,570.7,16,567.8z"/>
				<path class="st5" d="M28.7,108.9c-1.8,1.8-3.4,3.8-4.8,5.9l-0.6,0.8"/>
				<path class="st5" d="M40.2,100L40.2,100c-2,1.1-4,2.4-5.8,3.8"/>
				<line class="st5" x1="25.6" y1="337.6" x2="24.2" y2="352"/>
				<line class="st5" x1="28.1" y1="318.7" x2="26.7" y2="328.5"/>
			</g>
			<path class="st6" d="M597.7,233l-75.2,1.8l-4.4,312.4l0,0c25.8,7.2,53.2,7.9,79.4,2.1L597.7,233z"/>
			<path class="st7" d="M597.7,215.8l-75.2,1.8L518.1,530l0,0c25.8,7.2,53.2,7.9,79.4,2.1L597.7,215.8z"/>
			<g>
				<path class="st7" d="M494.7,550.9c-2.1-29.4-3-58.7-3.5-88.1s-0.5-58.7-0.1-88s1.2-58.7,2.4-88c1.3-29.3,3-58.7,5.9-88
					c2.1,29.4,3,58.7,3.6,88.1c0.5,29.4,0.5,58.7,0.1,88s-1.2,58.7-2.5,88C499.3,492.3,497.6,521.6,494.7,550.9z"/>
			</g>
			<g>
				<path class="st7" d="M626.4,551c-2.9-29.3-4.6-58.6-6-88c-1.3-29.3-2.1-58.7-2.6-88c-0.4-29.3-0.4-58.7,0-88.1
					c0.5-29.4,1.4-58.7,3.5-88.1c2.9,29.3,4.6,58.6,6,88c1.3,29.3,2.1,58.7,2.5,88c0.4,29.4,0.4,58.7,0,88.1
					C629.3,492.3,628.4,521.6,626.4,551z"/>
			</g>
		</g>
		<g class="st1">
			<g>
				<path class="st8" d="M493.4,538.2l-146,19.6c-10.4-0.2-20.7,0.4-31,1.8l-122.7,16.7c-9.1,1.2-18.2,2-27.3,2.4l-116.6,4.7
					l16.5-193.3c2.6-30.4,2.5-61-0.2-91.3L51,133.2l449.3-15.5L493.4,538.2z"/>
				<g>
					<path class="st9" d="M579.6,433.6L516,93.7l-14.5-3.9c-18.4-4.9-37.3-7.7-56.3-8.2l0,0c-20-0.6-40,1.3-59.6,5.6l-79.7,17.4
						c-19.8,4.3-39.9,7.7-60,10.1l-41.1,4.9c-15.9,1.9-31.8,3.1-47.7,3.8h-0.7l-3.2-78.7l-28.7,1.1L118,46l1.1,12.6L112,59l1.3,16.2
						l-8.7,0.5l0.8,10.1l-7.1,0.4l0.4,6.2l-9,0.5l0.3,3.9l-5.6,0.3l0.3,3.6l-5.4,0.2l0.4,4.2l-7.2,0.3l0.7,5l-4.6,0.2l0.6,4.3
						l-4.5,0.9l0.7,5l-4.6,0.2l0.8,6.1l-4.8,0.2l7.1,51.7c11.4,83.2,13.4,167.5,6,251.2l-13,147.9l100.2-4.1
						c16-0.7,31.9-1.9,47.7-3.8l41.1-4.9c20.1-2.4,40.2-5.8,60-10.1l79.7-17.4c19.6-4.3,39.6-6.2,59.6-5.6l0,0
						c19,0.5,37.8,3.3,56.3,8.2l14.5,3.9l3.9-6.3l3.9-5.2l3.9-5.2l3.9-5.2l7.3-5l7.2-1.7l5.3-1.7l6.5,0.6l5.5-3.3l5,1.2h5.6h5.6
						L579.6,433.6z"/>
					<path class="st10" d="M60.8,121.2l7.1,51.7c11.4,83.2,13.4,167.5,6,251.2L60.8,571.9l100.2-4.1c16-0.7,31.9-1.9,47.7-3.8
						l41.1-4.9c20.1-2.4,40.2-5.8,60-10.1l79.7-17.4c19.6-4.3,39.6-6.2,59.6-5.6l0,0c19,0.5,37.8,3.3,56.3,8.2l14.5,3.9"/>
					<path class="st10" d="M64.7,116l7.1,51.7c11.4,83.2,13.4,167.5,6,251.2L64.7,566.7l100.2-4.1c16-0.7,31.9-1.9,47.7-3.8
						l41.1-4.9c20.1-2.4,40.2-5.8,60-10.1l79.7-17.4c19.6-4.3,39.6-6.2,59.6-5.6l0,0c19,0.5,37.8,3.3,56.3,8.2l14.5,3.9"/>
					<path class="st10" d="M68.6,110.7l7.1,51.7c11.4,83.2,13.4,167.5,6,251.2L68.6,561.4l100.2-4.1c16-0.7,31.9-1.9,47.7-3.8
						l41.1-4.9c20.1-2.4,40.2-5.8,60-10.1l79.7-17.4c19.6-4.3,39.6-6.2,59.6-5.6l0,0c19,0.5,37.8,3.3,56.3,8.2l14.5,3.9"/>
					<path class="st10" d="M72.5,105.5l7.1,51.7c11.4,83.2,13.4,167.5,6,251.2L72.5,556.2l100.2-4.1c16-0.7,31.9-1.9,47.7-3.8
						l41.1-4.9c20.1-2.4,40.2-5.8,60-10.1l79.7-17.4c19.6-4.3,39.6-6.2,59.6-5.6l0,0c19,0.5,37.8,3.3,56.3,8.2l14.5,3.9"/>
					<path class="st10" d="M79.3,101L89,209.8c4.5,50.3,5.2,100.9,2.1,151.3L79.3,551.8l93.5-4c16.9-0.7,33.8-2.2,50.7-4.4l52.3-6.8
						c20.5-2.7,40.8-6.4,60.9-11.2l79.8-19.1c14.7-3.5,29.7-5.2,44.7-5l0,0c17.6,0.2,35.1,2.9,52,8.1l25.8,7.9"/>
					<path class="st10" d="M84.5,97.2L94.7,237c3,41.3,3.3,82.7,0.9,124L84.5,548.4l96.7-4.9c16.6-0.8,33.1-2.5,49.5-5l56.8-8.6
						c22.8-3.4,45.4-8.4,67.5-15l77.5-22.8c16.4-4.8,33.6-6.1,50.5-3.8l0,0c17.6,2.5,34.5,8.8,49.7,18.7l13.5,8.7"/>
					<path class="st10" d="M89.7,93l10,123c4.3,52.6,4.7,105.4,1.2,158L89.7,544.5l100.8-5.4c23.3-1.3,46.4-4.3,69.3-9l63.8-13.3
						c17.6-3.7,35.1-8.4,52.3-14.1l61.1-20.3c17.5-5.8,36.1-6.8,54.1-2.9l0,0c15.7,3.5,30.5,10.6,43.3,20.9l17,13.7"/>
					<path class="st10" d="M98.4,86.2l9.9,154.7c2.2,35,2.4,70.2,0.5,105.2L98.4,540l92.7-5.8c21.6-1.4,43.1-4.3,64.3-8.9l62.1-13.4
						c21.1-4.5,41.9-10.6,62.2-18.3l56.1-21.1c17.9-6.7,37.3-8.1,55.9-3.9l0,0c20.4,4.6,38.9,15.7,53.3,31.7l12.8,14.3"/>
					<path class="st10" d="M104.6,75.7l7.8,97.9c4.3,54.2,5.1,108.8,2.3,163.2l-10.1,196.3l99-5.3c22.6-1.2,45.2-4.3,67.5-9.4
						l47.8-10.9c23.3-5.3,46.3-12.7,68.8-22.1l53.3-22.3c16-6.7,32.9-8.7,49.5-5.9l0,0c18.4,3.1,35.9,11.8,51,25.6l21.9,28.4"/>
					<path class="st10" d="M112,59l6.7,85.6c5.3,68,6.2,136.4,2.5,204.6L112,522.7l95.2-4.9c16.4-0.8,32.7-3,48.8-6.5l58.4-12.6
						c24.6-5.3,48.8-13.6,72.3-24.9l55.7-26.8c17-8.2,35.4-10.2,53.2-5.9l0,0c22,5.3,42,20,56.7,41.7l16.2,29.6"/>
					<path class="st11" d="M574.1,81.2l-16.7-31.4c-12.8-24-31.9-41.3-53.8-48.7l0,0c-18.5-6.2-38.1-5-56,3.5l-67.9,32.1
						c-25.3,12-51.4,21.3-77.9,28.1l-23.5-17.5c-27.8,7-56,11.1-84.4,12.2L118.1,46l9.9,114.2c5.2,60.5,5.8,121.5,1.7,182.2
						l-11.6,172.3l75.7-2.8c28.3-1.1,56.6-5.1,84.4-12.2l23.5-6c26.5-6.7,52.5-16.1,77.9-28.1l67.9-32.1c18-8.5,37.5-9.7,56-3.5l0,0
						c21.9,7.4,41,24.6,53.8,48.7l16.7,33.8"/>
					<path class="st11" d="M579.7,72.9L572,50.4c-12.5-36.7-37.4-63.4-67-73l-5.8,7.2l-2.3-9.4c-2.5-0.5-5.1-1-7.6-1.3l0,0
						c-15.5-1.8-31.1,1.1-45.6,8.5l-61.1,31.1l0,0c-7.9,4-56.7,16.9-103.6,23.2c-43.6,5.9-85.4,5.3-91,4.1l-39.7-8.3l-7.6,4.9
						l0.5-6.4l-18-3.8L133,145c6.8,82,6.8,164.5-0.1,246.6l-9.7,115h50.7l4.7-13.2l8.6,13.2h14c32.2,0,32.1-3.4,63.8-10.2l11.4-2.4
						c29.1-6.2,57.6-16.3,85.1-30.1l21.3-10.7l61.1-31.1c14.5-7.4,30.1-10.3,45.6-8.5l0,0c36.4,4.2,68.1,33.5,82.8,76.5l7.1,20.7
						c0.1,0.3,0.6,0.3,0.6-0.1L579.7,72.9z"/>
					<path class="st12" d="M572,50.4l-9.5,143c-2.6,39.9-3.2,79.9-1.6,119.8l6.5,162.4l12.3,35l1.8-436.9L572,50.4z"/>
					<path class="st10" d="M579.7,72.9L572,50.4c-12.5-36.7-37.4-63.4-67-73l-5.8,7.2l-2.3-9.4c-2.5-0.5-5.1-1-7.6-1.3l0,0
						c-15.5-1.8-31.1,1.1-45.6,8.5l-61.1,31.1l0,0c-7.9,4-56.7,16.9-103.6,23.2c-43.6,5.9-85.4,5.3-91,4.1l-39.7-8.3l-7.6,4.9
						l0.5-6.4l-18-3.8L133,145c6.8,82,6.8,164.5-0.1,246.6l-9.7,115h50.7l4.7-13.2l8.6,13.2h14c32.2,0,32.1-3.4,63.8-10.2l11.4-2.4
						c29.1-6.2,57.6-16.3,85.1-30.1l21.3-10.7l61.1-31.1c14.5-7.4,30.1-10.3,45.6-8.5l0,0c36.4,4.2,68.1,33.5,82.8,76.5l7.1,20.7
						c0.1,0.3,0.6,0.3,0.6-0.1L579.7,72.9z"/>
				</g>
				<g>
					<path class="st13" d="M185.1,159.3c-1.5,3.8-2.3,7.9-2.4,12l-2.3,132.2l-3.6,109c-0.6,16.9,11.1,31.7,27.7,35.1l11,2.3
						c4.4,0.9,9,0.9,13.4,0.1l87-16.4c2.8-0.5,5.6-1.4,8.2-2.6l74.5-34.6c3.3-1.6,6.9-2.6,10.6-3l79.5-9.3c2.5-0.3,5-0.3,7.5-0.1
						l0,0c19.9,2,37.4-13.3,38.1-33.3l2.3-67c0-1.1,0-2.3-0.1-3.4l-6.4-98.2c-0.1-2.1-0.5-4.1-1-6.2l-23.3-93.3
						c-2-8-6.7-15-13.4-19.8l-22.9-16.4c-3.9-2.8-8.3-4.7-12.9-5.7l-36-7.8c-6.4-1.4-13.1-0.9-19.3,1.4l-46.4,17.1
						c-2.5,0.9-5,1.5-7.6,1.9l-42.9,5.4c-0.7,0.1-1.3,0.2-2,0.3l-57.5,10.8c-5.9,1.1-11.4,3.7-16,7.6l-10.7,9
						c-4.4,3.7-7.8,8.5-9.9,13.9L185.1,159.3z"/>
					<path class="st14" d="M205.2,169.1c-1.3,3.4-2,6.9-2.1,10.5l-2,116.1l-3.2,95.7c-0.5,14.8,9.8,27.9,24.3,30.8l9.7,2
						c3.9,0.8,7.9,0.8,11.7,0.1l76.4-14.4c2.5-0.5,4.9-1.2,7.2-2.3l65.4-30.4c2.9-1.4,6.1-2.2,9.3-2.6l69.8-8.2
						c2.2-0.3,4.4-0.3,6.5-0.1l0,0c17.5,1.7,32.8-11.7,33.4-29.3l2-58.8c0-1,0-2,0-3L508,189c-0.1-1.8-0.4-3.6-0.8-5.4l-20.5-81.9
						c-1.7-7-5.9-13.1-11.8-17.3L454.8,70c-3.4-2.4-7.3-4.2-11.3-5L412,58c-5.7-1.2-11.5-0.8-17,1.2l-40.8,15
						c-2.2,0.8-4.4,1.3-6.7,1.6l-37.7,4.8c-0.6,0.1-1.2,0.2-1.8,0.3l-50.5,9.4c-5.2,1-10,3.3-14.1,6.7l-9.4,7.9
						c-3.9,3.3-6.9,7.5-8.7,12.2L205.2,169.1z"/>
					<path class="st15" d="M228.2,180.2c-1.1,2.8-1.7,5.8-1.7,8.9l-1.7,97.6l-2.7,80.5c-0.4,12.5,8.2,23.4,20.5,25.9l8.2,1.7
						c3.3,0.7,6.6,0.7,9.9,0.1l64.2-12.1c2.1-0.4,4.1-1,6-1.9l55-25.5c2.5-1.1,5.1-1.9,7.8-2.2l58.7-6.9c1.8-0.2,3.7-0.2,5.5-0.1
						l0,0c14.7,1.5,27.6-9.8,28.1-24.6l1.7-49.4c0-0.8,0-1.7,0-2.5l-4.7-72.5c-0.1-1.5-0.3-3.1-0.7-4.6l-17.2-68.9
						c-1.5-5.9-5-11-9.9-14.6L438.3,97c-2.9-2.1-6.1-3.5-9.5-4.2l-26.6-5.7c-4.8-1-9.7-0.7-14.3,1l-34.3,12.6
						c-1.8,0.7-3.7,1.1-5.6,1.4l-31.7,4c-0.5,0.1-1,0.1-1.5,0.2l-42.5,7.9c-4.4,0.8-8.4,2.7-11.8,5.6l-7.9,6.7
						c-3.3,2.8-5.8,6.3-7.3,10.3L228.2,180.2z"/>
				</g>
			</g>
			<g>
				<path class="st8" d="M628.3,535.1l142.8-2.8c10.1-0.2,20.3,0.4,30.3,1.8l120,16.5c8.9,1.2,17.8,2,26.7,2.4l114.1,4.7
					l-16.1-190.4c-2.5-29.9-2.5-60,0.2-90l14.6-163.1L621.6,98.9L628.3,535.1z"/>
				<g>
					<path class="st9" d="M1040.6,264.7l11.4-154l-7.1-0.4l0.6-7.6l-5.6-0.3l0.5-6.8l-6.5-0.3l0.4-5.8h-4.4l0.4-5.1l-4.4-0.5l-45-1
						l-1.8,24l-19.2-1c-11-0.6-22-1.5-33-2.8l-45-5.2L744,78.6c-16.2-2.3-32.6-2.7-48.9-1.2l0,0c-27.6,2.5-54.5,10.4-79.1,23.1
						l-8.6,4.5v286.2l-25.5,0.4l-0.4,121.5l4.1,5.1l4.1,5.1l6.1,6.1l5.1,7.1l6.6,7.9l21-9.3c0,0,43.7-16.2,66.8-18.3l0,0
						c16.3-1.5,32.7-1.1,48.9,1.2l137.7,19.3l45,5.2c11,1.3,22,2.2,33,2.8l92.2,4.8l-11.8-177.4
						C1037.8,336.8,1037.9,300.7,1040.6,264.7z"/>
					<path class="st11" d="M1045.4,102.8l-11.4,154c-2.7,36-2.8,72-0.4,108l11.8,177.4l-92.2-4.8c-11-0.6-22-1.5-33-2.8l-45-5.2
						l-137.7-19.3c-16.2-2.3-32.6-2.7-48.9-1.2l0,0c-27.6,2.5-54.5,10.4-79.1,23.1l-8.6,4.5"/>
					<path class="st11" d="M1040.3,95.7l-11.4,154c-2.7,36-2.8,72-0.4,108l11.8,177.4l-92.2-4.8c-11-0.6-22-1.5-33-2.8l-45-5.2
						L732.4,503c-16.2-2.3-32.6-2.7-48.9-1.2l0,0c-27.6,2.5-54.5,10.4-79.1,23.1l-8.6,4.5"/>
					<path class="st11" d="M1034.2,89.6l-11.4,154c-2.7,36-2.8,72-0.4,108l11.8,177.4l-92.2-4.8c-11-0.6-22-1.5-33-2.8l-45-5.2
						l-137.7-19.3c-16.2-2.3-32.6-2.7-48.9-1.2l0,0c-27.6,2.5-54.5,10.4-79.1,23.1l-8.6,4.5"/>
					<path class="st11" d="M585.5,78.8l8.6-4.5c24.6-12.8,51.5-20.6,79.1-23.1l0,0c16.3-1.5,32.7-1.1,48.9,1.2l137.7,19.3l45,5.2
						c11,1.3,22,2.2,33,2.8l92.2,4.8l-11.4,154c-2.7,36-2.8,72-0.4,108l11.8,177.4l-92.2-4.8c-11-0.6-22-1.5-33-2.8l-45-5.2
						l-137.7-19.3c-16.2-2.3-32.6-2.7-48.9-1.2l0,0c-27.6,2.5-54.5,10.4-79.1,23.1l-8.6,4.5"/>
					<path class="st16" d="M1019.4,457.5l-0.9,20.3c-0.4,9.2-4,18-10.2,24.9l0,0c-7.6,8.5-18.5,13.3-29.9,13.2l-29.7-0.3"/>
					<path class="st17" d="M1017.4,452.4l-0.9,20.3c-0.4,9.2-4,18-10.2,24.9l0,0c-7.6,8.5-18.5,13.3-29.9,13.2l-29.7-0.3"/>
					<path class="st11" d="M1014.2,341.4c-0.8-11.6-1.3-23.1-1.5-34.7l-11.2-4.3l11.1-6.8c-0.1-20.8,0.5-41.5,2.1-62.2l11.4-154
						l-92.2-4.8c-11-0.6-22-1.5-33-2.8l-45-5.2l-26.6-3.7L815,72.8l0.6-11.8l-97.3-13.6c-16.2-2.3-32.6-2.7-48.9-1.2l0,0
						c-27.6,2.5-54.5,10.4-79.1,23.1l-8.6,4.5V512c0,0.6,0.6,0.9,1.1,0.7l7.6-3.9c24.6-12.8,51.5-20.6,79.1-23.1l0,0
						c16.3-1.5,32.7-1.1,48.9,1.2L855.8,506l45,5.2c11,1.3,22,2.2,33,2.8l14.9-0.4c21-0.5,39.6-13.4,47.7-32.8l3.2-7.8l0,0
						c10.7,1.8,20.3-6.7,19.8-17.5L1014.2,341.4z"/>
					<path class="st12" d="M590.1,69.2l6.6,165.5c1,26.4,1.1,52.7,0.2,79.1l-6.8,194.8l-8.6,4.5V73.7L590.1,69.2z"/>
					<path class="st10" d="M1014.2,341.4c-0.8-11.6-1.3-23.1-1.5-34.7l-11.2-4.3l11.1-6.8c-0.1-20.8,0.5-41.5,2.1-62.2l11.4-154
						l-92.2-4.8c-11-0.6-22-1.5-33-2.8l-45-5.2l-26.6-3.7L815,72.8l0.6-11.8l-97.3-13.6c-16.2-2.3-32.6-2.7-48.9-1.2l0,0
						c-27.6,2.5-54.5,10.4-79.1,23.1l-8.6,4.5V512c0,0.6,0.6,0.9,1.1,0.7l7.6-3.9c24.6-12.8,51.5-20.6,79.1-23.1l0,0
						c16.3-1.5,32.7-1.1,48.9,1.2L855.8,506l45,5.2c11,1.3,22,2.2,33,2.8l14.9-0.4c21-0.5,39.6-13.4,47.7-32.8l3.2-7.8l0,0
						c10.7,1.8,20.3-6.7,19.8-17.5L1014.2,341.4z"/>
				</g>
				<g>
					<path class="st13" d="M959.4,191.3c1.8,3.7,3,7.7,3.4,11.8l13.7,131.5l13,108.3c2,16.8-8.4,32.6-24.6,37.4l-10.8,3.2
						c-4.3,1.3-8.8,1.7-13.3,1.3l-88.1-8.8c-2.9-0.3-5.7-0.9-8.4-1.9L767,445.9c-3.5-1.3-7.1-2-10.8-2.1l-80-2.5
						c-2.5-0.1-5,0.1-7.4,0.6l0,0c-19.7,3.7-38.4-10.1-40.8-29.9l-8-66.5c-0.1-1.1-0.2-2.3-0.2-3.4l-2.1-98.4c0-2.1,0.1-4.2,0.4-6.2
						l15.2-95c1.3-8.1,5.4-15.5,11.7-20.8l21.4-18.4c3.6-3.1,7.8-5.4,12.4-6.8L714,85.6c6.3-1.9,13-2,19.4-0.3l47.7,13.1
						c2.5,0.7,5.1,1.1,7.8,1.2l43.2,1.7c0.7,0,1.4,0.1,2,0.1l58.3,5.8c6,0.6,11.7,2.7,16.6,6.2l11.4,8.1c4.7,3.3,8.5,7.8,11.1,13
						L959.4,191.3z"/>
					<path class="st14" d="M940.2,202.8c1.6,3.2,2.6,6.7,3,10.3l12,115.5l11.4,95.1c1.8,14.7-7.3,28.6-21.6,32.8l-9.5,2.8
						c-3.8,1.1-7.8,1.5-11.7,1.1l-77.3-7.8c-2.5-0.3-5-0.8-7.4-1.7l-67.8-24.6c-3-1.1-6.2-1.7-9.5-1.8l-70.2-2.2
						c-2.2-0.1-4.4,0.1-6.5,0.5l0,0c-17.3,3.2-33.7-8.8-35.8-26.3l-7-58.4c-0.1-1-0.2-2-0.2-3l-1.9-86.4c0-1.8,0.1-3.7,0.4-5.5
						l13.3-83.4c1.1-7.1,4.8-13.6,10.2-18.3l18.8-16.1c3.2-2.7,6.9-4.8,10.9-6l30.9-9.5c5.5-1.7,11.4-1.8,17-0.3l41.9,11.5
						c2.2,0.6,4.5,1,6.8,1.1l38,1.5c0.6,0,1.2,0.1,1.8,0.1l51.1,5.1c5.2,0.5,10.3,2.4,14.6,5.4l10,7.1c4.1,2.9,7.5,6.8,9.7,11.4
						L940.2,202.8z"/>
					<path class="st15" d="M918.2,215.9c1.3,2.7,2.2,5.7,2.5,8.7l10.1,97.1l9.6,79.9c1.5,12.4-6.2,24-18.1,27.6l-8,2.4
						c-3.2,0.9-6.5,1.3-9.8,0.9l-65-6.5c-2.1-0.2-4.2-0.7-6.2-1.4l-57-20.7c-2.6-0.9-5.2-1.4-8-1.5l-59.1-1.8
						c-1.8-0.1-3.7,0.1-5.5,0.4l0,0c-14.5,2.7-28.3-7.4-30.1-22.1l-5.9-49.1c-0.1-0.8-0.2-1.7-0.2-2.5l-1.6-72.6
						c0-1.5,0.1-3.1,0.3-4.6l11.2-70.1c1-6,4-11.4,8.6-15.4l15.8-13.5c2.7-2.3,5.8-4,9.1-5l26-8c4.6-1.4,9.6-1.5,14.3-0.2l35.2,9.6
						c1.9,0.5,3.8,0.8,5.7,0.9l31.9,1.3c0.5,0,1,0.1,1.5,0.1l43,4.3c4.4,0.4,8.6,2,12.3,4.6l8.4,6c3.5,2.5,6.3,5.8,8.2,9.6
						L918.2,215.9z"/>
				</g>
			</g>
			<g>
				<path class="st18" d="M519.4,552.1c-1,0-2-0.3-2.9-0.9c-2.6-1.6-3.4-5.1-1.8-7.7l6.4-10.2c8.9-14.1,24.7-22.8,41.4-22.5
					c16.2,0.3,31,8.6,39.7,22.2l7.5,11.8c1.7,2.6,0.9,6.1-1.7,7.7c-2.6,1.7-6.1,0.9-7.7-1.7l-7.5-11.8c-6.7-10.5-18-16.8-30.4-17
					c-12.8-0.2-25,6.4-31.8,17.2l-6.4,10.2C523.2,551.2,521.3,552.1,519.4,552.1z"/>
			</g>
		</g>
	</g>
	<g class="st0">
		<g class="st1">
			<path class="st2" d="M1090.3,115.7c0.7-8.5-6-15.7-14.5-15.7H629.4H486.6H40.2c-8.5,0-15.2,7.3-14.5,15.7L14.3,578
				c-0.7,9.1,7,16.6,16,15.6l129.4-13.5c41.7-4.3,83.7-6.9,125.6-7.5l207.8-3.3c0,0,10.8-13.4,22.9,2.5l0,0
				c25,7.4,51.4,8.1,76.8,2.2l14-3.3c0,0,10.8-15.3,21.3-1.2l202.6,3.2c42,0.7,83.9,3.2,125.6,7.5l129.4,13.5
				c9,0.9,16.7-6.5,16-15.6L1090.3,115.7z"/>
			<path class="st3" d="M1077.4,117.1c0.7-8.5-6-15.8-14.5-15.8H627.6H488.4H53.2c-8.5,0-15.2,7.3-14.5,15.8L27.5,563.9
				c-0.7,9.1,7,16.6,16,15.6l125.8-13c40.7-4.2,81.6-6.6,122.6-7.3l202.7-3.2c0,0,12-12.7,22.3,2.4l0,0c24.4,7.2,50.2,7.9,74.9,2.1
				l13.7-3.2c0,0,12-10.7,20.7-1.2l197.7,3.1c41,0.7,81.9,3.1,122.6,7.3l125.8,13c9,0.9,16.7-6.6,16-15.6L1077.4,117.1z"/>
			<g>
				<path class="st4" d="M1099,567.4c-6.2-6.2-6.2-16.1,0-22.3c2.7-2.7,6-4.2,9.5-4.5c-2-5-1.6-9.7-5.2-13.6l-11.6-359.4
					c4.3-4.3,4.4-9.5,6.7-15.3c-3.5-0.4-6.8-1.9-9.5-4.5c-6.2-6.2-6.2-16.1,0-22.3c2.9-2.9,6.7-4.5,10.5-4.6
					c-4.6-14.1-15.7-25.2-29.8-29.8c-0.1,3.8-1.7,7.6-4.6,10.5c-6.2,6.2-16.1,6.2-22.3,0c-2.7-2.7-4.2-6-4.5-9.5
					c-17.1,6.8-29.1,23.5-29.1,43h35.2l-9.1,20.2l20.2-9.1v35.2c8.4,0,16.3-2.2,23.1-6.2l11.8,343.5c-7.2-4.6-15.7-7.2-24.8-7.2
					v35.2l-20.2-9.1l9.1,20.2h-35.2c0,19.5,12,36.2,29.1,43c0.4-3.5,1.9-6.8,4.5-9.5c6.2-6.2,16.1-6.2,22.3,0
					c2.9,2.9,4.5,6.7,4.6,10.5c14.1-4.6,25.2-15.7,29.8-29.8C1105.7,571.9,1101.9,570.4,1099,567.4z"/>
				<path class="st5" d="M1084.7,110.1c1.2,1.7,2.2,3.5,2.9,5.5l0,0"/>
				<path class="st5" d="M1076.1,103.3l1.8,0.9c0.9,0.4,1.7,1,2.4,1.5"/>
				<path class="st5" d="M1091.3,155.2l-0.3,0.9c-0.7,2.3-1.9,4.4-3.5,6.2l0,0"/>
				<line class="st5" x1="1072.4" y1="171.6" x2="1069.3" y2="173.7"/>
				<line class="st5" x1="1088.2" y1="261.3" x2="1087.8" y2="272.2"/>
				<line class="st5" x1="1088.7" y1="242.4" x2="1088.4" y2="253.9"/>
				<line class="st5" x1="1089.3" y1="226" x2="1089.1" y2="232.3"/>
				<path class="st5" d="M1071.2,516.5l2.4,0.4c3.7,0.6,7.3,2.2,10.3,4.6l0,0"/>
			</g>
			<g>
				<path class="st4" d="M16,567.8c6.2-6.2,6.2-16.1,0-22.3c-2.7-2.7-6-4.2-9.5-4.5c2-5,1.6-9.7,5.2-13.6L23.4,168
					c-4.3-4.3-4.4-9.5-6.7-15.3c3.5-0.4,6.8-1.9,9.5-4.5c6.2-6.2,6.2-16.1,0-22.3c-2.9-2.9-6.7-4.5-10.5-4.6
					c4.6-14.1,15.7-25.2,29.8-29.8c0.1,3.8,1.7,7.6,4.6,10.5c6.2,6.2,16.1,6.2,22.3,0c2.7-2.7,4.2-6,4.5-9.5
					C94,99.3,106,116,106,135.5H70.7l9.1,20.2l-20.2-9.1v35.2c-8.4,0-16.3-2.2-23.1-6.2L24.7,519.1c7.2-4.6,15.7-7.2,24.8-7.2v35.2
					l20.2-9.1l-9.1,20.2h35.2c0,19.5-12,36.2-29.1,43c-0.4-3.5-1.9-6.8-4.5-9.5c-6.2-6.2-16.1-6.2-22.3,0c-2.9,2.9-4.5,6.7-4.6,10.5
					c-14.1-4.6-25.2-15.7-29.8-29.8C9.3,572.3,13.1,570.7,16,567.8z"/>
				<path class="st5" d="M28.7,108.9c-1.8,1.8-3.4,3.8-4.8,5.9l-0.6,0.8"/>
				<path class="st5" d="M40.2,100L40.2,100c-2,1.1-4,2.4-5.8,3.8"/>
				<line class="st5" x1="25.6" y1="337.6" x2="24.2" y2="352"/>
				<line class="st5" x1="28.1" y1="318.7" x2="26.7" y2="328.5"/>
			</g>
			<path class="st6" d="M597.7,233l-75.2,1.8l-4.4,312.4l0,0c25.8,7.2,53.2,7.9,79.4,2.1L597.7,233z"/>
			<path class="st7" d="M597.7,215.8l-75.2,1.8L518.1,530l0,0c25.8,7.2,53.2,7.9,79.4,2.1L597.7,215.8z"/>
			<g>
				<path class="st7" d="M494.7,550.9c-2.1-29.4-3-58.7-3.5-88.1s-0.5-58.7-0.1-88s1.2-58.7,2.4-88c1.3-29.3,3-58.7,5.9-88
					c2.1,29.4,3,58.7,3.6,88.1c0.5,29.4,0.5,58.7,0.1,88s-1.2,58.7-2.5,88C499.3,492.3,497.6,521.6,494.7,550.9z"/>
			</g>
			<g>
				<path class="st7" d="M626.4,551c-2.9-29.3-4.6-58.6-6-88c-1.3-29.3-2.1-58.7-2.6-88c-0.4-29.3-0.4-58.7,0-88.1
					c0.5-29.4,1.4-58.7,3.5-88.1c2.9,29.3,4.6,58.6,6,88c1.3,29.3,2.1,58.7,2.5,88c0.4,29.4,0.4,58.7,0,88.1
					C629.3,492.3,628.4,521.6,626.4,551z"/>
			</g>
		</g>
		<g class="st1">
			<g>
				<path class="st8" d="M494.4,541.8l-146-2.8c-10.4-0.2-20.8,0.4-31,1.8l-122.7,16.7c-9.1,1.2-18.1,2-27.3,2.4l-116.6,4.7
					l16.5-193.4c2.5-30.4,2.5-61-0.2-91.4L52,114.3l449.3-15.5L494.4,541.8z"/>
				<g>
					<g>
						<path class="st19" d="M477.5,15.9l-0.4,50.8c-12.3-5.2-25.6-7.9-39.3-7.9h-49.1h-0.1c-6.1,0-12.2,0.8-18.2,2.2L245.8,90.4
							c-23.1,5.5-46.5,9.6-70,12.5l-6.6-38.6L104.6,68l1,7.6l-9.4,0.6l0.9,6.7l-6.8,0.4l1.3,9.4L86,93l0.4,3.2l-4.9,0.3l-4.2-0.4
							l0.9,6.8l-5,0.3l0.6,4.3l-4.9,0.3l0.4,2.7l-4.5,0.3l13.5,99.7c9.3,68.2,9.7,137.4,1.1,205.7L62.8,550.6l73.7-1.1
							c36.9-0.6,73.8-4.4,110.1-11.2l126.3-23.9c3.6-0.7,7-1.1,10.7-1.3c1.7-0.1,3.5-0.1,5.2-0.1H438c28.7,0,56.1,12.2,75.1,33.7
							l3.7,4.1l4.1-3.1l4.3-4.6l4.1-7.1l4.2,0.4l4.5-3.5l4.4-9.7l5.9-7.1l8.3-8.2l5.1-5V48.7L477.5,15.9z"/>
						<path class="st10" d="M66.9,547.5l16.8-134.4c8.5-68.3,8.1-137.5-1.1-205.7l-13.5-99.7"/>
						<path class="st10" d="M71.2,543L88,408.6c8.5-68.3,8.1-137.5-1.1-205.7l-13.6-99.7"/>
						<path class="st10" d="M525.3,543l-3.7-4.1c-19.1-21.4-46.4-33.7-75.1-33.7h-49.3c-1.7,0-3.5,0-5.2,0.1
							c-3.6,0.2-7.1,0.6-10.7,1.3L255,530.5c-36.3,6.9-73.2,10.7-110.1,11.2l-73.7,1.1"/>
						<path class="st11" d="M525.3,543"/>
						<path class="st10" d="M75.3,535.8l16.8-134.4c8.5-68.3,8.1-137.5-1.1-205.7L77.3,96"/>
						<path class="st11" d="M529.3,535.8"/>
						<path class="st10" d="M79.5,536.2l16.8-134.4c7.1-56.9,9.1-114.4,3.8-171.5c-1-11.4-3.4-22.8-4.9-34.2L81.6,96.4"/>
						<path class="st11" d="M533.5,536.2"/>
						<path class="st10" d="M83.9,532.8l16.8-134.4c8.5-68.3,8.1-137.5-1.1-205.7L86,93"/>
						<path class="st10" d="M538,532.8l-3.7-4.1c-19.1-21.4-46.4-33.7-75.1-33.7h-49.3c-1.7,0-3.5,0-5.2,0.1
							c-3.6,0.2-7.1,0.6-10.7,1.3l-126.2,24c-36.3,6.9-73.2,7.6-110.1,8.1L84,532.8"/>
						<path class="st11" d="M538,532.8"/>
						<path class="st10" d="M88.3,523.1l16.8-134.4c8.5-68.3,8.1-137.5-1.1-205.7L90.5,83.3"/>
						<path class="st10" d="M542.4,523.1l-3.7-4.1c-19.1-21.4-46.4-33.7-75.1-33.7h-49.3c-1.7,0-3.5,0-5.2,0.1
							c-3.6,0.2-7.1,0.6-10.7,1.3l-68.9,17.1l-57.4,7.8c-36.3,6.9-73.2,9.7-110.1,10.2L88.3,523"/>
						<path class="st10" d="M94.1,516l16.8-134.4c6.4-51.2,5.7-102.9,2.1-154.3c-1.2-17.2-0.9-34.3-3.3-51.4L96.2,76.2"/>
						<path class="st10" d="M94.1,516l73.7-1.1c36.9-0.6,73.8-4.4,110.1-11.2l126.3-23.9c3.6-0.7,7-1.1,10.7-1.3
							c1.7-0.1,3.5-0.1,5.2-0.1h49.3c28.7,0,56.1,12.2,75.1,33.7l3.7,4.1"/>
						<polyline class="st10" points="102.5,507.8 94.4,515.9 88.3,523.4 84,532.8 79.5,535.8 75.4,535.4 71,543 67.1,547.5 
							62.9,550.6 						"/>
					</g>
					<path class="st11" d="M556.5,507.8l-3.7-4.1c-19.1-21.4-46.4-33.7-75.1-33.7h-49.3c-1.7,0-3.5,0-5.2,0.1
						c-3.6,0.2-7.1,0.6-10.7,1.3l-126.3,23.9c-36.3,6.9-73.2,10.7-110.1,11.2l-73.7,1.1l16.8-134.4c8.5-68.3,8.1-137.5-1.1-205.7
						l-13.5-99.7l24-5.3l4,3.8l-0.4,4.6l5.7,0.5l3.7,3.5l10.1-10l24.5-1.2c36.8-2.2,73.5-7.6,109.4-16.1l124.6-29.4
						c6-1.4,12-2.2,18.2-2.2h0.1h49.1c27.9,0,54.6,11.6,73.6,32l5.4,5.8l5.1,449.1L556.5,507.8z"/>
					<path class="st20" d="M130,222.1c-2.2-17.8-4-35.7-3.4-53.6l2-28.4c-0.3-13.6,12.2-28.2,18.8-40.2c0,0,22-24.2,39-30.7l23.7-8
						l-0.5,54.6l-71.4,172.5L130,222.1z"/>
					<path class="st21" d="M202,57.1L185.5,69c-17.2,12.4-30.7,29.2-39.2,48.8l0,0c-3.3,7.6-5.7,15.6-7.3,23.7l-9.3,46.8l69.6-29
						l12-66.2L202,57.1z"/>
					<path class="st11" d="M560.9,501.9l-3-3.3c-19.1-21.4-46.4-33.7-75.1-33.7h-49.3c-1.7,0-3.5,0-5.2,0.1
						c-3.6,0.2-7.1,0.6-10.7,1.3l-126.3,23.9c-16,3.1-40.2,6.5-56.4,8.2c-5.8,0.6-9.7-4.4-11.3-4.4c0,0-4.2,6-10.4,6.4
						c-8.7,0.5-23.5,0.8-32.2,0.9l-73.7,1.1L124.1,368c7.6-61.2,11.4-119.7,5.4-180.3c-1.3-13.8,3.4-27.6,13-37.7l0,0
						c5.8-6,13-10.5,21-12.9l27.8-8.3l-14.1-23.6c-4.8-8-5.8-17.7-3-26.5l0,0c4-12.1,14.8-20.9,27.5-22.1
						c29.8-2.7,59.4-7.6,88.7-14.5l38.7-7.2l14.7,8.3l7.9-17.5l64.2-13.2c5.7-1.3,11.6-2,17.5-2l0,0h49.1c27.9,0,54.6,11.6,73.6,32
						l5.4,5.8v452.9C561.7,502.1,561.2,502.3,560.9,501.9z"/>
					<path class="st22" d="M544.8,485.7c7.8,5,6.9,5.9,13.2,13l3,3.3c0.3,0.3,0.7,0.1,0.7-0.3v-453l-5.4-5.8
						c-5.5-5.9-5.6-5-12.2-9.4l-4.7,214L544.8,485.7z"/>
					<path class="st10" d="M560.9,501.9l-3-3.3c-19.1-21.4-46.4-33.7-75.1-33.7h-49.3c-1.7,0-3.5,0-5.2,0.1
						c-3.6,0.2-7.1,0.6-10.7,1.3l-126.3,23.9c-16,3.1-40.2,6.5-56.4,8.2c-5.8,0.6-9.7-4.4-11.3-4.4c0,0-4.2,6-10.4,6.4
						c-8.7,0.5-23.5,0.8-32.2,0.9l-73.7,1.1L124.1,368c7.6-61.2,11.4-119.7,5.4-180.3c-1.3-13.8,3.4-27.6,13-37.7l0,0
						c5.8-6,13-10.5,21-12.9l27.8-8.3l-14.1-23.6c-4.8-8-5.8-17.7-3-26.5l0,0c4-12.1,14.8-20.9,27.5-22.1
						c29.8-2.7,59.4-7.6,88.7-14.5l38.7-7.2l14.7,8.3l7.9-17.5l64.2-13.2c5.7-1.3,11.6-2,17.5-2l0,0h49.1c27.9,0,54.6,11.6,73.6,32
						l5.4,5.8v452.9C561.7,502.1,561.2,502.3,560.9,501.9z"/>
					<path class="st23" d="M143.8,158.6L143.8,158.6c5.8-6,13-10.5,21-12.9l27.8-8.3l-14.1-23.6c-4.8-8-5.8-17.7-3-26.5l0,0"/>
					<path class="st11" d="M142.8,150.5L142.8,150.5c5.8-6,13-10.5,21-12.9l27.8-8.3l-14.1-23.6c-4.8-8-5.8-17.7-3-26.5l0,0"/>
				</g>
				<path class="st13" d="M181.5,177.8c-1.7,3.8-2.7,7.7-3.2,11.8l-10.8,131.8L156.9,430c-1.6,16.8,9.1,32.4,25.3,36.8l10.9,3
					c4.4,1.2,8.9,1.5,13.3,1l87.9-10.7c2.8-0.3,5.7-1,8.3-2.1l76.6-29.7c3.5-1.3,7-2.1,10.7-2.3l80-4.2c2.4-0.1,5,0,7.4,0.4l0,0
					c19.7,3.3,38.2-10.9,40.1-30.8l6.6-66.7c0.1-1.1,0.2-2.2,0.2-3.4v-98.4c0-2-0.2-4.2-0.6-6.2l-17-94.7c-1.4-8-5.8-15.4-12.1-20.6
					l-21.8-17.9c-3.7-3.1-7.9-5.3-12.5-6.5l-35.4-10.1c-6.3-1.8-13-1.7-19.3,0.1l-47.4,14c-2.5,0.7-5.1,1.2-7.7,1.3l-43.2,2.6
					c-0.7,0-1.3,0.1-2,0.2l-58.1,7c-6,0.7-11.6,3-16.5,6.5l-11.2,8.3c-4.7,3.5-8.3,7.9-10.8,13.2L181.5,177.8z"/>
				<path class="st14" d="M201,188.9c-1.5,3.3-2.4,6.8-2.7,10.4l-9.5,115.6l-9.4,95.3c-1.4,14.8,7.9,28.4,22.3,32.4l9.6,2.6
					c3.8,1,7.8,1.3,11.7,0.8l77.1-9.5c2.5-0.3,5-0.9,7.3-1.8l67.3-26.1c3.1-1.1,6.2-1.8,9.5-2l70.2-3.7c2.1-0.1,4.4,0,6.5,0.4l0,0
					c17.4,2.8,33.5-9.6,35.2-27.1l5.8-58.5c0.1-1,0.1-2,0.1-3v-86.4c0-1.8-0.2-3.7-0.5-5.5l-15.3-83.1c-1.3-7.1-5.1-13.5-10.6-18
					L456.5,106c-3.3-2.6-6.9-4.6-11-5.8l-31.1-8.9c-5.6-1.6-11.5-1.5-17,0.1l-41.6,12.3c-2.2,0.6-4.5,1-6.8,1.2l-37.9,2.3
					c-0.6,0-1.2,0.1-1.8,0.2l-51,6.2c-5.2,0.6-10.2,2.6-14.5,5.7l-9.9,7.3c-4.1,3.1-7.3,7-9.5,11.6L201,188.9z"/>
				<path class="st15" d="M223.2,201.5c-1.3,2.7-2,5.7-2.3,8.8l-7.9,97.3l-7.8,80.1c-1.2,12.4,6.7,23.9,18.7,27.2l8,2.2
					c3.2,0.9,6.5,1.1,9.9,0.7l64.8-7.9c2.1-0.3,4.2-0.8,6.2-1.5l56.5-22c2.5-1,5.2-1.5,7.9-1.7l59-3.1c1.8-0.1,3.7,0,5.5,0.3l0,0
					c14.6,2.4,28.2-8,29.6-22.7l4.9-49.3c0.1-0.8,0.1-1.6,0.1-2.5v-72.7c0-1.5-0.1-3.1-0.4-4.6l-12.7-69.8c-1.1-6-4.3-11.3-9-15.2
					l-16.1-13.2c-2.7-2.2-5.9-3.9-9.3-4.9l-26.2-7.4c-4.7-1.3-9.7-1.3-14.2,0.1l-35,10.4c-1.8,0.5-3.8,0.9-5.7,1l-31.9,1.9
					c-0.5,0-1,0.1-1.5,0.1l-42.8,5.2c-4.4,0.5-8.5,2.2-12.1,4.8l-8.3,6.1c-3.5,2.5-6.2,5.9-7.9,9.8L223.2,201.5z"/>
			</g>
			<g>
				<path class="st8" d="M626.3,537.6l142.8-2.7c10.2-0.2,20.3,0.4,30.3,1.7l120,16.5c8.9,1.2,17.7,2,26.7,2.3l114.1,4.7
					l-16.1-190.4c-2.5-29.9-2.4-60.1,0.2-90l14.6-163.2l-439.4-15.2L626.3,537.6z"/>
				<g>
					<path class="st19" d="M648.1,16.4l0.4,50.8c12.3-5.2,25.6-7.9,39.3-7.9h49.1h0.1c6.1,0,12.2,0.8,18.2,2.2l124.6,29.4
						c23.1,5.5,46.5,9.6,70,12.5l6.6-38.6l64.6,3.7l-1,7.6l9.4,0.6l-0.9,6.7l6.8,0.4l-1.3,9.4l5.6,0.3l-0.4,3.2l4.9,0.3l4.2-0.4
						l-0.9,6.8l5,0.3l-0.6,4.3l4.9,0.3l-0.4,2.7l4.5,0.3l-13.5,99.7c-9.3,68.2-9.7,137.4-1.1,205.7l16.8,134.4l-73.7-1.1
						c-36.9-0.6-73.8-4.4-110.1-11.2l-126.3-23.9c-3.6-0.7-7-1.1-10.7-1.3c-1.7-0.1-3.5-0.1-5.2-0.1h-49.3
						c-28.7,0-56.1,12.2-75.1,33.7l-3.7,4.1l-4.1-3.1l-4.3-4.6l-4.1-7.1l-4.2,0.4l-4.5-3.5l-4.4-9.9l-5.9-7.1l-8.3-8.2l-5.1-5v-454
						L648.1,16.4z"/>
					<path class="st10" d="M1058.7,548l-16.8-134.4c-8.5-68.3-8.1-137.5,1.1-205.7l13.5-99.7"/>
					<path class="st10" d="M1054.4,543.4L1037.6,409c-8.5-68.3-8.1-137.5,1.1-205.7l13.5-99.7"/>
					<path class="st10" d="M600.4,543.4l3.7-4.1c19.1-21.4,46.4-33.7,75.1-33.7h49.3c1.7,0,3.5,0,5.2,0.1c3.6,0.2,7.1,0.6,10.7,1.3
						l126.2,24c36.3,6.9,73.2,10.7,110.1,11.2l73.7,1.1"/>
					<path class="st11" d="M600.4,543.4"/>
					<path class="st10" d="M1050.3,536.2l-16.8-134.4c-8.5-68.3-8.1-137.5,1.1-205.7l13.5-99.7"/>
					<path class="st11" d="M596.3,536.2"/>
					<path class="st10" d="M1046.2,536.7l-16.8-134.4c-7.1-56.9-9.1-114.4-3.8-171.5c1-11.4,3.4-22.8,4.9-34.2l13.5-99.7"/>
					<path class="st11" d="M592.1,536.7"/>
					<path class="st10" d="M1041.7,533.2l-16.8-134.4c-8.5-68.3-8.1-137.5,1.1-205.7l13.5-99.7"/>
					<path class="st10" d="M587.6,533.2l3.7-4.1c19.1-21.4,46.4-33.7,75.1-33.7h49.3c1.7,0,3.5,0,5.2,0.1c3.6,0.2,7.1,0.6,10.7,1.3
						l126.3,23.9c36.3,6.9,73.2,7.6,110.1,8.1l73.7,4.2"/>
					<path class="st11" d="M587.6,533.2"/>
					<path class="st10" d="M1037.3,523.5l-16.8-134.4c-8.5-68.3-8.1-137.5,1.1-205.7l13.5-99.7"/>
					<path class="st10" d="M583.3,523.5l3.7-4.1c19.1-21.4,46.4-33.7,75.1-33.7h49.3c1.7,0,3.5,0,5.2,0.1c3.6,0.2,7.1,0.6,10.7,1.3
						l68.9,17.1l57.4,7.8c36.3,6.9,73.2,9.7,110.1,10.2l73.7,1.1"/>
					<path class="st10" d="M1031.4,516.4L1014.6,382c-6.4-51.2-5.7-102.9-2.1-154.3c1.2-17.2,0.9-34.3,3.3-51.4l13.5-99.7"/>
					<path class="st10" d="M1031.4,516.4l-73.7-1.1c-36.9-0.6-73.8-4.4-110.1-11.2l-126.3-23.9c-3.6-0.7-7-1.1-10.7-1.3
						c-1.7-0.1-3.5-0.1-5.2-0.1h-49.3c-28.7,0-56.1,12.2-75.1,33.7l-3.7,4.1"/>
					<path class="st11" d="M569,508.2l3.7-4.1c19.1-21.4,46.4-33.7,75.1-33.7h49.3c1.7,0,3.5,0,5.2,0.1c3.6,0.2,7.1,0.6,10.7,1.3
						l126.3,23.9c36.3,6.9,73.2,10.7,110.1,11.2l73.7,1.1l-16.8-134.4c-8.5-68.3-8.1-137.5,1.1-205.7l13.5-99.7l-24-5.3l-4,3.8
						l0.4,4.6l-5.7,0.5l-3.7,3.5l-10.1-10l-24.5-1.2C912.5,61.9,875.9,56.5,840,48L715.4,18.6c-6-1.4-12-2.2-18.2-2.2h-0.1H648
						c-27.9,0-54.6,11.6-73.6,32l-5.4,5.8l-5.1,449.1L569,508.2z"/>
					<path class="st11" d="M995.8,188.6c0.7-7.3,4.8-42.2,8.4-73.7l-18.6-7.8l20.2-6c2.6-22.3,4.7-40,4.7-40s-74.3-2.4-87-3.7
						c-29.8-2.7-59.4-7.6-88.7-14.5L709.6,13.4c-5.7-1.3-11.6-2-17.5-2H643c-27.9,0-54.6,11.6-73.6,32l-5.4,5.8v452.9
						c0,0.4,0.5,0.6,0.7,0.3l3-3.3c19.1-21.4,46.4-33.7,75.1-33.7h49.3c1.7,0,3.5,0,5.2,0.1c3.6,0.2,7.1,0.6,10.7,1.3l126.3,23.9
						c14.5,2.7,85.6,9.6,105.6,11l10.3-23.9l18.4,24.6l49.6,0.8l-16.8-134.4C993.7,307.7,989.9,249.1,995.8,188.6z"/>
					<path class="st22" d="M580.8,486.1c-7.8,5-6.9,5.9-13.2,13l-3,3.3c-0.3,0.3-0.7,0.1-0.7-0.3v-453l5.4-5.8
						c5.5-5.9,5.6-5,12.2-9.4l4.7,214L580.8,486.1z"/>
					<path class="st10" d="M995.8,188.6c0.7-7.3,4.8-42.2,8.4-73.7l-18.6-7.8l20.2-6c2.6-22.3,4.7-40,4.7-40s-74.3-2.4-87-3.7
						c-29.8-2.7-59.4-7.6-88.7-14.5L709.6,13.4c-5.7-1.3-11.6-2-17.5-2H643c-27.9,0-54.6,11.6-73.6,32l-5.4,5.8v452.9
						c0,0.4,0.5,0.6,0.7,0.3l3-3.3c19.1-21.4,46.4-33.7,75.1-33.7h49.3c1.7,0,3.5,0,5.2,0.1c3.6,0.2,7.1,0.6,10.7,1.3l126.3,23.9
						c14.5,2.7,85.6,9.6,105.6,11l10.3-23.9l18.4,24.6l49.6,0.8l-16.8-134.4C993.7,307.7,989.9,249.1,995.8,188.6z"/>
					<polyline class="st10" points="1023.2,508.2 1031.2,516.3 1037.3,523.8 1041.6,533.2 1046.1,536.2 1050.2,535.8 1054.6,543.4 
						1058.4,548 1062.8,551 					"/>
				</g>
				<path class="st13" d="M944.1,178.2c1.7,3.8,2.7,7.7,3.2,11.8L958,321.8l10.7,108.6c1.6,16.8-9.1,32.4-25.3,36.8l-10.9,3
					c-4.4,1.2-8.9,1.5-13.3,1l-87.9-10.8c-2.8-0.3-5.7-1-8.3-2.1l-76.6-29.7c-3.5-1.3-7-2.1-10.7-2.3l-80-4.2c-2.4-0.1-5,0-7.4,0.4
					l0,0c-19.7,3.3-38.2-10.9-40.1-30.8l-6.6-66.7c-0.1-1.1-0.2-2.2-0.2-3.4v-98.4c0-2,0.2-4.2,0.6-6.2l17.2-94.7
					c1.4-8,5.8-15.4,12.1-20.6l21.8-17.9c3.7-3.1,7.9-5.3,12.5-6.5L701,67.2c6.3-1.8,13-1.7,19.3,0.1l47.4,14
					c2.5,0.7,5.1,1.2,7.7,1.3l43.2,2.6c0.7,0,1.3,0.1,2,0.2l58.1,7c6,0.7,11.6,3,16.5,6.5l11.2,8.3c4.7,3.5,8.3,7.9,10.8,13.2
					L944.1,178.2z"/>
				<path class="st14" d="M924.6,189.3c1.5,3.3,2.4,6.8,2.7,10.4l9.5,115.7l9.4,95.3c1.4,14.8-7.9,28.4-22.3,32.4l-9.6,2.6
					c-3.8,1-7.8,1.3-11.7,0.8l-77.1-9.5c-2.5-0.3-5-0.9-7.3-1.8l-67.3-26.1c-3.1-1.1-6.2-1.8-9.5-2l-70.2-3.7
					c-2.1-0.1-4.4,0-6.5,0.4l0,0c-17.4,2.8-33.5-9.6-35.2-27.1l-5.8-58.5c-0.1-1-0.1-2-0.1-3v-86.4c0-1.8,0.2-3.7,0.5-5.5l15.2-83.1
					c1.3-7.1,5.1-13.5,10.6-18l19.1-15.7c3.3-2.6,6.9-4.6,11-5.8l31.1-8.9c5.6-1.6,11.5-1.5,17,0.1l41.6,12.3c2.2,0.6,4.5,1,6.8,1.2
					l37.9,2.3c0.6,0,1.2,0.1,1.8,0.2l51,6.2c5.2,0.6,10.2,2.6,14.5,5.7l9.9,7.3c4.1,3.1,7.3,7,9.5,11.6L924.6,189.3z"/>
				<path class="st15" d="M902.4,201.9c1.3,2.7,2,5.7,2.3,8.8l7.9,97.3l7.8,80.1c1.2,12.4-6.7,23.9-18.7,27.2l-8,2.2
					c-3.2,0.9-6.5,1.1-9.9,0.7l-64.8-7.9c-2.1-0.3-4.2-0.8-6.2-1.5l-56.5-22c-2.5-1-5.2-1.5-7.9-1.7l-59-3.1c-1.8-0.1-3.7,0-5.5,0.3
					l0,0c-14.6,2.4-28.2-8-29.6-22.7l-4.9-49.3c-0.1-0.8-0.1-1.6-0.1-2.5v-72.7c0-1.5,0.1-3.1,0.4-4.6l12.7-69.8
					c1.1-6,4.3-11.3,9-15.2l16.1-13.2c2.7-2.2,5.9-3.9,9.3-4.9L723,120c4.7-1.3,9.7-1.3,14.2,0.1l35,10.4c1.8,0.5,3.8,0.9,5.7,1
					l31.9,1.9c0.5,0,1,0.1,1.5,0.1l42.8,5.2c4.4,0.5,8.5,2.2,12.1,4.8l8.3,6.1c3.5,2.5,6.2,5.9,7.9,9.8L902.4,201.9z"/>
			</g>
			<g>
				<path class="st18" d="M520.2,553.2c-1.1,0-2.2-0.5-3.1-1.4c-1.4-1.7-1.3-4.3,0.4-5.7l8.3-7.3l6-5.5c1.7-1.6,3.4-3.3,5-5l1.1-1.2
					c2.3-2.5,4.5-5.3,6.4-8.1c3-4.3,6.3-8.2,10-11.9c2.3-2.3,5.4-3.6,8.7-3.5s6.3,1.4,8.5,3.8l7.6,8.1c1.8,1.9,3.6,4,5.2,6l2.5,3.3
					c2.5,3.3,5.3,6.3,8.2,9.1l12.8,12c1.6,1.5,1.7,4.1,0.2,5.8c-1.5,1.6-4.1,1.7-5.8,0.2l-12.9-12c-3.3-3.1-6.4-6.5-9.2-10.1
					l-2.5-3.3c-1.4-1.9-3.1-3.8-4.7-5.5l-7.6-8.1c-0.7-0.7-1.6-1.2-2.6-1.2s-2,0.4-2.7,1.1c-3.3,3.3-6.3,6.9-9,10.8
					c-2.1,3.2-4.6,6.1-7.1,9l-1.1,1.2c-1.7,1.9-3.6,3.8-5.5,5.5l-6.1,5.6l-8.4,7.3C522.1,552.9,521.2,553.2,520.2,553.2z"/>
			</g>
		</g>
	</g>
</g>
<g>
	<g>
		<g>
			<path class="st24" d="M1090.3,111.3c0.7-8.5-6-15.7-14.5-15.7H629.4H486.6H40.2c-8.5,0-15.2,7.3-14.5,15.7L14.3,573.6
				c-0.7,9.1,7,16.6,16,15.6l129.4-13.5c41.7-4.3,83.7-6.9,125.6-7.5l207.8-3.3c0,0,10.8-13.4,22.9,2.5l0,0
				c25,7.4,51.4,8.1,76.8,2.2l14-3.3c0,0,10.8-15.3,21.3-1.2l202.6,3.2c42,0.7,83.9,3.2,125.6,7.5l129.4,13.5
				c9,0.9,16.7-6.5,16-15.6L1090.3,111.3z"/>
			<path class="st25" d="M1077.4,112.7c0.7-8.5-6-15.8-14.5-15.8H627.6H488.4H53.2c-8.5,0-15.2,7.3-14.5,15.8L27.5,559.5
				c-0.7,9.1,7,16.6,16,15.6l125.8-13c40.7-4.2,81.6-6.6,122.6-7.3l202.7-3.2c0,0,12-12.7,22.3,2.4l0,0c24.4,7.2,50.2,7.9,74.9,2.1
				l13.7-3.2c0,0,12-10.7,20.7-1.2l197.7,3.1c41,0.7,81.9,3.1,122.6,7.3l125.8,13c9,0.9,16.7-6.6,16-15.6L1077.4,112.7z"/>
			<path class="st26" d="M597.7,228.6l-75.2,1.8l-4.4,312.4l0,0c25.8,7.2,53.2,7.9,79.4,2.1L597.7,228.6z"/>
			<path class="st27" d="M597.7,211.4l-75.2,1.8l-4.4,312.4l0,0c25.8,7.2,53.2,7.9,79.4,2.1L597.7,211.4z"/>
			<g>
				<path class="st27" d="M494.7,546.5c-2.1-29.4-3-58.7-3.5-88.1s-0.5-58.7-0.1-88s1.2-58.7,2.4-88c1.3-29.3,3-58.7,5.9-88
					c2.1,29.4,3,58.7,3.6,88.1c0.5,29.4,0.5,58.7,0.1,88s-1.2,58.7-2.5,88C499.3,487.9,497.6,517.2,494.7,546.5z"/>
			</g>
			<g>
				<path class="st27" d="M626.4,546.6c-2.9-29.3-4.6-58.6-6-88c-1.3-29.3-2.1-58.7-2.6-88c-0.4-29.3-0.4-58.7,0-88.1
					c0.5-29.4,1.4-58.7,3.5-88.1c2.9,29.3,4.6,58.6,6,88c1.3,29.3,2.1,58.7,2.5,88c0.4,29.4,0.4,58.7,0,88.1
					C629.3,487.9,628.4,517.2,626.4,546.6z"/>
			</g>
		</g>
		<g>
			<g>
				<g>
					<path class="st28" d="M974.7,578h132V419.2c0-0.5-0.6-0.7-0.9-0.3l-29.9,38.4l-1,90.5l-76.4,2L974.7,578z"/>
					<path class="st29" d="M1107.7,579H972.4l25.6-30.1l75.9-2l1-89.9l30.1-38.7c0.4-0.5,1.1-0.7,1.7-0.5s1,0.8,1,1.4V579z
						 M976.9,576.9h128.8V420.8l-28.7,36.9l-1,91.2l-77,2L976.9,576.9z"/>
				</g>
				<g>
					<rect x="974.7" y="578" class="st30" width="132" height="12.9"/>
					<path class="st29" d="M1107.7,591.9H973.6V577h134.1V591.9z M975.7,589.8h130V579h-130L975.7,589.8L975.7,589.8z"/>
				</g>
			</g>
			<g>
				<g>
					<g>
						<circle class="st31" cx="1002.7" cy="566.5" r="4.9"/>
					</g>
					<g>
						<path class="st32" d="M1002.7,573.6c-3.9,0-7.1-3.2-7.1-7.1c0-3.9,3.2-7.1,7.1-7.1c3.9,0,7.1,3.2,7.1,7.1
							C1009.8,570.4,1006.6,573.6,1002.7,573.6z M1002.7,563.8c-1.5,0-2.7,1.2-2.7,2.7s1.2,2.7,2.7,2.7s2.7-1.2,2.7-2.7
							S1004.2,563.8,1002.7,563.8z"/>
					</g>
				</g>
				<g>
					<g>
						<path class="st33" d="M1000.7,568.7c-1.2,0-2.2-1-2.2-2.2c0-2.7,2.2-4.2,4.2-4.2c1.2,0,2.2,1,2.2,2.2c0,1.1-0.9,2.1-2,2.2
							C1002.8,567.8,1001.9,568.7,1000.7,568.7z"/>
					</g>
				</g>
			</g>
			<g>
				<g>
					<g>
						<circle class="st31" cx="1033.5" cy="566.5" r="4.9"/>
					</g>
					<g>
						<path class="st32" d="M1033.5,573.6c-3.9,0-7.1-3.2-7.1-7.1c0-3.9,3.2-7.1,7.1-7.1s7.1,3.2,7.1,7.1
							C1040.6,570.4,1037.4,573.6,1033.5,573.6z M1033.5,563.8c-1.5,0-2.7,1.2-2.7,2.7s1.2,2.7,2.7,2.7s2.7-1.2,2.7-2.7
							S1034.9,563.8,1033.5,563.8z"/>
					</g>
				</g>
				<g>
					<g>
						<path class="st33" d="M1031.5,568.7c-1.2,0-2.2-1-2.2-2.2c0-2.7,2.2-4.2,4.2-4.2c1.2,0,2.2,1,2.2,2.2c0,1.1-0.9,2.1-2,2.2
							C1033.6,567.8,1032.7,568.7,1031.5,568.7z"/>
					</g>
				</g>
			</g>
			<g>
				<g>
					<g>
						<circle class="st31" cx="1062.8" cy="566.5" r="4.9"/>
					</g>
					<g>
						<path class="st32" d="M1062.8,573.6c-3.9,0-7.1-3.2-7.1-7.1c0-3.9,3.2-7.1,7.1-7.1s7.1,3.2,7.1,7.1
							C1069.9,570.4,1066.7,573.6,1062.8,573.6z M1062.8,563.8c-1.5,0-2.7,1.2-2.7,2.7s1.2,2.7,2.7,2.7s2.7-1.2,2.7-2.7
							S1064.3,563.8,1062.8,563.8z"/>
					</g>
				</g>
				<g>
					<g>
						<path class="st33" d="M1060.9,568.7c-1.2,0-2.2-1-2.2-2.2c0-2.7,2.2-4.2,4.2-4.2c1.2,0,2.2,1,2.2,2.2c0,1.1-0.9,2.1-2,2.2
							C1062.9,567.8,1062,568.7,1060.9,568.7z"/>
					</g>
				</g>
			</g>
			<g>
				<g>
					<g>
						<circle class="st31" cx="1092.6" cy="566.5" r="4.9"/>
					</g>
					<g>
						<path class="st32" d="M1092.6,573.6c-3.9,0-7.1-3.2-7.1-7.1c0-3.9,3.2-7.1,7.1-7.1s7.1,3.2,7.1,7.1
							C1099.7,570.4,1096.5,573.6,1092.6,573.6z M1092.6,563.8c-1.5,0-2.7,1.2-2.7,2.7s1.2,2.7,2.7,2.7s2.7-1.2,2.7-2.7
							S1094,563.8,1092.6,563.8z"/>
					</g>
				</g>
				<g>
					<g>
						<path class="st33" d="M1090.6,568.7c-1.2,0-2.2-1-2.2-2.2c0-2.7,2.2-4.2,4.2-4.2c1.2,0,2.2,1,2.2,2.2c0,1.1-0.9,2.1-2,2.2
							C1092.7,567.8,1091.7,568.7,1090.6,568.7z"/>
					</g>
				</g>
			</g>
			<g>
				<g>
					<g>
						<circle class="st31" cx="1092.8" cy="532.1" r="4.9"/>
					</g>
					<g>
						<path class="st32" d="M1092.8,539.2c-3.9,0-7.1-3.2-7.1-7.1c0-3.9,3.2-7.1,7.1-7.1s7.1,3.2,7.1,7.1S1096.7,539.2,1092.8,539.2
							z M1092.8,529.4c-1.5,0-2.7,1.2-2.7,2.7s1.2,2.7,2.7,2.7s2.7-1.2,2.7-2.7S1094.3,529.4,1092.8,529.4z"/>
					</g>
				</g>
				<g>
					<g>
						<path class="st33" d="M1090.8,534.3c-1.2,0-2.2-1-2.2-2.2c0-2.7,2.2-4.2,4.2-4.2c1.2,0,2.2,1,2.2,2.2c0,1.1-0.9,2.1-2,2.2
							C1092.9,533.5,1092,534.3,1090.8,534.3z"/>
					</g>
				</g>
			</g>
			<g>
				<g>
					<g>
						<circle class="st31" cx="1092.8" cy="497.3" r="4.9"/>
					</g>
					<g>
						<path class="st32" d="M1092.8,504.4c-3.9,0-7.1-3.2-7.1-7.1c0-3.9,3.2-7.1,7.1-7.1s7.1,3.2,7.1,7.1S1096.7,504.4,1092.8,504.4
							z M1092.8,494.6c-1.5,0-2.7,1.2-2.7,2.7s1.2,2.7,2.7,2.7s2.7-1.2,2.7-2.7S1094.3,494.6,1092.8,494.6z"/>
					</g>
				</g>
				<g>
					<g>
						<path class="st33" d="M1090.8,499.5c-1.2,0-2.2-1-2.2-2.2c0-2.7,2.2-4.2,4.2-4.2c1.2,0,2.2,1,2.2,2.2c0,1.1-0.9,2.1-2,2.2
							C1092.9,498.6,1092,499.5,1090.8,499.5z"/>
					</g>
				</g>
			</g>
			<g>
				<g>
					<g>
						<circle class="st31" cx="1092.8" cy="459.4" r="4.9"/>
					</g>
					<g>
						<path class="st32" d="M1092.8,466.5c-3.9,0-7.1-3.2-7.1-7.1s3.2-7.1,7.1-7.1s7.1,3.2,7.1,7.1S1096.7,466.5,1092.8,466.5z
							 M1092.8,456.7c-1.5,0-2.7,1.2-2.7,2.7s1.2,2.7,2.7,2.7s2.7-1.2,2.7-2.7S1094.3,456.7,1092.8,456.7z"/>
					</g>
				</g>
				<g>
					<g>
						<path class="st33" d="M1090.8,461.6c-1.2,0-2.2-1-2.2-2.2c0-2.7,2.2-4.2,4.2-4.2c1.2,0,2.2,1,2.2,2.2c0,1.1-0.9,2.1-2,2.2
							C1092.9,460.7,1092,461.6,1090.8,461.6z"/>
					</g>
				</g>
			</g>
		</g>
		<g>
			<g>
				<g>
					<path class="st28" d="M1097.8,204.4V88.5H958.6c-0.9,0-1.2,1.1-0.6,1.6l32.4,26.7l83.3,0.8l-1.1,67l24.3,20.1
						C1097.4,205.1,1097.8,204.8,1097.8,204.4z"/>
					<path class="st29" d="M1097.3,205.9c-0.3,0-0.7-0.1-1-0.3l-24.7-20.4l1.1-66.5l-82.7-0.8l-32.7-27c-0.6-0.5-0.9-1.4-0.6-2.1
						c0.3-0.8,1-1.3,1.8-1.3h140.2v116.9c0,0.6-0.3,1.1-0.9,1.4C1097.8,205.9,1097.6,205.9,1097.3,205.9z M1073.7,184.2l23.1,19
						V89.5H958.9l31.9,26.3l84,0.8L1073.7,184.2z"/>
				</g>
			</g>
			<g>
				<g>
					<g>
						<circle class="st31" cx="1087.6" cy="180.6" r="4.3"/>
					</g>
					<g>
						<path class="st32" d="M1087.6,186.9c-3.5,0-6.3-2.8-6.3-6.3s2.8-6.3,6.3-6.3s6.3,2.8,6.3,6.3
							C1094,184.1,1091.1,186.9,1087.6,186.9z M1087.6,178.3c-1.3,0-2.3,1.1-2.3,2.3s1.1,2.3,2.3,2.3c1.3,0,2.3-1.1,2.3-2.3
							S1088.9,178.3,1087.6,178.3z"/>
					</g>
				</g>
				<g>
					<g>
						<path class="st33" d="M1085.9,182.6c-1.1,0-2-0.9-2-2c0-2.4,1.9-3.7,3.7-3.7c1.1,0,2,0.9,2,2c0,1-0.8,1.9-1.7,2
							C1087.7,181.8,1086.9,182.6,1085.9,182.6z"/>
					</g>
				</g>
			</g>
			<g>
				<g>
					<g>
						<circle class="st31" cx="1087.6" cy="153.4" r="4.3"/>
					</g>
					<g>
						<path class="st32" d="M1087.6,159.7c-3.5,0-6.3-2.8-6.3-6.3s2.8-6.3,6.3-6.3s6.3,2.8,6.3,6.3
							C1094,156.8,1091.1,159.7,1087.6,159.7z M1087.6,151c-1.3,0-2.3,1.1-2.3,2.3s1.1,2.3,2.3,2.3c1.3,0,2.3-1.1,2.3-2.3
							S1088.9,151,1087.6,151z"/>
					</g>
				</g>
				<g>
					<g>
						<path class="st33" d="M1085.9,155.3c-1.1,0-2-0.9-2-2c0-2.4,1.9-3.7,3.7-3.7c1.1,0,2,0.9,2,2c0,1-0.8,1.9-1.7,2
							C1087.7,154.6,1086.9,155.3,1085.9,155.3z"/>
					</g>
				</g>
			</g>
			<g>
				<g>
					<g>
						<circle class="st31" cx="1087.6" cy="127.4" r="4.3"/>
					</g>
					<g>
						<path class="st32" d="M1087.6,133.7c-3.5,0-6.3-2.8-6.3-6.3s2.8-6.3,6.3-6.3s6.3,2.8,6.3,6.3
							C1094,130.9,1091.1,133.7,1087.6,133.7z M1087.6,125c-1.3,0-2.3,1.1-2.3,2.3c0,1.3,1.1,2.3,2.3,2.3c1.3,0,2.3-1.1,2.3-2.3
							C1090,126.1,1088.9,125,1087.6,125z"/>
					</g>
				</g>
				<g>
					<g>
						<path class="st33" d="M1085.9,129.3c-1.1,0-2-0.9-2-2c0-2.4,1.9-3.7,3.7-3.7c1.1,0,2,0.9,2,2c0,1-0.8,1.9-1.7,2
							C1087.7,128.6,1086.9,129.3,1085.9,129.3z"/>
					</g>
				</g>
			</g>
			<g>
				<g>
					<g>
						<circle class="st31" cx="1087.6" cy="101" r="4.3"/>
					</g>
					<g>
						<path class="st32" d="M1087.6,107.3c-3.5,0-6.3-2.8-6.3-6.3s2.8-6.3,6.3-6.3s6.3,2.8,6.3,6.3
							C1094,104.5,1091.1,107.3,1087.6,107.3z M1087.6,98.7c-1.3,0-2.3,1.1-2.3,2.3s1.1,2.3,2.3,2.3c1.3,0,2.3-1.1,2.3-2.3
							S1088.9,98.7,1087.6,98.7z"/>
					</g>
				</g>
				<g>
					<g>
						<path class="st33" d="M1085.9,103c-1.1,0-2-0.9-2-2c0-2.4,1.9-3.7,3.7-3.7c1.1,0,2,0.9,2,2c0,1-0.8,1.9-1.7,2
							C1087.7,102.2,1086.9,103,1085.9,103z"/>
					</g>
				</g>
			</g>
			<g>
				<g>
					<g>
						<circle class="st31" cx="1057.2" cy="100.8" r="4.3"/>
					</g>
					<g>
						<path class="st32" d="M1057.2,107.1c-3.5,0-6.3-2.8-6.3-6.3s2.8-6.3,6.3-6.3s6.3,2.8,6.3,6.3S1060.7,107.1,1057.2,107.1z
							 M1057.2,98.5c-1.3,0-2.3,1.1-2.3,2.3s1.1,2.3,2.3,2.3c1.3,0,2.3-1.1,2.3-2.3S1058.5,98.5,1057.2,98.5z"/>
					</g>
				</g>
				<g>
					<g>
						<path class="st33" d="M1055.5,102.8c-1.1,0-2-0.9-2-2c0-2.4,1.9-3.7,3.7-3.7c1.1,0,2,0.9,2,2c0,1-0.8,1.9-1.7,2
							C1057.3,102,1056.5,102.8,1055.5,102.8z"/>
					</g>
				</g>
			</g>
			<g>
				<g>
					<g>
						<path class="st31" d="M1026.4,96.5c2.4,0,4.3,1.9,4.3,4.3s-1.9,4.3-4.3,4.3s-4.3-1.9-4.3-4.3S1024,96.5,1026.4,96.5z"/>
					</g>
					<g>
						<path class="st32" d="M1026.4,107.1c-3.5,0-6.3-2.8-6.3-6.3s2.8-6.3,6.3-6.3s6.3,2.8,6.3,6.3
							C1032.7,104.3,1029.8,107.1,1026.4,107.1z M1026.4,98.5c-1.3,0-2.3,1.1-2.3,2.3s1.1,2.3,2.3,2.3c1.3,0,2.3-1.1,2.3-2.3
							S1027.7,98.5,1026.4,98.5z"/>
					</g>
				</g>
				<g>
					<g>
						<path class="st33" d="M1024.6,102.8c-1.1,0-2-0.9-2-2c0-2.4,1.9-3.7,3.7-3.7c1.1,0,2,0.9,2,2c0,1-0.8,1.9-1.7,2
							C1026.5,102,1025.6,102.8,1024.6,102.8z"/>
					</g>
				</g>
			</g>
			<g>
				<g>
					<g>
						<circle class="st31" cx="992.8" cy="100.8" r="4.3"/>
					</g>
					<g>
						<path class="st32" d="M992.8,107.1c-3.5,0-6.3-2.8-6.3-6.3s2.8-6.3,6.3-6.3s6.3,2.8,6.3,6.3S996.3,107.1,992.8,107.1z
							 M992.8,98.5c-1.3,0-2.3,1.1-2.3,2.3s1.1,2.3,2.3,2.3s2.3-1.1,2.3-2.3S994.1,98.5,992.8,98.5z"/>
					</g>
				</g>
				<g>
					<g>
						<path class="st33" d="M991.1,102.8c-1.1,0-2-0.9-2-2c0-2.4,1.9-3.7,3.7-3.7c1.1,0,2,0.9,2,2c0,1-0.8,1.9-1.7,2
							C992.9,102,992.1,102.8,991.1,102.8z"/>
					</g>
				</g>
			</g>
		</g>
		<g>
			<g>
				<g>
					<path class="st28" d="M140.4,578H8.3V419.3c0-0.5,0.6-0.7,0.9-0.3l29.9,38.4l1,90.5l76.4,2L140.4,578z"/>
					<path class="st29" d="M7.3,419.2c0-0.6,0.4-1.2,1-1.4c0.6-0.2,1.3,0,1.7,0.5L40.1,457l1,89.9l75.9,2l25.6,30.1H7.3V419.2z
						 M116,550.9l-77-2l-1-91.2L9.3,420.8v156.1h128.8L116,550.9z"/>
				</g>
				<g>
					<rect x="8.3" y="578" class="st30" width="132" height="12.9"/>
					<path class="st29" d="M7.3,576.9h134.1v14.9H7.3V576.9z M139.3,579H9.3v10.8h130V579z"/>
				</g>
			</g>
			<g>
				<g>
					<g>
						<circle class="st31" cx="112.3" cy="566.5" r="4.9"/>
					</g>
					<g>
						<path class="st32" d="M105.2,566.5c0-3.9,3.2-7.1,7.1-7.1s7.1,3.2,7.1,7.1c0,3.9-3.2,7.1-7.1,7.1S105.2,570.4,105.2,566.5z
							 M109.7,566.5c0,1.5,1.2,2.7,2.7,2.7s2.7-1.2,2.7-2.7s-1.2-2.7-2.7-2.7C110.8,563.8,109.7,565,109.7,566.5z"/>
					</g>
				</g>
				<g>
					<g>
						<path class="st33" d="M114.3,568.7c1.2,0,2.2-1,2.2-2.2c0-2.7-2.2-4.2-4.2-4.2c-1.2,0-2.2,1-2.2,2.2c0,1.1,0.9,2.1,2,2.2
							C112.2,567.8,113.1,568.7,114.3,568.7z"/>
					</g>
				</g>
			</g>
			<g>
				<g>
					<g>
						<circle class="st31" cx="81.5" cy="566.5" r="4.9"/>
					</g>
					<g>
						<path class="st32" d="M74.4,566.5c0-3.9,3.2-7.1,7.1-7.1s7.1,3.2,7.1,7.1c0,3.9-3.2,7.1-7.1,7.1S74.4,570.4,74.4,566.5z
							 M78.9,566.5c0,1.5,1.2,2.7,2.7,2.7s2.7-1.2,2.7-2.7s-1.2-2.7-2.7-2.7S78.9,565,78.9,566.5z"/>
					</g>
				</g>
				<g>
					<g>
						<path class="st33" d="M83.5,568.7c1.2,0,2.2-1,2.2-2.2c0-2.7-2.2-4.2-4.2-4.2c-1.2,0-2.2,1-2.2,2.2c0,1.1,0.9,2.1,2,2.2
							C81.4,567.8,82.4,568.7,83.5,568.7z"/>
					</g>
				</g>
			</g>
			<g>
				<g>
					<g>
						<circle class="st31" cx="52.2" cy="566.5" r="4.9"/>
					</g>
					<g>
						<path class="st32" d="M45.1,566.5c0-3.9,3.2-7.1,7.1-7.1s7.1,3.2,7.1,7.1c0,3.9-3.2,7.1-7.1,7.1S45.1,570.4,45.1,566.5z
							 M49.5,566.5c0,1.5,1.2,2.7,2.7,2.7s2.7-1.2,2.7-2.7s-1.2-2.7-2.7-2.7S49.5,565,49.5,566.5z"/>
					</g>
				</g>
				<g>
					<g>
						<path class="st33" d="M54.2,568.7c1.2,0,2.2-1,2.2-2.2c0-2.7-2.2-4.2-4.2-4.2c-1.2,0-2.2,1-2.2,2.2c0,1.1,0.9,2.1,2,2.2
							C52.1,567.8,53,568.7,54.2,568.7z"/>
					</g>
				</g>
			</g>
			<g>
				<g>
					<g>
						<circle class="st31" cx="22.4" cy="566.5" r="4.9"/>
					</g>
					<g>
						<path class="st32" d="M15.3,566.5c0-3.9,3.2-7.1,7.1-7.1s7.1,3.2,7.1,7.1c0,3.9-3.2,7.1-7.1,7.1S15.3,570.4,15.3,566.5z
							 M19.8,566.5c0,1.5,1.2,2.7,2.7,2.7s2.7-1.2,2.7-2.7s-1.2-2.7-2.7-2.7S19.8,565,19.8,566.5z"/>
					</g>
				</g>
				<g>
					<g>
						<path class="st33" d="M24.4,568.7c1.2,0,2.2-1,2.2-2.2c0-2.7-2.2-4.2-4.2-4.2c-1.2,0-2.2,1-2.2,2.2c0,1.1,0.9,2.1,2,2.2
							C22.3,567.8,23.3,568.7,24.4,568.7z"/>
					</g>
				</g>
			</g>
			<g>
				<g>
					<g>
						<circle class="st31" cx="22.2" cy="532.1" r="4.9"/>
					</g>
					<g>
						<path class="st32" d="M15.1,532.1c0-3.9,3.2-7.1,7.1-7.1s7.1,3.2,7.1,7.1c0,3.9-3.2,7.1-7.1,7.1S15.1,536,15.1,532.1z
							 M19.6,532.1c0,1.5,1.2,2.7,2.7,2.7s2.7-1.2,2.7-2.7s-1.2-2.7-2.7-2.7C20.7,529.4,19.6,530.6,19.6,532.1z"/>
					</g>
				</g>
				<g>
					<g>
						<path class="st33" d="M24.2,534.3c1.2,0,2.2-1,2.2-2.2c0-2.7-2.2-4.2-4.2-4.2c-1.2,0-2.2,1-2.2,2.2c0,1.1,0.9,2.1,2,2.2
							C22.1,533.5,23,534.3,24.2,534.3z"/>
					</g>
				</g>
			</g>
			<g>
				<g>
					<g>
						<circle class="st31" cx="22.2" cy="497.3" r="4.9"/>
					</g>
					<g>
						<path class="st32" d="M15.1,497.3c0-3.9,3.2-7.1,7.1-7.1s7.1,3.2,7.1,7.1c0,3.9-3.2,7.1-7.1,7.1S15.1,501.2,15.1,497.3z
							 M19.6,497.3c0,1.5,1.2,2.7,2.7,2.7s2.7-1.2,2.7-2.7s-1.2-2.7-2.7-2.7C20.7,494.6,19.6,495.8,19.6,497.3z"/>
					</g>
				</g>
				<g>
					<g>
						<path class="st33" d="M24.2,499.5c1.2,0,2.2-1,2.2-2.2c0-2.7-2.2-4.2-4.2-4.2c-1.2,0-2.2,1-2.2,2.2c0,1.1,0.9,2.1,2,2.2
							C22.1,498.6,23,499.5,24.2,499.5z"/>
					</g>
				</g>
			</g>
			<g>
				<g>
					<g>
						<circle class="st31" cx="22.2" cy="459.4" r="4.9"/>
					</g>
					<g>
						<path class="st32" d="M15.1,459.4c0-3.9,3.2-7.1,7.1-7.1s7.1,3.2,7.1,7.1s-3.2,7.1-7.1,7.1S15.1,463.3,15.1,459.4z
							 M19.6,459.4c0,1.5,1.2,2.7,2.7,2.7s2.7-1.2,2.7-2.7s-1.2-2.7-2.7-2.7C20.7,456.7,19.6,457.9,19.6,459.4z"/>
					</g>
				</g>
				<g>
					<g>
						<path class="st33" d="M24.2,461.6c1.2,0,2.2-1,2.2-2.2c0-2.7-2.2-4.2-4.2-4.2c-1.2,0-2.2,1-2.2,2.2c0,1.1,0.9,2.1,2,2.2
							C22.1,460.7,23,461.6,24.2,461.6z"/>
					</g>
				</g>
			</g>
		</g>
		<g>
			<g>
				<g>
					<path class="st28" d="M17.2,204.4V88.5h139.2c0.9,0,1.2,1.1,0.6,1.6l-32.4,26.7l-83.3,0.8l1.1,67L18,204.8
						C17.7,205.1,17.2,204.8,17.2,204.4z"/>
					<path class="st29" d="M17,205.8c-0.5-0.3-0.9-0.8-0.9-1.4V87.5h140.2c0.8,0,1.5,0.5,1.8,1.3s0,1.6-0.6,2.1l-32.7,27l-82.7,0.8
						l1.1,66.5l-24.7,20.4c-0.3,0.2-0.6,0.3-1,0.3C17.4,205.9,17.2,205.9,17,205.8z M40.2,116.7l84-0.8l31.9-26.3H18.2v113.7
						l23.1-19L40.2,116.7z"/>
				</g>
			</g>
			<g>
				<g>
					<g>
						<circle class="st31" cx="27.4" cy="180.6" r="4.3"/>
					</g>
					<g>
						<path class="st32" d="M21.1,180.6c0-3.5,2.8-6.3,6.3-6.3s6.3,2.8,6.3,6.3s-2.8,6.3-6.3,6.3S21.1,184.1,21.1,180.6z M25,180.6
							c0,1.3,1.1,2.3,2.3,2.3s2.3-1.1,2.3-2.3s-1.1-2.3-2.3-2.3S25,179.3,25,180.6z"/>
					</g>
				</g>
				<g>
					<g>
						<path class="st33" d="M29.1,182.6c1.1,0,2-0.9,2-2c0-2.4-1.9-3.7-3.7-3.7c-1.1,0-2,0.9-2,2c0,1,0.8,1.9,1.7,2
							C27.3,181.8,28.1,182.6,29.1,182.6z"/>
					</g>
				</g>
			</g>
			<g>
				<g>
					<g>
						<circle class="st31" cx="27.4" cy="153.4" r="4.3"/>
					</g>
					<g>
						<path class="st32" d="M21.1,153.4c0-3.5,2.8-6.3,6.3-6.3s6.3,2.8,6.3,6.3s-2.8,6.3-6.3,6.3S21.1,156.8,21.1,153.4z M25,153.4
							c0,1.3,1.1,2.3,2.3,2.3s2.3-1.1,2.3-2.3s-1.1-2.3-2.3-2.3S25,152.1,25,153.4z"/>
					</g>
				</g>
				<g>
					<g>
						<path class="st33" d="M29.1,155.3c1.1,0,2-0.9,2-2c0-2.4-1.9-3.7-3.7-3.7c-1.1,0-2,0.9-2,2c0,1,0.8,1.9,1.7,2
							C27.3,154.6,28.1,155.3,29.1,155.3z"/>
					</g>
				</g>
			</g>
			<g>
				<g>
					<g>
						<circle class="st31" cx="27.4" cy="127.4" r="4.3"/>
					</g>
					<g>
						<path class="st32" d="M21.1,127.4c0-3.5,2.8-6.3,6.3-6.3s6.3,2.8,6.3,6.3s-2.8,6.3-6.3,6.3S21.1,130.9,21.1,127.4z M25,127.4
							c0,1.3,1.1,2.3,2.3,2.3s2.3-1.1,2.3-2.3c0-1.3-1.1-2.3-2.3-2.3S25,126.1,25,127.4z"/>
					</g>
				</g>
				<g>
					<g>
						<path class="st33" d="M29.1,129.3c1.1,0,2-0.9,2-2c0-2.4-1.9-3.7-3.7-3.7c-1.1,0-2,0.9-2,2c0,1,0.8,1.9,1.7,2
							C27.3,128.6,28.1,129.3,29.1,129.3z"/>
					</g>
				</g>
			</g>
			<g>
				<g>
					<g>
						<circle class="st31" cx="27.4" cy="101" r="4.3"/>
					</g>
					<g>
						<path class="st32" d="M21.1,101c0-3.5,2.8-6.3,6.3-6.3s6.3,2.8,6.3,6.3s-2.8,6.3-6.3,6.3S21.1,104.5,21.1,101z M25,101
							c0,1.3,1.1,2.3,2.3,2.3s2.3-1.1,2.3-2.3s-1.1-2.3-2.3-2.3S25,99.7,25,101z"/>
					</g>
				</g>
				<g>
					<g>
						<path class="st33" d="M29.1,103c1.1,0,2-0.9,2-2c0-2.4-1.9-3.7-3.7-3.7c-1.1,0-2,0.9-2,2c0,1,0.8,1.9,1.7,2
							C27.3,102.2,28.1,103,29.1,103z"/>
					</g>
				</g>
			</g>
			<g>
				<g>
					<g>
						<circle class="st31" cx="57.8" cy="100.8" r="4.3"/>
					</g>
					<g>
						<path class="st32" d="M51.5,100.8c0-3.5,2.8-6.3,6.3-6.3s6.3,2.8,6.3,6.3s-2.8,6.3-6.3,6.3S51.5,104.3,51.5,100.8z
							 M55.5,100.8c0,1.3,1.1,2.3,2.3,2.3c1.3,0,2.3-1.1,2.3-2.3s-1.1-2.3-2.3-2.3C56.5,98.5,55.5,99.5,55.5,100.8z"/>
					</g>
				</g>
				<g>
					<g>
						<path class="st33" d="M59.5,102.8c1.1,0,2-0.9,2-2c0-2.4-1.9-3.7-3.7-3.7c-1.1,0-2,0.9-2,2c0,1,0.8,1.9,1.7,2
							C57.7,102,58.5,102.8,59.5,102.8z"/>
					</g>
				</g>
			</g>
			<g>
				<g>
					<g>
						<circle class="st31" cx="88.6" cy="100.8" r="4.3"/>
					</g>
					<g>
						<path class="st32" d="M82.3,100.8c0-3.5,2.8-6.3,6.3-6.3s6.3,2.8,6.3,6.3s-2.8,6.3-6.3,6.3S82.3,104.3,82.3,100.8z
							 M86.3,100.8c0,1.3,1.1,2.3,2.3,2.3c1.3,0,2.3-1.1,2.3-2.3s-1.1-2.3-2.3-2.3C87.3,98.5,86.3,99.5,86.3,100.8z"/>
					</g>
				</g>
				<g>
					<g>
						<path class="st33" d="M90.4,102.8c1.1,0,2-0.9,2-2c0-2.4-1.9-3.7-3.7-3.7c-1.1,0-2,0.9-2,2c0,1,0.8,1.9,1.7,2
							C88.5,102,89.4,102.8,90.4,102.8z"/>
					</g>
				</g>
			</g>
			<g>
				<g>
					<g>
						<circle class="st31" cx="122.2" cy="100.8" r="4.3"/>
					</g>
					<g>
						<path class="st32" d="M115.9,100.8c0-3.5,2.8-6.3,6.3-6.3s6.3,2.8,6.3,6.3s-2.8,6.3-6.3,6.3S115.9,104.3,115.9,100.8z
							 M119.9,100.8c0,1.3,1.1,2.3,2.3,2.3c1.3,0,2.3-1.1,2.3-2.3s-1.1-2.3-2.3-2.3C120.9,98.5,119.9,99.5,119.9,100.8z"/>
					</g>
				</g>
				<g>
					<g>
						<path class="st33" d="M123.9,102.8c1.1,0,2-0.9,2-2c0-2.4-1.9-3.7-3.7-3.7c-1.1,0-2,0.9-2,2c0,1,0.8,1.9,1.7,2
							C122.1,102,122.9,102.8,123.9,102.8z"/>
					</g>
				</g>
			</g>
		</g>
	</g>
	<g>
		<g class="st0">
			<g class="st1">
				<path class="st8" d="M493.4,535.4l-146,19.6c-10.4-0.2-20.7,0.4-31,1.8l-122.7,16.7c-9.1,1.2-18.2,2-27.3,2.4l-116.6,4.7
					l16.5-193.3c2.6-30.4,2.5-61-0.2-91.3L51,130.4l449.3-15.5L493.4,535.4z"/>
				<g>
					<path class="st9" d="M579.6,430.8L516,90.9L501.5,87c-18.4-4.9-37.3-7.7-56.3-8.2l0,0c-20-0.6-40,1.3-59.6,5.6l-79.7,17.4
						c-19.8,4.3-39.9,7.7-60,10.1l-41.1,4.9c-15.9,1.9-31.8,3.1-47.7,3.8h-0.7l-3.2-78.7L124.5,43l-6.5,0.2l1.1,12.6l-7.2,0.4
						l1.3,16.2l-8.7,0.5l0.8,10.1l-7.1,0.4l0.4,6.2l-9,0.5l0.3,3.9l-5.6,0.3l0.3,3.6l-5.4,0.2l0.4,4.2l-7.2,0.3l0.7,5l-4.6,0.2
						l0.6,4.3l-4.5,0.9l0.7,5l-4.6,0.2l0.8,6.1l-4.8,0.2l7.1,51.7c11.4,83.2,13.4,167.5,6,251.2L56.9,575.3l100.2-4.1
						c16-0.7,31.9-1.9,47.7-3.8l41.1-4.9c20.1-2.4,40.2-5.8,60-10.1l79.7-17.4c19.6-4.3,39.6-6.2,59.6-5.6l0,0
						c19,0.5,37.8,3.3,56.3,8.2l14.5,3.9l3.9-6.3l3.9-5.2l3.9-5.2l3.9-5.2l7.3-5l7.2-1.7l5.3-1.7l6.5,0.6l5.5-3.3l5,1.2h5.6h5.6
						L579.6,430.8z"/>
					<path class="st10" d="M60.8,118.4l7.1,51.7c11.4,83.2,13.4,167.5,6,251.2L60.8,569.1L161,565c16-0.7,31.9-1.9,47.7-3.8
						l41.1-4.9c20.1-2.4,40.2-5.8,60-10.1l79.7-17.4c19.6-4.3,39.6-6.2,59.6-5.6l0,0c19,0.5,37.8,3.3,56.3,8.2l14.5,3.9"/>
					<path class="st10" d="M64.7,113.2l7.1,51.7c11.4,83.2,13.4,167.5,6,251.2L64.7,563.9l100.2-4.1c16-0.7,31.9-1.9,47.7-3.8
						l41.1-4.9c20.1-2.4,40.2-5.8,60-10.1l79.7-17.4c19.6-4.3,39.6-6.2,59.6-5.6l0,0c19,0.5,37.8,3.3,56.3,8.2l14.5,3.9"/>
					<path class="st10" d="M68.6,107.9l7.1,51.7c11.4,83.2,13.4,167.5,6,251.2L68.6,558.6l100.2-4.1c16-0.7,31.9-1.9,47.7-3.8
						l41.1-4.9c20.1-2.4,40.2-5.8,60-10.1l79.7-17.4c19.6-4.3,39.6-6.2,59.6-5.6l0,0c19,0.5,37.8,3.3,56.3,8.2l14.5,3.9"/>
					<path class="st10" d="M72.5,102.7l7.1,51.7c11.4,83.2,13.4,167.5,6,251.2L72.5,553.4l100.2-4.1c16-0.7,31.9-1.9,47.7-3.8
						l41.1-4.9c20.1-2.4,40.2-5.8,60-10.1l79.7-17.4c19.6-4.3,39.6-6.2,59.6-5.6l0,0c19,0.5,37.8,3.3,56.3,8.2l14.5,3.9"/>
					<path class="st10" d="M79.3,98.2L89,207c4.5,50.3,5.2,100.9,2.1,151.3L79.3,549l93.5-4c16.9-0.7,33.8-2.2,50.7-4.4l52.3-6.8
						c20.5-2.7,40.8-6.4,60.9-11.2l79.8-19.1c14.7-3.5,29.7-5.2,44.7-5l0,0c17.6,0.2,35.1,2.9,52,8.1l25.8,7.9"/>
					<path class="st10" d="M84.5,94.4l10.2,139.9c3,41.3,3.3,82.7,0.9,124L84.5,545.6l96.7-4.9c16.6-0.8,33.1-2.5,49.5-5l56.8-8.6
						c22.8-3.4,45.4-8.4,67.5-15l77.5-22.8c16.4-4.8,33.6-6.1,50.5-3.8l0,0c17.6,2.5,34.5,8.8,49.7,18.7l13.5,8.7"/>
					<path class="st10" d="M89.7,90.2l10,123c4.3,52.6,4.7,105.4,1.2,158L89.7,541.7l100.8-5.4c23.3-1.3,46.4-4.3,69.3-9l63.8-13.3
						c17.6-3.7,35.1-8.4,52.3-14.1l61.1-20.3c17.5-5.8,36.1-6.8,54.1-2.9l0,0c15.7,3.5,30.5,10.6,43.3,20.9l17,13.7"/>
					<path class="st10" d="M98.4,83.4l9.9,154.7c2.2,35,2.4,70.2,0.5,105.2L98.4,537.2l92.7-5.8c21.6-1.4,43.1-4.3,64.3-8.9
						l62.1-13.4c21.1-4.5,41.9-10.6,62.2-18.3l56.1-21.1c17.9-6.7,37.3-8.1,55.9-3.9l0,0c20.4,4.6,38.9,15.7,53.3,31.7l12.8,14.3"/>
					<path class="st10" d="M104.6,72.9l7.8,97.9c4.3,54.2,5.1,108.8,2.3,163.2l-10.1,196.3l99-5.3c22.6-1.2,45.2-4.3,67.5-9.4
						l47.8-10.9c23.3-5.3,46.3-12.7,68.8-22.1l53.3-22.3c16-6.7,32.9-8.7,49.5-5.9l0,0c18.4,3.1,35.9,11.8,51,25.6l21.9,28.4"/>
					<path class="st10" d="M112,56.2l6.7,85.6c5.3,68,6.2,136.4,2.5,204.6L112,519.9l95.2-4.9c16.4-0.8,32.7-3,48.8-6.5l58.4-12.6
						c24.6-5.3,48.8-13.6,72.3-24.9l55.7-26.8c17-8.2,35.4-10.2,53.2-5.9l0,0c22,5.3,42,20,56.7,41.7l16.2,29.6"/>
					<path class="st11" d="M574.1,78.4L557.4,47c-12.8-24-31.9-41.3-53.8-48.7l0,0c-18.5-6.2-38.1-5-56,3.5l-67.9,32.1
						c-25.3,12-51.4,21.3-77.9,28.1l-23.5-17.5c-27.8,7-56,11.1-84.4,12.2l-75.7-13.5l9.9,114.2c5.2,60.5,5.8,121.5,1.7,182.2
						l-11.6,172.3l75.7-2.8c28.3-1.1,56.6-5.1,84.4-12.2l23.5-6c26.5-6.7,52.5-16.1,77.9-28.1l67.9-32.1c18-8.5,37.5-9.7,56-3.5l0,0
						c21.9,7.4,41,24.6,53.8,48.7l16.7,33.8"/>
					<path class="st11" d="M579.7,70.1L572,47.6c-12.5-36.7-37.4-63.4-67-73l-5.8,7.2l-2.3-9.4c-2.5-0.5-5.1-1-7.6-1.3l0,0
						c-15.5-1.8-31.1,1.1-45.6,8.5l-61.1,31.1l0,0c-7.9,4-56.7,16.9-103.6,23.2c-43.6,5.9-85.4,5.3-91,4.1l-39.7-8.3l-7.6,4.9
						l0.5-6.4l-18-3.8l9.8,117.8c6.8,82,6.8,164.5-0.1,246.6l-9.7,115h50.7l4.7-13.2l8.6,13.2h14c32.2,0,32.1-3.4,63.8-10.2
						l11.4-2.4c29.1-6.2,57.6-16.3,85.1-30.1l21.3-10.7l61.1-31.1c14.5-7.4,30.1-10.3,45.6-8.5l0,0c36.4,4.2,68.1,33.5,82.8,76.5
						l7.1,20.7c0.1,0.3,0.6,0.3,0.6-0.1L579.7,70.1z"/>
					<path class="st12" d="M572,47.6l-9.5,143c-2.6,39.9-3.2,79.9-1.6,119.8l6.5,162.4l12.3,35l1.8-436.9L572,47.6z"/>
					<path class="st10" d="M579.7,70.1L572,47.6c-12.5-36.7-37.4-63.4-67-73l-5.8,7.2l-2.3-9.4c-2.5-0.5-5.1-1-7.6-1.3l0,0
						c-15.5-1.8-31.1,1.1-45.6,8.5l-61.1,31.1l0,0c-7.9,4-56.7,16.9-103.6,23.2c-43.6,5.9-85.4,5.3-91,4.1l-39.7-8.3l-7.6,4.9
						l0.5-6.4l-18-3.8l9.8,117.8c6.8,82,6.8,164.5-0.1,246.6l-9.7,115h50.7l4.7-13.2l8.6,13.2h14c32.2,0,32.1-3.4,63.8-10.2
						l11.4-2.4c29.1-6.2,57.6-16.3,85.1-30.1l21.3-10.7l61.1-31.1c14.5-7.4,30.1-10.3,45.6-8.5l0,0c36.4,4.2,68.1,33.5,82.8,76.5
						l7.1,20.7c0.1,0.3,0.6,0.3,0.6-0.1L579.7,70.1z"/>
				</g>
				<g>
					<path class="st13" d="M185.1,156.5c-1.5,3.8-2.3,7.9-2.4,12l-2.3,132.2l-3.6,109c-0.6,16.9,11.1,31.7,27.7,35.1l11,2.3
						c4.4,0.9,9,0.9,13.4,0.1l87-16.4c2.8-0.5,5.6-1.4,8.2-2.6l74.5-34.6c3.3-1.6,6.9-2.6,10.6-3l79.5-9.3c2.5-0.3,5-0.3,7.5-0.1
						l0,0c19.9,2,37.4-13.3,38.1-33.3l2.3-67c0-1.1,0-2.3-0.1-3.4l-6.4-98.2c-0.1-2.1-0.5-4.1-1-6.2l-23.3-93.3
						c-2-8-6.7-15-13.4-19.8l-22.9-16.4c-3.9-2.8-8.3-4.7-12.9-5.7l-36-7.8c-6.4-1.4-13.1-0.9-19.3,1.4l-46.4,17.1
						c-2.5,0.9-5,1.5-7.6,1.9l-42.9,5.4c-0.7,0.1-1.3,0.2-2,0.3L244.9,67c-5.9,1.1-11.4,3.7-16,7.6l-10.7,9
						c-4.4,3.7-7.8,8.5-9.9,13.9L185.1,156.5z"/>
					<path class="st14" d="M205.2,166.3c-1.3,3.4-2,6.9-2.1,10.5l-2,116.1l-3.2,95.7c-0.5,14.8,9.8,27.9,24.3,30.8l9.7,2
						c3.9,0.8,7.9,0.8,11.7,0.1l76.4-14.4c2.5-0.5,4.9-1.2,7.2-2.3l65.4-30.4c2.9-1.4,6.1-2.2,9.3-2.6l69.8-8.2
						c2.2-0.3,4.4-0.3,6.5-0.1l0,0c17.5,1.7,32.8-11.7,33.4-29.3l2-58.8c0-1,0-2,0-3l-5.6-86.2c-0.1-1.8-0.4-3.6-0.8-5.4l-20.5-81.9
						c-1.7-7-5.9-13.1-11.8-17.3l-20.1-14.4c-3.4-2.4-7.3-4.2-11.3-5l-31.5-7c-5.7-1.2-11.5-0.8-17,1.2l-40.8,15
						c-2.2,0.8-4.4,1.3-6.7,1.6l-37.7,4.8c-0.6,0.1-1.2,0.2-1.8,0.3l-50.5,9.4c-5.2,1-10,3.3-14.1,6.7l-9.4,7.9
						c-3.9,3.3-6.9,7.5-8.7,12.2L205.2,166.3z"/>
					<path class="st15" d="M228.2,177.4c-1.1,2.8-1.7,5.8-1.7,8.9l-1.7,97.6l-2.7,80.5c-0.4,12.5,8.2,23.4,20.5,25.9l8.2,1.7
						c3.3,0.7,6.6,0.7,9.9,0.1l64.2-12.1c2.1-0.4,4.1-1,6-1.9l55-25.5c2.5-1.1,5.1-1.9,7.8-2.2l58.7-6.9c1.8-0.2,3.7-0.2,5.5-0.1
						l0,0c14.7,1.5,27.6-9.8,28.1-24.6l1.7-49.4c0-0.8,0-1.7,0-2.5l-4.7-72.5c-0.1-1.5-0.3-3.1-0.7-4.6l-17.2-68.9
						c-1.5-5.9-5-11-9.9-14.6l-16.9-12.1c-2.9-2.1-6.1-3.5-9.5-4.2l-26.6-5.7c-4.8-1-9.7-0.7-14.3,1l-34.3,12.6
						c-1.8,0.7-3.7,1.1-5.6,1.4l-31.7,4c-0.5,0.1-1,0.1-1.5,0.2l-42.5,7.9c-4.4,0.8-8.4,2.7-11.8,5.6l-7.9,6.7
						c-3.3,2.8-5.8,6.3-7.3,10.3L228.2,177.4z"/>
				</g>
			</g>
			<g class="st1">
				<path class="st8" d="M628.3,532.3l142.8-2.8c10.1-0.2,20.3,0.4,30.3,1.8l120,16.5c8.9,1.2,17.8,2,26.7,2.4l114.1,4.7
					l-16.1-190.4c-2.5-29.9-2.5-60,0.2-90l14.6-163.1L621.5,96L628.3,532.3z"/>
				<g>
					<path class="st9" d="M1040.6,261.9l11.4-154l-7.1-0.4l0.6-7.6l-5.6-0.3l0.5-6.8l-6.5-0.3l0.4-5.8h-4.4l0.4-5.1l-4.4-0.5l-45-1
						l-1.8,24l-19.2-1c-11-0.6-22-1.5-33-2.8l-45-5.2L744,75.8c-16.2-2.3-32.6-2.7-48.9-1.2l0,0C667.5,77.1,640.6,85,616,97.7
						l-8.6,4.5v286.2l-25.5,0.4l-0.4,121.5l4.1,5.1l4.1,5.1l6.1,6.1l5.1,7.1l6.6,7.9l21-9.3c0,0,43.7-16.2,66.8-18.3l0,0
						c16.3-1.5,32.7-1.1,48.9,1.2l137.7,19.3l45,5.2c11,1.3,22,2.2,33,2.8l92.2,4.8l-11.8-177.4
						C1037.8,334,1037.9,297.9,1040.6,261.9z"/>
					<path class="st11" d="M1045.4,100L1034,254c-2.7,36-2.8,72-0.4,108l11.8,177.4l-92.2-4.8c-11-0.6-22-1.5-33-2.8l-45-5.2
						l-137.7-19.3c-16.2-2.3-32.6-2.7-48.9-1.2l0,0c-27.6,2.5-54.5,10.4-79.1,23.1l-8.6,4.5"/>
					<path class="st11" d="M1040.3,92.9l-11.4,154c-2.7,36-2.8,72-0.4,108l11.8,177.4l-92.2-4.8c-11-0.6-22-1.5-33-2.8l-45-5.2
						l-137.7-19.3c-16.2-2.3-32.6-2.7-48.9-1.2l0,0c-27.6,2.5-54.5,10.4-79.1,23.1l-8.6,4.5"/>
					<path class="st11" d="M1034.2,86.8l-11.4,154c-2.7,36-2.8,72-0.4,108l11.8,177.4l-92.2-4.8c-11-0.6-22-1.5-33-2.8l-45-5.2
						l-137.7-19.3c-16.2-2.3-32.6-2.7-48.9-1.2l0,0c-27.6,2.5-54.5,10.4-79.1,23.1l-8.6,4.5"/>
					<path class="st11" d="M585.5,76l8.6-4.5c24.6-12.8,51.5-20.6,79.1-23.1l0,0c16.3-1.5,32.7-1.1,48.9,1.2l137.7,19.3l45,5.2
						c11,1.3,22,2.2,33,2.8l92.2,4.8l-11.4,154c-2.7,36-2.8,72-0.4,108l11.8,177.4l-92.2-4.8c-11-0.6-22-1.5-33-2.8l-45-5.2
						L722.2,489c-16.2-2.3-32.6-2.7-48.9-1.2l0,0c-27.6,2.5-54.5,10.4-79.1,23.1l-8.6,4.5"/>
					<path class="st16" d="M1019.4,454.7l-0.9,20.3c-0.4,9.2-4,18-10.2,24.9l0,0c-7.6,8.5-18.5,13.3-29.9,13.2l-29.7-0.3"/>
					<path class="st17" d="M1017.4,449.6l-0.9,20.3c-0.4,9.2-4,18-10.2,24.9l0,0c-7.6,8.5-18.5,13.3-29.9,13.2l-29.7-0.3"/>
					<path class="st11" d="M1014.2,338.6c-0.8-11.6-1.3-23.1-1.5-34.7l-11.2-4.3l11.1-6.8c-0.1-20.8,0.5-41.5,2.1-62.2l11.4-154
						l-92.2-4.8c-11-0.6-22-1.5-33-2.8l-45-5.2L829.2,60l-14.3,9.9l0.6-11.8l-97.3-13.6c-16.2-2.3-32.6-2.7-48.9-1.2l0,0
						c-27.6,2.5-54.5,10.4-79.1,23.1l-8.6,4.5v438.2c0,0.6,0.6,0.9,1.1,0.7l7.6-3.9c24.6-12.8,51.5-20.6,79.1-23.1l0,0
						c16.3-1.5,32.7-1.1,48.9,1.2L856,503.3l45,5.2c11,1.3,22,2.2,33,2.8l14.9-0.4c21-0.5,39.6-13.4,47.7-32.8l3.2-7.8l0,0
						c10.7,1.8,20.3-6.7,19.8-17.5L1014.2,338.6z"/>
					<path class="st12" d="M590.1,66.4l6.6,165.5c1,26.4,1.1,52.7,0.2,79.1l-6.8,194.8l-8.6,4.5V70.9L590.1,66.4z"/>
					<path class="st10" d="M1014.2,338.6c-0.8-11.6-1.3-23.1-1.5-34.7l-11.2-4.3l11.1-6.8c-0.1-20.8,0.5-41.5,2.1-62.2l11.4-154
						l-92.2-4.8c-11-0.6-22-1.5-33-2.8l-45-5.2L829.2,60l-14.3,9.9l0.6-11.8l-97.3-13.6c-16.2-2.3-32.6-2.7-48.9-1.2l0,0
						c-27.6,2.5-54.5,10.4-79.1,23.1l-8.6,4.5v438.2c0,0.6,0.6,0.9,1.1,0.7l7.6-3.9c24.6-12.8,51.5-20.6,79.1-23.1l0,0
						c16.3-1.5,32.7-1.1,48.9,1.2L856,503.3l45,5.2c11,1.3,22,2.2,33,2.8l14.9-0.4c21-0.5,39.6-13.4,47.7-32.8l3.2-7.8l0,0
						c10.7,1.8,20.3-6.7,19.8-17.5L1014.2,338.6z"/>
				</g>
				<g>
					<path class="st13" d="M959.4,188.5c1.8,3.7,3,7.7,3.4,11.8l13.7,131.5l13,108.3c2,16.8-8.4,32.6-24.6,37.4l-10.8,3.2
						c-4.3,1.3-8.8,1.7-13.3,1.3l-88.1-8.8c-2.9-0.3-5.7-0.9-8.4-1.9L767,443.1c-3.5-1.3-7.1-2-10.8-2.1l-80-2.5
						c-2.5-0.1-5,0.1-7.4,0.6l0,0c-19.7,3.7-38.4-10.1-40.8-29.9l-8-66.5c-0.1-1.1-0.2-2.3-0.2-3.4l-2.1-98.4c0-2.1,0.1-4.2,0.4-6.2
						l15.2-95c1.3-8.1,5.4-15.5,11.7-20.8l21.4-18.4c3.6-3.1,7.8-5.4,12.4-6.8L714,82.8c6.3-1.9,13-2,19.4-0.3l47.7,13.1
						c2.5,0.7,5.1,1.1,7.8,1.2l43.2,1.7c0.7,0,1.4,0.1,2,0.1l58.3,5.8c6,0.6,11.7,2.7,16.6,6.2l11.4,8.1c4.7,3.3,8.5,7.8,11.1,13
						L959.4,188.5z"/>
					<path class="st14" d="M940.2,200c1.6,3.2,2.6,6.7,3,10.3l12,115.5l11.4,95.1c1.8,14.7-7.3,28.6-21.6,32.8l-9.5,2.8
						c-3.8,1.1-7.8,1.5-11.7,1.1l-77.3-7.8c-2.5-0.3-5-0.8-7.4-1.7l-67.8-24.6c-3-1.1-6.2-1.7-9.5-1.8l-70.2-2.2
						c-2.2-0.1-4.4,0.1-6.5,0.5l0,0c-17.3,3.2-33.7-8.8-35.8-26.3l-7-58.4c-0.1-1-0.2-2-0.2-3l-1.9-86.4c0-1.8,0.1-3.7,0.4-5.5
						l13.3-83.4c1.1-7.1,4.8-13.6,10.2-18.3l18.8-16.1c3.2-2.7,6.9-4.8,10.9-6l30.9-9.5c5.5-1.7,11.4-1.8,17-0.3l41.9,11.5
						c2.2,0.6,4.5,1,6.8,1.1l38,1.5c0.6,0,1.2,0.1,1.8,0.1l51.1,5.1c5.2,0.5,10.3,2.4,14.6,5.4l10,7.1c4.1,2.9,7.5,6.8,9.7,11.4
						L940.2,200z"/>
					<path class="st15" d="M918.2,213.1c1.3,2.7,2.2,5.7,2.5,8.7l10.1,97.1l9.6,79.9c1.5,12.4-6.2,24-18.1,27.6l-8,2.4
						c-3.2,0.9-6.5,1.3-9.8,0.9l-65-6.5c-2.1-0.2-4.2-0.7-6.2-1.4l-57-20.7c-2.6-0.9-5.2-1.4-8-1.5l-59.1-1.8
						c-1.8-0.1-3.7,0.1-5.5,0.4l0,0c-14.5,2.7-28.3-7.4-30.1-22.1l-5.9-49.1c-0.1-0.8-0.2-1.7-0.2-2.5l-1.6-72.6
						c0-1.5,0.1-3.1,0.3-4.6l11.2-70.1c1-6,4-11.4,8.6-15.4l15.8-13.5c2.7-2.3,5.8-4,9.1-5l26-8c4.6-1.4,9.6-1.5,14.3-0.2l35.2,9.6
						c1.9,0.5,3.8,0.8,5.7,0.9l31.9,1.3c0.5,0,1,0.1,1.5,0.1l43,4.3c4.4,0.4,8.6,2,12.3,4.6l8.4,6c3.5,2.5,6.3,5.8,8.2,9.6
						L918.2,213.1z"/>
				</g>
			</g>
			<g class="st1">
				<path class="st18" d="M519.4,549.3c-1,0-2-0.3-2.9-0.9c-2.6-1.6-3.4-5.1-1.8-7.7l6.4-10.2c8.9-14.1,24.7-22.8,41.4-22.5
					c16.2,0.3,31,8.6,39.7,22.2l7.5,11.8c1.7,2.6,0.9,6.1-1.7,7.7c-2.6,1.7-6.1,0.9-7.7-1.7l-7.5-11.8c-6.7-10.5-18-16.8-30.4-17
					c-12.8-0.2-25,6.4-31.8,17.2l-6.4,10.2C523.2,548.4,521.3,549.3,519.4,549.3z"/>
			</g>
		</g>
		<g class="st0">
			<g class="st1">
				<path class="st8" d="M629.5,534.7l145.4,19.5c10.3-0.2,20.6,0.4,30.9,1.8L928,572.6c9,1.2,18.1,2,27.2,2.4l116.2,4.7L1055,387.2
					c-2.6-30.3-2.5-60.7,0.2-91l14.9-164.9l-447.4-15.4L629.5,534.7z"/>
				<g>
					<path class="st9" d="M543.6,430.4L607,91.9l14.5-3.9c18.3-4.9,37.1-7.6,56-8.2l0,0c19.9-0.6,39.8,1.3,59.3,5.6l79.3,17.4
						c19.8,4.3,39.7,7.7,59.8,10.1l40.9,4.8c15.8,1.9,31.7,3.1,47.5,3.8h0.7l3.2-78.4l28.6,1.1l6.5,0.2l-1.1,12.6l7.1,0.4l-1.3,16.2
						l8.6,0.5l-0.8,10.1l7,0.4l-0.4,6.2l9,0.5l-0.3,3.9l5.6,0.3l-0.3,3.6l5.4,0.2l-0.4,4.2l7.1,0.3l-0.7,5l4.6,0.2l-0.6,4.3l4.5,0.9
						l-0.7,5l4.6,0.2l-0.8,6l4.7,0.2l-7.1,51.5c-11.4,82.8-13.4,166.8-6,250.1l13.1,147.2l-99.8-4.1c-15.9-0.6-31.7-1.9-47.5-3.8
						l-40.9-4.8c-20.1-2.4-40-5.7-59.8-10.1l-79.3-17.4c-19.5-4.3-39.4-6.1-59.3-5.6l0,0c-18.9,0.5-37.7,3.3-56,8.2l-14.5,3.9
						l-3.9-6.2l-3.9-5.2l-3.9-5.2l-3.9-5.2l-7.3-5l-7.2-1.7l-5.3-1.7l-6.5,0.6l-5.4-3.3l-5,1.1h-5.6h-5.6L543.6,430.4z"/>
					<path class="st10" d="M1060.2,119.4l-7.1,51.5c-11.4,82.8-13.4,166.8-6,250.1l13.1,147.2l-99.8-4.1
						c-15.9-0.6-31.7-1.9-47.5-3.8l-40.9-4.8c-20.1-2.4-40-5.7-59.8-10.1L732.9,528c-19.5-4.3-39.4-6.1-59.3-5.6l0,0
						c-18.9,0.5-37.7,3.3-56,8.2l-14.5,3.9"/>
					<path class="st10" d="M1056.3,114.2l-7.1,51.5c-11.4,82.8-13.4,166.8-6,250.1l13.1,147.2l-99.8-4.1
						c-15.9-0.6-31.7-1.9-47.5-3.8l-40.9-4.8c-20.1-2.4-40-5.7-59.8-10.1L729,522.8c-19.5-4.3-39.4-6.1-59.3-5.6l0,0
						c-18.9,0.5-37.7,3.3-56,8.2l-14.5,3.9"/>
					<path class="st10" d="M1052.4,109l-7.1,51.5c-11.4,82.8-13.4,166.8-6,250.1l13.1,147.2l-99.8-4.1c-15.9-0.6-31.7-1.9-47.5-3.8
						l-40.9-4.8c-20.1-2.4-40-5.7-59.8-10.1l-79.3-17.4c-19.5-4.3-39.4-6.1-59.3-5.6l0,0c-18.9,0.5-37.7,3.3-56,8.2l-14.5,3.9"/>
					<path class="st10" d="M1048.5,103.8l-7.1,51.5c-11.4,82.8-13.4,166.8-6,250.1l13.1,147.2l-99.8-4.1
						c-15.9-0.6-31.7-1.9-47.5-3.8l-40.9-4.8c-20.1-2.4-40-5.7-59.8-10.1l-79.3-17.4c-19.5-4.3-39.4-6.1-59.3-5.6l0,0
						c-18.9,0.5-37.7,3.3-56,8.2l-14.5,3.9"/>
					<path class="st10" d="M1041.8,99.2l-9.6,108.3c-4.4,50.1-5.1,100.5-2,150.7l11.7,189.9l-93.1-4c-16.9-0.7-33.7-2.2-50.4-4.3
						l-52.1-6.8c-20.4-2.7-40.6-6.4-60.7-11.2l-79.5-19c-14.6-3.5-29.5-5.2-44.5-5l0,0c-17.5,0.2-34.9,2.9-51.8,8.1l-25.7,7.9"/>
					<path class="st10" d="M1036.7,95.4l-10.2,139.3c-3,41.1-3.3,82.4-0.9,123.5l11.1,186.6l-96.3-4.9c-16.5-0.8-32.9-2.5-49.3-5
						l-56.6-8.5c-22.7-3.4-45.2-8.4-67.3-14.9L690,488.8c-16.4-4.8-33.5-6.1-50.3-3.7l0,0c-17.5,2.5-34.4,8.8-49.5,18.6l-13.4,8.7"
						/>
					<path class="st10" d="M1031.4,91.3l-9.9,122.4c-4.2,52.3-4.7,105-1.2,157.4l11.1,169.8L931,535.4c-23.2-1.2-46.2-4.3-69-9
						l-63.6-13.2c-17.6-3.7-34.9-8.3-52-14L685.5,479c-17.4-5.8-36-6.8-53.9-2.8l0,0c-15.6,3.4-30.4,10.5-43.1,20.8l-16.9,13.6"/>
					<path class="st10" d="M1022.8,84.6l-9.8,154.1c-2.2,34.9-2.4,69.9-0.5,104.8l10.3,193l-92.3-5.8c-21.5-1.4-42.9-4.3-64.1-8.9
						l-61.9-13.3c-21-4.5-41.7-10.6-62-18.2l-55.9-21c-17.9-6.7-37.1-8-55.7-3.8l0,0c-20.3,4.6-38.8,15.6-53.1,31.6l-12.7,14.2"/>
					<path class="st10" d="M1016.6,74l-7.7,97.5c-4.3,54-5,108.4-2.3,162.5l10,195.5l-98.6-5.2c-22.5-1.2-45-4.3-67.2-9.4
						l-47.6-10.8c-23.2-5.3-46.1-12.6-68.5-22l-53-22.2c-15.9-6.6-32.7-8.7-49.3-5.9l0,0c-18.3,3-35.7,11.8-50.8,25.5l-21.8,28.3"/>
					<path class="st10" d="M1009.2,57.4l-6.7,85.2c-5.3,67.7-6.1,135.8-2.5,203.7l9.2,172.8l-94.8-4.8c-16.3-0.8-32.5-3-48.6-6.4
						l-58.1-12.5c-24.5-5.3-48.6-13.6-72-24.8l-55.5-26.7c-16.9-8.1-35.2-10.2-53-5.9l0,0c-21.9,5.3-41.8,19.9-56.4,41.5L554.7,509"
						/>
					<path class="st11" d="M549.1,79.6l16.7-31.3c12.7-23.9,31.8-41.2,53.6-48.5l0,0c18.4-6.2,37.9-5,55.8,3.5l67.6,31.9
						C768,47.1,794,56.4,820.4,63.1l23.4-17.4c27.7,7,55.8,11.1,84,12.1l75.4-13.4l-9.8,113.7c-5.2,60.2-5.8,121-1.7,181.4
						l11.5,171.5l-75.4-2.8c-28.2-1.1-56.3-5.1-84-12.1l-23.4-5.9c-26.4-6.7-52.3-16-77.5-27.9l-67.6-31.9
						c-17.9-8.4-37.4-9.7-55.8-3.5l0,0c-21.8,7.3-40.8,24.5-53.6,48.5L549.1,509"/>
					<path class="st11" d="M980.4,472.3l14.6-7.4l-6.4-76.3c-6.9-81.7-6.9-163.8-0.1-245.5l9.8-117.3l-40.6,8.5v14.6l-12.7-12
						l-11.3,2.4c-5.6,1.2-47.3,1.7-90.7-4.1c-46.7-6.3-95.4-19.2-103.2-23.1l0,0L679-18.8c-14.4-7.3-30-10.2-45.4-8.5l0,0
						c-36.2,4.1-67.8,33.3-82.4,76.2l-7.6,22.4v435.9c0,0.4,0.5,0.4,0.6,0.1l7-20.6c14.6-42.8,46.2-72,82.4-76.2l0,0
						c15.5-1.8,31,1.1,45.4,8.5l60.8,30.9l21.2,10.7c27.4,13.8,55.8,23.8,84.7,30L857,493c31.6,6.8,31.5,10.1,63.6,10.1h77.6
						l-2.1-24.3L980.4,472.3z"/>
					<path class="st12" d="M551.2,48.9l9.4,142.4c2.6,39.7,3.2,79.5,1.6,119.3l-6.4,161.7l-12.2,34.9l-1.8-435L551.2,48.9z"/>
					<path class="st10" d="M980.4,472.3l14.6-7.4l-6.4-76.3c-6.9-81.7-6.9-163.8-0.1-245.5l9.8-117.3l-40.6,8.5v14.6l-12.7-12
						l-11.3,2.4c-5.6,1.2-47.3,1.7-90.7-4.1c-46.7-6.3-95.4-19.2-103.2-23.1l0,0L679-18.8c-14.4-7.3-30-10.2-45.4-8.5l0,0
						c-36.2,4.1-67.8,33.3-82.4,76.2l-7.6,22.4v435.9c0,0.4,0.5,0.4,0.6,0.1l7-20.6c14.6-42.8,46.2-72,82.4-76.2l0,0
						c15.5-1.8,31,1.1,45.4,8.5l60.8,30.9l21.2,10.7c27.4,13.8,55.8,23.8,84.7,30L857,493c31.6,6.8,31.5,10.1,63.6,10.1h77.6
						l-2.1-24.3L980.4,472.3z"/>
				</g>
				<g>
					<path class="st13" d="M936.5,157.3c1.5,3.8,2.3,7.9,2.4,11.9l2.3,131.7l3.6,108.6c0.6,16.8-11.1,31.6-27.6,35l-11,2.3
						c-4.4,0.9-8.9,0.9-13.3,0.1l-86.7-16.3c-2.8-0.5-5.6-1.4-8.2-2.6l-74.2-34.5c-3.3-1.5-6.9-2.6-10.5-3l-79.2-9.3
						c-2.5-0.3-5-0.3-7.4-0.1l0,0c-19.9,2-37.2-13.3-37.9-33.2l-2.3-66.7c0-1.1,0-2.3,0.1-3.4l6.3-97.8c0.1-2.1,0.5-4.1,1-6.1
						L617.1,81c2-7.9,6.7-14.9,13.3-19.7l22.8-16.4c3.8-2.8,8.2-4.7,12.9-5.7l35.9-7.8c6.4-1.4,13.1-0.9,19.2,1.4l46.2,17
						c2.5,0.9,5,1.5,7.6,1.9l42.8,5.4c0.7,0.1,1.3,0.2,2,0.3l57.3,10.7c5.9,1.1,11.4,3.7,15.9,7.6l10.6,9c4.4,3.7,7.8,8.5,9.9,13.8
						L936.5,157.3z"/>
					<path class="st14" d="M916.4,167c1.3,3.3,2,6.9,2.1,10.5l2,115.6l3.2,95.3c0.5,14.8-9.7,27.7-24.2,30.7l-9.7,2
						c-3.9,0.8-7.8,0.8-11.7,0.1L802,406.8c-2.5-0.5-4.9-1.2-7.2-2.3l-65.1-30.3c-2.9-1.4-6-2.2-9.2-2.6l-69.5-8.2
						c-2.2-0.3-4.3-0.3-6.5-0.1l0,0c-17.4,1.7-32.7-11.6-33.3-29.1l-2-58.6c0-1,0-2,0-3l5.6-85.8c0.1-1.8,0.4-3.6,0.8-5.4L636,99.8
						c1.7-7,5.9-13.1,11.7-17.3l20-14.4c3.4-2.4,7.2-4.1,11.3-5l31.5-6.8c5.6-1.2,11.5-0.8,16.9,1.2l40.6,15
						c2.2,0.8,4.4,1.3,6.7,1.6l37.5,4.8c0.6,0.1,1.2,0.2,1.8,0.3l50.3,9.4c5.2,1,10,3.3,14,6.6l9.3,7.9c3.9,3.3,6.8,7.4,8.7,12.1
						L916.4,167z"/>
					<path class="st15" d="M893.5,178.2c1.1,2.8,1.7,5.8,1.7,8.8l1.7,97.2l2.7,80.1c0.4,12.4-8.2,23.3-20.4,25.8l-8.1,1.7
						c-3.2,0.7-6.6,0.7-9.8,0.1l-63.9-12c-2.1-0.4-4.1-1-6-1.9l-54.8-25.4c-2.5-1.1-5.1-1.9-7.8-2.2l-58.4-6.9
						c-1.8-0.2-3.7-0.2-5.5-0.1l0,0c-14.7,1.4-27.5-9.8-28-24.5l-1.7-49.2c0-0.8,0-1.7,0-2.5l4.7-72.2c0.1-1.5,0.3-3,0.7-4.5
						l17.1-68.6c1.5-5.9,5-11,9.8-14.5l16.8-12.1c2.8-2,6.1-3.5,9.5-4.2l26.5-5.7c4.7-1,9.7-0.7,14.2,1L768.6,99
						c1.8,0.7,3.7,1.1,5.6,1.4l31.5,4c0.5,0.1,1,0.1,1.5,0.2l42.3,7.9c4.3,0.8,8.4,2.7,11.8,5.6l7.8,6.6c3.2,2.7,5.8,6.3,7.3,10.2
						L893.5,178.2z"/>
				</g>
			</g>
			<g class="st1">
				<path class="st8" d="M495.1,531.6l-142.2-2.7c-10.1-0.2-20.2,0.4-30.2,1.8L203.2,547c-8.8,1.2-17.7,2-26.6,2.4L63.1,554
					l16-189.6c2.5-29.8,2.4-59.8-0.2-89.6L64.4,112.3l437.5-15.2L495.1,531.6z"/>
				<g>
					<path class="st9" d="M84.6,262.3L73.2,109l7.1-0.4l-0.6-7.5l5.6-0.3L84.8,94l6.5-0.3L90.9,88h4.4l-0.4-5.1l4.4-0.5l44.8-1
						l1.8,23.9l19.1-1c11-0.6,21.9-1.5,32.9-2.8l44.8-5.2L379.9,77c16.1-2.3,32.5-2.7,48.7-1.2l0,0c27.5,2.5,54.3,10.3,78.8,23
						l8.6,4.5v285l25.4,0.4l0.4,121l-4.1,5.1l-4.1,5.1l-6.1,6.1l-5.1,7.1l-6.5,7.9l-20.9-9.3c0,0-43.5-16.1-66.5-18.2l0,0
						c-16.2-1.5-32.6-1.1-48.7,1.2l-137.1,19.2l-44.8,5.2c-10.9,1.3-21.9,2.2-32.9,2.8l-91.8,4.8L85,369.9
						C87.4,334,87.2,298.1,84.6,262.3z"/>
					<path class="st11" d="M79.8,101.1l11.4,153.3c2.7,35.8,2.8,71.7,0.4,107.6L79.8,538.6l91.8-4.8c11-0.6,21.9-1.5,32.9-2.8
						l44.8-5.2l137.1-19.2c16.1-2.3,32.5-2.7,48.7-1.2l0,0c27.5,2.5,54.3,10.3,78.8,23l8.6,4.5"/>
					<path class="st11" d="M84.9,94l11.4,153.3c2.7,35.8,2.8,71.7,0.4,107.6L84.9,531.5l91.8-4.8c11-0.6,21.9-1.5,32.9-2.8l44.8-5.2
						l137.1-19.2c16.1-2.3,32.5-2.7,48.7-1.2l0,0c27.5,2.5,54.3,10.3,78.8,23l8.6,4.5"/>
					<path class="st11" d="M90.9,87.9l11.4,153.3c2.7,35.8,2.8,71.7,0.4,107.6L90.9,525.4l91.8-4.8c11-0.6,21.9-1.5,32.9-2.8
						l44.8-5.2l137.1-19.2c16.1-2.3,32.5-2.7,48.7-1.2l0,0c27.5,2.5,54.3,10.3,78.8,23l8.6,4.5"/>
					<path class="st11" d="M537.7,77.2l-8.6-4.5c-24.5-12.7-51.3-20.6-78.8-23l0,0c-16.2-1.5-32.6-1.1-48.7,1.2L264.5,70l-44.8,5.2
						c-10.9,1.3-21.9,2.2-32.9,2.8L95,82.8l11.4,153.3c2.7,35.8,2.8,71.7,0.4,107.6L95,520.4l91.8-4.8c11-0.6,21.9-1.5,32.9-2.8
						l44.8-5.2l137.1-19.2c16.1-2.3,32.5-2.7,48.7-1.2l0,0c27.5,2.5,54.3,10.3,78.8,23l8.6,4.5"/>
					<path class="st11" d="M533.2,67.6c-24.5-12.7-51.3-20.6-78.8-23l0,0c-1.4-0.1-2.8-0.2-4.2-0.3l-7,26l-11.4-26.5
						c-8.7,0.1-17.4,0.8-26.1,2L268.5,65l-44.8,5.2c-10.9,1.3-21.9,2.2-32.9,2.8L99,77.8l11.4,153.3c2.7,35.8,2.8,71.7,0.4,107.6
						L99,515.3l26.1-1.4l4.9-26.7l12.6,16l7.1-6.3l-2.7,11.9l3,3.8l40.8-2.1c11-0.6,21.9-1.5,32.9-2.8l44.8-5.2l137.1-19.2
						c16.1-2.3,32.5-2.7,48.7-1.2l0,0c27.5,2.5,54.3,10.3,78.8,23l7.5,3.9c0.5,0.3,1.1-0.1,1.1-0.7V72.1L533.2,67.6z"/>
					<path class="st12" d="M533.2,67.6l-6.5,164.8c-1,26.2-1.1,52.5-0.2,78.8l6.7,193.9l8.6,4.5V72.1L533.2,67.6z"/>
					<path class="st10" d="M533.2,67.6c-24.5-12.7-51.3-20.6-78.8-23l0,0c-1.4-0.1-2.8-0.2-4.2-0.3l-7,26l-11.4-26.5
						c-8.7,0.1-17.4,0.8-26.1,2L268.5,65l-44.8,5.2c-10.9,1.3-21.9,2.2-32.9,2.8L99,77.8l11.4,153.3c2.7,35.8,2.8,71.7,0.4,107.6
						L99,515.3l26.1-1.4l4.9-26.7l12.6,16l7.1-6.3l-2.7,11.9l3,3.8l40.8-2.1c11-0.6,21.9-1.5,32.9-2.8l44.8-5.2l137.1-19.2
						c16.1-2.3,32.5-2.7,48.7-1.2l0,0c27.5,2.5,54.3,10.3,78.8,23l7.5,3.9c0.5,0.3,1.1-0.1,1.1-0.7V72.1L533.2,67.6z"/>
				</g>
				<g>
					<path class="st13" d="M165.5,189.2c-1.8,3.7-3,7.6-3.4,11.7l-13.6,131l-12.9,107.9c-2,16.7,8.3,32.4,24.5,37.2l10.8,3.2
						c4.3,1.3,8.8,1.7,13.3,1.3l87.7-8.8c2.9-0.3,5.7-0.9,8.4-1.9l76.9-28c3.4-1.3,7.1-1.9,10.7-2.1l79.7-2.5c2.5-0.1,5,0.1,7.4,0.6
						l0,0c19.6,3.7,38.2-10,40.6-29.8l8-66.3c0.1-1.1,0.2-2.3,0.2-3.4l2.1-98c0-2.1-0.1-4.2-0.4-6.2l-15.1-94.6
						c-1.3-8.1-5.4-15.4-11.6-20.7l-21.3-18.3c-3.6-3.1-7.8-5.4-12.3-6.8L410,83.9c-6.3-1.9-13-2-19.3-0.3l-47.5,13
						c-2.5,0.7-5.1,1.1-7.7,1.2l-43.1,1.7c-0.7,0-1.4,0.1-2,0.1l-58,5.7c-6,0.6-11.7,2.7-16.5,6.2l-11.4,8c-4.7,3.3-8.5,7.8-11,12.9
						L165.5,189.2z"/>
					<path class="st14" d="M184.6,200.6c-1.6,3.2-2.6,6.7-3,10.3l-11.9,115l-11.4,94.7c-1.8,14.7,7.3,28.5,21.5,32.7l9.4,2.8
						c3.8,1.1,7.7,1.5,11.6,1.1l77-7.7c2.5-0.3,5-0.8,7.3-1.7l67.5-24.5c3-1.1,6.2-1.7,9.4-1.8l69.9-2.2c2.2-0.1,4.4,0.1,6.5,0.5
						l0,0c17.2,3.2,33.6-8.8,35.7-26.2l7-58.2c0.1-1,0.2-2,0.2-3l1.8-86c0-1.8-0.1-3.6-0.4-5.4l-13.3-83
						c-1.1-7.1-4.7-13.5-10.2-18.2l-18.7-16c-3.2-2.7-6.8-4.7-10.8-6l-30.8-9.5c-5.5-1.7-11.4-1.8-16.9-0.3l-41.7,11.4
						c-2.2,0.6-4.5,1-6.8,1l-37.8,1.5c-0.6,0-1.2,0.1-1.8,0.1l-50.9,5c-5.2,0.5-10.2,2.4-14.5,5.4l-10,7.1
						c-4.1,2.9-7.5,6.8-9.7,11.4L184.6,200.6z"/>
					<path class="st15" d="M206.4,213.7c-1.3,2.7-2.2,5.6-2.5,8.6l-10,96.7l-9.5,79.6c-1.5,12.3,6.2,23.9,18.1,27.5l7.9,2.4
						c3.2,0.9,6.5,1.3,9.8,0.9l64.7-6.5c2.1-0.2,4.2-0.7,6.2-1.4l56.7-20.6c2.5-0.9,5.2-1.4,7.9-1.5l58.8-1.8
						c1.8-0.1,3.7,0.1,5.5,0.4l0,0c14.5,2.7,28.2-7.4,30-22l5.9-48.9c0.1-0.8,0.2-1.7,0.2-2.5l1.6-72.3c0-1.5-0.1-3.1-0.3-4.6
						l-11.2-69.8c-1-6-4-11.4-8.6-15.3L421.9,149c-2.7-2.3-5.8-4-9.1-5l-25.9-8c-4.6-1.4-9.6-1.5-14.2-0.2l-35.1,9.6
						c-1.9,0.5-3.8,0.8-5.7,0.9l-31.8,1.3c-0.5,0-1,0.1-1.5,0.1l-42.8,4.2c-4.4,0.4-8.6,2-12.2,4.6l-8.4,5.9
						c-3.5,2.5-6.3,5.7-8.1,9.5L206.4,213.7z"/>
				</g>
			</g>
			<g class="st1">
				<path class="st34" d="M603.5,548.5c1,0,2-0.3,2.9-0.9c2.6-1.6,3.4-5.1,1.8-7.7l-6.4-10.1c-8.8-14.1-24.6-22.7-41.3-22.4
					c-16.1,0.3-30.9,8.5-39.5,22.1l-7.5,11.8c-1.7,2.6-0.9,6,1.7,7.7c2.6,1.6,6,0.9,7.7-1.7l7.5-11.8c6.6-10.4,18-16.8,30.3-17
					c12.7-0.2,24.9,6.4,31.6,17.2l6.4,10.1C599.8,547.6,601.6,548.5,603.5,548.5z"/>
			</g>
		</g>
		<g>
			<g>
				<path class="st8" d="M494.4,539l-146-2.8c-10.4-0.2-20.8,0.4-31,1.8l-122.7,16.7c-9.1,1.2-18.1,2-27.3,2.4l-116.6,4.7
					l16.5-193.4c2.5-30.4,2.5-61-0.2-91.4L52,111.5L501.3,96L494.4,539z"/>
				<g>
					<g>
						<path class="st19" d="M477.5,13.1l-0.4,50.8c-12.3-5.2-25.6-7.9-39.3-7.9h-49.1h-0.1c-6.1,0-12.2,0.8-18.2,2.2L245.8,87.6
							c-23.1,5.5-46.5,9.6-70,12.5l-6.6-38.6l-64.6,3.7l1,7.6l-9.4,0.6l0.9,6.7l-6.8,0.4l1.3,9.4l-5.7,0.2l0.4,3.2l-4.9,0.3
							l-4.2-0.4l0.9,6.8l-5,0.3l0.6,4.3L69,105l0.4,2.7l-4.5,0.3l13.5,99.7c9.3,68.2,9.7,137.4,1.1,205.7L62.8,547.8l73.7-1.1
							c36.9-0.6,73.8-4.4,110.1-11.2l126.3-23.9c3.6-0.7,7-1.1,10.7-1.3c1.7-0.1,3.5-0.1,5.2-0.1H438c28.7,0,56.1,12.2,75.1,33.7
							l3.7,4.1l4.1-3.1l4.3-4.6l4.1-7.1l4.2,0.4l4.5-3.5l4.4-9.7l5.9-7.1l8.3-8.2l5.1-5V45.9L477.5,13.1z"/>
						<path class="st10" d="M66.9,544.7l16.8-134.4c8.5-68.3,8.1-137.5-1.1-205.7L69.1,105"/>
						<path class="st10" d="M71.2,540.2L88,405.8c8.5-68.3,8.1-137.5-1.1-205.7l-13.6-99.7"/>
						<path class="st10" d="M525.3,540.2l-3.7-4.1c-19.1-21.4-46.4-33.7-75.1-33.7h-49.3c-1.7,0-3.5,0-5.2,0.1
							c-3.6,0.2-7.1,0.6-10.7,1.3l-126.3,24c-36.3,6.9-73.2,10.7-110.1,11.2l-73.7,1.1"/>
						<path class="st11" d="M525.3,540.2"/>
						<path class="st10" d="M75.3,533l16.8-134.4c8.5-68.3,8.1-137.5-1.1-205.7L77.4,93.2"/>
						<path class="st11" d="M529.3,533"/>
						<path class="st10" d="M79.5,533.4L96.3,399c7.1-56.9,9.1-114.4,3.8-171.5c-1-11.4-3.4-22.8-4.9-34.2L81.6,93.6"/>
						<path class="st11" d="M533.5,533.4"/>
						<path class="st10" d="M83.9,530l16.8-134.4c8.5-68.3,8.1-137.5-1.1-205.7L86,90.2"/>
						<path class="st10" d="M538,530l-3.7-4.1c-19.1-21.4-46.4-33.7-75.1-33.7h-49.3c-1.7,0-3.5,0-5.2,0.1
							c-3.6,0.2-7.1,0.6-10.7,1.3l-126.2,24c-36.3,6.9-73.2,7.6-110.1,8.1L84,530"/>
						<path class="st11" d="M538,530"/>
						<path class="st10" d="M88.3,520.3L105.1,386c8.5-68.3,8.1-137.5-1.1-205.7L90.5,80.6"/>
						<path class="st10" d="M542.4,520.3l-3.7-4.1c-19.1-21.4-46.4-33.7-75.1-33.7h-49.3c-1.7,0-3.5,0-5.2,0.1
							c-3.6,0.2-7.1,0.6-10.7,1.3L329.5,501l-57.4,7.8c-36.3,6.9-73.2,9.7-110.1,10.2l-73.7,1.1"/>
						<path class="st10" d="M94.1,513.2l16.8-134.4c6.4-51.2,5.7-102.9,2.1-154.3c-1.2-17.2-0.9-34.3-3.3-51.4L96.2,73.4"/>
						<path class="st10" d="M94.1,513.2l73.7-1.1c36.9-0.6,73.8-4.4,110.1-11.2L404.2,477c3.6-0.7,7-1.1,10.7-1.3
							c1.7-0.1,3.5-0.1,5.2-0.1h49.3c28.7,0,56.1,12.2,75.1,33.7l3.7,4.1"/>
						<polyline class="st10" points="102.5,505 94.4,513.1 88.3,520.6 84,530 79.5,533 75.4,532.6 71,540.2 67.1,544.7 62.9,547.8 
													"/>
					</g>
					<path class="st11" d="M556.5,505l-3.7-4.1c-19.1-21.4-46.4-33.7-75.1-33.7h-49.3c-1.7,0-3.5,0-5.2,0.1
						c-3.6,0.2-7.1,0.6-10.7,1.3l-126.3,23.9c-36.3,6.9-73.2,10.7-110.1,11.2l-73.7,1.1l16.8-134.4c8.5-68.3,8.1-137.5-1.1-205.7
						L104.6,65l24-5.3l4,3.8l-0.4,4.6l5.7,0.5l3.7,3.5l10.1-10l24.5-1.2c36.8-2.2,73.5-7.6,109.4-16.1l124.6-29.4
						c6-1.4,12-2.2,18.2-2.2h0.1h49.1c27.9,0,54.6,11.6,73.6,32l5.4,5.8l5.1,449.1L556.5,505z"/>
					<path class="st20" d="M130,219.3c-2.2-17.8-4-35.7-3.4-53.6l2-28.4c-0.3-13.6,12.2-28.2,18.8-40.2c0,0,22-24.2,39-30.7l23.7-8
						l-0.5,54.6l-71.4,172.5L130,219.3z"/>
					<path class="st21" d="M202,54.3l-16.5,11.9c-17.2,12.4-30.7,29.2-39.2,48.8l0,0c-3.3,7.6-5.7,15.6-7.3,23.7l-9.3,46.8l69.6-29
						l12-66.2L202,54.3z"/>
					<path class="st11" d="M560.9,499.1l-3-3.3c-19.1-21.4-46.4-33.7-75.1-33.7h-49.3c-1.7,0-3.5,0-5.2,0.1
						c-3.6,0.2-7.1,0.6-10.7,1.3l-126.3,23.9c-16,3.1-40.2,6.5-56.4,8.2c-5.8,0.6-9.7-4.4-11.3-4.4c0,0-4.2,6-10.4,6.4
						c-8.7,0.5-23.5,0.8-32.2,0.9l-73.7,1.1l16.8-134.4c7.6-61.2,11.4-119.7,5.4-180.3c-1.3-13.8,3.4-27.6,13-37.7l0,0
						c5.8-6,13-10.5,21-12.9l27.8-8.3l-14.1-23.6c-4.8-8-5.8-17.7-3-26.5l0,0c4-12.1,14.8-20.9,27.5-22.1
						c29.8-2.7,59.4-7.6,88.7-14.5l38.7-7.2l14.7,8.3l7.9-17.5l64.2-13.2c5.7-1.3,11.6-2,17.5-2l0,0h49.1c27.9,0,54.6,11.6,73.6,32
						l5.4,5.8v452.9C561.7,499.3,561.2,499.5,560.9,499.1z"/>
					<path class="st22" d="M544.8,482.9c7.8,5,6.9,5.9,13.2,13l3,3.3c0.3,0.3,0.7,0.1,0.7-0.3v-453l-5.4-5.8
						c-5.5-5.9-5.6-5-12.2-9.4l-4.7,214L544.8,482.9z"/>
					<path class="st10" d="M560.9,499.1l-3-3.3c-19.1-21.4-46.4-33.7-75.1-33.7h-49.3c-1.7,0-3.5,0-5.2,0.1
						c-3.6,0.2-7.1,0.6-10.7,1.3l-126.3,23.9c-16,3.1-40.2,6.5-56.4,8.2c-5.8,0.6-9.7-4.4-11.3-4.4c0,0-4.2,6-10.4,6.4
						c-8.7,0.5-23.5,0.8-32.2,0.9l-73.7,1.1l16.8-134.4c7.6-61.2,11.4-119.7,5.4-180.3c-1.3-13.8,3.4-27.6,13-37.7l0,0
						c5.8-6,13-10.5,21-12.9l27.8-8.3l-14.1-23.6c-4.8-8-5.8-17.7-3-26.5l0,0c4-12.1,14.8-20.9,27.5-22.1
						c29.8-2.7,59.4-7.6,88.7-14.5l38.7-7.2l14.7,8.3l7.9-17.5l64.2-13.2c5.7-1.3,11.6-2,17.5-2l0,0h49.1c27.9,0,54.6,11.6,73.6,32
						l5.4,5.8v452.9C561.7,499.3,561.2,499.5,560.9,499.1z"/>
					<path class="st23" d="M143.8,155.8L143.8,155.8c5.8-6,13-10.5,21-12.9l27.8-8.3L178.4,111c-4.8-8-5.8-17.7-3-26.5l0,0"/>
					<path class="st11" d="M142.8,147.7L142.8,147.7c5.8-6,13-10.5,21-12.9l27.8-8.3l-14.1-23.6c-4.8-8-5.8-17.7-3-26.5l0,0"/>
				</g>
				<path class="st13" d="M181.5,175c-1.7,3.8-2.7,7.7-3.2,11.8l-10.8,131.8l-10.7,108.6c-1.6,16.8,9.1,32.4,25.3,36.8l10.9,3
					c4.4,1.2,8.9,1.5,13.3,1l87.9-10.7c2.8-0.3,5.7-1,8.3-2.1l76.6-29.7c3.5-1.3,7-2.1,10.7-2.3l80-4.2c2.4-0.1,5,0,7.4,0.4l0,0
					c19.7,3.3,38.2-10.9,40.1-30.8l6.6-66.7c0.1-1.1,0.2-2.2,0.2-3.4v-98.4c0-2-0.2-4.2-0.6-6.2l-17.2-94.7
					c-1.4-8-5.8-15.4-12.1-20.6l-21.8-17.9c-3.7-3.1-7.9-5.3-12.5-6.5l-35.4-10.1c-6.3-1.8-13-1.7-19.3,0.1l-47.4,14
					c-2.5,0.7-5.1,1.2-7.7,1.3l-43.2,2.6c-0.7,0-1.3,0.1-2,0.2l-58.1,7c-6,0.7-11.6,3-16.5,6.5l-11.2,8.3
					c-4.7,3.5-8.3,7.9-10.8,13.2L181.5,175z"/>
				<path class="st14" d="M201,186.1c-1.5,3.3-2.4,6.8-2.7,10.4l-9.5,115.6l-9.4,95.3c-1.4,14.8,7.9,28.4,22.3,32.4l9.6,2.6
					c3.8,1,7.8,1.3,11.7,0.8l77.1-9.5c2.5-0.3,5-0.9,7.3-1.8l67.3-26.1c3.1-1.1,6.2-1.8,9.5-2l70.2-3.7c2.1-0.1,4.4,0,6.5,0.4l0,0
					c17.4,2.8,33.5-9.6,35.2-27.1l5.8-58.5c0.1-1,0.1-2,0.1-3v-86.4c0-1.8-0.2-3.7-0.5-5.5l-15.2-83c-1.3-7.1-5.1-13.5-10.6-18
					l-19.1-15.7c-3.3-2.6-6.9-4.6-11-5.8l-31.1-8.9c-5.6-1.6-11.5-1.5-17,0.1L355.9,101c-2.2,0.6-4.5,1-6.8,1.2l-37.9,2.3
					c-0.6,0-1.2,0.1-1.8,0.2l-51,6.2c-5.2,0.6-10.2,2.6-14.5,5.7l-9.9,7.3c-4.1,3.1-7.3,7-9.5,11.6L201,186.1z"/>
				<path class="st15" d="M223.2,198.7c-1.3,2.7-2,5.7-2.3,8.8l-7.9,97.3l-7.8,80.1c-1.2,12.4,6.7,23.9,18.7,27.2l8,2.2
					c3.2,0.9,6.5,1.1,9.9,0.7l64.8-7.9c2.1-0.3,4.2-0.8,6.2-1.5l56.5-22c2.5-1,5.2-1.5,7.9-1.7l59-3.1c1.8-0.1,3.7,0,5.5,0.3l0,0
					c14.6,2.4,28.2-8,29.6-22.7l4.9-49.3c0.1-0.8,0.1-1.6,0.1-2.5v-72.7c0-1.5-0.1-3.1-0.4-4.6l-12.7-69.8c-1.1-6-4.3-11.3-9-15.2
					l-16.1-13.2c-2.7-2.2-5.9-3.9-9.3-4.9l-26.2-7.4c-4.7-1.3-9.7-1.3-14.2,0.1l-35,10.4c-1.8,0.5-3.8,0.9-5.7,1l-31.9,1.9
					c-0.5,0-1,0.1-1.5,0.1l-42.8,5.2c-4.4,0.5-8.5,2.2-12.1,4.8l-8.3,6.1c-3.5,2.5-6.2,5.9-7.9,9.8L223.2,198.7z"/>
			</g>
			<g>
				<path class="st8" d="M626.3,534.8l142.8-2.7c10.2-0.2,20.3,0.4,30.3,1.7l120,16.5c8.9,1.2,17.7,2,26.7,2.3l114.1,4.7
					l-16.1-190.4c-2.5-29.9-2.4-60.1,0.2-90l14.6-163.2L619.5,98.5L626.3,534.8z"/>
				<g>
					<path class="st19" d="M648.1,13.6l0.4,50.8c12.3-5.2,25.6-7.9,39.3-7.9h49.1h0.1c6.1,0,12.2,0.8,18.2,2.2l124.6,29.4
						c23.1,5.5,46.5,9.6,70,12.5l6.6-38.6l64.6,3.7l-1,7.6l9.4,0.6l-0.9,6.7l6.8,0.4l-1.3,9.4l5.6,0.3l-0.4,3.2l4.9,0.3l4.2-0.4
						l-0.9,6.8l5,0.3l-0.6,4.3l4.9,0.3l-0.4,2.7l4.5,0.3l-13.5,99.7c-9.3,68.2-9.7,137.4-1.1,205.7l16.8,134.4l-73.7-1.1
						c-36.9-0.6-73.8-4.4-110.1-11.2l-126.3-23.9c-3.6-0.7-7-1.1-10.7-1.3c-1.7-0.1-3.5-0.1-5.2-0.1h-49.3
						c-28.7,0-56.1,12.2-75.1,33.7l-3.7,4.1l-4.1-3.1l-4.3-4.6l-4.1-7.1l-4.2,0.4l-4.5-3.5l-4.4-9.9l-5.9-7.1l-8.3-8.2l-5.1-5v-454
						L648.1,13.6z"/>
					<path class="st10" d="M1058.7,545.2l-16.8-134.4c-8.5-68.3-8.1-137.5,1.1-205.7l13.5-99.7"/>
					<path class="st10" d="M1054.4,540.6l-16.8-134.4c-8.5-68.3-8.1-137.5,1.1-205.7l13.5-99.7"/>
					<path class="st10" d="M600.4,540.6l3.7-4.1c19.1-21.4,46.4-33.7,75.1-33.7h49.3c1.7,0,3.5,0,5.2,0.1c3.6,0.2,7.1,0.6,10.7,1.3
						l126.3,23.9c36.3,6.9,73.2,10.7,110.1,11.2l73.7,1.1"/>
					<path class="st11" d="M600.4,540.6"/>
					<path class="st10" d="M1050.3,533.4L1033.5,399c-8.5-68.3-8.1-137.5,1.1-205.7l13.5-99.7"/>
					<path class="st11" d="M596.3,533.4"/>
					<path class="st10" d="M1046.2,533.9l-16.8-134.4c-7.1-56.9-9.1-114.4-3.8-171.5c1-11.4,3.4-22.8,4.9-34.2l13.5-99.7"/>
					<path class="st11" d="M592.1,533.9"/>
					<path class="st10" d="M1041.7,530.4L1024.9,396c-8.5-68.3-8.1-137.5,1.1-205.7l13.5-99.7"/>
					<path class="st10" d="M587.6,530.4l3.7-4.1c19.1-21.4,46.4-33.7,75.1-33.7h49.3c1.7,0,3.5,0,5.2,0.1c3.6,0.2,7.1,0.6,10.7,1.3
						l126.3,24c36.3,6.9,73.2,7.6,110.1,8.1l73.7,4.2"/>
					<path class="st11" d="M587.6,530.4"/>
					<path class="st10" d="M1037.3,520.7l-16.8-134.4c-8.5-68.3-8.1-137.5,1.1-205.7l13.5-99.7"/>
					<path class="st10" d="M583.3,520.7l3.7-4.1c19.1-21.4,46.4-33.7,75.1-33.7h49.3c1.7,0,3.5,0,5.2,0.1c3.6,0.2,7.1,0.6,10.7,1.3
						l68.9,17.1l57.4,7.8c36.3,6.9,73.2,9.7,110.1,10.2l73.7,1.1"/>
					<path class="st10" d="M1031.4,513.6l-16.8-134.4c-6.4-51.2-5.7-102.9-2.1-154.3c1.2-17.2,0.9-34.3,3.3-51.4l13.5-99.7"/>
					<path class="st10" d="M1031.4,513.6l-73.7-1.1c-36.9-0.6-73.8-4.4-110.1-11.2l-126.3-23.9c-3.6-0.7-7-1.1-10.7-1.3
						c-1.7-0.1-3.5-0.1-5.2-0.1h-49.3c-28.7,0-56.1,12.2-75.1,33.7l-3.7,4.1"/>
					<path class="st11" d="M569,505.4l3.7-4.1c19.1-21.4,46.4-33.7,75.1-33.7h49.3c1.7,0,3.5,0,5.2,0.1c3.6,0.2,7.1,0.6,10.7,1.3
						l126.3,23.9c36.3,6.9,73.2,10.7,110.1,11.2l73.7,1.1l-16.8-134.4c-8.5-68.3-8.1-137.5,1.1-205.7l13.5-99.7l-24-5.3l-4,3.8
						l0.4,4.6l-5.7,0.5l-3.7,3.5l-10.1-10l-24.5-1.2c-36.8-2.2-73.5-7.6-109.4-16.1L715.4,15.8c-6-1.4-12-2.2-18.2-2.2h-0.1H648
						c-27.9,0-54.6,11.6-73.6,32l-5.4,5.8l-5.1,449.1L569,505.4z"/>
					<path class="st11" d="M995.8,185.8c0.7-7.3,4.8-42.2,8.4-73.7l-18.6-7.8l20.2-6c2.6-22.3,4.7-40,4.7-40s-74.3-2.4-87-3.7
						c-29.8-2.7-59.4-7.6-88.7-14.5L709.6,10.6c-5.7-1.3-11.6-2-17.5-2H643c-27.9,0-54.6,11.6-73.6,32l-5.4,5.8v452.9
						c0,0.4,0.5,0.6,0.7,0.3l3-3.3c19.1-21.4,46.4-33.7,75.1-33.7h49.3c1.7,0,3.5,0,5.2,0.1c3.6,0.2,7.1,0.6,10.7,1.3l126.3,24
						c14.5,2.7,85.6,9.6,105.6,11l10.3-23.9l18.4,24.6l49.6,0.8l-16.8-134.4C993.7,304.9,989.9,246.3,995.8,185.8z"/>
					<path class="st22" d="M580.8,483.3c-7.8,5-6.9,5.9-13.2,13l-3,3.3c-0.3,0.3-0.7,0.1-0.7-0.3v-453l5.4-5.8
						c5.5-5.9,5.6-5,12.2-9.4l4.7,214L580.8,483.3z"/>
					<path class="st10" d="M995.8,185.8c0.7-7.3,4.8-42.2,8.4-73.7l-18.6-7.8l20.2-6c2.6-22.3,4.7-40,4.7-40s-74.3-2.4-87-3.7
						c-29.8-2.7-59.4-7.6-88.7-14.5L709.6,10.6c-5.7-1.3-11.6-2-17.5-2H643c-27.9,0-54.6,11.6-73.6,32l-5.4,5.8v452.9
						c0,0.4,0.5,0.6,0.7,0.3l3-3.3c19.1-21.4,46.4-33.7,75.1-33.7h49.3c1.7,0,3.5,0,5.2,0.1c3.6,0.2,7.1,0.6,10.7,1.3l126.3,24
						c14.5,2.7,85.6,9.6,105.6,11l10.3-23.9l18.4,24.6l49.6,0.8l-16.8-134.4C993.7,304.9,989.9,246.3,995.8,185.8z"/>
					<polyline class="st10" points="1023.2,505.4 1031.2,513.5 1037.3,521 1041.6,530.4 1046.1,533.4 1050.2,533 1054.6,540.6 
						1058.4,545.2 1062.8,548.2 					"/>
				</g>
				<path class="st13" d="M944.1,175.4c1.7,3.8,2.7,7.7,3.2,11.8L958,319l10.7,108.6c1.6,16.8-9.1,32.4-25.3,36.8l-10.9,3
					c-4.4,1.2-8.9,1.5-13.3,1l-87.9-10.8c-2.8-0.3-5.7-1-8.3-2.1l-76.6-29.7c-3.5-1.3-7-2.1-10.7-2.3l-80-4.2c-2.4-0.1-5,0-7.4,0.4
					l0,0c-19.7,3.3-38.2-10.9-40.1-30.8l-6.6-66.7c-0.1-1.1-0.2-2.2-0.2-3.4v-98.4c0-2,0.2-4.2,0.6-6.2l17.2-94.7
					c1.4-8,5.8-15.4,12.1-20.6L653.1,81c3.7-3.1,7.9-5.3,12.5-6.5L701,64.4c6.3-1.8,13-1.7,19.3,0.1l47.4,14
					c2.5,0.7,5.1,1.2,7.7,1.3l43.2,2.6c0.7,0,1.3,0.1,2,0.2l58.1,7c6,0.7,11.6,3,16.5,6.5l11.2,8.3c4.7,3.5,8.3,7.9,10.8,13.2
					L944.1,175.4z"/>
				<path class="st14" d="M924.6,186.5c1.5,3.3,2.4,6.8,2.7,10.4l9.5,115.7l9.4,95.3c1.4,14.8-7.9,28.4-22.3,32.4l-9.6,2.6
					c-3.8,1-7.8,1.3-11.7,0.8l-77.1-9.5c-2.5-0.3-5-0.9-7.3-1.8l-67.3-26.1c-3.1-1.1-6.2-1.8-9.5-2l-70.2-3.7
					c-2.1-0.1-4.4,0-6.5,0.4l0,0c-17.4,2.8-33.5-9.6-35.2-27.1l-5.8-58.5c-0.1-1-0.1-2-0.1-3V226c0-1.8,0.2-3.7,0.5-5.5l15.2-83.1
					c1.3-7.1,5.1-13.5,10.6-18l19.1-15.7c3.3-2.6,6.9-4.6,11-5.8l31.1-8.9c5.6-1.6,11.5-1.5,17,0.1l41.6,12.3c2.2,0.6,4.5,1,6.8,1.2
					l37.9,2.3c0.6,0,1.2,0.1,1.8,0.2l51,6.2c5.2,0.6,10.2,2.6,14.5,5.7l9.9,7.3c4.1,3.1,7.3,7,9.5,11.6L924.6,186.5z"/>
				<path class="st15" d="M902.4,199.1c1.3,2.7,2,5.7,2.3,8.8l7.9,97.3l7.8,80.1c1.2,12.4-6.7,23.9-18.7,27.2l-8,2.2
					c-3.2,0.9-6.5,1.1-9.9,0.7l-64.8-7.9c-2.1-0.3-4.2-0.8-6.2-1.5l-56.5-22c-2.5-1-5.2-1.5-7.9-1.7l-59-3.1c-1.8-0.1-3.7,0-5.5,0.3
					l0,0c-14.6,2.4-28.2-8-29.6-22.7l-4.9-49.3c-0.1-0.8-0.1-1.6-0.1-2.5v-72.7c0-1.5,0.1-3.1,0.4-4.6l12.7-69.8
					c1.1-6,4.3-11.3,9-15.2l16.1-13.2c2.7-2.2,5.9-3.9,9.3-4.9l26.2-7.4c4.7-1.3,9.7-1.3,14.2,0.1l35,10.4c1.8,0.5,3.8,0.9,5.7,1
					l31.9,1.9c0.5,0,1,0.1,1.5,0.1l42.8,5.2c4.4,0.5,8.5,2.2,12.1,4.8l8.3,6.1c3.5,2.5,6.2,5.9,7.9,9.8L902.4,199.1z"/>
			</g>
			<g>
				<path class="st18" d="M520.2,550.4c-1.1,0-2.2-0.5-3.1-1.4c-1.4-1.7-1.3-4.3,0.4-5.7l8.3-7.3l6-5.5c1.7-1.6,3.4-3.3,5-5l1.1-1.2
					c2.3-2.5,4.5-5.3,6.4-8.1c3-4.3,6.3-8.2,10-11.9c2.3-2.3,5.4-3.6,8.7-3.5s6.3,1.4,8.5,3.8l7.6,8.1c1.8,1.9,3.6,4,5.2,6l2.5,3.3
					c2.5,3.3,5.3,6.3,8.2,9.1l12.8,12c1.6,1.5,1.7,4.1,0.2,5.8c-1.5,1.6-4.1,1.7-5.8,0.2l-12.9-12c-3.3-3.1-6.4-6.5-9.2-10.1
					l-2.5-3.3c-1.4-1.9-3.1-3.8-4.7-5.5l-7.6-8.1c-0.7-0.7-1.6-1.2-2.6-1.2s-2,0.4-2.7,1.1c-3.3,3.3-6.3,6.9-9,10.8
					c-2.1,3.2-4.6,6.1-7.1,9l-1.1,1.2c-1.7,1.9-3.6,3.8-5.5,5.5l-6.1,5.6l-8.4,7.3C522.1,550.1,521.2,550.4,520.2,550.4z"/>
			</g>
		</g>
	</g>
</g>
</svg>
