<?xml version="1.0" encoding="utf-8"?>
<!-- Generator: Adobe Illustrator 27.0.0, SVG Export Plug-In . SVG Version: 6.00 Build 0)  -->
<svg version="1.1" id="Lag_1" xmlns="http://www.w3.org/2000/svg" xmlns:xlink="http://www.w3.org/1999/xlink" x="0px" y="0px"
	 viewBox="0 0 660.6 745.4" style="enable-background:new 0 0 660.6 745.4;" xml:space="preserve">
<style type="text/css">
	.st0{fill:#DBC3A9;stroke:#110B09;stroke-width:2;stroke-miterlimit:10;}
	.st1{fill:#E0C7B1;}
	.st2{fill:#E5CEBD;enable-background:new    ;}
	.st3{opacity:0.1;}
	.st4{fill:#110B09;}
</style>
<g>
	<g>
		<path class="st0" d="M2.1,744.3c-0.3,0.3-0.7,0.1-0.8-0.2L4.6,29.7l5.4-6.1C21.9,10.2,39.2,2.8,57.1,3.5l154.5,6.2
			c69.6,2.8,139.2,3.1,208.8,0.7l154.5-5.2l15.6,20.1l4.9-20.8l63.8-2.2l-15.5,226.8c-5.8,85.6-6.1,171.4-0.7,257l9.2,146.5
			l-42.3,16.5l44.4,17.3l4.9,77.4L434,735.1c-75.1-2.9-150.4-2.7-225.5,0.7l-79.8,3.6c-20.8,1-61.9-3.7-87.4-7
			C27.2,730.6,12.9,734.9,2.1,744.3L2.1,744.3z"/>
		<path class="st1" d="M61,310.8l23.5-11.1l-23.4-10.4c-0.1-8.5-0.3-6.7-0.3-7.6l-3.7-72.8l19.8-13.4l-20-4.9l-7.7-164L220,33.5
			c65,2.6,130.1,2.8,195.1,0.6l167.4-5.4l8.6,5.5l8.8-6.1l38.3-1.5l-14.5,212.1c-5.4,79.9-5.6,160.1-0.6,240.1l10.1,152.6
			l-37.8,17.8l39,18.2l3.8,52.2l-210.5-8c-70.2-2.7-140.5-2.5-210.7,0.6l-74.5,3.3c-29.5,1.3-59.1-0.9-88-6.6l-14.3-2.8l0,0
			c7.3-23.2,11.6-47.1,12.6-71.2l8.1-193C62.3,409.2,61.6,346.2,61,310.8z"/>
		<path class="st2" d="M563.8,53.8c17-0.6,30.9,12,29.9,27.3l-10.4,166.2c-4.8,74.9-5,150-0.6,224.9L593.9,665
			c0.9,15.3-13.1,27.9-30.1,27.2l-147.2-6.1c-61.1-2.5-122.4-2.3-183.5,0.6l-62.5,3c-25.3,1.2-50.7-0.8-75.5-6.1L82.8,681l0,0
			c6.3-21.4,9.9-43.5,10.8-65.8l7-178.5c1.6-40.2,0-143.9-0.2-148.1L91.7,80.7c-0.6-15.1,13.4-27.5,30.2-26.8l113.8,5
			c56.5,2.5,113.2,2.7,169.8,0.6L563.8,53.8z"/>
	</g>
	<g class="st3">
		<path class="st4" d="M67.9,692l-0.6,12l13.4-0.5L67.9,692z M69.3,695.2l7.8,7l-8.1,0.3L69.3,695.2z"/>
		<g>
			<path class="st4" d="M623.5,653.7v46.5l-3.2-4.2v-43.5l-1.6-0.6v37.6l-20.2,17.3h-3l-509-1.9l-20-17.4l6.7-244.4
				c0.9-32.6-0.1-65.3-2.9-97.9l-3.9-44.9l-1.6,0.4l3.8,44.5c2.8,32.5,3.8,65.1,2.9,97.7l-6.8,251l-3.2,4.3l6.8-255.1
				c0.8-32.7-0.1-65.5-3-98.2l-3.8-43.3l-1.6,0.4l3.8,42.8c2.9,32.7,3.9,65.6,3,98.4l-6.8,257.1l-3.7,4.9l0.1,0.1
				c-0.1,0.2-0.2,0.4-0.2,0.6v2.6h-5.3l-1.9,12l13.4-1.7v-4.5h2.9c0.3,0,0.6-0.1,0.8-0.3l5.3-3.2l522.6,2l0,0h19.7l5.3,3.2
				c0.2,0.2,0.5,0.3,0.8,0.3h2.9v4.5l13.4,1.7l-1.9-12h-5.3v-2.6c0-0.2-0.1-0.4-0.2-0.6l0.1-0.1l-3.7-4.9v-48L623.5,653.7z
				 M58.4,704.8l6.3-8.4v8.4H58.4z M66.2,704.8v-15.4l18,15.5L66.2,704.8z M618.7,691.5v15.4h-17.9L618.7,691.5z M56.2,709.8v4.4
				h4.6v3.3l-10,1.3l1.4-9H56.2L56.2,709.8z M57.7,709.7h3.1v3h-3.1V709.7z M62.3,712.7v-4.4h-4.6v-2.1h7v6.5H62.3z M66.3,712v-5.7
				h9.3L66.3,712z M632.8,711.8l1.4,9l-10-1.3v-3.3h4.6v-4.4H632.8z M627.3,711.8v3h-3.1v-3H627.3z M627.3,708.3v2.1h-4.6v4.4h-2.4
				v-6.5H627.3z M618.7,708.3v5.7l-9.4-5.7H618.7z M593.9,708.3L593.9,708.3h12.6l4.8,2.9h-15.7l-521.9-2l4.7-2.9L593.9,708.3z
				 M626.6,706.9h-6.3v-8.4L626.6,706.9z"/>
			<path class="st4" d="M71.2,31.4l-5.3-3.2c-0.2-0.2-0.5-0.3-0.8-0.3h-2.9v-4.5l-13.4-1.7l1.9,12H56v2.6c0,0.2,0.1,0.4,0.2,0.6
				L56.1,37l3.7,4.9v18.7h0.1v236l1.6,0.5V59.2h-0.1V44l3.2,4.2v12.6h0.1v237.5l1.6,0.5V59.3h-0.1v-4.5l20.1-17.3l203.3,7.6
				c36.9,1.3,73.8,1.4,110.7,0.3l193.6-6l0,0h4.6l20.2,17.2v4.5v1.5L607.1,338c-0.9,20.1-0.8,40.2,0.1,60.3l11.5,248.6l1.6-0.6
				l-11.5-248c-0.9-20.1-1-40.3-0.1-60.4l11.6-275.3v-1.4v-11l3.2-4.2v15.1v1.5l-11.7,275.3c-0.9,20.2-0.8,40.3,0.1,60.5l11.5,246.7
				l1.6-0.6l-11.5-246.1c-0.9-20.2-1-40.4-0.1-60.6L625,62.6v-1.2V44.1l3.7-4.9l-0.1-0.1c0.1-0.2,0.2-0.4,0.2-0.6v-2.6h5.3l1.9-12
				l-13.4,1.7v4.5h-2.9c-0.3,0-0.6,0.1-0.8,0.3l-5.3,3.2h-18.1l-197.1,6.1c-35.8,1.1-71.6,1-107.3-0.3L71.2,31.4z M626.6,39.4
				l-6.3,8.4v-8.4H626.6z M618.7,39.4v15.4l-17.9-15.4H618.7z M52.1,32.4l-1.4-9l10,1.3V28h-4.6v4.4H52.1z M57.7,32.4v-3h3.1v3H57.7
				z M57.7,35.9v-2.1h4.6v-4.4h2.4v6.5H57.7z M66.3,36v-5.7l9.4,5.7H66.3z M58.4,37.3h6.3v8.4L58.4,37.3z M66.3,52.7V37.3l17.8,0.1
				L66.3,52.7z M628.7,34.4V30h-4.6v-3.3l10-1.3l-1.4,9H628.7L628.7,34.4z M627.3,34.5h-3.1v-3h3.1V34.5z M622.7,31.5v4.4h4.6V38h-7
				v-6.5H622.7z M618.7,32.2v5.7h-9.4L618.7,32.2z M593.9,35L593.9,35h17.4l-4.8,2.9h-11l-196.2,6c-36.2,1.1-72.5,1-108.7-0.3
				l-212-7.7L73.7,33l216.5,7.8c36,1.3,72.1,1.4,108.1,0.3L593.9,35z"/>
		</g>
		<path class="st4" d="M80.7,38.7l-13.4-0.5l0.6,12L80.7,38.7z M77.1,40l-7.8,7L69,39.7L77.1,40z"/>
		<path class="st4" d="M604.3,705.5l13.4,0.5l-0.6-12L604.3,705.5z M607.9,704.2l7.8-7l0.3,7.3L607.9,704.2z"/>
		<path class="st4" d="M617,52.2l0.6-12l-13.4,0.5L617,52.2z M615.7,49l-7.8-7l8.1-0.3L615.7,49z"/>
	</g>
</g>
</svg>
