<?xml version="1.0" encoding="utf-8"?>
<!-- Generator: Adobe Illustrator 27.0.0, SVG Export Plug-In . SVG Version: 6.00 Build 0)  -->
<svg version="1.1" id="Lag_1" xmlns="http://www.w3.org/2000/svg" xmlns:xlink="http://www.w3.org/1999/xlink" x="0px" y="0px"
	 viewBox="0 0 660.6 745.4" style="enable-background:new 0 0 660.6 745.4;" xml:space="preserve">
<style type="text/css">
	.st0{fill:#DBC3A9;stroke:#110B09;stroke-width:2;stroke-miterlimit:10;}
	.st1{fill:#E0C7B1;}
	.st2{fill:#E5CEBD;enable-background:new    ;}
	.st3{opacity:0.1;}
	.st4{fill:#110B09;}
</style>
<g>
	<g>
		<path class="st0" d="M658.4,744.3c-10.8-9.4-25.1-13.7-39.2-11.9c-25.5,3.3-66.6,8-87.4,7l-79.8-3.6
			c-75.1-3.4-150.4-3.6-225.5-0.7L1.3,743.8l4.9-77.4l44.4-17.3L8.3,632.6l9.2-146.5c5.4-85.6,5.1-171.4-0.7-257L1.3,2.3l63.8,2.2
			L70,25.3L85.6,5.2l154.5,5.2c69.6,2.4,139.2,2.1,208.8-0.7l154.5-6.2c17.9-0.7,35.2,6.7,47.1,20.1l5.4,6.1l3.3,714.4
			C659.1,744.4,658.7,744.6,658.4,744.3L658.4,744.3z"/>
		<path class="st1" d="M599.6,441.9l8.1,193c1,24.1,5.3,48,12.6,71.2l0,0l-14.3,2.8c-28.9,5.7-58.5,7.9-88,6.6l-74.5-3.3
			c-70.2-3.1-140.5-3.3-210.7-0.6l-210.5,8l3.8-52.2l39-18.2l-37.8-17.8l10.1-152.6c5-80,4.8-160.2-0.6-240.1L22.3,26.6l38.3,1.5
			l8.8,6.1l8.6-5.5l167.4,5.4c65,2.2,130.1,2,195.1-0.6l170.8-6.9l-7.7,164l-20,4.9l19.8,13.4l-3.7,72.8c0,0.9-0.2-0.9-0.3,7.6
			L576,299.7l23.5,11.1C598.9,346.2,598.2,409.2,599.6,441.9z"/>
		<path class="st2" d="M255,59.5c56.6,2.1,113.3,1.9,169.8-0.6l113.8-5c16.8-0.7,30.8,11.7,30.2,26.8l-8.7,207.9
			c-0.2,4.2-1.8,107.9-0.2,148.1l7,178.5c0.9,22.3,4.5,44.4,10.8,65.8l0,0l-12.3,2.6c-24.8,5.3-50.2,7.3-75.5,6.1l-62.5-3
			c-61.1-2.9-122.4-3.1-183.5-0.6l-147.2,6.1c-17,0.7-31-11.9-30.1-27.2l11.2-192.8c4.4-74.9,4.2-150-0.6-224.9L66.8,81.1
			c-1-15.3,12.9-27.9,29.9-27.3L255,59.5z"/>
	</g>
	<g class="st3">
		<path class="st4" d="M579.8,703.5l13.4,0.5l-0.6-12L579.8,703.5z M591.5,702.5l-8.1-0.3l7.8-7L591.5,702.5z"/>
		<g>
			<path class="st4" d="M35.5,654.3v48l-3.7,4.9l0.1,0.1c-0.1,0.2-0.2,0.4-0.2,0.6v2.6h-5.3l-1.9,12l13.4-1.7v-4.5h2.9
				c0.3,0,0.6-0.1,0.8-0.3l5.3-3.2h19.7l0,0l522.6-2l5.3,3.2c0.2,0.2,0.5,0.3,0.8,0.3h2.9v4.5l13.4,1.7l-1.9-12h-5.3v-2.6
				c0-0.2-0.1-0.4-0.2-0.6l0.1-0.1l-3.7-4.9l-6.8-257.1c-0.9-32.8,0.1-65.7,3-98.4l3.8-42.8l-1.6-0.4l-3.8,43.3
				c-2.9,32.7-3.8,65.5-3,98.2l6.8,255.1l-3.2-4.3l-6.8-251c-0.9-32.6,0.1-65.2,2.9-97.7l3.8-44.5l-1.6-0.4l-3.9,44.9
				c-2.8,32.6-3.8,65.3-2.9,97.9l6.7,244.4l-20,17.4l-509,1.9h-3l-20.2-17.3v-37.6l-1.6,0.6V696l-3.2,4.2v-46.5L35.5,654.3z
				 M595.8,704.8v-8.4l6.3,8.4H595.8z M576.3,704.9l18-15.5v15.4L576.3,704.9z M59.7,706.9H41.8v-15.4L59.7,706.9z M604.4,709.8h3.9
				l1.4,9l-10-1.3v-3.3h4.6L604.4,709.8L604.4,709.8z M602.8,712.7h-3.1v-3h3.1V712.7z M595.8,712.7v-6.5h7v2.1h-4.6v4.4H595.8z
				 M584.9,706.3h9.3v5.7L584.9,706.3z M31.7,711.8v4.4h4.6v3.3l-10,1.3l1.4-9H31.7z M36.3,711.8v3h-3.1v-3H36.3z M40.2,708.3v6.5
				h-2.4v-4.4h-4.6v-2.1H40.2z M51.2,708.3l-9.4,5.7v-5.7H51.2z M582.1,706.3l4.7,2.9l-521.9,2H49.2l4.8-2.9h12.6l0,0L582.1,706.3z
				 M40.2,698.5v8.4h-6.3L40.2,698.5z"/>
			<path class="st4" d="M369.4,39.4c-35.7,1.3-71.5,1.4-107.3,0.3L65,33.6H46.9l-5.3-3.2c-0.2-0.2-0.5-0.3-0.8-0.3h-2.9v-4.5
				l-13.4-1.7l1.9,12h5.3v2.6c0,0.2,0.1,0.4,0.2,0.6l-0.1,0.1l3.7,4.9v17.3v1.2l11.6,275.2c0.9,20.2,0.8,40.4-0.1,60.6L35.5,644.5
				l1.6,0.6l11.5-246.7c0.9-20.2,1-40.3,0.1-60.5L37,62.6v-1.5V46l3.2,4.2v11v1.4l11.6,275.3c0.9,20.1,0.8,40.3-0.1,60.4l-11.5,248
				l1.6,0.6l11.5-248.6c0.9-20.1,1-40.2,0.1-60.3L41.8,62.6v-1.5v-4.5L62,39.4h4.6l0,0l193.6,6c36.9,1.1,73.8,1,110.7-0.3l203.3-7.6
				l20.1,17.3v4.5h-0.1v239.5l1.6-0.5V60.8h0.1V48.2l3.2-4.2v15.2H599v237.9l1.6-0.5v-236h0.1V41.9l3.7-4.9l-0.1-0.1
				c0.1-0.2,0.2-0.4,0.2-0.6v-2.6h5.3l1.9-12l-13.4,1.7v4.5h-2.9c-0.3,0-0.6,0.1-0.8,0.3l-5.3,3.2L369.4,39.4z M40.2,39.4v8.4
				l-6.3-8.4H40.2z M59.7,39.4L41.8,54.8V39.4H59.7z M604.4,32.4V28h-4.6v-3.3l10-1.3l-1.4,9H604.4z M599.7,32.4v-3h3.1v3H599.7z
				 M595.8,35.9v-6.5h2.4v4.4h4.6v2.1H595.8z M584.8,36l9.4-5.7V36H584.8z M595.8,45.7v-8.4h6.3L595.8,45.7z M576.4,37.4l17.8-0.1
				v15.4L576.4,37.4z M31.7,34.4h-3.9l-1.4-9l10,1.3V30h-4.6L31.7,34.4L31.7,34.4z M33.2,31.5h3.1v3h-3.1V31.5z M40.2,31.5V38h-7
				v-2.1h4.6v-4.4C37.8,31.5,40.2,31.5,40.2,31.5z M51.2,37.9h-9.4v-5.7L51.2,37.9z M262.2,41.1c36,1.1,72.1,1,108.1-0.3L586.8,33
				l-4.9,2.9l-212,7.7c-36.2,1.3-72.5,1.4-108.7,0.3L65,37.9H54L49.2,35h17.4l0,0L262.2,41.1z"/>
		</g>
		<path class="st4" d="M592.6,50.2l0.6-12l-13.4,0.5L592.6,50.2z M591.5,39.7l-0.3,7.3l-7.8-7L591.5,39.7z"/>
		<path class="st4" d="M43.4,694l-0.6,12l13.4-0.5L43.4,694z M44.5,704.5l0.3-7.3l7.8,7L44.5,704.5z"/>
		<path class="st4" d="M56.3,40.7l-13.4-0.5l0.6,12L56.3,40.7z M44.5,41.7l8.1,0.3l-7.8,7L44.5,41.7z"/>
	</g>
</g>
</svg>
