<?xml version="1.0" encoding="utf-8"?>
<!-- Generator: Adobe Illustrator 25.4.1, SVG Export Plug-In . SVG Version: 6.00 Build 0)  -->
<svg version="1.1" id="Lag_1" xmlns="http://www.w3.org/2000/svg" xmlns:xlink="http://www.w3.org/1999/xlink" x="0px" y="0px"
	 viewBox="0 0 1366 768" style="enable-background:new 0 0 1366 768;" xml:space="preserve">
<style type="text/css">
	.st0{opacity:0.3;}
	.st1{fill:#8C7A64;}
	.st2{fill:none;}
	.st3{fill:#CCB796;}
	.st4{opacity:0.47;}
	.st5{fill:#B29D77;}
	.st6{fill:#A08D6E;}
	.st7{fill:#110B09;}
	.st8{fill:#3F3F3F;}
	.st9{fill:#444444;}
	.st10{fill:#82473D;}
	.st11{fill:#6B3B34;}
	.st12{fill:#59322E;}
	.st13{fill:#3F2623;}
	.st14{opacity:0.38;}
	.st15{fill:#DBC3A9;stroke:#110B09;stroke-width:2;stroke-miterlimit:10;}
	.st16{fill:#E0C7B1;}
	.st17{opacity:0.58;fill:#E5D2C1;}
	.st18{opacity:0.58;fill:#EDDACC;}
	.st19{opacity:0.1;}
</style>
<g>
	<g>
		<g>
			<g class="st0">
				<rect x="1247" y="323.3" width="91.6" height="131.9"/>
			</g>
			<g>
				<rect x="1250.5" y="319" class="st1" width="105.5" height="131.9"/>
				<path d="M1357.4,452.6h-108.3V317.5h108.1L1357.4,452.6L1357.4,452.6z M1251.8,449.2h102.8V320.7h-102.8L1251.8,449.2
					L1251.8,449.2z"/>
			</g>
			<g>
				<line class="st2" x1="1250.5" y1="450.9" x2="1257.4" y2="440.8"/>
				<polygon points="1249.5,449.7 1256.4,439.5 1258.5,441.7 1251.5,451.9 				"/>
			</g>
			<g>
				<polyline class="st1" points="1264.3,331.5 1264.3,324.6 1257.4,308.9 1250.5,319 1250.5,328.4 				"/>
				<polygon points="1265.6,331.5 1262.9,331.5 1262.9,325 1257.1,311.8 1251.8,319.6 1251.8,328.4 1249.1,328.4 1249.1,318.4 
					1257.6,305.9 1265.6,324.1 				"/>
			</g>
			<g>
				<polyline class="st1" points="1356,450.9 1362.9,440.8 1362.9,420.3 1348.8,424.4 1345.1,431.4 				"/>
				<polygon points="1357,452 1354.9,449.8 1361.6,440.1 1361.6,422.4 1349.6,425.8 1346.2,432.3 1344,430.4 1348,422.9 
					1364.3,418.1 1364.3,441.4 				"/>
			</g>
		</g>
		<g>
			<path class="st3" d="M1257.4,308.9v131.9h105.5V308.9L1257.4,308.9L1257.4,308.9z M1326.6,409h-32.5l3.7-29.4
				c-4.2-4.5-6.8-11.1-6.8-18.5c0-13.4,8.6-24.2,19.3-24.2c10.7,0,19.3,10.8,19.3,24.2c0,7.4-2.7,14-6.8,18.5L1326.6,409z"/>
		</g>
		<g class="st4">
			<g>
				<path class="st5" d="M1352.2,322.4v105h-84v-105H1352.2 M1286.4,384l-3,22.9l-2,15.5h12.6h32.5h12.6l-2-15.5l-3-22.9
					c3.9-6.5,6.2-14.5,6.2-22.8c0-20.8-13.5-37.5-30.1-37.5c-16.6,0-30.1,16.9-30.1,37.5C1280.3,369.7,1282.5,377.5,1286.4,384
					 M1362.9,308.9h-105.5v131.9h105.5V308.9L1362.9,308.9z M1294.1,409l3.7-29.4c-4.2-4.5-6.8-11.1-6.8-18.5
					c0-13.4,8.6-24.2,19.3-24.2c10.7,0,19.3,10.8,19.3,24.2c0,7.4-2.7,14-6.8,18.5l3.7,29.4H1294.1L1294.1,409z"/>
			</g>
		</g>
		<g class="st4">
			<g>
				<path class="st6" d="M1358.9,313.9v121.7h-97.4V313.9H1358.9 M1293.6,381.5l-3.4,26.8l-0.7,5.8h4.7h32.5h4.7l-0.7-5.8l-3.4-26.8
					c4.2-5.4,6.5-12.6,6.5-20.3c0-16.2-10.5-29.2-23.4-29.2s-23.4,13.1-23.4,29.2C1287.1,368.9,1289.4,376.1,1293.6,381.5
					 M1362.9,308.9h-105.5v131.9h105.5V308.9L1362.9,308.9z M1294.1,409l3.7-29.4c-4.2-4.5-6.8-11.1-6.8-18.5
					c0-13.4,8.6-24.2,19.3-24.2c10.7,0,19.3,10.8,19.3,24.2c0,7.4-2.7,14-6.8,18.5l3.7,29.4H1294.1L1294.1,409z"/>
			</g>
		</g>
		<g>
			<path class="st7" d="M1364.3,442.4h-108.1V307.3h108.1V442.4z M1258.7,439.1h102.8V310.6h-102.8L1258.7,439.1L1258.7,439.1z
				 M1328.2,410.7h-35.7l3.8-30.5c-4.3-4.9-6.8-11.8-6.8-19.1c0-14.3,9.2-25.9,20.7-25.9s20.7,11.5,20.7,25.9
				c0,7.2-2.5,14.2-6.8,19.1L1328.2,410.7z M1295.7,407.4h29.3l-3.6-28.3l0.6-0.6c4.1-4.3,6.4-10.6,6.4-17.1
				c0-12.5-8.1-22.5-18-22.5c-10,0-18,10.2-18,22.5c0,6.6,2.3,12.9,6.4,17.1l0.6,0.6L1295.7,407.4z"/>
		</g>
	</g>
	<g>
		<g>
			<g class="st0">
				<rect x="30.2" y="323.3" width="91.6" height="131.9"/>
			</g>
			<g>
				<rect x="12.8" y="319" class="st1" width="105.5" height="131.9"/>
				<path d="M119.7,452.6H11.5V317.5h108.3V452.6z M14.2,449.2H117V320.7H14.2V449.2z"/>
			</g>
			<g>
				<line class="st2" x1="118.4" y1="450.9" x2="111.5" y2="440.8"/>
				<polygon points="110.4,441.8 112.5,439.6 119.5,449.7 117.4,451.9 				"/>
			</g>
			<g>
				<polyline class="st1" points="104.6,331.5 104.6,324.6 111.5,308.9 118.4,319 118.4,328.4 				"/>
				<polygon points="105.9,331.5 103.2,331.5 103.2,324.1 111.2,305.9 119.7,318.4 119.7,328.4 117,328.4 117,319.6 111.7,311.8 
					105.9,325 				"/>
			</g>
			<g>
				<polyline class="st1" points="12.8,450.9 5.9,440.8 5.9,420.3 20.1,424.4 23.8,431.4 				"/>
				<polygon points="11.8,452 4.6,441.4 4.6,418.1 20.8,422.9 24.9,430.4 22.7,432.3 19.2,425.8 7.3,422.4 7.3,440.1 13.9,449.8 
									"/>
			</g>
		</g>
		<g>
			<path class="st3" d="M5.9,308.9v131.9h105.5V308.9L5.9,308.9L5.9,308.9z M46,379.7c-4.2-4.5-6.8-11.1-6.8-18.5
				c0-13.4,8.6-24.2,19.3-24.2s19.3,10.9,19.3,24.3c0,7.4-2.7,14-6.8,18.5l3.7,29.4H42.3L46,379.7z"/>
		</g>
		<g class="st4">
			<g>
				<path class="st5" d="M100.6,322.4v105h-84v-105H100.6 M34.5,384l-3,22.9l-2,15.5h12.6h32.5h12.6l-2-15.5l-3-22.9
					c3.9-6.5,6.2-14.5,6.2-22.8c0-20.8-13.5-37.5-30.1-37.5c-16.6,0-30.1,16.9-30.1,37.5C28.3,369.7,30.6,377.5,34.5,384
					 M111.5,308.9H5.9v131.9h105.5L111.5,308.9L111.5,308.9z M42.3,409l3.7-29.4c-4.2-4.5-6.8-11.1-6.8-18.5
					c0-13.4,8.6-24.2,19.3-24.2s19.3,10.8,19.3,24.2c0,7.4-2.7,14-6.8,18.5l3.7,29.4H42.3L42.3,409z"/>
			</g>
		</g>
		<g class="st4">
			<g>
				<path class="st6" d="M107.4,313.9v121.7H10V313.9H107.4 M41.6,381.5l-3.4,26.8l-0.7,5.8h4.7h32.5h4.7l-0.7-5.8l-3.4-26.8
					c4.2-5.4,6.5-12.6,6.5-20.3c0-16.2-10.5-29.2-23.4-29.2S34.9,345,34.9,361.2C35.1,368.9,37.5,376.1,41.6,381.5 M111.5,308.9H5.9
					v131.9h105.5L111.5,308.9L111.5,308.9z M42.3,409l3.7-29.4c-4.2-4.5-6.8-11.1-6.8-18.5c0-13.4,8.6-24.2,19.3-24.2
					s19.3,10.8,19.3,24.2c0,7.4-2.7,14-6.8,18.5l3.7,29.4H42.3L42.3,409z"/>
			</g>
		</g>
		<g>
			<path class="st7" d="M112.7,442.4H4.6V307.3h108.1V442.4z M7.3,439.1h102.8V310.6H7.3V439.1z M76.3,410.7H40.5l3.8-30.5
				c-4.3-4.9-6.8-11.8-6.8-19.1c0-14.3,9.2-25.9,20.7-25.9S79,346.9,79,361.2c0,7.2-2.5,14.2-6.8,19.1L76.3,410.7z M43.7,407.4h29.3
				L69.5,379l0.6-0.6c4.1-4.3,6.4-10.6,6.4-17.1c0-12.5-8.1-22.5-18-22.5s-18,10.2-18,22.5c0,6.6,2.3,12.9,6.4,17.1l0.6,0.6
				L43.7,407.4z"/>
		</g>
		<g>
			<path d="M39.1,361.3c0-13.4,8.6-24.2,19.3-24.2s19.5,10.8,19.5,24.2c0,7.4-2.7,14-6.8,18.5l3.7,29.4H42.3l3.7-29.4
				C41.8,375.2,39.1,368.7,39.1,361.3z"/>
		</g>
		<g>
			<path class="st8" d="M58.5,343.8c7.8,0,13.9,7.8,13.9,17.4c0,5.1-1.8,10-4.9,13.4l-2.3,2.5l0.5,3.7l2.7,21.5H48.5l2.7-21.5
				l0.5-3.7l-2.3-2.5c-3.1-3.4-4.9-8.2-4.9-13.4C44.5,351.6,50.8,343.8,58.5,343.8 M58.5,337c-10.7,0-19.3,10.8-19.3,24.2
				c0,7.4,2.7,14,6.8,18.5L42.3,409h32.5l-3.7-29.4c4.2-4.5,6.8-11.1,6.8-18.5C77.9,348,69.1,337,58.5,337L58.5,337z"/>
		</g>
		<g>
			<path d="M58.5,340.4c9.2,0,16.6,9.4,16.6,20.8c0,6.2-2.1,11.8-5.9,15.9l-1.1,1.2l0.2,1.8l3.2,25.5H45.3l3.2-25.5l0.2-1.8
				l-1.1-1.2c-3.7-4-5.9-9.7-5.9-15.9C41.8,349.8,49.3,340.4,58.5,340.4 M58.5,337c-10.7,0-19.3,10.8-19.3,24.2
				c0,7.4,2.7,14,6.8,18.5L42.3,409h32.5l-3.7-29.4c4.2-4.5,6.8-11.1,6.8-18.5C77.9,348,69.1,337,58.5,337L58.5,337z"/>
		</g>
		<g>
			<path class="st9" d="M76.3,410.7H40.5l3.8-30.5c-4.3-4.9-6.8-11.8-6.8-19.1c0-14.3,9.2-25.9,20.7-25.9S79,346.9,79,361.2
				c0,7.2-2.5,14.2-6.8,19.1L76.3,410.7z M43.7,407.4h29.3L69.5,379l0.6-0.6c4.1-4.3,6.4-10.6,6.4-17.1c0-12.5-8.1-22.5-18-22.5
				s-18,10.2-18,22.5c0,6.6,2.3,12.9,6.4,17.1l0.6,0.6L43.7,407.4z"/>
		</g>
	</g>
	<g>
		<path class="st10" d="M1332.5,35.6c0.9-12.9-7.3-24-17.7-24H771.4H597.6H54.2c-10.3,0-18.5,11.1-17.7,24L22.7,738.7
			c-0.9,13.8,8.5,25.2,19.6,23.7l157.5-20.5c50.9-6.6,101.9-10.5,153-11.4l253-5.1c0,0,13.2-20.3,27.8,3.7l0,0
			c30.4,11.2,62.6,12.3,93.5,3.2l17-5.1c0,0,13.2-23.2,25.9-1.8l246.6,4.9c51.1,1.1,102.1,4.9,153,11.4l157.5,20.5
			c11,1.4,20.3-10,19.6-23.7L1332.5,35.6z"/>
		<path class="st7" d="M40.3,764.2c-4.9,0-9.7-2.5-13.3-6.8c-4.1-4.9-6.2-11.8-5.7-18.9L35.1,35.7c-0.4-6.6,1.4-13.1,5-18
			c3.6-4.9,8.7-7.7,14-7.7h1260.6c5.3,0,10.5,2.8,14,7.7c3.6,4.9,5.4,11.4,5,18l13.8,703c0.5,6.9-1.6,13.9-5.7,18.8
			c-4.1,4.9-9.6,7.4-15.3,6.6l-157.6-20.5c-50.5-6.6-102-10.5-152.8-11.4l-247.3-4.9l-0.4-0.6c-3.3-5.5-6.9-8.5-10.7-8.3
			c-7.1,0.2-12.9,10.2-12.9,10.2l-0.2,0.5l-17.5,5.2c-31,9.1-63.6,8-94.1-3.4l-0.4-0.2l-0.2-0.5c-4.4-7.2-9.1-11.1-13.9-11.1h-0.1
			c-6.8,0-11.6,7.4-11.7,7.4l-0.4,0.6h-0.6l-253,5.1c-50.9,1.1-102.2,4.9-152.8,11.4L42.4,764.1C41.6,764.2,41,764.2,40.3,764.2z
			 M54.2,13.4c-4.7,0-8.9,2.3-12.1,6.6c-3.1,4.3-4.7,9.7-4.3,15.5v0.2v0.2L24,738.7c-0.4,6.2,1.4,12.2,4.9,16.3
			c3.6,4.2,8.3,6.3,13.2,5.7l157.5-20.5c50.6-6.6,102.1-10.5,153.1-11.5l252.4-5.1c1.5-2,6.4-8,13.3-8c0.1,0,0.1,0,0.2,0
			c5.5,0.2,10.8,4.2,15.8,12c30.1,10.9,62,12.2,92.4,3.1l16.5-4.9c1.4-2.3,7.3-10.9,14.8-11.1h0.1c4.4,0,8.6,3.1,12.4,9.1l246,4.9
			c50.9,1.1,102.5,4.9,153.1,11.5l157.5,20.5c4.8,0.6,9.6-1.4,13.2-5.7c3.4-4.3,5.3-10.2,4.9-16.3l-13.8-703.3v-0.2
			c0.4-5.7-1.1-11.2-4.3-15.5c-3.1-4.3-7.4-6.6-12.1-6.6H54.2V13.4z"/>
	</g>
	<g>
		<path class="st11" d="M1316.6,37.7c0.9-12.9-7.3-24-17.7-24H769.2H599.7H70c-10.3,0-18.5,11.1-17.7,24L38.7,717.1
			c-0.9,13.9,8.5,25.2,19.5,23.7L211.2,721c49.5-6.5,99.4-10.2,149.3-11.1l246.8-4.9c0,0,14.5-19.2,27.2,3.7l0,0
			c29.7,10.9,61.1,12,91.1,3.2l16.6-4.9c0,0,14.7-16.3,25.2-1.8l240.7,4.8c49.9,0.9,99.6,4.8,149.3,11.1l153.1,19.9
			c11,1.4,20.3-10,19.5-23.7L1316.6,37.7z"/>
		<path class="st7" d="M1312.4,742.8c-0.6,0-1.4,0-2-0.2l-153.1-19.9c-49.3-6.3-99.5-10.2-149.1-11.1L767.1,707l-0.4-0.5
			c-9.6-13.1-22.8,1.4-23.4,2l-0.2,0.3l-17,4.9c-30.3,8.9-62.1,7.7-91.9-3.2l-0.5-0.2l-0.2-0.5c-3.6-6.5-7.6-10-12.1-10.5
			c-7.1-0.6-13.1,6.9-13.1,7.1l-0.4,0.5l-247.3,4.9c-49.6,0.9-99.8,4.8-149.1,11.1L58.4,742.7c-5.7,0.8-11.2-1.7-15.3-6.6
			c-4.1-4.9-6.2-11.8-5.7-18.9L50.9,37.9c-0.4-6.6,1.4-13.1,5-18c3.6-4.9,8.7-7.7,14-7.7h1229c5.3,0,10.5,2.8,14,7.7
			c3.6,4.9,5.4,11.4,5,18l13.5,679.4c0.5,6.9-1.6,13.9-5.7,18.8C1322.2,740.4,1317.5,742.8,1312.4,742.8z M70,15.6
			c-4.7,0-8.9,2.3-12.1,6.6c-3.1,4.3-4.7,9.8-4.3,15.5v0.2V38L40,717.4c-0.4,6.2,1.4,12.2,4.9,16.3c3.4,4.3,8.3,6.3,13.2,5.7
			l153.1-19.9c49.4-6.3,99.6-10.2,149.3-11.1l246.2-4.9c1.6-1.8,7.5-8.3,14.8-7.5c5.2,0.5,9.7,4.3,13.8,11.4
			c29.2,10.6,60.3,11.7,90,3.1l16.3-4.8c2.1-2.2,16-15.4,26.5-2l240,4.8c49.6,0.9,99.9,4.8,149.3,11.1l153.1,19.9
			c4.8,0.6,9.6-1.4,13.2-5.7c3.4-4.3,5.3-10.2,4.9-16.3L1315,37.7v-0.2c0.4-5.7-1.1-11.2-4.3-15.5c-3.1-4.3-7.4-6.6-12.1-6.6H70
			V15.6z"/>
	</g>
	<g>
		<path class="st12" d="M732.7,213.9l-91.5,2.8l-5.3,475.2l0,0c31.4,10.9,64.8,12,96.7,3.2L732.7,213.9z"/>
	</g>
	<g>
		<path class="st13" d="M732.7,187.8l-91.5,2.8l-5.3,475.2l0,0c31.4,10.9,64.8,12,96.7,3.2L732.7,187.8z"/>
	</g>
	<g>
		<path class="st13" d="M607.5,697.4c-2.8-44.6-4.2-89.4-4.9-134s-0.7-89.3-0.4-133.9c0.5-44.6,1.5-89.3,3.1-133.9
			c1.7-44.6,3.9-89.3,7.8-133.7c2.8,44.6,4.2,89.4,4.9,134c0.7,44.6,0.7,89.3,0.2,133.9c-0.5,44.6-1.5,89.3-3.2,133.9
			C613.5,608.3,611.3,653,607.5,697.4z"/>
	</g>
	<g>
		<path class="st13" d="M767.7,697.6c-3.8-44.6-6-89.3-7.9-133.7c-1.7-44.6-2.7-89.3-3.3-133.9c-0.5-44.6-0.5-89.3,0.2-133.9
			c0.7-44.6,2-89.3,4.8-134c3.8,44.6,6.2,89.3,7.9,133.7c1.7,44.6,2.7,89.3,3.2,133.9c0.5,44.6,0.5,89.3-0.2,133.9
			C771.8,608.3,770.5,653,767.7,697.6z"/>
	</g>
	<g>
		<g class="st14">
			<g>
				<path class="st7" d="M1325.7,22.3v82.8l-19.6,6l-6,1.8v7.8v2.5l-0.1,7.4l-0.2,3.5l-0.1,1.7l-0.2,1.5l-0.5,3.5l-0.6,3.5v0.2v0.2
					c-0.1,0.9-0.4,2-0.6,2.8c-0.1,0.5-0.2,0.8-0.4,1.2c-0.1,0.5-0.2,0.9-0.4,1.4c0-0.6,0-1.4-0.1-2c0-0.3,0-0.6,0-0.9
					c0-1.1-0.1-2.5-0.4-3.8l-0.2-2.6v-0.3l-0.1-0.3l-0.5-2.8l-0.2-1.4l-0.1-0.5l-0.1-0.3l-0.4-1.4l-0.6-2.6l-0.1-0.3l-0.1-0.3
					l-1.6-5.4l-0.1-0.5l-2.5-8.5l-7,2.2L1238,132l10.8-55.1l1.7-8.6l-6.7-3.2l-3.1-1.5l-0.2-0.2l-0.2-0.2l-2.1-0.8l-1.1-0.5
					l-0.2-0.2l-0.4-0.2l-1.1-0.3l-2.2-0.6l-0.2-0.2h-0.2l-2.1-0.3c-1.2-0.3-2.2-0.3-3.1-0.5c-0.2,0-0.5,0-0.7,0
					c-0.5,0-1.1-0.2-1.6-0.2c0.4-0.2,0.7-0.3,1.1-0.5c0.4-0.2,0.6-0.3,1-0.5c0.6-0.3,1.5-0.6,2.2-0.8h0.1h0.1l2.8-0.8l2.8-0.6
					l1.2-0.3l1.2-0.2l3-0.3l5.8-0.2h0.2l6.3-0.2l1.5-7.5l5.2-26.2h65.9 M1333.9,12.3h-80.7l-6.7,33.9h-0.2l-6.2,0.2l-3.2,0.3
					l-1.6,0.2l-1.6,0.3l-3.1,0.6l-3.1,0.9c-1,0.3-2,0.6-3,1.1c-1,0.5-2,0.8-3,1.2c-1.8,0.9-3.8,1.8-5.7,2.9
					c-0.9,0.6-1.8,1.1-2.7,1.7l-2.6,1.8c-3.3,2.6-6.5,5.4-9.4,8.8c-5.8,6.3-10.1,14.2-13.2,22.2c5.3-6.2,11.2-10.9,17.5-14
					c3.1-1.5,6.3-2.6,9.5-3.4l2.3-0.5c0.7-0.2,1.6-0.2,2.3-0.3c1-0.2,2-0.2,3.1-0.2c0.2,0,0.5,0,0.7,0c0.4,0,0.6,0,1,0
					c0.7,0,1.6,0.2,2.3,0.2s1.5,0.2,2.3,0.3l2.2,0.5l2.2,0.6l1.1,0.3l1.1,0.5l2.1,0.8l3.1,1.5l-14.2,71.1l57.8-17.7l0.1,0.5l1.6,5.4
					l0.6,2.6l0.4,1.4l0.2,1.4l0.5,2.8l0.4,2.8c0.1,0.9,0.2,1.8,0.2,2.9c0,0.9,0.1,2,0.1,2.9c0,1.8,0,3.8-0.1,5.8
					c-0.1,0.9-0.1,2-0.2,2.9l-0.4,2.9c-0.6,4-1.4,8-2.7,11.8c-2.3,7.8-6.3,15.2-11.2,21.9c6.4-3.8,12.7-9.4,17.7-16.5
					c2.6-3.5,4.9-7.5,7-11.7l1.5-3.2c0.5-1.1,0.9-2.2,1.4-3.4c0.9-2.3,1.6-4.6,2.3-7.1c0.4-1.2,0.6-2.5,1-3.7
					c0.4-1.2,0.6-2.5,0.9-3.7l0.7-3.8l0.5-3.8l0.2-2l0.1-2l0.2-4l0.1-7.7V121l25.7-7.8V12.3H1333.9z"/>
			</g>
		</g>
		<g>
			<path class="st3" d="M1298.3,171.8c2.6-3.5,4.9-7.5,7-11.7l1.5-3.2c0.5-1.1,0.9-2.2,1.4-3.4c0.9-2.3,1.6-4.6,2.3-7.1
				c0.4-1.2,0.6-2.5,1-3.7c0.4-1.2,0.6-2.5,0.9-3.7l0.7-3.8l0.5-3.8l0.2-2l0.1-2l0.2-4l0.1-7.7v-2.5l25.7-7.8V4.5h-80.7l-6.7,33.9
				h-0.2l-6.2,0.2l-3.2,0.3l-1.6,0.2l-1.6,0.3l-3.1,0.6l-3.1,0.9c-1,0.3-2,0.6-3,1.1c-1,0.5-2,0.8-3,1.2c-1.8,0.9-3.8,1.8-5.7,2.9
				c-0.9,0.6-1.8,1.1-2.7,1.7l-2.6,1.8c-3.3,2.6-6.5,5.4-9.4,8.8c-5.8,6.3-10.1,14.2-13.2,22.2c5.3-6.2,11.2-10.9,17.5-14
				c3.1-1.5,6.3-2.6,9.5-3.4l2.3-0.5c0.7-0.2,1.6-0.2,2.3-0.3c1.6-0.2,3.2-0.2,4.7-0.2c0.7,0,1.6,0.2,2.3,0.2s1.5,0.2,2.3,0.3
				l2.2,0.5l2.2,0.6l1.1,0.3l1.1,0.5l2.1,0.8l3.1,1.5l-14,71.4l57.8-17.7l0.1,0.5l1.6,5.4l0.6,2.6l0.4,1.4l0.2,1.4l0.5,2.8l0.4,2.8
				c0.1,0.9,0.2,1.8,0.2,2.9c0,0.9,0.1,2,0.1,2.9c0,1.8,0,3.8-0.1,5.8c-0.1,0.9-0.1,2-0.2,2.9l-0.4,2.9c-0.6,4-1.4,8-2.7,11.8
				c-2.3,7.8-6.3,15.2-11.2,21.9C1286.9,184.4,1293.1,179,1298.3,171.8z"/>
			<path class="st7" d="M1274.5,193.8l4.9-6.6c4.9-6.6,8.6-13.7,10.8-21.2c1.1-3.4,1.8-6.9,2.6-11.5l0.4-2.9
				c0.1-0.6,0.1-1.2,0.1-1.8c0-0.3,0-0.8,0.1-1.1c0.1-1.4,0.1-2.8,0.1-4c0-0.6,0-1.1,0-1.7c0-0.5,0-1.1-0.1-1.7c0-0.3,0-0.8,0-1.1
				c0-0.8-0.1-1.7-0.2-2.6l-0.4-2.9l-0.7-4l-1-3.8l-1.4-4.3l-58.7,18l14.2-72.5l-2-0.9l-3.1-1.1l-3.2-0.9l-2.1-0.3
				c-0.7-0.2-1.5-0.3-2.2-0.3c-0.2,0-0.6,0-0.9,0c-0.5,0-1-0.2-1.4-0.2s-0.9,0-1.2,0c-1.1,0-2.2,0-3.2,0.2c-0.4,0-0.6,0-0.9,0.2
				c-0.5,0-1,0-1.4,0.2l-2.3,0.5c-3.6,0.8-6.5,1.8-9.1,3.2c-6,2.8-11.7,7.4-17,13.5L1190,88l3.2-8.2c3.4-8.9,8-16.6,13.5-22.8
				c2.6-2.9,5.7-5.8,9.6-8.9l2.6-1.8c0.6-0.5,1.2-0.8,1.8-1.2c0.2-0.2,0.6-0.3,0.9-0.5c1.5-0.9,3-1.7,4.4-2.3l1.2-0.6
				c0.7-0.3,1.5-0.6,2.1-0.9l0.9-0.3c0.9-0.3,2-0.8,3.1-1.1l3.1-0.9l4.8-0.9l4.8-0.5l5.5-0.2l6.7-33.9h83v103.7l-25.7,7.8l-0.1,8.9
				l-0.4,6.2l-0.7,6l-0.7,3.8c-0.2,1.4-0.6,2.8-0.9,3.8l-0.2,1.1c-0.2,0.9-0.5,1.7-0.7,2.6l-0.5,1.5c-0.6,1.8-1.1,3.7-2,5.5
				c-0.1,0.3-0.2,0.8-0.4,1.1c-0.2,0.8-0.6,1.5-1,2.3l-1.5,3.2c-2.5,4.9-4.7,8.8-7.1,12c-4.9,6.9-11.1,12.6-18.2,16.9L1274.5,193.8z
				 M1291.6,118.5l2.2,7.2l1,4l0.7,4.2l0.4,2.9c0.1,1.1,0.2,2.2,0.2,2.9c0,0.3,0,0.6,0,1.1c0,0.6,0.1,1.2,0.1,1.8c0,0.6,0,1.1,0,1.7
				c0,1.4,0,2.9-0.1,4.5c0,0.3,0,0.6,0,0.9c0,0.8-0.1,1.4-0.1,2l-0.4,2.9c-0.7,4.9-1.6,8.8-2.7,12.2c-1.6,5.2-3.8,10.3-6.8,15.2
				c4.2-3.4,7.9-7.2,11.1-11.7l0,0c2.3-3.1,4.6-6.8,6.8-11.4l1.5-3.2c0.4-0.6,0.6-1.4,0.9-2.2c0.1-0.5,0.2-0.8,0.5-1.2
				c0.7-1.7,1.2-3.4,1.8-5.2l0.5-1.5c0.2-0.8,0.4-1.5,0.6-2.5l0.2-1.1c0.2-0.9,0.6-2.3,0.9-3.5l0.7-3.8l0.7-5.7l0.4-5.8l0.1-11.4
				l25.7-7.8V6.2h-78.2l-6.7,33.9l-7.5,0.2l-4.7,0.5l-4.6,0.9l-3,0.9c-1.1,0.3-2.1,0.6-2.8,1.1l-0.9,0.3c-0.6,0.3-1.4,0.5-2,0.8
				l-1.2,0.6c-1.5,0.8-2.8,1.4-4.2,2.3c-0.4,0.2-0.6,0.5-1,0.6c-0.6,0.3-1.1,0.6-1.7,1.1l-2.6,1.8c-3.7,2.8-6.7,5.5-9.1,8.5
				c-3.6,4-6.8,8.6-9.5,13.9c3.9-3.5,8-6.5,12.3-8.5c2.7-1.4,5.9-2.5,9.7-3.4l2.5-0.5c0.5-0.2,1.1-0.2,1.6-0.2c0.2,0,0.5,0,0.9,0
				c1.1-0.2,2.3-0.2,3.4-0.2c0.5,0,0.9,0,1.4,0c0.6,0,1.1,0,1.6,0.2c0.2,0,0.5,0,0.9,0c0.7,0,1.6,0.2,2.5,0.3l2.2,0.5l3.3,0.9
				l3.3,1.2l4.3,2l-13.8,69.9L1291.6,118.5z"/>
		</g>
		<g>
			<path class="st5" d="M1314.4,36.6v43.9l-6.3,2l-1.2,0.3l-22,6.8l-16.9,5.1l3.9-20l0.9-4.3l4.7-24l1.8-9.5L1314.4,36.6
				 M1339.9,4.6h-80.7l-6.7,33.9h-0.2l-6.2,0.2l-3.2,0.3l-1.6,0.2l-1.6,0.3l-3.1,0.6l-3.1,0.9c-1,0.3-2,0.6-3,1.1
				c-1,0.5-2,0.8-3,1.2c-1.8,0.9-3.8,1.8-5.7,2.9c-0.9,0.6-1.8,1.1-2.7,1.7l-2.6,1.8c-3.3,2.6-6.5,5.4-9.4,8.8
				c-5.8,6.3-10.1,14.2-13.2,22.2c5.3-6.2,11.2-10.9,17.5-14c3.1-1.5,6.3-2.6,9.5-3.4l2.3-0.5c0.7-0.2,1.6-0.2,2.3-0.3
				c1-0.2,2-0.2,3.1-0.2c0.2,0,0.5,0,0.7,0c0.4,0,0.6,0,1,0c0.7,0,1.6,0.2,2.3,0.2s1.5,0.2,2.3,0.3l2.2,0.5l2.2,0.6l1.1,0.3l1.1,0.5
				l2.1,0.8l3.1,1.5l-14,71.3l57.8-17.7l0.1,0.5l1.6,5.4l0.6,2.6l0.4,1.4l0.2,1.4l0.5,2.8l0.4,2.8c0.1,0.9,0.2,1.8,0.2,2.9
				c0,0.9,0.1,2,0.1,2.9c0,1.8,0,3.8-0.1,5.8c-0.1,0.9-0.1,2-0.2,2.9l-0.4,2.9c-0.6,4-1.4,8-2.7,11.8c-2.3,7.8-6.3,15.2-11.2,21.9
				c6.4-3.8,12.7-9.4,17.7-16.5c2.6-3.5,4.9-7.5,7-11.7l1.5-3.2c0.5-1.1,0.9-2.2,1.4-3.4c0.9-2.3,1.6-4.6,2.3-7.1
				c0.4-1.2,0.6-2.5,1-3.7c0.4-1.2,0.6-2.5,0.9-3.7l0.7-3.8l0.5-3.8l0.2-2l0.1-2l0.2-4l0.1-7.7v-2.5l25.7-7.8V4.6L1339.9,4.6z"/>
		</g>
		<g>
			<path class="st6" d="M1331.9,14.8v82.8l-19.6,6l-6,1.8v7.8v2.5l-0.1,7.4l-0.2,3.5l-0.1,1.7l-0.2,1.5l-0.5,3.5l-0.6,3.5v0.2v0.2
				c-0.1,0.9-0.4,2-0.6,2.8c-0.1,0.5-0.2,0.8-0.2,1.2c-0.1,0.5-0.2,0.9-0.4,1.4c0-0.6,0-1.4-0.1-2c0-0.3,0-0.6,0-0.9
				c0-1.1-0.1-2.5-0.4-3.8l-0.2-2.6V133l-0.1-0.3l-0.5-2.8l-0.2-1.4l-0.1-0.5l-0.1-0.3l-0.4-1.4l-0.6-2.6l-0.1-0.3l-0.1-0.3
				l-1.6-5.4l-0.1-0.5l-2.5-8.5l-7,2.2l-44.8,13.7l10.8-55.1l1.7-8.6l-6.7-3.2l-3.1-1.5l-0.2-0.2l-0.2-0.2l-2.1-0.8l-1.1-0.5
				l-0.2-0.2l-0.4-0.2l-1.1-0.3l-2.2-0.6l-0.2-0.2h-0.2l-2.1-0.3c-1.2-0.3-2.2-0.3-3.1-0.5c-0.2,0-0.5,0-0.7,0
				c-0.5,0-1.1-0.2-1.6-0.2c0.4-0.2,0.7-0.3,1.1-0.5c0.4-0.2,0.6-0.3,1-0.5c0.6-0.3,1.5-0.6,2.2-0.8h0.1h0.1l2.8-0.8l2.8-0.6
				l1.2-0.3l1.2-0.2l3-0.3l5.8-0.2h0.2l6.3-0.2l1.5-7.5l5.2-26.2h66 M1339.9,4.6h-80.7l-6.7,33.9h-0.2l-6.2,0.2l-3.2,0.3l-1.6,0.2
				l-1.6,0.3l-3.1,0.6l-3.1,0.9c-1,0.3-2,0.6-3,1.1c-1,0.5-2,0.8-3,1.2c-1.8,0.9-3.8,1.8-5.7,2.9c-0.9,0.6-1.8,1.1-2.7,1.7l-2.6,1.8
				c-3.3,2.6-6.5,5.4-9.4,8.8c-5.8,6.3-10.1,14.2-13.2,22.2c5.3-6.2,11.2-10.9,17.5-14c3.1-1.5,6.3-2.6,9.5-3.4l2.3-0.5
				c0.7-0.2,1.6-0.2,2.3-0.3c1-0.2,2-0.2,3.1-0.2c0.2,0,0.5,0,0.7,0c0.4,0,0.6,0,1,0c0.7,0,1.6,0.2,2.3,0.2s1.5,0.2,2.3,0.3l2.2,0.5
				l2.2,0.6l1.1,0.3l1.1,0.5l2.1,0.8l3.1,1.5l-14,71.3l57.8-17.7l0.1,0.5l1.6,5.4l0.6,2.6l0.4,1.4l0.2,1.4l0.5,2.8l0.4,2.8
				c0.1,0.9,0.2,1.8,0.2,2.9c0,0.9,0.1,2,0.1,2.9c0,1.8,0,3.8-0.1,5.8c-0.1,0.9-0.1,2-0.2,2.9l-0.4,2.9c-0.6,4-1.4,8-2.7,11.8
				c-2.3,7.8-6.3,15.2-11.2,21.9c6.4-3.8,12.7-9.4,17.7-16.5c2.6-3.5,4.9-7.5,7-11.7l1.5-3.2c0.5-1.1,0.9-2.2,1.4-3.4
				c0.9-2.3,1.6-4.6,2.3-7.1c0.4-1.2,0.6-2.5,1-3.7c0.4-1.2,0.6-2.5,0.9-3.7l0.7-3.8l0.5-3.8l0.2-2l0.1-2l0.2-4l0.1-7.7v-2.5
				l25.7-7.8V4.6L1339.9,4.6z"/>
		</g>
		<g>
			<path class="st7" d="M1274.5,193.8l4.9-6.6c4.9-6.6,8.6-13.7,10.8-21.2c1.1-3.4,1.8-6.9,2.6-11.5l0.4-2.9
				c0.1-0.6,0.1-1.2,0.1-1.8c0-0.3,0-0.8,0.1-1.1c0.1-1.4,0.1-2.8,0.1-4c0-0.6,0-1.1,0-1.7c0-0.5,0-1.1-0.1-1.7c0-0.3,0-0.8,0-1.1
				c0-0.8-0.1-1.7-0.2-2.6l-0.4-2.9l-0.7-4l-1-3.8l-1.4-4.3l-58.7,18l14.2-72.5l-2-0.9l-3.1-1.1l-3.2-0.9l-2.1-0.3
				c-0.7-0.2-1.5-0.3-2.2-0.3c-0.2,0-0.6,0-0.9,0c-0.5,0-1-0.2-1.4-0.2s-0.9,0-1.2,0c-1.1,0-2.2,0-3.2,0.2c-0.4,0-0.6,0-0.9,0.2
				c-0.5,0-1,0-1.4,0.2l-2.3,0.5c-3.6,0.8-6.5,1.8-9.1,3.2c-6,2.8-11.7,7.4-17,13.5L1190,88l3.2-8.2c3.4-8.9,8-16.6,13.5-22.8
				c2.6-2.9,5.7-5.8,9.6-8.9l2.6-1.8c0.6-0.5,1.2-0.8,1.8-1.2c0.2-0.2,0.6-0.3,0.9-0.5c1.5-0.9,3-1.7,4.4-2.3l1.2-0.6
				c0.7-0.3,1.5-0.6,2.1-0.9l0.9-0.3c0.9-0.3,2-0.8,3.1-1.1l3.1-0.9l4.8-0.9l4.8-0.5l5.5-0.2l6.7-33.9h83v103.7l-25.7,7.8l-0.1,8.9
				l-0.4,6.2l-0.7,6l-0.7,3.8c-0.2,1.4-0.6,2.8-0.9,3.8l-0.2,1.1c-0.2,0.9-0.5,1.7-0.7,2.6l-0.5,1.5c-0.6,1.8-1.1,3.7-2,5.5
				c-0.1,0.3-0.2,0.8-0.4,1.1c-0.2,0.8-0.6,1.5-1,2.3l-1.5,3.2c-2.5,4.9-4.7,8.8-7.1,12c-4.9,6.9-11.1,12.6-18.2,16.9L1274.5,193.8z
				 M1291.6,118.5l2.2,7.2l1,4l0.7,4.2l0.4,2.9c0.1,1.1,0.2,2.2,0.2,2.9c0,0.3,0,0.6,0,1.1c0,0.6,0.1,1.2,0.1,1.8c0,0.6,0,1.1,0,1.7
				c0,1.4,0,2.9-0.1,4.5c0,0.3,0,0.6,0,0.9c0,0.8-0.1,1.4-0.1,2l-0.4,2.9c-0.7,4.9-1.6,8.8-2.7,12.2c-1.6,5.2-3.8,10.3-6.8,15.2
				c4.2-3.4,7.9-7.2,11.1-11.7l0,0c2.3-3.1,4.6-6.8,6.8-11.4l1.5-3.2c0.4-0.6,0.6-1.4,0.9-2.2c0.1-0.5,0.2-0.8,0.5-1.2
				c0.7-1.7,1.2-3.4,1.8-5.2l0.5-1.5c0.2-0.8,0.4-1.5,0.6-2.5l0.2-1.1c0.2-0.9,0.6-2.3,0.9-3.5l0.7-3.8l0.7-5.7l0.4-5.8l0.1-11.4
				l25.7-7.8V6.2h-78.2l-6.7,33.9l-7.5,0.2l-4.7,0.5l-4.6,0.9l-3,0.9c-1.1,0.3-2.1,0.6-2.8,1.1l-0.9,0.3c-0.6,0.3-1.4,0.5-2,0.8
				l-1.2,0.6c-1.5,0.8-2.8,1.4-4.2,2.3c-0.4,0.2-0.6,0.5-1,0.6c-0.6,0.3-1.1,0.6-1.7,1.1l-2.6,1.8c-3.7,2.8-6.7,5.5-9.1,8.5
				c-3.6,4-6.8,8.6-9.5,13.9c3.9-3.5,8-6.5,12.3-8.5c2.7-1.4,5.9-2.5,9.7-3.4l2.5-0.5c0.5-0.2,1.1-0.2,1.6-0.2c0.2,0,0.5,0,0.9,0
				c1.1-0.2,2.3-0.2,3.4-0.2c0.5,0,0.9,0,1.4,0c0.6,0,1.1,0,1.6,0.2c0.2,0,0.5,0,0.9,0c0.7,0,1.6,0.2,2.5,0.3l2.2,0.5l3.3,0.9
				l3.3,1.2l4.3,2l-13.8,69.9L1291.6,118.5z"/>
		</g>
	</g>
	<g>
		<g class="st14">
			<g>
				<path class="st7" d="M1302.3,602c0.2,0.8,0.5,1.5,0.7,2.5c0.1,0.6,0.4,1.1,0.5,1.7c0.2,0.6,0.4,1.4,0.6,2.2
					c0.1,0.5,0.2,0.9,0.4,1.4c0.2,0.9,0.5,2,0.7,3.1v0.2v0.2l0.7,3.8l0.5,3.8l0.2,1.8l0.1,1.7l0.2,4l0.1,8v0.5v7.8l6,1.8l23.5,7.2
					v92.2H1263l-5.4-27.5l-1.5-7.5h-6.3h-2.1l-6.4-0.2l-3.1-0.3l-1.5-0.2l-1.5-0.3l-3.1-0.6l-3.1-0.9h-0.1h-0.1
					c-0.9-0.3-1.7-0.6-2.5-0.9c-0.4-0.2-0.7-0.3-1.1-0.5c-0.6-0.3-1.2-0.5-1.7-0.8c-0.5-0.2-0.9-0.5-1.4-0.6c-0.6-0.3-1.4-0.6-2-0.9
					c0.6,0,1.2,0,1.7,0h0.4h0.4c0.4,0,0.6,0,1,0h0.1h0.1c0.7,0,1.4-0.2,2-0.2c0.2,0,0.5,0,0.7,0c1,0,2.1-0.2,3.3-0.5l2.3-0.5h0.2
					l0.2-0.2l2.3-0.6l1.2-0.3l0.4-0.2l0.2-0.2l1.1-0.5l2.3-0.9l0.2-0.2l0.2-0.2l4.7-2.2l0.4-0.2l6.8-3.1l-1.7-8.8l-12.3-62.8
					l49.4,15.1l6.9,2.2l2.6-8.3l1.2-4.3l0.1-0.3l0.1-0.3l0.7-2.9l0.4-1.4l0.1-0.3l0.1-0.5l0.2-1.5l0.5-3.1l0.1-0.3v-0.3l0.4-2.9
					c0.2-1.5,0.2-2.9,0.4-4.2c0-0.3,0-0.6,0-0.9c0-0.8,0.1-1.5,0.1-2.5v-0.2v-0.2c0-0.5,0-1.1,0-1.7
					C1302.3,603.9,1302.3,602.9,1302.3,602 M1278.4,556.8c5.4,7.2,9.6,15.2,12.2,23.9c1.4,4.2,2.2,8.6,3,12.9l0.4,3.2
					c0.1,1.1,0.1,2.2,0.2,3.2c0.2,2.2,0.1,4.3,0.1,6.5c0,1.1-0.1,2.2-0.1,3.2c0,1.1-0.1,2.2-0.2,3.1l-0.4,3.1l-0.5,3.1l-0.2,1.5
					l-0.4,1.4l-0.7,2.9l-1.2,4.3l-62.3-19.1l15.5,78.9l-0.4,0.2l-4.7,2.3l-2.3,0.9l-1.1,0.5l-1.2,0.3l-2.5,0.6l-2.5,0.5
					c-0.9,0.2-1.6,0.3-2.5,0.3c-0.9,0-1.7,0.2-2.6,0.2c-0.4,0-0.7,0-1.1,0c-0.2,0-0.5,0-0.7,0c-1.1,0-2.2,0-3.3-0.2
					c-0.9-0.2-1.7-0.2-2.6-0.3l-2.6-0.5c-3.4-0.8-7-1.8-10.3-3.7c-6.9-3.2-13.3-8.5-19.1-15.2c3.4,8.8,8.3,17.2,14.4,24.3
					c3.1,3.5,6.5,6.6,10.2,9.5l2.8,2c1,0.6,2,1.2,3,1.8c2,1.2,4.1,2.2,6.2,3.2c1.1,0.5,2.1,0.9,3.2,1.2c1.1,0.5,2.2,0.8,3.3,1.1
					l3.3,0.9l3.4,0.8l1.7,0.3l1.7,0.2l3.4,0.3l6.8,0.2h2.2l6.9,35.2h88.2V645.7l-29.7-9.1v-0.5l-0.1-8.5l-0.2-4.3l-0.1-2.2l-0.2-2.2
					l-0.6-4.3l-0.7-4.2c-0.2-1.4-0.6-2.8-0.9-4.2c-0.4-1.4-0.6-2.6-1-4c-0.9-2.6-1.6-5.2-2.6-7.7c-0.5-1.2-0.9-2.5-1.5-3.7l-1.6-3.5
					c-2.2-4.6-4.8-8.9-7.6-12.8C1292.2,566.9,1285.5,560.9,1278.4,556.8L1278.4,556.8z"/>
			</g>
		</g>
		<g>
			<path class="st3" d="M1205.3,707.1c3.1,3.5,6.5,6.6,10.2,9.5l2.8,2c1,0.6,2,1.2,3,1.8c2,1.2,4.1,2.2,6.2,3.2
				c1.1,0.5,2.1,0.9,3.2,1.2c1.1,0.5,2.2,0.8,3.3,1.1l3.3,0.9l3.4,0.8l1.7,0.3l1.7,0.2l3.4,0.3l6.8,0.2h2.2l6.9,35.2h88.2V653.7
				l-29.7-9.1v-0.5l-0.1-8.5l-0.2-4.3l-0.1-2.2l-0.2-2.2l-0.6-4.3l-0.7-4.2c-0.2-1.4-0.6-2.8-0.9-4.2c-0.4-1.4-0.6-2.6-1-4
				c-0.9-2.6-1.6-5.2-2.6-7.7c-0.5-1.2-0.9-2.5-1.5-3.7l-1.6-3.5c-2.2-4.6-4.8-8.9-7.6-12.8c-5.5-7.8-12.4-13.8-19.5-18
				c5.4,7.2,9.6,15.2,12.2,23.9c1.4,4.2,2.2,8.6,3,12.9l0.4,3.2c0.1,1.1,0.1,2.2,0.2,3.2c0.2,2.2,0.1,4.3,0.1,6.5
				c0,1.1-0.1,2.2-0.1,3.2c0,1.1-0.1,2.2-0.2,3.1l-0.4,3.1l-0.5,3.1l-0.2,1.5l-0.4,1.4l-0.7,2.9l-1.2,4.3l-62.3-19.1l15.5,78.9
				l-0.4,0.2l-4.7,2.3l-2.3,0.9l-1.1,0.5l-1.2,0.3l-2.5,0.6l-2.5,0.5c-0.9,0.2-1.6,0.3-2.5,0.3s-1.7,0.2-2.6,0.2
				c-1.7,0-3.4,0-5.2-0.2c-0.9-0.2-1.7-0.2-2.6-0.3l-2.6-0.5c-3.4-0.8-7-1.8-10.3-3.7c-6.9-3.2-13.3-8.5-19.1-15.2
				C1194.2,691.6,1199,700.1,1205.3,707.1z"/>
			<path class="st7" d="M1353,765.8h-90.5l-6.9-35.2l-7.9-0.2l-5.3-0.6l-5.2-1.1l-3.4-0.9c-1.2-0.3-2.5-0.8-3.3-1.2l-1-0.3
				c-0.7-0.3-1.5-0.6-2.2-0.9l-1.5-0.8c-1.6-0.8-3.3-1.5-4.9-2.6c-0.4-0.2-0.6-0.5-1-0.6c-0.6-0.5-1.4-0.8-2.1-1.2l-2.8-2
				c-4.3-3.2-7.6-6.5-10.5-9.7c-6-6.8-11-15.1-14.8-24.8l-3.2-8.2l5.3,6.2c5.8,6.8,12.1,11.8,18.6,14.9c3,1.5,6.2,2.6,10.1,3.5
				l2.6,0.5c0.5,0.2,1.1,0.2,1.6,0.2c0.4,0,0.6,0,1,0.2c1.2,0.2,2.3,0.2,3.6,0.2c0.5,0,1,0,1.5,0s1,0,1.5-0.2c0.4,0,0.6,0,1-0.2
				c0.7,0,1.5-0.2,2.3-0.3l2.5-0.5l3.4-0.9l3.3-1.2l3.8-1.8l-15.8-80.2l63.3,19.4l0.9-2.9l1-4.2l0.7-4.3l0.4-2.9
				c0.1-1.1,0.2-2.2,0.2-2.9c0-0.5,0-0.8,0.1-1.2c0-0.6,0.1-1.2,0.1-1.8c0-0.5,0-1.1,0-1.8c0-1.5,0-2.9-0.1-4.5c0-0.5,0-0.8-0.1-1.2
				c0-0.6-0.1-1.2-0.1-1.8l-0.4-3.2c-0.7-4.9-1.6-8.9-2.8-12.6c-2.5-8.2-6.5-16-11.9-23.4l-4.9-6.6l6.5,4
				c7.8,4.8,14.5,10.9,19.8,18.5c2.6,3.5,5.2,7.8,7.8,13.1l1.6,3.5c0.4,0.8,0.7,1.7,1,2.6c0.1,0.5,0.2,0.8,0.5,1.2
				c0.9,2,1.5,4,2.1,6l0.5,1.7c0.2,0.9,0.5,2,0.7,2.9l0.4,1.2c0.2,1.1,0.6,2.6,1,4.3l0.7,4.2l0.9,6.5l0.5,6.6l0.1,7.7l29.7,9.1
				L1353,765.8L1353,765.8z M1264.4,762.4h85.8V655.3l-29.7-9.1l-0.1-10.2l-0.5-6.3l-0.9-6.3l-0.7-4c-0.2-1.4-0.6-2.9-0.9-4
				l-0.4-1.2c-0.2-0.9-0.5-1.8-0.7-2.6l-0.5-1.7c-0.6-2-1.2-3.8-2-5.7c-0.1-0.5-0.4-0.9-0.5-1.2c-0.2-0.8-0.6-1.5-1-2.3l-1.6-3.5
				c-2.5-5.1-4.9-9.1-7.4-12.5c-3.7-5.1-7.9-9.5-12.8-13.4c3.3,5.5,5.9,11.4,7.8,17.4c1.2,3.8,2.2,8,3,13.2l0.4,3.4
				c0.1,0.8,0.1,1.5,0.1,2.2c0,0.3,0,0.8,0.1,1.1c0.1,1.5,0.1,3.2,0.1,4.8c0,0.6,0,1.2,0,1.8c0,0.8,0,1.5-0.1,2.2
				c0,0.3,0,0.8-0.1,1.1c0,0.9-0.1,2.2-0.2,3.2l-0.4,3.1l-0.9,4.6l-1.1,4.5l-1.7,5.7l-61.3-18.8l15.3,77.7l-6.2,2.9l-3.6,1.4
				l-3.7,1.1l-2.6,0.5c-0.9,0.2-1.8,0.3-2.6,0.3c-0.2,0-0.6,0-0.9,0.2c-0.6,0-1.1,0.2-1.7,0.2c-0.5,0-1,0-1.5,0
				c-1.2,0-2.6,0-3.8-0.2c-0.2,0-0.6,0-0.9-0.2c-0.6,0-1.2-0.2-1.8-0.2l-2.6-0.5c-4.3-0.9-7.6-2.2-10.7-3.7
				c-4.8-2.3-9.5-5.5-13.9-9.7c3.1,6,6.7,11.4,10.7,15.9l0,0c2.7,3.1,6,6.2,10.1,9.4l2.8,2c0.6,0.5,1.2,0.8,1.8,1.2
				c0.4,0.2,0.7,0.5,1,0.6c1.5,0.9,3,1.7,4.7,2.5l1.4,0.6c0.6,0.3,1.4,0.6,2.1,0.9l1,0.5c0.9,0.3,2,0.8,3.1,1.1l3.3,0.9l5,1.1
				l5.2,0.6l9.9,0.2L1264.4,762.4z"/>
		</g>
		<g>
			<path class="st5" d="M1269.6,661.6l21.4,6.6l5.7,1.7l19.2,5.8l10.2,3.1v53.4h-42.6l-2.1-10.9l-4.7-24l0,0l-1.5-7.8L1269.6,661.6
				 M1285.1,565.1c5.4,7.2,9.6,15.2,12.2,23.9c1.4,4.2,2.2,8.6,3,12.9l0.4,3.2c0.1,1.1,0.1,2.2,0.2,3.2c0.2,2.2,0.1,4.3,0.1,6.5
				c0,1.1-0.1,2.2-0.1,3.2c0,1.1-0.1,2.2-0.2,3.1l-0.4,3.1l-0.5,3.1l-0.2,1.5l-0.4,1.4l-0.7,2.9l-1.2,4.3l-62.3-19.1l15.5,78.9
				l-0.4,0.2l-4.7,2.3l-2.3,0.9l-1.1,0.5l-1.2,0.3l-2.5,0.6l-2.5,0.5c-0.9,0.2-1.6,0.3-2.5,0.3s-1.7,0.2-2.6,0.2c-0.4,0-0.7,0-1.1,0
				c-0.2,0-0.5,0-0.7,0c-1.1,0-2.2,0-3.3-0.2c-0.9-0.2-1.7-0.2-2.6-0.3l-2.6-0.5c-3.4-0.8-7-1.8-10.3-3.7
				c-6.9-3.2-13.3-8.5-19.1-15.2c3.4,8.8,8.3,17.2,14.4,24.3c3.1,3.5,6.5,6.6,10.2,9.5l2.8,2c1,0.6,2,1.2,3,1.8
				c2,1.2,4.1,2.2,6.2,3.2c1.1,0.5,2.1,0.9,3.2,1.2c1.1,0.5,2.2,0.8,3.3,1.1l3.3,0.9l3.4,0.8l1.7,0.3l1.7,0.2l3.4,0.3l6.8,0.2h2.2
				l6.9,35.2h88.2V654L1322,645v-0.5l-0.1-8.5l-0.2-4.3l-0.1-2.2l-0.2-2.2l-0.6-4.3l-0.7-4.2c-0.2-1.4-0.6-2.8-0.9-4.2
				c-0.4-1.4-0.6-2.6-1-4c-0.9-2.6-1.6-5.2-2.6-7.7c-0.5-1.2-0.9-2.5-1.5-3.7l-1.6-3.5c-2.2-4.6-4.8-8.9-7.6-12.8
				C1298.9,575.2,1292.1,569.2,1285.1,565.1L1285.1,565.1z"/>
		</g>
		<g>
			<path class="st6" d="M1309,610.3c0.2,0.8,0.5,1.5,0.7,2.5c0.1,0.6,0.4,1.1,0.5,1.7c0.2,0.6,0.4,1.4,0.6,2.2
				c0.1,0.5,0.2,0.9,0.4,1.4c0.2,0.9,0.5,2,0.7,3.1v0.2v0.2l0.7,3.8l0.5,3.8l0.2,1.8l0.1,1.7l0.2,4l0.1,8v0.5v7.8l6,1.8l23.5,7.2
				v92.2h-73.8l-5.4-27.5l-1.5-7.5h-6.3h-2.1l-6.4-0.2l-3.1-0.3l-1.5-0.2l-1.5-0.3l-3.1-0.6l-3.1-0.9h-0.1h-0.1
				c-0.9-0.3-1.7-0.6-2.5-0.9c-0.4-0.2-0.7-0.3-1.1-0.5c-0.6-0.3-1.2-0.5-1.7-0.8c-0.5-0.2-0.9-0.5-1.4-0.6c-0.6-0.3-1.4-0.6-2-0.9
				c0.6,0,1.2,0,1.7,0h0.4h0.4c0.4,0,0.6,0,1,0h0.1h0.1c0.7,0,1.4-0.2,2-0.2c0.2,0,0.5,0,0.7,0c1,0,2.1-0.2,3.3-0.5l2.3-0.5h0.2
				l0.2-0.2l2.3-0.6l1.2-0.3l0.4-0.2l0.2-0.2l1.1-0.5l2.3-0.9l0.2-0.2l0.2-0.2l4.7-2.2l0.4-0.2l6.8-3.1l-1.7-8.8l-12.3-62.8
				l49.4,15.1l6.9,2.2l2.6-8.3l1.2-4.3l0.1-0.3l0.1-0.3l0.7-2.9l0.4-1.4l0.1-0.3l0.1-0.5l0.2-1.5l0.5-3.1l0.1-0.3v-0.3l0.4-2.9
				c0.2-1.5,0.2-2.9,0.4-4.2c0-0.3,0-0.6,0-0.9c0-0.8,0.1-1.5,0.1-2.5V615v-0.2c0-0.5,0-1.1,0-1.7C1309,612.2,1309,611.3,1309,610.3
				 M1285.1,565.1c5.4,7.2,9.6,15.2,12.2,23.9c1.4,4.2,2.2,8.6,3,12.9l0.4,3.2c0.1,1.1,0.1,2.2,0.2,3.2c0.2,2.2,0.1,4.3,0.1,6.5
				c0,1.1-0.1,2.2-0.1,3.2c0,1.1-0.1,2.2-0.2,3.1l-0.4,3.1l-0.5,3.1l-0.2,1.5l-0.4,1.4l-0.7,2.9l-1.2,4.3l-62.3-19.1l15.5,78.9
				l-0.4,0.2l-4.7,2.3l-2.3,0.9l-1.1,0.5l-1.2,0.3l-2.5,0.6l-2.5,0.5c-0.9,0.2-1.6,0.3-2.5,0.3s-1.7,0.2-2.6,0.2c-0.4,0-0.7,0-1.1,0
				c-0.2,0-0.5,0-0.7,0c-1.1,0-2.2,0-3.3-0.2c-0.9-0.2-1.7-0.2-2.6-0.3l-2.6-0.5c-3.4-0.8-7-1.8-10.3-3.7
				c-6.9-3.2-13.3-8.5-19.1-15.2c3.4,8.8,8.3,17.2,14.4,24.3c3.1,3.5,6.5,6.6,10.2,9.5l2.8,2c1,0.6,2,1.2,3,1.8
				c2,1.2,4.1,2.2,6.2,3.2c1.1,0.5,2.1,0.9,3.2,1.2c1.1,0.5,2.2,0.8,3.3,1.1l3.3,0.9l3.4,0.8l1.7,0.3l1.7,0.2l3.4,0.3l6.8,0.2h2.2
				l6.9,35.2h88.2V654L1322,645v-0.5l-0.1-8.5l-0.2-4.3l-0.1-2.2l-0.2-2.2l-0.6-4.3l-0.7-4.2c-0.2-1.4-0.6-2.8-0.9-4.2
				c-0.4-1.4-0.6-2.6-1-4c-0.9-2.6-1.6-5.2-2.6-7.7c-0.5-1.2-0.9-2.5-1.5-3.7l-1.6-3.5c-2.2-4.6-4.8-8.9-7.6-12.8
				C1298.9,575.2,1292.1,569.2,1285.1,565.1L1285.1,565.1z"/>
		</g>
		<g>
			<path class="st7" d="M1353,765.8h-90.5l-6.9-35.2l-7.9-0.2l-5.3-0.6l-5.2-1.1l-3.4-0.9c-1.2-0.3-2.5-0.8-3.3-1.2l-1-0.3
				c-0.7-0.3-1.5-0.6-2.2-0.9l-1.5-0.8c-1.6-0.8-3.3-1.5-4.9-2.6c-0.4-0.2-0.6-0.5-1-0.6c-0.6-0.5-1.4-0.8-2.1-1.2l-2.8-2
				c-4.3-3.2-7.6-6.5-10.5-9.7c-6-6.8-11-15.1-14.8-24.8l-3.2-8.2l5.3,6.2c5.8,6.8,12.1,11.8,18.6,14.9c3,1.5,6.2,2.6,10.1,3.5
				l2.6,0.5c0.5,0.2,1.1,0.2,1.6,0.2c0.4,0,0.6,0,1,0.2c1.2,0.2,2.3,0.2,3.6,0.2c0.5,0,1,0,1.5,0s1,0,1.5-0.2c0.4,0,0.6,0,1-0.2
				c0.7,0,1.5-0.2,2.3-0.3l2.5-0.5l3.4-0.9l3.3-1.2l3.8-1.8l-15.8-80.2l63.3,19.4l0.9-2.9l1-4.2l0.7-4.3l0.4-2.9
				c0.1-1.1,0.2-2.2,0.2-2.9c0-0.5,0-0.8,0.1-1.2c0-0.6,0.1-1.2,0.1-1.8c0-0.5,0-1.1,0-1.8c0-1.5,0-2.9-0.1-4.5c0-0.5,0-0.8-0.1-1.2
				c0-0.6-0.1-1.2-0.1-1.8l-0.4-3.2c-0.7-4.9-1.6-8.9-2.8-12.6c-2.5-8.2-6.5-16-11.9-23.4l-4.9-6.6l6.5,4
				c7.8,4.8,14.5,10.9,19.8,18.5c2.6,3.5,5.2,7.8,7.8,13.1l1.6,3.5c0.4,0.8,0.7,1.7,1,2.6c0.1,0.5,0.2,0.8,0.5,1.2
				c0.9,2,1.5,4,2.1,6l0.5,1.7c0.2,0.9,0.5,2,0.7,2.9l0.4,1.2c0.2,1.1,0.6,2.6,1,4.3l0.7,4.2l0.9,6.5l0.5,6.6l0.1,7.7l29.7,9.1
				L1353,765.8L1353,765.8z M1264.4,762.4h85.8V655.3l-29.7-9.1l-0.1-10.2l-0.5-6.3l-0.9-6.3l-0.7-4c-0.2-1.4-0.6-2.9-0.9-4
				l-0.4-1.2c-0.2-0.9-0.5-1.8-0.7-2.6l-0.5-1.7c-0.6-2-1.2-3.8-2-5.7c-0.1-0.5-0.4-0.9-0.5-1.2c-0.2-0.8-0.6-1.5-1-2.3l-1.6-3.5
				c-2.5-5.1-4.9-9.1-7.4-12.5c-3.7-5.1-7.9-9.5-12.8-13.4c3.3,5.5,5.9,11.4,7.8,17.4c1.2,3.8,2.2,8,3,13.2l0.4,3.4
				c0.1,0.8,0.1,1.5,0.1,2.2c0,0.3,0,0.8,0.1,1.1c0.1,1.5,0.1,3.2,0.1,4.8c0,0.6,0,1.2,0,1.8c0,0.8,0,1.5-0.1,2.2
				c0,0.3,0,0.8-0.1,1.1c0,0.9-0.1,2.2-0.2,3.2l-0.4,3.1l-0.9,4.6l-1.1,4.5l-1.7,5.7l-61.3-18.8l15.3,77.7l-6.2,2.9l-3.6,1.4
				l-3.7,1.1l-2.6,0.5c-0.9,0.2-1.8,0.3-2.6,0.3c-0.2,0-0.6,0-0.9,0.2c-0.6,0-1.1,0.2-1.7,0.2c-0.5,0-1,0-1.5,0
				c-1.2,0-2.6,0-3.8-0.2c-0.2,0-0.6,0-0.9-0.2c-0.6,0-1.2-0.2-1.8-0.2l-2.6-0.5c-4.3-0.9-7.6-2.2-10.7-3.7
				c-4.8-2.3-9.5-5.5-13.9-9.7c3.1,6,6.7,11.4,10.7,15.9l0,0c2.7,3.1,6,6.2,10.1,9.4l2.8,2c0.6,0.5,1.2,0.8,1.8,1.2
				c0.4,0.2,0.7,0.5,1,0.6c1.5,0.9,3,1.7,4.7,2.5l1.4,0.6c0.6,0.3,1.4,0.6,2.1,0.9l1,0.5c0.9,0.3,2,0.8,3.1,1.1l3.3,0.9l5,1.1
				l5.2,0.6l9.9,0.2L1264.4,762.4z"/>
		</g>
	</g>
	<g>
		<g class="st14">
			<g>
				<path class="st7" d="M109.3,22.3l5.2,26.2l1.5,7.5l6.3,0.2h0.2l5.9,0.2l2.8,0.3l1.4,0.2l1.2,0.3l2.8,0.6l2.8,0.8h0.1h0.1
					c0.7,0.2,1.6,0.5,2.2,0.8c0.4,0.2,0.6,0.3,1,0.3c0.4,0.2,0.7,0.3,1.1,0.5c-0.5,0-1.1,0-1.6,0.2c-0.2,0-0.5,0-0.7,0
					c-0.9,0-2,0.2-3.1,0.5l-2.1,0.3h-0.2l-0.5,0.3l-2.2,0.6l-1.1,0.3l-0.4,0.2l-0.2,0.2l-1.1,0.5l-2.1,0.8l-0.2,0.2l-0.2,0.2
					l-3.1,1.5l-6.7,3.2l1.7,8.6l10.7,54.6L86,118.4l-7-2.2l-2.5,8.5l-0.1,0.3l-1.6,5.4l-0.1,0.3l-0.1,0.3l-0.6,2.6l-0.4,1.4
					l-0.1,0.3l-0.1,0.5l-0.2,1.4l-0.5,2.8l-0.1,0.3v0.3l-0.2,2.6c-0.2,1.4-0.2,2.8-0.4,3.8c0,0.3,0,0.6,0,0.9c0,0.6-0.1,1.4-0.1,2
					c-0.1-0.5-0.2-0.9-0.4-1.4c-0.1-0.5-0.2-0.8-0.4-1.2c-0.2-0.8-0.5-1.8-0.6-2.8v-0.2v-0.2l-0.6-3.5l-0.5-3.5l-0.2-1.5l-0.1-1.5
					l-0.2-3.7l-0.1-7.2v-2.5v-7.8l-6-1.8l-19.6-6V22.2h66.4 M115.7,12.3H35v100.8l25.7,7.8v2.5l0.1,7.7l0.2,4l0.1,2l0.2,2L62,143
					l0.7,3.8c0.2,1.2,0.5,2.5,0.9,3.7c0.4,1.2,0.6,2.5,1,3.7c0.7,2.3,1.5,4.8,2.3,7.1c0.5,1.1,0.9,2.3,1.4,3.4l1.5,3.2
					c2.1,4.2,4.3,8.2,7,11.7c5,7.2,11.3,12.6,17.7,16.5c-4.9-6.6-8.7-14-11.2-21.9c-1.2-3.8-2.1-7.8-2.7-11.8l-0.4-2.9
					c-0.1-0.9-0.1-2-0.2-2.9c-0.1-2-0.1-4-0.1-5.8c0-0.9,0.1-2,0.1-2.9c0-0.9,0.1-1.8,0.2-2.9l0.4-2.8l0.5-2.8l0.2-1.4l0.4-1.4
					l0.6-2.6l1.6-5.4L84,128l57.8,17.7l-13.9-71.3l3.1-1.5l2.1-0.8l1.1-0.5l1.1-0.3l2.2-0.6l2.2-0.5c0.7-0.2,1.5-0.3,2.3-0.3
					c0.7,0,1.6-0.2,2.3-0.2c0.4,0,0.6,0,1,0c0.2,0,0.5,0,0.7,0c1,0,2,0,3.1,0.2c0.7,0.2,1.6,0.2,2.3,0.3l2.3,0.5
					c3.2,0.8,6.4,1.7,9.5,3.4c6.3,2.9,12.2,7.8,17.5,14c-3.1-8-7.5-15.9-13.2-22.2c-2.8-3.2-6-6.2-9.4-8.8l-2.6-1.8
					c-0.9-0.6-1.7-1.1-2.7-1.7c-1.8-1.1-3.7-2-5.7-2.9c-1-0.5-2-0.8-3-1.2c-1-0.5-2-0.8-3-1.1l-3.1-0.9l-3.1-0.6l-1.6-0.3l-1.6-0.2
					l-3.2-0.3l-6.2-0.2h-0.2L115.7,12.3L115.7,12.3z"/>
			</g>
		</g>
		<g>
			<path class="st3" d="M70.6,171.8c-2.6-3.5-4.9-7.5-7-11.7l-1.5-3.2c-0.5-1.1-0.9-2.2-1.4-3.4c-0.9-2.3-1.6-4.6-2.3-7.1
				c-0.4-1.2-0.6-2.5-1-3.7c-0.4-1.2-0.6-2.5-0.9-3.7l-0.7-3.8l-0.5-3.8l-0.2-2l-0.1-2l-0.2-4l-0.1-7.7v-2.5l-25.7-7.8V4.5h80.7
				l6.7,33.9h0.2l6.2,0.2l3.2,0.3l1.6,0.2l1.6,0.3l3.1,0.6l3.1,0.9c1,0.3,2,0.6,3,1.1c1,0.5,2,0.8,3,1.2c1.8,0.9,3.8,1.8,5.7,2.9
				c0.9,0.6,1.8,1.1,2.7,1.7l2.6,1.8c3.3,2.6,6.5,5.4,9.4,8.8c5.8,6.3,10.1,14.2,13.2,22.2c-5.3-6.2-11.2-10.9-17.5-14
				c-3.1-1.5-6.3-2.6-9.5-3.4l-2.3-0.5c-0.7-0.2-1.6-0.2-2.3-0.3c-1.6-0.2-3.2-0.2-4.7-0.2c-0.7,0-1.6,0.2-2.3,0.2s-1.5,0.2-2.3,0.3
				l-2.2,0.5l-2.2,0.6L128,64l-1.1,0.5l-2.1,0.8l-3.1,1.5l14,71.4L78,120.5l-0.1,0.5l-1.6,5.4l-0.6,2.6l-0.4,1.4l-0.2,1.4l-0.5,2.8
				l-0.4,2.8c-0.1,0.9-0.2,1.8-0.2,2.9c0,0.9-0.1,2-0.1,2.9c0,1.8,0,3.8,0.1,5.8c0.1,0.9,0.1,2,0.2,2.9l0.4,2.9
				c0.6,4,1.4,8,2.7,11.8c2.3,7.8,6.3,15.2,11.2,21.9C81.9,184.4,75.8,179,70.6,171.8z"/>
			<path class="st7" d="M94.4,193.8l-6.5-4c-7.1-4.3-13.3-10-18.2-16.9c-2.5-3.2-4.8-7.1-7.1-12l-1.5-3.2c-0.4-0.8-0.6-1.5-1-2.3
				c-0.1-0.3-0.2-0.8-0.4-1.1c-0.7-1.8-1.4-3.7-2-5.5l-0.5-1.5c-0.2-0.9-0.5-1.7-0.7-2.6l-0.2-1.1c-0.2-1.1-0.6-2.5-0.9-3.8
				l-0.7-3.8l-0.7-6l-0.4-6l-0.1-9.1l-25.7-7.8V3.1h83l6.7,33.9l5.4,0.2l4.9,0.5l4.8,0.9l3.1,0.9c1.1,0.3,2.2,0.8,3.1,1.1l0.9,0.3
				c0.7,0.3,1.4,0.6,2.1,0.9l1.4,0.6c1.5,0.8,3,1.4,4.4,2.5c0.2,0.2,0.6,0.3,0.9,0.5c0.6,0.3,1.2,0.8,1.8,1.2l2.6,1.8
				c3.9,3.1,7,5.8,9.6,8.9c5.5,6.2,10.1,13.7,13.5,22.8l3.2,8.2l-5.3-6.2c-5.3-6.2-11-10.8-17-13.5c-2.7-1.4-5.5-2.3-9.2-3.2
				l-2.3-0.5c-0.5-0.2-1-0.2-1.5-0.2c-0.2,0-0.6,0-0.9-0.2c-1.1-0.2-2.2-0.2-3.2-0.2c-0.5,0-0.9,0-1.4,0c-0.4,0-0.9,0-1.4,0.2
				c-0.2,0-0.6,0-0.9,0c-0.6,0-1.4,0.2-2.1,0.3l-2.3,0.5l-3.2,0.9l-3.1,1.2l-1.8,0.9l14.2,72.5l-58.7-18l-1.4,4.5l-0.9,3.8l-0.7,4
				l-0.2,2.6c-0.1,0.9-0.2,1.8-0.2,2.8c0,0.3,0,0.8,0,1.1c0,0.6-0.1,1.2-0.1,1.7s0,1.1,0,1.5c0,1.4,0,2.8,0.1,4c0,0.5,0,0.8,0.1,1.1
				c0,0.6,0,1.2,0.1,1.7l0.4,2.9c0.6,4.5,1.5,8.2,2.6,11.4c2.2,7.5,5.9,14.6,10.8,21.2L94.4,193.8z M30.3,104l25.7,7.8l0.1,11.5
				l0.4,5.8l0.7,5.7l0.7,3.7c0.2,1.4,0.5,2.6,0.9,3.5l0.2,1.2c0.2,0.8,0.4,1.7,0.6,2.5l0.5,1.5c0.6,1.8,1.1,3.5,1.8,5.2
				c0.1,0.5,0.4,0.8,0.5,1.2c0.2,0.8,0.5,1.4,0.9,2.2l1.5,3.2c2.2,4.6,4.4,8.3,6.8,11.4l0,0c3.2,4.5,6.9,8.5,11.1,11.7
				c-2.8-4.9-5.2-10-6.8-15.4c-1.1-3.4-2-7.4-2.7-12.2l-0.4-3.1c-0.1-0.6-0.1-1.4-0.1-2c0-0.3,0-0.6,0-1.1c-0.1-1.5-0.1-2.9-0.1-4.3
				c0-0.6,0-1.1,0-1.7c0-0.8,0-1.4,0.1-2c0-0.3,0-0.8,0-1.1c0-0.9,0.1-2,0.2-3.1l0.4-2.8l0.7-4.2l1-4.2l2.2-7.2l56.8,17.4
				l-13.9-69.7l4.2-2l3.2-1.2l3.3-0.9l2.3-0.5c0.9-0.2,1.7-0.3,2.3-0.3c0.2,0,0.5,0,0.9,0c0.5,0,1-0.2,1.5-0.2s0.9,0,1.4,0
				c1.1,0,2.3,0,3.6,0.2c0.2,0,0.5,0,0.7,0c0.6,0,1.1,0.2,1.6,0.2l2.3,0.5c3.9,0.9,7,2,9.7,3.4c4.2,2,8.3,4.8,12.2,8.5
				c-2.7-5.2-5.8-9.8-9.4-13.9c-2.5-2.9-5.4-5.7-9.2-8.6l-2.6-1.8c-0.5-0.5-1.1-0.8-1.7-1.1c-0.4-0.2-0.6-0.3-1-0.6
				c-1.4-0.9-2.7-1.5-4.2-2.3l-1.2-0.6c-0.6-0.3-1.2-0.5-2-0.8l-0.9-0.3c-0.7-0.3-1.8-0.8-2.8-0.9l-3.1-0.9l-4.6-0.9l-4.7-0.5
				l-7.4-0.2l-6.7-33.9H30.3V104z"/>
		</g>
		<g>
			<path class="st5" d="M89.6,36.6l1.8,9.5l0.2,0.9l0.5,2.5l4.1,20.6l0,0l0.9,4.3l3.9,20l-16.9-5.1l-22-6.8l0,0l-1.2-0.3l-6.3-2
				V36.6L89.6,36.6 M109.5,4.6H29v100.8l25.7,7.8v2.5l0.1,7.7l0.2,4l0.1,2l0.2,2l0.5,3.8l0.7,3.8c0.2,1.2,0.5,2.5,0.9,3.7
				c0.4,1.2,0.6,2.5,1,3.7c0.7,2.3,1.5,4.8,2.3,7.1c0.5,1.1,0.9,2.3,1.4,3.4l1.5,3.2c2.1,4.2,4.3,8.2,7,11.7
				c5,7.2,11.3,12.6,17.7,16.5c-4.9-6.6-8.7-14-11.2-21.9c-1.2-3.8-2.1-7.8-2.7-11.8l-0.4-2.9c-0.1-0.9-0.1-2-0.2-2.9
				c-0.1-2-0.1-4-0.1-5.8c0-0.9,0.1-2,0.1-2.9c0-0.9,0.1-1.8,0.2-2.9l0.4-2.8l0.5-2.8l0.2-1.4l0.4-1.4l0.6-2.6l1.6-5.4l0.1-0.5
				l57.8,17.9L121.8,67l3.1-1.5l2.1-0.8l1.1-0.5l1.1-0.3l2.2-0.6l2.2-0.5c0.7-0.2,1.5-0.3,2.3-0.3c0.7,0,1.6-0.2,2.3-0.2
				c0.4,0,0.6,0,1,0c0.2,0,0.5,0,0.7,0c1,0,2,0,3.1,0.2c0.7,0.2,1.6,0.2,2.3,0.3l2.3,0.5c3.2,0.8,6.4,1.7,9.5,3.4
				c6.3,2.9,12.2,7.8,17.5,14c-3.1-8-7.5-15.9-13.2-22.2c-2.8-3.2-6-6.2-9.4-8.8l-2.6-1.8c-0.9-0.6-1.7-1.1-2.7-1.7
				c-1.8-1.1-3.7-2-5.7-2.9c-1-0.5-2-0.8-3-1.2c-1-0.5-2-0.8-3-1.1l-3.1-0.9l-3.1-0.6l-1.6-0.3l-1.6-0.2l-3.2-0.3l-6.2-0.2h-0.2
				L109.5,4.6L109.5,4.6z"/>
		</g>
		<g>
			<path class="st6" d="M103.2,14.8l5.2,26.2l1.5,7.5l6.3,0.2h0.2l5.9,0.2l2.8,0.3l1.4,0.2l1.2,0.3l2.8,0.6l2.8,0.8h0.1h0.1
				c0.7,0.2,1.6,0.5,2.2,0.8c0.4,0.2,0.6,0.3,1,0.3c0.4,0.2,0.7,0.3,1.1,0.5c-0.5,0-1.1,0-1.6,0.2c-0.2,0-0.5,0-0.7,0
				c-0.9,0-2,0.2-3.1,0.5l-2.1,0.3h-0.2l-0.6,0.2l-2.2,0.6l-1.1,0.3l-0.4,0.2l-0.2,0.2l-1,0.3l-2.1,0.8l-0.2,0.2l-0.2,0.2l-3.1,1.5
				l-6.7,3.2l1.7,8.6l10.8,55.1L80.1,111l-7-2.2l-2.5,8.5l-0.1,0.3l-1.6,5.4l-0.1,0.3l-0.1,0.3l-0.6,2.6l-0.4,1.4l-0.1,0.3l-0.1,0.5
				l-0.2,1.4l-0.5,2.8l-0.1,0.3v0.3l-0.2,2.6c-0.2,1.5-0.2,2.8-0.4,3.8c0,0.3,0,0.6,0,0.9c0,0.6-0.1,1.4-0.1,2
				c-0.1-0.5-0.2-0.9-0.4-1.4c-0.1-0.5-0.2-0.8-0.4-1.2c-0.2-0.8-0.5-1.8-0.6-2.8V137v-0.2l-0.6-3.5l-0.5-3.5l-0.2-1.5l-0.1-1.5
				l-0.2-3.7l-0.1-7.2v-2.5v-7.8l-6-1.8l-19.6-6V14.8H103.2 M109.5,4.6H29v100.8l25.7,7.8v2.5l0.1,7.7l0.2,4l0.1,2l0.2,2l0.5,3.8
				l0.7,3.8c0.2,1.2,0.5,2.5,0.9,3.7c0.4,1.2,0.6,2.5,1,3.7c0.7,2.3,1.5,4.8,2.3,7.1c0.5,1.1,0.9,2.3,1.4,3.4l1.5,3.2
				c2.1,4.2,4.3,8.2,7,11.7c5,7.2,11.3,12.6,17.7,16.5c-4.9-6.6-8.7-14-11.2-21.9c-1.2-3.8-2.1-7.8-2.7-11.8l-0.4-2.9
				c-0.1-0.9-0.1-2-0.2-2.9c-0.1-2-0.1-4-0.1-5.8c0-0.9,0.1-2,0.1-2.9c0-0.9,0.1-1.8,0.2-2.9l0.4-2.8l0.5-2.8l0.2-1.4l0.4-1.4
				l0.6-2.6l1.6-5.4l0.1-0.5l57.8,17.9L121.8,67l3.1-1.5l2.1-0.8l1.1-0.5l1.1-0.3l2.2-0.6l2.2-0.5c0.7-0.2,1.5-0.3,2.3-0.3
				c0.7,0,1.6-0.2,2.3-0.2c0.4,0,0.6,0,1,0c0.2,0,0.5,0,0.7,0c1,0,2,0,3.1,0.2c0.7,0.2,1.6,0.2,2.3,0.3l2.3,0.5
				c3.2,0.8,6.4,1.7,9.5,3.4c6.3,2.9,12.2,7.8,17.5,14c-3.1-8-7.5-15.9-13.2-22.2c-2.8-3.2-6-6.2-9.4-8.8l-2.6-1.8
				c-0.9-0.6-1.7-1.1-2.7-1.7c-1.8-1.1-3.7-2-5.7-2.9c-1-0.5-2-0.8-3-1.2c-1-0.5-2-0.8-3-1.1l-3.1-0.9l-3.1-0.6l-1.6-0.3l-1.6-0.2
				l-3.2-0.3l-6.2-0.2h-0.2L109.5,4.6L109.5,4.6z"/>
		</g>
		<g>
			<path class="st7" d="M94.4,193.8l-6.5-4c-7.1-4.3-13.3-10-18.2-16.9c-2.5-3.2-4.8-7.1-7.1-12l-1.5-3.2c-0.4-0.8-0.6-1.5-1-2.3
				c-0.1-0.3-0.2-0.8-0.4-1.1c-0.7-1.8-1.4-3.7-2-5.5l-0.5-1.5c-0.2-0.9-0.5-1.7-0.7-2.6l-0.2-1.1c-0.2-1.1-0.6-2.5-0.9-3.8
				l-0.7-3.8l-0.7-6l-0.4-6l-0.1-9.1l-25.7-7.8V3.1h83l6.7,33.9l5.4,0.2l4.9,0.5l4.8,0.9l3.1,0.9c1.1,0.3,2.2,0.8,3.1,1.1l0.9,0.3
				c0.7,0.3,1.4,0.6,2.1,0.9l1.4,0.6c1.5,0.8,3,1.4,4.4,2.5c0.2,0.2,0.6,0.3,0.9,0.5c0.6,0.3,1.2,0.8,1.8,1.2l2.6,1.8
				c3.9,3.1,7,5.8,9.6,8.9c5.5,6.2,10.1,13.7,13.5,22.8l3.2,8.2l-5.3-6.2c-5.3-6.2-11-10.8-17-13.5c-2.7-1.4-5.5-2.3-9.2-3.2
				l-2.3-0.5c-0.5-0.2-1-0.2-1.5-0.2c-0.2,0-0.6,0-0.9-0.2c-1.1-0.2-2.2-0.2-3.2-0.2c-0.5,0-0.9,0-1.4,0c-0.4,0-0.9,0-1.4,0.2
				c-0.2,0-0.6,0-0.9,0c-0.6,0-1.4,0.2-2.1,0.3l-2.3,0.5l-3.2,0.9l-3.1,1.2l-1.8,0.9l14.2,72.5l-58.7-18l-1.4,4.5l-0.9,3.8l-0.7,4
				l-0.2,2.6c-0.1,0.9-0.2,1.8-0.2,2.8c0,0.3,0,0.8,0,1.1c0,0.6-0.1,1.2-0.1,1.7s0,1.1,0,1.5c0,1.4,0,2.8,0.1,4c0,0.5,0,0.8,0.1,1.1
				c0,0.6,0,1.2,0.1,1.7l0.4,2.9c0.6,4.5,1.5,8.2,2.6,11.4c2.2,7.5,5.9,14.6,10.8,21.2L94.4,193.8z M30.3,104l25.7,7.8l0.1,11.5
				l0.4,5.8l0.7,5.7l0.7,3.7c0.2,1.4,0.5,2.6,0.9,3.5l0.2,1.2c0.2,0.8,0.4,1.7,0.6,2.5l0.5,1.5c0.6,1.8,1.1,3.5,1.8,5.2
				c0.1,0.5,0.4,0.8,0.5,1.2c0.2,0.8,0.5,1.4,0.9,2.2l1.5,3.2c2.2,4.6,4.4,8.3,6.8,11.4l0,0c3.2,4.5,6.9,8.5,11.1,11.7
				c-2.8-4.9-5.2-10-6.8-15.4c-1.1-3.4-2-7.4-2.7-12.2l-0.4-3.1c-0.1-0.6-0.1-1.4-0.1-2c0-0.3,0-0.6,0-1.1c-0.1-1.5-0.1-2.9-0.1-4.3
				c0-0.6,0-1.1,0-1.7c0-0.8,0-1.4,0.1-2c0-0.3,0-0.8,0-1.1c0-0.9,0.1-2,0.2-3.1l0.4-2.8l0.7-4.2l1-4.2l2.2-7.2l56.8,17.4
				l-13.9-69.7l4.2-2l3.2-1.2l3.3-0.9l2.3-0.5c0.9-0.2,1.7-0.3,2.3-0.3c0.2,0,0.5,0,0.9,0c0.5,0,1-0.2,1.5-0.2s0.9,0,1.4,0
				c1.1,0,2.3,0,3.6,0.2c0.2,0,0.5,0,0.7,0c0.6,0,1.1,0.2,1.6,0.2l2.3,0.5c3.9,0.9,7,2,9.7,3.4c4.2,2,8.3,4.8,12.2,8.5
				c-2.7-5.2-5.8-9.8-9.4-13.9c-2.5-2.9-5.4-5.7-9.2-8.6l-2.6-1.8c-0.5-0.5-1.1-0.8-1.7-1.1c-0.4-0.2-0.6-0.3-1-0.6
				c-1.4-0.9-2.7-1.5-4.2-2.3l-1.2-0.6c-0.6-0.3-1.2-0.5-2-0.8l-0.9-0.3c-0.7-0.3-1.8-0.8-2.8-0.9l-3.1-0.9l-4.6-0.9l-4.7-0.5
				l-7.4-0.2l-6.7-33.9H30.3V104z"/>
		</g>
	</g>
	<g>
		<g class="st14">
			<g>
				<path class="st7" d="M66.5,602c0,0.9,0,1.8,0,2.6c0,0.6,0,1.1,0,1.7v0.2v0.2c0,0.9,0.1,1.7,0.1,2.5c0,0.3,0,0.6,0,0.9
					c0,1.2,0.1,2.6,0.4,4.2l0.4,2.9v0.3l0.1,0.3l0.5,2.9l0.2,1.5l0.1,0.5l0.1,0.3l0.4,1.4l0.7,2.9l0.1,0.3l0.1,0.3l1.2,4.3l2.6,8.3
					l6.9-2.2l49.4-15.1L117.6,686l-1.7,8.8l6.8,3.1l0.2,0.2l4.7,2.3l0.2,0.2l0.2,0.2l2.3,0.9l1.1,0.5l0.2,0.2l0.4,0.2l1.2,0.3
					l2.5,0.6l0.2,0.2h0.2l2.3,0.5c1.2,0.3,2.3,0.3,3.3,0.5c0.2,0,0.5,0,0.7,0c0.6,0,1.2,0.2,2,0.2h0.1h0.1c0.4,0,0.6,0,1,0h0.4h0.4
					c0.5,0,1.1,0,1.7,0c-0.6,0.3-1.2,0.6-2,0.9c-0.5,0.2-0.9,0.5-1.4,0.6c-0.5,0.3-1.1,0.5-1.7,0.8c-0.4,0.2-0.7,0.3-1.1,0.5
					c-0.7,0.3-1.6,0.6-2.5,0.9h-0.1h-0.1l-3.1,0.9l-3.1,0.6l-1.5,0.3l-1.4,0.2l-3.2,0.3l-6.4,0.2h-2.2h-6.3l-1.5,7.5l-5.4,27.5H32
					v-92.2l23.5-7.2l6-1.8v-7.8v-0.3l0.1-8l0.2-3.8l0.1-1.8l0.2-1.8l0.5-3.8l0.7-3.8V613v-0.2c0.2-1.1,0.5-2.2,0.7-3.1
					c0.1-0.5,0.2-0.9,0.4-1.4c0.2-0.8,0.4-1.5,0.6-2.2c0.1-0.6,0.4-1.1,0.5-1.7C66,603.6,66.3,602.8,66.5,602 M90.4,556.8
					c-7,4.3-13.8,10.3-19.5,18c-2.8,3.8-5.3,8.2-7.6,12.8l-1.6,3.5c-0.5,1.2-1,2.5-1.5,3.7c-1,2.5-1.7,5.1-2.6,7.7
					c-0.4,1.4-0.7,2.6-1,4c-0.4,1.4-0.6,2.8-0.9,4.2l-0.7,4.2l-0.6,4.3l-0.2,2.2l-0.1,2.2l-0.2,4.3l-0.1,8.5v0.5L24,645.7v110.2
					h88.2l6.9-35.2h2.2l6.8-0.2l3.4-0.3l1.7-0.2l1.7-0.3l3.4-0.8l3.3-0.9c1.1-0.3,2.2-0.8,3.3-1.1c1.1-0.5,2.1-0.8,3.2-1.2
					c2.1-1.1,4.2-2,6.2-3.2c1-0.6,2-1.1,3-1.8l2.8-2c3.7-2.8,7.1-6,10.2-9.5c6.3-6.9,11.1-15.5,14.4-24.3
					c-5.8,6.8-12.2,12-19.1,15.2c-3.3,1.7-6.9,2.8-10.3,3.7l-2.6,0.5c-0.9,0.2-1.7,0.2-2.6,0.3c-1.1,0.2-2.2,0.2-3.3,0.2
					c-0.2,0-0.5,0-0.7,0c-0.4,0-0.7,0-1.1,0c-0.9,0-1.7-0.2-2.6-0.2s-1.7-0.2-2.5-0.3l-2.5-0.5l-2.5-0.6l-1.2-0.3l-1.1-0.5l-2.3-0.9
					l-4.7-2.3l-0.4-0.2l15.5-78.9l-62.3,19.1l-1.2-4.3l-0.7-2.9l-0.4-1.4L76,619l-0.5-3.1l-0.4-3.1c-0.1-1.1-0.2-2-0.2-3.1
					c0-1.1-0.1-2.2-0.1-3.2c0-2.2,0-4.3,0.1-6.5c0.1-1.1,0.1-2.2,0.2-3.2l0.4-3.2c0.6-4.3,1.5-8.8,3-12.9
					C80.8,572,85.1,563.9,90.4,556.8L90.4,556.8z"/>
			</g>
		</g>
		<g>
			<path class="st3" d="M163.6,707.1c-3.1,3.5-6.5,6.6-10.2,9.5l-2.8,2c-1,0.6-2,1.2-3,1.8c-2,1.2-4.1,2.2-6.2,3.2
				c-1.1,0.5-2.1,0.9-3.2,1.2c-1.1,0.5-2.2,0.8-3.3,1.1l-3.3,0.9l-3.4,0.8l-1.7,0.3l-1.7,0.2l-3.4,0.3l-6.8,0.2h-2.2l-6.9,35.2H17.3
				V653.7l29.7-9.1v-0.5l0.1-8.5l0.2-4.3l0.1-2.2l0.2-2.2l0.6-4.3l0.7-4.2c0.2-1.4,0.6-2.8,0.9-4.2c0.4-1.4,0.6-2.6,1-4
				c0.9-2.6,1.6-5.2,2.6-7.7c0.5-1.2,0.9-2.5,1.5-3.7l1.6-3.5c2.2-4.6,4.8-8.9,7.6-12.8c5.5-7.8,12.4-13.8,19.5-18
				C78.2,572,74,580,71.5,588.6c-1.4,4.2-2.2,8.6-3,12.9l-0.4,3.2c-0.1,1.1-0.1,2.2-0.2,3.2c-0.2,2.2-0.1,4.3-0.1,6.5
				c0,1.1,0.1,2.2,0.1,3.2c0,1.1,0.1,2.2,0.2,3.1l0.4,3.1L69,627l0.2,1.5l0.4,1.4l0.7,2.9l1.2,4.3l62.3-19.1L118.4,697l0.4,0.2
				l4.7,2.3l2.3,0.9l1.1,0.5l1.2,0.3l2.5,0.6l2.5,0.5c0.9,0.2,1.6,0.3,2.5,0.3c0.9,0,1.7,0.2,2.6,0.2c1.7,0,3.4,0,5.2-0.2
				c0.9-0.2,1.7-0.2,2.6-0.3l2.6-0.5c3.4-0.8,7-1.8,10.3-3.7c6.9-3.2,13.3-8.5,19.1-15.2C174.7,691.6,169.9,700.1,163.6,707.1z"/>
			<path class="st7" d="M106.6,765.8H15.9V652.7l29.7-9.1l0.1-7.5l0.5-6.6l0.9-6.5l0.7-4.3c0.2-1.5,0.6-3.1,1-4.2l0.4-1.2
				c0.2-0.9,0.5-1.8,0.7-2.8l0.6-1.8c0.6-2,1.2-4.2,2.1-6c0.1-0.5,0.2-0.8,0.5-1.2c0.4-0.8,0.6-1.7,1-2.6l1.6-3.5
				c2.6-5.4,5.2-9.5,7.8-13.1c5.3-7.5,12.1-13.7,19.8-18.5l6.5-4l-4.9,6.6c-5.4,7.2-9.5,15.1-11.9,23.2c-1.2,3.7-2.1,7.7-2.8,12.6
				l-0.4,3.2c-0.1,0.6-0.1,1.2-0.1,2c0,0.5,0,0.8-0.1,1.2c-0.1,1.5-0.1,2.9-0.1,4.5c0,0.6,0,1.2,0,1.8s0,1.2,0.1,1.8
				c0,0.5,0,0.8,0.1,1.2c0,0.9,0.1,1.8,0.2,2.9l0.4,3.1l0.7,4.3l1,4.2l0.9,2.8l63.3-19.4l-15.8,80.2l3.9,1.8l3.3,1.2l3.4,0.9
				l2.3,0.5c0.9,0.2,1.7,0.3,2.3,0.3c0.4,0,0.6,0,1,0.2c0.5,0,1,0.2,1.5,0.2c0.4,0,0.9,0,1.4,0c1.2,0,2.3,0,3.6-0.2
				c0.4,0,0.6,0,1-0.2c0.5,0,1-0.2,1.6-0.2l2.6-0.5c3.9-0.9,7.1-2,10.1-3.5c6.5-3.1,12.8-8.2,18.7-14.9l5.3-6.2l-3.2,8.2
				c-3.8,9.7-8.7,18.2-14.8,24.8c-2.8,3.2-6.3,6.5-10.5,9.7l-2.8,2c-0.6,0.5-1.4,0.9-2.1,1.2c-0.4,0.2-0.6,0.3-1,0.6
				c-1.6,1.1-3.2,1.8-4.8,2.6l-1.4,0.6c-0.7,0.3-1.6,0.6-2.3,0.9l-1,0.5c-0.9,0.3-2.1,0.8-3.4,1.2l-3.3,0.9l-5.2,1.1l-5.3,0.6
				l-8,0.2L106.6,765.8z M18.6,762.4h85.8l6.9-35.2l10-0.2l5-0.6l5-1.1l3.2-0.9c1.1-0.3,2.2-0.8,3.2-1.1l1-0.5
				c0.7-0.3,1.5-0.6,2.1-0.9l1.4-0.6c1.6-0.8,3.2-1.5,4.6-2.5c0.4-0.2,0.7-0.5,1-0.6c0.6-0.3,1.2-0.8,1.8-1.2l2.8-2
				c4.1-3.1,7.3-6.2,10-9.2l0,0c4.1-4.5,7.6-9.8,10.7-15.9c-4.4,4.2-9.1,7.4-13.9,9.7c-3,1.5-6.4,2.8-10.6,3.7l-2.7,0.5
				c-0.6,0.2-1.2,0.2-1.8,0.2c-0.2,0-0.6,0-0.9,0.2c-1.2,0.2-2.6,0.2-3.8,0.2c-0.5,0-1,0-1.4,0c-0.6,0-1.2,0-1.7-0.2
				c-0.2,0-0.6,0-0.9-0.2c-0.7,0-1.7-0.2-2.6-0.3l-2.5-0.5l-3.7-0.9l-3.6-1.4l-6.3-2.9l15.3-77.7L70.8,639l-1.7-5.7l-1.1-4.5
				l-0.9-4.6l-0.4-3.2c-0.1-1.1-0.2-2.3-0.2-3.2c0-0.3,0-0.8-0.1-1.1c0-0.6-0.1-1.4-0.1-2.2c0-0.6,0-1.2,0-1.8c0-1.5,0-3.2,0.1-4.8
				c0-0.3,0-0.8,0.1-1.1c0-0.8,0.1-1.5,0.1-2.3l0.4-3.2c0.7-5.4,1.7-9.5,3-13.4c1.8-6,4.4-11.8,7.8-17.4c-4.8,3.8-9.1,8.3-12.7,13.4
				c-2.6,3.4-4.9,7.5-7.5,12.6l-1.6,3.5c-0.4,0.8-0.6,1.5-1,2.3c-0.1,0.5-0.4,0.9-0.5,1.2c-0.7,1.8-1.4,3.7-2,5.8l-0.5,1.7
				c-0.2,0.8-0.5,1.7-0.7,2.6l-0.4,1.2c-0.2,1.1-0.6,2.5-0.9,3.8l-0.7,4.2l-0.9,6.3l-0.5,6.5l-0.1,10l-29.2,9.5
				C18.6,655.3,18.6,762.4,18.6,762.4z"/>
		</g>
		<g>
			<path class="st5" d="M99.3,661.6l-5.4,27.9l-1.5,7.8l-4.7,24l-2.1,10.9H42.9V679l10.2-3.1l19.2-5.8l0,0l5.7-1.7L99.3,661.6
				 M83.8,565.1c-7,4.3-13.8,10.3-19.5,18c-2.8,3.8-5.3,8.2-7.6,12.8l-1.6,3.5c-0.5,1.2-1,2.5-1.5,3.7c-1,2.5-1.7,5.1-2.6,7.7
				c-0.4,1.4-0.7,2.6-1,4c-0.4,1.4-0.6,2.8-0.9,4.2l-0.7,4.2l-0.6,4.3l-0.2,2.2l-0.1,2.2l-0.2,4.3l-0.1,8.5v0.5L17.4,654v110.2h88.2
				l6.9-35.2h2.2l6.8-0.2l3.4-0.3l1.7-0.2l1.7-0.3l3.4-0.8l3.3-0.9c1.1-0.3,2.2-0.8,3.3-1.1c1.1-0.5,2.1-0.8,3.2-1.2
				c2.1-1.1,4.2-2,6.2-3.2c1-0.6,2-1.1,3-1.8l2.8-2c3.7-2.8,7.1-6,10.2-9.5c6.3-6.9,11.1-15.5,14.4-24.3c-5.8,6.8-12.2,12-19.1,15.2
				c-3.3,1.7-6.9,2.8-10.3,3.7l-2.6,0.5c-0.9,0.2-1.7,0.2-2.6,0.3c-1.1,0.2-2.2,0.2-3.3,0.2c-0.2,0-0.5,0-0.7,0c-0.4,0-0.7,0-1.1,0
				c-0.9,0-1.7-0.2-2.6-0.2c-0.9,0-1.7-0.2-2.5-0.3l-2.5-0.5l-2.5-0.6l-1.2-0.3l-1.1-0.5l-2.3-0.9l-4.7-2.3l-0.4-0.2l15.5-78.9
				l-62.3,19.1l-1.2-4.3l-0.7-2.9l-0.4-1.4l-0.2-1.5l-0.5-3.1l-0.4-3.1c-0.1-1.1-0.2-2-0.2-3.1c0-1.1-0.1-2.2-0.1-3.2
				c0-2.2,0-4.3,0.1-6.5c0.1-1.1,0.1-2.2,0.2-3.2l0.4-3.2c0.6-4.3,1.5-8.8,3-12.9C74.2,580.3,78.5,572.2,83.8,565.1L83.8,565.1z"/>
		</g>
		<g>
			<path class="st6" d="M59.9,610.3c0,0.9,0,1.8,0,2.6c0,0.6,0,1.1,0,1.7v0.2v0.2c0,0.9,0.1,1.7,0.1,2.5c0,0.3,0,0.6,0,0.9
				c0,1.2,0.1,2.6,0.4,4.2l0.4,2.9v0.3l0.1,0.3l0.5,2.9l0.2,1.5l0.1,0.5l0.1,0.3l0.4,1.4l0.7,2.9l0.1,0.3l0.1,0.3l1.2,4.3l2.3,8.6
				l6.9-2.2l49.4-15.1l-12.3,62.8l-1.7,8.8l6.8,3.1l0.2,0.2l4.7,2.3l0.2,0.2l0.2,0.2l2.3,0.9l1.1,0.5l0.2,0.2l0.4,0.2l1.2,0.3
				l2.5,0.6l0.2,0.2h0.2l2.3,0.5c1.2,0.3,2.3,0.3,3.3,0.5c0.2,0,0.5,0,0.7,0c0.6,0,1.2,0.2,2,0.2h0.1h0.1c0.4,0,0.6,0,1,0h0.4h0.4
				c0.5,0,1.1,0,1.7,0c-0.6,0.3-1.2,0.6-2,0.9c-0.5,0.2-0.9,0.5-1.4,0.6c-0.5,0.3-1.1,0.5-1.7,0.8c-0.4,0.2-0.7,0.3-1.1,0.5
				c-0.7,0.3-1.6,0.6-2.5,0.9h-0.1h-0.1l-3.1,0.9l-3.1,0.6l-1.5,0.3l-1.4,0.2l-3.2,0.3l-6.4,0.2h-2.2h-6.3l-1.5,7.5l-5.4,27.5H25.4
				v-92.2l23.5-7.2l6-1.8v-7.8V645l0.1-8l0.2-3.8l0.1-1.8l0.2-1.8l0.5-3.8l0.7-3.8v-0.2v-0.2c0.2-1.1,0.5-2.2,0.7-3.1
				c0.1-0.5,0.2-0.9,0.4-1.4c0.2-0.8,0.4-1.5,0.6-2.2c0.1-0.6,0.4-1.1,0.5-1.7C59.4,611.9,59.6,611.1,59.9,610.3 M83.8,565.1
				c-7,4.3-13.8,10.3-19.5,18c-2.8,3.8-5.3,8.2-7.6,12.8l-1.6,3.5c-0.5,1.2-1,2.5-1.5,3.7c-1,2.5-1.7,5.1-2.6,7.7
				c-0.4,1.4-0.7,2.6-1,4c-0.4,1.4-0.6,2.8-0.9,4.2l-0.7,4.2l-0.6,4.3l-0.2,2.2l-0.1,2.2l-0.2,4.3l-0.1,8.5v0.5L17.4,654v110.2h88.2
				l6.9-35.2h2.2l6.8-0.2l3.4-0.3l1.7-0.2l1.7-0.3l3.4-0.8l3.3-0.9c1.1-0.3,2.2-0.8,3.3-1.1c1.1-0.5,2.1-0.8,3.2-1.2
				c2.1-1.1,4.2-2,6.2-3.2c1-0.6,2-1.1,3-1.8l2.8-2c3.7-2.8,7.1-6,10.2-9.5c6.3-6.9,11.1-15.5,14.4-24.3c-5.8,6.8-12.2,12-19.1,15.2
				c-3.3,1.7-6.9,2.8-10.3,3.7l-2.6,0.5c-0.9,0.2-1.7,0.2-2.6,0.3c-1.1,0.2-2.2,0.2-3.3,0.2c-0.2,0-0.5,0-0.7,0c-0.4,0-0.7,0-1.1,0
				c-0.9,0-1.7-0.2-2.6-0.2c-0.9,0-1.7-0.2-2.5-0.3l-2.5-0.5l-2.5-0.6l-1.2-0.3l-1.1-0.5l-2.3-0.9l-4.7-2.3l-0.4-0.2l15.5-78.9
				l-62.3,19.1l-1.2-4.3l-0.7-2.9l-0.4-1.4l-0.2-1.5l-0.5-3.1l-0.4-3.1c-0.1-1.1-0.2-2-0.2-3.1c0-1.1-0.1-2.2-0.1-3.2
				c0-2.2,0-4.3,0.1-6.5c0.1-1.1,0.1-2.2,0.2-3.2l0.4-3.2c0.6-4.3,1.5-8.8,3-12.9C74.2,580.3,78.5,572.2,83.8,565.1L83.8,565.1z"/>
		</g>
		<g>
			<path class="st7" d="M106.6,765.8H15.9V652.7l29.7-9.1l0.1-7.5l0.5-6.6l0.9-6.5l0.7-4.3c0.2-1.5,0.6-3.1,1-4.2l0.4-1.2
				c0.2-0.9,0.5-1.8,0.7-2.8l0.6-1.8c0.6-2,1.2-4.2,2.1-6c0.1-0.5,0.2-0.8,0.5-1.2c0.4-0.8,0.6-1.7,1-2.6l1.6-3.5
				c2.6-5.4,5.2-9.5,7.8-13.1c5.3-7.5,12.1-13.7,19.8-18.5l6.5-4l-4.9,6.6c-5.4,7.2-9.5,15.1-11.9,23.2c-1.2,3.7-2.1,7.7-2.8,12.6
				l-0.4,3.2c-0.1,0.6-0.1,1.2-0.1,2c0,0.5,0,0.8-0.1,1.2c-0.1,1.5-0.1,2.9-0.1,4.5c0,0.6,0,1.2,0,1.8s0,1.2,0.1,1.8
				c0,0.5,0,0.8,0.1,1.2c0,0.9,0.1,1.8,0.2,2.9l0.4,3.1l0.7,4.3l1,4.2l0.9,2.8l63.3-19.4l-15.8,80.2l3.9,1.8l3.3,1.2l3.4,0.9
				l2.3,0.5c0.9,0.2,1.7,0.3,2.3,0.3c0.4,0,0.6,0,1,0.2c0.5,0,1,0.2,1.5,0.2c0.4,0,0.9,0,1.4,0c1.2,0,2.3,0,3.6-0.2
				c0.4,0,0.6,0,1-0.2c0.5,0,1-0.2,1.6-0.2l2.6-0.5c3.9-0.9,7.1-2,10.1-3.5c6.5-3.1,12.8-8.2,18.7-14.9l5.3-6.2l-3.2,8.2
				c-3.8,9.7-8.7,18.2-14.8,24.8c-2.8,3.2-6.3,6.5-10.5,9.7l-2.8,2c-0.6,0.5-1.4,0.9-2.1,1.2c-0.4,0.2-0.6,0.3-1,0.6
				c-1.6,1.1-3.2,1.8-4.8,2.6l-1.4,0.6c-0.7,0.3-1.6,0.6-2.3,0.9l-1,0.5c-0.9,0.3-2.1,0.8-3.4,1.2l-3.3,0.9l-5.2,1.1l-5.3,0.6
				l-8,0.2L106.6,765.8z M18.6,762.4h85.8l6.9-35.2l10-0.2l5-0.6l5-1.1l3.2-0.9c1.1-0.3,2.2-0.8,3.2-1.1l1-0.5
				c0.7-0.3,1.5-0.6,2.1-0.9l1.4-0.6c1.6-0.8,3.2-1.5,4.6-2.5c0.4-0.2,0.7-0.5,1-0.6c0.6-0.3,1.2-0.8,1.8-1.2l2.8-2
				c4.1-3.1,7.3-6.2,10-9.2l0,0c4.1-4.5,7.6-9.8,10.7-15.9c-4.4,4.2-9.1,7.4-13.9,9.7c-3,1.5-6.4,2.8-10.6,3.7l-2.7,0.5
				c-0.6,0.2-1.2,0.2-1.8,0.2c-0.2,0-0.6,0-0.9,0.2c-1.2,0.2-2.6,0.2-3.8,0.2c-0.5,0-1,0-1.4,0c-0.6,0-1.2,0-1.7-0.2
				c-0.2,0-0.6,0-0.9-0.2c-0.7,0-1.7-0.2-2.6-0.3l-2.5-0.5l-3.7-0.9l-3.6-1.4l-6.3-2.9l15.3-77.7L70.8,639l-1.7-5.7l-1.1-4.5
				l-0.9-4.6l-0.4-3.2c-0.1-1.1-0.2-2.3-0.2-3.2c0-0.3,0-0.8-0.1-1.1c0-0.6-0.1-1.4-0.1-2.2c0-0.6,0-1.2,0-1.8c0-1.5,0-3.2,0.1-4.8
				c0-0.3,0-0.8,0.1-1.1c0-0.8,0.1-1.5,0.1-2.3l0.4-3.2c0.7-5.4,1.7-9.5,3-13.4c1.8-6,4.4-11.8,7.8-17.4c-4.8,3.8-9.1,8.3-12.7,13.4
				c-2.6,3.4-4.9,7.5-7.5,12.6l-1.6,3.5c-0.4,0.8-0.6,1.5-1,2.3c-0.1,0.5-0.4,0.9-0.5,1.2c-0.7,1.8-1.4,3.7-2,5.8l-0.5,1.7
				c-0.2,0.8-0.5,1.7-0.7,2.6l-0.4,1.2c-0.2,1.1-0.6,2.5-0.9,3.8l-0.7,4.2l-0.9,6.3l-0.5,6.5l-0.1,10l-29.2,9.5
				C18.6,655.3,18.6,762.4,18.6,762.4z"/>
		</g>
	</g>
</g>
<g>
	<g>
		<g>
			<path class="st15" d="M682.6,754.7c10.8-9.4,25.1-13.7,39.2-11.9c25.5,3.3,66.6,8,87.4,7l79.8-3.6c75.1-3.4,150.4-3.6,225.5-0.7
				l225.2,8.7l-4.9-77.4l-44.4-17.3l42.3-16.5l-9.2-146.5c-5.4-85.6-5.1-171.4,0.7-257l15.5-227.1l-63.8,2.2l-4.9,20.8l-15.6-20.1
				l-154.5,5.2c-69.6,2.4-139.2,2.1-208.8-0.7l-154.4-6.2c-17.9-0.7-35.2,6.7-47.1,20.1l-5.4,6.1l-3.3,714.4
				C681.9,754.8,682.3,755,682.6,754.7L682.6,754.7z"/>
			<path class="st16" d="M741.4,452.3l-8.1,193c-1,24.1-5.3,48-12.6,71.2v0l14.3,2.8c28.9,5.7,58.5,7.9,88,6.6l74.5-3.3
				c70.2-3.1,140.5-3.3,210.7-0.6l210.4,8.1l-3.8-52.2l-39-18.2l37.8-17.8l-10.1-152.6c-5-80-4.8-160.2,0.6-240.1L1318.7,37
				l-38.3,1.5l-8.8,6.1l-8.6-5.5l-167.4,5.4c-65,2.2-130.1,2-195.1-0.6L729.7,37l7.7,164.1l20,4.9l-19.8,13.4l3.7,72.8
				c0,0.9,0.2-0.9,0.3,7.6l23.6,10.4l-23.5,11.1C742.1,356.6,742.8,419.6,741.4,452.3z"/>
			<path class="st17" d="M1086,69.9c-56.6,2.1-113.3,1.9-169.8-0.6l-113.8-5c-16.8-0.7-30.8,11.7-30.2,26.8l8.7,207.9
				c0.2,4.2,1.8,107.9,0.2,148.1l-7,178.5c-0.9,22.3-4.5,44.4-10.8,65.8v0l12.3,2.6c24.8,5.3,50.2,7.3,75.5,6.1l62.5-3
				c61.1-2.9,122.4-3.1,183.5-0.6l147.2,6.1c17,0.7,31-11.9,30.1-27.2l-11.2-192.8c-4.4-74.9-4.2-150,0.6-224.9l10.5-166.4
				c1-15.3-12.9-27.9-29.9-27.3L1086,69.9z"/>
			<path class="st18" d="M1075.8,106.1c-47.8,1.8-95.6,1.7-143.4-0.5l-90.5-4.1c-16.9-0.8-30.8,11.6-30.2,26.8l7.2,180.6
				c0.1,3.7,1.5,95.5,0.2,131l-5.9,158c-0.7,19.7-3.8,39.3-9.1,58.2v0l10.3,2.3c20.8,4.6,42.2,6.5,63.5,5.4l52.2-2.6
				c51.6-2.6,103.4-2.8,155-0.5l118.5,5.2c17,0.7,31-11.8,30.1-27.1l-9.2-167.2c-3.7-66.3-3.5-132.8,0.5-199.2l8.6-143.9
				c0.9-15.2-13-27.9-30-27.2L1075.8,106.1z"/>
		</g>
		<g class="st19">
			<path class="st7" d="M748.4,702.3l-0.6,12l13.4-0.5L748.4,702.3z M749.8,705.6l7.8,7l-8.1,0.3L749.8,705.6z"/>
			<g>
				<path class="st7" d="M1304,664.1v46.5l-3.2-4.2v-43.5l-1.6-0.6v37.6l-20.2,17.3h-3l-509-1.9l-20.2-17.4l6.7-244.4
					c0.9-32.7-0.1-65.3-2.9-97.9l-3.9-44.9l-1.6,0.4l3.8,44.5c2.8,32.5,3.8,65.1,2.9,97.7l-6.8,251l-3.2,4.3l6.8-255.1
					c0.9-32.8-0.1-65.5-3-98.2L742,312l-1.6,0.4l3.8,42.8c2.9,32.7,3.9,65.6,3,98.4l-6.8,257.1l-3.7,4.9l0.1,0.1
					c-0.1,0.2-0.2,0.4-0.2,0.6v2.6h-5.3l-1.9,12l13.4-1.7v-4.5h2.9c0.3,0,0.6-0.1,0.8-0.3l5.3-3.2l522.6,2v0h19.7l5.3,3.2
					c0.2,0.2,0.5,0.3,0.8,0.3h2.9v4.5l13.4,1.7l-1.9-12h-5.3v-2.6c0-0.2-0.1-0.4-0.2-0.6l0.1-0.1l-3.7-4.9v-48L1304,664.1z
					 M738.9,715.2l6.3-8.4l0,8.4H738.9z M746.8,715.2l0-15.4l18,15.5L746.8,715.2z M1299.2,701.9v15.4h-17.9L1299.2,701.9z
					 M736.6,724.5h4.6v3.3l-10,1.3l1.4-9h3.9V724.5z M738.2,720.2h3.1v3h-3.1V720.2z M742.8,723.1v-4.4h-4.6v-2.1h7v6.5H742.8z
					 M746.8,722.3v-5.7l9.3,0L746.8,722.3z M1313.2,722.2l1.4,9l-10-1.3v-3.3h4.6v-4.4H1313.2z M1307.8,722.2v3h-3.1v-3H1307.8z
					 M1307.8,718.7v2.1h-4.6v4.4h-2.4v-6.5H1307.8z M1299.2,718.7v5.7l-9.4-5.7H1299.2z M1274.4,718.7L1274.4,718.7l12.6,0l4.8,2.9
					H1276l-521.9-2l4.7-2.9L1274.4,718.7z M1307.1,717.3h-6.3v-8.4L1307.1,717.3z"/>
				<path class="st7" d="M751.8,42l-5.3-3.2c-0.2-0.2-0.5-0.3-0.8-0.3h-2.9v-4.5l-13.4-1.7l1.9,12h5.3v2.6c0,0.2,0.1,0.4,0.2,0.6
					l-0.1,0.1l3.7,4.9V71h0.1l0,236l1.6,0.5l0-237.9H742V54.4l3.2,4.2V71h0.1l0,237.5l1.6,0.5l0-239.5h-0.1v-4.5l20.1-17.3
					l203.3,7.6c36.9,1.4,73.8,1.5,110.7,0.3l193.6-6v0h4.6l20.2,17.3v4.5V73l-11.6,275.3c-0.8,20.1-0.8,40.2,0.1,60.3l11.5,248.6
					l1.6-0.6l-11.5-248c-0.9-20.1-1-40.3-0.1-60.4L1300.8,73v-1.5v-11l3.2-4.2v15.2V73l-11.6,275.2c-0.9,20.2-0.8,40.3,0.1,60.5
					l11.5,246.7l1.6-0.6L1294,408.8c-0.9-20.2-1-40.4-0.1-60.6L1305.5,73v-1.5V54.3l3.7-4.9l-0.1-0.1c0.1-0.2,0.2-0.4,0.2-0.6v-2.6
					h5.3l1.9-12l-13.4,1.7v4.5h-2.9c-0.3,0-0.6,0.1-0.8,0.3l-5.3,3.2H1276l-197.1,6.1c-35.7,1.1-71.5,1-107.3-0.3L751.8,42z
					 M1307.1,49.8l-6.3,8.4v-8.4H1307.1z M1299.2,49.8v15.4l-17.9-15.4H1299.2z M732.7,42.8l-1.4-9l10,1.3v3.3h-4.6v4.4H732.7z
					 M738.2,42.8v-3h3.1v3H738.2z M738.2,46.3v-2.1h4.6v-4.4h2.4v6.5H738.2z M746.8,46.3v-5.7l9.4,5.7L746.8,46.3z M738.9,47.7h6.3
					v8.4L738.9,47.7z M746.8,63.1V47.7l17.8,0.1L746.8,63.1z M1309.3,40.5h-4.6v-3.3l10-1.3l-1.4,9h-3.9V40.5z M1307.8,44.8h-3.1v-3
					h3.1V44.8z M1303.1,41.9v4.4h4.6v2.1h-7v-6.5H1303.1z M1299.2,42.6v5.7h-9.4L1299.2,42.6z M1274.4,45.4L1274.4,45.4l17.4,0
					l-4.8,2.9h-11l-196.3,6.1c-36.2,1.1-72.5,1-108.7-0.3l-212-7.7l-4.9-2.9l216.5,7.8c36,1.3,72.1,1.4,108.1,0.3L1274.4,45.4z"/>
			</g>
			<path class="st7" d="M761.2,49.1l-13.4-0.5l0.6,12L761.2,49.1z M757.6,50.4l-7.8,7l-0.3-7.3L757.6,50.4z"/>
			<path class="st7" d="M1284.7,715.9l13.4,0.5l-0.6-12L1284.7,715.9z M1288.3,714.6l7.8-7l0.3,7.3L1288.3,714.6z"/>
			<path class="st7" d="M1297.6,62.7l0.6-12l-13.4,0.5L1297.6,62.7z M1296.1,59.4l-7.8-7l8.1-0.3L1296.1,59.4z"/>
		</g>
	</g>
	<g>
		<g>
			<path class="st15" d="M683.4,754.7c-10.8-9.4-25.1-13.7-39.2-11.9c-25.5,3.3-66.6,8-87.4,7l-79.8-3.6
				c-75.1-3.4-150.4-3.6-225.5-0.7l-225.2,8.7l4.9-77.4l44.4-17.3l-42.3-16.5l9.2-146.5c5.4-85.6,5.1-171.4-0.7-257L26.3,12.7
				l63.8,2.2L95,35.7l15.6-20.1l154.5,5.2c69.6,2.4,139.2,2.1,208.8-0.7l154.5-6.2c17.9-0.7,35.2,6.7,47.1,20.1l5.4,6.1l3.3,714.4
				C684.1,754.8,683.7,755,683.4,754.7L683.4,754.7z"/>
			<path class="st16" d="M624.6,452.3l8.1,193c1,24.1,5.3,48,12.6,71.2v0l-14.3,2.8c-28.9,5.7-58.5,7.9-88,6.6l-74.5-3.3
				c-70.2-3.1-140.5-3.3-210.7-0.6L47.3,730l3.8-52.2l39-18.2l-37.8-17.8l10.1-152.6c5-80,4.8-160.2-0.6-240.1L47.3,37l38.3,1.5
				l8.8,6.1l8.6-5.5l167.4,5.4c65,2.2,130.1,2,195.1-0.6L636.3,37L628.6,201l-20,4.9l19.8,13.4l-3.7,72.8c0,0.9-0.2-0.9-0.3,7.6
				L601,310.1l23.5,11.1C623.9,356.6,623.2,419.6,624.6,452.3z"/>
			<path class="st17" d="M280,69.9c56.6,2.1,113.3,1.9,169.8-0.6l113.8-5c16.8-0.7,30.8,11.7,30.2,26.8L585.1,299
				c-0.2,4.2-1.8,107.9-0.2,148.1l7,178.5c0.9,22.3,4.5,44.4,10.8,65.8v0l-12.3,2.6c-24.8,5.3-50.2,7.3-75.5,6.1l-62.5-3
				c-61.1-2.9-122.4-3.1-183.5-0.6l-147.2,6.1c-17,0.7-31-11.9-30.1-27.2l11.2-192.8c4.4-74.9,4.2-150-0.6-224.9L91.8,91.5
				c-1-15.3,12.9-27.9,29.9-27.3L280,69.9z"/>
			<path class="st18" d="M290.2,106.1c47.8,1.8,95.6,1.7,143.4-0.5l90.5-4.1c16.9-0.8,30.8,11.6,30.2,26.8l-7.2,180.6
				c-0.1,3.7-1.5,95.5-0.2,131l5.9,158c0.7,19.7,3.8,39.3,9.1,58.2v0l-10.3,2.3c-20.8,4.6-42.2,6.5-63.5,5.4l-52.2-2.6
				c-51.6-2.6-103.4-2.8-155-0.5l-118.5,5.2c-17,0.7-31-11.8-30.1-27.1l9.2-167.2c3.7-66.3,3.5-132.8-0.5-199.2l-8.6-143.9
				c-0.9-15.2,13-27.9,30-27.2L290.2,106.1z"/>
		</g>
		<g class="st19">
			<path class="st7" d="M604.8,713.9l13.4,0.5l-0.6-12L604.8,713.9z M616.5,712.9l-8.1-0.3l7.8-7L616.5,712.9z"/>
			<g>
				<path class="st7" d="M60.5,664.7v48l-3.7,4.9l0.1,0.1c-0.1,0.2-0.2,0.4-0.2,0.6v2.6h-5.3l-1.9,12l13.4-1.7v-4.5h2.9
					c0.3,0,0.6-0.1,0.8-0.3l5.3-3.2h19.7v0l522.6-2l5.3,3.2c0.2,0.2,0.5,0.3,0.8,0.3h2.9v4.5l13.4,1.7l-1.9-12h-5.3v-2.6
					c0-0.2-0.1-0.4-0.2-0.6l0.1-0.1l-3.7-4.9l-6.8-257.1c-0.9-32.8,0.1-65.7,3-98.4l3.8-42.8L624,312l-3.8,43.3
					c-2.9,32.7-3.8,65.5-3,98.2l6.8,255.1l-3.2-4.3l-6.8-251c-0.9-32.6,0.1-65.2,2.9-97.7l3.8-44.5l-1.6-0.4l-3.9,44.9
					c-2.8,32.6-3.8,65.3-2.9,97.9l6.7,244.4L599,715.3l-509,1.9h-3l-20.2-17.3v-37.6l-1.6,0.6v43.5l-3.2,4.2v-46.5L60.5,664.7z
					 M620.8,715.2l0-8.4l6.3,8.4H620.8z M601.3,715.3l18-15.5l0,15.4L601.3,715.3z M84.7,717.3H66.8v-15.4L84.7,717.3z M629.4,720.2
					h3.9l1.4,9l-10-1.3v-3.3h4.6V720.2z M627.8,723.1h-3.1v-3h3.1V723.1z M620.8,723.1v-6.5h7v2.1h-4.6v4.4H620.8z M609.9,716.7
					l9.3,0v5.7L609.9,716.7z M56.7,722.2v4.4h4.6v3.3l-10,1.3l1.4-9H56.7z M61.3,722.2v3h-3.1v-3H61.3z M65.2,718.7v6.5h-2.4v-4.4
					h-4.6v-2.1H65.2z M76.2,718.7l-9.4,5.7v-5.7H76.2z M607.1,716.7l4.7,2.9l-521.9,2H74.2l4.8-2.9h12.6v0L607.1,716.7z M65.2,708.9
					v8.4h-6.3L65.2,708.9z"/>
				<path class="st7" d="M394.4,49.8c-35.7,1.3-71.5,1.4-107.3,0.3L90,44H71.9l-5.3-3.2c-0.2-0.2-0.5-0.3-0.8-0.3h-2.9v-4.5
					l-13.4-1.7l1.9,12h5.3v2.6c0,0.2,0.1,0.4,0.2,0.6l-0.1,0.1l3.7,4.9v17.3V73l11.6,275.2c0.9,20.2,0.8,40.4-0.1,60.6L60.5,654.9
					l1.6,0.6l11.5-246.7c0.9-20.2,1-40.3,0.1-60.5L62,73v-1.5V56.4l3.2,4.2v11V73l11.6,275.3c0.9,20.1,0.8,40.3-0.1,60.4l-11.5,248
					l1.6,0.6l11.5-248.6c0.9-20.1,1-40.2,0.1-60.3L66.8,73v-1.5v-4.5L87,49.8h4.6v0l193.6,6c36.9,1.1,73.8,1,110.7-0.3l203.3-7.6
					l20.1,17.3v4.5h-0.1l0,239.5l1.6-0.5l0-237.5h0.1V58.6l3.2-4.2v15.2h-0.1l0,237.9l1.6-0.5l0-236h0.1V52.3l3.7-4.9l-0.1-0.1
					c0.1-0.2,0.2-0.4,0.2-0.6v-2.6h5.3l1.9-12l-13.4,1.7v4.5h-2.9c-0.3,0-0.6,0.1-0.8,0.3l-5.3,3.2L394.4,49.8z M65.2,49.8v8.4
					l-6.3-8.4H65.2z M84.7,49.8L66.8,65.2V49.8H84.7z M629.4,42.8v-4.4h-4.6v-3.3l10-1.3l-1.4,9H629.4z M624.7,42.8v-3h3.1v3H624.7z
					 M620.8,46.3v-6.5h2.4v4.4h4.6v2.1H620.8z M609.8,46.4l9.4-5.7v5.7L609.8,46.4z M620.8,56.1v-8.4h6.3L620.8,56.1z M601.4,47.8
					l17.8-0.1v15.4L601.4,47.8z M56.7,44.8h-3.9l-1.4-9l10,1.3v3.3h-4.6V44.8z M58.2,41.9h3.1v3h-3.1V41.9z M65.2,41.9v6.5h-7v-2.1
					h4.6v-4.4H65.2z M76.2,48.3h-9.4v-5.7L76.2,48.3z M287.2,51.5c36,1.1,72.1,1,108.1-0.3l216.5-7.8l-4.9,2.9l-212,7.7
					c-36.2,1.3-72.5,1.4-108.7,0.3L90,48.3H79l-4.8-2.9h17.4v0L287.2,51.5z"/>
			</g>
			<path class="st7" d="M617.6,60.6l0.6-12l-13.4,0.5L617.6,60.6z M616.5,50.1l-0.3,7.3l-7.8-7L616.5,50.1z"/>
			<path class="st7" d="M68.4,704.4l-0.6,12l13.4-0.5L68.4,704.4z M69.5,714.9l0.3-7.3l7.8,7L69.5,714.9z"/>
			<path class="st7" d="M81.3,51.1l-13.4-0.5l0.6,12L81.3,51.1z M69.5,52.1l8.1,0.3l-7.8,7L69.5,52.1z"/>
		</g>
	</g>
</g>
</svg>
