<?xml version="1.0" encoding="utf-8"?>
<!-- Generator: Adobe Illustrator 24.2.1, SVG Export Plug-In . SVG Version: 6.00 Build 0)  -->
<svg version="1.1" id="Lag_1" xmlns="http://www.w3.org/2000/svg" xmlns:xlink="http://www.w3.org/1999/xlink" x="0px" y="0px"
	 viewBox="0 0 365 423" style="enable-background:new 0 0 365 423;" xml:space="preserve">
<style type="text/css">
	.st0{fill:#DBC3A9;stroke:#110B09;stroke-width:2;stroke-miterlimit:10;}
	.st1{fill:#E0C7B1;}
	.st2{opacity:0.58;fill:#E5D2C1;}
	.st3{opacity:0.58;fill:#EDDACC;}
	.st4{fill:none;stroke:#110B09;stroke-width:2;stroke-miterlimit:10;}
	.st5{opacity:0.1;}
	.st6{fill:#110B09;}
</style>
<g>
	<g>
		<path class="st0" d="M352.2,296.6l-20.7-1.6l20.3-11.5c-0.5-29.3,0.4-58.7,2.7-88l1.8-22.8l4.4-148.9l-143.3,4.6
			c-19.1,0.6-38.2,0.2-57.3-1.1L53.6,19.8C43.3,19.5,33,20,22.7,21.4L4.3,23.7l4.7,56.4c0.7,8.8,1.3,17.6,1.7,26.3l9.7,5.8l-9.3,6.1
			c0.3,10.9,0.3,21.8,0,32.8L4.3,411.7l36.6,2.7l11.5-23.5l3.6,24.6c34.5,2.6,69.2,3.3,103.8,2.3l200.9-6.1l-5.3-61.2
			C353.7,332.6,352.7,314.6,352.2,296.6z"/>
		<path class="st1" d="M338.4,295.6l-6.9-0.5l6.7-3.8c-1-31.3-0.3-62.6,2.1-93.8l1.6-21l4-136.7L214.5,44c-17.5,0.6-35.1,0.2-52.6-1
			l-97.7-6.8c-9.5-0.3-19,0.2-28.4,1.4L19,39.8l4.3,51.8c1.8,21.7,2.4,43.5,1.9,65.2L19,395.9l30,2.2l3.5-7.2l1.1,7.5l12.7,0.9
			c31.7,2.4,63.6,3.1,95.4,2.1l184.4-5.6l-4.9-56.2C339.8,325,338.9,310.3,338.4,295.6z"/>
		<path class="st2" d="M50.5,379.4l26.5,2c29.1,2.2,58.4,2.8,87.6,1.9l148.3-4.5c9.2-0.3,16.3-8.2,15.5-17.4l-2.8-32.4
			c-3.8-43.5-4-87.2-0.7-130.7l1.3-17.6l3.1-106.1c0.3-9.2-7.3-16.8-16.5-16.5l-100.6,3.2c-16.3,0.5-32.7,0.2-49-0.9L76,54.3
			c-8.5-0.2-17.1,0.2-25.6,1.3h0c-8.5,1.1-14.6,8.7-13.9,17.2l2.6,30.5c1.7,20.1,2.3,40.3,1.7,60.5L35.6,363
			C35.4,371.6,41.9,378.8,50.5,379.4z"/>
		<path class="st3" d="M68.8,357.1l22.9,1.7c25.1,1.9,50.3,2.4,75.4,1.7l127.7-3.9c7.9-0.2,14-7.1,13.3-15l-2.4-27.9
			c-3.3-37.4-3.5-75.1-0.6-112.6l1.2-15.1l2.7-91.3c0.2-7.9-6.3-14.4-14.2-14.2L208,83.3c-14.1,0.4-28.1,0.2-42.2-0.8l-75-5.3
			c-7.4-0.2-14.7,0.2-22,1.1h0c-7.3,1-12.6,7.5-12,14.8l2.2,26.3c1.5,17.3,2,34.7,1.5,52.1L56,343C55.8,350.4,61.5,356.6,68.8,357.1
			z"/>
		<path class="st4" d="M352.2,296.6l-20.7-1.6l20.3-11.5c-0.5-29.3,0.4-58.7,2.7-88l1.8-22.8l4.4-148.9l-143.3,4.6
			c-19.1,0.6-38.2,0.2-57.3-1.1L53.6,19.8C43.3,19.5,33,20,22.7,21.4L4.3,23.7l4.7,56.4c0.7,8.8,1.3,17.6,1.7,26.3l9.7,5.8l-9.3,6.1
			c0.3,10.9,0.3,21.8,0,32.8L4.3,411.7l36.6,2.7l11.5-23.5l3.6,24.6c34.5,2.6,69.2,3.3,103.8,2.3l200.9-6.1l-5.3-61.2
			C353.7,332.6,352.7,314.6,352.2,296.6z"/>
	</g>
	<g class="st5">
		<path class="st6" d="M39,48l-8.3-0.3L31,56L39,48z M36.7,48.9l-4.8,4.9l-0.2-5.1L36.7,48.9z"/>
		<path class="st6" d="M345.2,401.7l-1.2-8.3h-3.1v-1.8c0-0.2-0.1-0.4-0.2-0.5l-2.2-3.3v-12.3h0l-4-74.2c-0.1-2-0.2-4-0.3-6.1
			l-1-0.1c0.1,2,0.2,4.1,0.3,6.1l4,75.2v9.8l-2-3v-7.8h0l-4-74.1c-0.5-10.1-0.7-20.3-0.6-30.4L334,54.6l2-2.9l-3.2,219.7
			c-0.1,7.6,0,15.3,0.3,22.9l1-0.5c-0.3-7.5-0.4-15-0.2-22.5L337,50.2l2.2-3.3c0.1-0.1,0.2-0.3,0.2-0.5v-1.8h3.1l1.2-8.3l-8.3,1.2
			v3.3h-1.8c-0.2,0-0.3,0.1-0.4,0.1l0-0.1l-3.4,2.3l-148.3,3.5L33.2,43.1l-3.4-2.3l0,0.1c-0.1-0.1-0.2-0.1-0.4-0.1h-1.8v-3.3
			l-8.3-1.2l1.2,8.3h3.1v1.8c0,0.2,0.1,0.4,0.2,0.5l2.2,3.3l-1.4,325.3h0v12.3l-2.2,3.3c-0.1,0.1-0.2,0.3-0.2,0.5v1.8h-3.1l-1.2,8.3
			l8.3-1.2v-3.3H28c0.2,0,0.3-0.1,0.4-0.1l0,0.1l3.4-2.3l18.3,1l0.5-1l-17.3-1l2.9-2l15.4,0.9l0.6-1.2l-11.5-0.7l-12-12.5v-1.9
			L30,59.6L42,47l139.5,3.5L321,47l12.1,12.6l-3.2,211.5c-0.2,10.1,0,20.2,0.6,30.3l4,75.1v1.9l-12,12.5l-187.3,3.9
			c-16.7,0.3-33.3,0-50-1.1l-32.5-2.1l0.2,1.2l33.6,2c15.8,0.9,31.6,1.3,47.4,0.9l193.1-3.9l2.9,2L133,397.8
			c-15.3,0.3-30.6,0-45.9-0.9l-34.1-2l0.2,1l34.3,1.9c15.1,0.8,30.1,1.1,45.2,0.8l198.5-4l3.4,2.3l0-0.1c0.1,0.1,0.2,0.1,0.4,0.1
			h1.8v3.3L345.2,401.7z M336.4,38.3l6.2-0.9l-0.9,6.2h-2.3v-2.9h-3V38.3z M336.4,41.7h2.1v1.9h-2.1V41.7z M334,41.7h1.5v2.9h3V46
			H334V41.7z M337.9,47l-3.9,5.8l0-5.8H337.9z M23.6,40.7v2.9h-2.3l-0.9-6.2l6.2,0.9v2.4H23.6z M26.6,41.7v1.9h-2.1v-1.9H26.6z
			 M25.2,399.7l-6.2,0.9l0.9-6.2h2.3v2.9h3V399.7z M25.2,396.2h-2.1v-1.9h2.1V396.2z M27.7,396.2h-1.5v-2.9h-3v-1.5h4.5V396.2z
			 M27.7,390.9h-3.9l3.9-5.8V390.9z M28.6,395.8v-3.9h5.8L28.6,395.8z M39.3,390.9H28.6v-11.1L39.3,390.9z M27.7,375.5L27.7,375.5
			l0,7.8l-2,3v-9.8L27,51.6l2,2.9L27.7,375.5z M29,52.8L25.1,47h3.9L29,52.8z M29.1,46h-4.5v-1.5h3v-2.9h1.5V46z M333,42.1V46
			l-5.8,0L333,42.1z M30,42.1l5.8,3.9L30,46V42.1z M30,58.2L30,47l10.7,0L30,58.2z M181.5,49.5L37.6,46l-2.9-2l146.9,3.5l146.9-3.5
			l-2.9,2L181.5,49.5z M322.3,47l10.7,0l0,11.2L322.3,47z M334.4,395.8l-5.8-3.9h5.8V395.8z M334.4,390.9h-10.7l10.7-11.1V390.9z
			 M340.8,397.2v-2.9h2.3l0.9,6.2l-6.2-0.9v-2.4H340.8z M337.8,396.2v-1.9h2.1v1.9H337.8z M335.4,385.1l3.9,5.8h-3.9V385.1z
			 M335.4,396.2v-4.3h4.5v1.5h-3v2.9H335.4z"/>
		<path class="st6" d="M29.6,381.9l-0.3,8.3l8.3-0.3L29.6,381.9z M30.5,384.2l4.8,4.9l-5.1,0.2L30.5,384.2z"/>
		<path class="st6" d="M332.1,56l0.3-8.3l-8.3,0.3L332.1,56z M331.4,48.7l-0.2,5.1l-4.8-4.9L331.4,48.7z"/>
		<path class="st6" d="M325.5,389.9l8.3,0.3l-0.3-8.3L325.5,389.9z M332.8,389.2l-5.1-0.2l4.8-4.9L332.8,389.2z"/>
	</g>
</g>
</svg>
