<?xml version="1.0" encoding="utf-8"?>
<!-- Generator: Adobe Illustrator 24.2.3, SVG Export Plug-In . SVG Version: 6.00 Build 0)  -->
<svg version="1.1" id="Lag_1" xmlns="http://www.w3.org/2000/svg" xmlns:xlink="http://www.w3.org/1999/xlink" x="0px" y="0px"
	 viewBox="0 0 505 100.3" style="enable-background:new 0 0 505 100.3;" xml:space="preserve">
<style type="text/css">
	.st0{fill:#DBC3A9;stroke:#110B09;stroke-width:2;stroke-miterlimit:10;}
	.st1{opacity:0.61;fill:#EAD4BE;enable-background:new    ;}
	.st2{fill:#C6B29E;}
	.st3{fill:none;stroke:#110B09;stroke-width:2;stroke-miterlimit:10;}
	.st4{fill:#D8AC7C;stroke:#110B09;stroke-width:2;stroke-miterlimit:10;}
	.st5{fill:#B79574;stroke:#110B09;stroke-width:2;stroke-miterlimit:10;}
	.st6{fill:#EFCBA8;stroke:#110B09;stroke-width:2;stroke-miterlimit:10;}
</style>
<g>
	<path class="st0" d="M444,90.7H264L252.2,96l-10.4-5.3H61.6l0,0C64.8,76,65,60.5,62,45.8l-0.5-2.4H444l-0.5,2.4
		C440.6,60.5,440.7,76,444,90.7L444,90.7z"/>
	<path class="st1" d="M436.8,75.5h-368l0,0c3.1-5.9,3.3-12.1,0.5-18l-0.5-0.9h368l-0.5,0.9C433.5,63.4,433.7,69.6,436.8,75.5
		L436.8,75.5z"/>
	<path class="st2" d="M442.2,83.1c0.4,2.6,1,5.3,1.8,7.9l0,0H264L252.2,95L241.8,91H61.6l0,0c0.7-2.2,1.2-4.6,1.6-6.8l178.3-0.5
		l10.8,5l11.6-5L442.2,83.1z"/>
	<path class="st2" d="M62.8,50.2c-0.2-1.4-0.5-3-0.8-4.5l-0.5-2.4H444l-0.5,2.4c-0.3,1.4-0.6,3-0.8,4.5"/>
	<path class="st3" d="M444,90.7H264L252.2,96l-10.4-5.3H61.6l0,0C64.8,76,65,60.5,62,45.8l-0.5-2.4H444l-0.5,2.4
		C440.6,60.5,440.7,76,444,90.7L444,90.7z"/>
	<g>
		<path class="st4" d="M255.2,45.8h185.2L462.8,57l14.6-10.9l9.5,3.1l-4.1,2.1l-6-2.5l-1.9,4.6l8.2,3.4l16.8-8.7l-23.3-7.7L462.4,51
			l-3-1.5l10.8-9.2l-3.2-3.8l-12.4,10.6l-12.9-6.4H264.1c-1.6,0-2.7-1.5-2.3-3l0,0c1.7-6.6,6.9-11.7,13.6-13.4l-1.2-4.8
			c-4.6,1.1-8.6,3.6-11.7,7c1.9-4.6,10.8-10.2,15.7-11.7L275.7,8c-3.3,1-10.2,6.8-12.6,9.1c-3.4-3.1-10.8-13-10.8-13
			s-7.4,9.9-10.8,13c-2.4-2.3-9.3-8-12.6-9.1l-2.5,6.8c4.9,1.5,13.8,7.2,15.7,11.7c-3.1-3.4-7.1-5.8-11.7-7l-1.2,4.8
			c6.6,1.7,11.8,6.8,13.6,13.4l0,0c0.4,1.5-0.7,3-2.3,3H62.8L50,47.2L37.6,36.7l-3.2,3.8l10.8,9.2l-3,1.5L28,40.5L4.7,48.2l16.8,8.7
			l8.2-3.4l-1.9-4.6l-6,2.5l-4.1-2.1l9.5-3.1L41.6,57L64,45.8h185.2H255.2z"/>
		<path class="st5" d="M253,40.8c1.5,0,2.7-1.2,2.8-2.7l0.2-5.8c0.2-4.1,1.5-8.1,3.7-11.4c-3-2.7-5.6-5.9-7.6-9.4
			c-2,3.5-4.6,6.7-7.6,9.4c2.2,3.3,3.6,7.2,3.7,11.4l0.2,5.8c0.1,1.5,1.3,2.7,2.8,2.7H253z"/>
		<path class="st6" d="M254.1,27.2c0.1-2.1,0.8-4,1.8-5.6c-1.5-1.3-2.7-2.9-3.8-4.7c-1,1.7-2.3,3.3-3.8,4.7c0.1,0.1,0.1,0.2,0.2,0.3
			c1,1.6,1.6,3.4,1.7,5.4l1.9,4.2L254.1,27.2z"/>
	</g>
	<path class="st4" d="M477,93.4l23.3-7.7L483.5,77l-8.2,3.4l1.9,4.6l6-2.5l4.1,2.1l-9.5,3.1l-14.6-10.9L441,88.1H262.8l-10,4l-9.9-4
		H64.6L42.2,76.9l-14.5,11l-9.5-3.1l4.1-2.1l6,2.5l1.9-4.6L22,77.2L5.3,85.8l23.3,7.7l14.2-10.6l3,1.5L35,93.6l3.2,3.8l12.4-10.6
		l12.9,6.4H241c0.7,0,1.3,0.3,1.7,0.7l10.2,4l10.2-4c0.4-0.4,1-0.7,1.7-0.7h177.5l12.9-6.4l12.4,10.6l3.2-3.8L460,84.4l3-1.5
		L477,93.4z"/>
</g>
</svg>
