<?xml version="1.0" encoding="utf-8"?>
<!-- Generator: Adobe Illustrator 24.2.1, SVG Export Plug-In . SVG Version: 6.00 Build 0)  -->
<svg version="1.1" id="Lag_1" xmlns="http://www.w3.org/2000/svg" xmlns:xlink="http://www.w3.org/1999/xlink" x="0px" y="0px"
	 viewBox="0 0 189 50" style="enable-background:new 0 0 189 50;" xml:space="preserve">
<style type="text/css">
	.st0{fill:#8DAF8B;stroke:#110B09;stroke-width:2;stroke-miterlimit:10;}
	.st1{opacity:0.34;fill:none;stroke:#110B09;stroke-width:2;stroke-miterlimit:10;}
</style>
<g>
	<path class="st0" d="M184.7,5L137,7c-28.3,1.1-56.7,1.1-85,0L4.3,5L15.2,14c5.1,4.2,5.1,10.2,0,14.4L4.3,37.3l37.1,1.9
		c35.4,1.8,70.9,1.8,106.2,0l37.1-1.9l-11.3-8.7c-5.5-4.3-5.5-10.7,0-14.9L184.7,5z"/>
	<path class="st0" d="M157.9,47.6L157.9,47.6c-42.9-5.5-86.3-5.5-129.2,0l0,0l-0.6-4c-2-12.3-1.7-24.8,0.6-37l0,0l0,0
		c42.9-5.5,86.3-5.5,129.2,0l0,0v0c2.4,12.2,2.6,24.7,0.6,37L157.9,47.6z"/>
	<path class="st1" d="M154.7,42.6L154.7,42.6c-40.8-4.3-82.1-4.3-122.9,0l0,0l-0.6-3.1c-1.9-9.6-1.7-19.4,0.6-28.9l0,0l0,0
		c40.8-4.3,82.1-4.3,122.9,0l0,0v0c2.3,9.5,2.5,19.3,0.6,28.9L154.7,42.6z"/>
</g>
</svg>
