<?xml version="1.0" encoding="utf-8"?>
<!-- Generator: Adobe Illustrator 24.3.0, SVG Export Plug-In . SVG Version: 6.00 Build 0)  -->
<svg version="1.1" id="Lag_1" xmlns="http://www.w3.org/2000/svg" xmlns:xlink="http://www.w3.org/1999/xlink" x="0px" y="0px"
	 viewBox="0 0 1018.2 420.4" style="enable-background:new 0 0 1018.2 420.4;" xml:space="preserve">
<style type="text/css">
	.st0{display:none;fill:#D3BA88;stroke:#110B09;stroke-width:2;stroke-miterlimit:10;}
	.st1{display:none;fill:#C1AA81;}
	.st2{fill:#B7A697;}
	.st3{fill:#BFAEA1;}
	.st4{opacity:0.58;fill:#C9B8AB;enable-background:new    ;}
	.st5{opacity:0.58;fill:#D1C2B8;enable-background:new    ;}
	.st6{opacity:0.1;}
	.st7{fill:#110B09;}
</style>
<g>
	<path class="st0" d="M1006.9,433.2H11.2c-12.4,0-22.5-10.1-22.5-22.5V9.7c0-12.4,10.1-22.5,22.5-22.5H1007
		c12.4,0,22.5,10.1,22.5,22.5v401C1029.4,423.1,1019.3,433.2,1006.9,433.2z"/>
	<path class="st1" d="M1000.3,426H17.8c-12.1,0-22-9.8-22-22V16.2c0-12.1,9.8-22,22-22h982.5c12.1,0,22,9.8,22,22v387.8
		C1022.3,416.2,1012.4,426,1000.3,426z"/>
	<path class="st2" d="M996.6,420.4h-975C9.7,420.4,0,410.7,0,398.9V21.5C0,9.7,9.6,0,21.5,0h975.1c11.9,0,21.5,9.7,21.5,21.5v377.2
		C1018.1,410.7,1008.5,420.4,996.6,420.4z"/>
	<path class="st3" d="M987.3,408H30.8c-11.4,0-20.7-9.3-20.7-20.7V33.1c0-11.4,9.3-20.7,20.7-20.7h956.4c11.4,0,20.7,9.3,20.7,20.7
		v354.2C1008,398.8,998.7,408,987.3,408z"/>
	<path class="st4" d="M979.9,396.6H38.2c-11,0-19.9-8.9-19.9-19.9V43.8c0-11,8.9-19.9,19.9-19.9h941.7c11,0,19.9,8.9,19.9,19.9
		v332.8C999.8,387.6,991,396.6,979.9,396.6z"/>
	<path class="st5" d="M966,377H52.1c-10.2,0-18.5-8.3-18.5-18.5V61.9c0-10.2,8.3-18.5,18.5-18.5H966c10.2,0,18.5,8.3,18.5,18.5
		v296.6C984.5,368.7,976.3,377,966,377z"/>
	<g class="st6">
		<path class="st7" d="M46.1,40.2l-12.4-0.5L34.2,52L46.1,40.2z M42.8,41.5l-7.2,7.2l-0.3-7.5L42.8,41.5z"/>
		<path class="st7" d="M34.2,368.5l-0.5,12.4l12.4-0.5L34.2,368.5z M35.3,379.4l0.3-7.5l7.2,7.2L35.3,379.4z"/>
		<path class="st7" d="M982.5,52l0.5-12.4l-12.4,0.5L982.5,52z M981.5,41.2l-0.3,7.5l-7.2-7.2L981.5,41.2z"/>
		<path class="st7" d="M970.7,380.3l12.4,0.5l-0.5-12.4L970.7,380.3z M974,379.1l7.2-7.2l0.3,7.5L974,379.1z"/>
		<path class="st7" d="M993.5,385.5v-2.7c0-0.3-0.1-0.5-0.3-0.7l-3.3-4.9V43.4l3.3-4.9c0.2-0.2,0.3-0.4,0.3-0.7v-2.7h4.7l1.8-12.4
			l-12.4,1.8v4.9h-2.7c-0.2,0-0.4,0.1-0.6,0.2l-0.1-0.1l-5,3.4H141.2h-7.8H37.6l-5.1-3.4v0.1c-0.2-0.1-0.3-0.2-0.6-0.2h-2.7v-4.9
			l-12.3-1.8l1.8,12.4h4.7v2.7c0,0.3,0.1,0.5,0.3,0.7l3.3,4.9v333.8l-3.3,4.9c-0.2,0.2-0.3,0.4-0.3,0.7v2.7h-4.7l-1.8,12.4l12.4-1.8
			v-4.9h2.7c0.2,0,0.4-0.1,0.6-0.2l0.1,0.1l5-3.4h95.8l0,0h845.8l5,3.4l0.1-0.1c0.2,0.1,0.3,0.2,0.6,0.2h2.7v4.9l12.4,1.8l-1.8-12.4
			L993.5,385.5L993.5,385.5z M23.2,29.3v4.3h-3.4l-1.4-9.3l9.3,1.4v3.6H23.2z M27.8,30.7v2.8h-3v-2.8H27.8z M27.8,394.9l-9.3,1.4
			l1.4-9.3h3.4v4.3h4.5C27.8,391.3,27.8,394.9,27.8,394.9z M27.8,389.8h-3V387h3V389.8z M31.4,389.8h-2.2v-4.3h-4.5v-2.2h6.7V389.8z
			 M25.5,381.9l5.8-8.6v8.6H25.5z M28.4,375.1V45.5l2.9,4.4v320.8L28.4,375.1z M31.3,47.3l-5.8-8.6h5.9L31.3,47.3z M31.4,37.3h-6.7
			v-2.2h4.5v-4.3h2.2V37.3z M983.9,31.4v5.8h-8.6L983.9,31.4z M984,55.3l-15.9-16.6h15.8L984,55.3z M133.4,34.2h7.8h835.9l-4.4,2.9
			H141.3h-7.9H44l-4.4-2.9H133.4z M32.9,31.4l8.6,5.8h-8.6C32.9,37.3,32.9,31.4,32.9,31.4z M32.9,38.7h15.8L32.8,55.4L32.9,38.7z
			 M32.9,389.2v-5.8h8.6L32.9,389.2z M32.8,365.2l15.9,16.6H32.9L32.8,365.2z M141.2,386.3L141.2,386.3H39.6l4.4-2.9h89.4l0,0h839.3
			l4.4,2.9H141.2z M983.9,389.2l-8.6-5.8h8.6V389.2z M983.9,381.9h-15.8l15.9-16.6L983.9,381.9z M984,363.2l-17.9,18.7H141.2l0,0
			H50.7l-17.9-18.7V57.4l17.9-18.7h82.7h7.8h824.9L984,57.4V363.2z M989,25.7l9.3-1.4l-1.4,9.3h-3.4v-4.3H989L989,25.7L989,25.7z
			 M989,30.7h3v2.8h-3V30.7z M985.3,30.7h2.2V35h4.5v2.2h-6.7L985.3,30.7L985.3,30.7z M991.2,38.7l-5.8,8.6v-8.6H991.2z M988.4,45.5
			V375l-2.9-4.4V49.8L988.4,45.5z M985.3,373.3l5.8,8.6h-5.8V373.3z M987.5,389.8h-2.2v-6.5h6.7v2.2h-4.5L987.5,389.8L987.5,389.8z
			 M992,387v2.8h-3V387H992z M989,394.9v-3.6h4.5V387h3.4l1.4,9.3L989,394.9z"/>
	</g>
</g>
</svg>
