<?xml version="1.0" encoding="utf-8"?>
<!-- Generator: Adobe Illustrator 24.3.0, SVG Export Plug-In . SVG Version: 6.00 Build 0)  -->
<svg version="1.1" id="Lag_1" xmlns="http://www.w3.org/2000/svg" xmlns:xlink="http://www.w3.org/1999/xlink" x="0px" y="0px"
	 viewBox="0 0 446 571" style="enable-background:new 0 0 446 571;" xml:space="preserve">
<style type="text/css">
	.st0{fill:#506868;stroke:#110B09;stroke-width:2;stroke-miterlimit:10;}
	.st1{fill:#5C797A;stroke:#110B09;stroke-width:2;stroke-miterlimit:10;}
	.st2{fill:#827B70;stroke:#110B09;stroke-width:2;stroke-miterlimit:10;}
	.st3{fill:#726C65;stroke:#110B09;stroke-width:2;stroke-miterlimit:10;}
	.st4{fill:#B5B4B4;}
	.st5{fill:#2D2521;}
	.st6{fill:#E5E5E5;}
	.st7{fill:#E5D2BA;stroke:#110B09;stroke-width:2;stroke-miterlimit:10;}
	.st8{fill:#9B8767;stroke:#110B09;stroke-width:2;stroke-miterlimit:10;}
</style>
<g>
	<polygon class="st0" points="425.6,548.3 427.3,424.6 342.5,424.6 341.5,548.3 	"/>
	<path class="st0" d="M53,496.4l2.4,1.5c3.3,2.1,7.6,2.1,10.9,0l2.4-1.5V21.8c0-0.4-0.5-0.7-0.8-0.5l-1.6,1c-3.3,2.1-7.6,2.1-10.9,0
		L53,20.8V496.4z"/>
	<path class="st1" d="M52.7,496.5l0.3,0V20.8l-15,3.9c-7.6,2-14.4,6.2-19.5,12.2l0,0c-6.1,7-9.4,16-9.4,25.3v456.2l0,0
		C10,505.9,36.9,493.7,52.7,496.5z"/>
	<path class="st0" d="M47.9,504.1c0.8,0,1.6,0,2.3,0.1c3.2,1.9,6.9,2.9,10.7,2.9c3.6,0,7.1-0.9,10.3-2.7l339.3-0.4
		c2,0,4-0.4,5.9-1.2l4.2-1.8c2.2-1,4.2-2.5,5.7-4.4l0,0c2-2.6,3.1-5.8,3.1-9.1v-6.9l-5.4,9.2v0c-1.7,3.1-4.7,5.3-8.1,6.1l-0.8,0.2
		c-0.9,0.2-1.8,0.3-2.7,0.3H68.8c-2.3,1.8-5.1,2.7-7.9,2.7c-2.8,0-5.6-0.9-7.9-2.7l-0.3,0c-1.5-0.3-3.1-0.4-4.8-0.4l0,0
		c-16.4,0-38.7,10.3-38.7,27.4c0.4,7.5,8,32.3,18.8,32.3c14,0,25-3.9,25-3.9c2.3-1.5,4.9-2.2,7.5-2.2c2.8,0,5.6,0.9,8,2.6l0.2,0.2
		h354.8c2.2,0,4-1.8,4-4l0,0c0-2.2-1.8-4-4-4H71.1c-3.2-1.8-6.9-2.7-10.6-2.7c-3.9,0-7.7,1-11.1,3c-1.8,0.7-11.9,5.7-21.4,3.1
		c-5.8,0-10.7-20.6-10.8-24.7c0-0.5,0.4-5.8,2.2-7.7C25.2,509.2,38.3,504.1,47.9,504.1"/>
	<g>
		<g>
			<path class="st2" d="M302,550.4h128.8V395.5c0-0.4-0.6-0.6-0.8-0.3L302,550.4z"/>
			<rect x="302" y="550.4" class="st3" width="128.8" height="6"/>
		</g>
		<g>
			<g>
				<circle class="st4" cx="329.4" cy="539.1" r="4.8"/>
				<path class="st5" d="M329.4,546.1c-3.8,0-7-3.1-7-7c0-3.8,3.1-7,7-7c3.8,0,7,3.1,7,7C336.3,543,333.2,546.1,329.4,546.1z
					 M329.4,536.6c-1.4,0-2.6,1.2-2.6,2.6s1.2,2.6,2.6,2.6c1.4,0,2.6-1.2,2.6-2.6S330.8,536.6,329.4,536.6z"/>
			</g>
			<g>
				<path class="st6" d="M327.5,541.3c-1.2,0-2.2-1-2.2-2.2c0-2.7,2.1-4.1,4.1-4.1c1.2,0,2.2,1,2.2,2.2c0,1.1-0.8,2-1.9,2.2
					C329.5,540.5,328.6,541.3,327.5,541.3z"/>
			</g>
		</g>
		<g>
			<g>
				<circle class="st4" cx="359.4" cy="539.1" r="4.8"/>
				<path class="st5" d="M359.4,546.1c-3.8,0-7-3.1-7-7c0-3.8,3.1-7,7-7s7,3.1,7,7C366.3,543,363.2,546.1,359.4,546.1z M359.4,536.6
					c-1.4,0-2.6,1.2-2.6,2.6s1.2,2.6,2.6,2.6s2.6-1.2,2.6-2.6S360.8,536.6,359.4,536.6z"/>
			</g>
			<g>
				<path class="st6" d="M357.5,541.3c-1.2,0-2.2-1-2.2-2.2c0-2.7,2.1-4.1,4.1-4.1c1.2,0,2.2,1,2.2,2.2c0,1.1-0.8,2-1.9,2.2
					C359.5,540.5,358.6,541.3,357.5,541.3z"/>
			</g>
		</g>
		<g>
			<g>
				<circle class="st4" cx="388" cy="539.1" r="4.8"/>
				<path class="st5" d="M388,546.1c-3.8,0-7-3.1-7-7c0-3.8,3.1-7,7-7c3.8,0,7,3.1,7,7C395,543,391.8,546.1,388,546.1z M388,536.6
					c-1.4,0-2.6,1.2-2.6,2.6s1.2,2.6,2.6,2.6c1.4,0,2.6-1.2,2.6-2.6S389.4,536.6,388,536.6z"/>
			</g>
			<g>
				<path class="st6" d="M386.1,541.3c-1.2,0-2.2-1-2.2-2.2c0-2.7,2.1-4.1,4.1-4.1c1.2,0,2.2,1,2.2,2.2c0,1.1-0.8,2-1.9,2.2
					C388.1,540.5,387.2,541.3,386.1,541.3z"/>
			</g>
		</g>
		<g>
			<g>
				<circle class="st4" cx="417" cy="539.1" r="4.8"/>
				<path class="st5" d="M417,546.1c-3.8,0-7-3.1-7-7c0-3.8,3.1-7,7-7c3.8,0,7,3.1,7,7C424,543,420.9,546.1,417,546.1z M417,536.6
					c-1.4,0-2.6,1.2-2.6,2.6s1.2,2.6,2.6,2.6c1.4,0,2.6-1.2,2.6-2.6S418.5,536.6,417,536.6z"/>
			</g>
			<g>
				<path class="st6" d="M415.1,541.3c-1.2,0-2.2-1-2.2-2.2c0-2.7,2.1-4.1,4.1-4.1c1.2,0,2.2,1,2.2,2.2c0,1.1-0.8,2-1.9,2.2
					C417.1,540.5,416.2,541.3,415.1,541.3z"/>
			</g>
		</g>
		<g>
			<g>
				<circle class="st4" cx="417.3" cy="505.6" r="4.8"/>
				<path class="st5" d="M417.3,512.6c-3.8,0-7-3.1-7-7c0-3.8,3.1-7,7-7c3.8,0,7,3.1,7,7C424.2,509.5,421.1,512.6,417.3,512.6z
					 M417.3,503c-1.4,0-2.6,1.2-2.6,2.6c0,1.4,1.2,2.6,2.6,2.6c1.4,0,2.6-1.2,2.6-2.6C419.9,504.2,418.7,503,417.3,503z"/>
			</g>
			<g>
				<path class="st6" d="M415.4,507.8c-1.2,0-2.2-1-2.2-2.2c0-2.7,2.1-4.1,4.1-4.1c1.2,0,2.2,1,2.2,2.2c0,1.1-0.8,2-1.9,2.2
					C417.4,506.9,416.5,507.8,415.4,507.8z"/>
			</g>
		</g>
		<g>
			<g>
				<circle class="st4" cx="417.3" cy="471.6" r="4.8"/>
				<path class="st5" d="M417.3,478.6c-3.8,0-7-3.1-7-7c0-3.8,3.1-7,7-7c3.8,0,7,3.1,7,7C424.2,475.5,421.1,478.6,417.3,478.6z
					 M417.3,469.1c-1.4,0-2.6,1.2-2.6,2.6s1.2,2.6,2.6,2.6c1.4,0,2.6-1.2,2.6-2.6S418.7,469.1,417.3,469.1z"/>
			</g>
			<g>
				<path class="st6" d="M415.4,473.8c-1.2,0-2.2-1-2.2-2.2c0-2.7,2.1-4.1,4.1-4.1c1.2,0,2.2,1,2.2,2.2c0,1.1-0.8,2-1.9,2.2
					C417.4,473,416.5,473.8,415.4,473.8z"/>
			</g>
		</g>
		<g>
			<g>
				<circle class="st4" cx="417.3" cy="434.7" r="4.8"/>
				<path class="st5" d="M417.3,441.6c-3.8,0-7-3.1-7-7c0-3.8,3.1-7,7-7c3.8,0,7,3.1,7,7C424.2,438.5,421.1,441.6,417.3,441.6z
					 M417.3,432.1c-1.4,0-2.6,1.2-2.6,2.6c0,1.4,1.2,2.6,2.6,2.6c1.4,0,2.6-1.2,2.6-2.6C419.9,433.2,418.7,432.1,417.3,432.1z"/>
			</g>
			<g>
				<path class="st6" d="M415.4,436.8c-1.2,0-2.2-1-2.2-2.2c0-2.7,2.1-4.1,4.1-4.1c1.2,0,2.2,1,2.2,2.2c0,1.1-0.8,2-1.9,2.2
					C417.4,436,416.5,436.8,415.4,436.8z"/>
			</g>
		</g>
	</g>
	<path class="st1" d="M413.6,496.4H68.8V20.8h344.8c8.7,0,15.7,7,15.7,15.7v444.2C429.3,489.4,422.3,496.4,413.6,496.4z"/>
	<path class="st7" d="M420.5,501l-1.6,3.8c-5.5,13.1-3.7,28.1,4.7,39.5h0l-396.2,1.4L15.7,523l24.4-19.1L420.5,501z"/>
	<g>
		<path class="st8" d="M45,547.2c-1,0-11.5,2.2-17.6-1.5c-7.2-4.3-11.9-16.4-11.7-22.8c0.3-14.2,25.1-19,32.8-19.1
			c1.9,0,3.5,1.5,3.5,3.5c0,1.9-1.5,3.5-3.5,3.5c-0.7,0-25.7,1.4-25.9,12.3c-0.1,4,1.9,14.1,7.4,17.3c6.8,4,17.5,0.9,17.6,0.9
			c1.3,1.4,1.2,3.6-0.3,4.9C46.7,546.9,45.8,547.2,45,547.2z"/>
	</g>
	<g>
		<g>
			<path class="st2" d="M304,495.4h128.8V340.5c0-0.4-0.6-0.6-0.8-0.3l-29.2,37.5l-1,88.3l-74.6,1.9L304,495.4z"/>
			<rect x="304" y="495.4" class="st3" width="128.8" height="12.6"/>
		</g>
		<g>
			<g>
				<circle class="st4" cx="331.4" cy="484.1" r="4.8"/>
				<path class="st5" d="M331.4,491.1c-3.8,0-7-3.1-7-7c0-3.8,3.1-7,7-7c3.8,0,7,3.1,7,7C338.3,488,335.2,491.1,331.4,491.1z
					 M331.4,481.6c-1.4,0-2.6,1.2-2.6,2.6s1.2,2.6,2.6,2.6c1.4,0,2.6-1.2,2.6-2.6S332.8,481.6,331.4,481.6z"/>
			</g>
			<g>
				<path class="st6" d="M329.5,486.3c-1.2,0-2.2-1-2.2-2.2c0-2.7,2.1-4.1,4.1-4.1c1.2,0,2.2,1,2.2,2.2c0,1.1-0.8,2-1.9,2.2
					C331.5,485.5,330.6,486.3,329.5,486.3z"/>
			</g>
		</g>
		<g>
			<g>
				<circle class="st4" cx="361.4" cy="484.1" r="4.8"/>
				<path class="st5" d="M361.4,491.1c-3.8,0-7-3.1-7-7c0-3.8,3.1-7,7-7s7,3.1,7,7C368.3,488,365.2,491.1,361.4,491.1z M361.4,481.6
					c-1.4,0-2.6,1.2-2.6,2.6s1.2,2.6,2.6,2.6s2.6-1.2,2.6-2.6S362.8,481.6,361.4,481.6z"/>
			</g>
			<g>
				<path class="st6" d="M359.5,486.3c-1.2,0-2.2-1-2.2-2.2c0-2.7,2.1-4.1,4.1-4.1c1.2,0,2.2,1,2.2,2.2c0,1.1-0.8,2-1.9,2.2
					C361.5,485.5,360.6,486.3,359.5,486.3z"/>
			</g>
		</g>
		<g>
			<g>
				<circle class="st4" cx="390" cy="484.1" r="4.8"/>
				<path class="st5" d="M390,491.1c-3.8,0-7-3.1-7-7c0-3.8,3.1-7,7-7c3.8,0,7,3.1,7,7C397,488,393.8,491.1,390,491.1z M390,481.6
					c-1.4,0-2.6,1.2-2.6,2.6s1.2,2.6,2.6,2.6c1.4,0,2.6-1.2,2.6-2.6S391.4,481.6,390,481.6z"/>
			</g>
			<g>
				<path class="st6" d="M388.1,486.3c-1.2,0-2.2-1-2.2-2.2c0-2.7,2.1-4.1,4.1-4.1c1.2,0,2.2,1,2.2,2.2c0,1.1-0.8,2-1.9,2.2
					C390.1,485.5,389.2,486.3,388.1,486.3z"/>
			</g>
		</g>
		<g>
			<g>
				<circle class="st4" cx="419" cy="484.1" r="4.8"/>
				<path class="st5" d="M419,491.1c-3.8,0-7-3.1-7-7c0-3.8,3.1-7,7-7c3.8,0,7,3.1,7,7C426,488,422.9,491.1,419,491.1z M419,481.6
					c-1.4,0-2.6,1.2-2.6,2.6s1.2,2.6,2.6,2.6c1.4,0,2.6-1.2,2.6-2.6S420.5,481.6,419,481.6z"/>
			</g>
			<g>
				<path class="st6" d="M417.1,486.3c-1.2,0-2.2-1-2.2-2.2c0-2.7,2.1-4.1,4.1-4.1c1.2,0,2.2,1,2.2,2.2c0,1.1-0.8,2-1.9,2.2
					C419.1,485.5,418.2,486.3,417.1,486.3z"/>
			</g>
		</g>
		<g>
			<g>
				<circle class="st4" cx="419.3" cy="450.6" r="4.8"/>
				<path class="st5" d="M419.3,457.6c-3.8,0-7-3.1-7-7c0-3.8,3.1-7,7-7c3.8,0,7,3.1,7,7C426.2,454.5,423.1,457.6,419.3,457.6z
					 M419.3,448c-1.4,0-2.6,1.2-2.6,2.6c0,1.4,1.2,2.6,2.6,2.6c1.4,0,2.6-1.2,2.6-2.6C421.9,449.2,420.7,448,419.3,448z"/>
			</g>
			<g>
				<path class="st6" d="M417.4,452.8c-1.2,0-2.2-1-2.2-2.2c0-2.7,2.1-4.1,4.1-4.1c1.2,0,2.2,1,2.2,2.2c0,1.1-0.8,2-1.9,2.2
					C419.4,451.9,418.5,452.8,417.4,452.8z"/>
			</g>
		</g>
		<g>
			<g>
				<circle class="st4" cx="419.3" cy="416.6" r="4.8"/>
				<path class="st5" d="M419.3,423.6c-3.8,0-7-3.1-7-7c0-3.8,3.1-7,7-7c3.8,0,7,3.1,7,7C426.2,420.5,423.1,423.6,419.3,423.6z
					 M419.3,414.1c-1.4,0-2.6,1.2-2.6,2.6s1.2,2.6,2.6,2.6c1.4,0,2.6-1.2,2.6-2.6S420.7,414.1,419.3,414.1z"/>
			</g>
			<g>
				<path class="st6" d="M417.4,418.8c-1.2,0-2.2-1-2.2-2.2c0-2.7,2.1-4.1,4.1-4.1c1.2,0,2.2,1,2.2,2.2c0,1.1-0.8,2-1.9,2.2
					C419.4,418,418.5,418.8,417.4,418.8z"/>
			</g>
		</g>
		<g>
			<g>
				<circle class="st4" cx="419.3" cy="379.7" r="4.8"/>
				<path class="st5" d="M419.3,386.6c-3.8,0-7-3.1-7-7c0-3.8,3.1-7,7-7c3.8,0,7,3.1,7,7C426.2,383.5,423.1,386.6,419.3,386.6z
					 M419.3,377.1c-1.4,0-2.6,1.2-2.6,2.6c0,1.4,1.2,2.6,2.6,2.6c1.4,0,2.6-1.2,2.6-2.6C421.9,378.2,420.7,377.1,419.3,377.1z"/>
			</g>
			<g>
				<path class="st6" d="M417.4,381.8c-1.2,0-2.2-1-2.2-2.2c0-2.7,2.1-4.1,4.1-4.1c1.2,0,2.2,1,2.2,2.2c0,1.1-0.8,2-1.9,2.2
					C419.4,381,418.5,381.8,417.4,381.8z"/>
			</g>
		</g>
	</g>
	<g>
		<g>
			<path class="st2" d="M432.8,127.7V14.7H297c-0.8,0-1.2,1-0.6,1.6L328,42.3l81.3,0.8l-1.1,65.4l23.7,19.6
				C432.3,128.4,432.8,128.1,432.8,127.7z"/>
		</g>
		<g>
			<g>
				<circle class="st4" cx="422.8" cy="104.5" r="4.2"/>
				<path class="st5" d="M422.8,110.7c-3.4,0-6.2-2.8-6.2-6.2c0-3.4,2.8-6.2,6.2-6.2c3.4,0,6.2,2.8,6.2,6.2
					C429,107.9,426.2,110.7,422.8,110.7z M422.8,102.2c-1.3,0-2.3,1-2.3,2.3s1,2.3,2.3,2.3c1.3,0,2.3-1,2.3-2.3
					S424.1,102.2,422.8,102.2z"/>
			</g>
			<g>
				<path class="st6" d="M421.2,106.4c-1.1,0-1.9-0.8-1.9-1.9c0-2.4,1.9-3.6,3.6-3.6c1.1,0,1.9,0.9,1.9,1.9c0,1-0.7,1.8-1.7,1.9
					C422.9,105.7,422.1,106.4,421.2,106.4z"/>
			</g>
		</g>
		<g>
			<g>
				<circle class="st4" cx="422.8" cy="77.9" r="4.2"/>
				<path class="st5" d="M422.8,84.1c-3.4,0-6.2-2.8-6.2-6.2c0-3.4,2.8-6.2,6.2-6.2c3.4,0,6.2,2.8,6.2,6.2
					C429,81.3,426.2,84.1,422.8,84.1z M422.8,75.6c-1.3,0-2.3,1-2.3,2.3s1,2.3,2.3,2.3c1.3,0,2.3-1,2.3-2.3S424.1,75.6,422.8,75.6z"
					/>
			</g>
			<g>
				<path class="st6" d="M421.2,79.8c-1.1,0-1.9-0.8-1.9-1.9c0-2.4,1.9-3.6,3.6-3.6c1.1,0,1.9,0.9,1.9,1.9c0,1-0.7,1.8-1.7,1.9
					C422.9,79.1,422.1,79.8,421.2,79.8z"/>
			</g>
		</g>
		<g>
			<g>
				<circle class="st4" cx="422.8" cy="52.6" r="4.2"/>
				<path class="st5" d="M422.8,58.7c-3.4,0-6.2-2.8-6.2-6.2c0-3.4,2.8-6.2,6.2-6.2c3.4,0,6.2,2.8,6.2,6.2
					C429,56,426.2,58.7,422.8,58.7z M422.8,50.3c-1.3,0-2.3,1-2.3,2.3s1,2.3,2.3,2.3c1.3,0,2.3-1,2.3-2.3S424.1,50.3,422.8,50.3z"/>
			</g>
			<g>
				<path class="st6" d="M421.2,54.5c-1.1,0-1.9-0.8-1.9-1.9c0-2.4,1.9-3.6,3.6-3.6c1.1,0,1.9,0.9,1.9,1.9c0,1-0.7,1.8-1.7,1.9
					C422.9,53.8,422.1,54.5,421.2,54.5z"/>
			</g>
		</g>
		<g>
			<g>
				<circle class="st4" cx="422.8" cy="26.9" r="4.2"/>
				<path class="st5" d="M422.8,33c-3.4,0-6.2-2.8-6.2-6.2c0-3.4,2.8-6.2,6.2-6.2c3.4,0,6.2,2.8,6.2,6.2C429,30.3,426.2,33,422.8,33
					z M422.8,24.6c-1.3,0-2.3,1-2.3,2.3c0,1.3,1,2.3,2.3,2.3c1.3,0,2.3-1,2.3-2.3C425.1,25.6,424.1,24.6,422.8,24.6z"/>
			</g>
			<g>
				<path class="st6" d="M421.2,28.8c-1.1,0-1.9-0.8-1.9-1.9c0-2.4,1.9-3.6,3.6-3.6c1.1,0,1.9,0.9,1.9,1.9c0,1-0.7,1.8-1.7,1.9
					C422.9,28.1,422.1,28.8,421.2,28.8z"/>
			</g>
		</g>
		<g>
			<g>
				<circle class="st4" cx="393.2" cy="26.7" r="4.2"/>
				<path class="st5" d="M393.2,32.8c-3.4,0-6.2-2.8-6.2-6.2c0-3.4,2.8-6.2,6.2-6.2c3.4,0,6.2,2.8,6.2,6.2
					C399.3,30.1,396.6,32.8,393.2,32.8z M393.2,24.4c-1.3,0-2.3,1-2.3,2.3s1,2.3,2.3,2.3s2.3-1,2.3-2.3S394.4,24.4,393.2,24.4z"/>
			</g>
			<g>
				<path class="st6" d="M391.5,28.6c-1.1,0-1.9-0.8-1.9-1.9c0-2.4,1.9-3.6,3.6-3.6c1.1,0,1.9,0.9,1.9,1.9c0,1-0.7,1.8-1.7,1.9
					C393.3,27.8,392.4,28.6,391.5,28.6z"/>
			</g>
		</g>
		<g>
			<g>
				<circle class="st4" cx="363.1" cy="26.7" r="4.2"/>
				<path class="st5" d="M363.1,32.8c-3.4,0-6.2-2.8-6.2-6.2c0-3.4,2.8-6.2,6.2-6.2c3.4,0,6.2,2.8,6.2,6.2
					C369.2,30.1,366.5,32.8,363.1,32.8z M363.1,24.4c-1.3,0-2.3,1-2.3,2.3s1,2.3,2.3,2.3s2.3-1,2.3-2.3S364.3,24.4,363.1,24.4z"/>
			</g>
			<g>
				<path class="st6" d="M361.4,28.6c-1.1,0-1.9-0.8-1.9-1.9c0-2.4,1.9-3.6,3.6-3.6c1.1,0,1.9,0.9,1.9,1.9c0,1-0.7,1.8-1.7,1.9
					C363.2,27.8,362.4,28.6,361.4,28.6z"/>
			</g>
		</g>
		<g>
			<g>
				<circle class="st4" cx="330.3" cy="26.7" r="4.2"/>
				<path class="st5" d="M330.3,32.8c-3.4,0-6.2-2.8-6.2-6.2c0-3.4,2.8-6.2,6.2-6.2c3.4,0,6.2,2.8,6.2,6.2
					C336.5,30.1,333.7,32.8,330.3,32.8z M330.3,24.4c-1.3,0-2.3,1-2.3,2.3s1,2.3,2.3,2.3s2.3-1,2.3-2.3S331.6,24.4,330.3,24.4z"/>
			</g>
			<g>
				<path class="st6" d="M328.6,28.6c-1.1,0-1.9-0.8-1.9-1.9c0-2.4,1.9-3.6,3.6-3.6c1.1,0,1.9,0.9,1.9,1.9c0,1-0.7,1.8-1.7,1.9
					C330.4,27.8,329.6,28.6,328.6,28.6z"/>
			</g>
		</g>
	</g>
</g>
</svg>
