<?xml version="1.0" encoding="utf-8"?>
<!-- Generator: Adobe Illustrator 27.0.0, SVG Export Plug-In . SVG Version: 6.00 Build 0)  -->
<svg version="1.1" id="Lag_1" xmlns="http://www.w3.org/2000/svg" xmlns:xlink="http://www.w3.org/1999/xlink" x="0px" y="0px"
	 viewBox="0 0 1366 768" style="enable-background:new 0 0 1366 768;" xml:space="preserve">
<style type="text/css">
	.st0{fill:#5C797A;stroke:#110B09;stroke-width:2;stroke-miterlimit:10;}
	.st1{fill:#506868;stroke:#110B09;stroke-width:2;stroke-miterlimit:10;}
	.st2{fill:#435454;}
	.st3{fill:#323F3F;}
	.st4{fill:#827B70;}
	.st5{fill:#110B09;}
	.st6{fill:#726C65;}
	.st7{fill:#B5B4B4;}
	.st8{fill:#2D2521;}
	.st9{fill:#E5E5E5;}
	.st10{fill:#DBC3A9;stroke:#110B09;stroke-width:2;stroke-miterlimit:10;}
	.st11{fill:#E0C7B1;}
	.st12{fill:#E5CEBD;enable-background:new    ;}
	.st13{opacity:0.1;}
</style>
<g>
	<g>
		<path class="st0" d="M1342.7,39.6c0.9-12.9-7.4-23.7-17.9-23.7H772.9H596.3H44.4c-10.5,0-18.8,11-17.9,23.7l-14.1,699
			c-0.9,13.8,8.7,25.1,19.8,23.6l160-20.4c51.6-6.5,103.5-10.4,155.3-11.3l256.9-5c0,0,13.4-20.3,28.3,3.8l0,0
			c30.9,11.2,63.6,12.2,95,3.3l17.3-5c0,0,13.4-23.1,26.3-1.8l250.5,4.8c51.9,1.1,103.7,4.8,155.3,11.3l160,20.4
			c11.1,1.4,20.6-9.8,19.8-23.6L1342.7,39.6z"/>
		<path class="st1" d="M1326.8,41.7c0.9-12.9-7.4-23.9-17.9-23.9H770.7H598.5h-538c-10.5,0-18.8,11-17.9,23.9L28.7,717.3
			c-0.9,13.8,8.7,25.1,19.8,23.6L204,721.3c50.3-6.4,100.9-10,151.6-11l250.6-4.8c0,0,14.8-19.2,27.6,3.6l0,0
			c30.2,10.9,62.1,11.9,92.6,3.2l16.9-4.8c0,0,14.8-16.2,25.6-1.8l244.4,4.7c50.7,1.1,101.3,4.7,151.6,11l155.5,19.7
			c11.1,1.4,20.6-10,19.8-23.6L1326.8,41.7z"/>
		<path class="st2" d="M733.7,217l-93,2.7l-5.4,472.4l0,0c31.9,10.9,65.8,11.9,98.2,3.2L733.7,217z"/>
		<path class="st3" d="M733.7,191l-93,2.7l-5.4,472.4l0,0c31.9,10.9,65.8,11.9,98.2,3.2L733.7,191z"/>
		<g>
			<path class="st3" d="M606.3,697.7c-2.6-44.5-3.7-88.8-4.3-133.2c-0.6-44.5-0.6-88.8-0.1-133.1s1.5-88.8,3-133.1
				c1.6-44.3,3.7-88.8,7.3-133.1c2.6,44.5,3.7,88.8,4.5,133.2c0.6,44.5,0.6,88.8,0.1,133.1s-1.5,88.8-3.1,133.1
				C612,609.1,609.9,653.4,606.3,697.7z"/>
		</g>
		<g>
			<path class="st3" d="M769.2,697.8c-3.6-44.3-5.7-88.6-7.4-133.1c-1.6-44.3-2.6-88.8-3.2-133.1c-0.5-44.3-0.5-88.8,0-133.2
				c0.6-44.5,1.7-88.8,4.3-133.2c3.6,44.3,5.7,88.6,7.4,133.1c1.6,44.3,2.6,88.8,3.1,133.1c0.5,44.5,0.5,88.8,0,133.2
				C772.8,609.1,771.6,653.4,769.2,697.8z"/>
		</g>
	</g>
	<g>
		<g>
			<g>
				<path class="st4" d="M1199.8,745.3H1363V505.2c0-0.8-0.7-1.1-1.1-0.5l-37,58.1l-1.2,136.8l-94.5,3L1199.8,745.3z"/>
				<path class="st5" d="M1364.3,746.8H1197l31.7-45.5l93.8-3l1.2-135.9l37.2-58.5c0.5-0.8,1.4-1.1,2.1-0.8c0.7,0.3,1.2,1.2,1.2,2.1
					v241.6H1364.3z M1202.5,743.6h159.3v-236l-35.5,55.8l-1.2,137.9l-95.2,3L1202.5,743.6z"/>
			</g>
			<g>
				<rect x="1199.8" y="745.3" class="st6" width="163.2" height="19.5"/>
				<path class="st5" d="M1364.3,766.3h-165.8v-22.5h165.8V766.3z M1201,763.1h160.7v-16.3H1201V763.1L1201,763.1z"/>
			</g>
		</g>
		<g>
			<g>
				<g>
					<ellipse class="st7" cx="1234.4" cy="727.9" rx="6.1" ry="7.4"/>
				</g>
				<g>
					<path class="st8" d="M1234.4,738.6c-4.8,0-8.8-4.8-8.8-10.7s4-10.7,8.8-10.7s8.8,4.8,8.8,10.7
						C1243.2,733.8,1239.3,738.6,1234.4,738.6z M1234.4,723.8c-1.9,0-3.3,1.8-3.3,4.1s1.5,4.1,3.3,4.1s3.3-1.8,3.3-4.1
						S1236.3,723.8,1234.4,723.8z"/>
				</g>
			</g>
			<g>
				<g>
					<path class="st9" d="M1232,731.2c-1.5,0-2.7-1.5-2.7-3.3c0-4.1,2.7-6.4,5.2-6.4c1.5,0,2.7,1.5,2.7,3.3c0,1.7-1.1,3.2-2.5,3.3
						C1234.6,729.9,1233.4,731.2,1232,731.2z"/>
				</g>
			</g>
		</g>
		<g>
			<g>
				<g>
					<ellipse class="st7" cx="1272.5" cy="727.9" rx="6.1" ry="7.4"/>
				</g>
				<g>
					<path class="st8" d="M1272.5,738.6c-4.8,0-8.8-4.8-8.8-10.7s4-10.7,8.8-10.7s8.8,4.8,8.8,10.7S1277.3,738.6,1272.5,738.6z
						 M1272.5,723.8c-1.9,0-3.3,1.8-3.3,4.1s1.5,4.1,3.3,4.1s3.3-1.8,3.3-4.1S1274.2,723.8,1272.5,723.8z"/>
				</g>
			</g>
			<g>
				<g>
					<path class="st9" d="M1270,731.2c-1.5,0-2.7-1.5-2.7-3.3c0-4.1,2.7-6.4,5.2-6.4c1.5,0,2.7,1.5,2.7,3.3c0,1.7-1.1,3.2-2.5,3.3
						C1272.6,729.9,1271.5,731.2,1270,731.2z"/>
				</g>
			</g>
		</g>
		<g>
			<g>
				<g>
					<ellipse class="st7" cx="1308.7" cy="727.9" rx="6.1" ry="7.4"/>
				</g>
				<g>
					<path class="st8" d="M1308.7,738.6c-4.8,0-8.8-4.8-8.8-10.7s4-10.7,8.8-10.7s8.8,4.8,8.8,10.7S1313.6,738.6,1308.7,738.6z
						 M1308.7,723.8c-1.9,0-3.3,1.8-3.3,4.1s1.5,4.1,3.3,4.1s3.3-1.8,3.3-4.1S1310.6,723.8,1308.7,723.8z"/>
				</g>
			</g>
			<g>
				<g>
					<path class="st9" d="M1306.4,731.2c-1.5,0-2.7-1.5-2.7-3.3c0-4.1,2.7-6.4,5.2-6.4c1.5,0,2.7,1.5,2.7,3.3c0,1.7-1.1,3.2-2.5,3.3
						C1308.9,729.9,1307.8,731.2,1306.4,731.2z"/>
				</g>
			</g>
		</g>
		<g>
			<g>
				<g>
					<ellipse class="st7" cx="1345.6" cy="727.9" rx="6.1" ry="7.4"/>
				</g>
				<g>
					<path class="st8" d="M1345.6,738.6c-4.8,0-8.8-4.8-8.8-10.7s4-10.7,8.8-10.7s8.8,4.8,8.8,10.7S1350.4,738.6,1345.6,738.6z
						 M1345.6,723.8c-1.9,0-3.3,1.8-3.3,4.1s1.5,4.1,3.3,4.1s3.3-1.8,3.3-4.1S1347.3,723.8,1345.6,723.8z"/>
				</g>
			</g>
			<g>
				<g>
					<path class="st9" d="M1343.1,731.2c-1.5,0-2.7-1.5-2.7-3.3c0-4.1,2.7-6.4,5.2-6.4c1.5,0,2.7,1.5,2.7,3.3c0,1.7-1.1,3.2-2.5,3.3
						C1345.7,729.9,1344.5,731.2,1343.1,731.2z"/>
				</g>
			</g>
		</g>
		<g>
			<g>
				<g>
					<ellipse class="st7" cx="1345.8" cy="675.9" rx="6.1" ry="7.4"/>
				</g>
				<g>
					<path class="st8" d="M1345.8,686.6c-4.8,0-8.8-4.8-8.8-10.7s4-10.7,8.8-10.7s8.8,4.8,8.8,10.7
						C1354.6,681.8,1350.7,686.6,1345.8,686.6z M1345.8,671.8c-1.9,0-3.3,1.8-3.3,4.1s1.5,4.1,3.3,4.1s3.3-1.8,3.3-4.1
						S1347.7,671.8,1345.8,671.8z"/>
				</g>
			</g>
			<g>
				<g>
					<path class="st9" d="M1343.4,679.2c-1.5,0-2.7-1.5-2.7-3.3c0-4.1,2.7-6.4,5.2-6.4c1.5,0,2.7,1.5,2.7,3.3c0,1.7-1.1,3.2-2.5,3.3
						C1346,678,1344.8,679.2,1343.4,679.2z"/>
				</g>
			</g>
		</g>
		<g>
			<g>
				<g>
					<ellipse class="st7" cx="1345.8" cy="623.3" rx="6.1" ry="7.4"/>
				</g>
				<g>
					<path class="st8" d="M1345.8,634c-4.8,0-8.8-4.8-8.8-10.7s4-10.7,8.8-10.7s8.8,4.8,8.8,10.7S1350.7,634,1345.8,634z
						 M1345.8,619.2c-1.9,0-3.3,1.8-3.3,4.1s1.5,4.1,3.3,4.1s3.3-1.8,3.3-4.1S1347.7,619.2,1345.8,619.2z"/>
				</g>
			</g>
			<g>
				<g>
					<path class="st9" d="M1343.4,626.6c-1.5,0-2.7-1.5-2.7-3.3c0-4.1,2.7-6.4,5.2-6.4c1.5,0,2.7,1.5,2.7,3.3c0,1.7-1.1,3.2-2.5,3.3
						C1346,625.2,1344.8,626.6,1343.4,626.6z"/>
				</g>
			</g>
		</g>
		<g>
			<g>
				<g>
					<ellipse class="st7" cx="1345.8" cy="566" rx="6.1" ry="7.4"/>
				</g>
				<g>
					<path class="st8" d="M1345.8,576.7c-4.8,0-8.8-4.8-8.8-10.7s4-10.7,8.8-10.7s8.8,4.8,8.8,10.7S1350.7,576.7,1345.8,576.7z
						 M1345.8,561.9c-1.9,0-3.3,1.8-3.3,4.1s1.5,4.1,3.3,4.1s3.3-1.8,3.3-4.1S1347.7,561.9,1345.8,561.9z"/>
				</g>
			</g>
			<g>
				<g>
					<path class="st9" d="M1343.4,569.3c-1.5,0-2.7-1.5-2.7-3.3c0-4.1,2.7-6.4,5.2-6.4c1.5,0,2.7,1.5,2.7,3.3c0,1.7-1.1,3.2-2.5,3.3
						C1346,567.9,1344.8,569.3,1343.4,569.3z"/>
				</g>
			</g>
		</g>
	</g>
	<g>
		<g>
			<g>
				<path class="st4" d="M1352,180.4V5.1h-172.1c-1.1,0-1.5,1.7-0.7,2.4l40.1,40.4l103,1.2l-1.4,101.3l30,30.4
					C1351.5,181.4,1352,181,1352,180.4z"/>
				<path class="st5" d="M1351.4,182.6c-0.4,0-0.9-0.2-1.2-0.5l-30.5-30.8l1.4-100.6l-102.3-1.2l-40.4-40.8
					c-0.7-0.8-1.1-2.1-0.7-3.2c0.4-1.2,1.2-2,2.2-2h173.3v176.8c0,0.9-0.4,1.7-1.1,2.1C1352,182.6,1351.8,182.6,1351.4,182.6z
					 M1322.2,149.8l28.6,28.7V6.6h-170.5l39.4,39.8l103.9,1.2L1322.2,149.8z"/>
			</g>
		</g>
		<g>
			<g>
				<g>
					<ellipse class="st7" cx="1339.4" cy="144.4" rx="5.3" ry="6.5"/>
				</g>
				<g>
					<path class="st8" d="M1339.4,153.9c-4.3,0-7.8-4.2-7.8-9.5s3.5-9.5,7.8-9.5s7.8,4.2,7.8,9.5
						C1347.3,149.7,1343.7,153.9,1339.4,153.9z M1339.4,140.9c-1.6,0-2.8,1.7-2.8,3.5s1.4,3.5,2.8,3.5c1.6,0,2.8-1.7,2.8-3.5
						C1342.2,142.6,1341,140.9,1339.4,140.9z"/>
				</g>
			</g>
			<g>
				<g>
					<path class="st9" d="M1337.3,147.4c-1.4,0-2.5-1.4-2.5-3c0-3.6,2.3-5.6,4.6-5.6c1.4,0,2.5,1.4,2.5,3c0,1.5-1,2.9-2.1,3
						C1339.5,146.2,1338.5,147.4,1337.3,147.4z"/>
				</g>
			</g>
		</g>
		<g>
			<g>
				<g>
					<ellipse class="st7" cx="1339.4" cy="103.3" rx="5.3" ry="6.5"/>
				</g>
				<g>
					<path class="st8" d="M1339.4,112.8c-4.3,0-7.8-4.2-7.8-9.5s3.5-9.5,7.8-9.5s7.8,4.2,7.8,9.5
						C1347.3,108.4,1343.7,112.8,1339.4,112.8z M1339.4,99.6c-1.6,0-2.8,1.7-2.8,3.5s1.4,3.5,2.8,3.5c1.6,0,2.8-1.7,2.8-3.5
						C1342.2,101.3,1341,99.6,1339.4,99.6z"/>
				</g>
			</g>
			<g>
				<g>
					<path class="st9" d="M1337.3,106.1c-1.4,0-2.5-1.4-2.5-3c0-3.6,2.3-5.6,4.6-5.6c1.4,0,2.5,1.4,2.5,3c0,1.5-1,2.9-2.1,3
						C1339.5,105.1,1338.5,106.1,1337.3,106.1z"/>
				</g>
			</g>
		</g>
		<g>
			<g>
				<g>
					<ellipse class="st7" cx="1339.4" cy="63.9" rx="5.3" ry="6.5"/>
				</g>
				<g>
					<path class="st8" d="M1339.4,73.5c-4.3,0-7.8-4.2-7.8-9.5s3.5-9.5,7.8-9.5s7.8,4.2,7.8,9.5
						C1347.3,69.2,1343.7,73.5,1339.4,73.5z M1339.4,60.3c-1.6,0-2.8,1.7-2.8,3.5c0,2,1.4,3.5,2.8,3.5c1.6,0,2.8-1.7,2.8-3.5
						C1342.4,62,1341,60.3,1339.4,60.3z"/>
				</g>
			</g>
			<g>
				<g>
					<path class="st9" d="M1337.3,66.8c-1.4,0-2.5-1.4-2.5-3c0-3.6,2.3-5.6,4.6-5.6c1.4,0,2.5,1.4,2.5,3c0,1.5-1,2.9-2.1,3
						C1339.5,65.8,1338.5,66.8,1337.3,66.8z"/>
				</g>
			</g>
		</g>
		<g>
			<g>
				<g>
					<ellipse class="st7" cx="1339.4" cy="24" rx="5.3" ry="6.5"/>
				</g>
				<g>
					<path class="st8" d="M1339.4,33.6c-4.3,0-7.8-4.2-7.8-9.5s3.5-9.5,7.8-9.5s7.8,4.2,7.8,9.5
						C1347.3,29.3,1343.7,33.6,1339.4,33.6z M1339.4,20.6c-1.6,0-2.8,1.7-2.8,3.5s1.4,3.5,2.8,3.5c1.6,0,2.8-1.7,2.8-3.5
						S1341,20.6,1339.4,20.6z"/>
				</g>
			</g>
			<g>
				<g>
					<path class="st9" d="M1337.3,27.1c-1.4,0-2.5-1.4-2.5-3c0-3.6,2.3-5.6,4.6-5.6c1.4,0,2.5,1.4,2.5,3c0,1.5-1,2.9-2.1,3
						C1339.5,25.8,1338.5,27.1,1337.3,27.1z"/>
				</g>
			</g>
		</g>
		<g>
			<g>
				<g>
					<ellipse class="st7" cx="1301.8" cy="23.7" rx="5.3" ry="6.5"/>
				</g>
				<g>
					<path class="st8" d="M1301.8,33.3c-4.3,0-7.8-4.2-7.8-9.5s3.5-9.5,7.8-9.5s7.8,4.2,7.8,9.5S1306.1,33.3,1301.8,33.3z
						 M1301.8,20.3c-1.6,0-2.8,1.7-2.8,3.5s1.4,3.5,2.8,3.5c1.6,0,2.8-1.7,2.8-3.5C1304.7,21.9,1303.4,20.3,1301.8,20.3z"/>
				</g>
			</g>
			<g>
				<g>
					<path class="st9" d="M1299.7,26.8c-1.4,0-2.5-1.4-2.5-3c0-3.6,2.3-5.6,4.6-5.6c1.4,0,2.5,1.4,2.5,3c0,1.5-1,2.9-2.1,3
						C1301.9,25.5,1301,26.8,1299.7,26.8z"/>
				</g>
			</g>
		</g>
		<g>
			<g>
				<g>
					<path class="st7" d="M1263.7,17.2c3,0,5.3,2.9,5.3,6.5s-2.3,6.5-5.3,6.5s-5.3-2.9-5.3-6.5S1260.8,17.2,1263.7,17.2z"/>
				</g>
				<g>
					<path class="st8" d="M1263.7,33.3c-4.3,0-7.8-4.2-7.8-9.5s3.5-9.5,7.8-9.5s7.8,4.2,7.8,9.5C1271.5,29,1267.9,33.3,1263.7,33.3z
						 M1263.7,20.3c-1.6,0-2.8,1.7-2.8,3.5s1.4,3.5,2.8,3.5c1.6,0,2.8-1.7,2.8-3.5C1266.6,21.9,1265.3,20.3,1263.7,20.3z"/>
				</g>
			</g>
			<g>
				<g>
					<path class="st9" d="M1261.5,26.8c-1.4,0-2.5-1.4-2.5-3c0-3.6,2.3-5.6,4.6-5.6c1.4,0,2.5,1.4,2.5,3c0,1.5-1,2.9-2.1,3
						C1263.9,25.5,1262.7,26.8,1261.5,26.8z"/>
				</g>
			</g>
		</g>
		<g>
			<g>
				<g>
					<ellipse class="st7" cx="1222.2" cy="23.7" rx="5.3" ry="6.5"/>
				</g>
				<g>
					<path class="st8" d="M1222.2,33.3c-4.3,0-7.8-4.2-7.8-9.5s3.5-9.5,7.8-9.5s7.8,4.2,7.8,9.5S1226.5,33.3,1222.2,33.3z
						 M1222.2,20.3c-1.6,0-2.8,1.7-2.8,3.5s1.4,3.5,2.8,3.5c1.5,0,2.8-1.7,2.8-3.5C1225,21.9,1223.8,20.3,1222.2,20.3z"/>
				</g>
			</g>
			<g>
				<g>
					<path class="st9" d="M1220.1,26.8c-1.4,0-2.5-1.4-2.5-3c0-3.6,2.3-5.6,4.6-5.6c1.4,0,2.5,1.4,2.5,3c0,1.5-1,2.9-2.1,3
						C1222.3,25.5,1221.3,26.8,1220.1,26.8z"/>
				</g>
			</g>
		</g>
	</g>
	<g>
		<g>
			<g>
				<path class="st4" d="M168.3,745.3H4.9v-240c0-0.8,0.7-1.1,1.1-0.5l37,58.1l1.2,136.8l94.5,3L168.3,745.3z"/>
				<path class="st5" d="M3.7,505.2c0-0.9,0.5-1.8,1.2-2.1c0.7-0.3,1.6,0,2.1,0.8l37.2,58.5l1.2,135.9l93.8,3l31.7,45.5H3.7V505.2z
					 M138.1,704.3l-95.2-3l-1.2-137.9L6.2,507.6v236h159.3L138.1,704.3z"/>
			</g>
			<g>
				<rect x="4.9" y="745.3" class="st6" width="163.2" height="19.5"/>
				<path class="st5" d="M3.7,743.6h165.8v22.5H3.7V743.6z M166.9,746.8H6.2v16.3h160.7V746.8z"/>
			</g>
		</g>
		<g>
			<g>
				<g>
					<ellipse class="st7" cx="133.5" cy="727.9" rx="6.1" ry="7.4"/>
				</g>
				<g>
					<path class="st8" d="M124.7,727.9c0-5.9,4-10.7,8.8-10.7s8.8,4.8,8.8,10.7s-4,10.7-8.8,10.7
						C128.7,738.6,124.7,733.8,124.7,727.9z M130.3,727.9c0,2.3,1.5,4.1,3.3,4.1c1.9,0,3.3-1.8,3.3-4.1s-1.5-4.1-3.3-4.1
						C131.7,723.8,130.3,725.6,130.3,727.9z"/>
				</g>
			</g>
			<g>
				<g>
					<path class="st9" d="M136,731.2c1.5,0,2.7-1.5,2.7-3.3c0-4.1-2.7-6.4-5.2-6.4c-1.5,0-2.7,1.5-2.7,3.3c0,1.7,1.1,3.2,2.5,3.3
						C133.4,729.9,134.5,731.2,136,731.2z"/>
				</g>
			</g>
		</g>
		<g>
			<g>
				<g>
					<ellipse class="st7" cx="95.4" cy="727.9" rx="6.1" ry="7.4"/>
				</g>
				<g>
					<path class="st8" d="M86.7,727.9c0-5.9,4-10.7,8.8-10.7s8.8,4.8,8.8,10.7s-4,10.7-8.8,10.7C90.6,738.6,86.7,733.8,86.7,727.9z
						 M92.2,727.9c0,2.3,1.5,4.1,3.3,4.1s3.3-1.8,3.3-4.1s-1.5-4.1-3.3-4.1S92.2,725.6,92.2,727.9z"/>
				</g>
			</g>
			<g>
				<g>
					<path class="st9" d="M97.9,731.2c1.5,0,2.7-1.5,2.7-3.3c0-4.1-2.7-6.4-5.2-6.4c-1.5,0-2.7,1.5-2.7,3.3c0,1.7,1.1,3.2,2.5,3.3
						C95.3,729.9,96.6,731.2,97.9,731.2z"/>
				</g>
			</g>
		</g>
		<g>
			<g>
				<g>
					<ellipse class="st7" cx="59.2" cy="727.9" rx="6.1" ry="7.4"/>
				</g>
				<g>
					<path class="st8" d="M50.4,727.9c0-5.9,4-10.7,8.8-10.7S68,722,68,727.9s-4,10.7-8.8,10.7S50.4,733.8,50.4,727.9z M55.9,727.9
						c0,2.3,1.5,4.1,3.3,4.1s3.3-1.8,3.3-4.1s-1.5-4.1-3.3-4.1S55.9,725.6,55.9,727.9z"/>
				</g>
			</g>
			<g>
				<g>
					<path class="st9" d="M61.7,731.2c1.5,0,2.7-1.5,2.7-3.3c0-4.1-2.7-6.4-5.2-6.4c-1.5,0-2.7,1.5-2.7,3.3c0,1.7,1.1,3.2,2.5,3.3
						C59.1,729.9,60.2,731.2,61.7,731.2z"/>
				</g>
			</g>
		</g>
		<g>
			<g>
				<g>
					<ellipse class="st7" cx="22.4" cy="727.9" rx="6.1" ry="7.4"/>
				</g>
				<g>
					<path class="st8" d="M13.6,727.9c0-5.9,4-10.7,8.8-10.7s8.8,4.8,8.8,10.7s-4,10.7-8.8,10.7S13.6,733.8,13.6,727.9z M19.2,727.9
						c0,2.3,1.5,4.1,3.3,4.1c1.9,0,3.3-1.8,3.3-4.1s-1.5-4.1-3.3-4.1C20.6,723.8,19.2,725.6,19.2,727.9z"/>
				</g>
			</g>
			<g>
				<g>
					<path class="st9" d="M24.8,731.2c1.5,0,2.7-1.5,2.7-3.3c0-4.1-2.7-6.4-5.2-6.4c-1.5,0-2.7,1.5-2.7,3.3c0,1.7,1.1,3.2,2.5,3.3
						C22.3,729.9,23.5,731.2,24.8,731.2z"/>
				</g>
			</g>
		</g>
		<g>
			<g>
				<g>
					<ellipse class="st7" cx="22.1" cy="675.9" rx="6.1" ry="7.4"/>
				</g>
				<g>
					<path class="st8" d="M13.3,675.9c0-5.9,4-10.7,8.8-10.7s8.8,4.8,8.8,10.7s-4,10.7-8.8,10.7S13.3,681.8,13.3,675.9z M18.9,675.9
						c0,2.3,1.5,4.1,3.3,4.1c1.9,0,3.3-1.8,3.3-4.1s-1.5-4.1-3.3-4.1C20.3,671.8,18.9,673.6,18.9,675.9z"/>
				</g>
			</g>
			<g>
				<g>
					<path class="st9" d="M24.6,679.2c1.5,0,2.7-1.5,2.7-3.3c0-4.1-2.7-6.4-5.2-6.4c-1.5,0-2.7,1.5-2.7,3.3c0,1.7,1.1,3.2,2.5,3.3
						C22,678,23.1,679.2,24.6,679.2z"/>
				</g>
			</g>
		</g>
		<g>
			<g>
				<g>
					<ellipse class="st7" cx="22.1" cy="623.3" rx="6.1" ry="7.4"/>
				</g>
				<g>
					<path class="st8" d="M13.3,623.3c0-5.9,4-10.7,8.8-10.7s8.8,4.8,8.8,10.7s-4,10.7-8.8,10.7S13.3,629.2,13.3,623.3z M18.9,623.3
						c0,2.3,1.5,4.1,3.3,4.1c1.9,0,3.3-1.8,3.3-4.1s-1.5-4.1-3.3-4.1C20.3,619.2,18.9,621,18.9,623.3z"/>
				</g>
			</g>
			<g>
				<g>
					<path class="st9" d="M24.6,626.6c1.5,0,2.7-1.5,2.7-3.3c0-4.1-2.7-6.4-5.2-6.4c-1.5,0-2.7,1.5-2.7,3.3c0,1.7,1.1,3.2,2.5,3.3
						C22,625.2,23.1,626.6,24.6,626.6z"/>
				</g>
			</g>
		</g>
		<g>
			<g>
				<g>
					<ellipse class="st7" cx="22.1" cy="566" rx="6.1" ry="7.4"/>
				</g>
				<g>
					<path class="st8" d="M13.3,566c0-5.9,4-10.7,8.8-10.7s8.8,4.8,8.8,10.7s-4,10.7-8.8,10.7S13.3,571.9,13.3,566z M18.9,566
						c0,2.3,1.5,4.1,3.3,4.1c1.9,0,3.3-1.8,3.3-4.1s-1.5-4.1-3.3-4.1C20.3,561.9,18.9,563.7,18.9,566z"/>
				</g>
			</g>
			<g>
				<g>
					<path class="st9" d="M24.6,569.3c1.5,0,2.7-1.5,2.7-3.3c0-4.1-2.7-6.4-5.2-6.4c-1.5,0-2.7,1.5-2.7,3.3c0,1.7,1.1,3.2,2.5,3.3
						C22,567.9,23.1,569.3,24.6,569.3z"/>
				</g>
			</g>
		</g>
	</g>
	<g>
		<g>
			<g>
				<path class="st4" d="M15.9,180.4V5.1H188c1.1,0,1.5,1.7,0.7,2.4l-40.1,40.4l-103,1.2L47,150.4L16.9,181
					C16.6,181.4,15.9,181,15.9,180.4z"/>
				<path class="st5" d="M15.7,182.5c-0.6-0.5-1.1-1.2-1.1-2.1V3.6h173.3c1,0,1.9,0.8,2.2,2c0.4,1.2,0,2.4-0.7,3.2L149,49.6
					L46.7,50.8l1.4,100.6l-30.5,30.8c-0.4,0.3-0.7,0.5-1.2,0.5C16.2,182.6,15.9,182.6,15.7,182.5z M44.4,47.8l103.9-1.2l39.4-39.8
					H17.2v171.9L45.7,150L44.4,47.8z"/>
			</g>
		</g>
		<g>
			<g>
				<g>
					<ellipse class="st7" cx="28.6" cy="144.4" rx="5.3" ry="6.5"/>
				</g>
				<g>
					<path class="st8" d="M20.8,144.4c0-5.3,3.5-9.5,7.8-9.5s7.8,4.2,7.8,9.5s-3.5,9.5-7.8,9.5S20.8,149.7,20.8,144.4z M25.6,144.4
						c0,2,1.4,3.5,2.8,3.5s2.8-1.7,2.8-3.5s-1.4-3.5-2.8-3.5S25.6,142.4,25.6,144.4z"/>
				</g>
			</g>
			<g>
				<g>
					<path class="st9" d="M30.7,147.4c1.4,0,2.5-1.4,2.5-3c0-3.6-2.3-5.6-4.6-5.6c-1.4,0-2.5,1.4-2.5,3c0,1.5,1,2.9,2.1,3
						C28.4,146.2,29.4,147.4,30.7,147.4z"/>
				</g>
			</g>
		</g>
		<g>
			<g>
				<g>
					<ellipse class="st7" cx="28.6" cy="103.3" rx="5.3" ry="6.5"/>
				</g>
				<g>
					<path class="st8" d="M20.8,103.3c0-5.3,3.5-9.5,7.8-9.5s7.8,4.2,7.8,9.5s-3.5,9.5-7.8,9.5S20.8,108.4,20.8,103.3z M25.6,103.3
						c0,2,1.4,3.5,2.8,3.5s2.8-1.7,2.8-3.5s-1.4-3.5-2.8-3.5S25.6,101.3,25.6,103.3z"/>
				</g>
			</g>
			<g>
				<g>
					<path class="st9" d="M30.7,106.1c1.4,0,2.5-1.4,2.5-3c0-3.6-2.3-5.6-4.6-5.6c-1.4,0-2.5,1.4-2.5,3c0,1.5,1,2.9,2.1,3
						C28.4,105.1,29.4,106.1,30.7,106.1z"/>
				</g>
			</g>
		</g>
		<g>
			<g>
				<g>
					<ellipse class="st7" cx="28.6" cy="63.9" rx="5.3" ry="6.5"/>
				</g>
				<g>
					<path class="st8" d="M20.8,63.9c0-5.3,3.5-9.5,7.8-9.5s7.8,4.2,7.8,9.5s-3.5,9.5-7.8,9.5S20.8,69.2,20.8,63.9z M25.6,63.9
						c0,2,1.4,3.5,2.8,3.5s2.8-1.7,2.8-3.5c0-2-1.4-3.5-2.8-3.5S25.6,62,25.6,63.9z"/>
				</g>
			</g>
			<g>
				<g>
					<path class="st9" d="M30.7,66.8c1.4,0,2.5-1.4,2.5-3c0-3.6-2.3-5.6-4.6-5.6c-1.4,0-2.5,1.4-2.5,3c0,1.5,1,2.9,2.1,3
						C28.4,65.8,29.4,66.8,30.7,66.8z"/>
				</g>
			</g>
		</g>
		<g>
			<g>
				<g>
					<ellipse class="st7" cx="28.6" cy="24" rx="5.3" ry="6.5"/>
				</g>
				<g>
					<path class="st8" d="M20.8,24c0-5.3,3.5-9.5,7.8-9.5s7.8,4.2,7.8,9.5s-3.5,9.5-7.8,9.5S20.8,29.3,20.8,24z M25.6,24
						c0,2,1.4,3.5,2.8,3.5s2.8-1.7,2.8-3.5s-1.4-3.5-2.8-3.5S25.6,22.1,25.6,24z"/>
				</g>
			</g>
			<g>
				<g>
					<path class="st9" d="M30.7,27.1c1.4,0,2.5-1.4,2.5-3c0-3.6-2.3-5.6-4.6-5.6c-1.4,0-2.5,1.4-2.5,3c0,1.5,1,2.9,2.1,3
						C28.4,25.8,29.4,27.1,30.7,27.1z"/>
				</g>
			</g>
		</g>
		<g>
			<g>
				<g>
					<ellipse class="st7" cx="66.1" cy="23.7" rx="5.3" ry="6.5"/>
				</g>
				<g>
					<path class="st8" d="M58.4,23.7c0-5.3,3.5-9.5,7.8-9.5s7.8,4.2,7.8,9.5s-3.5,9.5-7.8,9.5S58.4,29,58.4,23.7z M63.3,23.7
						c0,2,1.4,3.5,2.8,3.5c1.6,0,2.8-1.7,2.8-3.5s-1.4-3.5-2.8-3.5C64.5,20.3,63.3,21.8,63.3,23.7z"/>
				</g>
			</g>
			<g>
				<g>
					<path class="st9" d="M68.2,26.8c1.4,0,2.5-1.4,2.5-3c0-3.6-2.3-5.6-4.6-5.6c-1.4,0-2.5,1.4-2.5,3c0,1.5,1,2.9,2.1,3
						C66,25.5,67,26.8,68.2,26.8z"/>
				</g>
			</g>
		</g>
		<g>
			<g>
				<g>
					<ellipse class="st7" cx="104.2" cy="23.7" rx="5.3" ry="6.5"/>
				</g>
				<g>
					<path class="st8" d="M96.4,23.7c0-5.3,3.5-9.5,7.8-9.5s7.8,4.2,7.8,9.5s-3.5,9.5-7.8,9.5C99.9,33.3,96.4,29,96.4,23.7z
						 M101.4,23.7c0,2,1.4,3.5,2.8,3.5c1.6,0,2.8-1.7,2.8-3.5s-1.4-3.5-2.8-3.5C102.6,20.3,101.4,21.8,101.4,23.7z"/>
				</g>
			</g>
			<g>
				<g>
					<path class="st9" d="M106.5,26.8c1.4,0,2.5-1.4,2.5-3c0-3.6-2.3-5.6-4.6-5.6c-1.4,0-2.5,1.4-2.5,3c0,1.5,1,2.9,2.1,3
						C104.1,25.5,105.2,26.8,106.5,26.8z"/>
				</g>
			</g>
		</g>
		<g>
			<g>
				<g>
					<ellipse class="st7" cx="145.8" cy="23.7" rx="5.3" ry="6.5"/>
				</g>
				<g>
					<path class="st8" d="M138,23.7c0-5.3,3.5-9.5,7.8-9.5s7.8,4.2,7.8,9.5s-3.5,9.5-7.8,9.5S138,29,138,23.7z M142.9,23.7
						c0,2,1.4,3.5,2.8,3.5c1.6,0,2.8-1.7,2.8-3.5s-1.4-3.5-2.8-3.5C144.2,20.3,142.9,21.8,142.9,23.7z"/>
				</g>
			</g>
			<g>
				<g>
					<path class="st9" d="M147.9,26.8c1.4,0,2.5-1.4,2.5-3c0-3.6-2.3-5.6-4.6-5.6c-1.4,0-2.5,1.4-2.5,3c0,1.5,1,2.9,2.1,3
						C145.6,25.5,146.6,26.8,147.9,26.8z"/>
				</g>
			</g>
		</g>
	</g>
</g>
<g>
	<g>
		<g>
			<path class="st10" d="M682.6,754.7c10.8-9.4,25.1-13.7,39.2-11.9c25.5,3.3,66.6,8,87.4,7l79.8-3.6c75.1-3.4,150.4-3.6,225.5-0.7
				l225.2,8.7l-4.9-77.4l-44.4-17.3l42.3-16.5l-9.2-146.5c-5.4-85.6-5.1-171.4,0.7-257l15.5-227.1l-63.8,2.2l-4.9,20.8l-15.6-20.1
				l-154.5,5.2c-69.6,2.4-139.2,2.1-208.8-0.7l-154.4-6.2c-17.9-0.7-35.2,6.7-47.1,20.1l-5.4,6.1l-3.3,714.4
				C681.9,754.8,682.3,755,682.6,754.7L682.6,754.7z"/>
			<path class="st11" d="M741.4,452.3l-8.1,193c-1,24.1-5.3,48-12.6,71.2l0,0l14.3,2.8c28.9,5.7,58.5,7.9,88,6.6l74.5-3.3
				c70.2-3.1,140.5-3.3,210.7-0.6l210.4,8.1l-3.8-52.2l-39-18.2l37.8-17.8l-10.1-152.6c-5-80-4.8-160.2,0.6-240.1L1318.7,37
				l-38.3,1.5l-8.8,6.1l-8.6-5.5l-167.4,5.4c-65,2.2-130.1,2-195.1-0.6L729.7,37l7.7,164.1l20,4.9l-19.8,13.4l3.7,72.8
				c0,0.9,0.2-0.9,0.3,7.6l23.6,10.4l-23.5,11.1C742.1,356.6,742.8,419.6,741.4,452.3z"/>
			<path class="st12" d="M1086,69.9c-56.6,2.1-113.3,1.9-169.8-0.6l-113.8-5c-16.8-0.7-30.8,11.7-30.2,26.8l8.7,207.9
				c0.2,4.2,1.8,107.9,0.2,148.1l-7,178.5c-0.9,22.3-4.5,44.4-10.8,65.8l0,0l12.3,2.6c24.8,5.3,50.2,7.3,75.5,6.1l62.5-3
				c61.1-2.9,122.4-3.1,183.5-0.6l147.2,6.1c17,0.7,31-11.9,30.1-27.2l-11.2-192.8c-4.4-74.9-4.2-150,0.6-224.9l10.5-166.4
				c1-15.3-12.9-27.9-29.9-27.3L1086,69.9z"/>
		</g>
		<g class="st13">
			<path class="st5" d="M748.4,702.3l-0.6,12l13.4-0.5L748.4,702.3z M749.8,705.6l7.8,7l-8.1,0.3L749.8,705.6z"/>
			<g>
				<path class="st5" d="M1304,664.1v46.5l-3.2-4.2v-43.5l-1.6-0.6v37.6l-20.2,17.3h-3l-509-1.9l-20.2-17.4l6.7-244.4
					c0.9-32.7-0.1-65.3-2.9-97.9l-3.9-44.9l-1.6,0.4l3.8,44.5c2.8,32.5,3.8,65.1,2.9,97.7l-6.8,251l-3.2,4.3l6.8-255.1
					c0.9-32.8-0.1-65.5-3-98.2L742,312l-1.6,0.4l3.8,42.8c2.9,32.7,3.9,65.6,3,98.4l-6.8,257.1l-3.7,4.9l0.1,0.1
					c-0.1,0.2-0.2,0.4-0.2,0.6v2.6h-5.3l-1.9,12l13.4-1.7v-4.5h2.9c0.3,0,0.6-0.1,0.8-0.3l5.3-3.2l522.6,2l0,0h19.7l5.3,3.2
					c0.2,0.2,0.5,0.3,0.8,0.3h2.9v4.5l13.4,1.7l-1.9-12h-5.3v-2.6c0-0.2-0.1-0.4-0.2-0.6l0.1-0.1l-3.7-4.9v-48L1304,664.1z
					 M738.9,715.2l6.3-8.4v8.4H738.9z M746.8,715.2v-15.4l18,15.5L746.8,715.2z M1299.2,701.9v15.4h-17.9L1299.2,701.9z
					 M736.6,724.5h4.6v3.3l-10,1.3l1.4-9h3.9L736.6,724.5L736.6,724.5z M738.2,720.2h3.1v3h-3.1V720.2z M742.8,723.1v-4.4h-4.6v-2.1
					h7v6.5H742.8z M746.8,722.3v-5.7h9.3L746.8,722.3z M1313.2,722.2l1.4,9l-10-1.3v-3.3h4.6v-4.4H1313.2z M1307.8,722.2v3h-3.1v-3
					H1307.8z M1307.8,718.7v2.1h-4.6v4.4h-2.4v-6.5H1307.8z M1299.2,718.7v5.7l-9.4-5.7H1299.2z M1274.4,718.7L1274.4,718.7h12.6
					l4.8,2.9H1276l-521.9-2l4.7-2.9L1274.4,718.7z M1307.1,717.3h-6.3v-8.4L1307.1,717.3z"/>
				<path class="st5" d="M751.8,42l-5.3-3.2c-0.2-0.2-0.5-0.3-0.8-0.3h-2.9V34l-13.4-1.7l1.9,12h5.3v2.6c0,0.2,0.1,0.4,0.2,0.6
					l-0.1,0.1l3.7,4.9V71h0.1v236l1.6,0.5V69.6H742V54.4l3.2,4.2V71h0.1v237.5l1.6,0.5V69.5h-0.1V65l20.1-17.3l203.3,7.6
					c36.9,1.4,73.8,1.5,110.7,0.3l193.6-6l0,0h4.6l20.2,17.3v4.5V73l-11.6,275.3c-0.8,20.1-0.8,40.2,0.1,60.3l11.5,248.6l1.6-0.6
					l-11.5-248c-0.9-20.1-1-40.3-0.1-60.4L1300.8,73v-1.5v-11l3.2-4.2v15.2V73l-11.6,275.2c-0.9,20.2-0.8,40.3,0.1,60.5l11.5,246.7
					l1.6-0.6l-11.6-246c-0.9-20.2-1-40.4-0.1-60.6L1305.5,73v-1.5V54.3l3.7-4.9l-0.1-0.1c0.1-0.2,0.2-0.4,0.2-0.6v-2.6h5.3l1.9-12
					l-13.4,1.7v4.5h-2.9c-0.3,0-0.6,0.1-0.8,0.3l-5.3,3.2H1276l-197.1,6.1c-35.7,1.1-71.5,1-107.3-0.3L751.8,42z M1307.1,49.8
					l-6.3,8.4v-8.4C1300.8,49.8,1307.1,49.8,1307.1,49.8z M1299.2,49.8v15.4l-17.9-15.4C1281.3,49.8,1299.2,49.8,1299.2,49.8z
					 M732.7,42.8l-1.4-9l10,1.3v3.3h-4.6v4.4H732.7z M738.2,42.8v-3h3.1v3H738.2z M738.2,46.3v-2.1h4.6v-4.4h2.4v6.5H738.2z
					 M746.8,46.3v-5.7l9.4,5.7H746.8z M738.9,47.7h6.3v8.4L738.9,47.7z M746.8,63.1V47.7l17.8,0.1L746.8,63.1z M1309.3,40.5h-4.6
					v-3.3l10-1.3l-1.4,9h-3.9L1309.3,40.5L1309.3,40.5z M1307.8,44.8h-3.1v-3h3.1V44.8z M1303.1,41.9v4.4h4.6v2.1h-7v-6.5H1303.1z
					 M1299.2,42.6v5.7h-9.4L1299.2,42.6z M1274.4,45.4L1274.4,45.4h17.4l-4.8,2.9h-11l-196.3,6.1c-36.2,1.1-72.5,1-108.7-0.3
					l-212-7.7l-4.9-2.9l216.5,7.8c36,1.3,72.1,1.4,108.1,0.3L1274.4,45.4z"/>
			</g>
			<path class="st5" d="M761.2,49.1l-13.4-0.5l0.6,12L761.2,49.1z M757.6,50.4l-7.8,7l-0.3-7.3L757.6,50.4z"/>
			<path class="st5" d="M1284.7,715.9l13.4,0.5l-0.6-12L1284.7,715.9z M1288.3,714.6l7.8-7l0.3,7.3L1288.3,714.6z"/>
			<path class="st5" d="M1297.6,62.7l0.6-12l-13.4,0.5L1297.6,62.7z M1296.1,59.4l-7.8-7l8.1-0.3L1296.1,59.4z"/>
		</g>
	</g>
	<g>
		<g>
			<path class="st10" d="M683.4,754.7c-10.8-9.4-25.1-13.7-39.2-11.9c-25.5,3.3-66.6,8-87.4,7l-79.8-3.6
				c-75.1-3.4-150.4-3.6-225.5-0.7l-225.2,8.7l4.9-77.4l44.4-17.3L33.3,643l9.2-146.5c5.4-85.6,5.1-171.4-0.7-257L26.3,12.7
				l63.8,2.2L95,35.7l15.6-20.1l154.5,5.2c69.6,2.4,139.2,2.1,208.8-0.7l154.4-6.2c17.9-0.7,35.2,6.7,47.1,20.1l5.4,6.1l3.3,714.4
				C684.1,754.8,683.7,755,683.4,754.7L683.4,754.7z"/>
			<path class="st11" d="M624.6,452.3l8.1,193c1,24.1,5.3,48,12.6,71.2l0,0l-14.3,2.8c-28.9,5.7-58.5,7.9-88,6.6l-74.5-3.3
				c-70.2-3.1-140.5-3.3-210.7-0.6l-210.5,8l3.8-52.2l39-18.2l-37.8-17.8l10.1-152.6c5-80,4.8-160.2-0.6-240.1L47.3,37l38.3,1.5
				l8.8,6.1l8.6-5.5l167.4,5.4c65,2.2,130.1,2,195.1-0.6L636.3,37l-7.7,164l-20,4.9l19.8,13.4l-3.7,72.8c0,0.9-0.2-0.9-0.3,7.6
				L601,310.1l23.5,11.1C623.9,356.6,623.2,419.6,624.6,452.3z"/>
			<path class="st12" d="M280,69.9c56.6,2.1,113.3,1.9,169.8-0.6l113.8-5c16.8-0.7,30.8,11.7,30.2,26.8L585.1,299
				c-0.2,4.2-1.8,107.9-0.2,148.1l7,178.5c0.9,22.3,4.5,44.4,10.8,65.8l0,0l-12.3,2.6c-24.8,5.3-50.2,7.3-75.5,6.1l-62.5-3
				c-61.1-2.9-122.4-3.1-183.5-0.6l-147.2,6.1c-17,0.7-31-11.9-30.1-27.2l11.2-192.8c4.4-74.9,4.2-150-0.6-224.9L91.8,91.5
				c-1-15.3,12.9-27.9,29.9-27.3L280,69.9z"/>
		</g>
		<g class="st13">
			<path class="st5" d="M604.8,713.9l13.4,0.5l-0.6-12L604.8,713.9z M616.5,712.9l-8.1-0.3l7.8-7L616.5,712.9z"/>
			<g>
				<path class="st5" d="M60.5,664.7v48l-3.7,4.9l0.1,0.1c-0.1,0.2-0.2,0.4-0.2,0.6v2.6h-5.3l-1.9,12l13.4-1.7v-4.5h2.9
					c0.3,0,0.6-0.1,0.8-0.3l5.3-3.2h19.7l0,0l522.6-2l5.3,3.2c0.2,0.2,0.5,0.3,0.8,0.3h2.9v4.5l13.4,1.7l-1.9-12h-5.3v-2.6
					c0-0.2-0.1-0.4-0.2-0.6l0.1-0.1l-3.7-4.9l-6.8-257.1c-0.9-32.8,0.1-65.7,3-98.4l3.8-42.8L624,312l-3.8,43.3
					c-2.9,32.7-3.8,65.5-3,98.2l6.8,255.1l-3.2-4.3l-6.8-251c-0.9-32.6,0.1-65.2,2.9-97.7l3.8-44.5l-1.6-0.4l-3.9,44.9
					c-2.8,32.6-3.8,65.3-2.9,97.9l6.7,244.4l-20,17.4l-509,1.9h-3l-20.2-17.3v-37.6l-1.6,0.6v43.5l-3.2,4.2v-46.5L60.5,664.7z
					 M620.8,715.2v-8.4l6.3,8.4H620.8z M601.3,715.3l18-15.5v15.4L601.3,715.3z M84.7,717.3H66.8v-15.4L84.7,717.3z M629.4,720.2
					h3.9l1.4,9l-10-1.3v-3.3h4.6L629.4,720.2L629.4,720.2z M627.8,723.1h-3.1v-3h3.1V723.1z M620.8,723.1v-6.5h7v2.1h-4.6v4.4H620.8
					z M609.9,716.7h9.3v5.7L609.9,716.7z M56.7,722.2v4.4h4.6v3.3l-10,1.3l1.4-9H56.7z M61.3,722.2v3h-3.1v-3H61.3z M65.2,718.7v6.5
					h-2.4v-4.4h-4.6v-2.1H65.2z M76.2,718.7l-9.4,5.7v-5.7H76.2z M607.1,716.7l4.7,2.9l-521.9,2H74.2l4.8-2.9h12.6l0,0L607.1,716.7z
					 M65.2,708.9v8.4h-6.3L65.2,708.9z"/>
				<path class="st5" d="M394.4,49.8c-35.7,1.3-71.5,1.4-107.3,0.3L90,44H71.9l-5.3-3.2c-0.2-0.2-0.5-0.3-0.8-0.3h-2.9V36l-13.4-1.7
					l1.9,12h5.3v2.6c0,0.2,0.1,0.4,0.2,0.6l-0.1,0.1l3.7,4.9v17.3V73l11.6,275.2c0.9,20.2,0.8,40.4-0.1,60.6L60.5,654.9l1.6,0.6
					l11.5-246.7c0.9-20.2,1-40.3,0.1-60.5L62,73v-1.5V56.4l3.2,4.2v11V73l11.6,275.3c0.9,20.1,0.8,40.3-0.1,60.4l-11.5,248l1.6,0.6
					l11.5-248.6c0.9-20.1,1-40.2,0.1-60.3L66.8,73v-1.5V67L87,49.8h4.6l0,0l193.6,6c36.9,1.1,73.8,1,110.7-0.3l203.3-7.6l20.1,17.3
					v4.5h-0.1v239.5l1.6-0.5V71.2h0.1V58.6l3.2-4.2v15.2H624v237.9l1.6-0.5V71h0.1V52.3l3.7-4.9l-0.1-0.1c0.1-0.2,0.2-0.4,0.2-0.6
					v-2.6h5.3l1.9-12l-13.4,1.7v4.5h-2.9c-0.3,0-0.6,0.1-0.8,0.3l-5.3,3.2L394.4,49.8z M65.2,49.8v8.4l-6.3-8.4
					C58.9,49.8,65.2,49.8,65.2,49.8z M84.7,49.8L66.8,65.2V49.8H84.7z M629.4,42.8v-4.4h-4.6v-3.3l10-1.3l-1.4,9H629.4z M624.7,42.8
					v-3h3.1v3H624.7z M620.8,46.3v-6.5h2.4v4.4h4.6v2.1H620.8z M609.8,46.4l9.4-5.7v5.7H609.8z M620.8,56.1v-8.4h6.3L620.8,56.1z
					 M601.4,47.8l17.8-0.1v15.4L601.4,47.8z M56.7,44.8h-3.9l-1.4-9l10,1.3v3.3h-4.6L56.7,44.8L56.7,44.8z M58.2,41.9h3.1v3h-3.1
					V41.9z M65.2,41.9v6.5h-7v-2.1h4.6v-4.4H65.2z M76.2,48.3h-9.4v-5.7L76.2,48.3z M287.2,51.5c36,1.1,72.1,1,108.1-0.3l216.5-7.8
					l-4.9,2.9l-212,7.7c-36.2,1.3-72.5,1.4-108.7,0.3L90,48.3H79l-4.8-2.9h17.4l0,0L287.2,51.5z"/>
			</g>
			<path class="st5" d="M617.6,60.6l0.6-12l-13.4,0.5L617.6,60.6z M616.5,50.1l-0.3,7.3l-7.8-7L616.5,50.1z"/>
			<path class="st5" d="M68.4,704.4l-0.6,12l13.4-0.5L68.4,704.4z M69.5,714.9l0.3-7.3l7.8,7L69.5,714.9z"/>
			<path class="st5" d="M81.3,51.1l-13.4-0.5l0.6,12L81.3,51.1z M69.5,52.1l8.1,0.3l-7.8,7L69.5,52.1z"/>
		</g>
	</g>
</g>
</svg>
