<?xml version="1.0" encoding="utf-8"?>
<!-- Generator: Adobe Illustrator 24.2.1, SVG Export Plug-In . SVG Version: 6.00 Build 0)  -->
<svg version="1.1" id="Lag_1" xmlns="http://www.w3.org/2000/svg" xmlns:xlink="http://www.w3.org/1999/xlink" x="0px" y="0px"
	 viewBox="0 0 1104 632.3" style="enable-background:new 0 0 1104 632.3;" xml:space="preserve">
<style type="text/css">
	.st0{fill:#7A5849;stroke:#110B09;stroke-width:2;stroke-miterlimit:10;}
	.st1{fill:#604333;stroke:#110B09;stroke-width:2;stroke-miterlimit:10;}
	.st2{fill:#D8B75B;stroke:#110B09;stroke-width:2;stroke-miterlimit:10;}
	.st3{fill:none;stroke:#F4DFAB;stroke-width:2;stroke-linecap:round;stroke-miterlimit:10;}
	.st4{fill:#493429;}
	.st5{fill:#382821;}
	.st6{opacity:0.39;}
	.st7{fill:#D3C3B2;stroke:#110B09;stroke-width:2;stroke-miterlimit:10;}
	.st8{fill:none;stroke:#110B09;stroke-width:2;stroke-miterlimit:10;}
	.st9{fill:#E5D2BA;stroke:#110B09;stroke-width:2;stroke-miterlimit:10;}
	.st10{fill:#D3BA9F;}
	.st11{opacity:0.53;fill:#D3BA9F;}
	.st12{opacity:0.56;fill:#DDCCB6;}
	.st13{opacity:0.53;fill:#E0D1C1;}
	.st14{fill:#AD6751;stroke:#110B09;stroke-width:2;stroke-miterlimit:10;}
</style>
<g>
	<g>
		<path class="st0" d="M1077.4,144.9c0.7-8.4-5.9-15.5-14.3-15.5H622.9H482.1H41.9c-8.4,0-15,7.2-14.3,15.5L16.4,600.7
			c-0.7,8.9,6.9,16.3,15.8,15.4l127.6-13.3c41.2-4.3,82.5-6.8,123.9-7.4l204.9-3.3c0,0,10.6-13.2,22.6,2.4h0
			c24.6,7.3,50.7,8,75.7,2.1l13.8-3.3c0,0,10.7-15.1,21-1.2l199.8,3.2c41.4,0.7,82.7,3.1,123.9,7.4l127.6,13.3
			c8.9,0.9,16.5-6.5,15.8-15.4L1077.4,144.9z"/>
		<path class="st1" d="M1064.6,146.3c0.7-8.4-5.9-15.5-14.3-15.5H621.2H483.8H54.7c-8.4,0-15,7.2-14.3,15.5L29.4,586.8
			c-0.7,8.9,6.9,16.3,15.8,15.4l124.1-12.8c40.2-4.2,80.5-6.6,120.9-7.2l199.9-3.2c0,0,11.8-12.5,22,2.3h0c24,7.1,49.5,7.8,73.9,2.1
			l13.5-3.2c0,0,11.9-10.6,20.5-1.2l194.9,3.1c40.4,0.6,80.7,3,120.9,7.2l124.1,12.8c8.9,0.9,16.5-6.5,15.8-15.4L1064.6,146.3z"/>
		<g>
			<path class="st2" d="M1085.9,590.3c-6.1-6.1-6.1-15.9,0-22c2.6-2.6,5.9-4.1,9.3-4.5c-2-5-1.6-9.5-5.1-13.5L1078.7,196
				c4.2-4.3,4.3-9.4,6.6-15.1c-3.4-0.4-6.7-1.8-9.3-4.5c-6.1-6.1-6.1-15.9,0-22c2.9-2.9,6.6-4.4,10.4-4.5
				c-4.5-13.9-15.5-24.9-29.4-29.4c-0.1,3.8-1.7,7.5-4.5,10.4c-6.1,6.1-15.9,6.1-22,0c-2.6-2.6-4.1-5.9-4.5-9.3
				c-16.8,6.7-28.7,23.2-28.7,42.4h34.7l-9,19.9l19.9-9v34.7c8.3,0,16.1-2.2,22.7-6.1l11.7,338.7c-7.1-4.5-15.5-7.1-24.5-7.1v34.7
				l-19.9-9l9,19.9h-34.7c0,19.2,11.9,35.6,28.7,42.4c0.4-3.4,1.8-6.7,4.5-9.3c6.1-6.1,15.9-6.1,22,0c2.9,2.9,4.4,6.6,4.5,10.4
				c13.9-4.5,24.9-15.5,29.4-29.4C1092.5,594.7,1088.8,593.2,1085.9,590.3z"/>
			<path class="st3" d="M1071.8,139.4c1.2,1.6,2.2,3.5,2.8,5.4v0"/>
			<path class="st3" d="M1063.3,132.7l1.7,0.9c0.8,0.4,1.6,0.9,2.4,1.5"/>
			<path class="st3" d="M1078.3,183.9l-0.3,0.9c-0.7,2.3-1.9,4.3-3.4,6.1v0"/>
			<line class="st3" x1="1059.8" y1="200" x2="1056.6" y2="202.1"/>
			<line class="st3" x1="1075.3" y1="288.5" x2="1074.9" y2="299.2"/>
			<line class="st3" x1="1075.8" y1="269.8" x2="1075.5" y2="281.2"/>
			<line class="st3" x1="1076.4" y1="253.7" x2="1076.2" y2="259.9"/>
			<path class="st3" d="M1058.6,540.1l2.4,0.4c3.7,0.6,7.2,2.2,10.1,4.5l0,0"/>
		</g>
		<g>
			<path class="st2" d="M18.1,590.7c6.1-6.1,6.1-15.9,0-22c-2.6-2.6-5.9-4.1-9.3-4.5c2-5,1.6-9.5,5.1-13.5l11.5-354.4
				c-4.2-4.3-4.3-9.4-6.6-15.1c3.4-0.4,6.7-1.8,9.3-4.5c6.1-6.1,6.1-15.9,0-22c-2.9-2.9-6.6-4.4-10.4-4.5
				c4.5-13.9,15.5-24.9,29.4-29.4c0.1,3.8,1.7,7.5,4.5,10.4c6.1,6.1,15.9,6.1,22,0c2.6-2.6,4.1-5.9,4.5-9.3
				c16.8,6.7,28.7,23.2,28.7,42.4H72l9,19.9l-19.9-9V210c-8.3,0-16.1-2.2-22.7-6.1L26.6,542.7c7.1-4.5,15.5-7.1,24.5-7.1v34.7
				l19.9-9l-9,19.9h34.7c0,19.2-11.9,35.6-28.7,42.4c-0.4-3.4-1.8-6.7-4.5-9.3c-6.1-6.1-15.9-6.1-22,0c-2.9,2.9-4.4,6.6-4.5,10.4
				c-13.9-4.5-24.9-15.5-29.4-29.4C11.5,595.1,15.2,593.6,18.1,590.7z"/>
			<path class="st3" d="M30.6,138.2c-1.7,1.8-3.3,3.8-4.7,5.8l-0.6,0.8"/>
			<path class="st3" d="M41.9,129.4L41.9,129.4c-2,1.1-3.9,2.4-5.7,3.8"/>
			<line class="st3" x1="27.5" y1="363.6" x2="26.2" y2="377.9"/>
			<line class="st3" x1="29.9" y1="345" x2="28.6" y2="354.7"/>
		</g>
		<path class="st4" d="M591.6,260.5l-74.2,1.8l-4.3,308.1h0c25.5,7.1,52.5,7.8,78.3,2.1L591.6,260.5z"/>
		<path class="st5" d="M591.6,243.5l-74.2,1.8l-4.3,308.1h0c25.5,7.1,52.5,7.8,78.3,2.1L591.6,243.5z"/>
		<g>
			<path class="st5" d="M490.1,574c-2.1-29-3-57.9-3.6-86.9c-0.5-28.9-0.5-57.9-0.1-86.8c0.4-28.9,1.2-57.9,2.4-86.8
				c1.3-28.9,3-57.8,5.9-86.7c2.1,29,3,57.9,3.6,86.9c0.5,28.9,0.5,57.9,0.1,86.8c-0.4,28.9-1.2,57.9-2.4,86.8
				C494.6,516.2,493,545.1,490.1,574z"/>
		</g>
		<g>
			<path class="st5" d="M619.9,574.1c-2.9-28.9-4.6-57.8-5.9-86.8c-1.3-28.9-2.1-57.9-2.5-86.8c-0.4-28.9-0.4-57.9,0-86.8
				c0.5-29,1.4-57.9,3.5-86.9c2.9,28.9,4.6,57.8,6,86.8c1.3,28.9,2.1,57.9,2.5,86.8c0.4,28.9,0.4,57.9-0.1,86.8
				C622.8,516.2,622,545.1,619.9,574.1z"/>
		</g>
	</g>
	<g>
		<g>
			<path class="st6" d="M623,562.3l143.4,19.2c10.2-0.2,20.4,0.4,30.5,1.8l120.5,16.4c8.9,1.2,17.8,2,26.8,2.4l114.5,4.6
				l-16.2-189.8c-2.5-29.8-2.5-59.9,0.2-89.7l14.6-162.6l-441.1-15.2L623,562.3z"/>
			<g>
				<path class="st7" d="M538.3,459.6l62.5-333.8l14.3-3.8c18.1-4.8,36.6-7.5,55.3-8.1h0c19.6-0.6,39.3,1.3,58.5,5.5l78.2,17.1
					c19.5,4.3,39.2,7.6,58.9,9.9l40.3,4.8c15.6,1.8,31.2,3.1,46.9,3.7l0.7,0l3.1-77.3l28.2,1.1l6.4,0.2l-1.1,12.4l7,0.4l-1.2,15.9
					l8.5,0.5l-0.8,10l6.9,0.4l-0.4,6.1l8.8,0.5l-0.3,3.8l5.5,0.3l-0.3,3.5l5.3,0.2l-0.4,4.2l7,0.3l-0.7,4.9l4.5,0.2l-0.6,4.2
					l4.4,0.9l-0.7,4.9l4.5,0.2l-0.8,6l4.7,0.2l-7,50.8c-11.2,81.7-13.2,164.5-5.9,246.6l12.9,145.1l-98.4-4
					c-15.7-0.6-31.3-1.9-46.9-3.7L866,589c-19.8-2.3-39.4-5.7-58.9-9.9l-78.2-17.1c-19.2-4.2-38.9-6.1-58.5-5.5h0
					c-18.6,0.5-37.2,3.2-55.3,8.1l-14.3,3.8l-3.8-6.2l-3.8-5.1l-3.8-5.1l-3.8-5.1l-7.2-4.9l-7.1-1.7l-5.2-1.7l-6.4,0.6l-5.4-3.3
					l-4.9,1.1h-5.5h-5.5L538.3,459.6z"/>
				<path class="st8" d="M1047.7,152.8l-7,50.8c-11.2,81.7-13.2,164.5-5.9,246.6l12.9,145.1l-98.4-4c-15.7-0.6-31.3-1.9-46.9-3.7
					l-40.3-4.8c-19.8-2.3-39.4-5.7-58.9-9.9L725,555.8c-19.2-4.2-38.9-6.1-58.5-5.5h0c-18.6,0.5-37.2,3.2-55.3,8.1l-14.3,3.8"/>
				<path class="st8" d="M1043.9,147.7l-7,50.8c-11.2,81.7-13.2,164.5-5.9,246.6l12.9,145.1l-98.4-4c-15.7-0.6-31.3-1.9-46.9-3.7
					l-40.3-4.8c-19.8-2.3-39.4-5.7-58.9-9.9l-78.2-17.1c-19.2-4.2-38.9-6.1-58.5-5.5h0c-18.6,0.5-37.2,3.2-55.3,8.1l-14.3,3.8"/>
				<path class="st8" d="M1040,142.6l-7,50.8c-11.2,81.7-13.2,164.5-5.9,246.6l12.9,145.1l-98.4-4c-15.7-0.6-31.3-1.9-46.9-3.7
					l-40.3-4.8c-19.8-2.3-39.4-5.7-58.9-9.9l-78.2-17.1c-19.2-4.2-38.9-6.1-58.5-5.5h0c-18.6,0.5-37.2,3.2-55.3,8.1l-14.3,3.8"/>
				<path class="st8" d="M1036.2,137.4l-7,50.8c-11.2,81.7-13.2,164.5-5.9,246.6l12.9,145.1l-98.4-4c-15.7-0.6-31.3-1.9-46.9-3.7
					l-40.3-4.8c-19.8-2.3-39.4-5.7-58.9-9.9l-78.2-17.1c-19.2-4.2-38.9-6.1-58.5-5.5h0c-18.6,0.5-37.2,3.2-55.3,8.1l-14.3,3.8"/>
				<path class="st8" d="M1029.5,133l-9.5,106.8c-4.4,49.4-5.1,99.1-2,148.6l11.5,187.3l-91.8-3.9c-16.6-0.7-33.2-2.1-49.7-4.3
					l-51.4-6.7c-20.1-2.6-40.1-6.3-59.8-11L698.5,531c-14.4-3.4-29.1-5.1-43.9-4.9l0,0c-17.3,0.2-34.4,2.9-51,8l-25.3,7.8"/>
				<path class="st8" d="M1024.5,129.2l-10.1,137.3c-3,40.5-3.3,81.2-0.8,121.8l10.9,184l-94.9-4.8c-16.3-0.8-32.5-2.5-48.6-4.9
					l-55.8-8.4c-22.4-3.4-44.5-8.3-66.3-14.7L682.7,517c-16.1-4.8-33-6-49.6-3.7h0c-17.3,2.4-33.9,8.7-48.8,18.3l-13.2,8.6"/>
				<path class="st8" d="M1019.3,125.1l-9.8,120.7c-4.2,51.6-4.6,103.5-1.2,155.2l11,167.4l-99-5.3c-22.8-1.2-45.6-4.2-68-8.9
					l-62.7-13c-17.3-3.6-34.5-8.2-51.3-13.8l-60-19.9c-17.2-5.7-35.5-6.7-53.1-2.8v0c-15.4,3.4-29.9,10.4-42.5,20.5l-16.7,13.4"/>
				<path class="st8" d="M1010.9,118.5l-9.7,151.9c-2.2,34.4-2.4,68.9-0.5,103.3l10.2,190.3l-91.1-5.7c-21.2-1.3-42.3-4.3-63.2-8.7
					l-61-13.1c-20.7-4.5-41.2-10.5-61.1-17.9l-55.1-20.7c-17.6-6.6-36.6-7.9-54.9-3.8l0,0c-20,4.5-38.2,15.4-52.4,31.1l-12.6,14"/>
				<path class="st8" d="M1004.7,108.1l-7.6,96.1c-4.2,53.2-5,106.9-2.2,160.3l9.9,192.8l-97.2-5.2c-22.2-1.2-44.4-4.3-66.3-9.2
					l-47-10.7c-22.9-5.2-45.5-12.4-67.6-21.7l-52.3-21.9c-15.7-6.6-32.3-8.5-48.6-5.8l0,0c-18,3-35.2,11.6-50.1,25.2l-21.5,27.9"/>
				<path class="st8" d="M997.4,91.7l-6.6,84c-5.2,66.8-6.1,134-2.5,200.9l9.1,170.4l-93.4-4.8c-16.1-0.8-32.1-2.9-48-6.4
					l-57.3-12.3c-24.2-5.2-48-13.4-70.9-24.4L673,472.8c-16.7-8-34.7-10-52.2-5.8l0,0c-21.6,5.2-41.2,19.6-55.7,40.9L549.3,537"/>
				<path class="st9" d="M543.7,113.6l16.4-30.9c12.6-23.6,31.3-40.6,52.8-47.8l0,0c18.2-6.1,37.4-4.9,55,3.4l66.7,31.5
					c24.9,11.7,50.5,21,76.5,27.5l23.1-17.1c27.3,6.9,55,10.9,82.9,12L991.5,79l-9.7,112.1c-5.1,59.4-5.7,119.3-1.7,178.9
					l11.4,169.1l-74.4-2.8c-27.8-1-55.5-5-82.9-12l-23.1-5.8c-26-6.6-51.6-15.8-76.5-27.5L668,459.5c-17.6-8.3-36.8-9.5-55-3.4l0,0
					c-21.5,7.2-40.3,24.2-52.8,47.8L543.7,537"/>
				<path class="st9" d="M969,500.8l14.4-7.2l-6.4-75.2c-6.8-80.6-6.8-161.5-0.1-242.1l9.7-115.6l-40.1,8.4v14.4l-12.4-11.8
					L923,73.9c-5.5,1.2-46.6,1.7-89.4-4.1c-46-6.2-94-18.9-101.7-22.8h0l-60-30.5C657.6,9.3,642.3,6.5,627,8.2h0
					c-35.7,4.1-66.8,32.9-81.3,75.1l-7.5,22.1l0,429.8c0,0.4,0.5,0.4,0.6,0.1l6.9-20.3c14.4-42.2,45.6-71,81.3-75.1h0
					c15.2-1.7,30.6,1.1,44.8,8.3l60,30.5l20.9,10.5c27,13.6,55,23.5,83.5,29.6l11.1,2.4c31.2,6.7,31,10,62.7,10h76.5l-2-24
					L969,500.8z"/>
				<path class="st10" d="M545.8,83.3l9.3,140.4c2.6,39.2,3.1,78.4,1.6,117.7l-6.4,159.5l-12.1,34.4l-1.7-429L545.8,83.3z"/>
				<path class="st8" d="M969,500.8l14.4-7.2l-6.4-75.2c-6.8-80.6-6.8-161.5-0.1-242.1l9.7-115.6l-40.1,8.4v14.4l-12.4-11.8
					L923,73.9c-5.5,1.2-46.6,1.7-89.4-4.1c-46-6.2-94-18.9-101.7-22.8h0l-60-30.5C657.6,9.3,642.3,6.5,627,8.2h0
					c-35.7,4.1-66.8,32.9-81.3,75.1l-7.5,22.1l0,429.8c0,0.4,0.5,0.4,0.6,0.1l6.9-20.3c14.4-42.2,45.6-71,81.3-75.1h0
					c15.2-1.7,30.6,1.1,44.8,8.3l60,30.5l20.9,10.5c27,13.6,55,23.5,83.5,29.6l11.1,2.4c31.2,6.7,31,10,62.7,10h76.5l-2-24
					L969,500.8z"/>
			</g>
			<g>
				<path class="st11" d="M925.7,190.2c1.5,3.8,2.3,7.7,2.3,11.8l2.2,129.8l3.6,107.1c0.6,16.6-10.9,31.2-27.2,34.5l-10.8,2.2
					c-4.3,0.9-8.8,0.9-13.1,0.1l-85.4-16.1c-2.8-0.5-5.5-1.4-8-2.6l-73.2-34c-3.3-1.5-6.8-2.5-10.4-2.9l-78.1-9.2
					c-2.4-0.3-4.9-0.3-7.3-0.1l0,0c-19.6,1.9-36.7-13.1-37.4-32.7l-2.2-65.8c0-1.1,0-2.2,0.1-3.4l6.2-96.4c0.1-2,0.4-4.1,0.9-6.1
					l22.9-91.6c2-7.8,6.6-14.7,13.2-19.4l22.5-16.1c3.8-2.7,8.1-4.6,12.7-5.6l35.4-7.6c6.3-1.4,12.9-0.9,19,1.3L759,84.2
					c2.4,0.9,4.9,1.5,7.5,1.8l42.2,5.3c0.7,0.1,1.3,0.2,2,0.3l56.5,10.6c5.8,1.1,11.2,3.7,15.7,7.5l10.5,8.9
					c4.3,3.7,7.7,8.4,9.8,13.6L925.7,190.2z"/>
				<path class="st12" d="M905.9,199.8c1.3,3.3,2,6.8,2,10.3l2,114l3.1,94c0.5,14.6-9.6,27.4-23.9,30.3l-9.5,1.9
					c-3.8,0.8-7.7,0.8-11.5,0.1l-75-14.1c-2.4-0.5-4.8-1.2-7.1-2.3l-64.2-29.8c-2.9-1.3-6-2.2-9.1-2.6l-68.5-8.1
					c-2.1-0.3-4.3-0.3-6.4-0.1h0c-17.2,1.7-32.2-11.5-32.8-28.7L603,307c0-1,0-2,0-2.9l5.5-84.7c0.1-1.8,0.4-3.6,0.8-5.3l20.1-80.4
					c1.7-6.9,5.8-12.9,11.6-17l19.7-14.2c3.3-2.4,7.1-4.1,11.1-4.9l31.1-6.7c5.5-1.2,11.3-0.8,16.7,1.2l40,14.8
					c2.1,0.8,4.3,1.3,6.6,1.6l37,4.7c0.6,0.1,1.2,0.2,1.7,0.3l49.6,9.3c5.1,1,9.8,3.2,13.8,6.6l9.2,7.8c3.8,3.2,6.7,7.3,8.6,12
					L905.9,199.8z"/>
				<path class="st13" d="M883.3,210.8c1.1,2.8,1.7,5.7,1.7,8.7l1.7,95.8l2.6,79c0.4,12.2-8.1,23-20.1,25.5l-8,1.6
					c-3.2,0.7-6.5,0.7-9.7,0.1l-63.1-11.9c-2.1-0.4-4-1-5.9-1.9l-54-25.1c-2.4-1.1-5-1.9-7.7-2.2l-57.6-6.8c-1.8-0.2-3.6-0.2-5.4,0
					l0,0c-14.4,1.4-27.1-9.7-27.6-24.2l-1.6-48.5c0-0.8,0-1.6,0-2.5l4.6-71.2c0.1-1.5,0.3-3,0.7-4.5l16.9-67.6
					c1.4-5.8,4.9-10.8,9.7-14.3l16.6-11.9c2.8-2,6-3.4,9.4-4.2l26.1-5.6c4.7-1,9.5-0.7,14,1l33.7,12.4c1.8,0.7,3.6,1.1,5.5,1.4
					l31.1,3.9c0.5,0.1,1,0.1,1.5,0.2l41.7,7.8c4.3,0.8,8.3,2.7,11.6,5.5l7.7,6.5c3.2,2.7,5.7,6.2,7.2,10.1L883.3,210.8z"/>
			</g>
		</g>
		<g>
			<path class="st6" d="M490.5,559.3l-140.2-2.7c-10-0.2-19.9,0.4-29.8,1.7l-117.8,16.2c-8.7,1.2-17.4,2-26.2,2.3l-112,4.6l15.8-187
				c2.5-29.4,2.4-59-0.2-88.4L65.7,145.9l431.4-15L490.5,559.3z"/>
			<g>
				<path class="st7" d="M85.7,293.8L74.5,142.6l7-0.4l-0.5-7.4l5.5-0.3l-0.5-6.7l6.4-0.3l-0.4-5.7h4.4l-0.4-5l4.3-0.5l44.2-1
					l1.8,23.5l18.8-1c10.8-0.6,21.6-1.5,32.4-2.7l44.2-5.1L376.9,111c15.9-2.2,32-2.6,48-1.2h0c27.1,2.5,53.5,10.2,77.7,22.7
					l8.5,4.4v281l25.1,0.4l0.4,119.3l-4,5l-4,5l-6,6l-5,7l-6.4,7.8l-20.6-9.2c0,0-42.9-15.9-65.6-18l0,0c-16-1.5-32.1-1.1-48,1.2
					l-135.2,18.9l-44.2,5.1c-10.8,1.3-21.6,2.2-32.4,2.7L74.5,574l11.6-174.2C88.4,364.5,88.3,329.1,85.7,293.8z"/>
				<path class="st9" d="M80.9,134.8L92.1,286c2.6,35.3,2.7,70.7,0.4,106.1L80.9,566.2l90.5-4.7c10.8-0.6,21.6-1.5,32.4-2.7
					l44.2-5.1l135.2-18.9c15.9-2.2,32-2.6,48-1.2h0c27.1,2.5,53.5,10.2,77.7,22.7l8.5,4.4"/>
				<path class="st9" d="M85.9,127.8L97.1,279c2.6,35.3,2.7,70.7,0.4,106.1L85.9,559.2l90.5-4.7c10.8-0.6,21.6-1.5,32.4-2.7
					l44.2-5.1l135.2-18.9c15.9-2.2,32-2.6,48-1.2h0c27.1,2.5,53.5,10.2,77.7,22.7l8.5,4.4"/>
				<path class="st9" d="M91.9,121.8L103.1,273c2.6,35.3,2.7,70.7,0.4,106.1L91.9,553.2l90.5-4.7c10.8-0.6,21.6-1.5,32.4-2.7
					l44.2-5.1l135.2-18.9c15.9-2.2,32-2.6,48-1.2l0,0c27.1,2.5,53.5,10.2,77.7,22.7l8.5,4.4"/>
				<path class="st9" d="M532.5,111.2l-8.5-4.4c-24.2-12.5-50.6-20.3-77.7-22.7l0,0c-16-1.5-32.1-1.1-48,1.2l-135.2,18.9l-44.2,5.1
					c-10.8,1.3-21.6,2.2-32.4,2.7l-90.5,4.7L107.1,268c2.6,35.3,2.7,70.7,0.4,106.1L95.9,548.2l90.5-4.7c10.8-0.6,21.6-1.5,32.4-2.7
					l44.2-5.1l135.2-18.9c15.9-2.2,32-2.6,48-1.2l0,0c27.1,2.5,53.5,10.2,77.7,22.7l8.5,4.4"/>
				<path class="st9" d="M528,101.8c-24.2-12.5-50.6-20.3-77.7-22.7h0c-1.4-0.1-2.8-0.2-4.2-0.3l-6.9,25.6L428,78.3
					c-8.6,0.1-17.2,0.8-25.7,2L267.1,99.2l-44.2,5.1c-10.8,1.3-21.6,2.2-32.4,2.7l-90.5,4.7L111.1,263c2.6,35.3,2.7,70.7,0.4,106.1
					L99.9,543.2l25.8-1.3l4.8-26.3l12.4,15.8l7-6.2l-2.7,11.8l2.9,3.7l40.2-2.1c10.8-0.6,21.6-1.5,32.4-2.7l44.2-5.1l135.2-18.9
					c15.9-2.2,32-2.6,48-1.2h0c27.1,2.5,53.5,10.2,77.7,22.7l7.4,3.9c0.5,0.3,1.1-0.1,1.1-0.6V106.2L528,101.8z"/>
				<path class="st10" d="M528,101.8l-6.5,162.5c-1,25.9-1.1,51.8-0.2,77.7l6.6,191.2l8.5,4.4V106.2L528,101.8z"/>
				<path class="st8" d="M528,101.8c-24.2-12.5-50.6-20.3-77.7-22.7h0c-1.4-0.1-2.8-0.2-4.2-0.3l-6.9,25.6L428,78.3
					c-8.6,0.1-17.2,0.8-25.7,2L267.1,99.2l-44.2,5.1c-10.8,1.3-21.6,2.2-32.4,2.7l-90.5,4.7L111.1,263c2.6,35.3,2.7,70.7,0.4,106.1
					L99.9,543.2l25.8-1.3l4.8-26.3l12.4,15.8l7-6.2l-2.7,11.8l2.9,3.7l40.2-2.1c10.8-0.6,21.6-1.5,32.4-2.7l44.2-5.1l135.2-18.9
					c15.9-2.2,32-2.6,48-1.2h0c27.1,2.5,53.5,10.2,77.7,22.7l7.4,3.9c0.5,0.3,1.1-0.1,1.1-0.6V106.2L528,101.8z"/>
			</g>
			<g>
				<path class="st11" d="M165.4,221.6c-1.8,3.6-2.9,7.5-3.3,11.5l-13.4,129.2l-12.8,106.3c-2,16.5,8.2,32,24.1,36.7l10.6,3.1
					c4.2,1.3,8.7,1.7,13.1,1.2l86.5-8.7c2.8-0.3,5.6-0.9,8.2-1.9l75.8-27.6c3.4-1.2,7-1.9,10.6-2l78.6-2.4c2.4-0.1,4.9,0.1,7.3,0.6
					h0c19.3,3.6,37.7-9.9,40.1-29.4l7.9-65.3c0.1-1.1,0.2-2.2,0.2-3.3l2.1-96.6c0-2-0.1-4.1-0.4-6.1l-14.9-93.3
					c-1.3-8-5.3-15.2-11.4-20.5l-21-18c-3.5-3-7.7-5.3-12.2-6.7l-34.6-10.7c-6.2-1.9-12.8-2-19-0.3l-46.9,12.8
					c-2.5,0.7-5,1.1-7.6,1.2l-42.5,1.7c-0.7,0-1.3,0.1-2,0.1l-57.2,5.7c-5.9,0.6-11.5,2.7-16.3,6.1l-11.2,7.9
					c-4.6,3.3-8.4,7.7-10.9,12.8L165.4,221.6z"/>
				<path class="st12" d="M184.3,232.9c-1.6,3.2-2.6,6.6-2.9,10.1l-11.8,113.4l-11.2,93.3c-1.7,14.5,7.2,28.1,21.2,32.2l9.3,2.8
					c3.7,1.1,7.6,1.5,11.5,1.1l75.9-7.6c2.5-0.2,4.9-0.8,7.2-1.6l66.6-24.2c3-1.1,6.1-1.7,9.3-1.8l69-2.1c2.1-0.1,4.3,0.1,6.4,0.5h0
					c17,3.2,33.1-8.7,35.2-25.8l6.9-57.4c0.1-1,0.2-2,0.2-2.9l1.8-84.8c0-1.8-0.1-3.6-0.4-5.4l-13.1-81.9c-1.1-7-4.7-13.3-10-18
					L436.9,157c-3.1-2.7-6.7-4.7-10.7-5.9l-30.4-9.4c-5.4-1.7-11.2-1.8-16.7-0.3l-41.1,11.3c-2.2,0.6-4.4,0.9-6.7,1l-37.3,1.5
					c-0.6,0-1.2,0.1-1.8,0.1l-50.2,5c-5.2,0.5-10.1,2.3-14.3,5.3l-9.8,7c-4.1,2.9-7.4,6.7-9.6,11.2L184.3,232.9z"/>
				<path class="st13" d="M205.8,245.8c-1.3,2.7-2.1,5.6-2.5,8.5l-9.9,95.3l-9.4,78.5c-1.5,12.2,6.1,23.6,17.8,27.1l7.8,2.3
					c3.1,0.9,6.4,1.2,9.6,0.9l63.8-6.4c2.1-0.2,4.1-0.7,6.1-1.4l56-20.3c2.5-0.9,5.1-1.4,7.8-1.5l58-1.8c1.8-0.1,3.6,0.1,5.4,0.4h0
					c14.3,2.7,27.8-7.3,29.6-21.7l5.8-48.2c0.1-0.8,0.2-1.6,0.2-2.5l1.5-71.3c0-1.5-0.1-3-0.3-4.5l-11-68.8
					c-0.9-5.9-3.9-11.2-8.4-15.1L418.3,182c-2.6-2.2-5.7-3.9-9-4.9l-25.5-7.9c-4.6-1.4-9.4-1.5-14-0.2l-34.6,9.5
					c-1.8,0.5-3.7,0.8-5.6,0.9l-31.3,1.2c-0.5,0-1,0.1-1.5,0.1l-42.2,4.2c-4.3,0.4-8.5,2-12,4.5l-8.3,5.8c-3.4,2.4-6.2,5.7-8,9.4
					L205.8,245.8z"/>
			</g>
		</g>
		<g>
			<path class="st14" d="M597.4,575.9c1,0,1.9-0.3,2.8-0.8c2.6-1.6,3.4-5,1.7-7.6l-6.3-10c-8.7-13.9-24.3-22.3-40.7-22.1
				c-15.9,0.3-30.5,8.4-39,21.8l-7.4,11.6c-1.6,2.6-0.9,6,1.7,7.6c2.6,1.6,6,0.9,7.6-1.7l7.4-11.6c6.5-10.3,17.7-16.5,29.9-16.7
				c12.6-0.2,24.5,6.3,31.2,16.9l6.3,10C593.7,575,595.5,576,597.4,575.9z"/>
		</g>
	</g>
</g>
</svg>
