<?xml version="1.0" encoding="utf-8"?>
<!-- Generator: Adobe Illustrator 24.2.1, SVG Export Plug-In . SVG Version: 6.00 Build 0)  -->
<svg version="1.1" id="Lag_1" xmlns="http://www.w3.org/2000/svg" xmlns:xlink="http://www.w3.org/1999/xlink" x="0px" y="0px"
	 viewBox="0 0 371 51" style="enable-background:new 0 0 371 51;" xml:space="preserve">
<style type="text/css">
	.st0{display:none;}
	.st1{display:inline;fill:#442D21;}
	.st2{display:inline;fill:#3F342A;}
	.st3{fill:#846549;}
	.st4{fill:#35271C;}
</style>
<g>
	<g class="st0">
		
			<rect x="1.8" y="2" transform="matrix(-1 5.618114e-07 -5.618114e-07 -1 370.633 50.5062)" class="st1" width="367.1" height="46.4"/>
		<path class="st2" d="M371,50.6H-0.4V-0.1H371V50.6z M3.9,46.3h362.8V4.2H3.9V46.3z"/>
	</g>
	<g>
		<path class="st3" d="M277.3,47.9l-1.8-2c-0.2-0.2-23.2-26.4-23.2-26.4c-6.3-7.2-15.4-11-25-10.5c-9.6,0.5-18.2,5.3-23.7,13.2
			l-18,25.7l-25-28.4c-6.3-7.2-15.4-11-25-10.5c-9.6,0.5-18.2,5.3-23.7,13.2l-18,25.7L68.7,19.4c-6.3-7.2-15.4-11-25-10.5
			C34.1,9.5,25.5,14.3,20,22.1L3.5,45.6L0,43.1l16.5-23.5c6.3-8.9,16.1-14.4,27-15c10.9-0.6,21.3,3.7,28.5,11.9l21.5,24.3l14.9-21.2
			c6.3-8.9,16.1-14.4,27-15c10.9-0.6,21.3,3.7,28.5,11.9l21.4,24.3L200,19.7c6.3-8.9,16.1-14.4,27-15c10.9-0.6,21.3,3.7,28.5,11.9
			c11.1,12.7,18.3,20.8,21.4,24.4l15-21.3c6.3-8.9,16.1-14.4,27-15c10.9-0.6,21.3,3.7,28.5,11.9l23.2,26.3l-3.2,2.8l-23.2-26.3
			c-6.3-7.2-15.5-11-25-10.5c-9.6,0.5-18.2,5.3-23.7,13.2L277.3,47.9z"/>
	</g>
	<g>
		<path class="st3" d="M229,46.5c-0.7,0-1.3,0-2-0.1c-10.9-0.6-20.7-6.1-27-15l-14.9-21.2l-21.4,24.3c-7.2,8.2-17.6,12.5-28.5,11.9
			c-10.9-0.6-20.7-6.1-27-15l-15-21.3c-5.5,6.2-21.5,24.4-21.5,24.4C64.7,42.7,54.3,47,43.5,46.4c-10.9-0.6-20.7-6.1-27-15L0,8
			l3.5-2.5L20,29c5.5,7.8,14.1,12.6,23.7,13.2c9.6,0.5,18.7-3.3,25-10.5c0,0,23.2-26.4,23.3-26.4l1.8-2L111.8,29
			c5.5,7.8,14.1,12.6,23.7,13.2c9.6,0.5,18.7-3.3,25-10.5l25-28.4l18,25.7c5.5,7.8,14.1,12.6,23.7,13.2c9.6,0.5,18.7-3.3,25-10.5
			c0,0,23-26.1,23.2-26.4l1.8-2.1l1.6,2.2C279,5.7,295.4,29,295.4,29c5.5,7.8,14.1,12.6,23.7,13.2c9.5,0.5,18.7-3.3,25-10.5
			l23.2-26.3l3.2,2.8l-23.2,26.3c-7.2,8.2-17.6,12.5-28.5,11.9c-10.9-0.6-20.7-6.1-27-15c-9-12.8-13.1-18.6-15-21.3
			c-2.4,2.8-8.1,9.2-21.4,24.4C248.7,42.2,239.1,46.5,229,46.5z"/>
	</g>
	<g>
		<path class="st4" d="M371,50.6H-0.4V-0.1H371V50.6z M3.9,46.3h362.8V4.2H3.9V46.3z"/>
	</g>
</g>
</svg>
