<?xml version="1.0" encoding="utf-8"?>
<!-- Generator: Adobe Illustrator 24.3.0, SVG Export Plug-In . SVG Version: 6.00 Build 0)  -->
<svg version="1.1" id="Lag_1" xmlns="http://www.w3.org/2000/svg" xmlns:xlink="http://www.w3.org/1999/xlink" x="0px" y="0px"
	 viewBox="0 0 446 571" style="enable-background:new 0 0 446 571;" xml:space="preserve">
<style type="text/css">
	.st0{fill:#6B3B34;stroke:#110B09;stroke-width:2;stroke-miterlimit:10;}
	.st1{fill:#82473D;stroke:#110B09;stroke-width:2;stroke-miterlimit:10;}
	.st2{fill:#110B09;}
	.st3{fill:#CCB796;stroke:#110B09;stroke-width:2;stroke-miterlimit:10;}
	.st4{fill:#B29D77;}
	.st5{fill:#A08D6E;}
	.st6{fill:none;stroke:#110B09;stroke-width:2;stroke-miterlimit:10;}
	.st7{fill:#E5D2BA;stroke:#110B09;stroke-width:2;stroke-miterlimit:10;}
	.st8{fill:#829967;stroke:#110B09;stroke-width:2;stroke-miterlimit:10;}
	.st9{fill:#894E46;}
	.st10{opacity:0.38;}
	.st11{opacity:0.3;}
	.st12{fill:#8C7A64;stroke:#000000;stroke-width:2;stroke-miterlimit:10;}
	.st13{fill:#CCB796;stroke:#000000;stroke-width:2;stroke-miterlimit:10;}
	.st14{fill:#CCB796;}
	.st15{opacity:0.47;}
	.st16{fill:#3F3F3F;}
	.st17{fill:none;stroke:#444444;stroke-width:2;stroke-miterlimit:10;}
	.st18{opacity:6.000000e-02;fill:#303030;}
</style>
<g>
	<polygon class="st0" points="423.3,547.9 425,424.2 340.2,424.2 339.2,547.9 	"/>
	<path class="st0" d="M50.7,496l2.4,1.5c3.3,2.1,7.6,2.1,10.9,0l2.4-1.5V21.4c0-0.4-0.5-0.7-0.8-0.5L64,22c-3.3,2.1-7.6,2.1-10.9,0
		l-2.4-1.5V496z"/>
	<path class="st1" d="M50.4,496l0.3,0V20.4l-15,5.9c-3.8,1-7.4,0.6-10.7,2.6c-3.3,2.1-6.3,4.6-8.8,7.6l0,0c-6.1,7-9.4,16-9.4,25.3
		V518l0,0C7.7,505.5,34.6,493.3,50.4,496z"/>
	<path class="st0" d="M45.6,503.7c0.8,0,1.6,0,2.3,0.1c3.2,1.9,6.9,2.9,10.7,2.9c3.6,0,7.1-0.9,10.3-2.7l339.3-0.4
		c2,0,4-0.4,5.9-1.2l4.2-1.8c2.2-1,4.2-2.5,5.7-4.4v0c2-2.6,3.1-5.8,3.1-9.1v-6.9l-5.4,9.2l0,0c-1.7,3.1-4.7,5.3-8.1,6.1l-0.8,0.2
		c-0.9,0.2-1.8,0.3-2.7,0.3H247.2l-11.5-3l-11.1,3H66.5c-2.3,1.8-5.1,2.7-7.9,2.7c-2.8,0-5.6-0.9-7.9-2.7l-0.3,0
		c-1.5-0.3-3.1-0.4-4.8-0.4l0,0c-16.4,0-38.7,10.3-38.7,27.4c0.4,7.5,8,32.3,18.8,32.3c14,0,25-3.9,25-3.9c2.3-1.5,4.9-2.2,7.5-2.2
		c2.8,0,5.6,0.9,8,2.6l0.2,0.2h354.8c2.2,0,4-1.8,4-4l0,0c0-2.2-1.8-4-4-4H68.8c-3.2-1.8-6.9-2.7-10.6-2.7c-3.9,0-7.7,1-11.1,3
		c-1.8,0.7-11.9,5.7-21.4,3.1c-5.8,0-10.7-20.6-10.8-24.7c0-0.5,0.4-5.8,2.2-7.7C22.9,508.8,36,503.7,45.6,503.7"/>
	<g>
		<path class="st2" d="M403.7,480.3v6.2l13,3.2v54.9h-54.9l-4-16.4l-1.1-4.5l-4.7,0l-1.6,0l-4.8-0.1l-2.3-0.2l-1.1-0.1l-1.1-0.2
			l-2.3-0.4l-2.3-0.5l-0.1,0l-0.1,0c-0.6-0.1-1.3-0.4-1.9-0.5c-0.3-0.1-0.5-0.2-0.8-0.2c-0.5-0.1-0.9-0.3-1.3-0.4
			c-0.3-0.1-0.7-0.3-1-0.4c-0.5-0.2-1-0.4-1.5-0.6c0.5,0,0.9,0,1.3,0l0.3,0l0.3,0c0.2,0,0.5,0,0.7,0l0.1,0l0.1,0
			c0.5,0,1-0.1,1.5-0.1c0.2,0,0.4,0,0.6,0c0.7,0,1.5-0.1,2.5-0.3l1.7-0.2l0.2,0l0.2,0l1.8-0.4l0.9-0.2l0.2-0.1l0.2-0.1l0.9-0.3
			l1.1-0.3h-29.3c1.9,1.6,3.9,3,6.1,4.3l2.1,1.2c0.7,0.4,1.5,0.7,2.2,1.1c1.5,0.8,3,1.3,4.6,1.9c0.8,0.3,1.6,0.5,2.4,0.8
			c0.8,0.3,1.6,0.5,2.4,0.7l2.5,0.6l2.5,0.4l1.3,0.2l1.3,0.1l2.6,0.2l5,0.1l1.6,0l5.1,21h65.6V485L403.7,480.3z"/>
		<path class="st3" d="M405.6,484.5l0-0.2l-0.1-5l-0.2-2.6l-0.1-1.3l-0.2-1.3l-0.4-2.5l-0.6-2.5c-0.1-0.3-0.2-0.7-0.3-1V518H345
			l-1.7,0.4l-1.8,0.3c-0.6,0.1-1.2,0.2-1.9,0.2c-0.6,0-1.3,0.1-1.9,0.1c-1.3,0-2.5,0-3.8-0.1c-0.6-0.1-1.3-0.1-1.9-0.2l-1.9-0.3
			c-0.6-0.1-1.2-0.2-1.8-0.4h-12.9c1.1,1.3,2.3,2.5,3.6,3.6c2.3,2.1,4.9,4,7.6,5.7l2.1,1.2c0.7,0.4,1.5,0.7,2.2,1.1
			c1.5,0.8,3,1.3,4.6,1.9c0.8,0.3,1.6,0.5,2.4,0.8c0.8,0.3,1.6,0.5,2.4,0.7l2.5,0.6l2.5,0.4l1.3,0.2l1.3,0.1l2.6,0.2l5,0.1l1.6,0
			l5.1,21h65.6v-65.6L405.6,484.5z"/>
		<path class="st4" d="M405.6,484.5l0-0.2l-0.1-5l-0.2-2.6l-0.1-1.3l-0.2-1.3l-0.4-2.5l-0.6-2.5c-0.1-0.3-0.2-0.7-0.3-1v35.6l5,1.2
			v31.7H377l-1.6-6.5l-0.6-2.6l-0.7-2.7l-1.7-6.8H345l-1.7,0.4l-1.8,0.3c-0.6,0.1-1.2,0.2-1.9,0.2c-0.6,0-1.3,0.1-1.9,0.1
			c-0.3,0-0.5,0-0.8,0c-0.2,0-0.4,0-0.6,0c-0.8,0-1.6,0-2.5-0.1c-0.6-0.1-1.3-0.1-1.9-0.2l-1.9-0.3c-0.6-0.1-1.2-0.2-1.8-0.4h-12.9
			c1.1,1.3,2.3,2.5,3.6,3.6c2.3,2.1,4.9,4,7.6,5.7l2.1,1.2c0.7,0.4,1.5,0.7,2.2,1.1c1.5,0.8,3,1.3,4.6,1.9c0.8,0.3,1.6,0.5,2.4,0.8
			c0.8,0.3,1.6,0.5,2.4,0.7l2.5,0.6l2.5,0.4l1.3,0.2l1.3,0.1l2.6,0.2l5,0.1l1.6,0l5.1,21h65.6v-65.6L405.6,484.5z"/>
		<path class="st5" d="M405.6,484.5l0-0.2l-0.1-5l-0.2-2.6l-0.1-1.3l-0.2-1.3l-0.4-2.5l-0.6-2.5c-0.1-0.3-0.2-0.7-0.3-1v22.2
			l0.4,0.1l17.5,4.3v54.9h-54.9l-4-16.4l-1.1-4.5l-4.7,0l-1.6,0l-4.8-0.1l-2.3-0.2l-1.1-0.1l-1.1-0.2l-2.3-0.4l-2.3-0.5l-0.1,0
			l-0.1,0c-0.6-0.1-1.3-0.4-1.9-0.5c-0.3-0.1-0.5-0.2-0.8-0.2c-0.5-0.1-0.9-0.3-1.3-0.4c-0.3-0.1-0.7-0.3-1-0.4
			c-0.5-0.2-1-0.4-1.5-0.6c0.5,0,0.9,0,1.3,0l0.3,0l0.3,0c0.2,0,0.5,0,0.7,0l0.1,0l0.1,0c0.5,0,1-0.1,1.5-0.1c0.2,0,0.4,0,0.6,0
			c0.7,0,1.5-0.1,2.5-0.3l1.7-0.2l0.2,0l0.2,0l1.8-0.4l0.9-0.2l0.2-0.1l0.2-0.1l0.9-0.3l1.7-0.5l0.2-0.1l0.2-0.1l3.5-1.3l0.3-0.1
			l5-1.9L359,518H345l-1.7,0.4l-1.8,0.3c-0.6,0.1-1.2,0.2-1.9,0.2c-0.6,0-1.3,0.1-1.9,0.1c-0.3,0-0.5,0-0.8,0c-0.2,0-0.4,0-0.6,0
			c-0.8,0-1.6,0-2.5-0.1c-0.6-0.1-1.3-0.1-1.9-0.2l-1.9-0.3c-0.6-0.1-1.2-0.2-1.8-0.4h-12.9c1.1,1.3,2.3,2.5,3.6,3.6
			c2.3,2.1,4.9,4,7.6,5.7l2.1,1.2c0.7,0.4,1.5,0.7,2.2,1.1c1.5,0.8,3,1.3,4.6,1.9c0.8,0.3,1.6,0.5,2.4,0.8c0.8,0.3,1.6,0.5,2.4,0.7
			l2.5,0.6l2.5,0.4l1.3,0.2l1.3,0.1l2.6,0.2l5,0.1l1.6,0l5.1,21h65.6v-65.6L405.6,484.5z"/>
		<path class="st6" d="M405.6,484.5l0-0.2l-0.1-5l-0.2-2.6l-0.1-1.3l-0.2-1.3l-0.4-2.5l-0.6-2.5c-0.1-0.3-0.2-0.7-0.3-1V518H345
			l-1.7,0.4l-1.8,0.3c-0.6,0.1-1.2,0.2-1.9,0.2c-0.6,0-1.3,0.1-1.9,0.1c-1.3,0-2.5,0-3.8-0.1c-0.6-0.1-1.3-0.1-1.9-0.2l-1.9-0.3
			c-0.6-0.1-1.2-0.2-1.8-0.4h-12.9c1.1,1.3,2.3,2.5,3.6,3.6c2.3,2.1,4.9,4,7.6,5.7l2.1,1.2c0.7,0.4,1.5,0.7,2.2,1.1
			c1.5,0.8,3,1.3,4.6,1.9c0.8,0.3,1.6,0.5,2.4,0.8c0.8,0.3,1.6,0.5,2.4,0.7l2.5,0.6l2.5,0.4l1.3,0.2l1.3,0.1l2.6,0.2l5,0.1l1.6,0
			l5.1,21h65.6v-65.6L405.6,484.5z"/>
	</g>
	<path class="st1" d="M411.3,496H248.2l-12.5-2l-11.5,2H66.5V20.4H183l10,5l8.2-5h67.6l10.6,2l8.7-2h123.2c8.7,0,15.7,7,15.7,15.7
		v444.2C427,489,420,496,411.3,496z"/>
	<path class="st7" d="M418.2,500.6l-1.6,3.8c-5.5,13.1-3.7,28.1,4.7,39.5l0,0l-396.2,1.4l-11.7-22.8l24.4-19.1l186.1-1.4l11.9-2.1
		l11.5,1.9L418.2,500.6z"/>
	<g>
		<path class="st8" d="M42.7,546.8c-1,0-11.5,2.2-17.6-1.5c-7.2-4.3-11.9-16.4-11.7-22.8c0.3-14.2,25.1-19,32.8-19.1
			c1.9,0,3.5,1.5,3.5,3.5c0,1.9-1.5,3.5-3.5,3.5c-0.7,0-25.7,1.4-25.9,12.3c-0.1,4,1.9,14.1,7.4,17.3c6.8,4,17.5,0.9,17.6,0.9
			c1.3,1.4,1.2,3.6-0.3,4.9C44.4,546.5,43.5,546.8,42.7,546.8z"/>
	</g>
	<g>
		<path class="st9" d="M87.5,79.7v233.5l2,129.1c0.2,10.8,8.1,19.8,18.7,21.4c30.9,4.6,90.2,13.5,93,13.5c3.3,0,153.7-3.9,189.1-4.8
			c4.8-0.1,9.5-1.7,13.5-4.4l0,0c5.4-3.8,9.1-9.6,10.2-16.1l1.4-8.3c0.3-1.7,0.4-3.4,0.3-5.1L404.7,188l-5.3-86.1
			c-1.1-17.4-8.9-33.7-21.8-45.4l0,0c-12.3-11.2-28.3-17.3-44.9-17.3H190l-8,23.5c-3.7,11-11.3,20.3-21.3,26.3l0,0
			c-13.4,8-29.8,9.2-44.2,3.1L87.5,79.7z"/>
		<g>
			<g class="st10">
				<path class="st2" d="M421.2,26.4v54.9l-16.4,4l-4.5,1.1l0,4.7l0,1.6l-0.1,4.8l-0.2,2.3l-0.1,1.1l-0.2,1.1l-0.4,2.3l-0.5,2.3
					l0,0.1l0,0.1c-0.1,0.6-0.4,1.3-0.5,1.9c-0.1,0.3-0.2,0.5-0.2,0.8c-0.1,0.5-0.3,0.9-0.4,1.3c-0.1,0.3-0.3,0.7-0.4,1
					c-0.2,0.5-0.4,1-0.6,1.5c0-0.6,0-1.1,0-1.6c0-0.3,0-0.6,0-1l0-0.1l0-0.1c0-0.5-0.1-1-0.1-1.5c0-0.2,0-0.4,0-0.6
					c0-0.7-0.1-1.5-0.3-2.5L396,104l0-0.2l0-0.2l-0.4-1.8l-0.2-0.9l-0.1-0.2l-0.1-0.2l-0.3-0.9l-0.5-1.7l-0.1-0.2l-0.1-0.2L393,94
					l-0.1-0.3l-1.9-5l-5.2,1.3l-37.4,9.2l9-36.8l1.3-5.2l-5-1.9l-2.5-1l-0.2-0.1l-0.2-0.1l-1.7-0.5l-0.9-0.3l-0.2-0.1l-0.2-0.1
					l-0.9-0.2l-1.8-0.4l-0.2,0l-0.2,0l-1.7-0.2c-0.9-0.2-1.8-0.2-2.4-0.3c-0.2,0-0.4,0-0.6,0c-0.4,0-0.9-0.1-1.5-0.1l-0.1,0l-0.1,0
					c-0.2,0-0.5,0-0.7,0l-0.3,0l-0.3,0c-0.4,0-0.9,0-1.3,0c0.5-0.2,1-0.4,1.5-0.6c0.3-0.1,0.7-0.3,1-0.4c0.4-0.1,0.8-0.3,1.3-0.4
					c0.3-0.1,0.5-0.2,0.8-0.3c0.5-0.2,1.2-0.4,1.8-0.5l0.1,0l0.1,0l2.3-0.5l2.3-0.4l1.1-0.2l1-0.1l2.4-0.2l4.8-0.1l0.2,0l4.7,0
					l1.1-4.5l4.3-17.5H421.2 M427.2,20.4h-65.6l-5.4,22.1l-0.2,0l-5,0.1l-2.6,0.2l-1.3,0.1l-1.3,0.2l-2.5,0.4l-2.5,0.6
					c-0.8,0.2-1.6,0.4-2.4,0.7c-0.8,0.3-1.6,0.5-2.4,0.8c-1.6,0.6-3.1,1.2-4.6,1.9c-0.7,0.4-1.5,0.7-2.2,1.1l-2.1,1.2
					c-2.7,1.7-5.3,3.5-7.6,5.7c-4.7,4.2-8.2,9.2-10.8,14.5c4.3-4,9.1-7.2,14.2-9.1c2.5-1,5.1-1.7,7.7-2.2l1.9-0.3
					c0.6-0.1,1.3-0.1,1.9-0.2c0.8-0.1,1.6-0.1,2.5-0.1c0.2,0,0.4,0,0.6,0c0.3,0,0.5,0,0.8,0c0.6,0,1.3,0.1,1.9,0.1
					c0.6,0,1.2,0.1,1.9,0.2l1.8,0.3l1.8,0.4l0.9,0.2l0.9,0.3l1.7,0.5l2.5,1l-11.4,46.4l47-11.5l0.1,0.3l1.3,3.5l0.5,1.7l0.3,0.9
					l0.2,0.9l0.4,1.8l0.3,1.8c0.1,0.6,0.2,1.2,0.2,1.9c0,0.6,0.1,1.3,0.1,1.9c0,1.3,0,2.5-0.1,3.8c-0.1,0.6-0.1,1.3-0.2,1.9
					l-0.3,1.9c-0.5,2.6-1.1,5.2-2.2,7.7c-1.9,5.1-5.1,9.9-9.1,14.2c5.2-2.5,10.3-6.1,14.5-10.8c2.1-2.3,4-4.9,5.7-7.6l1.2-2.1
					c0.4-0.7,0.7-1.5,1.1-2.2c0.8-1.5,1.3-3,1.9-4.6c0.3-0.8,0.5-1.6,0.8-2.4c0.3-0.8,0.5-1.6,0.7-2.4l0.6-2.5l0.4-2.5l0.2-1.3
					l0.1-1.3l0.2-2.6l0.1-5l0-1.6l21-5.1V20.4L427.2,20.4z"/>
			</g>
			<path class="st3" d="M398.2,124.3c2.1-2.3,4-4.9,5.7-7.6l1.2-2.1c0.4-0.7,0.7-1.5,1.1-2.2c0.8-1.5,1.3-3,1.9-4.6
				c0.3-0.8,0.5-1.6,0.8-2.4c0.3-0.8,0.5-1.6,0.7-2.4l0.6-2.5l0.4-2.5l0.2-1.3l0.1-1.3l0.2-2.6l0.1-5l0-1.6l21-5.1V15.4h-65.6
				l-5.4,22.1l-0.2,0l-5,0.1l-2.6,0.2l-1.3,0.1l-1.3,0.2l-2.5,0.4l-2.5,0.6c-0.8,0.2-1.6,0.4-2.4,0.7c-0.8,0.3-1.6,0.5-2.4,0.8
				c-1.6,0.6-3.1,1.2-4.6,1.9c-0.7,0.4-1.5,0.7-2.2,1.1l-2.1,1.2c-2.7,1.7-5.3,3.5-7.6,5.7c-4.7,4.2-8.2,9.2-10.8,14.5
				c4.3-4,9.1-7.2,14.2-9.1c2.5-1,5.1-1.7,7.7-2.2l1.9-0.3c0.6-0.1,1.3-0.1,1.9-0.2c1.3-0.1,2.6-0.1,3.8-0.1c0.6,0,1.3,0.1,1.9,0.1
				c0.6,0,1.2,0.1,1.9,0.2l1.8,0.3l1.8,0.4l0.9,0.2l0.9,0.3l1.7,0.5l2.5,1l-11.4,46.4l47-11.5l0.1,0.3l1.3,3.5l0.5,1.7l0.3,0.9
				l0.2,0.9l0.4,1.8l0.3,1.8c0.1,0.6,0.2,1.2,0.2,1.9c0,0.6,0.1,1.3,0.1,1.9c0,1.3,0,2.5-0.1,3.8c-0.1,0.6-0.1,1.3-0.2,1.9l-0.3,1.9
				c-0.5,2.6-1.1,5.2-2.2,7.7c-1.9,5.1-5.1,9.9-9.1,14.2C389,132.5,394,129,398.2,124.3z"/>
			<g>
				<path class="st4" d="M413.1,34.4v31.7l-6.5,1.6l-14.3,3.5v0l-4.7,1.1l-16.5,4.1l3.9-15.9l1-4.2l3.5-14.3l1.9-7.6H413.1
					 M432.1,15.4h-65.6l-5.4,22.1l-0.2,0l-5,0.1l-2.6,0.2l-1.3,0.1l-1.3,0.2l-2.5,0.4l-2.5,0.6c-0.8,0.2-1.6,0.4-2.4,0.7
					c-0.8,0.3-1.6,0.5-2.4,0.8c-1.6,0.6-3.1,1.2-4.6,1.9c-0.7,0.4-1.5,0.7-2.2,1.1l-2.1,1.2c-2.7,1.7-5.3,3.5-7.6,5.7
					c-4.7,4.2-8.2,9.2-10.8,14.5c4.3-4,9.1-7.2,14.2-9.1c2.5-1,5.1-1.7,7.7-2.2l1.9-0.3c0.6-0.1,1.3-0.1,1.9-0.2
					c0.8-0.1,1.6-0.1,2.5-0.1c0.2,0,0.4,0,0.6,0c0.3,0,0.5,0,0.8,0c0.6,0,1.3,0.1,1.9,0.1c0.6,0,1.2,0.1,1.9,0.2l1.8,0.3l1.8,0.4
					l0.9,0.2l0.9,0.3l1.7,0.5l2.5,1l-11.4,46.4l47-11.5l0.1,0.3l1.3,3.5l0.5,1.7l0.3,0.9l0.2,0.9l0.4,1.8l0.3,1.8
					c0.1,0.6,0.2,1.2,0.2,1.9c0,0.6,0.1,1.3,0.1,1.9c0,1.3,0,2.5-0.1,3.8c-0.1,0.6-0.1,1.3-0.2,1.9l-0.3,1.9
					c-0.5,2.6-1.1,5.2-2.2,7.7c-1.9,5.1-5.1,9.9-9.1,14.2c5.2-2.5,10.3-6.1,14.5-10.8c2.1-2.3,4-4.9,5.7-7.6l1.2-2.1
					c0.4-0.7,0.7-1.5,1.1-2.2c0.8-1.5,1.3-3,1.9-4.6c0.3-0.8,0.5-1.6,0.8-2.4c0.3-0.8,0.5-1.6,0.7-2.4l0.6-2.5l0.4-2.5l0.2-1.3
					l0.1-1.3l0.2-2.6l0.1-5l0-1.6l21-5.1V15.4L432.1,15.4z"/>
			</g>
			<g>
				<path class="st5" d="M426.1,21.4v54.9l-16.4,4l-4.5,1.1l0,4.7l0,1.6l-0.1,4.8l-0.2,2.3l-0.1,1.1l-0.2,1.1l-0.4,2.3l-0.5,2.3
					l0,0.1l0,0.1c-0.1,0.6-0.4,1.3-0.5,1.9c-0.1,0.3-0.2,0.5-0.2,0.8c-0.1,0.5-0.3,0.9-0.4,1.3c-0.1,0.3-0.3,0.7-0.4,1
					c-0.2,0.5-0.4,1-0.6,1.5c0-0.6,0-1.1,0-1.6c0-0.3,0-0.6,0-1l0-0.1l0-0.1c0-0.5-0.1-1-0.1-1.5c0-0.2,0-0.4,0-0.6
					c0-0.7-0.1-1.5-0.3-2.5l-0.2-1.7l0-0.2l0-0.2l-0.4-1.8l-0.2-0.9l-0.1-0.2l-0.1-0.2l-0.3-0.9l-0.5-1.7l-0.1-0.2l-0.1-0.2
					l-1.3-3.5l-0.1-0.3l-1.9-5l-5.2,1.3l-37.4,9.2l9-36.8l1.3-5.2l-5-1.9l-2.5-1l-0.2-0.1l-0.2-0.1l-1.7-0.5l-0.9-0.3l-0.2-0.1
					l-0.2-0.1l-0.9-0.2l-1.8-0.4l-0.2,0l-0.2,0l-1.7-0.2c-0.9-0.2-1.8-0.2-2.4-0.3c-0.2,0-0.4,0-0.6,0c-0.4,0-0.9-0.1-1.5-0.1
					l-0.1,0l-0.1,0c-0.2,0-0.5,0-0.7,0l-0.3,0l-0.3,0c-0.4,0-0.9,0-1.3,0c0.5-0.2,1-0.4,1.5-0.6c0.3-0.1,0.7-0.3,1-0.4
					c0.4-0.1,0.8-0.3,1.3-0.4c0.3-0.1,0.5-0.2,0.8-0.3c0.5-0.2,1.2-0.4,1.8-0.5l0.1,0l0.1,0l2.3-0.5l2.3-0.4l1.1-0.2l1-0.1l2.4-0.2
					l4.8-0.1l0.2,0l4.7,0l1.1-4.5l4.3-17.5H426.1 M432.1,15.4h-65.6l-5.4,22.1l-0.2,0l-5,0.1l-2.6,0.2l-1.3,0.1l-1.3,0.2l-2.5,0.4
					l-2.5,0.6c-0.8,0.2-1.6,0.4-2.4,0.7c-0.8,0.3-1.6,0.5-2.4,0.8c-1.6,0.6-3.1,1.2-4.6,1.9c-0.7,0.4-1.5,0.7-2.2,1.1l-2.1,1.2
					c-2.7,1.7-5.3,3.5-7.6,5.7c-4.7,4.2-8.2,9.2-10.8,14.5c4.3-4,9.1-7.2,14.2-9.1c2.5-1,5.1-1.7,7.7-2.2l1.9-0.3
					c0.6-0.1,1.3-0.1,1.9-0.2c0.8-0.1,1.6-0.1,2.5-0.1c0.2,0,0.4,0,0.6,0c0.3,0,0.5,0,0.8,0c0.6,0,1.3,0.1,1.9,0.1
					c0.6,0,1.2,0.1,1.9,0.2l1.8,0.3l1.8,0.4l0.9,0.2l0.9,0.3l1.7,0.5l2.5,1l-11.4,46.4l47-11.5l0.1,0.3l1.3,3.5l0.5,1.7l0.3,0.9
					l0.2,0.9l0.4,1.8l0.3,1.8c0.1,0.6,0.2,1.2,0.2,1.9c0,0.6,0.1,1.3,0.1,1.9c0,1.3,0,2.5-0.1,3.8c-0.1,0.6-0.1,1.3-0.2,1.9
					l-0.3,1.9c-0.5,2.6-1.1,5.2-2.2,7.7c-1.9,5.1-5.1,9.9-9.1,14.2c5.2-2.5,10.3-6.1,14.5-10.8c2.1-2.3,4-4.9,5.7-7.6l1.2-2.1
					c0.4-0.7,0.7-1.5,1.1-2.2c0.8-1.5,1.3-3,1.9-4.6c0.3-0.8,0.5-1.6,0.8-2.4c0.3-0.8,0.5-1.6,0.7-2.4l0.6-2.5l0.4-2.5l0.2-1.3
					l0.1-1.3l0.2-2.6l0.1-5l0-1.6l21-5.1V15.4L432.1,15.4z"/>
			</g>
			<path class="st6" d="M398.2,124.3c2.1-2.3,4-4.9,5.7-7.6l1.2-2.1c0.4-0.7,0.7-1.5,1.1-2.2c0.8-1.5,1.3-3,1.9-4.6
				c0.3-0.8,0.5-1.6,0.8-2.4c0.3-0.8,0.5-1.6,0.7-2.4l0.6-2.5l0.4-2.5l0.2-1.3l0.1-1.3l0.2-2.6l0.1-5l0-1.6l21-5.1V15.4h-65.6
				l-5.4,22.1l-0.2,0l-5,0.1l-2.6,0.2l-1.3,0.1l-1.3,0.2l-2.5,0.4l-2.5,0.6c-0.8,0.2-1.6,0.4-2.4,0.7c-0.8,0.3-1.6,0.5-2.4,0.8
				c-1.6,0.6-3.1,1.2-4.6,1.9c-0.7,0.4-1.5,0.7-2.2,1.1l-2.1,1.2c-2.7,1.7-5.3,3.5-7.6,5.7c-4.7,4.2-8.2,9.2-10.8,14.5
				c4.3-4,9.1-7.2,14.2-9.1c2.5-1,5.1-1.7,7.7-2.2l1.9-0.3c0.6-0.1,1.3-0.1,1.9-0.2c1.3-0.1,2.6-0.1,3.8-0.1c0.6,0,1.3,0.1,1.9,0.1
				c0.6,0,1.2,0.1,1.9,0.2l1.8,0.3l1.8,0.4l0.9,0.2l0.9,0.3l1.7,0.5l2.5,1l-11.4,46.4l47-11.5l0.1,0.3l1.3,3.5l0.5,1.7l0.3,0.9
				l0.2,0.9l0.4,1.8l0.3,1.8c0.1,0.6,0.2,1.2,0.2,1.9c0,0.6,0.1,1.3,0.1,1.9c0,1.3,0,2.5-0.1,3.8c-0.1,0.6-0.1,1.3-0.2,1.9l-0.3,1.9
				c-0.5,2.6-1.1,5.2-2.2,7.7c-1.9,5.1-5.1,9.9-9.1,14.2C389,132.5,394,129,398.2,124.3z"/>
		</g>
		<g>
			<g class="st10">
				<path class="st2" d="M396,404c0.2,0.5,0.4,1,0.6,1.5c0.1,0.3,0.3,0.7,0.4,1c0.1,0.4,0.3,0.8,0.4,1.3c0.1,0.3,0.2,0.5,0.3,0.8
					c0.2,0.5,0.4,1.2,0.5,1.8l0,0.1l0,0.1l0.5,2.3l0.4,2.3l0.2,1.1l0.1,1l0.2,2.4l0.1,4.8l0,0.2l0,4.7l4.5,1.1l17.5,4.3v54.9h-54.9
					l-4-16.4l-1.1-4.5l-4.7,0l-1.6,0l-4.8-0.1l-2.3-0.2l-1.1-0.1l-1.1-0.2l-2.3-0.4l-2.3-0.5l-0.1,0l-0.1,0
					c-0.6-0.1-1.3-0.4-1.9-0.5c-0.3-0.1-0.5-0.2-0.8-0.2c-0.5-0.1-0.9-0.3-1.3-0.4c-0.3-0.1-0.7-0.3-1-0.4c-0.5-0.2-1-0.4-1.5-0.6
					c0.5,0,0.9,0,1.3,0l0.3,0l0.3,0c0.2,0,0.5,0,0.7,0l0.1,0l0.1,0c0.5,0,1-0.1,1.5-0.1c0.2,0,0.4,0,0.6,0c0.7,0,1.5-0.1,2.5-0.3
					l1.7-0.2l0.2,0l0.2,0l1.8-0.4l0.9-0.2l0.2-0.1l0.2-0.1l0.9-0.3l1.7-0.5l0.2-0.1l0.2-0.1l3.5-1.3l0.3-0.1l5-1.9l-1.3-5.2
					l-9.2-37.4l36.8,9l5.2,1.3l1.9-5l1-2.5l0.1-0.2l0.1-0.2l0.5-1.7l0.3-0.9l0.1-0.2l0.1-0.2l0.2-0.9l0.4-1.8l0-0.2l0-0.2l0.2-1.7
					c0.2-0.9,0.2-1.8,0.3-2.4c0-0.2,0-0.4,0-0.6c0-0.4,0.1-0.9,0.1-1.5l0-0.1l0-0.1c0-0.3,0-0.6,0-1C396,405.1,396,404.6,396,404
					 M378.2,377.1c4,4.3,7.2,9.1,9.1,14.2c1,2.5,1.7,5.1,2.2,7.7l0.3,1.9c0.1,0.6,0.1,1.3,0.2,1.9c0.1,1.3,0.1,2.6,0.1,3.8
					c0,0.6-0.1,1.3-0.1,1.9c0,0.6-0.1,1.2-0.2,1.9l-0.3,1.8l-0.4,1.8l-0.2,0.9l-0.3,0.9l-0.5,1.7l-1,2.5l-46.4-11.4l11.5,47
					l-0.3,0.1l-3.5,1.3l-1.7,0.5l-0.9,0.3l-0.9,0.2l-1.8,0.4l-1.8,0.3c-0.6,0.1-1.2,0.2-1.9,0.2c-0.6,0-1.3,0.1-1.9,0.1
					c-0.3,0-0.5,0-0.8,0c-0.2,0-0.4,0-0.6,0c-0.8,0-1.6,0-2.5-0.1c-0.6-0.1-1.3-0.1-1.9-0.2l-1.9-0.3c-2.6-0.5-5.2-1.1-7.7-2.2
					c-5.1-1.9-9.9-5.1-14.2-9.1c2.5,5.2,6.1,10.3,10.8,14.5c2.3,2.1,4.9,4,7.6,5.7l2.1,1.2c0.7,0.4,1.5,0.7,2.2,1.1
					c1.5,0.8,3,1.3,4.6,1.9c0.8,0.3,1.6,0.5,2.4,0.8c0.8,0.3,1.6,0.5,2.4,0.7l2.5,0.6l2.5,0.4l1.3,0.2l1.3,0.1l2.6,0.2l5,0.1l1.6,0
					l5.1,21h65.6V430l-22.1-5.4l0-0.2l-0.1-5l-0.2-2.6l-0.1-1.3l-0.2-1.3l-0.4-2.5l-0.6-2.5c-0.2-0.8-0.4-1.6-0.7-2.4
					c-0.3-0.8-0.5-1.6-0.8-2.4c-0.6-1.6-1.2-3.1-1.9-4.6c-0.4-0.7-0.7-1.5-1.1-2.2l-1.2-2.1c-1.7-2.7-3.5-5.3-5.7-7.6
					C388.5,383.2,383.5,379.6,378.2,377.1L378.2,377.1z"/>
			</g>
			<path class="st3" d="M323.8,466.6c2.3,2.1,4.9,4,7.6,5.7l2.1,1.2c0.7,0.4,1.5,0.7,2.2,1.1c1.5,0.8,3,1.3,4.6,1.9
				c0.8,0.3,1.6,0.5,2.4,0.8c0.8,0.3,1.6,0.5,2.4,0.7l2.5,0.6l2.5,0.4l1.3,0.2l1.3,0.1l2.6,0.2l5,0.1l1.6,0l5.1,21h65.6v-65.6
				l-22.1-5.4l0-0.2l-0.1-5l-0.2-2.6l-0.1-1.3l-0.2-1.3l-0.4-2.5l-0.6-2.5c-0.2-0.8-0.4-1.6-0.7-2.4c-0.3-0.8-0.5-1.6-0.8-2.4
				c-0.6-1.6-1.2-3.1-1.9-4.6c-0.4-0.7-0.7-1.5-1.1-2.2l-1.2-2.1c-1.7-2.7-3.5-5.3-5.7-7.6c-4.2-4.7-9.2-8.2-14.5-10.8
				c4,4.3,7.2,9.1,9.1,14.2c1,2.5,1.7,5.1,2.2,7.7l0.3,1.9c0.1,0.6,0.1,1.3,0.2,1.9c0.1,1.3,0.1,2.6,0.1,3.8c0,0.6-0.1,1.3-0.1,1.9
				c0,0.6-0.1,1.2-0.2,1.9l-0.3,1.8L394,419l-0.2,0.9l-0.3,0.9l-0.5,1.7l-1,2.5l-46.4-11.4l11.5,47l-0.3,0.1l-3.5,1.3l-1.7,0.5
				l-0.9,0.3L350,463l-1.8,0.4l-1.8,0.3c-0.6,0.1-1.2,0.2-1.9,0.2c-0.6,0-1.3,0.1-1.9,0.1c-1.3,0-2.5,0-3.8-0.1
				c-0.6-0.1-1.3-0.1-1.9-0.2l-1.9-0.3c-2.6-0.5-5.2-1.1-7.7-2.2c-5.1-1.9-9.9-5.1-14.2-9.1C315.6,457.4,319.2,462.5,323.8,466.6z"
				/>
			<g>
				<path class="st4" d="M371.7,439.5l15.9,3.9l4.2,1l14.3,3.5l7.6,1.9v31.7H382l-1.6-6.5l-3.5-14.3h0l-1.1-4.7L371.7,439.5
					 M383.2,382c4,4.3,7.2,9.1,9.1,14.2c1,2.5,1.7,5.1,2.2,7.7l0.3,1.9c0.1,0.6,0.1,1.3,0.2,1.9c0.1,1.3,0.1,2.6,0.1,3.8
					c0,0.6-0.1,1.3-0.1,1.9c0,0.6-0.1,1.2-0.2,1.9l-0.3,1.8L394,419l-0.2,0.9l-0.3,0.9l-0.5,1.7l-1,2.5l-46.4-11.4l11.5,47l-0.3,0.1
					l-3.5,1.3l-1.7,0.5l-0.9,0.3L350,463l-1.8,0.4l-1.8,0.3c-0.6,0.1-1.2,0.2-1.9,0.2c-0.6,0-1.3,0.1-1.9,0.1c-0.3,0-0.5,0-0.8,0
					c-0.2,0-0.4,0-0.6,0c-0.8,0-1.6,0-2.5-0.1c-0.6-0.1-1.3-0.1-1.9-0.2l-1.9-0.3c-2.6-0.5-5.2-1.1-7.7-2.2
					c-5.1-1.9-9.9-5.1-14.2-9.1c2.5,5.2,6.1,10.3,10.8,14.5c2.3,2.1,4.9,4,7.6,5.7l2.1,1.2c0.7,0.4,1.5,0.7,2.2,1.1
					c1.5,0.8,3,1.3,4.6,1.9c0.8,0.3,1.6,0.5,2.4,0.8c0.8,0.3,1.6,0.5,2.4,0.7l2.5,0.6l2.5,0.4l1.3,0.2l1.3,0.1l2.6,0.2l5,0.1l1.6,0
					l5.1,21h65.6v-65.6l-22.1-5.4l0-0.2l-0.1-5l-0.2-2.6l-0.1-1.3l-0.2-1.3l-0.4-2.5l-0.6-2.5c-0.2-0.8-0.4-1.6-0.7-2.4
					c-0.3-0.8-0.5-1.6-0.8-2.4c-0.6-1.6-1.2-3.1-1.9-4.6c-0.4-0.7-0.7-1.5-1.1-2.2l-1.2-2.1c-1.7-2.7-3.5-5.3-5.7-7.6
					C393.5,388.1,388.4,384.6,383.2,382L383.2,382z"/>
			</g>
			<g>
				<path class="st5" d="M401,409c0.2,0.5,0.4,1,0.6,1.5c0.1,0.3,0.3,0.7,0.4,1c0.1,0.4,0.3,0.8,0.4,1.3c0.1,0.3,0.2,0.5,0.3,0.8
					c0.2,0.5,0.4,1.2,0.5,1.8l0,0.1l0,0.1l0.5,2.3l0.4,2.3l0.2,1.1l0.1,1l0.2,2.4l0.1,4.8l0,0.2l0,4.7l4.5,1.1l17.5,4.3v54.9h-54.9
					l-4-16.4l-1.1-4.5l-4.7,0l-1.6,0l-4.8-0.1l-2.3-0.2l-1.1-0.1l-1.1-0.2l-2.3-0.4l-2.3-0.5l-0.1,0l-0.1,0
					c-0.6-0.1-1.3-0.4-1.9-0.5c-0.3-0.1-0.5-0.2-0.8-0.2c-0.5-0.1-0.9-0.3-1.3-0.4c-0.3-0.1-0.7-0.3-1-0.4c-0.5-0.2-1-0.4-1.5-0.6
					c0.5,0,0.9,0,1.3,0l0.3,0l0.3,0c0.2,0,0.5,0,0.7,0l0.1,0l0.1,0c0.5,0,1-0.1,1.5-0.1c0.2,0,0.4,0,0.6,0c0.7,0,1.5-0.1,2.5-0.3
					l1.7-0.2l0.2,0l0.2,0l1.8-0.4l0.9-0.2l0.2-0.1l0.2-0.1l0.9-0.3l1.7-0.5l0.2-0.1l0.2-0.1l3.5-1.3l0.3-0.1l5-1.9l-1.3-5.2
					l-9.2-37.4l36.8,9l5.2,1.3l1.9-5l1-2.5l0.1-0.2l0.1-0.2l0.5-1.7l0.3-0.9l0.1-0.2l0.1-0.2l0.2-0.9l0.4-1.8l0-0.2l0-0.2l0.2-1.7
					c0.2-0.9,0.2-1.8,0.3-2.4c0-0.2,0-0.4,0-0.6c0-0.4,0.1-0.9,0.1-1.5l0-0.1l0-0.1c0-0.3,0-0.6,0-1C401,410.1,401,409.5,401,409
					 M383.2,382c4,4.3,7.2,9.1,9.1,14.2c1,2.5,1.7,5.1,2.2,7.7l0.3,1.9c0.1,0.6,0.1,1.3,0.2,1.9c0.1,1.3,0.1,2.6,0.1,3.8
					c0,0.6-0.1,1.3-0.1,1.9c0,0.6-0.1,1.2-0.2,1.9l-0.3,1.8L394,419l-0.2,0.9l-0.3,0.9l-0.5,1.7l-1,2.5l-46.4-11.4l11.5,47l-0.3,0.1
					l-3.5,1.3l-1.7,0.5l-0.9,0.3L350,463l-1.8,0.4l-1.8,0.3c-0.6,0.1-1.2,0.2-1.9,0.2c-0.6,0-1.3,0.1-1.9,0.1c-0.3,0-0.5,0-0.8,0
					c-0.2,0-0.4,0-0.6,0c-0.8,0-1.6,0-2.5-0.1c-0.6-0.1-1.3-0.1-1.9-0.2l-1.9-0.3c-2.6-0.5-5.2-1.1-7.7-2.2
					c-5.1-1.9-9.9-5.1-14.2-9.1c2.5,5.2,6.1,10.3,10.8,14.5c2.3,2.1,4.9,4,7.6,5.7l2.1,1.2c0.7,0.4,1.5,0.7,2.2,1.1
					c1.5,0.8,3,1.3,4.6,1.9c0.8,0.3,1.6,0.5,2.4,0.8c0.8,0.3,1.6,0.5,2.4,0.7l2.5,0.6l2.5,0.4l1.3,0.2l1.3,0.1l2.6,0.2l5,0.1l1.6,0
					l5.1,21h65.6v-65.6l-22.1-5.4l0-0.2l-0.1-5l-0.2-2.6l-0.1-1.3l-0.2-1.3l-0.4-2.5l-0.6-2.5c-0.2-0.8-0.4-1.6-0.7-2.4
					c-0.3-0.8-0.5-1.6-0.8-2.4c-0.6-1.6-1.2-3.1-1.9-4.6c-0.4-0.7-0.7-1.5-1.1-2.2l-1.2-2.1c-1.7-2.7-3.5-5.3-5.7-7.6
					C393.5,388.1,388.4,384.6,383.2,382L383.2,382z"/>
			</g>
			<path class="st6" d="M323.8,466.6c2.3,2.1,4.9,4,7.6,5.7l2.1,1.2c0.7,0.4,1.5,0.7,2.2,1.1c1.5,0.8,3,1.3,4.6,1.9
				c0.8,0.3,1.6,0.5,2.4,0.8c0.8,0.3,1.6,0.5,2.4,0.7l2.5,0.6l2.5,0.4l1.3,0.2l1.3,0.1l2.6,0.2l5,0.1l1.6,0l5.1,21h65.6v-65.6
				l-22.1-5.4l0-0.2l-0.1-5l-0.2-2.6l-0.1-1.3l-0.2-1.3l-0.4-2.5l-0.6-2.5c-0.2-0.8-0.4-1.6-0.7-2.4c-0.3-0.8-0.5-1.6-0.8-2.4
				c-0.6-1.6-1.2-3.1-1.9-4.6c-0.4-0.7-0.7-1.5-1.1-2.2l-1.2-2.1c-1.7-2.7-3.5-5.3-5.7-7.6c-4.2-4.7-9.2-8.2-14.5-10.8
				c4,4.3,7.2,9.1,9.1,14.2c1,2.5,1.7,5.1,2.2,7.7l0.3,1.9c0.1,0.6,0.1,1.3,0.2,1.9c0.1,1.3,0.1,2.6,0.1,3.8c0,0.6-0.1,1.3-0.1,1.9
				c0,0.6-0.1,1.2-0.2,1.9l-0.3,1.8L394,419l-0.2,0.9l-0.3,0.9l-0.5,1.7l-1,2.5l-46.4-11.4l11.5,47l-0.3,0.1l-3.5,1.3l-1.7,0.5
				l-0.9,0.3L350,463l-1.8,0.4l-1.8,0.3c-0.6,0.1-1.2,0.2-1.9,0.2c-0.6,0-1.3,0.1-1.9,0.1c-1.3,0-2.5,0-3.8-0.1
				c-0.6-0.1-1.3-0.1-1.9-0.2l-1.9-0.3c-2.6-0.5-5.2-1.1-7.7-2.2c-5.1-1.9-9.9-5.1-14.2-9.1C315.6,457.4,319.2,462.5,323.8,466.6z"
				/>
		</g>
		<g>
			<g>
				<rect x="354.9" y="238.1" class="st11" width="68.2" height="78.5"/>
				<rect x="357.5" y="235.5" class="st12" width="78.5" height="78.5"/>
				<line class="st13" x1="357.5" y1="314" x2="362.6" y2="308"/>
				<polyline class="st12" points="367.8,243 367.8,238.8 362.6,229.5 357.5,235.5 357.5,241.1 				"/>
				<polyline class="st12" points="436,314 441.2,308 441.2,295.8 430.6,298.3 427.9,302.4 				"/>
			</g>
			<path class="st14" d="M362.6,229.5V308h78.5v-78.5H362.6z M414.1,289.1h-24.2l2.8-17.5c-3.1-2.6-5.1-6.6-5.1-11
				c0-8,6.4-14.4,14.4-14.4c8,0,14.4,6.4,14.4,14.4c0,4.4-2,8.3-5.1,11L414.1,289.1z"/>
			<g class="st15">
				<path class="st4" d="M433.2,237.5V300h-62.5v-62.5H433.2 M384.2,274.2l-2.2,13.6l-1.5,9.3h9.4h24.2h9.4l-1.5-9.3l-2.2-13.6
					c2.9-3.9,4.6-8.6,4.6-13.6c0-12.4-10-22.4-22.4-22.4c-12.4,0-22.4,10-22.4,22.4C379.6,265.6,381.3,270.4,384.2,274.2
					 M441.2,229.5h-78.5V308h78.5V229.5L441.2,229.5z M389.9,289.1l2.8-17.5c-3.1-2.6-5.1-6.6-5.1-11c0-8,6.4-14.4,14.4-14.4
					c8,0,14.4,6.4,14.4,14.4c0,4.4-2,8.3-5.1,11l2.8,17.5H389.9L389.9,289.1z"/>
			</g>
			<g class="st15">
				<path class="st5" d="M438.2,232.5V305h-72.5v-72.5H438.2 M389.5,272.7l-2.5,15.9l-0.6,3.5h3.5h24.2h3.5l-0.6-3.5l-2.5-15.9
					c3.1-3.2,4.9-7.5,4.9-12.1c0-9.6-7.8-17.4-17.4-17.4c-9.6,0-17.4,7.8-17.4,17.4C384.6,265.2,386.4,269.5,389.5,272.7
					 M441.2,229.5h-78.5V308h78.5V229.5L441.2,229.5z M389.9,289.1l2.8-17.5c-3.1-2.6-5.1-6.6-5.1-11c0-8,6.4-14.4,14.4-14.4
					c8,0,14.4,6.4,14.4,14.4c0,4.4-2,8.3-5.1,11l2.8,17.5H389.9L389.9,289.1z"/>
			</g>
			<path class="st6" d="M362.6,229.5V308h78.5v-78.5H362.6z M414.1,289.1h-24.2l2.8-17.5c-3.1-2.6-5.1-6.6-5.1-11
				c0-8,6.4-14.4,14.4-14.4c8,0,14.4,6.4,14.4,14.4c0,4.4-2,8.3-5.1,11L414.1,289.1z"/>
			<path d="M416.4,260.7c0-8-6.4-14.4-14.4-14.4c-8,0-14.4,6.4-14.4,14.4c0,4.4,2,8.3,5.1,11l-2.8,17.5h24.2l-2.8-17.5
				C414.5,269,416.4,265.1,416.4,260.7z"/>
			<g>
				<path class="st16" d="M402,250.3c5.7,0,10.4,4.7,10.4,10.4c0,3.1-1.3,5.9-3.7,7.9l-1.7,1.5l0.4,2.2l2,12.9h-14.8l2-12.9l0.4-2.2
					l-1.7-1.5c-2.3-2-3.7-4.9-3.7-7.9C391.6,254.9,396.3,250.3,402,250.3 M402,246.3c-8,0-14.4,6.4-14.4,14.4c0,4.4,2,8.3,5.1,11
					l-2.8,17.5h24.2l-2.8-17.5c3.1-2.6,5.1-6.6,5.1-11C416.4,252.7,410,246.3,402,246.3L402,246.3z"/>
			</g>
			<g>
				<path d="M402,248.3c6.8,0,12.4,5.6,12.4,12.4c0,3.6-1.6,7.1-4.4,9.5l-0.9,0.7l0.2,1.1l2.4,15.2h-19.5l2.4-15.2l0.2-1.1l-0.9-0.7
					c-2.8-2.4-4.4-5.8-4.4-9.5C389.6,253.8,395.2,248.3,402,248.3 M402,246.3c-8,0-14.4,6.4-14.4,14.4c0,4.4,2,8.3,5.1,11l-2.8,17.5
					h24.2l-2.8-17.5c3.1-2.6,5.1-6.6,5.1-11C416.4,252.7,410,246.3,402,246.3L402,246.3z"/>
			</g>
			<path class="st17" d="M416.4,260.7c0-8-6.4-14.4-14.4-14.4c-8,0-14.4,6.4-14.4,14.4c0,4.4,2,8.3,5.1,11l-2.8,17.5h24.2l-2.8-17.5
				C414.5,269,416.4,265.1,416.4,260.7z"/>
		</g>
		<g>
			<path class="st18" d="M136.1,66.1c-0.1-0.1-0.2-0.1-0.3-0.2c0.3-0.3,0.6-0.7,0.9-1.1l2.7-4.8v0c-1.8-1.5-2.7-4-2.6-6.5l0-0.8
				c0.1-1-0.2-2.1-0.7-3l-0.8-1.3c0.6-0.7,1.2-1.3,1.7-2.1c1-1.5,1.6-3.1,1.9-4.8c0.2-1.6,0.1-3.2-0.3-4.7c-0.4-1.5-1.2-2.8-2.2-3.9
				c0.5,1.4,0.6,2.7,0.4,4.1c-0.2,1.3-0.6,2.5-1.3,3.6c-0.7,1.1-1.6,2-2.6,2.7c-0.5,0.3-1,0.6-1.6,0.9l-0.1,0
				c-0.6-0.3-1.3-0.6-1.9-0.8c-1.4-0.4-2.9-0.4-4.2-0.1l-3.1,0.8l-3.2,0c-1.4,0-2.8,0.4-4.1,1.1c-0.6,0.3-1.1,0.7-1.6,1.2
				c-0.6-0.1-1.1-0.2-1.6-0.4c-1.1-0.4-2.2-1.1-3.2-1.9c-0.9-0.9-1.7-2-2.2-3.2c-0.5-1.2-0.7-2.6-0.6-4c-0.7,1.3-1.1,2.8-1.2,4.3
				c-0.1,1.5,0.2,3.1,0.8,4.6c0.6,1.5,1.6,2.9,3,4.2c0.6,0.6,1.3,1,2,1.5l-0.5,1.6c-0.3,1-0.3,2.1,0,3.1l0.2,0.7
				c0.8,2.4,0.4,5-0.9,6.9v0l3.8,4c0.6,0.4,1,0.7,1.4,1.1c-1.4,1.5-3.5,2.7-5.9,3.4c2.5,0.3,5.2-0.1,7.7-1.2c0,0,0,0,0,0
				c0.4,0.5,0.9,1.1,1.6,1.8l0.2,0.2c0.4,0.4,0.7,1,0.7,1.7c0,1.6,3.8,2.3,5,1.7l2.6-0.6l2.7,0c1.3,0.3,4.5-1.3,4.1-2.9
				c-0.1-0.6,0-1.3,0.3-1.8l0.1-0.2c0.6-1,1-1.7,1.3-2.4c0.2,0,0.4,0.1,0.7,0.1c2.7,0.5,5.5,0.2,7.8-0.7
				C140.1,67.9,137.8,67.2,136.1,66.1z M128,54.1c0.1,0,0.1,0,0.2,0c-0.1,0.4-0.2,0.8-0.1,1.2c0.1,0.6,0.4,1.1,0.7,1.5l0,0
				c-0.6-0.3-1-0.8-1-1.5C127.7,54.9,127.8,54.5,128,54.1z M126.2,54.4c0.2-0.2,0.4-0.3,0.7-0.3c-0.2,0.4-0.3,0.9-0.2,1.4
				c0,0.3,0.1,0.5,0.2,0.8c-0.4-0.3-0.7-0.7-0.8-1.2C126.1,54.8,126.1,54.6,126.2,54.4z M120.4,55.1c0.2,0.1,0.3,0.3,0.3,0.5
				c0,0.5-0.2,1-0.5,1.4c0-0.3,0.1-0.5,0-0.8c-0.1-0.5-0.2-0.9-0.5-1.3C120,54.9,120.2,55,120.4,55.1z M118.7,55.3
				c0.3,0.3,0.5,0.7,0.5,1.1c0.1,0.6-0.2,1.2-0.6,1.7l0,0c0.3-0.5,0.4-1,0.4-1.6c-0.1-0.4-0.2-0.8-0.4-1.1
				C118.5,55.3,118.6,55.3,118.7,55.3z M113.6,57.2l-0.6-1c-0.3-0.5-0.1-1.2,0.4-1.6c0.1-0.1,0.3-0.1,0.4-0.1l0.7,0.1
				c-0.7,0.6-1.1,1.5-1,2.4C113.6,57.1,113.6,57.2,113.6,57.2C113.6,57.2,113.6,57.2,113.6,57.2z M116.1,64.8l-0.1,0.3
				c-0.1,0.2-0.1,0.4-0.2,0.6c-0.1,0.2-0.2,0.4-0.3,0.6c-0.1,0.2-0.2,0.4-0.3,0.6l-0.8-3l0,0c0.6,0.3,1.1,0.5,1.7,0.7L116.1,64.8z
				 M115.6,58.4c-0.6-0.3-1-0.8-1-1.5c-0.1-0.7,0.2-1.3,0.7-1.7c-0.3,0.5-0.5,1.1-0.4,1.7C115,57.5,115.3,58.1,115.6,58.4
				L115.6,58.4z M115.3,56.9c-0.1-0.8,0.2-1.6,0.8-2l0.3,0c0.1,0,0.3,0.1,0.4,0.1l0.5,0.2c0.2,0.1,0.5,0.1,0.8,0.1
				c0.2,0.3,0.4,0.7,0.5,1.1c0.1,0.7-0.1,1.3-0.5,1.7l-0.7,0.2c-0.3,0.1-0.7,0.1-1,0.1C115.8,58.2,115.4,57.6,115.3,56.9z
				 M130.7,69.4c-0.2,0.1-0.3,0.3-0.5,0.4l-0.6,0.6c0,0,0,0,0,0c-0.2-0.1-0.4-0.3-0.5-0.4c-0.3-0.3-0.6-0.6-0.8-1
				c-0.5-0.8-0.7-1.7-0.7-2.7c-0.6,0.9-0.9,1.9-1,3c0,0.5,0,1.1,0.2,1.7c0.1,0.3,0.2,0.6,0.3,0.8c0,0.1,0.1,0.1,0.1,0.2
				c-0.3,0-0.6,0-0.9,0l-0.5,0.2l-0.2,0l-0.2,0.1l-0.4-0.1c-0.5,0-1,0.2-1.4,0.3c0-0.1,0-0.2,0-0.3c0-0.3,0.1-0.6,0-0.9
				c0-0.6-0.1-1.1-0.3-1.7c-0.3-1.1-0.9-2-1.7-2.7c0.2,1,0.2,1.9-0.1,2.8c-0.1,0.4-0.3,0.8-0.6,1.2c-0.1,0.1-0.2,0.2-0.2,0.3
				l-0.5-0.3c-0.2-0.1-0.4-0.2-0.5-0.3l-1.9-0.8c0.5-0.3,1-0.7,1.5-1.1c0.3-0.2,0.5-0.5,0.8-0.7c0.3-0.2,0.5-0.5,0.7-0.8l1.1-1.3
				c0.2,0,0.4,0,0.6,0.1c0.1,0.2,0.2,0.3,0.3,0.5c0.2,0.4,0.4,0.7,0.5,1.2c0.2-0.4,0.3-0.8,0.4-1.3c0-0.1,0-0.2,0-0.4l0.7-0.1
				c0.1,0,0.2,0,0.3,0l0.6,0c0,0.1,0.1,0.2,0.1,0.3c0.2,0.4,0.4,0.8,0.7,1.2c0-0.4,0-0.8,0.2-1.2c0-0.2,0.1-0.3,0.2-0.5
				c0.3-0.1,0.6-0.2,1-0.4l1.5,1c0.3,0.2,0.6,0.4,0.9,0.6c0.3,0.2,0.6,0.3,0.9,0.5c0.5,0.3,1.1,0.5,1.6,0.7L130.7,69.4z M131.1,56.7
				c-0.3,0.1-0.6,0.2-1,0.2l-0.7,0c-0.5-0.3-0.8-0.9-0.9-1.6c-0.1-0.4,0-0.9,0.2-1.2c0.2-0.1,0.5-0.2,0.7-0.3l0.5-0.3
				c0.1-0.1,0.3-0.1,0.4-0.2l0.2-0.1c0.7,0.2,1.2,0.9,1.3,1.7C131.8,55.6,131.5,56.3,131.1,56.7z M131.7,56.4L131.7,56.4
				c0.3-0.4,0.4-1,0.3-1.6c-0.1-0.6-0.4-1.2-0.8-1.5c0.6,0.3,1,0.8,1.1,1.5C132.4,55.4,132.2,56,131.7,56.4z M134.1,64.3
				c-0.1-0.1-0.1-0.1-0.2-0.2c-0.1-0.2-0.3-0.4-0.4-0.6c-0.1-0.2-0.3-0.4-0.4-0.6l-0.2-0.3l-0.1-0.2c0.4-0.3,0.9-0.6,1.3-1
				L134.1,64.3z M133.7,53.6l-0.3,1.1c0,0,0,0,0,0c0,0,0-0.1,0-0.1c-0.1-0.9-0.7-1.7-1.5-2.1l0.6-0.3c0.1-0.1,0.3-0.1,0.5,0
				C133.6,52.5,133.9,53.1,133.7,53.6z"/>
			<path class="st18" d="M131.4,167.3c-0.1-0.1-0.1-0.1-0.1-0.2c0.2-0.2,0.5-0.4,0.9-0.6l2.8-2.6v0c-0.9-1.4-1-3.3-0.4-4.9l0.2-0.5
				c0.3-0.7,0.3-1.5,0.1-2.2l-0.3-1.1c0.6-0.3,1.1-0.7,1.6-1c1-0.8,1.8-1.8,2.3-2.8c0.5-1,0.8-2.1,0.8-3.2c0-1.1-0.2-2.1-0.7-3.1
				c0,1-0.2,2-0.6,2.8c-0.4,0.8-1,1.6-1.7,2.2c-0.7,0.6-1.5,1-2.3,1.2c-0.4,0.1-0.8,0.2-1.2,0.3l0,0c-0.3-0.4-0.7-0.7-1.1-1
				c-0.9-0.6-1.8-0.9-2.8-1l-2.3-0.1l-2.2-0.7c-1-0.3-2-0.3-3-0.1c-0.5,0.1-0.9,0.3-1.4,0.5c-0.4-0.2-0.7-0.4-1-0.6
				c-0.7-0.5-1.3-1.2-1.7-2c-0.4-0.8-0.7-1.7-0.8-2.6c-0.1-0.9,0.1-1.9,0.4-2.8c-0.7,0.7-1.3,1.6-1.7,2.6c-0.4,1-0.5,2.1-0.4,3.3
				c0.1,1.1,0.5,2.3,1.1,3.4c0.3,0.5,0.6,1,1,1.4l-0.7,1c-0.4,0.6-0.7,1.3-0.6,2.1l0,0.5c0,1.8-0.8,3.5-2.1,4.5l0,0l1.7,3.5
				c0.3,0.4,0.5,0.7,0.7,1c-1.3,0.7-2.9,1.1-4.7,1c1.6,0.7,3.5,1,5.5,0.8c0,0,0,0,0,0c0.2,0.4,0.4,0.9,0.7,1.6l0.1,0.1
				c0.2,0.4,0.2,0.8,0.1,1.3c-0.3,1.1,2.1,2.4,3,2.2l1.9,0.1l1.8,0.6c0.8,0.5,3.3,0,3.4-1.1c0-0.4,0.2-0.9,0.5-1.1l0.1-0.1
				c0.6-0.5,1-1,1.4-1.3c0.1,0.1,0.3,0.2,0.4,0.2c1.7,0.9,3.7,1.3,5.4,1.2C133.8,169.4,132.4,168.4,131.4,167.3z M128.5,157.5
				c0,0,0.1,0,0.1,0c-0.2,0.2-0.3,0.5-0.3,0.8c-0.1,0.4,0,0.8,0.2,1.2l0,0c-0.3-0.3-0.5-0.8-0.4-1.2
				C128.1,158,128.3,157.7,128.5,157.5z M127.2,157.4c0.1-0.1,0.3-0.1,0.5-0.1c-0.2,0.2-0.4,0.5-0.4,0.9c0,0.2,0,0.4,0,0.6
				c-0.2-0.3-0.3-0.6-0.3-1C127,157.6,127.1,157.4,127.2,157.4z M123.2,156.6c0.1,0.1,0.1,0.3,0.1,0.4c-0.1,0.3-0.3,0.6-0.6,0.8
				c0.1-0.2,0.1-0.3,0.2-0.5c0.1-0.3,0-0.7-0.1-1C122.9,156.4,123.1,156.5,123.2,156.6z M121.9,156.3c0.1,0.3,0.2,0.6,0.1,0.9
				c-0.1,0.4-0.4,0.8-0.8,1l0,0c0.3-0.2,0.5-0.6,0.6-1c0.1-0.3,0-0.6,0-0.8C121.8,156.3,121.9,156.3,121.9,156.3z M118.1,156.5
				l-0.2-0.8c-0.1-0.4,0.2-0.8,0.6-1c0.1,0,0.2,0,0.3,0l0.4,0.2C118.7,155.3,118.2,155.8,118.1,156.5
				C118.1,156.5,118.1,156.5,118.1,156.5C118.1,156.6,118.1,156.6,118.1,156.5z M118.2,162.2l-0.1,0.2c-0.1,0.1-0.2,0.3-0.3,0.4
				c-0.1,0.1-0.2,0.3-0.3,0.4c-0.1,0.1-0.2,0.2-0.3,0.3l0.1-2.2h0C117.6,161.6,117.9,161.8,118.2,162.2L118.2,162.2z M119.2,157.8
				c-0.3-0.3-0.5-0.8-0.4-1.2c0.1-0.5,0.4-0.8,0.8-1c-0.3,0.2-0.5,0.6-0.6,1.1C119,157.1,119.1,157.5,119.2,157.8L119.2,157.8z
				 M119.3,156.7c0.1-0.6,0.5-1,1-1.2l0.2,0.1c0.1,0,0.2,0.1,0.3,0.2l0.3,0.2c0.1,0.1,0.3,0.2,0.5,0.2c0.1,0.3,0.1,0.6,0.1,0.9
				c-0.1,0.5-0.4,0.9-0.7,1.1l-0.5,0c-0.2,0-0.5-0.1-0.7-0.2C119.4,157.7,119.2,157.2,119.3,156.7z M127.1,168.4
				c-0.1,0-0.3,0.1-0.4,0.2l-0.5,0.3c0,0,0,0,0,0c-0.1-0.1-0.2-0.3-0.3-0.4c-0.1-0.3-0.3-0.5-0.3-0.9c-0.2-0.6-0.1-1.3,0.1-1.9
				c-0.6,0.5-1,1.1-1.3,1.8c-0.1,0.4-0.2,0.8-0.2,1.2c0,0.2,0,0.4,0,0.6c0,0.1,0,0.1,0,0.2c-0.2-0.1-0.4-0.1-0.6-0.2l-0.4,0
				l-0.2-0.1l-0.2,0l-0.3-0.1c-0.4-0.1-0.7-0.1-1-0.1c0-0.1,0.1-0.1,0.1-0.2c0.1-0.2,0.2-0.4,0.2-0.6c0.1-0.4,0.2-0.8,0.2-1.2
				c0-0.8-0.2-1.5-0.5-2.2c0,0.7-0.3,1.3-0.6,1.8c-0.2,0.3-0.4,0.5-0.6,0.7c-0.1,0.1-0.2,0.1-0.2,0.2l-0.3-0.3
				c-0.1-0.1-0.2-0.2-0.3-0.3l-1.1-1c0.4-0.1,0.8-0.3,1.3-0.4c0.2-0.1,0.5-0.2,0.7-0.3c0.2-0.1,0.4-0.2,0.7-0.4l1-0.6
				c0.1,0.1,0.3,0.1,0.4,0.2c0,0.1,0.1,0.3,0.1,0.4c0.1,0.3,0.1,0.6,0.1,0.9c0.2-0.2,0.4-0.5,0.5-0.8c0-0.1,0.1-0.2,0.1-0.2l0.5,0.1
				c0.1,0,0.2,0,0.2,0l0.4,0.1c0,0.1,0,0.2,0,0.3c0,0.3,0.1,0.6,0.2,0.9c0.1-0.3,0.2-0.6,0.4-0.8c0.1-0.1,0.1-0.2,0.2-0.3
				c0.2,0,0.5,0,0.7,0l0.8,1c0.1,0.2,0.3,0.4,0.5,0.6c0.2,0.2,0.3,0.4,0.5,0.5c0.3,0.3,0.6,0.5,0.9,0.8L127.1,168.4z M130,159.9
				c-0.2,0-0.5,0-0.7-0.1l-0.5-0.2c-0.3-0.3-0.4-0.8-0.3-1.2c0.1-0.3,0.2-0.6,0.4-0.8c0.2,0,0.4,0,0.5-0.1l0.4-0.1
				c0.1,0,0.2,0,0.3-0.1l0.2,0c0.4,0.3,0.6,0.8,0.5,1.4C130.7,159.3,130.4,159.7,130,159.9z M130.5,159.9L130.5,159.9
				c0.3-0.2,0.5-0.6,0.6-1c0.1-0.4,0-0.9-0.2-1.2c0.3,0.3,0.5,0.8,0.4,1.3C131.2,159.3,130.9,159.7,130.5,159.9z M130.4,165.7
				c0-0.1-0.1-0.1-0.1-0.2c-0.1-0.2-0.1-0.3-0.2-0.5c0-0.2-0.1-0.3-0.1-0.5l0-0.2l0-0.2c0.4-0.1,0.7-0.2,1.1-0.4L130.4,165.7z
				 M132.4,158.4l-0.4,0.7c0,0,0,0,0,0c0,0,0-0.1,0-0.1c0.1-0.6-0.1-1.3-0.6-1.8l0.5,0c0.1,0,0.2,0,0.3,0.1
				C132.6,157.6,132.7,158,132.4,158.4z"/>
			<path class="st18" d="M265.5,133.9c-0.1-0.1-0.3-0.1-0.4-0.2c0.3-0.5,0.7-1.1,1.1-1.7l3.1-7l0,0c-2.7-1.9-4.4-5.2-4.5-8.7l0-1.1
				c-0.1-1.5-0.6-2.9-1.5-4l-1.4-1.7c0.8-1,1.5-2,2-3.1c1.2-2.2,1.8-4.6,1.9-6.9c0.1-2.3-0.3-4.5-1.1-6.4c-0.8-2-2.1-3.7-3.6-5
				c0.8,1.8,1.2,3.7,1.1,5.6c-0.1,1.8-0.5,3.6-1.3,5.2c-0.8,1.6-1.9,3-3.2,4.1c-0.6,0.6-1.4,1-2.1,1.4l-0.1,0
				c-0.9-0.4-1.9-0.7-2.8-0.8c-2-0.4-4-0.2-5.9,0.5l-4.2,1.5l-4.5,0.5c-2,0.2-3.9,0.9-5.5,2.1c-0.8,0.5-1.5,1.2-2.1,1.9
				c-0.8-0.1-1.6-0.2-2.3-0.4c-1.6-0.4-3.3-1.2-4.7-2.2c-1.4-1.1-2.6-2.5-3.4-4.1c-0.9-1.6-1.4-3.5-1.4-5.5c-0.8,1.9-1.2,4-1.1,6.1
				c0.1,2.1,0.7,4.3,1.8,6.3c1.1,2,2.7,3.8,4.7,5.3c0.9,0.7,1.9,1.3,2.9,1.8l-0.5,2.3c-0.3,1.4-0.2,2.9,0.4,4.2l0.4,1
				c1.4,3.2,1.3,6.9-0.3,9.8l0,0l5.8,4.9c0.9,0.5,1.5,0.9,2.1,1.3c-1.8,2.3-4.4,4.3-7.7,5.5c3.5,0.1,7.2-0.9,10.6-2.8c0,0,0,0,0,0
				c0.6,0.7,1.4,1.4,2.5,2.3l0.2,0.2c0.6,0.5,1.1,1.3,1.2,2.2c0.3,2.2,5.6,2.7,7.2,1.7l3.5-1.3l3.7-0.4c1.9,0.2,6-2.5,5.3-4.6
				c-0.3-0.8-0.2-1.7,0.1-2.5l0.1-0.3c0.7-1.5,1.1-2.6,1.5-3.5c0.3,0,0.6,0.1,0.9,0.1c3.9,0.3,7.6-0.5,10.7-2.1
				C271.4,135.9,268.1,135.2,265.5,133.9z M252.6,118.5c0.1,0,0.2,0,0.3-0.1c-0.1,0.5-0.1,1.1,0,1.7c0.2,0.8,0.7,1.5,1.3,2l-0.1,0
				c-0.8-0.4-1.4-1-1.6-1.9C252.3,119.6,252.4,119,252.6,118.5z M250.2,119.1c0.2-0.3,0.5-0.5,0.9-0.5c-0.2,0.6-0.2,1.3-0.1,1.9
				c0.1,0.4,0.2,0.7,0.4,1c-0.6-0.4-1.1-0.9-1.3-1.6C250,119.7,250,119.4,250.2,119.1z M242.2,121c0.2,0.2,0.4,0.4,0.4,0.7
				c0.1,0.7-0.1,1.4-0.5,2c0-0.4,0-0.7-0.1-1.1c-0.1-0.6-0.5-1.2-0.9-1.7C241.5,120.7,241.9,120.8,242.2,121z M239.8,121.4
				c0.4,0.4,0.8,0.9,0.9,1.4c0.2,0.9-0.1,1.7-0.7,2.4l-0.1,0c0.3-0.7,0.5-1.5,0.3-2.3c-0.1-0.6-0.4-1.1-0.7-1.5
				C239.6,121.5,239.7,121.4,239.8,121.4z M233,124.8l-0.9-1.3c-0.5-0.7-0.3-1.6,0.4-2.2c0.2-0.1,0.4-0.2,0.6-0.2l0.9,0
				c-0.9,1-1.3,2.3-1,3.5C233,124.7,233,124.8,233,124.8C233,124.8,233,124.8,233,124.8z M237.6,134.9l-0.1,0.5
				c0,0.3-0.1,0.6-0.2,0.9c-0.1,0.3-0.2,0.6-0.3,0.9c-0.1,0.3-0.2,0.6-0.3,0.9l-1.5-4.1l0,0c0.8,0.3,1.6,0.5,2.5,0.7L237.6,134.9z
				 M236,126.2c-0.8-0.4-1.4-1-1.6-1.9c-0.2-0.9,0.1-1.8,0.7-2.5c-0.4,0.7-0.5,1.5-0.3,2.4C235,125,235.5,125.7,236,126.2L236,126.2
				z M235.3,124.1c-0.3-1.2,0.1-2.3,0.9-2.9l0.4,0c0.2,0,0.4,0,0.6,0.1l0.7,0.1c0.4,0.1,0.7,0.1,1.1,0.1c0.4,0.4,0.7,0.9,0.8,1.5
				c0.2,0.9,0,1.9-0.5,2.5l-1,0.4c-0.4,0.2-0.9,0.2-1.4,0.3C236.2,125.9,235.5,125.1,235.3,124.1z M258.4,139.3
				c-0.2,0.2-0.4,0.4-0.6,0.6l-0.7,0.9c0,0,0,0,0,0c-0.3-0.2-0.5-0.3-0.8-0.5c-0.5-0.4-0.9-0.8-1.3-1.3c-0.8-1-1.3-2.2-1.4-3.6
				c-0.7,1.3-1,2.8-0.9,4.3c0,0.8,0.2,1.5,0.5,2.3c0.1,0.4,0.3,0.8,0.5,1.1c0,0.1,0.1,0.2,0.2,0.3c-0.4,0-0.8,0-1.2,0.2l-0.7,0.3
				l-0.3,0l-0.3,0.2l-0.6,0c-0.8,0.1-1.3,0.5-1.9,0.6c0-0.1,0-0.3,0-0.4c0-0.4,0-0.8-0.1-1.2c-0.1-0.8-0.3-1.6-0.6-2.3
				c-0.6-1.4-1.5-2.6-2.7-3.5c0.5,1.3,0.5,2.6,0.3,3.8c-0.1,0.6-0.3,1.2-0.6,1.7c-0.1,0.2-0.2,0.3-0.3,0.5l-0.7-0.3
				c-0.3-0.1-0.5-0.2-0.8-0.3l-2.8-0.9c0.7-0.5,1.3-1.1,1.9-1.8c0.3-0.4,0.7-0.7,1-1.1c0.3-0.4,0.6-0.8,0.9-1.2l1.4-1.9
				c0.3,0,0.6,0,0.9,0c0.2,0.2,0.4,0.4,0.5,0.7c0.3,0.5,0.6,1,0.8,1.5c0.2-0.6,0.3-1.2,0.4-1.8c0-0.2,0-0.3,0-0.5l1-0.3
				c0.2,0,0.3-0.1,0.5-0.1l0.8-0.1c0.1,0.2,0.2,0.3,0.2,0.5c0.3,0.6,0.7,1.1,1.1,1.5c-0.1-0.6-0.1-1.2,0-1.7c0-0.3,0.1-0.5,0.2-0.8
				c0.4-0.2,0.9-0.4,1.3-0.6l2.2,1.2c0.4,0.2,0.9,0.5,1.3,0.7c0.4,0.2,0.9,0.4,1.4,0.6c0.8,0.3,1.5,0.5,2.3,0.7L258.4,139.3z
				 M257.2,121.5c-0.4,0.2-0.9,0.3-1.3,0.4l-1,0.1c-0.7-0.3-1.3-1.1-1.5-2c-0.1-0.6-0.1-1.2,0.1-1.7c0.3-0.1,0.6-0.3,0.9-0.5
				l0.6-0.4c0.2-0.1,0.3-0.2,0.5-0.3l0.3-0.2c0.9,0.2,1.8,1,2,2.2C258,119.9,257.8,120.9,257.2,121.5z M258.1,121.2L258.1,121.2
				c0.3-0.6,0.4-1.5,0.2-2.3c-0.2-0.9-0.7-1.6-1.3-2c0.9,0.3,1.6,1,1.8,1.9C258.9,119.6,258.6,120.5,258.1,121.2z M262.4,131.8
				c-0.1-0.1-0.2-0.2-0.3-0.3c-0.2-0.2-0.5-0.5-0.7-0.7c-0.2-0.2-0.4-0.5-0.6-0.7l-0.3-0.4l-0.2-0.3c0.6-0.5,1.1-1,1.7-1.5
				L262.4,131.8z M260.5,117l-0.3,1.6c0,0,0,0,0,0.1c0-0.1,0-0.1,0-0.2c-0.3-1.3-1.2-2.2-2.4-2.7l0.8-0.4c0.2-0.1,0.4-0.1,0.6-0.1
				C260,115.4,260.6,116.1,260.5,117z"/>
			<path class="st18" d="M170.4,310.7c-0.1-0.1-0.3-0.1-0.4-0.2c0.3-0.5,0.7-1.1,1.1-1.7l3.1-7v0c-2.7-1.9-4.4-5.2-4.5-8.7l0-1.1
				c-0.1-1.5-0.6-2.9-1.5-4l-1.4-1.7c0.8-1,1.5-2,2-3.1c1.2-2.2,1.8-4.6,1.9-6.9c0.1-2.3-0.3-4.5-1.1-6.4c-0.8-2-2.1-3.7-3.6-5
				c0.8,1.8,1.2,3.7,1.1,5.6c-0.1,1.8-0.5,3.6-1.3,5.2c-0.8,1.6-1.9,3-3.2,4.1c-0.6,0.6-1.4,1-2.1,1.4l-0.1,0
				c-0.9-0.4-1.9-0.7-2.8-0.8c-2-0.4-4-0.2-5.9,0.5l-4.2,1.5l-4.5,0.5c-2,0.2-3.9,0.9-5.5,2.1c-0.8,0.5-1.5,1.2-2.1,1.9
				c-0.8-0.1-1.6-0.2-2.3-0.4c-1.6-0.4-3.3-1.2-4.7-2.2c-1.4-1.1-2.6-2.5-3.4-4.1c-0.9-1.6-1.4-3.5-1.4-5.5c-0.8,1.9-1.2,4-1.1,6.1
				c0.1,2.1,0.7,4.3,1.8,6.3c1.1,2,2.7,3.8,4.7,5.3c0.9,0.7,1.9,1.3,2.9,1.8l-0.5,2.3c-0.3,1.4-0.2,2.9,0.4,4.2l0.4,1
				c1.4,3.2,1.3,6.9-0.3,9.8l0,0l5.8,4.9c0.9,0.5,1.5,0.9,2.1,1.3c-1.8,2.3-4.4,4.3-7.7,5.5c3.5,0.1,7.2-0.9,10.6-2.8c0,0,0,0,0,0
				c0.6,0.7,1.4,1.4,2.5,2.3l0.2,0.2c0.6,0.5,1.1,1.3,1.2,2.2c0.3,2.2,5.6,2.7,7.2,1.7l3.5-1.3l3.7-0.4c1.9,0.2,6-2.5,5.3-4.6
				c-0.3-0.8-0.2-1.7,0.1-2.5l0.1-0.3c0.7-1.5,1.1-2.6,1.5-3.5c0.3,0,0.6,0.1,0.9,0.1c3.9,0.3,7.6-0.5,10.7-2.1
				C176.3,312.6,173,312,170.4,310.7z M157.5,295.3c0.1,0,0.2,0,0.3-0.1c-0.1,0.5-0.1,1.1,0,1.7c0.2,0.8,0.7,1.5,1.3,2l-0.1,0
				c-0.8-0.4-1.4-1-1.6-1.9C157.2,296.4,157.3,295.8,157.5,295.3z M155.1,295.9c0.2-0.3,0.5-0.5,0.9-0.5c-0.2,0.6-0.2,1.3-0.1,1.9
				c0.1,0.4,0.2,0.7,0.4,1c-0.6-0.4-1.1-0.9-1.3-1.6C154.9,296.4,155,296.1,155.1,295.9z M147.2,297.7c0.2,0.2,0.4,0.4,0.4,0.7
				c0.1,0.7-0.1,1.4-0.5,2c0-0.4,0-0.7-0.1-1.1c-0.1-0.6-0.5-1.2-0.9-1.7C146.5,297.5,146.9,297.5,147.2,297.7z M144.7,298.2
				c0.4,0.4,0.8,0.9,0.9,1.4c0.2,0.9-0.1,1.7-0.7,2.4l-0.1,0c0.3-0.7,0.5-1.5,0.3-2.3c-0.1-0.6-0.4-1.1-0.7-1.5
				C144.6,298.2,144.6,298.2,144.7,298.2z M137.9,301.5l-0.9-1.3c-0.5-0.7-0.3-1.6,0.4-2.2c0.2-0.1,0.4-0.2,0.6-0.2l0.9,0
				c-0.9,1-1.3,2.3-1,3.5C137.9,301.5,138,301.5,137.9,301.5C138,301.6,138,301.5,137.9,301.5z M142.5,311.7l-0.1,0.5
				c0,0.3-0.1,0.6-0.2,0.9c-0.1,0.3-0.2,0.6-0.3,0.9c-0.1,0.3-0.2,0.6-0.3,0.9l-1.5-4.1h0c0.8,0.3,1.6,0.5,2.5,0.7L142.5,311.7z
				 M141,303c-0.8-0.4-1.4-1-1.6-1.9c-0.2-0.9,0.1-1.8,0.7-2.5c-0.4,0.7-0.5,1.5-0.3,2.4C140,301.8,140.4,302.5,141,303L141,303z
				 M140.3,300.9c-0.3-1.2,0.1-2.3,0.9-2.9l0.4,0c0.2,0,0.4,0,0.6,0.1l0.7,0.1c0.4,0.1,0.7,0.1,1.1,0.1c0.4,0.4,0.7,0.9,0.8,1.5
				c0.2,0.9,0,1.9-0.5,2.5l-1,0.4c-0.4,0.2-0.9,0.2-1.4,0.3C141.1,302.6,140.5,301.9,140.3,300.9z M163.4,316
				c-0.2,0.2-0.4,0.4-0.6,0.6l-0.7,0.9c0,0,0,0,0,0c-0.3-0.2-0.5-0.3-0.8-0.5c-0.5-0.4-0.9-0.8-1.3-1.3c-0.8-1-1.3-2.2-1.4-3.6
				c-0.7,1.3-1,2.8-0.9,4.3c0,0.8,0.2,1.5,0.5,2.3c0.1,0.4,0.3,0.8,0.5,1.1c0,0.1,0.1,0.2,0.2,0.3c-0.4,0-0.8,0-1.2,0.2l-0.7,0.3
				l-0.3,0l-0.3,0.2l-0.6,0c-0.8,0.1-1.3,0.5-1.9,0.6c0-0.1,0-0.3,0-0.4c0-0.4,0-0.8-0.1-1.2c-0.1-0.8-0.3-1.6-0.6-2.3
				c-0.6-1.4-1.5-2.6-2.7-3.5c0.5,1.3,0.5,2.6,0.3,3.8c-0.1,0.6-0.3,1.2-0.6,1.7c-0.1,0.2-0.2,0.3-0.3,0.5l-0.7-0.3
				c-0.3-0.1-0.5-0.2-0.8-0.3l-2.8-0.9c0.7-0.5,1.3-1.1,1.9-1.8c0.3-0.4,0.7-0.7,1-1.1c0.3-0.4,0.6-0.8,0.9-1.2l1.4-1.9
				c0.3,0,0.6,0,0.9,0c0.2,0.2,0.4,0.4,0.5,0.7c0.3,0.5,0.6,1,0.8,1.5c0.2-0.6,0.3-1.2,0.4-1.8c0-0.2,0-0.3,0-0.5l1-0.3
				c0.2,0,0.3-0.1,0.5-0.1l0.8-0.1c0.1,0.2,0.2,0.3,0.2,0.5c0.3,0.6,0.7,1.1,1.1,1.5c-0.1-0.6-0.1-1.2,0-1.7c0-0.3,0.1-0.5,0.2-0.8
				c0.4-0.2,0.9-0.4,1.3-0.6l2.2,1.2c0.4,0.2,0.9,0.5,1.3,0.7c0.4,0.2,0.9,0.4,1.4,0.6c0.8,0.3,1.5,0.5,2.3,0.7L163.4,316z
				 M162.2,298.3c-0.4,0.2-0.9,0.3-1.3,0.4l-1,0.1c-0.7-0.3-1.3-1.1-1.5-2c-0.1-0.6-0.1-1.2,0.1-1.7c0.3-0.1,0.6-0.3,0.9-0.5
				l0.6-0.4c0.2-0.1,0.3-0.2,0.5-0.3l0.3-0.2c0.9,0.2,1.8,1,2,2.2C163,296.7,162.7,297.7,162.2,298.3z M163,297.9L163,297.9
				c0.3-0.6,0.4-1.5,0.2-2.3c-0.2-0.9-0.7-1.6-1.3-2c0.9,0.3,1.6,1,1.8,1.9C163.9,296.4,163.6,297.2,163,297.9z M167.4,308.5
				c-0.1-0.1-0.2-0.2-0.3-0.3c-0.2-0.2-0.5-0.5-0.7-0.7c-0.2-0.2-0.4-0.5-0.6-0.7l-0.3-0.4l-0.2-0.3c0.6-0.5,1.1-1,1.7-1.5
				L167.4,308.5z M165.4,293.7l-0.3,1.6c0,0,0,0,0,0.1c0-0.1,0-0.1,0-0.2c-0.3-1.3-1.2-2.2-2.4-2.7l0.8-0.4c0.2-0.1,0.4-0.1,0.6-0.1
				C165,292.1,165.5,292.9,165.4,293.7z"/>
			<path class="st18" d="M325.1,276.2c-0.2-0.1-0.3-0.2-0.5-0.3c0.5-0.6,1-1.2,1.7-1.9l4.9-8.3v0c-3-2.8-4.7-7.2-4.3-11.6l0.1-1.3
				c0.2-1.8-0.3-3.7-1.2-5.3l-1.4-2.4c1.1-1.1,2.2-2.3,3-3.6c1.8-2.6,3-5.5,3.5-8.3c0.5-2.8,0.3-5.7-0.4-8.2c-0.7-2.6-2-4.9-3.7-6.9
				c0.8,2.4,0.9,4.8,0.6,7.2c-0.4,2.3-1.2,4.5-2.5,6.3c-1.3,1.9-2.9,3.4-4.7,4.6c-0.9,0.6-1.9,1.1-2.8,1.5l-0.1,0
				c-1.1-0.6-2.2-1.1-3.4-1.5c-2.5-0.8-5-0.9-7.5-0.3l-5.6,1.2l-5.7-0.1c-2.5,0-5,0.6-7.3,1.8c-1,0.6-2,1.3-2.9,2.1
				c-1-0.2-2-0.5-2.9-0.8c-2-0.8-3.9-2-5.5-3.5c-1.6-1.6-2.9-3.5-3.7-5.7c-0.8-2.2-1.2-4.6-0.9-7.1c-1.3,2.3-2.1,4.8-2.3,7.5
				c-0.2,2.7,0.2,5.5,1.3,8.2c1.1,2.7,2.8,5.2,5.1,7.4c1,1,2.2,1.9,3.4,2.7l-1,2.9c-0.6,1.7-0.6,3.6-0.1,5.4l0.4,1.3
				c1.3,4.2,0.5,8.9-1.9,12.2v0l6.5,7.1c1,0.7,1.8,1.3,2.4,1.9c-2.6,2.6-6.2,4.7-10.5,5.7c4.3,0.6,9.2,0,13.7-1.9c0,0,0,0,0.1,0
				c0.7,0.9,1.5,2,2.8,3.3l0.3,0.3c0.7,0.8,1.1,1.8,1.1,2.9c0,2.8,6.7,4.3,8.8,3.3l4.6-1l4.7,0.1c2.3,0.5,7.9-2.2,7.3-4.9
				c-0.2-1.1,0-2.2,0.5-3.1l0.2-0.3c1.1-1.7,1.8-3,2.4-4.2c0.4,0.1,0.8,0.2,1.1,0.3c4.8,0.9,9.7,0.5,13.8-1
				C332.1,279.6,328.1,278.2,325.1,276.2z M311.2,254.8c0.1,0,0.2,0,0.4,0c-0.2,0.6-0.3,1.3-0.3,2.1c0.1,1.1,0.6,2,1.3,2.7l-0.1,0
				c-1-0.6-1.7-1.5-1.8-2.6C310.7,256.2,310.9,255.5,311.2,254.8z M308.1,255.3c0.3-0.4,0.7-0.5,1.2-0.5c-0.3,0.7-0.5,1.6-0.4,2.4
				c0,0.5,0.2,0.9,0.4,1.3c-0.7-0.6-1.2-1.3-1.4-2.2C307.8,255.9,307.9,255.6,308.1,255.3z M297.9,256.3c0.3,0.2,0.4,0.6,0.4,0.9
				c0,0.9-0.4,1.7-0.9,2.4c0.1-0.4,0.1-0.9,0.1-1.4c-0.1-0.8-0.4-1.6-0.9-2.3C297,255.9,297.5,256,297.9,256.3z M294.7,256.5
				c0.5,0.5,0.8,1.2,0.9,1.9c0.1,1.1-0.4,2.2-1.2,2.9l-0.1,0c0.5-0.8,0.8-1.8,0.7-2.9c-0.1-0.7-0.3-1.4-0.7-2
				C294.5,256.6,294.6,256.6,294.7,256.5z M285.7,259.7l-1-1.8c-0.5-0.9-0.2-2.1,0.8-2.7c0.2-0.1,0.5-0.2,0.8-0.2l1.1,0.2
				c-1.2,1.1-1.9,2.6-1.8,4.3C285.7,259.6,285.7,259.7,285.7,259.7C285.7,259.7,285.7,259.7,285.7,259.7z M289.9,273.2l-0.2,0.6
				c-0.1,0.4-0.2,0.8-0.4,1.1c-0.1,0.4-0.3,0.7-0.5,1.1c-0.2,0.3-0.4,0.7-0.6,1l-1.3-5.3h0c1,0.5,2,0.9,3,1.3L289.9,273.2z
				 M289.3,261.9c-1-0.6-1.7-1.5-1.8-2.6c-0.1-1.2,0.4-2.3,1.3-3c-0.6,0.8-0.9,1.9-0.7,3C288.2,260.3,288.7,261.3,289.3,261.9
				L289.3,261.9z M288.7,259.2c-0.2-1.5,0.5-2.8,1.5-3.5l0.5,0.1c0.3,0,0.5,0.1,0.7,0.2l0.9,0.3c0.4,0.1,0.9,0.2,1.3,0.3
				c0.4,0.5,0.7,1.3,0.8,2c0.1,1.2-0.3,2.3-1,3l-1.3,0.3c-0.6,0.1-1.2,0.2-1.8,0.1C289.5,261.6,288.8,260.5,288.7,259.2z
				 M315.4,281.8c-0.3,0.2-0.6,0.4-0.8,0.7l-1.1,1c0,0,0,0,0,0c-0.3-0.2-0.6-0.5-0.9-0.8c-0.5-0.5-1-1.1-1.4-1.8
				c-0.8-1.3-1.2-3-1.2-4.7c-1,1.5-1.7,3.3-1.8,5.3c-0.1,1,0,2,0.2,3c0.1,0.5,0.3,1,0.4,1.5c0,0.1,0.1,0.3,0.1,0.4
				c-0.5,0-1-0.1-1.6,0l-0.9,0.3l-0.4-0.1l-0.4,0.2l-0.8-0.1c-1,0-1.7,0.4-2.5,0.5c0-0.2,0.1-0.3,0.1-0.5c0.1-0.5,0.1-1,0.1-1.5
				c0-1-0.1-2-0.4-2.9c-0.5-1.9-1.5-3.5-2.8-4.8c0.4,1.7,0.3,3.4-0.2,4.9c-0.3,0.7-0.6,1.4-1,2.1c-0.1,0.2-0.3,0.4-0.4,0.6l-0.8-0.5
				c-0.3-0.2-0.6-0.4-0.9-0.5l-3.4-1.5c0.9-0.6,1.8-1.2,2.7-1.9c0.5-0.4,1-0.8,1.4-1.2c0.5-0.4,0.9-0.9,1.3-1.3l2-2.2
				c0.4,0.1,0.8,0.1,1.1,0.1c0.2,0.3,0.4,0.6,0.5,0.9c0.3,0.6,0.6,1.3,0.8,2.1c0.3-0.7,0.6-1.5,0.8-2.3c0-0.2,0.1-0.4,0.1-0.6
				l1.3-0.2c0.2,0,0.4-0.1,0.6-0.1l1.1-0.1c0.1,0.2,0.1,0.4,0.2,0.6c0.3,0.8,0.7,1.4,1.2,2.1c0-0.8,0.1-1.5,0.3-2.2
				c0.1-0.3,0.2-0.6,0.3-0.9c0.6-0.2,1.1-0.4,1.7-0.6l2.5,1.8c0.5,0.4,1,0.7,1.6,1c0.5,0.3,1.1,0.6,1.6,0.9c0.9,0.5,1.8,0.9,2.8,1.2
				L315.4,281.8z M316.6,259.4c-0.6,0.2-1.2,0.3-1.7,0.2l-1.3,0c-0.8-0.5-1.5-1.6-1.6-2.8c-0.1-0.8,0.1-1.5,0.4-2.2
				c0.4-0.1,0.9-0.3,1.3-0.5l0.8-0.5c0.2-0.1,0.5-0.2,0.7-0.3l0.4-0.2c1.1,0.4,2.1,1.6,2.2,3.1C317.8,257.5,317.4,258.7,316.6,259.4
				z M317.7,259L317.7,259c0.5-0.8,0.7-1.8,0.6-2.9c-0.1-1.1-0.6-2.1-1.3-2.8c1,0.6,1.8,1.5,1.9,2.7
				C319,257.2,318.5,258.3,317.7,259z M321.5,273c-0.1-0.1-0.2-0.3-0.3-0.4c-0.2-0.3-0.5-0.6-0.7-1c-0.2-0.3-0.4-0.7-0.6-1l-0.3-0.5
				l-0.2-0.4c0.8-0.5,1.6-1.1,2.3-1.6L321.5,273z M321.3,254.1l-0.6,1.9c0,0,0,0.1,0,0.1c0-0.1,0-0.2,0-0.2c-0.2-1.6-1.2-3-2.6-3.8
				l1.1-0.4c0.3-0.1,0.5-0.1,0.8,0C321.1,252.1,321.6,253.1,321.3,254.1z"/>
			<path class="st18" d="M350.3,423.3c-0.1-0.2-0.2-0.5-0.3-0.7c0.9-0.4,2-0.7,3.2-1.1l11.2-6.3l0,0c-1.7-5.2-0.7-11.4,2.7-16.3
				l1-1.5c1.4-2,2.1-4.5,2.1-6.9l-0.1-3.7c2.1-0.6,4.1-1.3,5.9-2.2c3.8-1.9,7.1-4.4,9.5-7.3c2.4-3,4.1-6.4,5-9.8
				c0.9-3.5,0.9-7.1,0.2-10.5c-0.7,3.3-2.1,6.2-4.1,8.7c-1.9,2.4-4.4,4.4-7,5.7c-2.7,1.3-5.6,2.1-8.5,2.2c-1.4,0.1-2.9,0-4.2-0.1
				l-0.1,0c-0.8-1.4-1.8-2.8-3-4c-2.4-2.5-5.2-4.3-8.5-5.3l-7.2-2.2l-6.5-3.8c-2.9-1.7-6.2-2.6-9.6-2.7c-1.6,0-3.2,0.1-4.7,0.5
				c-1-0.9-2-1.8-2.8-2.9c-1.8-2.2-3.2-4.9-4.1-7.8c-0.8-2.9-1-6-0.5-9c0.5-3.1,1.7-6.1,3.7-8.9c-3,1.8-5.6,4.2-7.6,7.2
				c-2,3-3.4,6.5-3.9,10.3c-0.5,3.8-0.2,7.9,1,12c0.5,1.8,1.3,3.6,2.2,5.4l-3.1,2.6c-1.8,1.6-3.1,3.8-3.7,6.2l-0.4,1.8
				c-1.4,5.8-5.2,10.7-10.2,12.9l0,0l2.9,12.5c0.7,1.5,1.2,2.7,1.5,3.9c-4.7,1.3-10.3,1.3-16-0.3c4.6,3.6,10.6,6.1,17.1,6.9
				c0,0,0.1,0,0.1,0c0.2,1.5,0.5,3.3,1.1,5.7l0.1,0.5c0.3,1.3,0.1,2.9-0.6,4.1c-1.8,3.2,4.9,9.3,8,9.6l6,1.8l5.4,3.2
				c2.3,2.2,10.6,2.6,11.8-0.8c0.5-1.4,1.4-2.6,2.6-3.3l0.4-0.2c2.4-1.3,4.1-2.4,5.6-3.3c0.4,0.4,0.8,0.7,1.2,1
				c4.9,4.3,10.9,7,16.6,8C356.2,431.9,352.4,427.7,350.3,423.3z M348.4,389.5c0.1,0.1,0.3,0.1,0.4,0.2c-0.7,0.6-1.3,1.3-1.7,2.2
				c-0.6,1.3-0.7,2.7-0.3,3.9l-0.1,0c-0.8-1.3-0.9-2.8-0.3-4.2C346.8,390.6,347.5,389.9,348.4,389.5z M344.4,387.9
				c0.6-0.2,1.2-0.1,1.7,0.2c-0.9,0.6-1.6,1.5-2,2.5c-0.3,0.6-0.4,1.2-0.5,1.8c-0.4-1.1-0.5-2.3-0.2-3.5
				C343.6,388.4,344,388.1,344.4,387.9z M331.9,382.3c0.2,0.5,0.1,1-0.1,1.4c-0.6,1-1.6,1.8-2.7,2.2c0.4-0.5,0.7-1,1-1.6
				c0.5-1,0.6-2.1,0.5-3.2C331.2,381.3,331.6,381.8,331.9,382.3z M328.1,380.5c0.2,0.9,0.2,1.9-0.2,2.9c-0.6,1.4-1.9,2.3-3.3,2.6
				l-0.1,0c1.1-0.6,2.1-1.6,2.7-2.9c0.4-0.9,0.6-1.9,0.5-2.7C327.8,380.4,327.9,380.4,328.1,380.5z M315.5,378.2l0-2.7
				c0-1.4,1.2-2.6,2.7-2.6c0.4,0,0.7,0.1,1,0.3l1.2,1c-2.1,0.5-4,1.8-4.9,3.8c0,0.1-0.1,0.2-0.1,0.3
				C315.5,378.2,315.5,378.2,315.5,378.2z M311.5,396.5l-0.6,0.5c-0.4,0.4-0.8,0.7-1.2,1.1c-0.4,0.4-0.9,0.6-1.3,1
				c-0.4,0.3-0.9,0.6-1.3,0.8l2-7.1l0,0c0.8,1.2,1.7,2.3,2.6,3.5L311.5,396.5z M318.2,383.2c-0.8-1.3-0.9-2.8-0.3-4.2
				c0.6-1.4,2-2.4,3.5-2.6c-1.2,0.6-2.2,1.6-2.8,3C318,380.6,317.9,382,318.2,383.2L318.2,383.2z M319.3,379.6c0.8-1.8,2.5-3,4.1-3
				l0.5,0.4c0.3,0.2,0.5,0.5,0.7,0.7l0.8,0.9c0.4,0.4,0.9,0.8,1.4,1.2c0.1,0.9,0,1.9-0.4,2.9c-0.7,1.5-1.9,2.5-3.2,2.9l-1.7-0.5
				c-0.8-0.2-1.5-0.6-2.1-1C318.7,382.9,318.6,381.2,319.3,379.6z M335.3,423.4c-0.5,0.1-1,0.1-1.4,0.2l-1.9,0.5c0,0,0,0,0,0
				c-0.2-0.5-0.4-1-0.5-1.5c-0.3-1-0.4-2-0.4-3c0-2.1,0.5-4.3,1.7-6.3c-2.2,1.1-4.1,2.7-5.5,4.9c-0.7,1.1-1.3,2.3-1.7,3.6
				c-0.2,0.6-0.4,1.3-0.5,2c0,0.2-0.1,0.4-0.1,0.5c-0.5-0.3-1.1-0.7-1.9-1l-1.2-0.3l-0.5-0.4l-0.6-0.1l-0.8-0.6
				c-1.1-0.6-2.3-0.7-3.2-1.1c0.2-0.2,0.3-0.3,0.4-0.5c0.4-0.6,0.8-1.1,1.2-1.7c0.7-1.2,1.2-2.4,1.5-3.7c0.6-2.5,0.6-5.1-0.1-7.4
				c-0.7,2.2-1.9,4.1-3.5,5.5c-0.8,0.7-1.6,1.3-2.5,1.7c-0.3,0.1-0.6,0.3-0.9,0.4l-0.6-1.1c-0.2-0.4-0.5-0.8-0.8-1.2l-2.9-4
				c1.5-0.1,2.9-0.2,4.4-0.4c0.8-0.1,1.7-0.3,2.5-0.5c0.8-0.2,1.6-0.4,2.4-0.7l3.8-1.2c0.4,0.3,0.8,0.6,1.2,0.9c0,0.5,0,0.9,0,1.4
				c0,1-0.2,1.9-0.5,2.9c0.9-0.6,1.7-1.3,2.4-2.1c0.2-0.2,0.4-0.4,0.5-0.7l1.7,0.6c0.3,0.1,0.5,0.2,0.8,0.3l1.3,0.6
				c-0.1,0.3-0.1,0.6-0.1,0.9c-0.1,1.1-0.1,2.1,0,3.2c0.5-0.9,1.1-1.7,1.8-2.3c0.3-0.3,0.6-0.6,1-0.9c0.8,0.2,1.6,0.3,2.4,0.4
				l1.7,3.8c0.3,0.8,0.7,1.5,1.1,2.2c0.4,0.7,0.9,1.4,1.3,2.1c0.7,1.1,1.6,2.2,2.4,3.3L335.3,423.4z M351.5,398.2
				c-0.8-0.2-1.5-0.5-2.2-0.9l-1.5-0.9c-0.6-1.2-0.7-2.8,0-4.3c0.4-1,1.1-1.7,1.9-2.3c0.6,0.1,1.2,0.2,1.8,0.2l1.3,0
				c0.3,0,0.7,0,1,0.1l0.6,0.1c1.1,1.2,1.3,3.2,0.5,5C354.2,396.9,352.9,398,351.5,398.2z M353,398.6L353,398.6c1-0.6,2-1.6,2.6-2.9
				c0.6-1.4,0.7-2.8,0.3-4.1c0.8,1.3,1.1,3,0.4,4.4C355.8,397.3,354.5,398.2,353,398.6z M348.3,417.3c0-0.2-0.1-0.4-0.1-0.7
				c-0.1-0.6-0.2-1.1-0.2-1.6c0-0.5-0.1-1.1,0-1.6l0-0.8l0-0.6c1.3-0.1,2.5-0.2,3.8-0.4L348.3,417.3z M360.5,395.3l-2,1.8
				c0,0-0.1,0-0.1,0.1c0.1-0.1,0.1-0.2,0.2-0.3c0.9-2,0.6-4.2-0.5-6.1l1.5,0.2c0.4,0.1,0.7,0.2,0.9,0.5
				C361.6,392.7,361.6,394.3,360.5,395.3z"/>
			<path class="st18" d="M219,222.1c-0.1-0.1-0.2-0.1-0.2-0.2c0.2-0.3,0.5-0.6,0.8-1l2.4-4.1v0c-1.5-1.4-2.3-3.5-2.1-5.7l0.1-0.7
				c0.1-0.9-0.1-1.8-0.6-2.6l-0.7-1.2c0.6-0.6,1.1-1.1,1.5-1.8c0.9-1.3,1.5-2.7,1.7-4.1c0.2-1.4,0.2-2.8-0.2-4
				c-0.4-1.3-1-2.4-1.8-3.4c0.4,1.2,0.4,2.4,0.3,3.5c-0.2,1.1-0.6,2.2-1.2,3.1c-0.6,0.9-1.4,1.7-2.3,2.3c-0.4,0.3-0.9,0.5-1.4,0.7
				l0,0c-0.5-0.3-1.1-0.6-1.7-0.7c-1.2-0.4-2.5-0.4-3.7-0.2l-2.7,0.6l-2.8,0c-1.2,0-2.5,0.3-3.6,0.9c-0.5,0.3-1,0.6-1.4,1
				c-0.5-0.1-1-0.2-1.4-0.4c-1-0.4-1.9-1-2.7-1.7c-0.8-0.8-1.4-1.7-1.8-2.8c-0.4-1.1-0.6-2.3-0.4-3.5c-0.6,1.1-1,2.4-1.1,3.7
				c-0.1,1.3,0.1,2.7,0.6,4c0.5,1.3,1.4,2.6,2.5,3.7c0.5,0.5,1.1,0.9,1.7,1.3l-0.5,1.4c-0.3,0.8-0.3,1.8-0.1,2.6l0.2,0.6
				c0.6,2.1,0.3,4.4-0.9,6v0l3.2,3.5c0.5,0.4,0.9,0.7,1.2,1c-1.3,1.3-3.1,2.3-5.2,2.8c2.1,0.3,4.5,0,6.7-0.9c0,0,0,0,0,0
				c0.3,0.5,0.8,1,1.4,1.6l0.1,0.1c0.3,0.4,0.6,0.9,0.6,1.4c0,1.4,3.3,2.1,4.3,1.6l2.2-0.5l2.3,0c1.1,0.3,3.9-1.1,3.6-2.4
				c-0.1-0.5,0-1.1,0.2-1.5l0.1-0.2c0.5-0.8,0.9-1.5,1.2-2.1c0.2,0,0.4,0.1,0.6,0.1c2.4,0.5,4.7,0.3,6.8-0.5
				C222.5,223.7,220.5,223.1,219,222.1z M212.2,211.6c0.1,0,0.1,0,0.2,0c-0.1,0.3-0.2,0.7-0.1,1c0.1,0.5,0.3,1,0.6,1.3l0,0
				c-0.5-0.3-0.8-0.7-0.9-1.3C211.9,212.3,212,211.9,212.2,211.6z M210.7,211.8c0.1-0.2,0.4-0.3,0.6-0.3c-0.2,0.4-0.2,0.8-0.2,1.2
				c0,0.2,0.1,0.4,0.2,0.7c-0.3-0.3-0.6-0.6-0.7-1.1C210.5,212.1,210.6,212,210.7,211.8z M205.6,212.3c0.1,0.1,0.2,0.3,0.2,0.5
				c0,0.4-0.2,0.9-0.5,1.2c0-0.2,0.1-0.4,0-0.7c0-0.4-0.2-0.8-0.4-1.1C205.2,212.1,205.5,212.2,205.6,212.3z M204.1,212.4
				c0.2,0.3,0.4,0.6,0.4,1c0.1,0.5-0.2,1.1-0.6,1.4l0,0c0.3-0.4,0.4-0.9,0.3-1.4c0-0.4-0.2-0.7-0.3-1
				C204,212.5,204,212.4,204.1,212.4z M199.7,214l-0.5-0.9c-0.3-0.5-0.1-1,0.4-1.3c0.1-0.1,0.3-0.1,0.4-0.1l0.6,0.1
				C199.9,212.3,199.6,213.1,199.7,214C199.7,213.9,199.7,214,199.7,214C199.7,214,199.7,214,199.7,214z M201.7,220.6l-0.1,0.3
				c0,0.2-0.1,0.4-0.2,0.6c-0.1,0.2-0.2,0.4-0.2,0.6c-0.1,0.2-0.2,0.3-0.3,0.5l-0.6-2.6l0,0c0.5,0.2,1,0.4,1.5,0.6L201.7,220.6z
				 M201.4,215.1c-0.5-0.3-0.8-0.7-0.9-1.3c-0.1-0.6,0.2-1.1,0.6-1.5c-0.3,0.4-0.4,0.9-0.4,1.5C200.9,214.3,201.1,214.8,201.4,215.1
				L201.4,215.1z M201.1,213.7c-0.1-0.7,0.2-1.4,0.8-1.7l0.2,0c0.1,0,0.2,0.1,0.4,0.1l0.4,0.1c0.2,0.1,0.4,0.1,0.7,0.1
				c0.2,0.3,0.4,0.6,0.4,1c0.1,0.6-0.1,1.1-0.5,1.5l-0.6,0.1c-0.3,0.1-0.6,0.1-0.9,0.1C201.5,214.9,201.2,214.4,201.1,213.7z
				 M214.2,224.8c-0.1,0.1-0.3,0.2-0.4,0.3l-0.5,0.5c0,0,0,0,0,0c-0.2-0.1-0.3-0.2-0.4-0.4c-0.3-0.3-0.5-0.6-0.7-0.9
				c-0.4-0.7-0.6-1.5-0.6-2.3c-0.5,0.7-0.8,1.6-0.9,2.6c0,0.5,0,1,0.1,1.5c0.1,0.2,0.1,0.5,0.2,0.7c0,0.1,0,0.1,0.1,0.2
				c-0.2,0-0.5,0-0.8,0l-0.4,0.1l-0.2,0l-0.2,0.1l-0.4-0.1c-0.5,0-0.9,0.2-1.2,0.2c0-0.1,0-0.2,0-0.3c0-0.3,0.1-0.5,0.1-0.8
				c0-0.5-0.1-1-0.2-1.4c-0.3-0.9-0.7-1.7-1.4-2.3c0.2,0.8,0.1,1.7-0.1,2.4c-0.1,0.4-0.3,0.7-0.5,1c-0.1,0.1-0.1,0.2-0.2,0.3
				l-0.4-0.2c-0.1-0.1-0.3-0.2-0.5-0.2l-1.7-0.8c0.5-0.3,0.9-0.6,1.3-0.9c0.2-0.2,0.5-0.4,0.7-0.6c0.2-0.2,0.4-0.4,0.7-0.7l1-1.1
				c0.2,0,0.4,0.1,0.6,0.1c0.1,0.2,0.2,0.3,0.3,0.4c0.2,0.3,0.3,0.7,0.4,1c0.2-0.3,0.3-0.7,0.4-1.1c0-0.1,0-0.2,0-0.3l0.6-0.1
				c0.1,0,0.2,0,0.3,0l0.5,0c0,0.1,0.1,0.2,0.1,0.3c0.2,0.4,0.4,0.7,0.6,1c0-0.4,0.1-0.7,0.2-1.1c0-0.2,0.1-0.3,0.2-0.5
				c0.3-0.1,0.6-0.2,0.8-0.3l1.2,0.9c0.2,0.2,0.5,0.3,0.8,0.5c0.3,0.2,0.5,0.3,0.8,0.5c0.4,0.2,0.9,0.4,1.4,0.6L214.2,224.8z
				 M214.8,213.8c-0.3,0.1-0.6,0.1-0.9,0.1l-0.6,0c-0.4-0.3-0.7-0.8-0.8-1.4c0-0.4,0-0.8,0.2-1.1c0.2-0.1,0.4-0.1,0.6-0.3l0.4-0.2
				c0.1-0.1,0.2-0.1,0.3-0.2l0.2-0.1c0.6,0.2,1,0.8,1.1,1.5C215.5,212.9,215.2,213.5,214.8,213.8z M215.4,213.7L215.4,213.7
				c0.2-0.4,0.4-0.9,0.3-1.4c-0.1-0.5-0.3-1-0.7-1.4c0.5,0.3,0.9,0.7,0.9,1.3C216,212.8,215.8,213.3,215.4,213.7z M217.3,220.5
				c-0.1-0.1-0.1-0.1-0.2-0.2c-0.1-0.2-0.2-0.3-0.4-0.5c-0.1-0.2-0.2-0.3-0.3-0.5l-0.1-0.3l-0.1-0.2c0.4-0.3,0.8-0.5,1.1-0.8
				L217.3,220.5z M217.2,211.3l-0.3,0.9c0,0,0,0,0,0c0,0,0-0.1,0-0.1c-0.1-0.8-0.6-1.5-1.3-1.9l0.5-0.2c0.1-0.1,0.3-0.1,0.4,0
				C217,210.2,217.3,210.8,217.2,211.3z"/>
			<path class="st18" d="M333.8,78.6c0,0-0.1-0.1-0.1-0.1c0.2-0.1,0.4-0.2,0.6-0.3l2.1-1.5v0c-0.5-1-0.4-2.3,0.1-3.3l0.2-0.3
				c0.2-0.4,0.3-1,0.2-1.4l-0.1-0.7c0.4-0.2,0.8-0.4,1.1-0.6c0.7-0.5,1.3-1.1,1.7-1.7c0.4-0.7,0.7-1.4,0.7-2.1
				c0.1-0.7,0-1.4-0.2-2.1c-0.1,0.7-0.3,1.3-0.6,1.8c-0.3,0.5-0.8,1-1.3,1.3c-0.5,0.3-1.1,0.6-1.6,0.7c-0.3,0.1-0.6,0.1-0.9,0.1l0,0
				c-0.2-0.3-0.4-0.5-0.7-0.7c-0.5-0.4-1.2-0.7-1.8-0.9l-1.5-0.3l-1.4-0.6c-0.6-0.3-1.3-0.4-2-0.3c-0.3,0-0.6,0.1-0.9,0.2
				c-0.2-0.1-0.4-0.3-0.6-0.5c-0.4-0.4-0.8-0.9-1-1.5c-0.2-0.6-0.3-1.2-0.3-1.8c0-0.6,0.2-1.3,0.5-1.9c-0.5,0.4-1,1-1.3,1.6
				c-0.3,0.6-0.5,1.4-0.5,2.2c0,0.8,0.2,1.6,0.5,2.4c0.1,0.4,0.3,0.7,0.6,1l-0.5,0.6c-0.3,0.4-0.5,0.8-0.6,1.3l0,0.4
				c-0.1,1.2-0.8,2.3-1.7,2.8v0l0.9,2.4c0.2,0.3,0.3,0.5,0.4,0.7c-0.9,0.4-2,0.5-3.2,0.3c1,0.6,2.3,1,3.6,1c0,0,0,0,0,0
				c0.1,0.3,0.2,0.7,0.4,1.1l0,0.1c0.1,0.3,0.1,0.6,0,0.8c-0.3,0.7,1.2,1.7,1.8,1.7l1.2,0.2l1.2,0.5c0.5,0.4,2.2,0.3,2.3-0.5
				c0.1-0.3,0.2-0.6,0.4-0.7l0.1-0.1c0.4-0.3,0.8-0.6,1-0.8c0.1,0.1,0.2,0.1,0.3,0.2c1.1,0.7,2.3,1.1,3.5,1.2
				C335.2,80.1,334.4,79.4,333.8,78.6z M332.6,71.8C332.6,71.9,332.7,71.9,332.6,71.8c0,0.2-0.1,0.3-0.2,0.5c-0.1,0.3-0.1,0.6,0,0.8
				l0,0c-0.2-0.2-0.3-0.5-0.2-0.8C332.3,72.1,332.4,72,332.6,71.8z M331.8,71.6c0.1-0.1,0.2-0.1,0.4,0c-0.2,0.2-0.3,0.3-0.3,0.6
				c0,0.1-0.1,0.2-0.1,0.4c-0.1-0.2-0.2-0.5-0.1-0.7C331.6,71.8,331.7,71.7,331.8,71.6z M329.1,70.8c0,0.1,0.1,0.2,0,0.3
				c-0.1,0.2-0.3,0.4-0.5,0.5c0.1-0.1,0.1-0.2,0.2-0.3c0.1-0.2,0.1-0.4,0-0.7C329,70.6,329.1,70.7,329.1,70.8z M328.3,70.5
				c0.1,0.2,0.1,0.4,0,0.6c-0.1,0.3-0.3,0.5-0.6,0.6l0,0c0.2-0.1,0.4-0.4,0.5-0.6C328.2,70.9,328.3,70.7,328.3,70.5
				C328.3,70.5,328.3,70.5,328.3,70.5z M325.7,70.4l-0.1-0.5c0-0.3,0.2-0.5,0.5-0.6c0.1,0,0.1,0,0.2,0l0.3,0.2
				C326.2,69.6,325.9,69.9,325.7,70.4C325.8,70.4,325.8,70.4,325.7,70.4C325.7,70.4,325.7,70.4,325.7,70.4z M325.4,74.2l-0.1,0.1
				c-0.1,0.1-0.1,0.2-0.2,0.2c-0.1,0.1-0.2,0.2-0.2,0.2c-0.1,0.1-0.2,0.1-0.2,0.2l0.2-1.5l0,0C325,73.7,325.2,73.9,325.4,74.2
				L325.4,74.2z M326.4,71.3c-0.2-0.2-0.3-0.5-0.2-0.8c0.1-0.3,0.3-0.5,0.6-0.6c-0.2,0.1-0.4,0.4-0.5,0.7
				C326.3,70.8,326.3,71.1,326.4,71.3L326.4,71.3z M326.5,70.6c0.1-0.4,0.4-0.7,0.7-0.7l0.1,0.1c0.1,0,0.1,0.1,0.2,0.1l0.2,0.2
				c0.1,0.1,0.2,0.1,0.3,0.2c0,0.2,0,0.4,0,0.6c-0.1,0.3-0.3,0.6-0.6,0.7l-0.3-0.1c-0.2,0-0.3-0.1-0.4-0.2
				C326.5,71.3,326.4,70.9,326.5,70.6z M330.8,79c-0.1,0-0.2,0.1-0.3,0.1l-0.4,0.1c0,0,0,0,0,0c-0.1-0.1-0.1-0.2-0.1-0.3
				c-0.1-0.2-0.1-0.4-0.2-0.6c-0.1-0.4,0-0.9,0.2-1.3c-0.4,0.3-0.8,0.7-1,1.1c-0.1,0.2-0.2,0.5-0.3,0.8c0,0.1,0,0.3,0,0.4
				c0,0,0,0.1,0,0.1c-0.1-0.1-0.2-0.1-0.4-0.2l-0.3,0l-0.1-0.1l-0.1,0l-0.2-0.1c-0.2-0.1-0.5-0.1-0.7-0.1c0,0,0.1-0.1,0.1-0.1
				c0.1-0.1,0.1-0.2,0.2-0.4c0.1-0.3,0.2-0.5,0.2-0.8c0.1-0.5,0-1-0.2-1.5c-0.1,0.5-0.3,0.9-0.6,1.2c-0.1,0.2-0.3,0.3-0.5,0.4
				c-0.1,0-0.1,0.1-0.2,0.1l-0.2-0.2c-0.1-0.1-0.1-0.2-0.2-0.2l-0.7-0.7c0.3,0,0.6-0.1,0.9-0.2c0.2-0.1,0.3-0.1,0.5-0.2
				c0.2-0.1,0.3-0.1,0.5-0.2l0.7-0.3c0.1,0.1,0.2,0.1,0.3,0.2c0,0.1,0,0.2,0,0.3c0,0.2,0,0.4,0,0.6c0.2-0.1,0.3-0.3,0.4-0.5
				c0,0,0.1-0.1,0.1-0.1l0.3,0.1c0.1,0,0.1,0,0.2,0l0.3,0.1c0,0.1,0,0.1,0,0.2c0,0.2,0,0.4,0.1,0.6c0.1-0.2,0.2-0.4,0.3-0.5
				c0.1-0.1,0.1-0.1,0.2-0.2c0.2,0,0.3,0,0.5,0l0.4,0.7c0.1,0.1,0.2,0.3,0.3,0.4c0.1,0.1,0.2,0.3,0.3,0.4c0.2,0.2,0.4,0.4,0.6,0.6
				L330.8,79z M333.4,73.5c-0.2,0-0.3-0.1-0.5-0.1l-0.3-0.1c-0.2-0.2-0.2-0.5-0.1-0.9c0.1-0.2,0.2-0.4,0.3-0.5c0.1,0,0.2,0,0.4,0
				l0.3,0c0.1,0,0.1,0,0.2,0l0.1,0c0.2,0.2,0.3,0.6,0.2,1C334,73.2,333.7,73.4,333.4,73.5z M333.8,73.5L333.8,73.5
				c0.2-0.1,0.4-0.4,0.5-0.6c0.1-0.3,0.1-0.6,0-0.8c0.2,0.2,0.3,0.6,0.2,0.9C334.3,73.2,334,73.4,333.8,73.5z M333.3,77.4
				c0,0,0-0.1,0-0.1c0-0.1-0.1-0.2-0.1-0.3c0-0.1,0-0.2,0-0.3l0-0.2l0-0.1c0.3,0,0.5-0.1,0.7-0.2L333.3,77.4z M335.2,72.7l-0.3,0.4
				c0,0,0,0,0,0c0,0,0,0,0-0.1c0.1-0.4,0-0.9-0.2-1.2l0.3,0c0.1,0,0.1,0,0.2,0.1C335.3,72.2,335.4,72.5,335.2,72.7z"/>
			<path class="st18" d="M364.4,123.5c-0.1,0-0.1-0.1-0.2-0.1c0.2-0.2,0.3-0.4,0.6-0.7l1.7-2.8v0c-1-0.9-1.6-2.4-1.5-3.9l0-0.5
				c0.1-0.6-0.1-1.3-0.4-1.8l-0.5-0.8c0.4-0.4,0.7-0.8,1-1.2c0.6-0.9,1-1.8,1.2-2.8c0.2-1,0.1-1.9-0.1-2.8c-0.2-0.9-0.7-1.7-1.3-2.3
				c0.3,0.8,0.3,1.6,0.2,2.4c-0.1,0.8-0.4,1.5-0.8,2.1c-0.4,0.6-1,1.2-1.6,1.5c-0.3,0.2-0.6,0.4-0.9,0.5l0,0
				c-0.4-0.2-0.7-0.4-1.1-0.5c-0.8-0.3-1.7-0.3-2.5-0.1l-1.9,0.4l-1.9,0c-0.9,0-1.7,0.2-2.4,0.6c-0.4,0.2-0.7,0.4-1,0.7
				c-0.3-0.1-0.7-0.2-1-0.3c-0.7-0.3-1.3-0.7-1.9-1.2c-0.5-0.5-1-1.2-1.2-1.9c-0.3-0.7-0.4-1.6-0.3-2.4c-0.4,0.8-0.7,1.6-0.8,2.5
				c-0.1,0.9,0.1,1.8,0.4,2.7c0.4,0.9,0.9,1.8,1.7,2.5c0.3,0.3,0.7,0.6,1.2,0.9l-0.3,1c-0.2,0.6-0.2,1.2,0,1.8l0.1,0.4
				c0.4,1.4,0.2,3-0.6,4.1v0l2.2,2.4c0.3,0.2,0.6,0.5,0.8,0.7c-0.9,0.9-2.1,1.6-3.5,1.9c1.5,0.2,3.1,0,4.6-0.6c0,0,0,0,0,0
				c0.2,0.3,0.5,0.7,0.9,1.1l0.1,0.1c0.2,0.3,0.4,0.6,0.4,1c0,0.9,2.2,1.4,3,1.1l1.5-0.3l1.6,0c0.8,0.2,2.7-0.7,2.5-1.7
				c-0.1-0.4,0-0.7,0.2-1l0.1-0.1c0.4-0.6,0.6-1,0.8-1.4c0.1,0,0.3,0.1,0.4,0.1c1.6,0.3,3.3,0.2,4.6-0.3
				C366.8,124.7,365.4,124.2,364.4,123.5z M359.7,116.3c0,0,0.1,0,0.1,0c-0.1,0.2-0.1,0.5-0.1,0.7c0,0.4,0.2,0.7,0.4,0.9l0,0
				c-0.3-0.2-0.6-0.5-0.6-0.9C359.5,116.8,359.6,116.5,359.7,116.3z M358.7,116.5c0.1-0.1,0.2-0.2,0.4-0.2c-0.1,0.3-0.2,0.5-0.1,0.8
				c0,0.2,0.1,0.3,0.1,0.5c-0.2-0.2-0.4-0.4-0.5-0.7C358.6,116.7,358.6,116.6,358.7,116.5z M355.2,116.8c0.1,0.1,0.2,0.2,0.1,0.3
				c0,0.3-0.1,0.6-0.3,0.8c0-0.2,0-0.3,0-0.5c0-0.3-0.1-0.5-0.3-0.8C354.9,116.7,355.1,116.7,355.2,116.8z M354.1,116.9
				c0.2,0.2,0.3,0.4,0.3,0.7c0,0.4-0.1,0.7-0.4,1l0,0c0.2-0.3,0.3-0.6,0.2-1c0-0.2-0.1-0.5-0.2-0.7
				C354.1,116.9,354.1,116.9,354.1,116.9z M351.1,118l-0.3-0.6c-0.2-0.3-0.1-0.7,0.3-0.9c0.1,0,0.2-0.1,0.3-0.1l0.4,0.1
				C351.3,116.8,351,117.4,351.1,118C351.1,117.9,351.1,118,351.1,118C351.1,118,351.1,118,351.1,118z M352.5,122.5l-0.1,0.2
				c0,0.1-0.1,0.3-0.1,0.4c0,0.1-0.1,0.3-0.2,0.4c-0.1,0.1-0.1,0.2-0.2,0.3l-0.4-1.8v0C351.8,122.1,352.2,122.3,352.5,122.5
				L352.5,122.5z M352.3,118.7c-0.3-0.2-0.6-0.5-0.6-0.9c0-0.4,0.1-0.8,0.4-1c-0.2,0.3-0.3,0.6-0.2,1
				C351.9,118.2,352.1,118.5,352.3,118.7L352.3,118.7z M352.1,117.8c-0.1-0.5,0.2-1,0.5-1.2l0.2,0c0.1,0,0.2,0,0.3,0.1l0.3,0.1
				c0.1,0,0.3,0.1,0.5,0.1c0.1,0.2,0.2,0.4,0.3,0.7c0,0.4-0.1,0.8-0.3,1l-0.4,0.1c-0.2,0-0.4,0.1-0.6,0
				C352.4,118.6,352.2,118.2,352.1,117.8z M361.1,125.4c-0.1,0.1-0.2,0.1-0.3,0.2l-0.4,0.3c0,0,0,0,0,0c-0.1-0.1-0.2-0.2-0.3-0.3
				c-0.2-0.2-0.3-0.4-0.5-0.6c-0.3-0.5-0.4-1-0.4-1.6c-0.3,0.5-0.6,1.1-0.6,1.8c0,0.3,0,0.7,0.1,1c0,0.2,0.1,0.3,0.1,0.5
				c0,0,0,0.1,0,0.1c-0.2,0-0.3,0-0.5,0l-0.3,0.1l-0.1,0l-0.1,0.1l-0.3,0c-0.3,0-0.6,0.1-0.8,0.2c0-0.1,0-0.1,0-0.2
				c0-0.2,0-0.3,0-0.5c0-0.3,0-0.7-0.1-1c-0.2-0.6-0.5-1.2-1-1.6c0.1,0.6,0.1,1.1-0.1,1.6c-0.1,0.2-0.2,0.5-0.3,0.7
				c0,0.1-0.1,0.1-0.2,0.2l-0.3-0.2c-0.1-0.1-0.2-0.1-0.3-0.2l-1.1-0.5c0.3-0.2,0.6-0.4,0.9-0.6c0.2-0.1,0.3-0.3,0.5-0.4
				c0.2-0.1,0.3-0.3,0.4-0.5l0.7-0.7c0.1,0,0.3,0,0.4,0.1c0.1,0.1,0.1,0.2,0.2,0.3c0.1,0.2,0.2,0.4,0.3,0.7c0.1-0.2,0.2-0.5,0.3-0.8
				c0-0.1,0-0.1,0-0.2l0.4-0.1c0.1,0,0.1,0,0.2,0l0.4,0c0,0.1,0,0.1,0.1,0.2c0.1,0.3,0.2,0.5,0.4,0.7c0-0.3,0-0.5,0.1-0.7
				c0-0.1,0.1-0.2,0.1-0.3c0.2-0.1,0.4-0.1,0.6-0.2l0.9,0.6c0.2,0.1,0.3,0.2,0.5,0.3c0.2,0.1,0.4,0.2,0.6,0.3
				c0.3,0.2,0.6,0.3,0.9,0.4L361.1,125.4z M361.5,117.9c-0.2,0.1-0.4,0.1-0.6,0.1l-0.4,0c-0.3-0.2-0.5-0.5-0.5-0.9
				c0-0.3,0-0.5,0.1-0.7c0.1,0,0.3-0.1,0.4-0.2l0.3-0.2c0.1,0,0.2-0.1,0.2-0.1l0.1-0.1c0.4,0.1,0.7,0.5,0.7,1
				C361.9,117.2,361.8,117.6,361.5,117.9z M361.9,117.7L361.9,117.7c0.2-0.3,0.2-0.6,0.2-1c0-0.4-0.2-0.7-0.4-0.9
				c0.4,0.2,0.6,0.5,0.6,0.9C362.3,117.1,362.2,117.5,361.9,117.7z M363.2,122.5c0,0-0.1-0.1-0.1-0.1c-0.1-0.1-0.2-0.2-0.2-0.3
				c-0.1-0.1-0.1-0.2-0.2-0.3l-0.1-0.2l-0.1-0.1c0.3-0.2,0.5-0.4,0.8-0.6L363.2,122.5z M363.1,116.1l-0.2,0.6c0,0,0,0,0,0
				c0,0,0-0.1,0-0.1c-0.1-0.5-0.4-1-0.9-1.3l0.4-0.1c0.1,0,0.2,0,0.3,0C363,115.4,363.2,115.7,363.1,116.1z"/>
		</g>
	</g>
</g>
</svg>
