<?xml version="1.0" encoding="utf-8"?>
<!-- Generator: Adobe Illustrator 24.2.1, SVG Export Plug-In . SVG Version: 6.00 Build 0)  -->
<svg version="1.1" id="Lag_1" xmlns="http://www.w3.org/2000/svg" xmlns:xlink="http://www.w3.org/1999/xlink" x="0px" y="0px"
	 viewBox="0 0 433.3 420" style="enable-background:new 0 0 433.3 420;" xml:space="preserve">
<style type="text/css">
	.st0{fill:#DBC3A9;stroke:#110B09;stroke-width:2;stroke-miterlimit:10;}
	.st1{fill:#E0C7B1;}
	.st2{opacity:0.58;fill:#E5D2C1;}
	.st3{opacity:0.58;fill:#EDDACC;}
	.st4{opacity:0.1;}
	.st5{fill:#110B09;}
	.st6{fill:#E2C188;stroke:#110B09;stroke-width:2;stroke-miterlimit:10;}
	.st7{fill:#BFA480;stroke:#110B09;stroke-width:2;stroke-miterlimit:10;}
	.st8{fill:#FFE0B8;stroke:#110B09;stroke-width:2;stroke-miterlimit:10;}
</style>
<g>
	<g>
		<g>
			<path class="st0" d="M7.4,415h419L421.9,287c-2.4-67-2-134.1,1.1-201.1l3.4-72.5H7.4L12,114.1c2.4,52.2,2.6,104.4,0.7,156.6
				L7.4,415z"/>
			<path class="st1" d="M27.8,395.5h378.3L402,280c-2.1-60.5-1.8-121.1,1-181.5l3.1-65.4H27.8l4.1,90.8c2.1,47.1,2.3,94.3,0.6,141.4
				L27.8,395.5z"/>
			<path class="st2" d="M83.4,371.3h267c16.6,0,29.9-13.8,29.3-30.4l-2.4-68.5c-1.9-53.2-1.6-106.5,0.9-159.8l1.2-24.8
				c0.8-16.7-12.6-30.7-29.3-30.7H83.7c-16.7,0-30.1,14-29.3,30.7l2.1,46.8c1.9,41.6,2.1,83.3,0.6,124.9l-3,81.3
				C53.5,357.5,66.8,371.3,83.4,371.3z"/>
			<path class="st3" d="M107.8,342.7h218.3c13.6,0,24.5-11.3,24-24.9l-2-56c-1.5-43.5-1.3-87.1,0.7-130.6l0.9-20.2
				c0.6-13.7-10.3-25.1-24-25.1H108c-13.7,0-24.6,11.4-24,25.1l1.7,38.3c1.5,34,1.7,68.1,0.5,102.1l-2.4,66.4
				C83.3,331.4,94.2,342.7,107.8,342.7z"/>
		</g>
		<g class="st4">
			<path class="st5" d="M56.5,48.7l-12.3-0.5l0.5,12.3L56.5,48.7z M53.2,50L46,57.2l-0.3-7.5L53.2,50z"/>
			<path class="st5" d="M44.7,374.1l-0.5,12.3l12.3-0.5L44.7,374.1z M45.7,384.9l0.3-7.5l7.1,7.1L45.7,384.9z"/>
			<path class="st5" d="M391.7,60.5l0.5-12.3L380,48.7L391.7,60.5z M390.7,49.7l-0.3,7.5l-7.1-7.1L390.7,49.7z"/>
			<path class="st5" d="M380,385.9l12.3,0.5l-0.5-12.3L380,385.9z M383.3,384.6l7.1-7.1l0.3,7.5L383.3,384.6z"/>
			<path class="st5" d="M402.6,391v-2.6c0-0.3-0.1-0.5-0.3-0.7l-3.3-4.9V51.8l3.3-4.9c0.2-0.2,0.3-0.4,0.3-0.7v-2.6h4.6l1.8-12.3
				l-12.3,1.8v4.8h-2.6c-0.2,0-0.4,0.1-0.6,0.2l-0.1-0.1l-5,3.4H48L43,38L43,38.1c-0.2-0.1-0.4-0.2-0.6-0.2h-2.6v-4.8l-12.3-1.8
				l1.8,12.3h4.6v2.6c0,0.3,0.1,0.5,0.3,0.7l3.3,4.9v330.9l-3.3,4.9c-0.2,0.2-0.3,0.4-0.3,0.7v2.6h-4.6l-1.8,12.3l12.3-1.8v-4.8h2.6
				c0.2,0,0.4-0.1,0.6-0.2l0.1,0.1l5-3.4l340.5,0l5,3.4l0.1-0.1c0.2,0.1,0.4,0.2,0.6,0.2h2.6v4.8l12.3,1.8l-1.8-12.3H402.6z
				 M33.8,37.9v4.2h-3.4L29.1,33l9.2,1.3v3.6H33.8z M38.3,39.4v2.8h-3v-2.8H38.3z M38.3,400.3l-9.2,1.3l1.3-9.2h3.4v4.2h4.5V400.3z
				 M38.3,395.2h-3v-2.8h3V395.2z M41.9,395.2h-2.2V391h-4.5v-2.2h6.6V395.2z M36.1,387.4l5.8-8.6l0,8.6H36.1z M41.8,376.3l-2.9,4.3
				V54l2.9,4.3V376.3z M41.9,55.8l-5.8-8.6h5.8L41.9,55.8z M41.9,45.8h-6.6v-2.2h4.5v-4.2h2.2V45.8z M393.1,40v5.8l-8.6,0L393.1,40z
				 M393.2,63.7l-15.8-16.5l15.7,0L393.2,63.7z M386.3,42.8l-4.3,2.9H54.4l-4.3-2.9H386.3z M43.3,40l8.6,5.8l-8.6,0V40z M43.3,47.2
				l15.7,0L43.3,63.7L43.3,47.2z M43.3,394.6v-5.8l8.6,0L43.3,394.6z M43.3,370.9l15.8,16.5l-15.7,0L43.3,370.9z M50.1,391.8
				l4.3-2.9l327.6,0l4.3,2.9L50.1,391.8z M393.1,394.6l-8.6-5.8l8.6,0V394.6z M393.1,387.4l-15.7,0l15.8-16.5L393.1,387.4z
				 M393.2,368.8l-17.8,18.6l-314.4,0l-17.8-18.6V65.8L61,47.2h314.4l17.8,18.6V368.8z M400.4,387.4h-5.8l0-8.6L400.4,387.4z
				 M398.2,34.3l9.2-1.3l-1.3,9.2h-3.4v-4.2h-4.5V34.3z M398.2,39.4h3v2.8h-3V39.4z M394.6,39.4h2.2v4.2h4.5v2.2h-6.6V39.4z
				 M400.4,47.2l-5.8,8.6l0-8.6H400.4z M394.6,58.3l2.9-4.3v326.7l-2.9-4.3V58.3z M396.7,395.2h-2.2v-6.4h6.6v2.2h-4.5V395.2z
				 M401.2,392.4v2.8h-3v-2.8H401.2z M398.2,400.3v-3.6h4.5v-4.2h3.4l1.3,9.2L398.2,400.3z"/>
		</g>
	</g>
	<g>
		<g>
			<g>
				<polyline class="st6" points="6.6,15.2 194.3,15.2 217.6,33.1 241.1,15.2 428.5,15.2 				"/>
				<path class="st6" d="M217.5,38.3l-24.6-19H29.8c-8.6,0-16.4,5-20,12.7l-2.6,5.6c-0.1,0.3-0.6,0.2-0.6-0.1V11.1h189.1L217.6,28
					l22.2-16.9h188.8v26.5c0,0.3-0.4,0.4-0.6,0.1l-3.2-6.3c-3.7-7.5-11.4-12.2-19.7-12.2H242.5L217.5,38.3z"/>
			</g>
			<polygon class="st7" points="217.6,28 239.8,11.1 195.7,11.1 			"/>
			<polyline class="st6" points="217.6,28.2 208.3,11.1 217.6,3.1 226.8,11.1 217.6,28.2 			"/>
			<polygon class="st8" points="220.8,11.5 217.6,8.7 214.1,11.5 217.6,19.3 			"/>
		</g>
		<path class="st6" d="M428.1,416.6l-1.7-49.1c0-0.3-0.4-0.3-0.5-0.1v0c-4.2,14-12.5,26.2-23.5,35.1c-5.4,4.4-12.2,6.8-19.2,6.8
			l-333.8,0.3c-6.4,0-12.6-2-17.7-5.9c-11.6-9-20.3-21.5-24.7-36v0c-0.1-0.3-0.5-0.2-0.5,0.1l-1.7,49.1L428.1,416.6z"/>
	</g>
</g>
</svg>
