<?xml version="1.0" encoding="utf-8"?>
<!-- Generator: Adobe Illustrator 24.2.1, SVG Export Plug-In . SVG Version: 6.00 Build 0)  -->
<svg version="1.1" id="Lag_1" xmlns="http://www.w3.org/2000/svg" xmlns:xlink="http://www.w3.org/1999/xlink" x="0px" y="0px"
	 viewBox="0 0 854 660" style="enable-background:new 0 0 854 660;" xml:space="preserve">
<style type="text/css">
	.st0{fill:#DBC3A9;stroke:#110B09;stroke-width:2;stroke-miterlimit:10;}
	.st1{fill:#E0C7B1;}
	.st2{opacity:0.58;fill:#E5D2C1;enable-background:new    ;}
	.st3{opacity:0.58;fill:#EDDACC;enable-background:new    ;}
	.st4{fill:none;stroke:#110B09;stroke-width:2;stroke-miterlimit:10;}
	.st5{opacity:0.1;}
	.st6{fill:#110B09;}
</style>
<g>
	<g>
		<path class="st0" d="M820.1,585.2l22.8-15.9L837,412.4c-2.7-70.7-2.4-141.4,0.8-212.1L846,14.8l-217.9,8.8l-3.8,23.6l-12.5-22.9
			l-74.4,3c-5.5,0.2-141.2,2.2-193.7,0.2l-233.4-8.8c-29-1.1-57.9-5.7-86-13.7l0,0l-3.4,15.6C14.1,52,11.4,84.2,13,116.3l4,81
			c3.8,76.3,4,152.7,0.8,229L8,655l87.5-4.9L115,605l18.6,42.9l165.5-9.3c96.7-5.4,193.7-5.2,290.3,0.7L846,655l-2.4-64.8
			L820.1,585.2z"/>
		<path class="st1" d="M349.3,47.4l-218.1-8.3c-27.2-1-54.2-5.3-80.4-12.8l0,0l-3.2,14.6c-6.4,29.3-8.9,59.4-7.4,89.4L44,206
			c3.5,71.3,3.8,142.7,0.7,214l-9.2,213.7l58.9-3.9l20.6-39.6l20.1,38.4l172.5-10.3c90.4-5.1,181-4.9,271.3,0.7l239.8,14.7
			l-1.7-38.9l-6.9-8.9l6.2-8.7l-6.1-170c-2.5-66-2.2-132.1,0.7-198.2l7.8-173.4l-185.4,7.8l-5.5,20.3l-15.2-20.2l-82.3,3.7
			C529.2,47.2,386.2,48.8,349.3,47.4z"/>
		<path class="st2" d="M781.3,397.4c-2.3-57.5-2.1-115,0.7-172.5l5.6-115.6c0.8-17.1-13.2-31.3-30.3-30.6l-234.9,8.8
			c-4.7,0.2-122,1.8-167.3,0.2l-201.7-7.1c-25.2-0.9-50.1-4.6-74.4-11l0,0l-3,12.5c-5.9,25.2-8.2,50.9-6.9,76.7l3.4,63.4
			c3.3,62.1,3.6,124.3,0.7,186.4l-6.9,149.5c-0.8,17.3,13.5,31.4,30.7,30.5l217.8-11.4c84.7-4.4,169.5-4.2,254.1,0.6l188,10.7
			c17.2,1,31.6-13.1,30.9-30.4L781.3,397.4z"/>
		<path class="st3" d="M740.5,387c-2.1-48.5-1.9-97.1,0.6-145.6l4.7-91.9c0.9-17.1-13.1-31.3-30.2-30.7L511.5,126
			c-4.2,0.1-107.9,1.5-148.1,0.2l-178.5-6c-22.3-0.7-44.4-3.8-65.8-9.2l0,0l-2.6,10.5c-5.2,21.2-7.3,42.8-6.1,64.5l3,53
			c3,52.4,3.2,105,0.6,157.4l-5.9,120.3c-0.8,17.3,13.4,31.5,30.6,30.6l188.9-9.4c75-3.7,150.1-3.6,225,0.5l162.6,8.8
			c17.2,0.9,31.5-13.2,30.8-30.4L740.5,387z"/>
		<path class="st4" d="M820.1,585.2l22.8-15.9L837,412.4c-2.7-70.7-2.4-141.4,0.8-212.1L846,14.8l-217.9,8.8l-3.8,23.6l-12.5-22.9
			l-74.4,3c-5.5,0.2-141.2,2.2-193.7,0.2l-233.4-8.8c-29-1.1-57.9-5.7-86-13.7l0,0l-3.4,15.6C14.1,52,11.4,84.2,13,116.3l4,81
			c3.8,76.3,4,152.7,0.8,229L8,655l87.5-4.9L115,605l18.6,42.9l165.5-9.3c96.7-5.4,193.7-5.2,290.3,0.7L846,655l-2.4-64.8
			L820.1,585.2z"/>
	</g>
	<g class="st5">
		<path class="st6" d="M66.7,54.5l-13.6-0.6l0.6,13.6L66.7,54.5z M63,55.9l-7.9,7.9l-0.3-8.3L63,55.9z"/>
		<path class="st6" d="M812.9,58l3.7-5.4c0.2-0.2,0.4-0.5,0.4-0.8v-2.9h5.1l1.9-13.6l-13.6,1.9v5.4h-2.9c-0.2,0-0.5,0.1-0.6,0.2
			l-0.1-0.1l-5.5,3.7h-21.2v0.1L459,50.3c-37,2.9-74.1,3.9-111.2,3.1l-290.5-7l-5.5-3.7l-0.1,0.1c-0.2-0.1-0.4-0.2-0.6-0.2h-2.9
			v-5.4l-13.6-1.9l1.9,13.6h5.1v2.9c0,0.3,0.2,0.6,0.4,0.8l3.7,5.4l-2.3,530.8v20l-3.7,5.4c-0.2,0.2-0.4,0.5-0.4,0.8v2.9h-5.1
			l-1.9,13.6l13.6-1.9v-5.4h2.9c0.2,0,0.5-0.1,0.6-0.2l0.1,0.1l5.5-3.7h54.3l0.7-1.7H57.4l4.8-3.2h49.2l0.7-1.6H69.5l-19.6-20.5
			v-3.1l2.2-517l19.7-20.6l276.2,7c36.9,0.9,73.8-0.1,110.6-2.9l323.2-3.9v-0.1h5.1l19.5,20.4l-8.6,206.5
			c-1.6,37.5-1.7,75-0.4,112.4l6.8,196.6v4.7l-19.6,20.5h-5.1h-1.6l-311.1-11.8c-22.7-0.9-45.4-0.8-68.1,0.1l-280.9,11.7l0.7,1.6
			l280.2-11.7c22.7-0.9,45.5-1,68.2-0.1l311,11.8h1.6h12.4l4.8,3.2h-17.2h-1.6l-311-11.8c-22.8-0.9-45.6-0.8-68.4,0.1l-278.8,11.7
			l0.7,1.6l278.1-11.7c22.8-1,45.6-1,68.4-0.1l310.9,11.8h1.6H799l5.5,3.7l0.1-0.1c0.2,0.1,0.4,0.2,0.6,0.2h2.9v5.4l13.6,1.9
			l-1.9-13.6h-5.1V615c0-0.3-0.2-0.6-0.4-0.8l-3.7-5.4v-18.4l-6.9-200.2c-1.2-36.3-1.1-72.6,0.3-108.9L812.9,58z M41.6,42.6v4.7
			h-3.7l-1.4-10.1l10.1,1.4v4H41.6z M46.6,44.1v3.1h-3.4v-3.1H46.6z M34.2,629.6l1.4-10.1h3.7v4.7h4.9v4h0.1L34.2,629.6z
			 M44.3,622.6h-3.4v-3.1h3.4V622.6z M48.3,622.6h-2.4v-4.7H41v-2.4h7.3V622.6z M48.3,613.9h-6.4l6.4-9.5V613.9z M49.9,621.9v-6.4
			h9.5L49.9,621.9z M67.3,613.9H49.9v-18.2L67.3,613.9z M48.3,588.7v12.8l-3.3,4.9v-16l2.3-530.1l3.2,4.8L48.3,588.7z M50.5,62.3
			l-6.4-9.5h6.4V62.3z M50.5,51.2h-7.3v-2.4h4.9v-4.7h2.4V51.2z M52.2,44.8l9.5,6.4h-9.5V44.8z M52.1,71.1l0.1-18.3h17.4L52.1,71.1z
			 M780.2,51.2L780.2,51.2l-321.7,4c-36.7,2.9-73.6,3.8-110.4,2.9L64.5,51.2L59.7,48L348,54.9c37,0.9,74.1-0.1,111-3l322.8-3.8V48
			H799l-4.8,3.2H780.2z M806.3,70.9L789,52.8h17.4L806.3,70.9z M806.4,51.2H797l9.4-6.4V51.2z M804.1,621.9l-9.5-6.4h9.5V621.9z
			 M804.1,613.9h-17.4l17.4-18.2V613.9z M812,38.6l10.1-1.4l-1.4,10.1H817v-4.7h-5V38.6z M812,44.1h3.4v3.1H812V44.1z M808,44.1h2.4
			v4.7h4.9v2.4H808V44.1z M808,52.8h6.4l-6.5,9.6L808,52.8z M814.6,624.2v-4.7h3.7l1.4,10.1l-10.1-1.4v-4H814.6z M813.1,622.6h-3.4
			v-3.1h3.4V622.6z M813.1,617.9h-4.9v4.7h-2.4v-7.1h7.3V617.9z M812.2,613.9h-6.4v-9.5L812.2,613.9z M802.2,390.1l6.8,198.6v17.7
			l-3.3-4.9v-11.2L798.9,391c-1.3-36.8-1.2-73.6,0.3-110.4L808,65.3l3.3-4.9l-8.8,219.9C801,316.9,800.9,353.5,802.2,390.1z"/>
		<path class="st6" d="M804.9,67.5l0.6-13.6l-13.6,0.6L804.9,67.5z M803.4,63.9l-7.9-7.9l8.3-0.3L803.4,63.9z"/>
		<path class="st6" d="M51.4,599.2l-0.6,13.6l13.6-0.6L51.4,599.2z M52.8,602.9l7.9,7.9l-8.3,0.3L52.8,602.9z"/>
		<path class="st6" d="M789.6,612.2l13.6,0.6l-0.6-13.6L789.6,612.2z M793.2,610.8l7.9-7.9l0.3,8.3L793.2,610.8z"/>
	</g>
</g>
</svg>
