<?xml version="1.0" encoding="utf-8"?>
<!-- Generator: Adobe Illustrator 24.2.3, SVG Export Plug-In . SVG Version: 6.00 Build 0)  -->
<svg version="1.1" id="Lag_1" xmlns="http://www.w3.org/2000/svg" xmlns:xlink="http://www.w3.org/1999/xlink" x="0px" y="0px"
	 viewBox="0 0 278 512" style="enable-background:new 0 0 278 512;" xml:space="preserve">
<style type="text/css">
	.st0{fill:#D3BA88;stroke:#110B09;stroke-width:2;stroke-miterlimit:10;}
	.st1{fill:#C1AA81;}
	.st2{fill:#DBC3A9;stroke:#110B09;stroke-width:2;stroke-miterlimit:10;}
	.st3{fill:#E0C7B1;}
	.st4{opacity:0.58;fill:#E5D2C1;}
	.st5{opacity:0.58;fill:#EDDACC;}
	.st6{opacity:0.1;}
	.st7{fill:#110B09;}
</style>
<g>
	<path class="st0" d="M4.4,498V30.3c0-6.6,5.4-12,12-12h245.2c6.6,0,12,5.4,12,12V498c0,6.6-5.4,12-12,12H16.4
		C9.8,510,4.4,504.6,4.4,498z"/>
	<path class="st1" d="M8.7,492.5V35.8c0-6.4,5.2-11.6,11.6-11.6h237.2c6.4,0,11.6,5.2,11.6,11.6v456.6c0,6.4-5.2,11.6-11.6,11.6
		H20.4C14,504.1,8.7,498.9,8.7,492.5z"/>
	<path class="st2" d="M12.2,490.7V37.6c0-6.3,5.1-11.4,11.4-11.4h230.8c6.3,0,11.4,5.1,11.4,11.4v453.2c0,6.3-5.1,11.4-11.4,11.4
		H23.6C17.3,502.2,12.2,497.1,12.2,490.7z"/>
	<path class="st3" d="M19.6,486.4V41.9c0-6.1,4.9-11,11-11h216.7c6.1,0,11,4.9,11,11v444.6c0,6.1-4.9,11-11,11H30.6
		C24.6,497.4,19.6,492.5,19.6,486.4z"/>
	<path class="st4" d="M26.6,483V45.3c0-5.8,4.7-10.6,10.6-10.6h203.7c5.8,0,10.6,4.7,10.6,10.6V483c0,5.8-4.7,10.6-10.6,10.6H37.1
		C31.3,493.6,26.6,488.9,26.6,483z"/>
	<path class="st5" d="M38.3,476.6v-425c0-5.4,4.4-9.9,9.9-9.9h181.6c5.4,0,9.9,4.4,9.9,9.9v425c0,5.4-4.4,9.9-9.9,9.9H48.2
		C42.7,486.5,38.3,482.1,38.3,476.6z"/>
	<g class="st6">
		<path class="st7" d="M241.6,54.1l0.3-7.7l-7.5,0.3L241.6,54.1z M240.8,52l-4.4-4.5l4.5-0.2L240.8,52z"/>
		<path class="st7" d="M43.5,46.7L36,46.3l0.3,7.7L43.5,46.7z M36.9,47.3l4.5,0.2L37.1,52L36.9,47.3z"/>
		<path class="st7" d="M234.4,479.1l7.5,0.3l-0.3-7.7L234.4,479.1z M241,478.5l-4.5-0.2l4.4-4.5L241,478.5z"/>
		<path class="st7" d="M36.3,471.7l-0.3,7.7l7.5-0.3L36.3,471.7z M37.1,473.8l4.4,4.5l-4.5,0.2L37.1,473.8z"/>
		<path class="st7" d="M248.2,482.3v-1.7c0-0.1-0.1-0.3-0.1-0.4h0.1l-2-3.1V327v-33.6V113.3v-4.9V48.7l2-3.1h-0.1
			c0.1-0.1,0.1-0.2,0.1-0.4v-1.7h3l1.1-7.7l-7.5,1.1v2.9h-1.6c-0.2,0-0.3,0.1-0.4,0.2l-3,2.1H38.2l-3-2.1c-0.1-0.1-0.3-0.2-0.4-0.2
			h-1.6v-2.9l-7.5-1.1l1.1,7.7h3v1.7c0,0.1,0.1,0.3,0.1,0.4h-0.1l2,3.1v59.8v184.9l0,0v183.7l-2,3.1h0.1c-0.1,0.1-0.1,0.2-0.1,0.4
			v1.7h-3l-1.1,7.7l7.5-1.1V486h1.6c0.2,0,0.3-0.1,0.4-0.2l3-2.1h201.5l3,2.1c0.1,0.1,0.3,0.2,0.4,0.2h1.6v2.9l7.5,1.1l-1.1-7.7
			H248.2z M245.6,37.7l5.6-0.8l-0.8,5.8h-2.2v-2.8h-2.6V37.7z M245.6,40.7h1.7v1.9h-1.7V40.7z M243.4,40.7h1.3v2.8h2.6v1.4h-3.9
			L243.4,40.7L243.4,40.7z M243.4,45.8h3.5l-3.5,5.4V45.8z M242.5,327v141.9l-11.3,11.2H46.7l-11.3-11.2V327v-33.6V113.3V56.9
			l11.3-11.2h184.5l11.3,11.2v51.5v4.9v180.1V327z M35.4,470.1l10,9.9h-10V470.1z M232.5,45.7h10v9.9L232.5,45.7z M242.5,41.2v3.7
			h-5.2L242.5,41.2z M238.4,43l-2.6,1.8H42.1L39.5,43H238.4z M35.4,41.2l5.2,3.6h-5.2V41.2z M45.4,45.7l-10,9.9v-9.9L45.4,45.7z
			 M29.7,39.8v2.8h-2.2l-0.8-5.8l5.6,0.8v2.1h-2.6V39.8z M32.3,40.7v1.9h-1.7v-1.9H32.3z M30.6,43.5h2.6v-2.8h1.3v4.2h-3.9V43.5z
			 M31,45.8h3.5v5.4L31,45.8z M32.3,488.1l-5.6,0.8l0.8-5.8h2.2v2.8h2.6V488.1z M32.3,485.1h-1.7v-1.9h1.7V485.1z M34.5,485.1h-1.3
			v-2.8h-2.6v-1.4h3.9V485.1z M34.5,480H31l3.5-5.4V480z M34.5,473l-1.8,2.7V327v-33.6V113.3V50l1.8,2.7v55.7l0,0v184.9V327V473z
			 M35.4,484.6v-3.7h5.2L35.4,484.6z M39.5,482.8l2.6-1.8h193.6l2.6,1.8H39.5z M242.5,484.6l-5.2-3.6h5.2V484.6z M232.5,480.1
			l10-9.9v9.9H232.5z M243.4,327v-33.6V113.3v-4.9V52.8l1.8-2.7v58.4v4.9v180.1V327v148.8l-1.8-2.7V327z M246.9,480h-3.5v-5.4
			L246.9,480z M244.7,485.1h-1.3v-4.2h3.9v1.4h-2.6L244.7,485.1L244.7,485.1z M247.3,483.2v1.9h-1.7v-1.9H247.3z M245.6,488.1V486
			h2.6v-2.8h2.2l0.8,5.8L245.6,488.1z"/>
	</g>
</g>
</svg>
