<?xml version="1.0" encoding="utf-8"?>
<!-- Generator: Adobe Illustrator 24.2.3, SVG Export Plug-In . SVG Version: 6.00 Build 0)  -->
<svg version="1.1" id="Lag_1" xmlns="http://www.w3.org/2000/svg" xmlns:xlink="http://www.w3.org/1999/xlink" x="0px" y="0px"
	 viewBox="0 0 1030 446" style="enable-background:new 0 0 1030 446;" xml:space="preserve">
<style type="text/css">
	.st0{fill:#D3BA88;stroke:#110B09;stroke-width:2;stroke-miterlimit:10;}
	.st1{fill:#C1AA81;}
	.st2{fill:#B7A697;stroke:#110B09;stroke-width:2;stroke-miterlimit:10;}
	.st3{fill:#BFAEA1;}
	.st4{opacity:0.58;fill:#C9B8AB;}
	.st5{opacity:0.58;fill:#D1C2B8;}
	.st6{opacity:0.1;}
	.st7{fill:#110B09;}
</style>
<g>
	<path class="st0" d="M993.4,437.3H36.6c-11.9,0-21.6-9.7-21.6-21.6V30.3c0-11.9,9.7-21.6,21.6-21.6h956.9
		c11.9,0,21.6,9.7,21.6,21.6v385.4C1015,427.6,1005.3,437.3,993.4,437.3z"/>
	<path class="st1" d="M987.1,430.4H42.9c-11.6,0-21.1-9.4-21.1-21.1V36.6c0-11.6,9.4-21.1,21.1-21.1h944.2
		c11.6,0,21.1,9.4,21.1,21.1v372.7C1008.2,421,998.7,430.4,987.1,430.4z"/>
	<path class="st2" d="M983.5,425H46.5c-11.4,0-20.7-9.3-20.7-20.7V41.7C25.8,30.3,35,21,46.5,21h937.1c11.4,0,20.7,9.3,20.7,20.7
		v362.5C1004.2,415.7,995,425,983.5,425z"/>
	<path class="st3" d="M974.6,413.1H55.4c-11,0-19.9-8.9-19.9-19.9V52.8c0-11,8.9-19.9,19.9-19.9h919.1c11,0,19.9,8.9,19.9,19.9
		v340.4C994.5,404.2,985.5,413.1,974.6,413.1z"/>
	<path class="st4" d="M967.5,402.1h-905c-10.6,0-19.1-8.6-19.1-19.1V63.1c0-10.6,8.6-19.1,19.1-19.1h905c10.6,0,19.1,8.6,19.1,19.1
		v319.8C986.6,393.5,978.1,402.1,967.5,402.1z"/>
	<path class="st5" d="M954.1,383.3H75.9c-9.8,0-17.8-8-17.8-17.8v-285c0-9.8,8-17.8,17.8-17.8h878.2c9.8,0,17.8,8,17.8,17.8v285
		C971.9,375.3,964,383.3,954.1,383.3z"/>
	<g class="st6">
		<path class="st7" d="M70.1,59.6l-11.9-0.5L58.7,71L70.1,59.6z M66.9,60.9L60,67.8l-0.3-7.2L66.9,60.9z"/>
		<path class="st7" d="M58.7,375.1L58.2,387l11.9-0.5L58.7,375.1z M59.7,385.6l0.3-7.2l6.9,6.9L59.7,385.6z"/>
		<path class="st7" d="M970,71l0.5-11.9l-11.9,0.5L970,71z M969,60.6l-0.3,7.2l-6.9-6.9L969,60.6z"/>
		<path class="st7" d="M958.6,386.5l11.9,0.5l-0.5-11.9L958.6,386.5z M961.8,385.3l6.9-6.9l0.3,7.2L961.8,385.3z"/>
		<path class="st7" d="M980.5,391.5v-2.6c0-0.3-0.1-0.5-0.3-0.7l-3.2-4.7V62.7l3.2-4.7c0.2-0.2,0.3-0.4,0.3-0.7v-2.6h4.5l1.7-11.9
			l-11.9,1.7v4.7h-2.6c-0.2,0-0.4,0.1-0.6,0.2l-0.1-0.1l-4.8,3.3H161.5H154H61.9L57,49.3L57,49.4c-0.2-0.1-0.3-0.2-0.6-0.2h-2.6
			v-4.7L42,42.8l1.7,11.9h4.5v2.6c0,0.3,0.1,0.5,0.3,0.7l3.2,4.7v320.8l-3.2,4.7c-0.2,0.2-0.3,0.4-0.3,0.7v2.6h-4.5L42,403.4
			l11.9-1.7V397h2.6c0.2,0,0.4-0.1,0.6-0.2l0.1,0.1l4.8-3.3l92.1,0l0,0l812.8,0l4.8,3.3l0.1-0.1c0.2,0.1,0.3,0.2,0.6,0.2h2.6v4.7
			l11.9,1.7l-1.7-11.9H980.5z M48.1,49.2v4.1h-3.3l-1.3-8.9l8.9,1.3v3.5H48.1z M52.5,50.5v2.7h-2.9v-2.7H52.5z M52.5,400.5l-8.9,1.3
			l1.3-8.9h3.3v4.1h4.3V400.5z M52.5,395.6h-2.9v-2.7h2.9V395.6z M56,395.6h-2.1v-4.1h-4.3v-2.1H56V395.6z M50.3,388l5.6-8.3l0,8.3
			H50.3z M53.1,381.5V64.7l2.8,4.2v308.3L53.1,381.5z M55.9,66.5l-5.6-8.3H56L55.9,66.5z M56,56.8h-6.4v-2.1h4.3v-4.1H56V56.8z
			 M971.3,51.2v5.6l-8.3,0L971.3,51.2z M971.4,74.1l-15.3-16l15.2,0L971.4,74.1z M154,53.9h7.5h803.3l-4.2,2.8h-799H154H68.1
			l-4.2-2.8H154z M57.4,51.2l8.3,5.6l-8.3,0V51.2z M57.4,58.2l15.2,0l-15.3,16L57.4,58.2z M57.4,395v-5.6l8.3,0L57.4,395z M57.3,372
			l15.3,16l-15.2,0L57.3,372z M161.5,392.2L161.5,392.2l-97.6,0l4.2-2.8H154v0h806.6l4.2,2.8L161.5,392.2z M971.3,395l-8.3-5.6
			l8.3,0V395z M971.3,388l-15.2,0l15.3-16L971.3,388z M971.4,370l-17.2,18H161.5v0h-87l-17.2-18V76.2l17.2-18H154h7.5h792.7l17.2,18
			V370z M976.2,45.7l8.9-1.3l-1.3,8.9h-3.3v-4.1h-4.3V45.7z M976.2,50.5h2.9v2.7h-2.9V50.5z M972.7,50.5h2.1v4.1h4.3v2.1h-6.4V50.5z
			 M978.3,58.2l-5.6,8.3l0-8.3H978.3z M975.6,64.7v316.7l-2.8-4.2V68.9L975.6,64.7z M972.7,379.7l5.6,8.3h-5.6L972.7,379.7z
			 M974.8,395.6h-2.1v-6.2h6.4v2.1h-4.3V395.6z M979.1,392.9v2.7h-2.9v-2.7H979.1z M976.2,400.5V397h4.3v-4.1h3.3l1.3,8.9
			L976.2,400.5z"/>
	</g>
</g>
</svg>
