<?xml version="1.0" encoding="utf-8"?>
<!-- Generator: Adobe Illustrator 25.4.1, SVG Export Plug-In . SVG Version: 6.00 Build 0)  -->
<svg version="1.1" id="Lag_1" xmlns="http://www.w3.org/2000/svg" xmlns:xlink="http://www.w3.org/1999/xlink" x="0px" y="0px"
	 viewBox="0 0 446 571" style="enable-background:new 0 0 446 571;" xml:space="preserve">
<style type="text/css">
	.st0{fill:#59433B;stroke:#110B09;stroke-width:6;stroke-miterlimit:10;}
	.st1{fill:#725850;}
	.st2{fill:#5A703E;stroke:#110B09;stroke-width:2;stroke-miterlimit:10;}
	.st3{fill:#E5D2BA;stroke:#110B09;stroke-width:2;stroke-miterlimit:10;}
	.st4{fill:#698746;stroke:#110B09;stroke-width:2;stroke-miterlimit:10;}
	.st5{fill:#617C42;stroke:#110B09;stroke-width:2;stroke-miterlimit:10;}
	.st6{fill:#AD6751;stroke:#110B09;stroke-width:2;stroke-miterlimit:10;}
	.st7{opacity:0.35;}
	.st8{fill:#475B2D;}
	.st9{fill:#473630;}
	.st10{fill:#E8C2A3;}
	.st11{fill:#EFE3D0;}
	.st12{fill:#FFF9F3;}
</style>
<g>
	<g>
		<polygon class="st0" points="356.3,481.5 323.5,558.4 433.9,559.2 433.9,447.6 		"/>
		<path class="st1" d="M432.4,557.7l-106.7-0.8l31.7-74.3l75-32.8V557.7 M435.4,560.7v-3V449.9v-4.6l-4.2,1.8l-75,32.8l-1.1,0.5
			l-0.5,1.1L323,555.8l-1.8,4.1l4.5,0l106.7,0.8L435.4,560.7L435.4,560.7z"/>
	</g>
	<g>
		<polygon class="st2" points="425,547.2 426.7,423.5 341.9,423.5 340.9,547.2 		"/>
		<path class="st3" d="M419.9,499.9l-1.6,3.8c-5.5,13.1-3.7,28.1,4.7,39.5v0l-396.2,1.4L15,521.8l24.4-19.1L419.9,499.9z"/>
		<path class="st4" d="M413,495.3H68.2V19.7H413c8.7,0,15.7,7,15.7,15.7v444.2C428.7,488.2,421.7,495.3,413,495.3z"/>
		<path class="st5" d="M52.4,495.3l2.4,1.5c3.3,2.1,7.6,2.1,10.9,0l2.4-1.5V20.7c0-0.4-0.5-0.7-0.8-0.5l-1.6,1
			c-3.3,2.1-7.6,2.1-10.9,0l-2.4-1.5V495.3z"/>
		<path class="st4" d="M52.1,495.3l0.3,0V19.7l-15,3.9c-7.6,2-14.4,6.2-19.5,12.2l0,0c-6.1,7-9.4,16-9.4,25.3v456.2l0,0
			C9.4,504.8,36.3,492.6,52.1,495.3z"/>
		<g>
			<path class="st6" d="M44.4,546.1c-1,0-11.5,2.2-17.6-1.5c-7.2-4.3-11.9-16.4-11.7-22.8c0.3-14.2,25.1-19,32.8-19.1
				c1.9,0,3.5,1.5,3.5,3.5c0,1.9-1.5,3.5-3.5,3.5c-0.7,0-25.7,1.4-25.9,12.3c-0.1,4,1.9,14.1,7.4,17.3c6.8,4,17.5,0.9,17.6,0.9
				c1.3,1.4,1.2,3.6-0.3,4.9C46.1,545.8,45.2,546.1,44.4,546.1z"/>
		</g>
		<path class="st5" d="M47.3,502.9c0.8,0,1.6,0,2.3,0.1c3.2,1.9,6.9,2.9,10.7,2.9c3.6,0,7.1-0.9,10.3-2.7l339.3-0.4
			c2,0,4-0.4,5.9-1.2l4.2-1.8c2.2-1,4.2-2.5,5.7-4.4v0c2-2.6,3.1-5.8,3.1-9.1v-6.9l-5.4,9.2l0,0c-1.7,3.1-4.7,5.3-8.1,6.1l-0.8,0.2
			c-0.9,0.2-1.8,0.3-2.7,0.3H68.2c-2.3,1.8-5.1,2.7-7.9,2.7c-2.8,0-5.6-0.9-7.9-2.7l-0.3,0c-1.5-0.3-3.1-0.4-4.8-0.4l0,0
			c-16.4,0-38.7,10.3-38.7,27.4c0.4,7.5,8,32.3,18.8,32.3c14,0,25-3.9,25-3.9c2.3-1.5,4.9-2.2,7.5-2.2c2.8,0,5.6,0.9,8,2.6l0.2,0.2
			H423c2.2,0,4-1.8,4-4v0c0-2.2-1.8-4-4-4H70.5c-3.2-1.8-6.9-2.7-10.6-2.7c-3.9,0-7.7,1-11.1,3c-1.8,0.7-11.9,5.7-21.4,3.1
			c-5.8,0-10.7-20.6-10.8-24.7c0-0.5,0.4-5.8,2.2-7.7C24.6,508.1,37.7,502.9,47.3,502.9"/>
	</g>
	<g class="st7">
		<path class="st8" d="M410.4,462.6H196.6c-52.1,0-94.5-33.7-94.5-75.1v-79.2v-103V126c0-41.4,42.4-75.1,94.5-75.1h213.8V35H97.7
			H84.4v10.6v159.6v103v159.6v10.6h13.3h312.7V462.6z M124.1,450.9c3.8,2.8,7.9,5.3,12.3,7.7c-1.4,0.7-3.8,1.7-6.8,2.4
			c-0.2-1.7-0.8-3.6-1.8-5.3c-0.9-1.5-2.2-2.5-3.6-3.1c-0.1-0.6-0.4-1.3-0.7-1.9C123.8,450.7,124,450.8,124.1,450.9z M123.6,456.4
			c0.5-0.7,0.7-1.4,0.8-2.2c0.8,0.5,1.5,1.2,2,2.1c1,1.6,1.4,3.4,1.7,5.1c-2.3,0.4-4.8,0.5-7.3,0c-1.9-0.3-3.2-1-4.1-1.9
			C120,459.1,122.4,458,123.6,456.4z M122.7,453.4c0.1,0.9-0.1,1.7-0.6,2.3c-1,1.3-3.1,2.2-6.3,2.4c-0.4-1-0.4-2-0.2-3
			c1.3-0.2,2.3-0.5,2.4-0.6l0.4-0.1l0.1-0.3c0,0,0.2-0.6,0.3-1.4C119.9,452.8,121.3,453,122.7,453.4z M114.1,458.3
			c-1.1,0-2.3,0-3.6-0.1c-0.1-1-0.2-2-0.1-2.9c1.2,0.2,2.4,0.2,3.5,0.2c0,0.3-0.1,0.6-0.1,0.9C113.8,457,113.9,457.6,114.1,458.3z
			 M110.5,453.9c0.4-2.5,1.4-4.2,3.1-5c0.8-0.4,1.8-0.5,2.9-0.4c0.5,1,0.7,2.1,0.7,3.1c-1,0.1-1.7,0.2-1.7,0.2l-0.4,0.1l-0.2,0.3
			c0,0.1-0.4,0.8-0.7,1.9C113,454.2,111.7,454.2,110.5,453.9z M108.9,453.3c-1.2-0.7-2.1-1.8-2.5-3.3c-0.6-2-0.4-4,0.1-5.8
			c2.1,0.2,4.3,0.6,6.4,1.3c1.2,0.4,2,1,2.7,1.7c-1,0.1-1.9,0.2-2.7,0.6C110.7,448.7,109.4,450.6,108.9,453.3z M117,452.9
			c0,0.3-0.1,0.5-0.1,0.6c-0.2,0.1-0.6,0.1-1,0.2c0.1-0.3,0.2-0.6,0.3-0.8C116.4,453,116.7,452.9,117,452.9z M122.3,451.9
			c-1.2-0.3-2.5-0.4-3.6-0.4c0-0.8-0.1-1.8-0.5-2.8c0.9,0.2,1.9,0.5,3,0.9C121.7,450.5,122.1,451.2,122.3,451.9z M119.9,447.6
			c0,0,0.1,0.1,0.1,0.2c-0.9-0.2-1.7-0.4-2.5-0.5c-0.8-1.2-2-2.2-4-2.9c-2.2-0.8-4.5-1.2-6.7-1.4c0.7-2.1,1.8-3.8,2.7-4.9
			C112.7,441.4,116.1,444.6,119.9,447.6z M119.9,65.8c-3.7,3-7.2,6.2-10.3,9.7c-0.8-1.1-1.9-2.9-2.7-4.9c2.2-0.2,4.5-0.6,6.7-1.4
			c2-0.7,3.2-1.8,4-2.9c0.8-0.1,1.6-0.3,2.5-0.5C119.9,65.7,119.9,65.8,119.9,65.8z M117.1,61.9c0,0.9-0.1,2-0.7,3.1
			c-1.1,0-2.1-0.1-2.9-0.4c-1.7-0.8-2.7-2.5-3.1-5c1.2-0.3,2.5-0.3,3.6-0.1c0.3,1.1,0.7,1.8,0.7,1.9l0.2,0.3l0.4,0.1
			C115.4,61.7,116.1,61.8,117.1,61.9z M115.9,59.7c0.4,0.1,0.7,0.2,1,0.2c0,0.2,0.1,0.4,0.1,0.6c-0.3,0-0.6-0.1-0.8-0.1
			C116.1,60.3,116,60,115.9,59.7z M113.9,58.1c-1.1-0.1-2.3-0.1-3.5,0.2c0-0.9,0-1.9,0.1-2.9c1.3-0.1,2.5-0.1,3.6-0.1
			c-0.2,0.6-0.3,1.3-0.3,1.9C113.8,57.4,113.8,57.7,113.9,58.1z M112.8,65.7c0.8,0.4,1.7,0.6,2.7,0.6c-0.6,0.7-1.5,1.2-2.7,1.7
			c-2.1,0.8-4.3,1.1-6.4,1.3c-0.5-1.8-0.6-3.8-0.1-5.8c0.4-1.5,1.3-2.6,2.5-3.3C109.4,62.9,110.7,64.8,112.8,65.7z M121.3,63.9
			c-1.1,0.4-2,0.7-3,0.9c0.4-1,0.5-1.9,0.5-2.8c1.1,0,2.3-0.1,3.6-0.4C122.1,62.3,121.7,63,121.3,63.9z M122.7,60.1
			c-1.3,0.4-2.8,0.6-4,0.6c-0.1-0.8-0.3-1.4-0.3-1.4l-0.1-0.3l-0.4-0.1c-0.1,0-1-0.3-2.4-0.6c-0.2-0.9-0.2-2,0.2-3
			c3.2,0.3,5.4,1.1,6.3,2.4C122.6,58.4,122.7,59.2,122.7,60.1z M116.6,54c0.9-0.9,2.2-1.6,4.1-1.9c2.5-0.4,5-0.3,7.3,0
			c-0.2,1.7-0.7,3.4-1.7,5.1c-0.5,0.9-1.2,1.6-2,2.1c-0.1-0.8-0.3-1.5-0.8-2.2C122.4,55.4,120,54.4,116.6,54z M124.1,62.6
			c-0.2,0.1-0.4,0.2-0.6,0.3c0.3-0.7,0.5-1.3,0.7-1.9c1.4-0.6,2.7-1.6,3.6-3.1c1-1.7,1.5-3.6,1.8-5.3c3,0.7,5.4,1.7,6.8,2.4
			C132.1,57.2,128,59.8,124.1,62.6z M105.2,45.6h54.1c-7.5,2.2-14.7,5.1-21.3,8.5c-1.3-0.7-4.3-2.2-8.2-3c0.2-3-0.3-5.3-0.4-5.4
			l-1.6,0.2c0,0,0.5,2.1,0.3,4.9c-2.4-0.4-5.1-0.5-7.8,0c-2.7,0.5-4.6,1.5-5.6,3.1c-1.3-0.1-2.7,0-4.2,0.1c0.1-2.5-0.6-4.3-2.4-5.2
			c-1.3-0.6-2.8-0.7-4.4-0.6C104.2,47.1,104.8,46.1,105.2,45.6z M107.3,49.9c1.2,0.6,1.8,2.1,1.6,4.1c-2.6,0.1-4.4-0.3-5.2-1.3
			c-0.7-0.8-0.7-2-0.4-3.1C104.8,49.4,106.2,49.4,107.3,49.9z M97.7,45.6h5.6c-0.4,0.7-1,1.7-1.4,2.9c-1.9,0.4-3.5,1-4.2,1.3V45.6z
			 M97.7,50.4l0.5,0.7c0.7-0.3,1.9-0.8,3.3-1.1c-0.1,0.3-0.1,0.6-0.1,1c0,0.9,0.2,1.8,0.8,2.5c1.1,1.4,3.4,2,6.5,1.9
			c-0.1,1.2-0.2,2.3-0.1,3.3c0,0,0,0,0,0c-2,0.8-3.3,2.3-3.9,4.5c-0.6,2.2-0.5,4.3,0,6.2c-3.4,0.1-6.1-0.3-6.1-0.3l-0.3,1.3
			c0.2,0,3.1,0.4,6.8,0.3c0.9,2.6,2.4,4.8,3.3,6c-4.2,4.7-7.8,9.8-10.7,15.2V50.4z M97.7,421.6c2.9,5.4,6.5,10.5,10.7,15.2
			c-1,1.2-2.4,3.3-3.3,6c-3.7-0.2-6.6,0.2-6.8,0.3l0.3,1.3c0,0,2.7-0.4,6.1-0.3c-0.5,1.9-0.6,4,0,6.2c0.6,2.2,1.9,3.7,3.9,4.5
			c0,0,0,0,0,0c-0.1,1,0,2.1,0.1,3.3c-3.2-0.1-5.4,0.5-6.5,1.9c-0.6,0.7-0.8,1.6-0.8,2.5c0,0.3,0,0.6,0.1,1
			c-1.4-0.4-2.6-0.8-3.3-1.1l-0.5,0.7V421.6z M97.7,467.9v-4.2c0.7,0.3,2.3,0.9,4.2,1.3c0.4,1.2,1,2.2,1.4,2.9H97.7z M103.7,460.8
			c0.8-1,2.6-1.4,5.2-1.3c0.1,2.1-0.4,3.5-1.6,4.1c-1,0.5-2.5,0.5-3.9,0.3C103,462.7,103,461.6,103.7,460.8z M105.2,467.9
			c-0.4-0.6-1-1.5-1.4-2.6c1.6,0.2,3.1,0.1,4.4-0.6c1.7-0.9,2.5-2.7,2.4-5.2c1.5,0.1,2.9,0.1,4.2,0.1c1,1.6,2.9,2.6,5.6,3.1
			c2.7,0.5,5.4,0.4,7.8,0c0.2,2.7-0.3,4.8-0.3,4.9l1.6,0.2c0-0.2,0.6-2.5,0.4-5.4c3.8-0.8,6.9-2.3,8.2-3c6.6,3.4,13.8,6.3,21.3,8.5
			H105.2z"/>
		<path class="st8" d="M397.1,35H273.9v15.9h24.2c52.1,0,94.5,33.7,94.5,75.1v79.2v103v79.2c0,41.4-42.4,75.1-94.5,75.1h-24.2v15.9
			h123.1h13.3v-10.6V308.3v-103V45.6V35H397.1z M379.4,61.7l0.4-0.1l0.2-0.3c0-0.1,0.4-0.8,0.7-1.9c1.1-0.1,2.4-0.1,3.6,0.1
			c-0.4,2.5-1.4,4.2-3.1,5c-0.8,0.4-1.8,0.5-2.9,0.4c-0.5-1-0.7-2.1-0.7-3.1C378.7,61.8,379.4,61.7,379.4,61.7z M377.8,60.6
			c0-0.3,0.1-0.5,0.1-0.6c0.2-0.1,0.6-0.1,1-0.2c-0.1,0.3-0.2,0.6-0.3,0.8C378.4,60.5,378.1,60.5,377.8,60.6z M380.7,55.2
			c1.1,0,2.3,0,3.6,0.1c0.1,1,0.2,2,0.1,2.9c-1.2-0.2-2.4-0.2-3.5-0.2c0-0.3,0.1-0.6,0.1-0.9C381,56.5,380.9,55.8,380.7,55.2z
			 M382,65.7c2.1-0.9,3.4-2.8,3.8-5.5c1.2,0.7,2.1,1.8,2.5,3.3c0.6,2,0.4,4-0.1,5.8c-2.1-0.2-4.3-0.6-6.4-1.3c-1.2-0.4-2-1-2.7-1.7
			C380.3,66.2,381.2,66,382,65.7z M387.5,49.9c1-0.5,2.5-0.5,3.9-0.3c0.3,1.2,0.3,2.3-0.4,3.1c-0.8,1-2.6,1.4-5.2,1.3
			C385.8,51.9,386.3,50.5,387.5,49.9z M335.5,45.6h54.1c0.4,0.6,1,1.5,1.4,2.6c-1.6-0.2-3.1-0.1-4.4,0.6c-1.7,0.9-2.5,2.7-2.4,5.2
			c-1.5-0.1-2.9-0.1-4.2-0.1c-1-1.6-2.9-2.6-5.6-3.1c-2.7-0.5-5.4-0.4-7.8,0c-0.2-2.7,0.3-4.8,0.3-4.9l-1.6-0.2
			c0,0.2-0.6,2.5-0.4,5.4c-3.8,0.8-6.9,2.3-8.2,3C350.2,50.7,343.1,47.8,335.5,45.6z M370.6,62.6c-3.8-2.8-7.9-5.3-12.3-7.7
			c1.4-0.7,3.8-1.7,6.8-2.4c0.2,1.7,0.8,3.6,1.8,5.3c0.9,1.5,2.2,2.5,3.6,3.1c0.1,0.6,0.4,1.3,0.7,1.9
			C371,62.8,370.8,62.7,370.6,62.6z M371.2,57.1c-0.5,0.7-0.7,1.4-0.8,2.2c-0.8-0.5-1.5-1.2-2-2.1c-1-1.6-1.4-3.4-1.7-5.1
			c2.3-0.4,4.8-0.5,7.3,0c1.9,0.3,3.2,1,4.1,1.9C374.8,54.4,372.4,55.4,371.2,57.1z M372.1,60.1c-0.1-0.9,0.1-1.7,0.6-2.3
			c1-1.3,3.1-2.2,6.3-2.4c0.4,1,0.4,2,0.2,3c-1.3,0.2-2.3,0.5-2.4,0.6l-0.4,0.1l-0.1,0.3c0,0-0.2,0.6-0.3,1.4
			C374.9,60.7,373.5,60.5,372.1,60.1z M372.5,61.5c1.2,0.3,2.5,0.4,3.6,0.4c0,0.8,0.1,1.8,0.5,2.8c-0.9-0.2-1.9-0.5-3-0.9
			C373,63,372.7,62.3,372.5,61.5z M374.9,65.8c0,0-0.1-0.1-0.1-0.2c0.9,0.2,1.7,0.4,2.5,0.5c0.8,1.2,2,2.2,4,2.9
			c2.2,0.8,4.5,1.2,6.7,1.4c-0.7,2.1-1.8,3.8-2.7,4.9C382.1,72.1,378.7,68.9,374.9,65.8z M374.9,447.6c3.7-3,7.2-6.2,10.3-9.7
			c0.8,1.1,1.9,2.9,2.7,4.9c-2.2,0.2-4.5,0.6-6.7,1.4c-2,0.7-3.2,1.8-4,2.9c-0.8,0.1-1.6,0.3-2.5,0.5
			C374.9,447.7,374.9,447.7,374.9,447.6z M377.7,451.6c0-0.9,0.1-2,0.7-3.1c1.1,0,2.1,0.1,2.9,0.4c1.7,0.8,2.7,2.5,3.1,5
			c-1.2,0.3-2.5,0.3-3.6,0.1c-0.3-1.1-0.7-1.8-0.7-1.9l-0.2-0.3l-0.4-0.1C379.4,451.8,378.7,451.7,377.7,451.6z M378.9,453.8
			c-0.4-0.1-0.7-0.2-1-0.2c0-0.2-0.1-0.4-0.1-0.6c0.3,0,0.6,0.1,0.8,0.1C378.7,453.2,378.8,453.5,378.9,453.8z M380.9,455.4
			c1.1,0.1,2.3,0.1,3.5-0.2c0,0.9,0,1.9-0.1,2.9c-1.3,0.1-2.5,0.1-3.6,0.1c0.2-0.6,0.3-1.3,0.3-1.9C381,456,381,455.7,380.9,455.4z
			 M382,447.8c-0.8-0.4-1.7-0.6-2.7-0.6c0.6-0.7,1.5-1.2,2.7-1.7c2.1-0.8,4.3-1.1,6.4-1.3c0.5,1.8,0.6,3.8,0.1,5.8
			c-0.4,1.5-1.3,2.6-2.5,3.3C385.4,450.6,384.1,448.7,382,447.8z M373.5,449.6c1.1-0.4,2-0.7,3-0.9c-0.4,1-0.5,1.9-0.5,2.8
			c-1.1,0-2.3,0.1-3.6,0.4C372.7,451.2,373,450.5,373.5,449.6z M372.1,453.4c1.3-0.4,2.8-0.6,4-0.6c0.1,0.8,0.3,1.4,0.3,1.4l0.1,0.3
			l0.4,0.1c0.1,0,1,0.3,2.4,0.6c0.2,0.9,0.2,2-0.2,3c-3.2-0.3-5.4-1.1-6.3-2.4C372.2,455.1,372.1,454.3,372.1,453.4z M378.2,459.4
			c-0.9,0.9-2.2,1.6-4.1,1.9c-2.5,0.4-5,0.3-7.3,0c0.2-1.7,0.7-3.4,1.7-5.1c0.5-0.9,1.2-1.6,2-2.1c0.1,0.8,0.3,1.5,0.8,2.2
			C372.4,458,374.8,459.1,378.2,459.4z M370.6,450.9c0.2-0.1,0.4-0.2,0.6-0.3c-0.3,0.7-0.5,1.3-0.7,1.9c-1.4,0.6-2.7,1.6-3.6,3.1
			c-1,1.7-1.5,3.6-1.8,5.3c-3-0.7-5.4-1.7-6.8-2.4C362.7,456.3,366.8,453.7,370.6,450.9z M389.6,467.9h-54.1
			c7.5-2.2,14.7-5.1,21.3-8.5c1.3,0.7,4.3,2.2,8.2,3c-0.2,3,0.3,5.3,0.4,5.4l1.6-0.2c0,0-0.5-2.1-0.3-4.9c2.4,0.4,5.1,0.5,7.8,0
			c2.7-0.5,4.6-1.5,5.6-3.1c1.3,0.1,2.7,0,4.2-0.1c-0.1,2.5,0.6,4.3,2.4,5.2c1.3,0.6,2.8,0.7,4.4,0.6
			C390.6,466.4,390,467.3,389.6,467.9z M387.5,463.6c-1.2-0.6-1.8-2.1-1.6-4.1c2.6-0.1,4.4,0.3,5.2,1.3c0.7,0.8,0.7,2,0.4,3.1
			C390,464.1,388.6,464.1,387.5,463.6z M397.1,467.9h-5.6c0.4-0.7,1-1.7,1.4-2.9c1.9-0.4,3.5-1,4.2-1.3V467.9z M397.1,463l-0.5-0.7
			c-0.7,0.3-1.9,0.8-3.3,1.1c0.1-0.3,0.1-0.6,0.1-1c0-0.9-0.2-1.8-0.8-2.5c-1.1-1.4-3.4-2-6.5-1.9c0.1-1.2,0.2-2.3,0.1-3.3
			c0,0,0,0,0,0c2-0.8,3.3-2.3,3.9-4.5c0.6-2.2,0.5-4.3,0-6.2c3.4-0.1,6.1,0.3,6.1,0.3l0.3-1.3c-0.2,0-3.1-0.4-6.8-0.3
			c-0.9-2.6-2.4-4.8-3.3-6c4.2-4.7,7.8-9.8,10.7-15.2V463z M397.1,91.9c-2.9-5.4-6.5-10.5-10.7-15.2c1-1.2,2.4-3.3,3.3-6
			c3.7,0.2,6.6-0.2,6.8-0.3l-0.3-1.3c0,0-2.7,0.4-6.1,0.3c0.5-1.9,0.6-4,0-6.2c-0.6-2.2-1.9-3.7-3.9-4.5c0,0,0,0,0,0
			c0.1-1,0-2.1-0.1-3.3c3.2,0.1,5.4-0.5,6.5-1.9c0.6-0.7,0.8-1.6,0.8-2.5c0-0.3,0-0.6-0.1-1c1.4,0.4,2.6,0.8,3.3,1.1l0.5-0.7V91.9z
			 M397.1,49.8c-0.7-0.3-2.3-0.9-4.2-1.3c-0.4-1.2-1-2.2-1.4-2.9h5.6V49.8z"/>
	</g>
	<g>
		<g>
			<polygon class="st0" points="358.3,89.5 325.5,12.6 435.9,11.8 435.9,123.4 			"/>
			<path class="st1" d="M434.4,13.3v107.8l-75-32.8l-31.7-74.3L434.4,13.3 M437.4,10.3l-3,0l-106.7,0.8l-4.5,0l1.8,4.1l31.7,74.3
				l0.5,1.1l1.1,0.5l75,32.8l4.2,1.8v-4.6V13.3V10.3L437.4,10.3z"/>
		</g>
		<g>
			<g>
				<path class="st9" d="M434.8,13.3v26.9v80.9l-75-32.8l-32.8-75h80.9H434.8 M381.9,88.3c9.2,0,18.3-2.7,26.3-7.9
					c13.6-8.9,21.8-23.9,21.8-40.2v-22h-22c-16.3,0-31.3,8.1-40.2,21.8c-8.7,13.4-10.3,30-4.2,44.7
					C369.4,87.1,375.7,88.3,381.9,88.3 M375.6,24.3c3.1-2.4,6.5-4.4,10-6.1h-11c-0.1,1.2-0.5,3-1.8,5.1
					C373.9,23.6,374.9,24,375.6,24.3 M372.4,18.2h-30.1c-0.2,0.4-0.3,0.8-0.4,1.3c1-0.4,2.1-0.7,3.1-0.7c0.6,0,1.2,0.1,1.7,0.3
					c2.1,0.8,3.2,3,3.6,6.7c1.8-0.7,3.3-1,4.7-1c0.8,0,1.5,0.1,2.2,0.3c0.6-1.2,1.6-2.2,3.2-2.9c1-0.4,2.2-0.6,3.6-0.6
					c2.1,0,4.5,0.5,6.7,1.1C371.8,20.7,372.2,19.2,372.4,18.2 M336.6,23.1c0.7-0.6,1.5-1.3,2.6-2c0.2-1,0.5-2,0.8-2.8h-5.5
					L336.6,23.1 M343.8,27.7c1.1,0,2.6-0.3,4.3-1c-0.2-3.1-1-5-2.3-5.6c-0.3-0.1-0.6-0.2-0.9-0.2c-1.1,0-2.5,0.6-3.7,1.4
					c-0.3,2-0.3,3.8,0.6,4.7C342.2,27.5,342.9,27.7,343.8,27.7 M362.3,29.5c1.6-0.5,3.3-1.4,4.8-2.7c0.8-0.8,1.5-1.5,2.1-2.2
					c-1.9-0.5-3.7-0.8-5.3-0.8c-1,0-1.9,0.1-2.6,0.4c-1,0.4-1.6,1-2,1.7c0.7,0.5,1.3,1,1.8,1.5C361.5,28.1,361.9,28.8,362.3,29.5
					 M338.7,24.2c-0.5,0.4-0.9,0.8-1.2,1.1L349,51.5c0.8-0.5,1.9-1.3,3-2.6c-2-3.1-3.9-6.8-3.6-9.7c0.2-1.6,0.8-2.9,1.6-3.8
					c-1-1.4-1.7-3.5-1.8-6.2c-1.7,0.6-3.1,0.9-4.4,0.9c-1.5,0-2.7-0.4-3.6-1.3C339.1,27.5,338.7,25.9,338.7,24.2 M364,35.3
					c0.6-0.3,1.1-0.5,1.6-0.8c2.4-3.2,5.1-6.1,8-8.6c-0.6-0.2-1.3-0.4-2-0.7c-0.8,1-1.7,2.1-2.9,3.2c-1.7,1.6-3.6,2.5-5.4,3.1
					C363.6,32.8,363.9,34.1,364,35.3 M351.7,33.9c1.6-0.9,3.3-1.3,4.5-1.3l0.5,0l-0.2-0.7c-0.3-1.1-0.5-2.9-0.2-4.6
					c-0.5-0.1-0.9-0.2-1.5-0.2c-1.3,0-2.7,0.4-4.3,1.1c-0.1,0-0.1,0.1-0.2,0.1c0,0.1,0,0.1,0,0.2C350.4,30.7,350.9,32.5,351.7,33.9
					 M358.5,30.3c0.4,0,0.9-0.1,1.5-0.2c-0.2-0.4-0.5-0.7-0.8-1.1c-0.2-0.3-0.5-0.5-0.8-0.8C358.4,29.1,358.5,29.8,358.5,30.3
					 M358,36.7c1.3,0,2.6-0.3,3.8-0.6c-0.1-1.3-0.4-2.6-0.8-3.9c-1.9,0.4-3.3,0.4-3.4,0.4l-0.5,0l0.2,0.7
					C357.4,33.5,357.8,34.8,358,36.7 M355.7,36.5c-0.1-0.6-0.2-1.2-0.3-1.6c-0.6,0.1-1.3,0.3-2.1,0.6c0.5,0.3,1.1,0.6,1.7,0.8
					C355.3,36.4,355.5,36.5,355.7,36.5 M353.4,46.8c0.5-0.8,1-1.7,1.5-2.7c0.8-1.8,1.1-3.6,1.1-5.3c-0.5-0.1-1-0.2-1.5-0.3
					c-1-0.3-2-0.8-2.9-1.5c-0.5,0.6-0.8,1.4-0.9,2.4C350.4,41.3,351.7,44.2,353.4,46.8 M357,51.8c1.1-3.9,2.7-7.7,4.7-11.3
					c0.1-0.6,0.2-1.3,0.2-2.1c-1.2,0.3-2.5,0.5-3.7,0.5c0,1.9-0.3,4.1-1.3,6.1c-0.7,1.5-1.4,2.7-2.1,3.8C355.5,50,356.3,51,357,51.8
					 M355,65.1c0.1-3.6,0.5-7.1,1.3-10.6c-0.6-0.7-1.7-2-3-3.8c-1.2,1.4-2.4,2.2-3.4,2.8L355,65.1 M424.7,75.2
					c2.2-1.3,4-1.7,5.2-1.8V62.5c-1.7,3.6-3.7,6.9-6.1,10.1C424.1,73.3,424.4,74.2,424.7,75.2 M416.4,84.8c0.6-1.8,1.6-3.8,3.1-5.4
					c1.1-1.2,2.2-2.2,3.2-2.9c-0.2-0.7-0.4-1.3-0.6-1.9c-2.6,3-5.5,5.8-8.8,8.2c-0.2,0.4-0.4,0.8-0.6,1.3
					C414,84.2,415.2,84.4,416.4,84.8 M428.6,106.1c0.5-0.1,0.9-0.3,1.4-0.5v-30c-1,0.1-2.6,0.5-4.5,1.7c1,3.6,1.6,7.7,0.4,10.3
					c-0.7,1.5-1.7,2.5-2.9,3.2c0.5,1.8,0.4,4-0.7,6.9c3.7,0.4,5.9,1.6,6.7,3.6C429.6,102.9,429.3,104.5,428.6,106.1 M422,88.8
					c0.7-0.4,1.3-1.1,1.7-2c0.8-1.8,0.4-4.9-0.3-8c-0.7,0.6-1.5,1.3-2.2,2.1c-1.3,1.4-2.2,3.2-2.7,4.8c0.7,0.4,1.4,0.8,2,1.3
					C421,87.5,421.6,88.1,422,88.8 M399.2,93.3c1.1-0.7,2.3-1.5,3.8-2.1c2.1-1,4.2-1.3,6.1-1.3c0-1.2,0.2-2.5,0.5-3.7
					c-0.6,0-1.2,0.1-1.7,0.2c-3.7,2.1-7.6,3.7-11.6,4.9C397.1,91.8,398.1,92.6,399.2,93.3 M415.4,90.9l0-0.5c0-0.1,0-1.5,0.4-3.4
					c-1.3-0.4-2.6-0.7-3.9-0.8c-0.3,1.2-0.6,2.5-0.6,3.8c1.9,0.2,3.3,0.6,3.4,0.7L415.4,90.9 M418.9,89.6c0.3,0,0.5,0,0.8,0
					c-0.2-0.3-0.5-0.5-0.8-0.8c-0.3-0.3-0.7-0.5-1.1-0.8c-0.1,0.6-0.2,1.1-0.2,1.5C418.1,89.5,418.5,89.6,418.9,89.6 M419.8,97.6
					c0-0.1,0.1-0.1,0.1-0.2c1-2.2,1.3-4.2,0.9-5.8c-0.6,0.1-1.3,0.2-1.9,0.2c-1,0-2-0.2-2.7-0.4l-0.7-0.2l0,0.5
					c-0.1,1.2-0.4,3-1.3,4.5c1.4,0.9,3.2,1.3,5.5,1.3C419.7,97.6,419.8,97.6,419.8,97.6 M394.5,98.2c0.6-1,1.4-2.2,2.8-3.4
					c-1.7-1.2-3-2.3-3.7-2.9c-3.5,0.8-7,1.2-10.6,1.3L394.5,98.2 M408.3,97.5c0.1,0,0.3,0,0.4,0c1-0.1,1.8-0.5,2.4-0.9
					c-0.7-0.9-1.2-1.9-1.5-2.9c-0.1-0.5-0.3-1-0.3-1.5c-1.7,0-3.5,0.3-5.3,1.1c-1,0.5-1.9,1-2.7,1.5
					C403.7,96.2,406.3,97.5,408.3,97.5 M412.5,94.6c0.4-0.8,0.5-1.5,0.7-2.1c-0.4-0.1-1-0.2-1.6-0.3c0,0.2,0.1,0.5,0.2,0.7
					C411.9,93.6,412.1,94.1,412.5,94.6 M422.7,110.5c0.3-0.3,0.7-0.8,1.1-1.3c-0.1,0-0.1,0-0.2,0c-1.7,0-3.2-0.4-4.3-1.5
					c-1.6-1.6-1.7-4.2-0.4-8c-2.8-0.1-4.8-0.8-6.2-1.8c-1,0.9-2.2,1.5-3.8,1.6c-0.2,0-0.4,0-0.6,0c-2.8,0-6.2-1.8-9.1-3.7
					c-1.3,1.1-2.2,2.2-2.7,3L422.7,110.5 M423.6,107c0.6,0,1.3-0.1,2-0.2c1-1.7,1.7-3.4,1.2-4.7c-0.5-1.3-2.4-2.1-5.6-2.3
					c-1.2,3.1-1.3,5.3-0.3,6.3C421.5,106.8,422.5,107,423.6,107 M429.9,113.7v-5.6c-0.8,0.3-1.8,0.6-2.9,0.8c-0.7,1-1.5,1.9-2.1,2.6
					L429.9,113.7 M436.8,11.3h-2h-26.9H327h-3.1l1.2,2.8l32.8,75l0.3,0.7l0.7,0.3l75,32.8l2.8,1.2v-3.1V40.2V13.3V11.3L436.8,11.3z
					 M365,83.1c-5.5-13.9-3.9-29.5,4.3-42.1c8.5-13.1,22.9-20.8,38.5-20.8h20v20c0,15.6-7.8,30-20.8,38.5
					c-7.5,4.9-16.2,7.5-25.2,7.5C376.1,86.3,370.4,85.2,365,83.1L365,83.1z M376.3,20.2h1.6c-0.7,0.5-1.4,0.9-2.1,1.4
					C376.1,21.1,376.2,20.6,376.3,20.2L376.3,20.2z M369,20.2h0.7c0,0,0,0.1-0.1,0.1C369.4,20.3,369.2,20.2,369,20.2L369,20.2z
					 M350.7,20.2h9.3c-0.2,0.1-0.3,0.1-0.5,0.2c-1.3,0.6-2.4,1.4-3.3,2.5c-0.4-0.1-0.8-0.1-1.3-0.1c-1,0-2,0.1-3.1,0.4
					C351.6,22,351.2,21,350.7,20.2L350.7,20.2z M343,23.6c1.1-0.6,1.7-0.6,1.9-0.6c0.1,0,0.2,0,0.2,0c0,0,0.5,0.4,0.9,2.3
					c-1,0.3-1.7,0.4-2.1,0.4c-0.5,0-0.6-0.1-0.6-0.1C343.1,25.5,342.9,24.9,343,23.6L343,23.6z M362.3,26c0.3-0.1,0.8-0.2,1.6-0.2
					c0.4,0,0.8,0,1.2,0.1c-0.6,0.4-1.2,0.8-2,1.2c-0.2-0.3-0.4-0.6-0.6-0.8C362.4,26.2,362.3,26.1,362.3,26L362.3,26z M352.4,29.5
					c0.6-0.2,1.2-0.4,1.7-0.4c0,0.6,0,1.2,0.1,1.7c-0.5,0.1-1,0.2-1.6,0.4C352.6,30.7,352.5,30.2,352.4,29.5L352.4,29.5z M343.8,32
					c0.8,0,1.7-0.1,2.6-0.3c0.2,1.3,0.6,2.5,1.2,3.5c-0.7,1.1-1.1,2.4-1.2,3.7c0,0.5,0,0.9,0,1.4l-3.7-8.5
					C343,31.9,343.4,32,343.8,32L343.8,32z M353.3,42.5c-0.6-1.3-0.7-2.1-0.8-2.6c0.4,0.2,0.8,0.3,1.3,0.5
					C353.7,41.2,353.5,41.9,353.3,42.5L353.3,42.5z M352.4,54.3c0.2-0.2,0.4-0.3,0.6-0.5c0.4,0.5,0.8,0.9,1.1,1.3
					c-0.2,0.7-0.3,1.4-0.4,2.2L352.4,54.3L352.4,54.3z M426.7,72.1c0.4-0.6,0.9-1.2,1.3-1.9v1.5C427.5,71.8,427.1,71.9,426.7,72.1
					L426.7,72.1z M427.7,78.4c0.1,0,0.2-0.1,0.2-0.1v1.2C427.9,79.1,427.8,78.8,427.7,78.4L427.7,78.4z M421,84.9
					c0.3-0.7,0.7-1.4,1.2-2c0.2,1.5,0,2.4-0.1,2.8c-0.1-0.1-0.2-0.1-0.2-0.2C421.5,85.3,421.2,85.1,421,84.9L421,84.9z M425.2,91.8
					c1.1-0.9,1.9-1.9,2.5-3.3c0.1-0.2,0.2-0.5,0.3-0.8v9.6c-0.9-0.5-1.9-0.9-3.1-1.2C425.2,94.6,425.3,93.2,425.2,91.8L425.2,91.8z
					 M416.8,95.3c0.2-0.6,0.3-1.1,0.4-1.6c0.5,0.1,1.1,0.1,1.7,0.1c0,0,0,0,0,0c-0.1,0.5-0.2,1.1-0.4,1.7
					C417.9,95.5,417.3,95.4,416.8,95.3L416.8,95.3z M390.9,94.4c0.7-0.1,1.5-0.3,2.2-0.4c0.3,0.3,0.7,0.6,1.2,1
					c-0.2,0.2-0.4,0.5-0.5,0.7L390.9,94.4L390.9,94.4z M405.5,94.7c0.7-0.2,1.4-0.4,2.1-0.5c0.1,0.4,0.3,0.9,0.5,1.3
					C407.6,95.4,406.8,95.3,405.5,94.7L405.5,94.7z M408.3,101.7c0.3,0,0.5,0,0.8,0c1.4-0.1,2.6-0.6,3.7-1.2
					c1.1,0.5,2.2,0.9,3.6,1.2c-0.3,1.4-0.4,2.7-0.2,3.9l-8.6-3.8C407.8,101.7,408,101.7,408.3,101.7L408.3,101.7z M422.4,104.8
					c0,0-0.3-0.7,0.3-2.7c1.9,0.3,2.3,0.9,2.3,0.9c0.1,0.1,0,0.8-0.6,2.1c-0.3,0-0.5,0-0.7,0C422.7,105,422.4,104.8,422.4,104.8
					C422.4,104.8,422.4,104.8,422.4,104.8L422.4,104.8z"/>
			</g>
			<path class="st10" d="M327,13.3l32.8,75l75,32.8V40.2V13.3h-26.9H327z M334.4,18.2h5.5c-0.3,0.8-0.6,1.8-0.8,2.8
				c-1,0.7-1.9,1.4-2.6,2L334.4,18.2z M396.5,99.1c0.5-0.8,1.3-1.9,2.7-3c3.1,2,6.8,3.9,9.7,3.6c1.6-0.2,2.9-0.8,3.8-1.6
				c1.4,1,3.5,1.7,6.2,1.8c-1.3,3.8-1.1,6.4,0.4,8c1.1,1.1,2.6,1.5,4.3,1.5c0.1,0,0.1,0,0.2,0c-0.4,0.5-0.8,0.9-1.1,1.3L396.5,99.1z
				 M429.9,105.7c-0.4,0.2-0.9,0.3-1.4,0.5c0.7-1.6,1-3.3,0.4-4.8c-0.8-2.1-3-3.2-6.7-3.6c1.2-2.9,1.2-5.1,0.7-6.9
				c1.2-0.6,2.2-1.6,2.9-3.2c1.2-2.6,0.5-6.7-0.4-10.3c2-1.2,3.5-1.6,4.5-1.7V105.7z M422.2,74.6c0.2,0.6,0.4,1.2,0.6,1.9
				c-1,0.8-2.1,1.7-3.2,2.9c-1.6,1.7-2.5,3.6-3.1,5.4c-1.2-0.4-2.5-0.7-3.7-0.8c0.2-0.5,0.4-0.9,0.6-1.3
				C416.6,80.4,419.6,77.6,422.2,74.6z M419.6,97.6c-2.3,0-4.1-0.5-5.5-1.3c0.9-1.6,1.3-3.3,1.3-4.5l0-0.5l0.7,0.2
				c0.7,0.2,1.6,0.4,2.7,0.4c0.6,0,1.3-0.1,1.9-0.2c0.4,1.6,0.1,3.5-0.9,5.8c0,0.1-0.1,0.1-0.1,0.2
				C419.8,97.6,419.7,97.6,419.6,97.6z M411.9,86.2c1.3,0.1,2.6,0.4,3.9,0.8c-0.4,1.9-0.4,3.3-0.4,3.4l0,0.5l-0.7-0.2
				c-0.1,0-1.5-0.5-3.4-0.7C411.3,88.7,411.6,87.4,411.9,86.2z M417.9,88c0.4,0.2,0.7,0.5,1.1,0.8c0.3,0.2,0.5,0.5,0.8,0.8
				c-0.8,0.1-1.5,0-2,0C417.7,89.1,417.8,88.6,417.9,88z M412.5,94.6c-0.3-0.5-0.6-1.1-0.8-1.7c-0.1-0.2-0.1-0.5-0.2-0.7
				c0.6,0.1,1.2,0.2,1.6,0.3C413,93.1,412.8,93.9,412.5,94.6z M411,96.5c-0.6,0.5-1.4,0.8-2.4,0.9c-2,0.2-4.8-1.1-7.5-2.8
				c0.8-0.5,1.7-1,2.7-1.5c1.8-0.8,3.6-1.1,5.3-1.1c0.1,0.5,0.2,1,0.3,1.5C409.8,94.6,410.3,95.6,411,96.5z M399.2,93.3
				c-1.1-0.7-2-1.5-2.9-2.1c4-1.1,7.9-2.8,11.6-4.9c0.5-0.1,1.1-0.1,1.7-0.2c-0.3,1.2-0.5,2.5-0.5,3.7c-1.9,0-4.1,0.3-6.1,1.3
				C401.5,91.8,400.2,92.6,399.2,93.3z M423.4,78.8c0.8,3.1,1.1,6.2,0.3,8c-0.4,1-1,1.6-1.7,2c-0.5-0.7-1-1.3-1.5-1.8
				c-0.6-0.5-1.3-1-2-1.3c0.5-1.6,1.4-3.3,2.7-4.8C422,80.1,422.7,79.4,423.4,78.8z M425.6,106.9c-2,0.3-3.8,0.3-4.7-0.6
				c-1-1-0.8-3.2,0.3-6.3c3.1,0.2,5,1,5.6,2.3C427.4,103.4,426.7,105.2,425.6,106.9z M394.5,98.2l-11.5-5c3.6-0.1,7.1-0.5,10.6-1.3
				c0.7,0.6,2,1.7,3.7,2.9C395.9,96,395,97.2,394.5,98.2z M341.2,22.4c1.7-1,3.4-1.7,4.7-1.2c1.3,0.5,2.1,2.4,2.3,5.6
				c-3.1,1.2-5.3,1.3-6.3,0.3C340.9,26.2,340.8,24.4,341.2,22.4z M358,36.7c-0.2-1.9-0.6-3.3-0.7-3.4l-0.2-0.7l0.5,0
				c0.1,0,1.5,0,3.4-0.4c0.4,1.3,0.7,2.6,0.8,3.9C360.6,36.5,359.3,36.7,358,36.7z M361,27.6c-0.5-0.5-1.1-1.1-1.8-1.5
				c0.4-0.7,1.1-1.3,2-1.7c1.8-0.8,4.9-0.4,8,0.3c-0.6,0.7-1.3,1.5-2.1,2.2c-1.4,1.3-3.2,2.2-4.8,2.7
				C361.9,28.8,361.5,28.1,361,27.6z M360,30.1c-0.6,0.1-1.1,0.2-1.5,0.2c-0.1-0.5-0.1-1.3,0-2c0.3,0.2,0.5,0.5,0.8,0.8
				C359.5,29.4,359.8,29.7,360,30.1z M354.8,44.1c-0.5,1-1,1.9-1.5,2.7c-1.7-2.7-3-5.5-2.8-7.5c0.1-1,0.5-1.8,0.9-2.4
				c0.9,0.7,1.9,1.2,2.9,1.5c0.5,0.1,1,0.3,1.5,0.3C355.9,40.5,355.6,42.4,354.8,44.1z M355.1,36.3c-0.6-0.2-1.2-0.5-1.7-0.8
				c0.8-0.4,1.5-0.5,2.1-0.6c0.1,0.4,0.2,1,0.3,1.6C355.5,36.5,355.3,36.4,355.1,36.3z M350.4,28.2c0.1,0,0.1-0.1,0.2-0.1
				c2.2-1,4.2-1.3,5.8-0.9c-0.4,1.7-0.2,3.5,0.2,4.6l0.2,0.7l-0.5,0c-1.2,0.1-3,0.4-4.5,1.3c-0.9-1.4-1.3-3.2-1.3-5.5
				C350.4,28.3,350.4,28.3,350.4,28.2z M341.9,19.5c0.1-0.4,0.3-0.9,0.4-1.3h30.1c-0.1,1-0.5,2.6-1.7,4.5c-3.6-1-7.7-1.6-10.3-0.4
				c-1.5,0.7-2.5,1.7-3.2,2.9c-1.8-0.5-4-0.4-6.9,0.7c-0.4-3.7-1.6-5.9-3.6-6.7C345.2,18.5,343.5,18.8,341.9,19.5z M371.6,25.3
				c0.7,0.2,1.4,0.4,2,0.7c-3,2.5-5.7,5.4-8,8.6c-0.4,0.3-1,0.6-1.6,0.8c-0.1-1.2-0.4-2.5-0.8-3.7c1.8-0.6,3.8-1.6,5.4-3.1
				C369.8,27.4,370.8,26.3,371.6,25.3z M357,51.8c-0.7-0.8-1.5-1.9-2.2-3c0.7-1.1,1.5-2.3,2.1-3.8c1-2.1,1.3-4.2,1.3-6.1
				c1.2,0,2.5-0.2,3.7-0.5c0,0.8-0.1,1.5-0.2,2.1C359.6,44.1,358.1,47.9,357,51.8z M355,65.1l-5.1-11.6c1-0.6,2.2-1.4,3.4-2.8
				c1.3,1.7,2.4,3.1,3,3.8C355.5,58,355,61.6,355,65.1z M349,51.5l-11.5-26.2c0.3-0.3,0.8-0.7,1.2-1.1c0,1.7,0.3,3.4,1.4,4.5
				c1.6,1.6,4.2,1.7,8,0.4c0.1,2.8,0.8,4.8,1.8,6.2c-0.9,1-1.5,2.2-1.6,3.8c-0.3,2.8,1.6,6.6,3.6,9.7
				C350.9,50.1,349.8,50.9,349,51.5z M385.7,18.2c-3.6,1.6-6.9,3.7-10,6.1c-0.8-0.3-1.7-0.6-2.8-1c1.2-2.1,1.6-3.9,1.8-5.1H385.7z
				 M429.9,40.2c0,16.3-8.1,31.3-21.8,40.2c-13.4,8.7-30,10.3-44.7,4.2c-6.1-14.7-4.5-31.3,4.2-44.7c8.9-13.6,23.9-21.8,40.2-21.8
				h22V40.2z M429.9,62.5v10.9c-1.2,0.1-3,0.5-5.2,1.8c-0.3-1-0.6-1.9-0.9-2.6C426.2,69.4,428.3,66,429.9,62.5z M429.9,113.7l-5-2.2
				c0.6-0.7,1.4-1.6,2.1-2.6c1.1-0.2,2.1-0.5,2.9-0.8V113.7z"/>
			<path class="st11" d="M434.1,120l-73.7-32.2l-32.2-73.7h105.9V120z M430.7,107l-1,0.3c-1,0.3-1.9,0.6-2.8,0.8l-0.3,0.1l-0.2,0.2
				c-0.7,1.1-1.5,2-2,2.5l-0.7,0.8l7,3.1V107z M425.5,108.5l-1.6,0l-0.2,0c-1.7,0-3-0.4-3.8-1.2c-1.4-1.4-1.5-3.7-0.3-7.2l0.3-1
				l-1,0c-2.4-0.1-4.4-0.7-5.8-1.7l-0.5-0.3l-0.4,0.4c-0.9,0.8-2.1,1.3-3.4,1.5c-0.2,0-0.3,0-0.5,0c-2.1,0-5.1-1.2-8.7-3.5l-0.5-0.3
				l-0.4,0.4c-1.2,1-2.2,2.1-2.8,3.2l-0.4,0.7l27.5,12l0.4-0.4c0.4-0.4,0.8-0.8,1.1-1.3L425.5,108.5z M420.8,99.1l-0.2,0.5
				c-1.3,3.5-1.4,5.9-0.2,7.1c0.7,0.7,1.7,1,3.2,1c0.6,0,1.3-0.1,2.1-0.2l0.3-0.1l0.2-0.3c1.4-2.2,1.8-4,1.3-5.3
				c-0.6-1.6-2.7-2.5-6.2-2.7L420.8,99.1z M430.7,74.8l-0.8,0.1c-1.1,0.1-2.8,0.5-4.9,1.9l-0.5,0.3l0.1,0.5c1.2,4.4,1.3,7.8,0.5,9.8
				c-0.6,1.2-1.4,2.2-2.5,2.8l-0.5,0.3l0.2,0.6c0.5,1.8,0.3,4-0.7,6.4l-0.4,0.9l1,0.1c3.4,0.3,5.4,1.4,6.1,3.1
				c0.5,1.1,0.3,2.5-0.4,4.2l-0.6,1.5l1.6-0.5c0.5-0.2,1-0.3,1.4-0.5l0.5-0.2V74.8z M393.8,91l-0.4,0.1c-3.4,0.8-6.9,1.2-10.5,1.3
				l-0.3,1.4l12.1,5.3l0.3-0.6c0.6-1.1,1.5-2.2,2.7-3.2l0.7-0.6l-0.8-0.5c-1.7-1.2-3-2.3-3.6-2.9L393.8,91z M421.4,90.8l-0.7,0.1
				c-0.6,0.1-1.2,0.2-1.8,0.2c-0.9,0-1.7-0.1-2.5-0.3l-0.3-0.1l0-0.3c0-0.1,0-1.4,0.4-3.2l0.1-0.6l-0.6-0.2
				c-1.2-0.4-2.6-0.7-4.1-0.8l-0.6-0.1l-0.2,0.6c-0.4,1.4-0.6,2.7-0.6,4l0,0.7l0.7,0.1c1.9,0.2,3.2,0.6,3.2,0.6l0.3,0.1l0,0.3
				c0,0.5-0.2,2.4-1.2,4.2l-0.4,0.6l0.6,0.4c1.5,1,3.5,1.5,5.9,1.5l0.7,0l0.2-0.5l0.1-0.2c1.1-2.4,1.4-4.5,0.9-6.3L421.4,90.8z
				 M409.8,91.4l-0.6,0c-2.1,0-4,0.4-5.6,1.1c-1,0.5-1.9,1-2.8,1.5l-1,0.6l1,0.6c3.1,2,5.6,2.9,7.5,2.9c0.2,0,0.3,0,0.5,0
				c1.1-0.1,2-0.5,2.8-1.1l0.6-0.5l-0.5-0.6c-0.6-0.8-1.1-1.6-1.4-2.6c-0.1-0.4-0.2-0.9-0.3-1.4L409.8,91.4z M410.6,91.4l0.2,1
				c0.1,0.3,0.1,0.5,0.2,0.8c0.2,0.7,0.5,1.3,0.9,1.9l0.7,1.1l0.6-1.2c0.4-0.9,0.6-1.7,0.7-2.3L414,92l-0.7-0.2
				c-0.5-0.1-1.1-0.2-1.7-0.3L410.6,91.4z M410.6,85.4l-1,0c-0.6,0-1.2,0.1-1.8,0.2l-0.1,0l-0.1,0.1c-3.6,2-7.5,3.7-11.4,4.8
				l-1.4,0.4l1.1,0.9c1,0.8,1.9,1.5,2.9,2.2l0.4,0.3l0.4-0.3c1.1-0.8,2.3-1.4,3.7-2.1c1.7-0.8,3.7-1.2,5.8-1.2l0.7,0l0-0.7
				c0-1.1,0.2-2.3,0.5-3.6L410.6,85.4z M417.4,86.8l-0.2,1.1c-0.1,0.7-0.2,1.2-0.2,1.6l-0.1,0.7l0.7,0.1c0.4,0.1,0.9,0.1,1.3,0.1
				c0.3,0,0.6,0,0.9,0l1.4-0.1l-0.9-1.1c-0.2-0.3-0.5-0.6-0.8-0.9c-0.3-0.3-0.7-0.6-1.2-0.9L417.4,86.8z M423.9,77.5l-0.9,0.8
				c-0.8,0.6-1.5,1.4-2.3,2.2c-1.2,1.3-2.2,3-2.9,5.1l-0.2,0.6l0.6,0.3c0.7,0.4,1.3,0.8,1.8,1.2c0.6,0.5,1,1,1.4,1.6l0.4,0.6
				l0.6-0.4c0.9-0.5,1.6-1.3,2-2.4c0.8-1.7,0.7-4.6-0.3-8.5L423.9,77.5z M430.7,17.4h-22.8c-16.5,0-31.8,8.3-40.8,22.1
				c-8.8,13.5-10.4,30.5-4.3,45.4l0.1,0.3l0.3,0.1c6,2.5,12.3,3.7,18.7,3.7c9.5,0,18.7-2.8,26.7-8c13.8-9,22.1-24.3,22.1-40.8V17.4z
				 M422.4,73.1l-0.9,1c-2.6,3-5.5,5.7-8.7,8.1l-0.1,0.1l-0.1,0.1c-0.2,0.4-0.5,0.9-0.7,1.3l-0.4,0.9l1,0.1c1.3,0.1,2.5,0.4,3.5,0.8
				l0.7,0.2l0.2-0.7c0.7-2,1.7-3.8,3-5.2c1-1.1,2.1-2.1,3.1-2.9l0.4-0.3l-0.2-0.5c-0.2-0.6-0.4-1.2-0.6-1.9L422.4,73.1z M429.3,62.1
				c-1.6,3.5-3.7,6.9-6,9.9l-0.3,0.3l0.1,0.4c0.3,0.9,0.6,1.7,0.9,2.6l0.3,0.9l0.8-0.5c2.1-1.2,3.8-1.6,4.9-1.7l0.7-0.1V62.5
				L429.3,62.1z M353.3,49.5l-0.6,0.7c-1,1.1-2.1,2-3.2,2.6l-0.6,0.3l5.3,12.2l1.4-0.3c0.1-3.5,0.5-7,1.3-10.4l0.1-0.4l-0.2-0.3
				c-0.6-0.7-1.7-2-3-3.7L353.3,49.5z M362.7,37.5l-1,0.2c-1.2,0.3-2.4,0.5-3.6,0.5l-0.7,0l0,0.7c0,2.2-0.4,4.1-1.2,5.8
				c-0.6,1.4-1.3,2.6-2.1,3.7l-0.3,0.4l0.3,0.4c0.7,1,1.5,2,2.3,3l0.9,1.1l0.4-1.4c1.1-3.9,2.7-7.6,4.6-11.2l0.1-0.1l0-0.1
				c0.1-0.7,0.2-1.4,0.2-2.2L362.7,37.5z M348.9,28l-1,0.3c-1.6,0.6-3,0.8-4.1,0.8c-1.3,0-2.3-0.4-3.1-1.1c-0.8-0.8-1.3-2.2-1.2-3.9
				l0-1.6l-1.3,1c-0.4,0.4-0.9,0.7-1.2,1.1l-0.4,0.4l12,27.5l0.7-0.4c1.1-0.7,2.2-1.6,3.1-2.8l0.4-0.4l-0.3-0.5
				c-2.5-3.8-3.7-7-3.5-9.2c0.1-1.3,0.6-2.5,1.5-3.4l0.4-0.4l-0.3-0.5c-1-1.5-1.6-3.4-1.7-5.8L348.9,28z M351.4,35.9l-0.5,0.6
				c-0.6,0.8-1,1.7-1.1,2.8c-0.2,1.9,0.8,4.5,2.9,7.9l0.6,1l0.6-1c0.5-0.9,1-1.8,1.5-2.8c0.8-1.6,1.1-3.5,1.1-5.6l0-0.6l-0.6-0.1
				c-0.5-0.1-1-0.2-1.4-0.3c-1-0.3-1.9-0.8-2.6-1.4L351.4,35.9z M361.5,31.3l-0.6,0.1c-1.8,0.4-3.2,0.4-3.2,0.4l-0.3,0l-0.1-0.3
				c-0.1-0.5-0.6-2.2-0.2-4.2l0.1-0.7l-0.7-0.2c-0.5-0.1-1.1-0.2-1.6-0.2c-1.4,0-2.9,0.4-4.6,1.1l-0.7,0.3l0,0.7
				c0,2.4,0.5,4.4,1.5,5.9l0.4,0.6l0.6-0.4c1.8-1.1,3.6-1.2,4.2-1.2l0.3,0l0.1,0.3c0,0.1,0.4,1.3,0.6,3.2l0.1,0.7l0.7,0
				c1.3,0,2.6-0.2,4-0.6l0.6-0.2l-0.1-0.6c-0.1-1.5-0.4-2.8-0.8-4.1L361.5,31.3z M356,34.1l-0.7,0.1c-0.6,0.1-1.4,0.3-2.3,0.7
				l-1.2,0.6l1.1,0.7c0.6,0.4,1.2,0.7,1.9,0.9c0.2,0.1,0.5,0.1,0.8,0.2l1,0.2l-0.1-1c-0.1-0.6-0.2-1.1-0.3-1.7L356,34.1z
				 M371.3,24.4l-0.3,0.4c-0.8,1.1-1.8,2.1-2.9,3.1c-1.4,1.3-3.1,2.3-5.2,3l-0.7,0.2l0.2,0.7c0.4,1.1,0.6,2.3,0.8,3.5l0.1,1l0.9-0.4
				c0.6-0.3,1.2-0.6,1.6-0.9l0.1-0.1l0.1-0.1c2.3-3.1,5-5.9,7.9-8.5l1-0.9l-1.2-0.4c-0.7-0.3-1.4-0.5-2.1-0.7L371.3,24.4z
				 M357.9,26.8l-0.1,1.4c-0.1,0.9,0,1.7,0,2.2l0.1,0.7l0.7-0.1c0.3,0,0.9-0.1,1.6-0.2l1.1-0.2l-0.6-0.9c-0.3-0.4-0.6-0.8-0.9-1.2
				c-0.3-0.3-0.6-0.6-0.9-0.8L357.9,26.8z M360.9,23.6c-1,0.4-1.8,1.1-2.4,2l-0.4,0.6l0.6,0.4c0.6,0.4,1.1,0.8,1.6,1.4
				c0.5,0.5,0.9,1.1,1.2,1.8l0.3,0.6l0.6-0.2c2-0.7,3.7-1.6,5.1-2.9c0.8-0.8,1.5-1.5,2.2-2.3l0.8-0.9l-1.2-0.3
				c-2.2-0.5-4-0.8-5.5-0.8C362.7,23.1,361.7,23.2,360.9,23.6z M340.8,21.8l-0.3,0.2l-0.1,0.3c-0.4,2.6-0.1,4.3,0.8,5.3
				c0.6,0.6,1.4,0.9,2.6,0.9c1.2,0,2.7-0.3,4.6-1l0.5-0.2l0-0.6c-0.2-3.5-1.2-5.6-2.7-6.2c-0.4-0.1-0.8-0.2-1.2-0.2
				C343.8,20.2,342.4,20.7,340.8,21.8z M356.9,25.8l0.6,0.2l0.3-0.5c0.6-1.1,1.6-2,2.8-2.5c0.8-0.4,2-0.6,3.3-0.6c1.8,0,4,0.3,6.5,1
				l0.5,0.1l0.3-0.5c1.3-2,1.7-3.7,1.8-4.8l0.1-0.8h-31.4l-0.2,0.5c-0.2,0.4-0.3,0.9-0.5,1.3l-0.5,1.6l1.5-0.6
				c1-0.4,1.9-0.7,2.8-0.7c0.5,0,1,0.1,1.4,0.3c1.8,0.7,2.8,2.7,3.1,6.1l0.1,1l0.9-0.4c1.6-0.6,3.1-1,4.4-1
				C355.6,25.5,356.3,25.6,356.9,25.8z M385.7,17.4H374l-0.1,0.7c-0.1,1.1-0.5,2.7-1.7,4.8l-0.5,0.8l0.9,0.3c0.9,0.3,1.8,0.6,2.7,1
				l0.4,0.1l0.3-0.3c3.1-2.4,6.4-4.4,9.9-6L385.7,17.4z M341,17.4h-7.7l3,6.9l0.8-0.7c0.8-0.7,1.7-1.4,2.5-2l0.2-0.2l0.1-0.3
				c0.2-0.9,0.5-1.8,0.8-2.8L341,17.4z"/>
			<path class="st12" d="M433.7,119.4l-73-31.9l-31.9-73h105V119.4z M431.1,106.5l-1.1,0.4c0.1,0,0.2-0.1,0.3-0.1L431.1,106.5v-44
				l-2.1-0.5c-1.6,3.5-3.6,6.8-6,9.9l-0.4,0.5l0,0l-1.3,1.5c-2.5,3-5.4,5.7-8.6,8l-0.2,0.1l-0.1,0.2c-0.2,0.4-0.5,0.9-0.7,1.4
				l-0.6,1.4l1.5,0.2c1.2,0.1,2.4,0.4,3.5,0.8l1,0.4l0,0l-0.9-0.3c-1.3-0.4-2.7-0.7-4.2-0.9l-0.9-0.1l-0.3,0.9
				c0,0.1-0.1,0.2-0.1,0.4l0.3-1.3l-1.5,0.1c-0.7,0-1.3,0.1-1.8,0.2l-0.2,0l-0.2,0.1c-3.6,2-7.4,3.6-11.4,4.7l-2,0.6l0,0l-0.6,0.1
				c-3.4,0.8-6.9,1.2-10.4,1.3l-0.4,2.2l40.5,17.7l0.5-0.6c0.4-0.4,0.8-0.8,1.2-1.3l0.6-0.7c-0.5,0.6-0.9,1.1-1.2,1.4l-1.1,1.2
				l8,3.5V106.5z M431.1,17.1h-23.2c-16.7,0-32,8.3-41.2,22.3c-8.9,13.6-10.5,30.7-4.3,45.7l0.2,0.4l0.4,0.2
				c6,2.5,12.4,3.8,18.8,3.8c9.6,0,18.9-2.8,26.9-8c13.9-9.1,22.3-24.5,22.3-41.2V17.1z M357.5,54.2l0.6-2c1.1-3.8,2.6-7.6,4.6-11.1
				l0.1-0.2l0-0.2c0.1-0.7,0.2-1.4,0.2-2.3l0.1-1.5l1.4-0.6c0.6-0.3,1.2-0.6,1.7-0.9l0.2-0.1l0.1-0.2c2.3-3.1,5-5.9,7.9-8.4l1.5-1.3
				l0,0l0.5-0.4c3-2.3,6.3-4.3,9.8-5.9l-0.5-2.1h-44.1l-0.3,0.7c0,0.1-0.1,0.2-0.1,0.4l0.4-1.1h-8.8l3.4,7.9l1.2-1
				c0.5-0.4,0.9-0.8,1.4-1.2l-0.7,0.6c-0.4,0.4-0.9,0.8-1.3,1.1l-0.6,0.5l12.3,28.1l5.5,12.5l2.2-0.4c0.1-3.5,0.5-6.9,1.3-10.4
				L357.5,54.2L357.5,54.2z M424.2,108.2c0.5,0,1-0.1,1.6-0.2l0.5-0.1l0.3-0.4c0.4-0.6,0.7-1.2,1-1.8c0,0-0.9,2.2-0.9,2.2l-0.3,0.1
				l-0.2,0.2L424.2,108.2z M420,100.2l0.5-1.4l-1.4-0.1c0.2,0,0.3,0,0.5,0l0.9,0l-0.3,0.8c-1.4,3.6-1.4,6.1-0.1,7.4
				C418.9,105.7,418.9,103.5,420,100.2z M422.3,98.9c3.1,0.3,4.9,1.3,5.6,2.8C427.2,100.2,425.4,99.2,422.3,98.9z M422,98.9
				c-0.2,0-0.4,0-0.7-0.1l-0.8-0.1l0.3-0.7l0.1-0.2c0.1-0.1,0.1-0.3,0.2-0.4l-0.5,1.3L422,98.9z M413.3,97.1l-0.5-0.3l0.6,0.4
				c1.3,0.9,3,1.4,5,1.5C416.4,98.6,414.7,98,413.3,97.1z M395.5,98.7c0.6-1.1,1.5-2.1,2.6-3.1l1-0.9l0,0l0,0l-0.6,0.5
				c-1.2,1-2.2,2.1-2.9,3.3L395.5,98.7z M411.4,97.6c-0.7,0.5-1.6,0.9-2.6,1C409.8,98.5,410.7,98.1,411.4,97.6z M399.8,95.1
				l-0.3-0.2l1.1,0.7c1.4,0.9,2.6,1.5,3.7,2C403,97,401.5,96.2,399.8,95.1z M421.9,91.4l-0.2-0.7l0.1,0.5c0.5,1.7,0.3,3.6-0.6,5.8
				C422.1,94.9,422.3,93,421.9,91.4z M411.7,95.6c-0.5-0.6-0.8-1.4-1.1-2.2c0.2,0.7,0.5,1.3,0.9,1.9L411.7,95.6z M399.1,94.7
				l-1.1-0.8c-1.1-0.8-2.1-1.6-2.8-2.2l0.5,0.4c1,0.8,1.9,1.5,2.9,2.2L399.1,94.7L399.1,94.7z M414.2,92.8l0.1-0.3
				c-0.1,0.6-0.2,1.3-0.6,2.2C414,93.9,414.1,93.2,414.2,92.8z M400.4,93.8c0.9-0.6,1.9-1.1,3-1.7c1.7-0.8,3.6-1.2,5.7-1.2l1,0l0,0
				l-0.9,0c-2.1,0-4.1,0.4-5.8,1.2c-1,0.5-2,1-2.8,1.5L400.4,93.8z M410.4,92.5L410.4,92.5c0.1,0.3,0.1,0.5,0.2,0.8
				C410.5,93,410.4,92.7,410.4,92.5z M413.4,91.5c-0.5-0.1-1.1-0.2-1.7-0.3l-0.3,0c0.9,0.1,1.7,0.3,2.3,0.4L413.4,91.5z M417.2,90.6
				l0.4,0.1c0.5,0.1,0.9,0.1,1.4,0.1c0.2,0,0.4,0,0.6,0c-0.2,0-0.5,0-0.7,0C418.2,90.7,417.6,90.6,417.2,90.6z M416.6,89.7
				c0-0.6,0.1-1.4,0.4-2.4l0,0l-0.1,0.6c-0.1,0.7-0.2,1.2-0.2,1.6L416.6,89.7z M424.8,87.3c0-0.1,0.1-0.1,0.1-0.2
				C424.8,87.1,424.8,87.2,424.8,87.3c-0.4,0.8-0.9,1.5-1.5,2.1C423.9,88.8,424.4,88.1,424.8,87.3z M420.6,88.8
				c-0.3-0.3-0.6-0.6-0.9-0.9c-0.2-0.2-0.4-0.3-0.6-0.5c0.2,0.1,0.4,0.3,0.6,0.5c0.4,0.3,0.7,0.7,1,1.1L420.6,88.8z M417.2,86.2
				L417.2,86.2l0.3-1c0.6-1.8,1.4-3.3,2.5-4.6c-1.1,1.3-2,2.9-2.6,4.8L417.2,86.2z M424.5,78.6l-0.3-1.3l0.1,0.4c0.6,2.3,1,4.4,1,6
				C425.3,82.3,425,80.5,424.5,78.6z M422.9,77.8l-0.2,0.2c-0.6,0.5-1.2,1.1-1.9,1.7C421.5,79,422.2,78.4,422.9,77.8z M424.1,76.9
				L424.1,76.9L424.1,76.9l1.2-0.7c2-1.2,3.7-1.5,4.7-1.6l-0.2,0c-1.1,0.1-2.9,0.6-5,1.9L424.1,76.9z M424.1,76.8l-0.2-0.7
				c-0.2-0.6-0.4-1.2-0.6-1.9l-0.3-0.9c0.3,0.7,0.5,1.5,0.7,2.2L424.1,76.8L424.1,76.8z M356.4,53c-0.6-0.7-1.4-1.7-2.2-2.9
				l-0.8-1.1l0,0l0.4,0.6c0.7,1,1.5,2,2.3,3L356.4,53z M349.6,52.4c1.1-0.7,2.2-1.7,3.2-2.9l0.5-0.6l0,0l0,0l-0.9,1
				C351.5,51,350.5,51.9,349.6,52.4L349.6,52.4z M353.1,48.5l-0.2-0.3c-1.3-2-2.3-3.9-2.9-5.5c0.5,1.4,1.3,3,2.4,4.7L353.1,48.5z
				 M354.3,47.4c0.5-0.8,1-1.7,1.5-2.7c-0.5,1-1,2-1.6,2.9L354.3,47.4z M355.8,44.7 M355.8,44.7 M355.8,44.7 M355.8,44.6
				 M355.8,44.6 M357,38.8l0-0.9l0,0l0,1c0,2.1-0.4,4-1.2,5.6C356.6,42.9,357,41,357,38.8z M349.4,39.3c0.1-1,0.4-1.9,1-2.7
				C349.9,37.4,349.5,38.3,349.4,39.3c0,0.1,0,0.2,0,0.2C349.4,39.4,349.4,39.3,349.4,39.3z M352.5,36.3l0.3,0.2
				c0.6,0.4,1.2,0.7,1.9,0.9C353.9,37.1,353.1,36.8,352.5,36.3z M361.9,37.3c0.1,0,1.1-0.3,1.1-0.3l-0.1-0.9
				c-0.1-1.5-0.4-2.9-0.9-4.2l-0.3-0.9l0,0l0.4,1c0.4,1.1,0.6,2.2,0.8,3.5l0.2,1.5L361.9,37.3z M356.9,36.9l-0.1-0.6
				c-0.1-0.6-0.2-1.2-0.3-1.7l-0.1-0.3C356.6,34.9,356.8,35.8,356.9,36.9L356.9,36.9z M351.2,35.1l-0.3-0.5
				c-0.9-1.3-1.5-3.1-1.6-5.2c0.1,2,0.6,3.7,1.5,5L351.2,35.1z M355.6,33.7l-0.4,0.1c-0.5,0.1-1.1,0.2-1.8,0.5
				C354.3,34,355.1,33.8,355.6,33.7z M358.6,31.4c0.4,0,0.9-0.1,1.6-0.2l0.6-0.1l0,0c-1,0.2-1.9,0.3-2.4,0.4L358.6,31.4z
				 M361.8,30.9L361.8,30.9l0.8-0.3c1.9-0.6,3.5-1.5,4.8-2.6c-1.3,1.1-2.8,1.9-4.6,2.5L361.8,30.9z M357.5,30.8
				c-0.1-0.6-0.2-1.5-0.1-2.5c-0.1,0.9,0,1.6,0.1,2.1L357.5,30.8z M360.1,28.3c-0.3-0.3-0.6-0.6-0.9-0.9l-0.2-0.1
				C359.4,27.6,359.8,27.9,360.1,28.3c0.2,0.2,0.3,0.4,0.5,0.6C360.4,28.7,360.3,28.5,360.1,28.3z M349.2,27.5l-1.4,0.5
				c-1.6,0.5-2.9,0.8-4,0.8c-1.2,0-2.1-0.3-2.8-1c0,0,0,0,0,0c0,0,0,0,0,0c0.7,0.7,1.6,1,2.8,1c1.3,0,2.8-0.4,4.7-1.1L349.2,27.5
				l0,0.7l0,0.2c0,0.2,0,0.3,0,0.5L349.2,27.5z M349.3,27.5l-0.1-0.8c0-0.2,0-0.4-0.1-0.7L349.3,27.5l1.3-0.6
				c-0.1,0.1-0.3,0.1-0.4,0.2L349.3,27.5z M370.1,25.3l0.2-0.2c-0.6,0.7-1.2,1.4-1.9,2C369,26.6,369.6,25.9,370.1,25.3z M355,25.9
				c0.7,0,1.3,0.1,1.9,0.2l0.5,0.1l-0.7-0.2C356.1,26,355.5,25.9,355,25.9c-1.2,0-2.5,0.3-3.9,0.8C352.5,26.2,353.8,25.9,355,25.9z
				 M346.3,20.1c1.6,0.7,2.5,2.5,2.8,5.6C348.8,22.7,347.9,20.8,346.3,20.1z M360.8,23.2c0,0,0.1,0,0.1,0
				C360.8,23.2,360.8,23.2,360.8,23.2c-1.1,0.5-1.9,1.2-2.5,2.1C358.9,24.4,359.7,23.7,360.8,23.2z M374,24.9
				c-0.7-0.3-1.4-0.5-2.1-0.7l-0.7-0.2l0,0l1.3,0.4c0.8,0.2,1.5,0.5,2.3,0.8L374,24.9z M371.2,23.9L371.2,23.9l0.4-0.7
				c1.3-2.1,1.8-3.8,1.9-4.9l0-0.1c-0.1,1-0.5,2.6-1.6,4.5L371.2,23.9L371.2,23.9z M339.9,21.9l0.2-0.2l0.1-0.3l2.1-0.9
				c-0.5,0.2-1.1,0.5-1.7,0.9l-0.4,0.3l-0.1,0.5c-0.1,0.6-0.2,1.1-0.2,1.6L339.9,21.9z M370.7,23.8l-1.3-0.3c-1.6-0.4-3-0.6-4.3-0.7
				c1.5,0.1,3.2,0.4,5.1,1L370.7,23.8z"/>
		</g>
	</g>
	<g>
		<g>
			<polygon class="st0" points="358.3,423.5 325.5,500.4 435.9,501.2 435.9,389.6 			"/>
			<path class="st1" d="M434.4,499.7l-106.7-0.8l31.7-74.3l75-32.8V499.7 M437.4,502.7v-3V391.9v-4.6l-4.2,1.8l-75,32.8l-1.1,0.5
				l-0.5,1.1L325,497.8l-1.8,4.1l4.5,0l106.7,0.8L437.4,502.7L437.4,502.7z"/>
		</g>
		<g>
			<g>
				<path class="st9" d="M434.8,391.9v80.9v26.9h-26.9H327l32.8-75L434.8,391.9 M429.9,404.9v-5.6l-5,2.2c0.6,0.7,1.4,1.6,2.1,2.6
					C428.1,404.3,429.1,404.6,429.9,404.9 M399.2,416.9c2.9-1.9,6.3-3.7,9.1-3.7c0.2,0,0.4,0,0.6,0c1.6,0.2,2.9,0.8,3.8,1.6
					c1.4-1,3.5-1.7,6.2-1.8c-1.3-3.8-1.1-6.4,0.4-8c1.1-1.1,2.6-1.5,4.3-1.5c0.1,0,0.1,0,0.2,0c-0.4-0.5-0.8-0.9-1.1-1.3l-26.2,11.5
					C397,414.8,397.9,415.8,399.2,416.9 M421.3,413.1c3.1-0.2,5-1,5.6-2.3c0.5-1.2-0.2-3-1.2-4.7c-0.7-0.1-1.4-0.2-2-0.2
					c-1.1,0-2.1,0.2-2.7,0.8C420,407.7,420.1,409.9,421.3,413.1 M429.9,437.4v-30c-0.4-0.2-0.9-0.3-1.4-0.5c0.7,1.6,1,3.3,0.4,4.8
					c-0.8,2.1-3,3.2-6.7,3.6c1.2,2.9,1.2,5.1,0.7,6.9c1.2,0.6,2.2,1.6,2.9,3.2c1.2,2.6,0.5,6.7-0.4,10.3
					C427.4,436.8,428.9,437.2,429.9,437.4 M393.6,421.2c0.7-0.6,2-1.7,3.7-2.9c-1.4-1.2-2.3-2.4-2.8-3.4l-11.5,5
					C386.6,419.9,390.1,420.4,393.6,421.2 M415.5,421.7l0.7-0.2c0.7-0.2,1.6-0.4,2.7-0.4c0.6,0,1.3,0.1,1.9,0.2
					c0.4-1.6,0.1-3.5-0.9-5.8c0-0.1-0.1-0.1-0.1-0.2c-0.1,0-0.1,0-0.2,0c-2.3,0-4.1,0.5-5.5,1.3c0.9,1.6,1.3,3.3,1.3,4.5
					L415.5,421.7 M409.2,420.9c0.1-0.5,0.2-1,0.3-1.5c0.3-1,0.8-2,1.5-2.9c-0.6-0.5-1.4-0.8-2.4-0.9c-0.1,0-0.3,0-0.4,0
					c-1.9,0-4.6,1.3-7.1,2.8c0.8,0.5,1.7,1,2.7,1.5C405.7,420.6,407.5,420.9,409.2,420.9 M411.5,420.7c0.6-0.1,1.2-0.2,1.6-0.3
					c-0.1-0.6-0.3-1.3-0.7-2.1c-0.3,0.5-0.6,1.1-0.8,1.7C411.6,420.3,411.6,420.5,411.5,420.7 M409.6,426.9
					c-0.3-1.2-0.5-2.5-0.5-3.7c-1.9,0-4.1-0.3-6.1-1.3c-1.5-0.7-2.7-1.4-3.8-2.1c-1.1,0.7-2,1.5-2.9,2.1c4,1.1,7.9,2.8,11.6,4.9
					C408.4,426.8,409,426.8,409.6,426.9 M411.9,426.8c1.3-0.1,2.6-0.4,3.9-0.8c-0.4-1.9-0.4-3.3-0.4-3.4l0-0.5l-0.7,0.2
					c-0.1,0-1.5,0.5-3.4,0.7C411.3,424.3,411.6,425.6,411.9,426.8 M417.9,425c0.4-0.2,0.7-0.5,1.1-0.8c0.3-0.2,0.5-0.5,0.8-0.8
					c-0.3,0-0.6,0-0.8,0c-0.5,0-0.9,0-1.2,0.1C417.7,423.9,417.8,424.4,417.9,425 M423.4,434.2c0.8-3.1,1.1-6.2,0.3-8
					c-0.4-1-1-1.6-1.7-2c-0.5,0.7-1,1.3-1.5,1.8c-0.6,0.5-1.3,1-2,1.3c0.5,1.6,1.4,3.3,2.7,4.8C422,432.9,422.7,433.6,423.4,434.2
					 M407.9,494.8h22v-22c0-16.3-8.1-31.3-21.8-40.2c-8-5.2-17.1-7.9-26.3-7.9c-6.2,0-12.5,1.2-18.4,3.7
					c-6.1,14.7-4.5,31.3,4.2,44.7C376.6,486.7,391.6,494.8,407.9,494.8 M422.2,438.4c0.2-0.6,0.4-1.2,0.6-1.9
					c-1-0.8-2.1-1.7-3.2-2.9c-1.6-1.7-2.5-3.6-3.1-5.4c-1.2,0.4-2.5,0.7-3.7,0.8c0.2,0.5,0.4,0.9,0.6,1.3
					C416.6,432.6,419.6,435.4,422.2,438.4 M429.9,450.5v-10.9c-1.2-0.1-3-0.5-5.2-1.8c-0.3,1-0.6,1.9-0.9,2.6
					C426.2,443.6,428.3,447,429.9,450.5 M353.3,462.3c1.3-1.7,2.4-3.1,3-3.8c-0.8-3.5-1.2-7-1.3-10.6l-5.1,11.6
					C350.9,460,352.1,460.9,353.3,462.3 M361.9,474.6c0-0.8-0.1-1.5-0.2-2.1c-2-3.6-3.6-7.4-4.7-11.3c-0.7,0.8-1.5,1.9-2.2,3
					c0.7,1.1,1.5,2.3,2.1,3.8c1,2.1,1.3,4.2,1.3,6.1C359.4,474.1,360.7,474.3,361.9,474.6 M338.7,488.8c0-1.7,0.3-3.4,1.4-4.5
					c0.9-0.9,2.1-1.3,3.6-1.3c1.2,0,2.7,0.3,4.4,0.9c0.1-2.8,0.8-4.8,1.8-6.2c-0.9-1-1.5-2.2-1.6-3.8c-0.3-2.8,1.6-6.6,3.6-9.7
					c-1.1-1.3-2.1-2.1-3-2.6l-11.5,26.2C337.9,488.1,338.3,488.4,338.7,488.8 M351.5,476c0.9-0.7,1.9-1.2,2.9-1.5
					c0.5-0.1,1-0.3,1.5-0.3c0-1.7-0.3-3.5-1.1-5.3c-0.5-1-1-1.9-1.5-2.7c-1.7,2.7-3,5.5-2.8,7.5C350.7,474.6,351,475.4,351.5,476
					 M361,480.8c0.4-1.3,0.7-2.6,0.8-3.9c-1.2-0.3-2.5-0.6-3.8-0.6c-0.2,1.9-0.6,3.3-0.7,3.4l-0.2,0.7l0.5,0
					C357.7,480.4,359.1,480.4,361,480.8 M355.5,478.1c0.1-0.4,0.2-1,0.3-1.6c-0.2,0-0.5,0.1-0.7,0.2c-0.6,0.2-1.2,0.5-1.7,0.8
					C354.1,477.8,354.9,478,355.5,478.1 M371.6,487.7c0.7-0.2,1.4-0.4,2-0.7c-3-2.5-5.7-5.4-8-8.6c-0.4-0.3-1-0.6-1.6-0.8
					c-0.1,1.2-0.4,2.5-0.8,3.7c1.8,0.6,3.8,1.6,5.4,3.1C369.8,485.6,370.8,486.7,371.6,487.7 M354.9,485.9c0.5,0,1-0.1,1.5-0.2
					c-0.4-1.7-0.2-3.5,0.2-4.6l0.2-0.7l-0.5,0c-1.2-0.1-3-0.4-4.5-1.3c-0.9,1.4-1.3,3.2-1.3,5.5c0,0.1,0,0.1,0,0.2
					c0.1,0,0.1,0.1,0.2,0.1C352.2,485.6,353.6,485.9,354.9,485.9 M358.5,484.7c0.3-0.2,0.5-0.5,0.8-0.8c0.3-0.3,0.5-0.7,0.8-1.1
					c-0.6-0.1-1.1-0.2-1.5-0.2C358.5,483.2,358.4,483.9,358.5,484.7 M363.9,489.2c1.6,0,3.5-0.3,5.3-0.8c-0.6-0.7-1.3-1.5-2.1-2.2
					c-1.4-1.3-3.2-2.2-4.8-2.7c-0.4,0.7-0.8,1.4-1.3,2c-0.5,0.5-1.1,1.1-1.8,1.5c0.4,0.7,1.1,1.3,2,1.7
					C361.9,489,362.8,489.2,363.9,489.2 M344.9,492c0.3,0,0.6-0.1,0.9-0.2c1.3-0.5,2.1-2.4,2.3-5.6c-1.7-0.7-3.2-1-4.3-1
					c-0.9,0-1.6,0.2-2,0.7c-0.9,0.9-0.9,2.7-0.6,4.7C342.4,491.4,343.8,492,344.9,492 M344.9,494.3c-1,0-2-0.3-3.1-0.7
					c0.1,0.4,0.3,0.9,0.4,1.3h30.1c-0.1-1-0.5-2.6-1.7-4.5c-2.2,0.6-4.6,1.1-6.7,1.1c-1.3,0-2.6-0.2-3.6-0.6
					c-1.5-0.7-2.5-1.7-3.2-2.9c-0.7,0.2-1.4,0.3-2.2,0.3c-1.3,0-2.9-0.3-4.7-1c-0.4,3.7-1.6,5.9-3.6,6.7
					C346.1,494.2,345.5,494.3,344.9,494.3 M374.6,494.8h11c-3.6-1.6-6.9-3.7-10-6.1c-0.8,0.3-1.7,0.6-2.8,1
					C374.1,491.8,374.5,493.6,374.6,494.8 M334.4,494.8h5.5c-0.3-0.8-0.6-1.8-0.8-2.8c-1-0.7-1.9-1.4-2.6-2L334.4,494.8
					 M436.8,388.8L434,390l-75,32.8l-0.7,0.3l-0.3,0.7l-32.8,75l-1.2,2.8h3.1h80.9h26.9h2v-2v-26.9v-80.9V388.8L436.8,388.8z
					 M407.5,411.3l8.6-3.8c-0.2,1.1-0.1,2.4,0.2,3.9c-1.3,0.2-2.5,0.6-3.6,1.2c-1.1-0.7-2.4-1.1-3.7-1.2c-0.3,0-0.5,0-0.8,0
					C408,411.3,407.8,411.3,407.5,411.3L407.5,411.3z M422.4,408.1c0,0,0.3-0.2,1.2-0.2c0.2,0,0.5,0,0.7,0c0.7,1.2,0.7,1.9,0.6,2.1
					c0,0-0.4,0.5-2.3,0.9C422.1,408.9,422.4,408.2,422.4,408.1C422.4,408.1,422.4,408.1,422.4,408.1L422.4,408.1z M424.8,416.8
					c1.2-0.3,2.2-0.7,3.1-1.2v9.6c-0.1-0.3-0.2-0.5-0.3-0.8c-0.6-1.3-1.4-2.4-2.5-3.3C425.3,419.8,425.2,418.4,424.8,416.8
					L424.8,416.8z M390.9,418.6l2.8-1.2c0.2,0.2,0.4,0.5,0.5,0.7c-0.5,0.4-0.9,0.7-1.2,1C392.3,418.8,391.6,418.7,390.9,418.6
					L390.9,418.6z M416.8,417.7c0.5-0.1,1.1-0.2,1.7-0.3c0.2,0.6,0.4,1.2,0.4,1.7c0,0,0,0,0,0c-0.6,0-1.1,0-1.7,0.1
					C417.1,418.8,417,418.3,416.8,417.7L416.8,417.7z M405.5,418.3c1.3-0.6,2.1-0.7,2.6-0.8c-0.2,0.4-0.3,0.8-0.5,1.3
					C406.9,418.7,406.1,418.5,405.5,418.3L405.5,418.3z M365,429.9c5.4-2.1,11.1-3.2,16.9-3.2c8.9,0,17.7,2.6,25.2,7.5
					c13.1,8.5,20.8,22.9,20.8,38.5v20h-20c-15.6,0-30-7.8-38.5-20.8C361.2,459.5,359.6,443.8,365,429.9L365,429.9z M421,428.1
					c0.3-0.2,0.6-0.4,0.8-0.6c0.1-0.1,0.2-0.1,0.2-0.2c0.1,0.4,0.3,1.3,0.1,2.8C421.7,429.5,421.3,428.8,421,428.1L421,428.1z
					 M427.7,434.6c0.1-0.4,0.2-0.7,0.2-1.1v1.2C427.9,434.7,427.8,434.6,427.7,434.6L427.7,434.6z M427.9,442.8
					c-0.4-0.6-0.8-1.3-1.3-1.9c0.5,0.2,0.9,0.3,1.3,0.4V442.8L427.9,442.8z M352.4,458.7l1.3-3c0.1,0.7,0.3,1.4,0.4,2.2
					c-0.3,0.4-0.7,0.8-1.1,1.3C352.8,459.1,352.6,458.9,352.4,458.7L352.4,458.7z M352.6,473.1c0-0.5,0.2-1.3,0.8-2.6
					c0.2,0.7,0.4,1.4,0.5,2.1C353.4,472.7,353,472.9,352.6,473.1L352.6,473.1z M342.6,481.1l3.7-8.5c0,0.5,0,1,0,1.4
					c0.1,1.4,0.6,2.6,1.2,3.7c-0.5,1.1-0.9,2.2-1.2,3.5c-0.9-0.2-1.8-0.3-2.6-0.3C343.4,481,343,481.1,342.6,481.1L342.6,481.1z
					 M352.4,483.5c0.1-0.6,0.2-1.2,0.3-1.7c0.6,0.2,1.1,0.3,1.6,0.4c-0.1,0.5-0.1,1.1-0.1,1.7C353.6,483.8,353.1,483.7,352.4,483.5
					L352.4,483.5z M362.3,487c0.1-0.1,0.1-0.2,0.2-0.2c0.2-0.3,0.4-0.5,0.6-0.8c0.7,0.3,1.4,0.7,2,1.2c-0.4,0-0.9,0.1-1.2,0.1
					C363.1,487.2,362.6,487.1,362.3,487L362.3,487z M343.2,487.4c0,0,0.2-0.1,0.6-0.1c0,0,0,0,0,0c0.4,0,1.1,0.1,2.1,0.4
					c-0.3,1.9-0.9,2.3-0.9,2.3c0,0-0.1,0-0.2,0c-0.2,0-0.8-0.1-1.9-0.6C342.9,488.1,343.1,487.5,343.2,487.4
					C343.2,487.4,343.2,487.4,343.2,487.4L343.2,487.4z M350.7,492.8c0.5-0.8,0.9-1.9,1.1-3c1.1,0.3,2.1,0.4,3.1,0.4
					c0.4,0,0.9,0,1.3-0.1c0.9,1.1,1.9,1.9,3.3,2.5c0.2,0.1,0.3,0.1,0.5,0.2H350.7L350.7,492.8z M376.3,492.8
					c-0.1-0.5-0.3-0.9-0.4-1.4c0.7,0.5,1.4,1,2.1,1.4H376.3L376.3,492.8z M369,492.8c0.2,0,0.4-0.1,0.6-0.1c0,0,0,0.1,0.1,0.1H369
					L369,492.8z"/>
			</g>
			<path class="st10" d="M407.9,499.7h26.9v-26.9v-80.9l-75,32.8l-32.8,75H407.9z M336.6,489.9c0.7,0.6,1.5,1.3,2.6,2
				c0.2,1,0.5,2,0.8,2.8h-5.5L336.6,489.9z M422.7,402.5c0.3,0.3,0.7,0.8,1.1,1.3c-0.1,0-0.1,0-0.2,0c-1.7,0-3.2,0.4-4.3,1.5
				c-1.6,1.6-1.7,4.2-0.4,8c-2.8,0.1-4.8,0.8-6.2,1.8c-1-0.9-2.2-1.5-3.8-1.6c-2.8-0.3-6.6,1.6-9.7,3.6c-1.3-1.1-2.2-2.2-2.7-3
				L422.7,402.5z M429.9,437.4c-1-0.1-2.6-0.5-4.5-1.7c1-3.6,1.6-7.7,0.4-10.3c-0.7-1.5-1.7-2.5-2.9-3.2c0.5-1.8,0.4-4-0.7-6.9
				c3.7-0.4,5.9-1.6,6.7-3.6c0.6-1.5,0.3-3.2-0.4-4.8c0.5,0.1,0.9,0.3,1.4,0.5V437.4z M413.4,430.2c-0.2-0.4-0.4-0.8-0.6-1.3
				c1.2-0.1,2.5-0.4,3.7-0.8c0.6,1.8,1.6,3.8,3.1,5.4c1.1,1.2,2.2,2.2,3.2,2.9c-0.2,0.7-0.4,1.3-0.6,1.9
				C419.6,435.4,416.6,432.6,413.4,430.2z M419.8,415.4c0,0.1,0.1,0.1,0.1,0.2c1,2.2,1.3,4.2,0.9,5.8c-0.6-0.1-1.3-0.2-1.9-0.2
				c-1,0-2,0.2-2.7,0.4l-0.7,0.2l0-0.5c-0.1-1.2-0.4-3-1.3-4.5c1.4-0.9,3.2-1.3,5.5-1.3C419.7,415.4,419.8,415.4,419.8,415.4z
				 M411.3,423c1.9-0.2,3.3-0.6,3.4-0.7l0.7-0.2l0,0.5c0,0.1,0,1.5,0.4,3.4c-1.3,0.4-2.6,0.7-3.9,0.8
				C411.6,425.6,411.3,424.3,411.3,423z M417.7,423.5c0.5-0.1,1.3-0.1,2,0c-0.2,0.3-0.5,0.5-0.8,0.8c-0.3,0.3-0.7,0.5-1.1,0.8
				C417.8,424.4,417.7,423.9,417.7,423.5z M413.1,420.4c-0.4,0.1-1,0.2-1.6,0.3c0-0.2,0.1-0.5,0.2-0.7c0.2-0.6,0.5-1.2,0.8-1.7
				C412.8,419.1,413,419.9,413.1,420.4z M409.5,419.4c-0.1,0.5-0.3,1-0.3,1.5c-1.7,0-3.5-0.3-5.3-1.1c-1-0.5-1.9-1-2.7-1.5
				c2.7-1.7,5.5-3,7.5-2.8c1,0.1,1.8,0.5,2.4,0.9C410.3,417.4,409.8,418.4,409.5,419.4z M403,421.8c2.1,1,4.2,1.3,6.1,1.3
				c0,1.2,0.2,2.5,0.5,3.7c-0.6,0-1.2-0.1-1.7-0.2c-3.7-2.1-7.6-3.7-11.6-4.9c0.8-0.7,1.8-1.4,2.9-2.1
				C400.2,420.4,401.5,421.2,403,421.8z M421.2,432.1c-1.3-1.4-2.2-3.2-2.7-4.8c0.7-0.4,1.4-0.8,2-1.3c0.5-0.5,1.1-1.1,1.5-1.8
				c0.7,0.4,1.3,1.1,1.7,2c0.8,1.8,0.4,4.9-0.3,8C422.7,433.6,422,432.9,421.2,432.1z M426.9,410.8c-0.5,1.3-2.4,2.1-5.6,2.3
				c-1.2-3.1-1.3-5.3-0.3-6.3c0.9-0.9,2.7-0.9,4.7-0.6C426.7,407.8,427.4,409.6,426.9,410.8z M397.3,418.2c-1.7,1.2-3,2.3-3.7,2.9
				c-3.5-0.8-7-1.2-10.6-1.3l11.5-5C395,415.8,395.9,417,397.3,418.2z M341.8,486c1-1,3.2-0.8,6.3,0.3c-0.2,3.1-1,5-2.3,5.6
				c-1.2,0.5-3-0.2-4.7-1.2C340.8,488.6,340.9,486.8,341.8,486z M361.8,476.9c-0.1,1.3-0.4,2.6-0.8,3.9c-1.9-0.4-3.3-0.4-3.4-0.4
				l-0.5,0l0.2-0.7c0-0.1,0.5-1.5,0.7-3.4C359.3,476.3,360.6,476.5,361.8,476.9z M362.3,483.5c1.6,0.5,3.3,1.4,4.8,2.7
				c0.8,0.8,1.5,1.5,2.1,2.2c-3.1,0.8-6.2,1.1-8,0.3c-1-0.4-1.6-1-2-1.7c0.7-0.5,1.3-1,1.8-1.5C361.5,484.9,361.9,484.2,362.3,483.5
				z M359.3,484c-0.2,0.3-0.5,0.5-0.8,0.8c-0.1-0.8,0-1.5,0-2c0.4,0,0.9,0.1,1.5,0.2C359.8,483.3,359.5,483.6,359.3,484z
				 M355.9,474.2c-0.5,0.1-1,0.2-1.5,0.3c-1,0.3-2,0.8-2.9,1.5c-0.5-0.6-0.8-1.4-0.9-2.4c-0.2-2,1.1-4.8,2.8-7.5
				c0.5,0.8,1,1.7,1.5,2.7C355.6,470.6,355.9,472.5,355.9,474.2z M355.7,476.5c-0.1,0.6-0.2,1.2-0.3,1.6c-0.6-0.1-1.3-0.3-2.1-0.6
				c0.5-0.3,1.1-0.6,1.7-0.8C355.3,476.6,355.5,476.5,355.7,476.5z M350.4,484.6c0-2.3,0.5-4.1,1.3-5.5c1.6,0.9,3.3,1.3,4.5,1.3
				l0.5,0l-0.2,0.7c-0.3,1.1-0.5,2.9-0.2,4.6c-1.6,0.4-3.5,0.1-5.8-0.9c-0.1,0-0.1-0.1-0.2-0.1C350.4,484.7,350.4,484.7,350.4,484.6
				z M346.7,493.9c2.1-0.8,3.2-3,3.6-6.7c2.9,1.2,5.1,1.2,6.9,0.7c0.6,1.2,1.6,2.2,3.2,2.9c2.6,1.2,6.7,0.5,10.3-0.4
				c1.2,1.9,1.6,3.4,1.7,4.5h-30.1c-0.2-0.4-0.3-0.8-0.4-1.3C343.5,494.2,345.2,494.5,346.7,493.9z M368.6,484.5
				c-1.7-1.6-3.6-2.5-5.4-3.1c0.4-1.2,0.7-2.5,0.8-3.7c0.6,0.3,1.1,0.5,1.6,0.8c2.4,3.2,5.1,6.1,8,8.6c-0.6,0.2-1.3,0.4-2,0.7
				C370.8,486.7,369.8,485.6,368.6,484.5z M361.7,472.5c0.1,0.6,0.2,1.3,0.2,2.1c-1.2-0.3-2.5-0.5-3.7-0.5c0-1.9-0.3-4.1-1.3-6.1
				c-0.7-1.5-1.4-2.7-2.1-3.8c0.8-1.1,1.5-2.1,2.2-3C358.1,465.1,359.6,468.9,361.7,472.5z M356.3,458.5c-0.6,0.7-1.7,2-3,3.8
				c-1.2-1.4-2.4-2.2-3.4-2.8l5.1-11.6C355,451.4,355.5,455,356.3,458.5z M351.9,464.2c-2,3.1-3.9,6.8-3.6,9.7
				c0.2,1.6,0.8,2.9,1.6,3.8c-1,1.4-1.7,3.5-1.8,6.2c-3.8-1.3-6.4-1.1-8,0.4c-1.1,1.1-1.5,2.7-1.4,4.5c-0.5-0.4-0.9-0.8-1.2-1.1
				l11.5-26.2C349.8,462.1,350.9,462.9,351.9,464.2z M374.6,494.8c-0.1-1.2-0.5-3-1.8-5.1c1-0.3,2-0.7,2.8-1c3.1,2.4,6.5,4.4,10,6.1
				H374.6z M429.9,494.8h-22c-16.3,0-31.3-8.1-40.2-21.8c-8.7-13.4-10.3-30-4.2-44.7c14.7-6.1,31.3-4.5,44.7,4.2
				c13.6,8.9,21.8,23.9,21.8,40.2V494.8z M423.8,440.5c0.3-0.8,0.6-1.6,0.9-2.6c2.2,1.3,4,1.7,5.2,1.8v10.9
				C428.3,447,426.2,443.6,423.8,440.5z M429.9,404.9c-0.8-0.3-1.8-0.6-2.9-0.8c-0.7-1-1.5-1.9-2.1-2.6l5-2.2V404.9z"/>
			<path class="st11" d="M434.1,498.9H328.1l32.2-73.7l73.7-32.2V498.9z M430.7,398.2l-7,3.1l0.7,0.8c0.5,0.6,1.3,1.5,2,2.5l0.2,0.2
				l0.3,0.1c0.9,0.2,1.9,0.5,2.8,0.8l1,0.3V398.2z M424.4,403.2c-0.4-0.5-0.8-0.9-1.1-1.3l-0.4-0.4l-27.5,12l0.4,0.7
				c0.7,1.1,1.6,2.2,2.8,3.2l0.4,0.4l0.5-0.3c3.5-2.3,6.5-3.5,8.7-3.5c0.2,0,0.4,0,0.5,0c1.3,0.1,2.5,0.6,3.4,1.5l0.4,0.4l0.5-0.3
				c1.5-1,3.4-1.6,5.8-1.7l1,0l-0.3-1c-1.2-3.5-1.1-5.8,0.3-7.2c0.8-0.8,2.1-1.2,3.8-1.2l0.2,0l1.6,0L424.4,403.2z M421.4,413.8
				c3.5-0.2,5.6-1.2,6.2-2.7c0.5-1.3,0.1-3.1-1.3-5.3l-0.2-0.3l-0.3-0.1c-0.8-0.1-1.5-0.2-2.1-0.2c-1.5,0-2.5,0.3-3.2,1
				c-1.2,1.2-1.2,3.6,0.2,7.1l0.2,0.5L421.4,413.8z M430.7,406.8l-0.5-0.2c-0.5-0.2-0.9-0.3-1.4-0.5l-1.6-0.5l0.6,1.5
				c0.7,1.7,0.8,3.1,0.4,4.2c-0.7,1.8-2.7,2.8-6.1,3.1l-1,0.1l0.4,0.9c1,2.4,1.2,4.6,0.7,6.4l-0.2,0.6l0.5,0.3
				c1.1,0.6,2,1.6,2.5,2.8c0.9,2,0.7,5.4-0.5,9.8l-0.1,0.5l0.5,0.3c2.1,1.3,3.8,1.7,4.9,1.9l0.8,0.1V406.8z M394.1,421.7
				c0.6-0.6,2-1.7,3.6-2.9l0.8-0.5l-0.7-0.6c-1.1-1-2-2.1-2.7-3.2l-0.3-0.6l-12.1,5.3l0.3,1.4c3.5,0.1,7,0.5,10.5,1.3l0.4,0.1
				L394.1,421.7z M421.5,421.5c0.4-1.8,0.1-3.9-0.9-6.3l-0.1-0.2l-0.2-0.5l-0.7,0c-2.4,0-4.4,0.5-5.9,1.5l-0.6,0.4l0.4,0.6
				c1.1,1.8,1.2,3.6,1.2,4.2l0,0.3l-0.3,0.1c-0.1,0-1.3,0.4-3.2,0.6l-0.7,0.1l0,0.7c0,1.3,0.2,2.6,0.6,4l0.2,0.6l0.6-0.1
				c1.5-0.1,2.8-0.4,4.1-0.8l0.6-0.2l-0.1-0.6c-0.4-1.8-0.4-3.2-0.4-3.2l0-0.3l0.3-0.1c0.7-0.2,1.6-0.3,2.5-0.3
				c0.6,0,1.2,0.1,1.8,0.2l0.7,0.1L421.5,421.5z M409.9,421c0.1-0.5,0.2-1,0.3-1.4c0.3-1,0.8-1.9,1.4-2.6l0.5-0.6l-0.6-0.5
				c-0.8-0.6-1.7-1-2.8-1.1c-0.2,0-0.3,0-0.5,0c-1.8,0-4.3,1-7.5,2.9l-1,0.6l1,0.6c0.8,0.5,1.8,1,2.8,1.5c1.6,0.8,3.5,1.1,5.6,1.1
				l0.6,0L409.9,421z M411.6,421.5c0.6-0.1,1.1-0.2,1.7-0.3l0.7-0.2l-0.1-0.7c-0.1-0.6-0.3-1.4-0.7-2.3l-0.6-1.2l-0.7,1.1
				c-0.4,0.6-0.7,1.2-0.9,1.9c-0.1,0.2-0.1,0.5-0.2,0.8l-0.2,1L411.6,421.5z M410.3,426.7c-0.3-1.2-0.5-2.4-0.5-3.6l0-0.7l-0.7,0
				c-2.2,0-4.1-0.4-5.8-1.2c-1.4-0.6-2.6-1.3-3.7-2.1l-0.4-0.3l-0.4,0.3c-1,0.7-1.9,1.4-2.9,2.2l-1.1,0.9l1.4,0.4
				c4,1.1,7.8,2.7,11.4,4.8l0.1,0.1l0.1,0c0.5,0.1,1.1,0.1,1.8,0.2l1,0L410.3,426.7z M418.3,425.6c0.4-0.3,0.8-0.6,1.2-0.9
				c0.3-0.3,0.6-0.6,0.8-0.9l0.9-1.1l-1.4-0.1c-0.3,0-0.6,0-0.9,0c-0.4,0-0.9,0-1.3,0.1l-0.7,0.1l0.1,0.7c0,0.3,0.1,0.9,0.2,1.6
				l0.2,1.1L418.3,425.6z M424.1,434.4c1-3.9,1.1-6.7,0.3-8.5c-0.4-1-1.1-1.8-2-2.4l-0.6-0.4l-0.4,0.6c-0.4,0.6-0.8,1.1-1.4,1.6
				c-0.5,0.5-1.1,0.9-1.8,1.2l-0.6,0.3l0.2,0.6c0.7,2,1.6,3.7,2.9,5.1c0.8,0.8,1.5,1.5,2.3,2.2l0.9,0.8L424.1,434.4z M430.7,472.8
				c0-16.5-8.3-31.8-22.1-40.8c-8-5.2-17.2-8-26.7-8c-6.4,0-12.7,1.3-18.7,3.7l-0.3,0.1l-0.1,0.3c-6.2,14.9-4.6,31.9,4.3,45.4
				c9,13.8,24.3,22.1,40.8,22.1h22.8V472.8z M422.9,438.7c0.2-0.7,0.4-1.3,0.6-1.9l0.2-0.5l-0.4-0.3c-1.1-0.8-2.1-1.8-3.1-2.9
				c-1.3-1.4-2.3-3.1-3-5.2l-0.2-0.7l-0.7,0.2c-1.1,0.4-2.3,0.6-3.5,0.8l-1,0.1l0.4,0.9c0.2,0.5,0.4,0.9,0.7,1.3l0.1,0.1l0.1,0.1
				c3.2,2.4,6.1,5.1,8.7,8.1l0.9,1L422.9,438.7z M430.7,450.5v-11.6l-0.7-0.1c-1.1-0.1-2.8-0.5-4.9-1.7l-0.8-0.5l-0.3,0.9
				c-0.3,0.8-0.6,1.7-0.9,2.6l-0.1,0.4l0.3,0.3c2.4,3.1,4.4,6.4,6,9.9L430.7,450.5z M353.9,462.7c1.2-1.7,2.4-3.1,3-3.7l0.2-0.3
				l-0.1-0.4c-0.8-3.4-1.2-6.9-1.3-10.4l-1.4-0.3l-5.3,12.2l0.6,0.3c1.1,0.6,2.2,1.5,3.2,2.6l0.6,0.7L353.9,462.7z M362.6,474.5
				c0-0.8-0.1-1.5-0.2-2.2l0-0.1l-0.1-0.1c-2-3.5-3.5-7.3-4.6-11.2l-0.4-1.4l-0.9,1.1c-0.8,1-1.6,2-2.3,3l-0.3,0.4l0.3,0.4
				c0.8,1.1,1.4,2.3,2.1,3.7c0.8,1.7,1.2,3.7,1.2,5.8l0,0.7l0.7,0c1.2,0,2.4,0.2,3.6,0.5l1,0.2L362.6,474.5z M348.9,483.9
				c0.1-2.4,0.7-4.4,1.7-5.8l0.3-0.5l-0.4-0.4c-0.8-0.9-1.3-2.1-1.5-3.4c-0.2-2.2,1-5.4,3.5-9.2l0.3-0.5l-0.4-0.4
				c-1-1.2-2-2.1-3.1-2.8l-0.7-0.4l-12,27.5l0.4,0.4c0.4,0.4,0.8,0.7,1.2,1.1l1.3,1l0-1.6c0-1.8,0.4-3.1,1.2-3.9
				c0.7-0.7,1.7-1.1,3.1-1.1c1.1,0,2.5,0.3,4.1,0.8l1,0.3L348.9,483.9z M352,476.6c0.8-0.6,1.6-1.1,2.6-1.4c0.4-0.1,0.9-0.2,1.4-0.3
				l0.6-0.1l0-0.6c0-2.1-0.4-4-1.1-5.6c-0.5-1-1-1.9-1.5-2.8l-0.6-1l-0.6,1c-2.1,3.4-3.1,6.1-2.9,7.9c0.1,1.1,0.5,2,1.1,2.8l0.5,0.6
				L352,476.6z M361.7,481c0.4-1.2,0.7-2.6,0.8-4.1l0.1-0.6l-0.6-0.2c-1.4-0.4-2.7-0.6-4-0.6l-0.7,0l-0.1,0.7
				c-0.2,1.9-0.6,3.2-0.6,3.2l-0.1,0.3l-0.3,0c-0.5,0-2.4-0.2-4.2-1.2l-0.6-0.4l-0.4,0.6c-1,1.5-1.5,3.5-1.5,5.9l0,0.7l0.7,0.3
				c1.7,0.8,3.2,1.1,4.6,1.1c0.6,0,1.1-0.1,1.6-0.2l0.7-0.2l-0.1-0.7c-0.4-2,0-3.7,0.2-4.2l0.1-0.3l0.3,0c0.1,0,1.4,0,3.2,0.4
				l0.6,0.1L361.7,481z M356.2,478.2c0.1-0.5,0.2-1.1,0.3-1.7l0.1-1l-1,0.2c-0.3,0.1-0.5,0.1-0.8,0.2c-0.7,0.2-1.3,0.5-1.9,0.9
				l-1.1,0.7l1.2,0.6c0.9,0.4,1.7,0.6,2.3,0.7l0.7,0.1L356.2,478.2z M371.8,488.5c0.7-0.2,1.3-0.4,2.1-0.7l1.2-0.4l-1-0.9
				c-2.9-2.5-5.6-5.4-7.9-8.5l-0.1-0.1l-0.1-0.1c-0.5-0.3-1-0.6-1.6-0.9l-0.9-0.4l-0.1,1c-0.1,1.3-0.4,2.5-0.8,3.5l-0.2,0.7l0.7,0.2
				c2,0.7,3.8,1.7,5.2,3c1.1,1,2.1,2.1,2.9,3.1l0.3,0.4L371.8,488.5z M359,485.3c0.3-0.2,0.6-0.5,0.9-0.8c0.3-0.3,0.6-0.7,0.9-1.2
				l0.6-0.9l-1.1-0.2c-0.7-0.1-1.2-0.2-1.6-0.2l-0.7-0.1l-0.1,0.7c-0.1,0.5-0.1,1.3,0,2.2l0.1,1.4L359,485.3z M363.9,489.9
				c1.5,0,3.4-0.3,5.5-0.8l1.2-0.3l-0.8-0.9c-0.6-0.8-1.4-1.5-2.2-2.3c-1.3-1.2-3-2.2-5.1-2.9l-0.6-0.2l-0.3,0.6
				c-0.4,0.7-0.8,1.3-1.2,1.8c-0.5,0.6-1,1-1.6,1.4l-0.6,0.4l0.4,0.6c0.5,0.9,1.3,1.6,2.4,2C361.7,489.8,362.7,489.9,363.9,489.9z
				 M344.9,492.8c0.4,0,0.8-0.1,1.2-0.2c1.6-0.6,2.5-2.7,2.7-6.2l0-0.6l-0.5-0.2c-1.8-0.7-3.3-1-4.6-1c-1.1,0-2,0.3-2.6,0.9
				c-1,1-1.2,2.8-0.8,5.3l0.1,0.3l0.3,0.2C342.4,492.3,343.8,492.8,344.9,492.8z M355,487.5c-1.3,0-2.8-0.3-4.4-1l-0.9-0.4l-0.1,1
				c-0.3,3.4-1.4,5.4-3.1,6.1c-0.4,0.2-0.9,0.3-1.4,0.3c-0.8,0-1.8-0.2-2.8-0.7l-1.5-0.6l0.5,1.6c0.1,0.4,0.3,0.9,0.5,1.3l0.2,0.5
				h31.4l-0.1-0.8c-0.1-1-0.6-2.7-1.8-4.8l-0.3-0.5l-0.5,0.1c-2.5,0.7-4.7,1-6.5,1c-1.3,0-2.4-0.2-3.3-0.6c-1.2-0.6-2.2-1.4-2.8-2.5
				l-0.3-0.5l-0.6,0.2C356.3,487.4,355.6,487.5,355,487.5z M386,494.1c-3.5-1.6-6.8-3.6-9.9-6l-0.3-0.3l-0.4,0.1
				c-0.9,0.3-1.8,0.7-2.7,1l-0.9,0.3l0.5,0.8c1.2,2.1,1.6,3.7,1.7,4.8l0.1,0.7h11.7L386,494.1z M340.6,494.6
				c-0.3-0.9-0.6-1.9-0.8-2.8l-0.1-0.3l-0.2-0.2c-0.8-0.6-1.7-1.3-2.5-2l-0.8-0.7l-3,6.9h7.7L340.6,494.6z"/>
			<path class="st12" d="M433.7,498.6h-105l31.9-73l73-31.9V498.6z M431.1,397.6l-8,3.5l1.1,1.2c0.3,0.4,0.8,0.8,1.2,1.4l-0.6-0.7
				c-0.4-0.5-0.8-0.9-1.2-1.3l-0.5-0.6l-40.5,17.7l0.4,2.2c3.5,0.1,7,0.5,10.4,1.3l0.6,0.1l0,0l2,0.6c3.9,1.1,7.8,2.7,11.4,4.7
				l0.2,0.1l0.2,0c0.6,0.1,1.2,0.1,1.8,0.2l1.5,0.1l-0.3-1.3c0,0.1,0.1,0.2,0.1,0.4l0.3,0.9l0.9-0.1c1.5-0.1,2.9-0.4,4.2-0.9
				l0.9-0.3l0,0l-1,0.4c-1.1,0.4-2.2,0.6-3.5,0.8l-1.5,0.2l0.6,1.4c0.2,0.5,0.4,0.9,0.7,1.4l0.1,0.2l0.2,0.1c3.2,2.3,6.1,5,8.6,8
				l1.3,1.5l0,0l0.4,0.5c2.4,3.1,4.4,6.4,6,9.9l2.1-0.5v-44l-0.7-0.3c-0.1,0-0.2-0.1-0.3-0.1l1.1,0.4V397.6z M431.1,472.8
				c0-16.7-8.3-32-22.3-41.2c-8-5.3-17.3-8-26.9-8c-6.5,0-12.8,1.3-18.8,3.8l-0.4,0.2l-0.2,0.4c-6.2,15-4.6,32.1,4.3,45.7
				c9.1,13.9,24.5,22.3,41.2,22.3h23.2V472.8z M357.5,458.8l-0.1-0.6c-0.8-3.4-1.2-6.9-1.3-10.4l-2.2-0.4l-5.5,12.5L336.2,488
				l0.6,0.5c0.4,0.4,0.8,0.8,1.3,1.1l0.7,0.6c-0.5-0.4-0.9-0.8-1.4-1.2l-1.2-1l-3.4,7.9h8.8l-0.4-1.1c0,0.1,0.1,0.2,0.1,0.4l0.3,0.7
				h44.1l0.5-2.1c-3.5-1.6-6.8-3.6-9.8-5.9l-0.5-0.4l0,0l-1.5-1.3c-2.9-2.5-5.6-5.3-7.9-8.4l-0.1-0.2l-0.2-0.1
				c-0.5-0.3-1.1-0.6-1.7-0.9l-1.4-0.6l-0.1-1.5c0-0.8-0.1-1.6-0.2-2.3l0-0.2l-0.1-0.2c-2-3.5-3.5-7.2-4.6-11.1L357.5,458.8
				L357.5,458.8z M426.2,404.9l0.2,0.2l0.3,0.1c0,0,0.9,2.2,0.9,2.2c-0.2-0.6-0.6-1.2-1-1.8l-0.3-0.4l-0.5-0.1
				c-0.6-0.1-1.1-0.2-1.6-0.2L426.2,404.9z M420.1,406c-1.3,1.4-1.2,3.9,0.1,7.4l0.3,0.8l-0.9,0c-0.2,0-0.3,0-0.5,0l1.4-0.1
				l-0.5-1.4C418.9,409.5,418.9,407.3,420.1,406z M427.9,411.3c-0.7,1.6-2.5,2.5-5.6,2.8C425.4,413.8,427.2,412.8,427.9,411.3z
				 M420.6,414.3l0.5,1.3c-0.1-0.1-0.1-0.3-0.2-0.4l-0.1-0.2L420.6,414.3l0.8-0.1c0.2,0,0.4,0,0.7-0.1L420.6,414.3z M418.6,414.3
				c-2,0.1-3.7,0.6-5,1.5l-0.6,0.4l0.5-0.3C414.7,415,416.4,414.4,418.6,414.3z M395.6,414.5c0.7,1.2,1.7,2.3,2.9,3.3l0.6,0.5l0,0
				l0,0l-1-0.9c-1.1-1-1.9-2-2.6-3.1L395.6,414.5z M408.9,414.4c1,0.1,1.8,0.4,2.6,1C410.7,414.9,409.8,414.5,408.9,414.4z
				 M404.3,415.4c-1.1,0.5-2.4,1.2-3.7,2l-1.1,0.7l0.3-0.2C401.5,416.8,403,416,404.3,415.4z M421.3,416c0.8,2.2,1,4.2,0.6,5.8
				l-0.1,0.5l0.2-0.7C422.3,420,422.1,418.1,421.3,416z M411.5,417.7c-0.4,0.6-0.7,1.2-0.9,1.9c0.3-0.8,0.6-1.6,1.1-2.2L411.5,417.7
				z M399.1,418.4l-0.6,0.4c-1,0.7-2,1.4-2.9,2.2l-0.5,0.4c0.7-0.6,1.7-1.4,2.8-2.2L399.1,418.4L399.1,418.4z M413.7,418.4
				c0.3,0.8,0.5,1.6,0.6,2.2l-0.1-0.3C414.1,419.8,414,419.1,413.7,418.4z M400.6,419.3c0.9,0.5,1.8,1.1,2.8,1.5
				c1.7,0.8,3.6,1.2,5.8,1.2l0.9,0l0,0l-1,0c-2.1,0-4-0.4-5.7-1.2c-1.1-0.5-2.1-1.1-3-1.7L400.6,419.3z M410.6,419.8
				c-0.1,0.2-0.1,0.5-0.2,0.7l0,0C410.4,420.3,410.5,420,410.6,419.8z M413.6,421.5c-0.5,0.1-1.3,0.3-2.3,0.4l0.3,0
				c0.6-0.1,1.2-0.2,1.7-0.3L413.6,421.5z M418.9,422.3c0.2,0,0.5,0,0.7,0C419.4,422.3,419.2,422.3,418.9,422.3
				c-0.4,0-0.9,0-1.3,0.1l-0.4,0.1C417.6,422.4,418.2,422.3,418.9,422.3z M416.6,423.6c0,0.4,0.1,0.9,0.2,1.6l0.1,0.6l0,0
				c-0.2-1-0.3-1.9-0.4-2.4L416.6,423.6z M423.3,423.7c0.6,0.5,1.2,1.2,1.5,2.1c0,0.1,0.1,0.1,0.1,0.2c0-0.1-0.1-0.1-0.1-0.2
				C424.4,424.9,423.9,424.2,423.3,423.7z M420.8,424c-0.3,0.4-0.6,0.7-1,1.1c-0.2,0.2-0.4,0.3-0.6,0.5c0.2-0.2,0.4-0.3,0.6-0.5
				c0.3-0.3,0.6-0.6,0.9-0.9L420.8,424z M417.4,427.6c0.6,1.9,1.5,3.5,2.6,4.8c-1.1-1.3-1.9-2.8-2.5-4.6l-0.3-1l0,0L417.4,427.6z
				 M425.3,429.3c0,1.7-0.4,3.7-1,6l-0.1,0.4l0.3-1.3C425,432.5,425.3,430.7,425.3,429.3z M420.8,433.3c0.6,0.6,1.2,1.2,1.9,1.7
				l0.2,0.2C422.2,434.6,421.5,434,420.8,433.3z M424.8,436.6c2.1,1.3,3.9,1.8,5,1.9l0.2,0c-1-0.1-2.7-0.5-4.7-1.6l-1.2-0.7l0,0l0,0
				L424.8,436.6z M424.1,436.2l-0.4,1.3c-0.2,0.7-0.5,1.4-0.7,2.2l0.3-0.9c0.2-0.7,0.4-1.3,0.6-1.9L424.1,436.2L424.1,436.2z
				 M356.1,460.5c-0.8,1-1.6,2-2.3,3l-0.4,0.6l0,0l0.8-1.1c0.8-1.2,1.6-2.2,2.2-2.9L356.1,460.5z M349.5,460.5c1,0.6,2,1.4,2.9,2.5
				l0.9,1l0,0l0,0l-0.5-0.6C351.8,462.2,350.7,461.3,349.5,460.5L349.5,460.5z M352.4,465.6c-1.1,1.8-1.9,3.3-2.4,4.7
				c0.6-1.6,1.5-3.4,2.9-5.5l0.2-0.3L352.4,465.6z M354.2,465.4c0.6,0.9,1.1,1.8,1.6,2.9c-0.5-1-0.9-1.9-1.5-2.7L354.2,465.4z
				 M355.8,468.3 M355.8,468.3 M355.8,468.3 M355.8,468.4 M355.8,468.4 M355.9,468.4c0.8,1.7,1.2,3.6,1.2,5.6l0,1l0,0l0-0.9
				C357,472,356.6,470.1,355.9,468.4z M349.4,473.5c0,0.1,0,0.2,0,0.2c0.1,1,0.4,1.9,1,2.7c-0.5-0.8-0.9-1.7-1-2.7
				C349.4,473.7,349.4,473.6,349.4,473.5z M354.7,475.6c-0.7,0.2-1.3,0.5-1.9,0.9l-0.3,0.2C353.1,476.2,353.9,475.9,354.7,475.6z
				 M363.1,476l-0.2,1.5c-0.1,1.2-0.4,2.4-0.8,3.5l-0.4,1l0,0l0.3-0.9c0.4-1.3,0.7-2.7,0.9-4.2L363.1,476c0,0-1.1-0.3-1.1-0.3
				L363.1,476z M356.9,476.2c-0.1,1.1-0.3,1.9-0.4,2.5l0.1-0.3c0.1-0.5,0.2-1.1,0.3-1.7L356.9,476.2L356.9,476.2z M350.8,478.5
				c-0.9,1.3-1.4,3-1.5,5c0.1-2.1,0.7-3.9,1.6-5.2l0.3-0.5L350.8,478.5z M353.4,478.7c0.7,0.3,1.4,0.4,1.8,0.5l0.4,0.1
				C355.1,479.2,354.3,479,353.4,478.7z M358.3,481.5c0.6,0,1.4,0.1,2.4,0.4l0,0l-0.6-0.1c-0.7-0.1-1.2-0.2-1.6-0.2L358.3,481.5z
				 M362.8,482.5c1.8,0.6,3.4,1.5,4.6,2.5c-1.3-1.1-2.9-2-4.8-2.6l-0.8-0.3l0,0L362.8,482.5z M357.4,482.5c-0.1,0.5-0.1,1.3-0.1,2.1
				c-0.1-1,0-1.9,0.1-2.5L357.4,482.5z M360.6,484.1c-0.2,0.2-0.3,0.4-0.5,0.6c-0.3,0.4-0.7,0.7-1.1,1l0.2-0.1
				c0.3-0.3,0.6-0.6,0.9-0.9C360.3,484.5,360.4,484.3,360.6,484.1z M349.3,484.1c0,0.2,0,0.3,0,0.5l0,0.2l0,0.7l-0.8-0.3
				c-1.9-0.7-3.4-1.1-4.7-1.1c-1.2,0-2.2,0.3-2.8,1c0,0,0,0,0,0c0,0,0,0,0,0c0.7-0.7,1.6-1,2.8-1c1.1,0,2.5,0.3,4,0.8l1.4,0.5
				L349.3,484.1z M350.1,485.9c0.1,0.1,0.3,0.1,0.4,0.2l-1.3-0.5l-0.1,1.4c0-0.2,0-0.4,0.1-0.7l0.1-0.8L350.1,485.9z M368.4,485.8
				c0.7,0.7,1.3,1.3,1.9,2l-0.2-0.2C369.6,487.1,369,486.4,368.4,485.8z M351.1,486.3c1.4,0.5,2.7,0.8,3.9,0.8
				c0.6,0,1.2-0.1,1.7-0.2l0.7-0.2l-0.5,0.1c-0.6,0.2-1.2,0.2-1.9,0.2C353.8,487.1,352.5,486.8,351.1,486.3z M349.1,487.3
				c-0.3,3.1-1.3,4.9-2.8,5.6C347.9,492.2,348.8,490.3,349.1,487.3z M358.3,487.7c0.6,0.9,1.4,1.6,2.5,2.1c0,0,0.1,0,0.1,0
				c0,0-0.1,0-0.1,0C359.7,489.3,358.9,488.6,358.3,487.7z M374.8,487.8c-0.8,0.3-1.5,0.5-2.3,0.8l-1.3,0.4l0,0l0.7-0.2
				c0.7-0.2,1.4-0.4,2.1-0.7L374.8,487.8z M371.2,489.1l0.7,1.2c1.1,1.9,1.5,3.5,1.6,4.5l0-0.1c-0.1-1.1-0.6-2.8-1.9-4.9
				L371.2,489.1L371.2,489.1L371.2,489.1z M339.9,489.2c0,0.5,0.1,1.1,0.2,1.6l0.1,0.5l0.4,0.3c0.6,0.4,1.2,0.7,1.7,0.9l-2.1-0.9
				l-0.1-0.3l-0.2-0.2L339.9,489.2z M370.3,489.3c-1.9,0.5-3.6,0.8-5.1,1c1.2-0.1,2.7-0.4,4.3-0.7l1.3-0.3L370.3,489.3z"/>
		</g>
	</g>
</g>
</svg>
