<?xml version="1.0" encoding="utf-8"?>
<!-- Generator: Adobe Illustrator 24.3.0, SVG Export Plug-In . SVG Version: 6.00 Build 0)  -->
<svg version="1.1" id="Lag_1" xmlns="http://www.w3.org/2000/svg" xmlns:xlink="http://www.w3.org/1999/xlink" x="0px" y="0px"
	 viewBox="0 0 1115 640" style="enable-background:new 0 0 1115 640;" xml:space="preserve">
<style type="text/css">
	.st0{fill:#7A5849;stroke:#110B09;stroke-width:2;stroke-miterlimit:10;}
	.st1{fill:#604333;stroke:#110B09;stroke-width:2;stroke-miterlimit:10;}
	.st2{fill:#D8B75B;stroke:#110B09;stroke-width:2;stroke-miterlimit:10;}
	.st3{fill:none;stroke:#F4DFAB;stroke-width:2;stroke-linecap:round;stroke-miterlimit:10;}
	.st4{fill:#493429;}
	.st5{fill:#382821;}
	.st6{opacity:0.39;}
	.st7{fill:#D3C3B2;stroke:#110B09;stroke-width:2;stroke-miterlimit:10;}
	.st8{fill:none;stroke:#110B09;stroke-width:2;stroke-miterlimit:10;}
	.st9{fill:#E5D2BA;stroke:#110B09;stroke-width:2;stroke-miterlimit:10;}
	.st10{fill:#D3BA9F;}
	.st11{opacity:0.53;fill:#D3BA9F;}
	.st12{opacity:0.56;fill:#DDCCB6;}
	.st13{opacity:0.53;fill:#E0D1C1;}
	.st14{fill:#AD6751;stroke:#110B09;stroke-width:2;stroke-miterlimit:10;}
	.st15{display:none;}
	.st16{display:inline;}
	.st17{fill:#C9BBAD;}
	.st18{fill:#E5D2BA;}
	.st19{opacity:0.39;enable-background:new    ;}
	.st20{fill:#CCBAAA;stroke:#110B09;stroke-width:2;stroke-miterlimit:10;}
	.st21{fill:#D3C0AB;}
	.st22{fill:#E5D4C1;}
	.st23{fill:#D6C4B0;}
	.st24{fill:#D8C5B2;}
	.st25{opacity:0.53;fill:#D3BA9F;enable-background:new    ;}
	.st26{opacity:0.56;fill:#DDCCB6;enable-background:new    ;}
	.st27{opacity:0.53;fill:#E0D1C1;enable-background:new    ;}
</style>
<g>
	<g>
		<g>
			<path class="st0" d="M1090.3,149.1c0.7-8.5-6-15.7-14.5-15.7H629.4H486.6H40.2c-8.5,0-15.2,7.3-14.5,15.7L14.3,611.4
				c-0.7,9.1,7,16.6,16,15.6l129.4-13.5c41.7-4.3,83.7-6.9,125.6-7.5l207.8-3.3c0,0,10.8-13.4,22.9,2.5h0c25,7.4,51.4,8.1,76.8,2.2
				l14-3.3c0,0,10.8-15.3,21.3-1.2l202.6,3.2c42,0.7,83.9,3.2,125.6,7.5l129.4,13.5c9,0.9,16.7-6.5,16-15.6L1090.3,149.1z"/>
			<path class="st1" d="M1077.4,150.5c0.7-8.5-6-15.8-14.5-15.8H627.6H488.4H53.2c-8.5,0-15.2,7.3-14.5,15.8L27.5,597.3
				c-0.7,9.1,7,16.6,16,15.6l125.8-13c40.7-4.2,81.6-6.6,122.6-7.3l202.7-3.2c0,0,12-12.7,22.3,2.4h0c24.4,7.2,50.2,7.9,74.9,2.1
				l13.7-3.2c0,0,12-10.7,20.7-1.2l197.7,3.1c41,0.7,81.9,3.1,122.6,7.3l125.8,13c9,0.9,16.7-6.6,16-15.6L1077.4,150.5z"/>
			<g>
				<path class="st2" d="M1099,600.9c-6.2-6.2-6.2-16.1,0-22.3c2.7-2.7,6-4.2,9.5-4.5c-2-5-1.6-9.7-5.2-13.6L1091.6,201
					c4.3-4.3,4.4-9.5,6.7-15.3c-3.5-0.4-6.8-1.9-9.5-4.5c-6.2-6.2-6.2-16.1,0-22.3c2.9-2.9,6.7-4.5,10.5-4.6
					c-4.6-14.1-15.7-25.2-29.8-29.8c-0.1,3.8-1.7,7.6-4.6,10.5c-6.2,6.2-16.1,6.2-22.3,0c-2.7-2.7-4.2-6-4.5-9.5
					c-17.1,6.8-29.1,23.5-29.1,43h35.2l-9.1,20.2l20.2-9.1v35.2c8.4,0,16.3-2.2,23.1-6.2l11.8,343.5c-7.2-4.6-15.7-7.2-24.8-7.2
					v35.2l-20.2-9.1l9.1,20.2h-35.2c0,19.5,12,36.2,29.1,43c0.4-3.5,1.9-6.8,4.5-9.5c6.2-6.2,16.1-6.2,22.3,0
					c2.9,2.9,4.5,6.7,4.6,10.5c14.1-4.6,25.2-15.7,29.8-29.8C1105.7,605.3,1101.9,603.8,1099,600.9z"/>
				<path class="st3" d="M1084.7,143.5c1.2,1.7,2.2,3.5,2.9,5.5v0"/>
				<path class="st3" d="M1076.1,136.7l1.8,0.9c0.9,0.4,1.7,1,2.4,1.5"/>
				<path class="st3" d="M1091.3,188.6l-0.3,0.9c-0.7,2.3-1.9,4.4-3.5,6.2l0,0"/>
				<line class="st3" x1="1072.4" y1="205" x2="1069.3" y2="207.1"/>
				<line class="st3" x1="1088.2" y1="294.7" x2="1087.8" y2="305.6"/>
				<line class="st3" x1="1088.7" y1="275.8" x2="1088.4" y2="287.3"/>
				<line class="st3" x1="1089.3" y1="259.4" x2="1089.1" y2="265.7"/>
				<path class="st3" d="M1071.2,549.9l2.4,0.4c3.7,0.6,7.3,2.2,10.3,4.6l0,0"/>
			</g>
			<g>
				<path class="st2" d="M16,601.2c6.2-6.2,6.2-16.1,0-22.3c-2.7-2.7-6-4.2-9.5-4.5c2-5,1.6-9.7,5.2-13.6l11.6-359.4
					c-4.3-4.3-4.4-9.5-6.7-15.3c3.5-0.4,6.8-1.9,9.5-4.5c6.2-6.2,6.2-16.1,0-22.3c-2.9-2.9-6.7-4.5-10.5-4.6
					c4.6-14.1,15.7-25.2,29.8-29.8c0.1,3.8,1.7,7.6,4.6,10.5c6.2,6.2,16.1,6.2,22.3,0c2.7-2.7,4.2-6,4.5-9.5
					c17.1,6.8,29.1,23.5,29.1,43H70.7l9.1,20.2L59.6,180v35.2c-8.4,0-16.3-2.2-23.1-6.2L24.7,552.5c7.2-4.6,15.7-7.2,24.8-7.2v35.2
					l20.2-9.1l-9.1,20.2h35.2c0,19.5-12,36.2-29.1,43c-0.4-3.5-1.9-6.8-4.5-9.5c-6.2-6.2-16.1-6.2-22.3,0c-2.9,2.9-4.5,6.7-4.6,10.5
					c-14.1-4.6-25.2-15.7-29.8-29.8C9.3,605.7,13.1,604.1,16,601.2z"/>
				<path class="st3" d="M28.7,142.3c-1.8,1.8-3.4,3.8-4.8,5.9l-0.6,0.8"/>
				<path class="st3" d="M40.2,133.4L40.2,133.4c-2,1.1-4,2.4-5.8,3.8"/>
				<line class="st3" x1="25.6" y1="371" x2="24.2" y2="385.4"/>
				<line class="st3" x1="28.1" y1="352.1" x2="26.7" y2="361.9"/>
			</g>
			<path class="st4" d="M597.7,266.4l-75.2,1.8l-4.4,312.4h0c25.8,7.2,53.2,7.9,79.4,2.1L597.7,266.4z"/>
			<path class="st5" d="M597.7,249.2l-75.2,1.8l-4.4,312.4h0c25.8,7.2,53.2,7.9,79.4,2.1L597.7,249.2z"/>
			<g>
				<path class="st5" d="M494.7,584.3c-2.1-29.4-3-58.7-3.5-88.1c-0.5-29.4-0.5-58.7-0.1-88c0.4-29.3,1.2-58.7,2.4-88
					c1.3-29.3,3-58.7,5.9-88c2.1,29.4,3,58.7,3.6,88.1c0.5,29.4,0.5,58.7,0.1,88c-0.4,29.3-1.2,58.7-2.5,88
					C499.3,525.7,497.6,555,494.7,584.3z"/>
			</g>
			<g>
				<path class="st5" d="M626.4,584.4c-2.9-29.3-4.6-58.6-6-88c-1.3-29.3-2.1-58.7-2.6-88c-0.4-29.3-0.4-58.7,0-88.1
					c0.5-29.4,1.4-58.7,3.5-88.1c2.9,29.3,4.6,58.6,6,88c1.3,29.3,2.1,58.7,2.5,88c0.4,29.4,0.4,58.7,0,88.1
					C629.3,525.7,628.4,555,626.4,584.4z"/>
			</g>
		</g>
		<g>
			<g>
				<path class="st6" d="M629.5,572.5L774.9,592c10.3-0.2,20.6,0.4,30.9,1.8L928,610.4c9,1.2,18.1,2,27.2,2.4l116.2,4.7L1054.9,425
					c-2.6-30.3-2.5-60.7,0.2-91l14.9-164.9l-447.4-15.4L629.5,572.5z"/>
				<g>
					<path class="st7" d="M543.6,468.2L607,129.7l14.5-3.9c18.3-4.9,37.1-7.6,56-8.2h0c19.9-0.6,39.8,1.3,59.3,5.6l79.3,17.4
						c19.8,4.3,39.7,7.7,59.8,10.1l40.9,4.8c15.8,1.9,31.7,3.1,47.5,3.8l0.7,0l3.2-78.4l28.6,1.1l6.5,0.2l-1.1,12.6l7.1,0.4
						l-1.3,16.2l8.6,0.5l-0.8,10.1l7,0.4l-0.4,6.2l9,0.5l-0.3,3.9l5.6,0.3l-0.3,3.6l5.4,0.2l-0.4,4.2l7.1,0.3l-0.7,5l4.6,0.2
						l-0.6,4.3l4.5,0.9l-0.7,5l4.6,0.2l-0.8,6l4.7,0.2l-7.1,51.5c-11.4,82.8-13.4,166.8-6,250.1l13.1,147.2l-99.8-4.1
						c-15.9-0.6-31.7-1.9-47.5-3.8l-40.9-4.8c-20.1-2.4-40-5.7-59.8-10.1l-79.3-17.4c-19.5-4.3-39.4-6.1-59.3-5.6h0
						c-18.9,0.5-37.7,3.3-56,8.2l-14.5,3.9l-3.9-6.2l-3.9-5.2l-3.9-5.2l-3.9-5.2l-7.3-5l-7.2-1.7l-5.3-1.7l-6.5,0.6l-5.4-3.3l-5,1.1
						h-5.6h-5.6L543.6,468.2z"/>
					<path class="st8" d="M1060.2,157.2l-7.1,51.5c-11.4,82.8-13.4,166.8-6,250.1l13.1,147.2l-99.8-4.1c-15.9-0.6-31.7-1.9-47.5-3.8
						l-40.9-4.8c-20.1-2.4-40-5.7-59.8-10.1l-79.3-17.4c-19.5-4.3-39.4-6.1-59.3-5.6h0c-18.9,0.5-37.7,3.3-56,8.2l-14.5,3.9"/>
					<path class="st8" d="M1056.3,152l-7.1,51.5c-11.4,82.8-13.4,166.8-6,250.1l13.1,147.2l-99.8-4.1c-15.9-0.6-31.7-1.9-47.5-3.8
						l-40.9-4.8c-20.1-2.4-40-5.7-59.8-10.1L729,560.6c-19.5-4.3-39.4-6.1-59.3-5.6h0c-18.9,0.5-37.7,3.3-56,8.2l-14.5,3.9"/>
					<path class="st8" d="M1052.4,146.8l-7.1,51.5c-11.4,82.8-13.4,166.8-6,250.1l13.1,147.2l-99.8-4.1c-15.9-0.6-31.7-1.9-47.5-3.8
						l-40.9-4.8c-20.1-2.4-40-5.7-59.8-10.1l-79.3-17.4c-19.5-4.3-39.4-6.1-59.3-5.6h0c-18.9,0.5-37.7,3.3-56,8.2l-14.5,3.9"/>
					<path class="st8" d="M1048.5,141.6l-7.1,51.5c-11.4,82.8-13.4,166.8-6,250.1l13.1,147.2l-99.8-4.1c-15.9-0.6-31.7-1.9-47.5-3.8
						l-40.9-4.8c-20.1-2.4-40-5.7-59.8-10.1l-79.3-17.4c-19.5-4.3-39.4-6.1-59.3-5.6h0c-18.9,0.5-37.7,3.3-56,8.2l-14.5,3.9"/>
					<path class="st8" d="M1041.8,137l-9.6,108.3c-4.4,50.1-5.1,100.5-2,150.7l11.7,189.9l-93.1-4c-16.9-0.7-33.7-2.2-50.4-4.3
						l-52.1-6.8c-20.4-2.7-40.6-6.4-60.7-11.2l-79.5-19c-14.6-3.5-29.5-5.2-44.5-5h0c-17.5,0.2-34.9,2.9-51.8,8.1l-25.7,7.9"/>
					<path class="st8" d="M1036.7,133.2l-10.2,139.3c-3,41.1-3.3,82.4-0.9,123.5l11.1,186.6l-96.3-4.9c-16.5-0.8-32.9-2.5-49.3-5
						l-56.6-8.5c-22.7-3.4-45.2-8.4-67.3-14.9l-77.2-22.7c-16.4-4.8-33.5-6.1-50.3-3.7l0,0c-17.5,2.5-34.4,8.8-49.5,18.6l-13.4,8.7"
						/>
					<path class="st8" d="M1031.4,129.1l-9.9,122.4c-4.2,52.3-4.7,105-1.2,157.4l11.1,169.8L931,573.2c-23.2-1.2-46.2-4.3-69-9
						L798.4,551c-17.6-3.7-34.9-8.3-52-14l-60.9-20.2c-17.4-5.8-36-6.8-53.9-2.8h0c-15.6,3.4-30.4,10.5-43.1,20.8l-16.9,13.6"/>
					<path class="st8" d="M1022.8,122.4l-9.8,154.1c-2.2,34.9-2.4,69.9-0.5,104.8l10.3,193l-92.3-5.8c-21.5-1.4-42.9-4.3-64.1-8.9
						l-61.9-13.3c-21-4.5-41.7-10.6-62-18.2l-55.9-21c-17.9-6.7-37.1-8-55.7-3.8h0c-20.3,4.6-38.8,15.6-53.1,31.6L565.2,549"/>
					<path class="st8" d="M1016.6,111.8l-7.7,97.5c-4.3,54-5,108.4-2.3,162.5l10,195.5l-98.6-5.2c-22.5-1.2-45-4.3-67.2-9.4
						l-47.6-10.8c-23.2-5.3-46.1-12.6-68.5-22l-53-22.2c-15.9-6.6-32.7-8.7-49.3-5.9h0c-18.3,3-35.7,11.8-50.8,25.5l-21.8,28.3"/>
					<path class="st8" d="M1009.2,95.2l-6.7,85.2c-5.3,67.7-6.1,135.8-2.5,203.7l9.2,172.8l-94.8-4.8c-16.3-0.8-32.5-3-48.6-6.4
						l-58.1-12.5c-24.5-5.3-48.6-13.6-72-24.8l-55.5-26.7c-16.9-8.1-35.2-10.2-53-5.9h0c-21.9,5.3-41.8,19.9-56.4,41.5l-16.1,29.5"
						/>
					<path class="st9" d="M549.1,117.4l16.7-31.3c12.7-23.9,31.8-41.2,53.6-48.5l0,0c18.4-6.2,37.9-5,55.8,3.5L742.8,73
						c25.2,11.9,51.2,21.3,77.5,27.9l23.4-17.4c27.7,7,55.8,11.1,84,12.1l75.4-13.4L993.4,196c-5.2,60.2-5.8,121-1.7,181.4
						l11.5,171.5l-75.4-2.8c-28.2-1.1-56.3-5.1-84-12.1l-23.4-5.9c-26.4-6.7-52.3-16-77.5-27.9l-67.6-31.9
						c-17.9-8.4-37.4-9.7-55.8-3.5h0c-21.8,7.3-40.8,24.5-53.6,48.5l-16.7,33.6"/>
					<path class="st9" d="M980.4,510.1l14.6-7.4l-6.4-76.3c-6.9-81.7-6.9-163.8-0.1-245.5l9.8-117.3l-40.6,8.5v14.6L945,74.7
						l-11.3,2.4c-5.6,1.2-47.3,1.7-90.7-4.1c-46.7-6.3-95.4-19.2-103.2-23.1h0L679,19c-14.4-7.3-30-10.2-45.4-8.5h0
						c-36.2,4.1-67.8,33.3-82.4,76.2l-7.6,22.4l0,435.9c0,0.4,0.5,0.4,0.6,0.1l7-20.6c14.6-42.8,46.2-72,82.4-76.2h0
						c15.5-1.8,31,1.1,45.4,8.5l60.8,30.9l21.2,10.7c27.4,13.8,55.8,23.8,84.7,30l11.3,2.4c31.6,6.8,31.5,10.1,63.6,10.1h77.6
						l-2.1-24.3L980.4,510.1z"/>
					<path class="st10" d="M551.2,86.7l9.4,142.4c2.6,39.7,3.2,79.5,1.6,119.3l-6.4,161.7l-12.2,34.9l-1.8-435L551.2,86.7z"/>
					<path class="st8" d="M980.4,510.1l14.6-7.4l-6.4-76.3c-6.9-81.7-6.9-163.8-0.1-245.5l9.8-117.3l-40.6,8.5v14.6L945,74.7
						l-11.3,2.4c-5.6,1.2-47.3,1.7-90.7-4.1c-46.7-6.3-95.4-19.2-103.2-23.1h0L679,19c-14.4-7.3-30-10.2-45.4-8.5h0
						c-36.2,4.1-67.8,33.3-82.4,76.2l-7.6,22.4l0,435.9c0,0.4,0.5,0.4,0.6,0.1l7-20.6c14.6-42.8,46.2-72,82.4-76.2h0
						c15.5-1.8,31,1.1,45.4,8.5l60.8,30.9l21.2,10.7c27.4,13.8,55.8,23.8,84.7,30l11.3,2.4c31.6,6.8,31.5,10.1,63.6,10.1h77.6
						l-2.1-24.3L980.4,510.1z"/>
				</g>
				<g>
					<path class="st11" d="M936.5,195.1c1.5,3.8,2.3,7.9,2.4,11.9l2.3,131.7l3.6,108.6c0.6,16.8-11.1,31.6-27.6,35l-11,2.3
						c-4.4,0.9-8.9,0.9-13.3,0.1l-86.7-16.3c-2.8-0.5-5.6-1.4-8.2-2.6l-74.2-34.5c-3.3-1.5-6.9-2.6-10.5-3l-79.2-9.3
						c-2.5-0.3-5-0.3-7.4-0.1l0,0c-19.9,2-37.2-13.3-37.9-33.2l-2.3-66.7c0-1.1,0-2.3,0.1-3.4l6.3-97.8c0.1-2.1,0.5-4.1,1-6.1
						l23.2-92.9c2-7.9,6.7-14.9,13.3-19.7l22.8-16.4c3.8-2.8,8.2-4.7,12.9-5.7l35.9-7.8c6.4-1.4,13.1-0.9,19.2,1.4l46.2,17
						c2.5,0.9,5,1.5,7.6,1.9l42.8,5.4c0.7,0.1,1.3,0.2,2,0.3l57.3,10.7c5.9,1.1,11.4,3.7,15.9,7.6l10.6,9c4.4,3.7,7.8,8.5,9.9,13.8
						L936.5,195.1z"/>
					<path class="st12" d="M916.4,204.8c1.3,3.3,2,6.9,2.1,10.5l2,115.6l3.2,95.3c0.5,14.8-9.7,27.7-24.2,30.7l-9.7,2
						c-3.9,0.8-7.8,0.8-11.7,0.1L802,444.6c-2.5-0.5-4.9-1.2-7.2-2.3l-65.1-30.3c-2.9-1.4-6-2.2-9.2-2.6l-69.5-8.2
						c-2.2-0.3-4.3-0.3-6.5-0.1l0,0c-17.4,1.7-32.7-11.6-33.3-29.1l-2-58.6c0-1,0-2,0-3l5.6-85.8c0.1-1.8,0.4-3.6,0.8-5.4l20.4-81.6
						c1.7-7,5.9-13.1,11.7-17.3l20-14.4c3.4-2.4,7.2-4.1,11.3-5l31.5-6.8c5.6-1.2,11.5-0.8,16.9,1.2l40.6,15
						c2.2,0.8,4.4,1.3,6.7,1.6l37.5,4.8c0.6,0.1,1.2,0.2,1.8,0.3l50.3,9.4c5.2,1,10,3.3,14,6.6l9.3,7.9c3.9,3.3,6.8,7.4,8.7,12.1
						L916.4,204.8z"/>
					<path class="st13" d="M893.5,216c1.1,2.8,1.7,5.8,1.7,8.8l1.7,97.2l2.7,80.1c0.4,12.4-8.2,23.3-20.4,25.8l-8.1,1.7
						c-3.2,0.7-6.6,0.7-9.8,0.1l-63.9-12c-2.1-0.4-4.1-1-6-1.9l-54.8-25.4c-2.5-1.1-5.1-1.9-7.8-2.2l-58.4-6.9
						c-1.8-0.2-3.7-0.2-5.5-0.1h0c-14.7,1.4-27.5-9.8-28-24.5l-1.7-49.2c0-0.8,0-1.7,0-2.5l4.7-72.2c0.1-1.5,0.3-3,0.7-4.5
						l17.1-68.6c1.5-5.9,5-11,9.8-14.5l16.8-12.1c2.8-2,6.1-3.5,9.5-4.2l26.5-5.7c4.7-1,9.7-0.7,14.2,1l34.1,12.6
						c1.8,0.7,3.7,1.1,5.6,1.4l31.5,4c0.5,0.1,1,0.1,1.5,0.2l42.3,7.9c4.3,0.8,8.4,2.7,11.8,5.6l7.8,6.6c3.2,2.7,5.8,6.3,7.3,10.2
						L893.5,216z"/>
				</g>
			</g>
			<g>
				<path class="st6" d="M495.1,569.4l-142.2-2.7c-10.1-0.2-20.2,0.4-30.2,1.8l-119.5,16.4c-8.8,1.2-17.7,2-26.6,2.4l-113.6,4.6
					l16-189.6c2.5-29.8,2.4-59.8-0.2-89.6L64.4,150.1l437.5-15.2L495.1,569.4z"/>
				<g>
					<path class="st7" d="M84.6,300.1L73.2,146.8l7.1-0.4l-0.6-7.5l5.6-0.3l-0.5-6.8l6.5-0.3l-0.4-5.7h4.4l-0.4-5.1l4.4-0.5l44.8-1
						L146,143l19.1-1c11-0.6,21.9-1.5,32.9-2.8l44.8-5.2l137.1-19.2c16.1-2.3,32.5-2.7,48.7-1.2h0c27.5,2.5,54.3,10.3,78.8,23
						l8.6,4.5v285l25.4,0.4l0.4,121l-4.1,5.1l-4.1,5.1l-6.1,6.1l-5.1,7.1l-6.5,7.9l-20.9-9.3c0,0-43.5-16.1-66.5-18.2l0,0
						c-16.2-1.5-32.6-1.1-48.7,1.2l-137.1,19.2l-44.8,5.2c-10.9,1.3-21.9,2.2-32.9,2.8l-91.8,4.8L85,407.7
						C87.4,371.8,87.2,335.9,84.6,300.1z"/>
					<path class="st9" d="M79.8,138.9l11.4,153.3c2.7,35.8,2.8,71.7,0.4,107.6L79.8,576.4l91.8-4.8c11-0.6,21.9-1.5,32.9-2.8
						l44.8-5.2l137.1-19.2c16.1-2.3,32.5-2.7,48.7-1.2h0c27.5,2.5,54.3,10.3,78.8,23l8.6,4.5"/>
					<path class="st9" d="M84.9,131.8l11.4,153.3c2.7,35.8,2.8,71.7,0.4,107.6L84.9,569.3l91.8-4.8c11-0.6,21.9-1.5,32.9-2.8
						l44.8-5.2l137.1-19.2c16.1-2.3,32.5-2.7,48.7-1.2l0,0c27.5,2.5,54.3,10.3,78.8,23l8.6,4.5"/>
					<path class="st9" d="M90.9,125.7L102.3,279c2.7,35.8,2.8,71.7,0.4,107.6L90.9,563.2l91.8-4.8c11-0.6,21.9-1.5,32.9-2.8
						l44.8-5.2l137.1-19.2c16.1-2.3,32.5-2.7,48.7-1.2h0c27.5,2.5,54.3,10.3,78.8,23l8.6,4.5"/>
					<path class="st9" d="M537.7,115l-8.6-4.5c-24.5-12.7-51.3-20.6-78.8-23l0,0c-16.2-1.5-32.6-1.1-48.7,1.2l-137.1,19.2l-44.8,5.2
						c-10.9,1.3-21.9,2.2-32.9,2.8L95,120.6l11.4,153.3c2.7,35.8,2.8,71.7,0.4,107.6L95,558.2l91.8-4.8c11-0.6,21.9-1.5,32.9-2.8
						l44.8-5.2l137.1-19.2c16.1-2.3,32.5-2.7,48.7-1.2h0c27.5,2.5,54.3,10.3,78.8,23l8.6,4.5"/>
					<path class="st9" d="M533.2,105.4c-24.5-12.7-51.3-20.6-78.8-23h0c-1.4-0.1-2.8-0.2-4.2-0.3l-7,26l-11.4-26.5
						c-8.7,0.1-17.4,0.8-26.1,2l-137.1,19.2l-44.8,5.2c-10.9,1.3-21.9,2.2-32.9,2.8L99,115.6l11.4,153.3
						c2.7,35.8,2.8,71.7,0.4,107.6L99,553.1l26.1-1.4l4.9-26.7l12.6,16l7.1-6.3l-2.7,11.9l3,3.8l40.8-2.1c11-0.6,21.9-1.5,32.9-2.8
						l44.8-5.2l137.1-19.2c16.1-2.3,32.5-2.7,48.7-1.2h0c27.5,2.5,54.3,10.3,78.8,23l7.5,3.9c0.5,0.3,1.1-0.1,1.1-0.7V109.9
						L533.2,105.4z"/>
					<path class="st10" d="M533.2,105.4l-6.5,164.8c-1,26.2-1.1,52.5-0.2,78.8l6.7,193.9l8.6,4.5V109.9L533.2,105.4z"/>
					<path class="st8" d="M533.2,105.4c-24.5-12.7-51.3-20.6-78.8-23h0c-1.4-0.1-2.8-0.2-4.2-0.3l-7,26l-11.4-26.5
						c-8.7,0.1-17.4,0.8-26.1,2l-137.1,19.2l-44.8,5.2c-10.9,1.3-21.9,2.2-32.9,2.8L99,115.6l11.4,153.3
						c2.7,35.8,2.8,71.7,0.4,107.6L99,553.1l26.1-1.4l4.9-26.7l12.6,16l7.1-6.3l-2.7,11.9l3,3.8l40.8-2.1c11-0.6,21.9-1.5,32.9-2.8
						l44.8-5.2l137.1-19.2c16.1-2.3,32.5-2.7,48.7-1.2h0c27.5,2.5,54.3,10.3,78.8,23l7.5,3.9c0.5,0.3,1.1-0.1,1.1-0.7V109.9
						L533.2,105.4z"/>
				</g>
				<g>
					<path class="st11" d="M165.5,227c-1.8,3.7-3,7.6-3.4,11.7l-13.6,131l-12.9,107.9c-2,16.7,8.3,32.4,24.5,37.2l10.8,3.2
						c4.3,1.3,8.8,1.7,13.3,1.3l87.7-8.8c2.9-0.3,5.7-0.9,8.4-1.9l76.9-28c3.4-1.3,7.1-1.9,10.7-2.1l79.7-2.5c2.5-0.1,5,0.1,7.4,0.6
						h0c19.6,3.7,38.2-10,40.6-29.8l8-66.3c0.1-1.1,0.2-2.3,0.2-3.4l2.1-98c0-2.1-0.1-4.2-0.4-6.2l-15.1-94.6
						c-1.3-8.1-5.4-15.4-11.6-20.7l-21.3-18.3c-3.6-3.1-7.8-5.4-12.3-6.8L410,121.7c-6.3-1.9-13-2-19.3-0.3l-47.5,13
						c-2.5,0.7-5.1,1.1-7.7,1.2l-43.1,1.7c-0.7,0-1.4,0.1-2,0.1l-58,5.7c-6,0.6-11.7,2.7-16.5,6.2l-11.4,8c-4.7,3.3-8.5,7.8-11,12.9
						L165.5,227z"/>
					<path class="st12" d="M184.6,238.4c-1.6,3.2-2.6,6.7-3,10.3l-11.9,115l-11.4,94.7c-1.8,14.7,7.3,28.5,21.5,32.7l9.4,2.8
						c3.8,1.1,7.7,1.5,11.6,1.1l77-7.7c2.5-0.3,5-0.8,7.3-1.7l67.5-24.5c3-1.1,6.2-1.7,9.4-1.8l69.9-2.2c2.2-0.1,4.4,0.1,6.5,0.5h0
						c17.2,3.2,33.6-8.8,35.7-26.2l7-58.2c0.1-1,0.2-2,0.2-3l1.8-86c0-1.8-0.1-3.6-0.4-5.4l-13.3-83c-1.1-7.1-4.7-13.5-10.2-18.2
						l-18.7-16c-3.2-2.7-6.8-4.7-10.8-6l-30.8-9.5c-5.5-1.7-11.4-1.8-16.9-0.3l-41.7,11.4c-2.2,0.6-4.5,1-6.8,1l-37.8,1.5
						c-0.6,0-1.2,0.1-1.8,0.1l-50.9,5c-5.2,0.5-10.2,2.4-14.5,5.4l-10,7.1c-4.1,2.9-7.5,6.8-9.7,11.4L184.6,238.4z"/>
					<path class="st13" d="M206.4,251.5c-1.3,2.7-2.2,5.6-2.5,8.6l-10,96.7l-9.5,79.6c-1.5,12.3,6.2,23.9,18.1,27.5l7.9,2.4
						c3.2,0.9,6.5,1.3,9.8,0.9l64.7-6.5c2.1-0.2,4.2-0.7,6.2-1.4l56.7-20.6c2.5-0.9,5.2-1.4,7.9-1.5l58.8-1.8
						c1.8-0.1,3.7,0.1,5.5,0.4l0,0c14.5,2.7,28.2-7.4,30-22l5.9-48.9c0.1-0.8,0.2-1.7,0.2-2.5l1.6-72.3c0-1.5-0.1-3.1-0.3-4.6
						l-11.2-69.8c-1-6-4-11.4-8.6-15.3l-15.7-13.5c-2.7-2.3-5.8-4-9.1-5l-25.9-8c-4.6-1.4-9.6-1.5-14.2-0.2l-35.1,9.6
						c-1.9,0.5-3.8,0.8-5.7,0.9l-31.8,1.3c-0.5,0-1,0.1-1.5,0.1l-42.8,4.2c-4.4,0.4-8.6,2-12.2,4.6l-8.4,5.9
						c-3.5,2.5-6.3,5.7-8.1,9.5L206.4,251.5z"/>
				</g>
			</g>
			<g>
				<path class="st14" d="M603.5,586.3c1,0,2-0.3,2.9-0.9c2.6-1.6,3.4-5.1,1.8-7.7l-6.4-10.1c-8.8-14.1-24.6-22.7-41.3-22.4
					c-16.1,0.3-30.9,8.5-39.5,22.1l-7.5,11.8c-1.7,2.6-0.9,6,1.7,7.7c2.6,1.6,6,0.9,7.7-1.7l7.5-11.8c6.6-10.4,18-16.8,30.3-17
					c12.7-0.2,24.9,6.4,31.6,17.2l6.4,10.1C599.8,585.4,601.6,586.3,603.5,586.3z"/>
			</g>
		</g>
	</g>
	<g class="st15">
		<g class="st16">
			<path class="st0" d="M1090.3,150.7c0.7-8.5-6-15.7-14.5-15.7H629.4H486.6H40.2c-8.5,0-15.2,7.3-14.5,15.7L14.3,613
				c-0.7,9.1,7,16.6,16,15.6l129.4-13.5c41.7-4.3,83.7-6.9,125.6-7.5l207.8-3.3c0,0,10.8-13.4,22.9,2.5h0c25,7.4,51.4,8.1,76.8,2.2
				l14-3.3c0,0,10.8-15.3,21.3-1.2l202.6,3.2c42,0.7,83.9,3.2,125.6,7.5l129.4,13.5c9,0.9,16.7-6.5,16-15.6L1090.3,150.7z"/>
			<path class="st1" d="M1077.4,152.1c0.7-8.5-6-15.8-14.5-15.8H627.6H488.4H53.2c-8.5,0-15.2,7.3-14.5,15.8L27.5,598.9
				c-0.7,9.1,7,16.6,16,15.6l125.8-13c40.7-4.2,81.6-6.6,122.6-7.3l202.7-3.2c0,0,12-12.7,22.3,2.4h0c24.4,7.2,50.2,7.9,74.9,2.1
				l13.7-3.2c0,0,12-10.7,20.7-1.2l197.7,3.1c41,0.7,81.9,3.1,122.6,7.3l125.8,13c9,0.9,16.7-6.6,16-15.6L1077.4,152.1z"/>
			<g>
				<path class="st2" d="M1099,602.4c-6.2-6.2-6.2-16.1,0-22.3c2.7-2.7,6-4.2,9.5-4.5c-2-5-1.6-9.7-5.2-13.6l-11.6-359.4
					c4.3-4.3,4.4-9.5,6.7-15.3c-3.5-0.4-6.8-1.9-9.5-4.5c-6.2-6.2-6.2-16.1,0-22.3c2.9-2.9,6.7-4.5,10.5-4.6
					c-4.6-14.1-15.7-25.2-29.8-29.8c-0.1,3.8-1.7,7.6-4.6,10.5c-6.2,6.2-16.1,6.2-22.3,0c-2.7-2.7-4.2-6-4.5-9.5
					c-17.1,6.8-29.1,23.5-29.1,43h35.2l-9.1,20.2l20.2-9.1v35.2c8.4,0,16.3-2.2,23.1-6.2l11.8,343.5c-7.2-4.6-15.7-7.2-24.8-7.2
					v35.2l-20.2-9.1l9.1,20.2h-35.2c0,19.5,12,36.2,29.1,43c0.4-3.5,1.9-6.8,4.5-9.5c6.2-6.2,16.1-6.2,22.3,0
					c2.9,2.9,4.5,6.7,4.6,10.5c14.1-4.6,25.2-15.7,29.8-29.8C1105.7,606.9,1101.9,605.4,1099,602.4z"/>
				<path class="st3" d="M1084.7,145.1c1.2,1.7,2.2,3.5,2.9,5.5v0"/>
				<path class="st3" d="M1076.1,138.3l1.8,0.9c0.9,0.4,1.7,1,2.4,1.5"/>
				<path class="st3" d="M1091.3,190.2l-0.3,0.9c-0.7,2.3-1.9,4.4-3.5,6.2l0,0"/>
				<line class="st3" x1="1072.4" y1="206.6" x2="1069.3" y2="208.7"/>
				<line class="st3" x1="1088.2" y1="296.3" x2="1087.8" y2="307.2"/>
				<line class="st3" x1="1088.7" y1="277.4" x2="1088.4" y2="288.9"/>
				<line class="st3" x1="1089.3" y1="261" x2="1089.1" y2="267.3"/>
				<path class="st3" d="M1071.2,551.5l2.4,0.4c3.7,0.6,7.3,2.2,10.3,4.6l0,0"/>
			</g>
			<g>
				<path class="st2" d="M16,602.8c6.2-6.2,6.2-16.1,0-22.3c-2.7-2.7-6-4.2-9.5-4.5c2-5,1.6-9.7,5.2-13.6L23.4,203
					c-4.3-4.3-4.4-9.5-6.7-15.3c3.5-0.4,6.8-1.9,9.5-4.5c6.2-6.2,6.2-16.1,0-22.3c-2.9-2.9-6.7-4.5-10.5-4.6
					c4.6-14.1,15.7-25.2,29.8-29.8c0.1,3.8,1.7,7.6,4.6,10.5c6.2,6.2,16.1,6.2,22.3,0c2.7-2.7,4.2-6,4.5-9.5
					c17.1,6.8,29.1,23.5,29.1,43H70.7l9.1,20.2l-20.2-9.1v35.2c-8.4,0-16.3-2.2-23.1-6.2L24.7,554.1c7.2-4.6,15.7-7.2,24.8-7.2v35.2
					l20.2-9.1l-9.1,20.2h35.2c0,19.5-12,36.2-29.1,43c-0.4-3.5-1.9-6.8-4.5-9.5c-6.2-6.2-16.1-6.2-22.3,0c-2.9,2.9-4.5,6.7-4.6,10.5
					c-14.1-4.6-25.2-15.7-29.8-29.8C9.3,607.3,13.1,605.7,16,602.8z"/>
				<path class="st3" d="M28.7,143.9c-1.8,1.8-3.4,3.8-4.8,5.9l-0.6,0.8"/>
				<path class="st3" d="M40.2,135L40.2,135c-2,1.1-4,2.4-5.8,3.8"/>
				<line class="st3" x1="25.6" y1="372.6" x2="24.2" y2="387"/>
				<line class="st3" x1="28.1" y1="353.7" x2="26.7" y2="363.5"/>
			</g>
			<path class="st4" d="M597.7,268l-75.2,1.8l-4.4,312.4h0c25.8,7.2,53.2,7.9,79.4,2.1L597.7,268z"/>
			<path class="st5" d="M597.7,250.8l-75.2,1.8L518.1,565h0c25.8,7.2,53.2,7.9,79.4,2.1L597.7,250.8z"/>
			<g>
				<path class="st5" d="M494.7,585.9c-2.1-29.4-3-58.7-3.5-88.1c-0.5-29.4-0.5-58.7-0.1-88c0.4-29.3,1.2-58.7,2.4-88
					c1.3-29.3,3-58.7,5.9-88c2.1,29.4,3,58.7,3.6,88.1c0.5,29.4,0.5,58.7,0.1,88c-0.4,29.3-1.2,58.7-2.5,88
					C499.3,527.3,497.6,556.6,494.7,585.9z"/>
			</g>
			<g>
				<path class="st5" d="M626.4,586c-2.9-29.3-4.6-58.6-6-88c-1.3-29.3-2.1-58.7-2.6-88c-0.4-29.3-0.4-58.7,0-88.1
					c0.5-29.4,1.4-58.7,3.5-88.1c2.9,29.3,4.6,58.6,6,88c1.3,29.3,2.1,58.7,2.5,88c0.4,29.4,0.4,58.7,0,88.1
					C629.3,527.3,628.4,556.6,626.4,586z"/>
			</g>
		</g>
		<g class="st16">
			<g>
				<path class="st6" d="M493.4,573.2l-146,19.6c-10.4-0.2-20.7,0.4-31,1.8l-122.7,16.7c-9.1,1.2-18.2,2-27.3,2.4l-116.6,4.7
					l16.5-193.3c2.6-30.4,2.5-61-0.2-91.3L51,168.2l449.3-15.5L493.4,573.2z"/>
				<g>
					<path class="st7" d="M579.6,468.6l-63.6-339.9l-14.5-3.9c-18.4-4.9-37.3-7.7-56.3-8.2h0c-20-0.6-40,1.3-59.6,5.6l-79.7,17.4
						c-19.8,4.3-39.9,7.7-60,10.1l-41.1,4.9c-15.9,1.9-31.8,3.1-47.7,3.8l-0.7,0l-3.2-78.7l-28.7,1.1l-6.5,0.2l1.1,12.6L112,94
						l1.3,16.2l-8.7,0.5l0.8,10.1l-7.1,0.4l0.4,6.2l-9,0.5l0.3,3.9l-5.6,0.3l0.3,3.6l-5.4,0.2l0.4,4.2l-7.2,0.3l0.7,5l-4.6,0.2
						l0.6,4.3l-4.5,0.9l0.7,5l-4.6,0.2l0.8,6.1l-4.8,0.2l7.1,51.7c11.4,83.2,13.4,167.5,6,251.2L56.9,613.1l100.2-4.1
						c16-0.7,31.9-1.9,47.7-3.8l41.1-4.9c20.1-2.4,40.2-5.8,60-10.1l79.7-17.4c19.6-4.3,39.6-6.2,59.6-5.6h0
						c19,0.5,37.8,3.3,56.3,8.2l14.5,3.9l3.9-6.3l3.9-5.2l3.9-5.2l3.9-5.2l7.3-5l7.2-1.7l5.3-1.7l6.5,0.6l5.5-3.3l5,1.2h5.6h5.6
						L579.6,468.6z"/>
					<path class="st8" d="M60.8,156.2l7.1,51.7c11.4,83.2,13.4,167.5,6,251.2L60.8,606.9l100.2-4.1c16-0.7,31.9-1.9,47.7-3.8
						l41.1-4.9c20.1-2.4,40.2-5.8,60-10.1l79.7-17.4c19.6-4.3,39.6-6.2,59.6-5.6h0c19,0.5,37.8,3.3,56.3,8.2l14.5,3.9"/>
					<path class="st8" d="M64.7,151l7.1,51.7c11.4,83.2,13.4,167.5,6,251.2L64.7,601.7l100.2-4.1c16-0.7,31.9-1.9,47.7-3.8l41.1-4.9
						c20.1-2.4,40.2-5.8,60-10.1l79.7-17.4c19.6-4.3,39.6-6.2,59.6-5.6h0c19,0.5,37.8,3.3,56.3,8.2l14.5,3.9"/>
					<path class="st8" d="M68.6,145.7l7.1,51.7c11.4,83.2,13.4,167.5,6,251.2L68.6,596.4l100.2-4.1c16-0.7,31.9-1.9,47.7-3.8
						l41.1-4.9c20.1-2.4,40.2-5.8,60-10.1l79.7-17.4c19.6-4.3,39.6-6.2,59.6-5.6h0c19,0.5,37.8,3.3,56.3,8.2l14.5,3.9"/>
					<path class="st8" d="M72.5,140.5l7.1,51.7c11.4,83.2,13.4,167.5,6,251.2L72.5,591.2l100.2-4.1c16-0.7,31.9-1.9,47.7-3.8
						l41.1-4.9c20.1-2.4,40.2-5.8,60-10.1l79.7-17.4c19.6-4.3,39.6-6.2,59.6-5.6h0c19,0.5,37.8,3.3,56.3,8.2l14.5,3.9"/>
					<path class="st8" d="M79.3,136L89,244.8c4.5,50.3,5.2,100.9,2.1,151.3L79.3,586.8l93.5-4c16.9-0.7,33.8-2.2,50.7-4.4l52.3-6.8
						c20.5-2.7,40.8-6.4,60.9-11.2l79.8-19.1c14.7-3.5,29.7-5.2,44.7-5h0c17.6,0.2,35.1,2.9,52,8.1l25.8,7.9"/>
					<path class="st8" d="M84.5,132.2L94.7,272c3,41.3,3.3,82.7,0.9,124L84.5,583.4l96.7-4.9c16.6-0.8,33.1-2.5,49.5-5l56.8-8.6
						c22.8-3.4,45.4-8.4,67.5-15l77.5-22.8c16.4-4.8,33.6-6.1,50.5-3.8h0c17.6,2.5,34.5,8.8,49.7,18.7l13.5,8.7"/>
					<path class="st8" d="M89.7,128l10,123c4.3,52.6,4.7,105.4,1.2,158L89.7,579.5l100.8-5.4c23.3-1.3,46.4-4.3,69.3-9l63.8-13.3
						c17.6-3.7,35.1-8.4,52.3-14.1l61.1-20.3c17.5-5.8,36.1-6.8,54.1-2.9h0c15.7,3.5,30.5,10.6,43.3,20.9l17,13.7"/>
					<path class="st8" d="M98.4,121.2l9.9,154.7c2.2,35,2.4,70.2,0.5,105.2L98.4,575l92.7-5.8c21.6-1.4,43.1-4.3,64.3-8.9l62.1-13.4
						c21.1-4.5,41.9-10.6,62.2-18.3l56.1-21.1c17.9-6.7,37.3-8.1,55.9-3.9l0,0c20.4,4.6,38.9,15.7,53.3,31.7l12.8,14.3"/>
					<path class="st8" d="M104.6,110.7l7.8,97.9c4.3,54.2,5.1,108.8,2.3,163.2l-10.1,196.3l99-5.3c22.6-1.2,45.2-4.3,67.5-9.4
						l47.8-10.9c23.3-5.3,46.3-12.7,68.8-22.1l53.3-22.3c16-6.7,32.9-8.7,49.5-5.9h0c18.4,3.1,35.9,11.8,51,25.6l21.9,28.4"/>
					<path class="st8" d="M112,94l6.7,85.6c5.3,68,6.2,136.4,2.5,204.6L112,557.7l95.2-4.9c16.4-0.8,32.7-3,48.8-6.5l58.4-12.6
						c24.6-5.3,48.8-13.6,72.3-24.9l55.7-26.8c17-8.2,35.4-10.2,53.2-5.9h0c22,5.3,42,20,56.7,41.7l16.2,29.6"/>
					<path class="st9" d="M574.1,116.2l-16.7-31.4c-12.8-24-31.9-41.3-53.8-48.7l0,0c-18.5-6.2-38.1-5-56,3.5l-67.9,32.1
						c-25.3,12-51.4,21.3-77.9,28.1l-23.5-17.5c-27.8,7-56,11.1-84.4,12.2L118.1,81l9.9,114.2c5.2,60.5,5.8,121.5,1.7,182.2
						l-11.6,172.3l75.7-2.8c28.3-1.1,56.6-5.1,84.4-12.2l23.5-6c26.5-6.7,52.5-16.1,77.9-28.1l67.9-32.1c18-8.5,37.5-9.7,56-3.5h0
						c21.9,7.4,41,24.6,53.8,48.7l16.7,33.8"/>
					<path class="st9" d="M579.7,107.9L572,85.4c-12.5-36.7-37.4-63.4-67-73l-5.8,7.2l-2.3-9.4c-2.5-0.5-5.1-1-7.6-1.3h0
						c-15.5-1.8-31.1,1.1-45.6,8.5l-61.1,31.1h0c-7.9,4-56.7,16.9-103.6,23.2c-43.6,5.9-85.4,5.3-91,4.1l-39.7-8.3l-7.6,4.9l0.5-6.4
						l-18-3.8l9.8,117.8c6.8,82,6.8,164.5-0.1,246.6l-9.7,115h50.7l4.7-13.2l8.6,13.2h14c32.2,0,32.1-3.4,63.8-10.2l11.4-2.4
						c29.1-6.2,57.6-16.3,85.1-30.1l21.3-10.7l61.1-31.1c14.5-7.4,30.1-10.3,45.6-8.5h0c36.4,4.2,68.1,33.5,82.8,76.5l7.1,20.7
						c0.1,0.3,0.6,0.3,0.6-0.1L579.7,107.9z"/>
					<path class="st10" d="M572,85.4l-9.5,143c-2.6,39.9-3.2,79.9-1.6,119.8l6.5,162.4l12.3,35l1.8-436.9L572,85.4z"/>
					<path class="st8" d="M579.7,107.9L572,85.4c-12.5-36.7-37.4-63.4-67-73l-5.8,7.2l-2.3-9.4c-2.5-0.5-5.1-1-7.6-1.3h0
						c-15.5-1.8-31.1,1.1-45.6,8.5l-61.1,31.1h0c-7.9,4-56.7,16.9-103.6,23.2c-43.6,5.9-85.4,5.3-91,4.1l-39.7-8.3l-7.6,4.9l0.5-6.4
						l-18-3.8l9.8,117.8c6.8,82,6.8,164.5-0.1,246.6l-9.7,115h50.7l4.7-13.2l8.6,13.2h14c32.2,0,32.1-3.4,63.8-10.2l11.4-2.4
						c29.1-6.2,57.6-16.3,85.1-30.1l21.3-10.7l61.1-31.1c14.5-7.4,30.1-10.3,45.6-8.5h0c36.4,4.2,68.1,33.5,82.8,76.5l7.1,20.7
						c0.1,0.3,0.6,0.3,0.6-0.1L579.7,107.9z"/>
				</g>
				<g>
					<path class="st11" d="M185.1,194.3c-1.5,3.8-2.3,7.9-2.4,12l-2.3,132.2l-3.6,109c-0.6,16.9,11.1,31.7,27.7,35.1l11,2.3
						c4.4,0.9,9,0.9,13.4,0.1l87-16.4c2.8-0.5,5.6-1.4,8.2-2.6l74.5-34.6c3.3-1.6,6.9-2.6,10.6-3l79.5-9.3c2.5-0.3,5-0.3,7.5-0.1h0
						c19.9,2,37.4-13.3,38.1-33.3l2.3-67c0-1.1,0-2.3-0.1-3.4l-6.4-98.2c-0.1-2.1-0.5-4.1-1-6.2l-23.3-93.3c-2-8-6.7-15-13.4-19.8
						l-22.9-16.4c-3.9-2.8-8.3-4.7-12.9-5.7l-36-7.8c-6.4-1.4-13.1-0.9-19.3,1.4l-46.4,17.1c-2.5,0.9-5,1.5-7.6,1.9l-42.9,5.4
						c-0.7,0.1-1.3,0.2-2,0.3l-57.5,10.8c-5.9,1.1-11.4,3.7-16,7.6l-10.7,9c-4.4,3.7-7.8,8.5-9.9,13.9L185.1,194.3z"/>
					<path class="st12" d="M205.2,204.1c-1.3,3.4-2,6.9-2.1,10.5l-2,116.1l-3.2,95.7c-0.5,14.8,9.8,27.9,24.3,30.8l9.7,2
						c3.9,0.8,7.9,0.8,11.7,0.1l76.4-14.4c2.5-0.5,4.9-1.2,7.2-2.3l65.4-30.4c2.9-1.4,6.1-2.2,9.3-2.6l69.8-8.2
						c2.2-0.3,4.4-0.3,6.5-0.1h0c17.5,1.7,32.8-11.7,33.4-29.3l2-58.8c0-1,0-2,0-3l-5.6-86.2c-0.1-1.8-0.4-3.6-0.8-5.4l-20.5-81.9
						c-1.7-7-5.9-13.1-11.8-17.3l-20.1-14.4c-3.4-2.4-7.3-4.2-11.3-5L412,93c-5.7-1.2-11.5-0.8-17,1.2l-40.8,15
						c-2.2,0.8-4.4,1.3-6.7,1.6l-37.7,4.8c-0.6,0.1-1.2,0.2-1.8,0.3l-50.5,9.4c-5.2,1-10,3.3-14.1,6.7l-9.4,7.9
						c-3.9,3.3-6.9,7.5-8.7,12.2L205.2,204.1z"/>
					<path class="st13" d="M228.2,215.2c-1.1,2.8-1.7,5.8-1.7,8.9l-1.7,97.6l-2.7,80.5c-0.4,12.5,8.2,23.4,20.5,25.9l8.2,1.7
						c3.3,0.7,6.6,0.7,9.9,0.1l64.2-12.1c2.1-0.4,4.1-1,6-1.9l55-25.5c2.5-1.1,5.1-1.9,7.8-2.2l58.7-6.9c1.8-0.2,3.7-0.2,5.5-0.1h0
						c14.7,1.5,27.6-9.8,28.1-24.6l1.7-49.4c0-0.8,0-1.7,0-2.5l-4.7-72.5c-0.1-1.5-0.3-3.1-0.7-4.6l-17.2-68.9
						c-1.5-5.9-5-11-9.9-14.6l-16.9-12.1c-2.9-2.1-6.1-3.5-9.5-4.2l-26.6-5.7c-4.8-1-9.7-0.7-14.3,1l-34.3,12.6
						c-1.8,0.7-3.7,1.1-5.6,1.4l-31.7,4c-0.5,0.1-1,0.1-1.5,0.2l-42.5,7.9c-4.4,0.8-8.4,2.7-11.8,5.6l-7.9,6.7
						c-3.3,2.8-5.8,6.3-7.3,10.3L228.2,215.2z"/>
				</g>
			</g>
			<g>
				<path class="st6" d="M628.3,570.1l142.8-2.8c10.1-0.2,20.3,0.4,30.3,1.8l120,16.5c8.9,1.2,17.8,2,26.7,2.4l114.1,4.7
					l-16.1-190.4c-2.5-29.9-2.5-60,0.2-90l14.6-163.1l-439.3-15.3L628.3,570.1z"/>
				<g>
					<path class="st7" d="M1040.6,299.7l11.4-154l-7.1-0.4l0.6-7.6l-5.6-0.3l0.5-6.8l-6.5-0.3l0.4-5.8h-4.4l0.4-5.1l-4.4-0.5l-45-1
						l-1.8,24l-19.2-1c-11-0.6-22-1.5-33-2.8l-45-5.2L744,113.6c-16.2-2.3-32.6-2.7-48.9-1.2h0c-27.6,2.5-54.5,10.4-79.1,23.1
						l-8.6,4.5v286.2l-25.5,0.4l-0.4,121.5l4.1,5.1l4.1,5.1l6.1,6.1l5.1,7.1l6.6,7.9l21-9.3c0,0,43.7-16.2,66.8-18.3l0,0
						c16.3-1.5,32.7-1.1,48.9,1.2l137.7,19.3l45,5.2c11,1.3,22,2.2,33,2.8l92.2,4.8l-11.8-177.4
						C1037.8,371.8,1037.9,335.7,1040.6,299.7z"/>
					<path class="st9" d="M1045.4,137.8l-11.4,154c-2.7,36-2.8,72-0.4,108l11.8,177.4l-92.2-4.8c-11-0.6-22-1.5-33-2.8l-45-5.2
						l-137.7-19.3c-16.2-2.3-32.6-2.7-48.9-1.2h0c-27.6,2.5-54.5,10.4-79.1,23.1l-8.6,4.5"/>
					<path class="st9" d="M1040.3,130.7l-11.4,154c-2.7,36-2.8,72-0.4,108l11.8,177.4l-92.2-4.8c-11-0.6-22-1.5-33-2.8l-45-5.2
						L732.4,538c-16.2-2.3-32.6-2.7-48.9-1.2h0c-27.6,2.5-54.5,10.4-79.1,23.1l-8.6,4.5"/>
					<path class="st9" d="M1034.2,124.6l-11.4,154c-2.7,36-2.8,72-0.4,108l11.8,177.4l-92.2-4.8c-11-0.6-22-1.5-33-2.8l-45-5.2
						l-137.7-19.3c-16.2-2.3-32.6-2.7-48.9-1.2h0c-27.6,2.5-54.5,10.4-79.1,23.1l-8.6,4.5"/>
					<path class="st9" d="M585.5,113.8l8.6-4.5c24.6-12.8,51.5-20.6,79.1-23.1l0,0c16.3-1.5,32.7-1.1,48.9,1.2l137.7,19.3l45,5.2
						c11,1.3,22,2.2,33,2.8l92.2,4.8l-11.4,154c-2.7,36-2.8,72-0.4,108l11.8,177.4l-92.2-4.8c-11-0.6-22-1.5-33-2.8l-45-5.2
						l-137.7-19.3c-16.2-2.3-32.6-2.7-48.9-1.2h0c-27.6,2.5-54.5,10.4-79.1,23.1l-8.6,4.5"/>
					<path class="st17" d="M1019.4,492.5l-0.9,20.3c-0.4,9.2-4,18-10.2,24.9h0c-7.6,8.5-18.5,13.3-29.9,13.2l-29.7-0.3"/>
					<path class="st18" d="M1017.4,487.4l-0.9,20.3c-0.4,9.2-4,18-10.2,24.9v0c-7.6,8.5-18.5,13.3-29.9,13.2l-29.7-0.3"/>
					<path class="st9" d="M1014.2,376.4c-0.8-11.6-1.3-23.1-1.5-34.7l-11.2-4.3l11.1-6.8c-0.1-20.8,0.5-41.5,2.1-62.2l11.4-154
						l-92.2-4.8c-11-0.6-22-1.5-33-2.8l-45-5.2l-26.6-3.7l-14.3,9.9l0.6-11.8l-97.3-13.6c-16.2-2.3-32.6-2.7-48.9-1.2h0
						c-27.6,2.5-54.5,10.4-79.1,23.1l-8.6,4.5v438.2c0,0.6,0.6,0.9,1.1,0.7l7.6-3.9c24.6-12.8,51.5-20.6,79.1-23.1h0
						c16.3-1.5,32.7-1.1,48.9,1.2L855.8,541l45,5.2c11,1.3,22,2.2,33,2.8l14.9-0.4c21-0.5,39.6-13.4,47.7-32.8l3.2-7.8h0
						c10.7,1.8,20.3-6.7,19.8-17.5L1014.2,376.4z"/>
					<path class="st10" d="M590.1,104.2l6.6,165.5c1,26.4,1.1,52.7,0.2,79.1l-6.8,194.8l-8.6,4.5V108.7L590.1,104.2z"/>
					<path class="st8" d="M1014.2,376.4c-0.8-11.6-1.3-23.1-1.5-34.7l-11.2-4.3l11.1-6.8c-0.1-20.8,0.5-41.5,2.1-62.2l11.4-154
						l-92.2-4.8c-11-0.6-22-1.5-33-2.8l-45-5.2l-26.6-3.7l-14.3,9.9l0.6-11.8l-97.3-13.6c-16.2-2.3-32.6-2.7-48.9-1.2h0
						c-27.6,2.5-54.5,10.4-79.1,23.1l-8.6,4.5v438.2c0,0.6,0.6,0.9,1.1,0.7l7.6-3.9c24.6-12.8,51.5-20.6,79.1-23.1h0
						c16.3-1.5,32.7-1.1,48.9,1.2L855.8,541l45,5.2c11,1.3,22,2.2,33,2.8l14.9-0.4c21-0.5,39.6-13.4,47.7-32.8l3.2-7.8h0
						c10.7,1.8,20.3-6.7,19.8-17.5L1014.2,376.4z"/>
				</g>
				<g>
					<path class="st11" d="M959.4,226.3c1.8,3.7,3,7.7,3.4,11.8l13.7,131.5l13,108.3c2,16.8-8.4,32.6-24.6,37.4l-10.8,3.2
						c-4.3,1.3-8.8,1.7-13.3,1.3l-88.1-8.8c-2.9-0.3-5.7-0.9-8.4-1.9L767,480.9c-3.5-1.3-7.1-2-10.8-2.1l-80-2.5
						c-2.5-0.1-5,0.1-7.4,0.6h0c-19.7,3.7-38.4-10.1-40.8-29.9l-8-66.5c-0.1-1.1-0.2-2.3-0.2-3.4l-2.1-98.4c0-2.1,0.1-4.2,0.4-6.2
						l15.2-95c1.3-8.1,5.4-15.5,11.7-20.8l21.4-18.4c3.6-3.1,7.8-5.4,12.4-6.8l35.2-10.9c6.3-1.9,13-2,19.4-0.3l47.7,13.1
						c2.5,0.7,5.1,1.1,7.8,1.2l43.2,1.7c0.7,0,1.4,0.1,2,0.1l58.3,5.8c6,0.6,11.7,2.7,16.6,6.2l11.4,8.1c4.7,3.3,8.5,7.8,11.1,13
						L959.4,226.3z"/>
					<path class="st12" d="M940.2,237.8c1.6,3.2,2.6,6.7,3,10.3l12,115.5l11.4,95.1c1.8,14.7-7.3,28.6-21.6,32.8l-9.5,2.8
						c-3.8,1.1-7.8,1.5-11.7,1.1l-77.3-7.8c-2.5-0.3-5-0.8-7.4-1.7l-67.8-24.6c-3-1.1-6.2-1.7-9.5-1.8l-70.2-2.2
						c-2.2-0.1-4.4,0.1-6.5,0.5l0,0c-17.3,3.2-33.7-8.8-35.8-26.3l-7-58.4c-0.1-1-0.2-2-0.2-3l-1.9-86.4c0-1.8,0.1-3.7,0.4-5.5
						l13.3-83.4c1.1-7.1,4.8-13.6,10.2-18.3l18.8-16.1c3.2-2.7,6.9-4.8,10.9-6l30.9-9.5c5.5-1.7,11.4-1.8,17-0.3l41.9,11.5
						c2.2,0.6,4.5,1,6.8,1.1l38,1.5c0.6,0,1.2,0.1,1.8,0.1l51.1,5.1c5.2,0.5,10.3,2.4,14.6,5.4l10,7.1c4.1,2.9,7.5,6.8,9.7,11.4
						L940.2,237.8z"/>
					<path class="st13" d="M918.2,250.9c1.3,2.7,2.2,5.7,2.5,8.7l10.1,97.1l9.6,79.9c1.5,12.4-6.2,24-18.1,27.6l-8,2.4
						c-3.2,0.9-6.5,1.3-9.8,0.9l-65-6.5c-2.1-0.2-4.2-0.7-6.2-1.4l-57-20.7c-2.6-0.9-5.2-1.4-8-1.5l-59.1-1.8
						c-1.8-0.1-3.7,0.1-5.5,0.4h0c-14.5,2.7-28.3-7.4-30.1-22.1l-5.9-49.1c-0.1-0.8-0.2-1.7-0.2-2.5l-1.6-72.6
						c0-1.5,0.1-3.1,0.3-4.6l11.2-70.1c1-6,4-11.4,8.6-15.4l15.8-13.5c2.7-2.3,5.8-4,9.1-5l26-8c4.6-1.4,9.6-1.5,14.3-0.2l35.2,9.6
						c1.9,0.5,3.8,0.8,5.7,0.9l31.9,1.3c0.5,0,1,0.1,1.5,0.1l43,4.3c4.4,0.4,8.6,2,12.3,4.6l8.4,6c3.5,2.5,6.3,5.8,8.2,9.6
						L918.2,250.9z"/>
				</g>
			</g>
			<g>
				<path class="st14" d="M519.4,587.1c-1,0-2-0.3-2.9-0.9c-2.6-1.6-3.4-5.1-1.8-7.7l6.4-10.2c8.9-14.1,24.7-22.8,41.4-22.5
					c16.2,0.3,31,8.6,39.7,22.2l7.5,11.8c1.7,2.6,0.9,6.1-1.7,7.7c-2.6,1.7-6.1,0.9-7.7-1.7l-7.5-11.8c-6.7-10.5-18-16.8-30.4-17
					c-12.8-0.2-25,6.4-31.8,17.2l-6.4,10.2C523.2,586.2,521.3,587.1,519.4,587.1z"/>
			</g>
		</g>
	</g>
	<g class="st15">
		<g class="st16">
			<path class="st0" d="M1090.3,150.7c0.7-8.5-6-15.7-14.5-15.7H629.4H486.6H40.2c-8.5,0-15.2,7.3-14.5,15.7L14.3,613
				c-0.7,9.1,7,16.6,16,15.6l129.4-13.5c41.7-4.3,83.7-6.9,125.6-7.5l207.8-3.3c0,0,10.8-13.4,22.9,2.5h0c25,7.4,51.4,8.1,76.8,2.2
				l14-3.3c0,0,10.8-15.3,21.3-1.2l202.6,3.2c42,0.7,83.9,3.2,125.6,7.5l129.4,13.5c9,0.9,16.7-6.5,16-15.6L1090.3,150.7z"/>
			<path class="st1" d="M1077.4,152.1c0.7-8.5-6-15.8-14.5-15.8H627.6H488.4H53.2c-8.5,0-15.2,7.3-14.5,15.8L27.5,598.9
				c-0.7,9.1,7,16.6,16,15.6l125.8-13c40.7-4.2,81.6-6.6,122.6-7.3l202.7-3.2c0,0,12-12.7,22.3,2.4h0c24.4,7.2,50.2,7.9,74.9,2.1
				l13.7-3.2c0,0,12-10.7,20.7-1.2l197.7,3.1c41,0.7,81.9,3.1,122.6,7.3l125.8,13c9,0.9,16.7-6.6,16-15.6L1077.4,152.1z"/>
			<g>
				<path class="st2" d="M1099,602.4c-6.2-6.2-6.2-16.1,0-22.3c2.7-2.7,6-4.2,9.5-4.5c-2-5-1.6-9.7-5.2-13.6l-11.6-359.4
					c4.3-4.3,4.4-9.5,6.7-15.3c-3.5-0.4-6.8-1.9-9.5-4.5c-6.2-6.2-6.2-16.1,0-22.3c2.9-2.9,6.7-4.5,10.5-4.6
					c-4.6-14.1-15.7-25.2-29.8-29.8c-0.1,3.8-1.7,7.6-4.6,10.5c-6.2,6.2-16.1,6.2-22.3,0c-2.7-2.7-4.2-6-4.5-9.5
					c-17.1,6.8-29.1,23.5-29.1,43h35.2l-9.1,20.2l20.2-9.1v35.2c8.4,0,16.3-2.2,23.1-6.2l11.8,343.5c-7.2-4.6-15.7-7.2-24.8-7.2
					v35.2l-20.2-9.1l9.1,20.2h-35.2c0,19.5,12,36.2,29.1,43c0.4-3.5,1.9-6.8,4.5-9.5c6.2-6.2,16.1-6.2,22.3,0
					c2.9,2.9,4.5,6.7,4.6,10.5c14.1-4.6,25.2-15.7,29.8-29.8C1105.7,606.9,1101.9,605.4,1099,602.4z"/>
				<path class="st3" d="M1084.7,145.1c1.2,1.7,2.2,3.5,2.9,5.5v0"/>
				<path class="st3" d="M1076.1,138.3l1.8,0.9c0.9,0.4,1.7,1,2.4,1.5"/>
				<path class="st3" d="M1091.3,190.2l-0.3,0.9c-0.7,2.3-1.9,4.4-3.5,6.2l0,0"/>
				<line class="st3" x1="1072.4" y1="206.6" x2="1069.3" y2="208.7"/>
				<line class="st3" x1="1088.2" y1="296.3" x2="1087.8" y2="307.2"/>
				<line class="st3" x1="1088.7" y1="277.4" x2="1088.4" y2="288.9"/>
				<line class="st3" x1="1089.3" y1="261" x2="1089.1" y2="267.3"/>
				<path class="st3" d="M1071.2,551.5l2.4,0.4c3.7,0.6,7.3,2.2,10.3,4.6l0,0"/>
			</g>
			<g>
				<path class="st2" d="M16,602.8c6.2-6.2,6.2-16.1,0-22.3c-2.7-2.7-6-4.2-9.5-4.5c2-5,1.6-9.7,5.2-13.6L23.4,203
					c-4.3-4.3-4.4-9.5-6.7-15.3c3.5-0.4,6.8-1.9,9.5-4.5c6.2-6.2,6.2-16.1,0-22.3c-2.9-2.9-6.7-4.5-10.5-4.6
					c4.6-14.1,15.7-25.2,29.8-29.8c0.1,3.8,1.7,7.6,4.6,10.5c6.2,6.2,16.1,6.2,22.3,0c2.7-2.7,4.2-6,4.5-9.5
					c17.1,6.8,29.1,23.5,29.1,43H70.7l9.1,20.2l-20.2-9.1v35.2c-8.4,0-16.3-2.2-23.1-6.2L24.7,554.1c7.2-4.6,15.7-7.2,24.8-7.2v35.2
					l20.2-9.1l-9.1,20.2h35.2c0,19.5-12,36.2-29.1,43c-0.4-3.5-1.9-6.8-4.5-9.5c-6.2-6.2-16.1-6.2-22.3,0c-2.9,2.9-4.5,6.7-4.6,10.5
					c-14.1-4.6-25.2-15.7-29.8-29.8C9.3,607.3,13.1,605.7,16,602.8z"/>
				<path class="st3" d="M28.7,143.9c-1.8,1.8-3.4,3.8-4.8,5.9l-0.6,0.8"/>
				<path class="st3" d="M40.2,135L40.2,135c-2,1.1-4,2.4-5.8,3.8"/>
				<line class="st3" x1="25.6" y1="372.6" x2="24.2" y2="387"/>
				<line class="st3" x1="28.1" y1="353.7" x2="26.7" y2="363.5"/>
			</g>
			<path class="st4" d="M597.7,268l-75.2,1.8l-4.4,312.4h0c25.8,7.2,53.2,7.9,79.4,2.1L597.7,268z"/>
			<path class="st5" d="M597.7,250.8l-75.2,1.8L518.1,565h0c25.8,7.2,53.2,7.9,79.4,2.1L597.7,250.8z"/>
			<g>
				<path class="st5" d="M494.7,585.9c-2.1-29.4-3-58.7-3.5-88.1c-0.5-29.4-0.5-58.7-0.1-88c0.4-29.3,1.2-58.7,2.4-88
					c1.3-29.3,3-58.7,5.9-88c2.1,29.4,3,58.7,3.6,88.1c0.5,29.4,0.5,58.7,0.1,88c-0.4,29.3-1.2,58.7-2.5,88
					C499.3,527.3,497.6,556.6,494.7,585.9z"/>
			</g>
			<g>
				<path class="st5" d="M626.4,586c-2.9-29.3-4.6-58.6-6-88c-1.3-29.3-2.1-58.7-2.6-88c-0.4-29.3-0.4-58.7,0-88.1
					c0.5-29.4,1.4-58.7,3.5-88.1c2.9,29.3,4.6,58.6,6,88c1.3,29.3,2.1,58.7,2.5,88c0.4,29.4,0.4,58.7,0,88.1
					C629.3,527.3,628.4,556.6,626.4,586z"/>
			</g>
		</g>
		<g class="st16">
			<g>
				<path class="st19" d="M494.4,576.8l-146-2.8c-10.4-0.2-20.8,0.4-31,1.8l-122.7,16.7c-9.1,1.2-18.1,2-27.3,2.4l-116.6,4.7
					l16.5-193.4c2.5-30.4,2.5-61-0.2-91.4L52,149.3l449.3-15.5L494.4,576.8z"/>
				<g>
					<g>
						<path class="st20" d="M477.5,50.9l-0.4,50.8c-12.3-5.2-25.6-7.9-39.3-7.9h-49.1h-0.1c-6.1,0-12.2,0.8-18.2,2.2l-124.6,29.4
							c-23.1,5.5-46.5,9.6-70,12.5l-6.6-38.6l-64.6,3.7l1,7.6l-9.4,0.6l0.9,6.7l-6.8,0.4l1.3,9.4L86,128l0.4,3.2l-4.9,0.3l-4.2-0.4
							l0.9,6.8l-5,0.3l0.6,4.3l-4.9,0.3l0.4,2.7l-4.5,0.3l13.5,99.7c9.3,68.2,9.7,137.4,1.1,205.7L62.8,585.6l73.7-1.1
							c36.9-0.6,73.8-4.4,110.1-11.2l126.3-23.9c3.6-0.7,7-1.1,10.7-1.3c1.7-0.1,3.5-0.1,5.2-0.1H438c28.7,0,56.1,12.2,75.1,33.7
							l3.7,4.1l4.1-3.1l4.3-4.6l4.1-7.1l4.2,0.4l4.5-3.5l4.4-9.7l5.9-7.1l8.3-8.2l5.1-5V83.7L477.5,50.9z"/>
						<path class="st8" d="M66.9,582.5l16.8-134.4c8.5-68.3,8.1-137.5-1.1-205.7l-13.5-99.7"/>
						<path class="st8" d="M71.2,578L88,443.6c8.5-68.3,8.1-137.5-1.1-205.7l-13.6-99.7"/>
						<path class="st8" d="M525.3,578l-3.7-4.1c-19.1-21.4-46.4-33.7-75.1-33.7h-49.3c-1.7,0-3.5,0-5.2,0.1
							c-3.6,0.2-7.1,0.6-10.7,1.3L255,565.5c-36.3,6.9-73.2,10.7-110.1,11.2l-73.7,1.1"/>
						<path class="st9" d="M525.3,578"/>
						<path class="st8" d="M75.3,570.8l16.8-134.4c8.5-68.3,8.1-137.5-1.1-205.7L77.3,131"/>
						<path class="st9" d="M529.3,570.8"/>
						<path class="st8" d="M79.5,571.2l16.8-134.4c7.1-56.9,9.1-114.4,3.8-171.5c-1-11.4-3.4-22.8-4.9-34.2l-13.6-99.7"/>
						<path class="st9" d="M533.5,571.2"/>
						<path class="st8" d="M83.9,567.8l16.8-134.4c8.5-68.3,8.1-137.5-1.1-205.7L86,128"/>
						<path class="st8" d="M538,567.8l-3.7-4.1c-19.1-21.4-46.4-33.7-75.1-33.7h-49.3c-1.7,0-3.5,0-5.2,0.1
							c-3.6,0.2-7.1,0.6-10.7,1.3l-126.2,24c-36.3,6.9-73.2,7.6-110.1,8.1L84,567.8"/>
						<path class="st9" d="M538,567.8"/>
						<path class="st8" d="M88.3,558.1l16.8-134.4c8.5-68.3,8.1-137.5-1.1-205.7l-13.5-99.7"/>
						<path class="st8" d="M542.4,558.1l-3.7-4.1c-19.1-21.4-46.4-33.7-75.1-33.7h-49.3c-1.7,0-3.5,0-5.2,0.1
							c-3.6,0.2-7.1,0.6-10.7,1.3l-68.9,17.1l-57.4,7.8c-36.3,6.9-73.2,9.7-110.1,10.2L88.3,558"/>
						<path class="st8" d="M94.1,551l16.8-134.4c6.4-51.2,5.7-102.9,2.1-154.3c-1.2-17.2-0.9-34.3-3.3-51.4l-13.5-99.7"/>
						<path class="st8" d="M94.1,551l73.7-1.1c36.9-0.6,73.8-4.4,110.1-11.2l126.3-23.9c3.6-0.7,7-1.1,10.7-1.3
							c1.7-0.1,3.5-0.1,5.2-0.1h49.3c28.7,0,56.1,12.2,75.1,33.7l3.7,4.1"/>
						<polyline class="st8" points="102.5,542.8 94.4,550.9 88.3,558.4 84,567.8 79.5,570.8 75.4,570.4 71,578 67.1,582.5 
							62.9,585.6 						"/>
					</g>
					<path class="st9" d="M556.5,542.8l-3.7-4.1c-19.1-21.4-46.4-33.7-75.1-33.7h-49.3c-1.7,0-3.5,0-5.2,0.1
						c-3.6,0.2-7.1,0.6-10.7,1.3l-126.3,23.9c-36.3,6.9-73.2,10.7-110.1,11.2l-73.7,1.1l16.8-134.4c8.5-68.3,8.1-137.5-1.1-205.7
						l-13.5-99.7l24-5.3l4,3.8l-0.4,4.6l5.7,0.5l3.7,3.5l10.1-10l24.5-1.2c36.8-2.2,73.5-7.6,109.4-16.1l124.6-29.4
						c6-1.4,12-2.2,18.2-2.2h0.1h49.1c27.9,0,54.6,11.6,73.6,32l5.4,5.8l5.1,449.1L556.5,542.8z"/>
					<path class="st21" d="M130,257.1c-2.2-17.8-4-35.7-3.4-53.6l2-28.4c-0.3-13.6,12.2-28.2,18.8-40.2c0,0,22-24.2,39-30.7l23.7-8
						l-0.5,54.6l-71.4,172.5L130,257.1z"/>
					<path class="st22" d="M202,92.1L185.5,104c-17.2,12.4-30.7,29.2-39.2,48.8l0,0c-3.3,7.6-5.7,15.6-7.3,23.7l-9.3,46.8l69.6-29
						l12-66.2L202,92.1z"/>
					<path class="st9" d="M560.9,536.9l-3-3.3c-19.1-21.4-46.4-33.7-75.1-33.7h-49.3c-1.7,0-3.5,0-5.2,0.1
						c-3.6,0.2-7.1,0.6-10.7,1.3l-126.3,23.9c-16,3.1-40.2,6.5-56.4,8.2c-5.8,0.6-9.7-4.4-11.3-4.4c0,0-4.2,6-10.4,6.4
						c-8.7,0.5-23.5,0.8-32.2,0.9l-73.7,1.1l16.8-134.4c7.6-61.2,11.4-119.7,5.4-180.3c-1.3-13.8,3.4-27.6,13-37.7l0,0
						c5.8-6,13-10.5,21-12.9l27.8-8.3l-14.1-23.6c-4.8-8-5.8-17.7-3-26.5l0,0c4-12.1,14.8-20.9,27.5-22.1
						c29.8-2.7,59.4-7.6,88.7-14.5l38.7-7.2l14.7,8.3l7.9-17.5l64.2-13.2c5.7-1.3,11.6-2,17.5-2l0,0h49.1c27.9,0,54.6,11.6,73.6,32
						l5.4,5.8v452.9C561.7,537.1,561.2,537.3,560.9,536.9z"/>
					<path class="st23" d="M544.8,520.7c7.8,5,6.9,5.9,13.2,13l3,3.3c0.3,0.3,0.7,0.1,0.7-0.3V83.7l-5.4-5.8
						c-5.5-5.9-5.6-5-12.2-9.4l-4.7,214L544.8,520.7z"/>
					<path class="st8" d="M560.9,536.9l-3-3.3c-19.1-21.4-46.4-33.7-75.1-33.7h-49.3c-1.7,0-3.5,0-5.2,0.1
						c-3.6,0.2-7.1,0.6-10.7,1.3l-126.3,23.9c-16,3.1-40.2,6.5-56.4,8.2c-5.8,0.6-9.7-4.4-11.3-4.4c0,0-4.2,6-10.4,6.4
						c-8.7,0.5-23.5,0.8-32.2,0.9l-73.7,1.1l16.8-134.4c7.6-61.2,11.4-119.7,5.4-180.3c-1.3-13.8,3.4-27.6,13-37.7l0,0
						c5.8-6,13-10.5,21-12.9l27.8-8.3l-14.1-23.6c-4.8-8-5.8-17.7-3-26.5l0,0c4-12.1,14.8-20.9,27.5-22.1
						c29.8-2.7,59.4-7.6,88.7-14.5l38.7-7.2l14.7,8.3l7.9-17.5l64.2-13.2c5.7-1.3,11.6-2,17.5-2l0,0h49.1c27.9,0,54.6,11.6,73.6,32
						l5.4,5.8v452.9C561.7,537.1,561.2,537.3,560.9,536.9z"/>
					<path class="st24" d="M143.8,193.6L143.8,193.6c5.8-6,13-10.5,21-12.9l27.8-8.3l-14.1-23.6c-4.8-8-5.8-17.7-3-26.5l0,0"/>
					<path class="st9" d="M142.8,185.5L142.8,185.5c5.8-6,13-10.5,21-12.9l27.8-8.3l-14.1-23.6c-4.8-8-5.8-17.7-3-26.5l0,0"/>
				</g>
				<path class="st25" d="M181.5,212.8c-1.7,3.8-2.7,7.7-3.2,11.8l-10.8,131.8L156.9,465c-1.6,16.8,9.1,32.4,25.3,36.8l10.9,3
					c4.4,1.2,8.9,1.5,13.3,1l87.9-10.7c2.8-0.3,5.7-1,8.3-2.1l76.6-29.7c3.5-1.3,7-2.1,10.7-2.3l80-4.2c2.4-0.1,5,0,7.4,0.4l0,0
					c19.7,3.3,38.2-10.9,40.1-30.8l6.6-66.7c0.1-1.1,0.2-2.2,0.2-3.4v-98.4c0-2-0.2-4.2-0.6-6.2L506.6,157
					c-1.4-8-5.8-15.4-12.1-20.6l-21.8-17.9c-3.7-3.1-7.9-5.3-12.5-6.5l-35.4-10.1c-6.3-1.8-13-1.7-19.3,0.1l-47.4,14
					c-2.5,0.7-5.1,1.2-7.7,1.3l-43.2,2.6c-0.7,0-1.3,0.1-2,0.2l-58.1,7c-6,0.7-11.6,3-16.5,6.5l-11.2,8.3
					c-4.7,3.5-8.3,7.9-10.8,13.2L181.5,212.8z"/>
				<path class="st26" d="M201,223.9c-1.5,3.3-2.4,6.8-2.7,10.4l-9.5,115.6l-9.4,95.3c-1.4,14.8,7.9,28.4,22.3,32.4l9.6,2.6
					c3.8,1,7.8,1.3,11.7,0.8l77.1-9.5c2.5-0.3,5-0.9,7.3-1.8l67.3-26.1c3.1-1.1,6.2-1.8,9.5-2l70.2-3.7c2.1-0.1,4.4,0,6.5,0.4l0,0
					c17.4,2.8,33.5-9.6,35.2-27.1l5.8-58.5c0.1-1,0.1-2,0.1-3v-86.4c0-1.8-0.2-3.7-0.5-5.5l-15.3-83.1c-1.3-7.1-5.1-13.5-10.6-18
					l-19.1-15.7c-3.3-2.6-6.9-4.6-11-5.8l-31.1-8.9c-5.6-1.6-11.5-1.5-17,0.1l-41.6,12.3c-2.2,0.6-4.5,1-6.8,1.2l-37.9,2.3
					c-0.6,0-1.2,0.1-1.8,0.2l-51,6.2c-5.2,0.6-10.2,2.6-14.5,5.7l-9.9,7.3c-4.1,3.1-7.3,7-9.5,11.6L201,223.9z"/>
				<path class="st27" d="M223.2,236.5c-1.3,2.7-2,5.7-2.3,8.8l-7.9,97.3l-7.8,80.1c-1.2,12.4,6.7,23.9,18.7,27.2l8,2.2
					c3.2,0.9,6.5,1.1,9.9,0.7l64.8-7.9c2.1-0.3,4.2-0.8,6.2-1.5l56.5-22c2.5-1,5.2-1.5,7.9-1.7l59-3.1c1.8-0.1,3.7,0,5.5,0.3l0,0
					c14.6,2.4,28.2-8,29.6-22.7l4.9-49.3c0.1-0.8,0.1-1.6,0.1-2.5v-72.7c0-1.5-0.1-3.1-0.4-4.6l-12.7-69.8c-1.1-6-4.3-11.3-9-15.2
					l-16.1-13.2c-2.7-2.2-5.9-3.9-9.3-4.9l-26.2-7.4c-4.7-1.3-9.7-1.3-14.2,0.1l-35,10.4c-1.8,0.5-3.8,0.9-5.7,1l-31.9,1.9
					c-0.5,0-1,0.1-1.5,0.1l-42.8,5.2c-4.4,0.5-8.5,2.2-12.1,4.8l-8.3,6.1c-3.5,2.5-6.2,5.9-7.9,9.8L223.2,236.5z"/>
			</g>
			<g>
				<path class="st19" d="M626.3,572.6l142.8-2.7c10.2-0.2,20.3,0.4,30.3,1.7l120,16.5c8.9,1.2,17.7,2,26.7,2.3l114.1,4.7
					l-16.1-190.4c-2.5-29.9-2.4-60.1,0.2-90l14.6-163.2l-439.4-15.2L626.3,572.6z"/>
				<g>
					<path class="st20" d="M648.1,51.4l0.4,50.8c12.3-5.2,25.6-7.9,39.3-7.9h49.1h0.1c6.1,0,12.2,0.8,18.2,2.2l124.6,29.4
						c23.1,5.5,46.5,9.6,70,12.5l6.6-38.6l64.6,3.7l-1,7.6l9.4,0.6l-0.9,6.7l6.8,0.4l-1.3,9.4l5.6,0.3l-0.4,3.2l4.9,0.3l4.2-0.4
						l-0.9,6.8l5,0.3l-0.6,4.3l4.9,0.3l-0.4,2.7l4.5,0.3l-13.5,99.7c-9.3,68.2-9.7,137.4-1.1,205.7l16.8,134.4l-73.7-1.1
						c-36.9-0.6-73.8-4.4-110.1-11.2l-126.3-23.9c-3.6-0.7-7-1.1-10.7-1.3c-1.7-0.1-3.5-0.1-5.2-0.1h-49.3
						c-28.7,0-56.1,12.2-75.1,33.7l-3.7,4.1l-4.1-3.1l-4.3-4.6l-4.1-7.1l-4.2,0.4l-4.5-3.5l-4.4-9.9l-5.9-7.1l-8.3-8.2l-5.1-5v-454
						L648.1,51.4z"/>
					<path class="st8" d="M1058.7,583l-16.8-134.4c-8.5-68.3-8.1-137.5,1.1-205.7l13.5-99.7"/>
					<path class="st8" d="M1054.4,578.4L1037.6,444c-8.5-68.3-8.1-137.5,1.1-205.7l13.5-99.7"/>
					<path class="st8" d="M600.4,578.4l3.7-4.1c19.1-21.4,46.4-33.7,75.1-33.7h49.3c1.7,0,3.5,0,5.2,0.1c3.6,0.2,7.1,0.6,10.7,1.3
						L870.6,566c36.3,6.9,73.2,10.7,110.1,11.2l73.7,1.1"/>
					<path class="st9" d="M600.4,578.4"/>
					<path class="st8" d="M1050.3,571.2l-16.8-134.4c-8.5-68.3-8.1-137.5,1.1-205.7l13.5-99.7"/>
					<path class="st9" d="M596.3,571.2"/>
					<path class="st8" d="M1046.2,571.7l-16.8-134.4c-7.1-56.9-9.1-114.4-3.8-171.5c1-11.4,3.4-22.8,4.9-34.2l13.5-99.7"/>
					<path class="st9" d="M592.1,571.7"/>
					<path class="st8" d="M1041.7,568.2l-16.8-134.4c-8.5-68.3-8.1-137.5,1.1-205.7l13.5-99.7"/>
					<path class="st8" d="M587.6,568.2l3.7-4.1c19.1-21.4,46.4-33.7,75.1-33.7h49.3c1.7,0,3.5,0,5.2,0.1c3.6,0.2,7.1,0.6,10.7,1.3
						l126.3,23.9c36.3,6.9,73.2,7.6,110.1,8.1l73.7,4.2"/>
					<path class="st9" d="M587.6,568.2"/>
					<path class="st8" d="M1037.3,558.5l-16.8-134.4c-8.5-68.3-8.1-137.5,1.1-205.7l13.5-99.7"/>
					<path class="st8" d="M583.3,558.5l3.7-4.1c19.1-21.4,46.4-33.7,75.1-33.7h49.3c1.7,0,3.5,0,5.2,0.1c3.6,0.2,7.1,0.6,10.7,1.3
						l68.9,17.1l57.4,7.8c36.3,6.9,73.2,9.7,110.1,10.2l73.7,1.1"/>
					<path class="st8" d="M1031.4,551.4l-16.8-134.4c-6.4-51.2-5.7-102.9-2.1-154.3c1.2-17.2,0.9-34.3,3.3-51.4l13.5-99.7"/>
					<path class="st8" d="M1031.4,551.4l-73.7-1.1c-36.9-0.6-73.8-4.4-110.1-11.2l-126.3-23.9c-3.6-0.7-7-1.1-10.7-1.3
						c-1.7-0.1-3.5-0.1-5.2-0.1h-49.3c-28.7,0-56.1,12.2-75.1,33.7l-3.7,4.1"/>
					<path class="st9" d="M569,543.2l3.7-4.1c19.1-21.4,46.4-33.7,75.1-33.7h49.3c1.7,0,3.5,0,5.2,0.1c3.6,0.2,7.1,0.6,10.7,1.3
						l126.3,23.9c36.3,6.9,73.2,10.7,110.1,11.2l73.7,1.1l-16.8-134.4c-8.5-68.3-8.1-137.5,1.1-205.7l13.5-99.7l-24-5.3l-4,3.8
						l0.4,4.6l-5.7,0.5l-3.7,3.5l-10.1-10l-24.5-1.2C912.5,96.9,875.9,91.5,840,83L715.4,53.6c-6-1.4-12-2.2-18.2-2.2h-0.1H648
						c-27.9,0-54.6,11.6-73.6,32l-5.4,5.8l-5.1,449.1L569,543.2z"/>
					<path class="st9" d="M995.8,223.6c0.7-7.3,4.8-42.2,8.4-73.7l-18.6-7.8l20.2-6c2.6-22.3,4.7-40,4.7-40s-74.3-2.4-87-3.7
						c-29.8-2.7-59.4-7.6-88.7-14.5L709.6,48.4c-5.7-1.3-11.6-2-17.5-2H643c-27.9,0-54.6,11.6-73.6,32l-5.4,5.8v452.9
						c0,0.4,0.5,0.6,0.7,0.3l3-3.3c19.1-21.4,46.4-33.7,75.1-33.7h49.3c1.7,0,3.5,0,5.2,0.1c3.6,0.2,7.1,0.6,10.7,1.3l126.3,23.9
						c14.5,2.7,85.6,9.6,105.6,11l10.3-23.9l18.4,24.6l49.6,0.8l-16.8-134.4C993.7,342.7,989.9,284.1,995.8,223.6z"/>
					<path class="st23" d="M580.8,521.1c-7.8,5-6.9,5.9-13.2,13l-3,3.3c-0.3,0.3-0.7,0.1-0.7-0.3V84.1l5.4-5.8
						c5.5-5.9,5.6-5,12.2-9.4l4.7,214L580.8,521.1z"/>
					<path class="st8" d="M995.8,223.6c0.7-7.3,4.8-42.2,8.4-73.7l-18.6-7.8l20.2-6c2.6-22.3,4.7-40,4.7-40s-74.3-2.4-87-3.7
						c-29.8-2.7-59.4-7.6-88.7-14.5L709.6,48.4c-5.7-1.3-11.6-2-17.5-2H643c-27.9,0-54.6,11.6-73.6,32l-5.4,5.8v452.9
						c0,0.4,0.5,0.6,0.7,0.3l3-3.3c19.1-21.4,46.4-33.7,75.1-33.7h49.3c1.7,0,3.5,0,5.2,0.1c3.6,0.2,7.1,0.6,10.7,1.3l126.3,23.9
						c14.5,2.7,85.6,9.6,105.6,11l10.3-23.9l18.4,24.6l49.6,0.8l-16.8-134.4C993.7,342.7,989.9,284.1,995.8,223.6z"/>
					<polyline class="st8" points="1023.2,543.2 1031.2,551.3 1037.3,558.8 1041.6,568.2 1046.1,571.2 1050.2,570.8 1054.6,578.4 
						1058.4,583 1062.8,586 					"/>
				</g>
				<path class="st25" d="M944.1,213.2c1.7,3.8,2.7,7.7,3.2,11.8L958,356.8l10.7,108.6c1.6,16.8-9.1,32.4-25.3,36.8l-10.9,3
					c-4.4,1.2-8.9,1.5-13.3,1l-87.9-10.8c-2.8-0.3-5.7-1-8.3-2.1l-76.6-29.7c-3.5-1.3-7-2.1-10.7-2.3l-80-4.2c-2.4-0.1-5,0-7.4,0.4
					l0,0c-19.7,3.3-38.2-10.9-40.1-30.8l-6.6-66.7c-0.1-1.1-0.2-2.2-0.2-3.4v-98.4c0-2,0.2-4.2,0.6-6.2l17.2-94.7
					c1.4-8,5.8-15.4,12.1-20.6l21.8-17.9c3.7-3.1,7.9-5.3,12.5-6.5l35.4-10.1c6.3-1.8,13-1.7,19.3,0.1l47.4,14
					c2.5,0.7,5.1,1.2,7.7,1.3l43.2,2.6c0.7,0,1.3,0.1,2,0.2l58.1,7c6,0.7,11.6,3,16.5,6.5l11.2,8.3c4.7,3.5,8.3,7.9,10.8,13.2
					L944.1,213.2z"/>
				<path class="st26" d="M924.6,224.3c1.5,3.3,2.4,6.8,2.7,10.4l9.5,115.7l9.4,95.3c1.4,14.8-7.9,28.4-22.3,32.4l-9.6,2.6
					c-3.8,1-7.8,1.3-11.7,0.8l-77.1-9.5c-2.5-0.3-5-0.9-7.3-1.8l-67.3-26.1c-3.1-1.1-6.2-1.8-9.5-2l-70.2-3.7
					c-2.1-0.1-4.4,0-6.5,0.4l0,0c-17.4,2.8-33.5-9.6-35.2-27.1l-5.8-58.5c-0.1-1-0.1-2-0.1-3v-86.4c0-1.8,0.2-3.7,0.5-5.5l15.2-83.1
					c1.3-7.1,5.1-13.5,10.6-18l19.1-15.7c3.3-2.6,6.9-4.6,11-5.8l31.1-8.9c5.6-1.6,11.5-1.5,17,0.1l41.6,12.3c2.2,0.6,4.5,1,6.8,1.2
					l37.9,2.3c0.6,0,1.2,0.1,1.8,0.2l51,6.2c5.2,0.6,10.2,2.6,14.5,5.7l9.9,7.3c4.1,3.1,7.3,7,9.5,11.6L924.6,224.3z"/>
				<path class="st27" d="M902.4,236.9c1.3,2.7,2,5.7,2.3,8.8l7.9,97.3l7.8,80.1c1.2,12.4-6.7,23.9-18.7,27.2l-8,2.2
					c-3.2,0.9-6.5,1.1-9.9,0.7l-64.8-7.9c-2.1-0.3-4.2-0.8-6.2-1.5l-56.5-22c-2.5-1-5.2-1.5-7.9-1.7l-59-3.1c-1.8-0.1-3.7,0-5.5,0.3
					l0,0c-14.6,2.4-28.2-8-29.6-22.7l-4.9-49.3c-0.1-0.8-0.1-1.6-0.1-2.5v-72.7c0-1.5,0.1-3.1,0.4-4.6l12.7-69.8
					c1.1-6,4.3-11.3,9-15.2l16.1-13.2c2.7-2.2,5.9-3.9,9.3-4.9l26.2-7.4c4.7-1.3,9.7-1.3,14.2,0.1l35,10.4c1.8,0.5,3.8,0.9,5.7,1
					l31.9,1.9c0.5,0,1,0.1,1.5,0.1l42.8,5.2c4.4,0.5,8.5,2.2,12.1,4.8l8.3,6.1c3.5,2.5,6.2,5.9,7.9,9.8L902.4,236.9z"/>
			</g>
			<g>
				<path class="st14" d="M520.2,588.2c-1.1,0-2.2-0.5-3.1-1.4c-1.4-1.7-1.3-4.3,0.4-5.7l8.3-7.3l6-5.5c1.7-1.6,3.4-3.3,5-5l1.1-1.2
					c2.3-2.5,4.5-5.3,6.4-8.1c3-4.3,6.3-8.2,10-11.9c2.3-2.3,5.4-3.6,8.7-3.5c3.3,0.1,6.3,1.4,8.5,3.8l7.6,8.1c1.8,1.9,3.6,4,5.2,6
					l2.5,3.3c2.5,3.3,5.3,6.3,8.2,9.1l12.8,12c1.6,1.5,1.7,4.1,0.2,5.8c-1.5,1.6-4.1,1.7-5.8,0.2l-12.9-12
					c-3.3-3.1-6.4-6.5-9.2-10.1l-2.5-3.3c-1.4-1.9-3.1-3.8-4.7-5.5l-7.6-8.1c-0.7-0.7-1.6-1.2-2.6-1.2c-1,0-2,0.4-2.7,1.1
					c-3.3,3.3-6.3,6.9-9,10.8c-2.1,3.2-4.6,6.1-7.1,9l-1.1,1.2c-1.7,1.9-3.6,3.8-5.5,5.5l-6.1,5.6l-8.4,7.3
					C522.1,587.9,521.2,588.2,520.2,588.2z"/>
			</g>
		</g>
	</g>
</g>
</svg>
