<?xml version="1.0" encoding="utf-8"?>
<!-- Generator: Adobe Illustrator 24.2.1, SVG Export Plug-In . SVG Version: 6.00 Build 0)  -->
<svg version="1.1" id="Lag_1" xmlns="http://www.w3.org/2000/svg" xmlns:xlink="http://www.w3.org/1999/xlink" x="0px" y="0px"
	 viewBox="0 0 446 571" style="enable-background:new 0 0 446 571;" xml:space="preserve">
<style type="text/css">
	.st0{fill:#D8B75B;stroke:#110B09;stroke-width:2;stroke-miterlimit:10;}
	.st1{fill:none;stroke:#F4DFAB;stroke-width:2;stroke-linecap:round;stroke-miterlimit:10;}
	.st2{fill:#664439;stroke:#110B09;stroke-width:2;stroke-miterlimit:10;}
	.st3{fill:#E5D2BA;stroke:#110B09;stroke-width:2;stroke-miterlimit:10;}
	.st4{fill:#7F5342;stroke:#110B09;stroke-width:2;stroke-miterlimit:10;}
	.st5{fill:#704A3E;stroke:#110B09;stroke-width:2;stroke-miterlimit:10;}
	.st6{fill:#AD6751;stroke:#110B09;stroke-width:2;stroke-miterlimit:10;}
	.st7{fill:#70493D;stroke:#110B09;stroke-width:2;stroke-miterlimit:10;}
</style>
<g>
	<g>
		<path class="st0" d="M432.1,496.5c3.1,3.7,2.6,7.9,4.3,12.5c-3.6,0.3-7.2,1.9-9.8,5c-4.4,5.1-4.5,12.8-0.3,18.1
			c2.6,3.3,6.4,5.1,10.2,5.4c-4.5,12.6-14.9,22.3-27.8,26c0-3.8-1.6-7.7-4.7-10.5c-5-4.5-12.7-4.9-18-0.8c-3.2,2.4-5.1,5.9-5.6,9.5
			c-15.2-6.7-25.6-22.1-25-39.7l31.8,1l-7.7-18.5l18,8.9l1-31.8c8.3,0.3,15.9,2.9,22.2,7.3l-0.5-351.9c-6.3,3.3-13.4,5.1-21,4.9
			l1-31.8l-18.5,7.7l8.9-18l-31.8-1c0.6-17.6,12-32.3,27.6-38c0.3,3.6,1.9,7.2,5,9.8c5.1,4.4,12.8,4.5,18.1,0.3
			c3.3-2.6,5.1-6.4,5.4-10.2c12.6,4.5,22.3,14.9,26,27.8c-3.8,0-7.7,1.6-10.5,4.7c-4.5,5-4.9,12.7-0.8,18c2.4,3.2,5.9,5.1,9.5,5.6
			c-2.3,5.1-2.5,9.8-6.5,13.6L432.1,496.5z"/>
		<path class="st1" d="M427.7,77.8c1.1,1.5,1.9,3.3,2.4,5.1v0"/>
		<path class="st1" d="M420.1,71.4l1.6,0.9c0.8,0.4,1.5,0.9,2.2,1.4"/>
		<path class="st1" d="M432.3,118.9l-0.3,0.8c-0.7,2.1-1.9,3.9-3.3,5.5l0,0"/>
		<line class="st1" x1="414.8" y1="133.2" x2="411.8" y2="134.9"/>
		<line class="st1" x1="426.3" y1="214.8" x2="425.7" y2="224.7"/>
		<line class="st1" x1="427.4" y1="197.7" x2="426.7" y2="208.2"/>
		<line class="st1" x1="428.4" y1="182.9" x2="428" y2="188.6"/>
		<path class="st1" d="M403.4,486.4l2.2,0.4c3.4,0.7,6.5,2.2,9.1,4.4l0,0"/>
	</g>
	<polygon class="st2" points="423.8,547.7 425.5,424 340.7,424 339.7,547.7 	"/>
	<path class="st3" d="M418.7,500.4l-1.6,3.8c-5.5,13.1-3.7,28.1,4.7,39.5h0l-396.2,1.4l-11.7-22.8l24.4-19.1L418.7,500.4z"/>
	<path class="st4" d="M411.8,495.8H66.9V20.2h344.8c8.7,0,15.7,7,15.7,15.7v444.2C427.5,488.7,420.5,495.8,411.8,495.8z"/>
	<path class="st5" d="M51.2,495.8l2.4,1.5c3.3,2.1,7.6,2.1,10.9,0l2.4-1.5V21.2c0-0.4-0.5-0.7-0.8-0.5l-1.6,1
		c-3.3,2.1-7.6,2.1-10.9,0l-2.4-1.5V495.8z"/>
	<path class="st4" d="M50.9,495.8l0.3,0V20.2l-15,3.9c-7.6,2-14.4,6.2-19.5,12.2l0,0c-6.1,7-9.4,16-9.4,25.3v456.2l0,0
		C8.2,505.3,35.1,493.1,50.9,495.8z"/>
	<g>
		<path class="st6" d="M43.2,546.6c-1,0-11.5,2.2-17.6-1.5c-7.2-4.3-11.9-16.4-11.7-22.8c0.3-14.2,25.1-19,32.8-19.1
			c1.9,0,3.5,1.5,3.5,3.5c0,1.9-1.5,3.5-3.5,3.5c-0.7,0-25.7,1.4-25.9,12.3c-0.1,4,1.9,14.1,7.4,17.3c6.8,4,17.5,0.9,17.6,0.9
			c1.3,1.4,1.2,3.6-0.3,4.9C44.8,546.3,44,546.6,43.2,546.6z"/>
	</g>
	<path class="st7" d="M46,503.4c0.8,0,1.6,0,2.3,0.1c3.2,1.9,6.9,2.9,10.7,2.9c3.6,0,7.1-0.9,10.3-2.7l339.3-0.4c2,0,4-0.4,5.9-1.2
		l4.2-1.8c2.2-1,4.2-2.5,5.7-4.4h0c2-2.6,3.1-5.8,3.1-9.1v-6.9l-5.4,9.2v0c-1.7,3.1-4.7,5.3-8.1,6.1l-0.8,0.2
		c-0.9,0.2-1.8,0.3-2.7,0.3H66.9c-2.3,1.8-5.1,2.7-7.9,2.7c-2.8,0-5.6-0.9-7.9-2.7l-0.3,0c-1.5-0.3-3.1-0.4-4.8-0.4l0,0
		c-16.4,0-38.7,10.3-38.7,27.4c0.4,7.5,8,32.3,18.8,32.3c14,0,25-3.9,25-3.9c2.3-1.5,4.9-2.2,7.5-2.2c2.8,0,5.6,0.9,8,2.6l0.2,0.2
		h354.8c2.2,0,4-1.8,4-4l0,0c0-2.2-1.8-4-4-4H69.3c-3.2-1.8-6.9-2.7-10.6-2.7c-3.9,0-7.7,1-11.1,3c-1.8,0.7-11.9,5.7-21.4,3.1
		c-5.8,0-10.7-20.6-10.8-24.7c0-0.5,0.4-5.8,2.2-7.7C23.4,508.6,36.4,503.4,46,503.4"/>
	<g>
		<path class="st0" d="M429.1,443.5c3.1,3.7,2.6,7.9,4.3,12.5c-3.6,0.3-7.2,1.9-9.8,5c-4.4,5.1-4.5,12.8-0.3,18.1
			c2.6,3.3,6.4,5.1,10.2,5.4c-4.5,12.6-14.9,22.3-27.8,26c0-3.8-1.6-7.7-4.7-10.5c-5-4.5-12.7-4.9-18-0.8c-3.2,2.4-5.1,5.9-5.6,9.5
			c-15.2-6.7-25.6-22.1-25-39.7l31.8,1l-7.7-18.5l18,8.9l1-31.8c8.3,0.3,15.9,2.9,22.2,7.3l-0.5-351.9c-6.3,3.3-13.4,5.1-21,4.9
			l1-31.8l-18.5,7.7l8.9-18l-31.8-1c0.6-17.6,12-32.3,27.6-38c0.3,3.6,1.9,7.2,5,9.8c5.1,4.4,12.8,4.5,18.1,0.3
			c3.3-2.6,5.1-6.4,5.4-10.2c12.6,4.5,22.3,14.9,26,27.8c-3.8,0-7.7,1.6-10.5,4.7c-4.5,5-4.9,12.7-0.8,18c2.4,3.2,5.9,5.1,9.5,5.6
			c-2.3,5.1-2.5,9.8-6.5,13.6L429.1,443.5z"/>
		<path class="st1" d="M424.7,24.8c1.1,1.5,1.9,3.3,2.4,5.1v0"/>
		<path class="st1" d="M417.1,18.4l1.6,0.9c0.8,0.4,1.5,0.9,2.2,1.4"/>
		<path class="st1" d="M429.3,65.9l-0.3,0.8c-0.7,2.1-1.9,3.9-3.3,5.5l0,0"/>
		<line class="st1" x1="411.8" y1="80.2" x2="408.8" y2="81.9"/>
		<line class="st1" x1="423.3" y1="161.8" x2="422.7" y2="171.7"/>
		<line class="st1" x1="424.4" y1="144.7" x2="423.7" y2="155.2"/>
		<line class="st1" x1="425.4" y1="129.9" x2="425" y2="135.6"/>
		<path class="st1" d="M400.4,433.4l2.2,0.4c3.4,0.7,6.5,2.2,9.1,4.4l0,0"/>
	</g>
</g>
</svg>
