<?xml version="1.0" encoding="utf-8"?>
<!-- Generator: Adobe Illustrator 24.2.3, SVG Export Plug-In . SVG Version: 6.00 Build 0)  -->
<svg version="1.1" id="Lag_1" xmlns="http://www.w3.org/2000/svg" xmlns:xlink="http://www.w3.org/1999/xlink" x="0px" y="0px"
	 viewBox="0 0 192 67" style="enable-background:new 0 0 192 67;" xml:space="preserve">
<style type="text/css">
	.st0{fill:#E5D2BA;}
	.st1{fill:#110B09;}
	.st2{fill:#E8D9C8;}
</style>
<g>
	<g>
		<g>
			<path class="st0" d="M47.8,60.2L47.8,60.2c-1.1,1.3-3,1.7-4.4,0.8c-2.1-1.3-5.2-3.1-7.2-3.6c-5.5-1.4-11-4.3-12.9-3.8l0,0
				c-4.1,0.9-8,3.2-11.1,6.6l-1.6,1.7l2.7-9.5c1.3-4.6,4-8.4,7.5-10.9l0,0l-3-1.1c-4.5-1.5-9.3-0.2-12.7,3.5l0,0l3-7.9
				c2-5.3,5.9-9.4,10.5-11.3l0,0c4.3-1.8,9-1.6,13.2,0.6l2.5,1.3c1.4,0.7,2.7,1.7,3.9,2.8l5.3,4.9L44.8,54l2.1,1.1
				C48.7,56.1,49.2,58.6,47.8,60.2z"/>
			<path class="st1" d="M8.7,65.2l3.7-13.2c1.2-4.2,3.5-7.8,6.5-10.3l-1.5-0.5c-4.1-1.4-8.6-0.2-11.7,3.3L2.5,48l4.8-12.3
				c2.1-5.5,6.1-9.8,11-11.8c4.6-1.9,9.5-1.6,14,0.6l2.5,1.3c1.5,0.8,2.9,1.7,4.1,2.9l5.6,5.2l1.1,19.5l1.6,0.9
				c1.1,0.6,1.9,1.7,2.1,2.9c0.2,1.2-0.1,2.5-0.9,3.5c-1.4,1.7-3.8,2.1-5.6,1c-3-1.9-5.5-3.1-7-3.5c-2.4-0.6-4.7-1.5-6.8-2.2
				c-2.4-0.9-4.9-1.8-5.7-1.6c-4,0.9-7.6,3.1-10.6,6.3L8.7,65.2z M23.7,52.6c1.4,0,3.4,0.7,6.1,1.7c2,0.7,4.3,1.6,6.6,2.2
				c2.2,0.6,5.3,2.3,7.5,3.7c1.1,0.7,2.5,0.4,3.3-0.6l0,0c0.5-0.6,0.6-1.3,0.5-2.1c-0.1-0.7-0.6-1.3-1.2-1.7l-2.5-1.4l-1.1-19.8
				l-5-4.7c-1.1-1.1-2.4-2-3.7-2.6l-2.5-1.3c-4-2-8.4-2.3-12.5-0.6c-4.4,1.8-8.1,5.8-10,10.8L7.2,41c3.3-2.1,7.2-2.7,10.9-1.4
				l4.7,1.6l-1.5,1c-3.4,2.3-5.9,6-7.2,10.4l-1.7,6c3.1-3,6.7-5,10.6-5.9C23.3,52.6,23.5,52.6,23.7,52.6z"/>
		</g>
		<g>
			<path class="st0" d="M144.2,59.5L144.2,59.5c1.1,1.3,3,1.7,4.4,0.8c2.1-1.3,5.2-3.1,7.2-3.6c5.5-1.4,11-4.3,12.9-3.8l0,0
				c4.1,0.9,8,3.2,11.1,6.6l1.6,1.7l-2.7-9.5c-1.3-4.6-4-8.4-7.5-10.9v0l3-1.1c4.5-1.5,9.3-0.2,12.7,3.5v0l-3-7.9
				c-2-5.3-5.9-9.4-10.5-11.3l0,0c-4.3-1.8-9-1.6-13.2,0.6l-2.5,1.3c-1.4,0.7-2.7,1.7-3.9,2.8l-5.3,4.9l-1.1,19.7l-2.1,1.1
				C143.3,55.4,142.8,57.9,144.2,59.5z"/>
			<path class="st1" d="M183.3,64.5l-4.1-4.5c-3-3.2-6.7-5.4-10.6-6.3c-0.8-0.2-3.3,0.7-5.7,1.6c-2.1,0.8-4.4,1.6-6.8,2.2
				c-2,0.5-4.9,2.2-7,3.5c-1.8,1.1-4.2,0.7-5.6-1l0,0c-0.8-1-1.1-2.3-0.9-3.5c0.2-1.2,1-2.3,2.1-2.9l1.6-0.9l1.1-19.5l5.6-5.2
				c1.3-1.2,2.7-2.2,4.1-2.9l2.5-1.3c4.4-2.3,9.4-2.5,14-0.6c4.9,2,8.9,6.3,11,11.8l4.8,12.3l-3.2-3.5c-3.1-3.4-7.6-4.7-11.7-3.3
				l-1.5,0.5c3,2.5,5.3,6.1,6.5,10.3L183.3,64.5z M149.2,34l-1.1,19.8l-2.5,1.4c-0.6,0.4-1.1,1-1.2,1.7c-0.1,0.7,0,1.5,0.5,2.1l0,0
				c0.8,1,2.2,1.2,3.3,0.6c2.2-1.4,5.3-3.1,7.5-3.7c2.3-0.6,4.6-1.4,6.6-2.2c3.1-1.1,5.4-2,6.7-1.7c3.9,0.9,7.6,2.9,10.6,5.9l-1.7-6
				c-1.2-4.4-3.8-8.1-7.2-10.4l-1.5-1l4.7-1.6c3.7-1.3,7.6-0.7,10.9,1.4l-1.8-4.6c-2-5.1-5.6-9-10-10.8c-4.1-1.7-8.5-1.5-12.5,0.6
				l-2.5,1.3c-1.3,0.7-2.6,1.6-3.7,2.6L149.2,34z"/>
		</g>
		<g>
			<path class="st0" d="M154.3,36.8l-0.3-2.1c-0.6-4.5-0.6-9.1-0.1-13.6l0.2-2.1c0.7-6.2-3.2-12.1-9.6-14.8h0
				c-1.8-0.7-3.7-1.2-5.6-1.3l-1.1,2.1l-1-2.2c-0.7,0-1.3,0.1-2,0.2l-7.2,1l-1.3,3.2l-1.6-2.8l-6.3,0.9c-16.1,2.2-32.6,2.1-48.7-0.3
				l-8.7-1.3l-2.9,5.8L55,2.7c-2.5-0.2-5.1,0.1-7.5,0.9l-2.3,0.8C38,6.8,33.5,13.2,34.5,19.9c0.8,5.7,0.7,11.4-0.2,17.1l0,0
				c0,0.3-0.1,0.6-0.1,0.9c-0.3,3,0.3,6,1.8,8.6c0.3,0.5,0.8,1,1.3,1.3c1.1,0.8,2.1,1.7,2.8,2.9c0.3,0.6,0.7,1.1,0.9,1.3
				c1.3,0.9,2.8,1.7,4.4,2.4l-0.7-9.4l26.8-1.1l2.1-4.1l1.9,3.9L90.2,43c2.6-0.1,5.2-0.1,7.8,0l45.3,1.8l4,8.4l1.6-1.6
				C153,47.6,155,42.2,154.3,36.8z"/>
			<path class="st1" d="M46.4,55.6l-1.3-0.5c-1.7-0.6-3.2-1.5-4.6-2.5c-0.2-0.2-0.6-0.5-1.2-1.5c-0.6-1-1.4-1.9-2.5-2.6
				c-0.7-0.5-1.3-1-1.6-1.6c-1.6-2.8-2.3-6-1.9-9.1c0-0.3,0.1-0.6,0.1-0.9c0.9-5.6,1-11.2,0.2-16.8c-1-7.1,3.7-13.9,11.3-16.5
				l2.3-0.8C49.7,2,52.4,1.6,55,1.8l0.5,0l2.7,5.5l2.3-4.7L69.9,4c16.1,2.4,32.4,2.5,48.5,0.3l6.9-0.9l1,1.7l0.8-2l7.7-1.1
				c0.6-0.1,1.3-0.1,2-0.2l0.6,0l0.5,1.1l0.6-1l0.6,0c2.1,0.2,4,0.6,5.9,1.4c6.8,2.8,10.9,9.1,10.2,15.7l-0.2,2.1
				c-0.5,4.5-0.5,9,0.1,13.4l0.3,2.1c0.7,5.7-1.3,11.3-5.6,15.6l-2.5,2.5l-4.3-9.1L98,43.9c-2.6-0.1-5.2-0.1-7.8,0l-15.4,0.6
				l-1.3-2.8l-1.5,2.9l-26.4,1L46.4,55.6z M53.5,3.6c-1.9,0-3.9,0.3-5.7,0.9l-2.3,0.8c-6.8,2.3-11,8.2-10.1,14.5
				c0.8,5.8,0.7,11.6-0.2,17.3c0,0.3-0.1,0.6-0.1,0.8c-0.3,2.7,0.3,5.5,1.7,8c0.2,0.3,0.6,0.7,1,1c1.3,0.9,2.3,2,3,3.2
				c0.5,0.8,0.7,1,0.7,1c0.9,0.6,1.9,1.2,2.9,1.7l-0.7-8.9l27.2-1.1l2.7-5.2l2.4,5l14.2-0.6c2.6-0.1,5.3-0.1,7.9,0l45.9,1.8l3.6,7.8
				l0.7-0.7c3.9-3.9,5.8-9,5.1-14.1l-0.3-2.1c-0.6-4.6-0.6-9.3-0.1-13.8l0.2-2.1c0.7-5.8-3-11.4-9.1-13.8c-1.5-0.6-3.1-1-4.8-1.2
				l-1.7,3.2l-1.5-3.3c-0.5,0-0.9,0.1-1.3,0.1l-6.7,0.9l-1.8,4.4l-2.2-3.8L118.6,6c-16.3,2.2-32.7,2.1-49-0.3l-8.1-1.2l-3.4,6.8
				l-3.9-7.8C54.1,3.6,53.8,3.6,53.5,3.6z"/>
		</g>
		<g>
			<line class="st0" x1="44.7" y1="44.8" x2="41" y2="44.5"/>
			<path class="st1" d="M44.7,45.7C44.7,45.7,44.6,45.7,44.7,45.7l-3.8-0.3c-0.5,0-0.9-0.5-0.8-1c0-0.5,0.5-0.9,1-0.8l3.7,0.3
				c0.5,0,0.9,0.5,0.8,1C45.5,45.3,45.2,45.7,44.7,45.7z"/>
		</g>
		<g>
			<line class="st0" x1="143.4" y1="44.5" x2="146.3" y2="43.8"/>
			<path class="st1" d="M143.4,45.4c-0.4,0-0.8-0.3-0.9-0.7c-0.1-0.5,0.2-1,0.7-1.1l2.9-0.7c0.5-0.1,1,0.2,1.1,0.7
				c0.1,0.5-0.2,1-0.7,1.1l-2.9,0.7C143.5,45.4,143.4,45.4,143.4,45.4z"/>
		</g>
		<g>
			<path class="st0" d="M76.9,9c0,0,5.4,1.3,11.1,1.4"/>
			<path class="st1" d="M88,11.3C88,11.3,88,11.3,88,11.3c-5.7-0.1-11.1-1.4-11.3-1.4c-0.5-0.1-0.8-0.6-0.7-1.1
				c0.1-0.5,0.6-0.8,1.1-0.7c0.1,0,5.4,1.3,10.9,1.4c0.5,0,0.9,0.4,0.9,0.9C88.9,10.9,88.5,11.3,88,11.3z"/>
		</g>
		<g>
			<path class="st0" d="M92,10.4c0,0,3.2,0.1,6.2,0"/>
			<path class="st1" d="M95.2,11.4c-1.8,0-3.3,0-3.3,0c-0.5,0-0.9-0.4-0.9-0.9c0-0.5,0.4-0.9,0.9-0.9c0,0,3.2,0.1,6.2,0
				c0.5,0,0.9,0.4,0.9,0.9c0,0.5-0.4,0.9-0.9,0.9C97.2,11.3,96.2,11.4,95.2,11.4z"/>
		</g>
		<g>
			<path class="st0" d="M104.9,10.4c0,0,6.1,0.6,13.8-1.4"/>
			<path class="st1" d="M107.2,11.4c-1.4,0-2.3-0.1-2.4-0.1c-0.5,0-0.9-0.5-0.8-1c0-0.5,0.5-0.9,1-0.8c0.1,0,6,0.5,13.5-1.4
				c0.5-0.1,1,0.2,1.1,0.6c0.1,0.5-0.2,1-0.6,1.1C113.9,11.2,109.7,11.4,107.2,11.4z"/>
		</g>
		<g>
			<path class="st0" d="M82.5,39.4c0,0,10.8-0.6,19.6,0"/>
			<path class="st1" d="M102.1,40.3C102,40.3,102,40.3,102.1,40.3c-8.7-0.6-19.4,0-19.6,0c-0.5,0-0.9-0.4-0.9-0.8
				c0-0.5,0.4-0.9,0.8-0.9c0.1,0,10.9-0.6,19.7,0c0.5,0,0.9,0.5,0.8,1C102.9,40,102.5,40.3,102.1,40.3z"/>
		</g>
		<g>
			<line class="st0" x1="106.3" y1="39.4" x2="114.2" y2="39.4"/>
			<path class="st1" d="M114.2,40.3h-7.9c-0.5,0-0.9-0.4-0.9-0.9c0-0.5,0.4-0.9,0.9-0.9h7.9c0.5,0,0.9,0.4,0.9,0.9
				C115.1,39.9,114.7,40.3,114.2,40.3z"/>
		</g>
		<g>
			<path class="st2" d="M43.7,18.9l2.3-4.1c0.7-1.2,1.9-1.9,3.2-2.1l6.7-0.7c0.3,0,0.5,0,0.8,0l38,2.9c0.2,0,0.4,0,0.6,0l38.2-2.9
				c0.1,0,0.2,0,0.3,0h7.5c1.8,0,3.4,1.1,4,2.8l1.6,4.6c0.2,0.6,0.3,1.3,0.2,1.9l-1.1,8c0,0.3,0,0.5,0,0.8l0,0.6
				c0.1,2.5-1.9,4.5-4.3,4.4l-46.4-1.4l-46.6,0.6c-2.6,0-4.7-2.4-4.2-5v0c0.1-0.6,0.1-1.1,0-1.7L43.2,22
				C43,20.9,43.1,19.8,43.7,18.9z"/>
		</g>
	</g>
</g>
</svg>
