<?xml version="1.0" encoding="utf-8"?>
<!-- Generator: Adobe Illustrator 24.2.1, SVG Export Plug-In . SVG Version: 6.00 Build 0)  -->
<svg version="1.1" id="Lag_1" xmlns="http://www.w3.org/2000/svg" xmlns:xlink="http://www.w3.org/1999/xlink" x="0px" y="0px"
	 viewBox="0 0 103 61" style="enable-background:new 0 0 103 61;" xml:space="preserve">
<style type="text/css">
	.st0{fill:#AF5E51;stroke:#110B09;stroke-width:2;stroke-miterlimit:10;}
	.st1{opacity:0.34;fill:none;stroke:#110B09;stroke-width:2;stroke-miterlimit:10;}
</style>
<g>
	<path class="st0" d="M96.4,24.5c-8.4-5-16.2-11-23-17.9l-0.3-0.3c-2.4-2.4-5.7-3.8-9.2-3.8l-2.9,0.2C47.1,3.8,35.5,4,21.6,3.5
		l-3.3,5.7l-1.6-5.8c-4-0.2-7.9-0.4-11.9-0.7C1.7,19.6,1.5,36.9,4.1,54l0.7,4.4l6.3-0.4c17.1-1.2,34.3-1.2,51.5,0l6.8,0.5
		c4-2.7,7.7-5.6,11.3-8.8l-5.5-9.6l10.5,5c5.1-5,9.8-10.5,13.9-16.4l1.2-1.7L96.4,24.5z"/>
	<path class="st1" d="M89.4,25.6c-7.3-4.1-14.1-9-20.1-14.7L69,10.7c-2.1-2-5-3.1-8-3.1l-2.5,0.2c-13.4,0.9-26.8,1-40.3,0.4l1.2,0
		l-1.2,0C15.3,8,12.4,7.8,9.5,7.6c-2.7,14-2.9,28.2-0.6,42.2l0.6,3.6l5.5-0.4c14.9-1,29.9-1,44.9,0l5.9,0.4h0
		c4.2-2.7,8.2-5.7,11.9-8.9l-2.5-4.4l4.9,2.3c4.4-4.1,8.4-8.6,12-13.4l1-1.4L89.4,25.6z"/>
</g>
</svg>
