<?xml version="1.0" encoding="utf-8"?>
<!-- Generator: Adobe Illustrator 24.2.1, SVG Export Plug-In . SVG Version: 6.00 Build 0)  -->
<svg version="1.1" id="Lag_1" xmlns="http://www.w3.org/2000/svg" xmlns:xlink="http://www.w3.org/1999/xlink" x="0px" y="0px"
	 viewBox="0 0 1104 632.3" style="enable-background:new 0 0 1104 632.3;" xml:space="preserve">
<style type="text/css">
	.st0{fill:#7A5849;stroke:#110B09;stroke-width:2;stroke-miterlimit:10;}
	.st1{fill:#604333;stroke:#110B09;stroke-width:2;stroke-miterlimit:10;}
	.st2{fill:#D8B75B;stroke:#110B09;stroke-width:2;stroke-miterlimit:10;}
	.st3{fill:none;stroke:#F4DFAB;stroke-width:2;stroke-linecap:round;stroke-miterlimit:10;}
	.st4{fill:#493429;}
	.st5{fill:#382821;}
	.st6{opacity:0.39;}
	.st7{fill:#D3C3B2;stroke:#110B09;stroke-width:2;stroke-miterlimit:10;}
	.st8{fill:none;stroke:#110B09;stroke-width:2;stroke-miterlimit:10;}
	.st9{fill:#E5D2BA;stroke:#110B09;stroke-width:2;stroke-miterlimit:10;}
	.st10{fill:#D3BA9F;}
	.st11{opacity:0.53;fill:#D3BA9F;}
	.st12{opacity:0.56;fill:#DDCCB6;}
	.st13{opacity:0.53;fill:#E0D1C1;}
	.st14{fill:#C9BBAD;}
	.st15{fill:#E5D2BA;}
	.st16{fill:#AD6751;stroke:#110B09;stroke-width:2;stroke-miterlimit:10;}
</style>
<g>
	<g>
		<path class="st0" d="M1081,145.3c0.7-8.4-6-15.6-14.4-15.6H623.3H481.7H38.4c-8.4,0-15.1,7.2-14.4,15.6L12.7,604.2
			c-0.7,9,6.9,16.4,15.9,15.5l128.4-13.4c41.4-4.3,83.1-6.8,124.7-7.5l206.3-3.3c0,0,10.7-13.3,22.7,2.4h0c24.8,7.3,51,8.1,76.2,2.2
			l13.9-3.3c0,0,10.8-15.2,21.1-1.2l201.1,3.2c41.7,0.7,83.3,3.2,124.7,7.5l128.4,13.4c9,0.9,16.6-6.5,15.9-15.5L1081,145.3z"/>
		<path class="st1" d="M1068.1,146.7c0.7-8.4-6-15.6-14.4-15.6H621.6H483.4H51.3c-8.5,0-15.1,7.2-14.4,15.6l-11,443.5
			c-0.7,9,6.9,16.4,15.9,15.5l124.9-12.9c40.4-4.2,81-6.6,121.7-7.2l201.3-3.2c0,0,11.9-12.6,22.2,2.4h0c24.2,7.1,49.8,7.8,74.4,2.1
			l13.6-3.2c0,0,11.9-10.6,20.6-1.2l196.2,3.1c40.7,0.6,81.3,3.1,121.7,7.2l124.9,12.9c9,0.9,16.6-6.5,15.9-15.5L1068.1,146.7z"/>
		<g>
			<path class="st2" d="M1089.5,593.8c-6.1-6.1-6.1-16,0-22.1c2.6-2.6,6-4.1,9.4-4.5c-2-5-1.6-9.6-5.1-13.5l-11.5-356.8
				c4.2-4.3,4.4-9.5,6.7-15.2c-3.4-0.4-6.8-1.9-9.4-4.5c-6.1-6.1-6.1-16,0-22.1c2.9-2.9,6.7-4.4,10.5-4.6c-4.5-14-15.6-25-29.6-29.6
				c-0.1,3.8-1.7,7.6-4.6,10.5c-6.1,6.1-16,6.1-22.1,0c-2.6-2.6-4.1-6-4.5-9.4c-16.9,6.8-28.9,23.3-28.9,42.7h35l-9.1,20l20-9.1v35
				c8.3,0,16.2-2.2,22.9-6.1l11.8,341c-7.1-4.5-15.6-7.2-24.7-7.2v35l-20-9.1l9.1,20h-35c0,19.3,12,35.9,28.9,42.7
				c0.4-3.4,1.9-6.8,4.5-9.4c6.1-6.1,16-6.1,22.1,0c2.9,2.9,4.4,6.7,4.6,10.5c14-4.5,25-15.6,29.6-29.6
				C1096.2,598.2,1092.4,596.7,1089.5,593.8z"/>
			<path class="st3" d="M1075.3,139.8c1.2,1.7,2.2,3.5,2.8,5.5v0"/>
			<path class="st3" d="M1066.8,133l1.8,0.9c0.8,0.4,1.7,0.9,2.4,1.5"/>
			<path class="st3" d="M1081.9,184.5l-0.3,0.9c-0.7,2.3-1.9,4.4-3.5,6.2l0,0"/>
			<line class="st3" x1="1063.2" y1="200.8" x2="1060.1" y2="202.9"/>
			<line class="st3" x1="1078.8" y1="289.9" x2="1078.5" y2="300.7"/>
			<line class="st3" x1="1079.4" y1="271.1" x2="1079" y2="282.5"/>
			<line class="st3" x1="1079.9" y1="254.8" x2="1079.7" y2="261.1"/>
			<path class="st3" d="M1062,543.2l2.4,0.4c3.7,0.6,7.2,2.2,10.2,4.5l0,0"/>
		</g>
		<g>
			<path class="st2" d="M14.5,594.1c6.1-6.1,6.1-16,0-22.1c-2.6-2.6-6-4.1-9.4-4.5c2-5,1.6-9.6,5.1-13.5l11.5-356.8
				c-4.2-4.3-4.4-9.5-6.7-15.2c3.4-0.4,6.8-1.9,9.4-4.5c6.1-6.1,6.1-16,0-22.1c-2.9-2.9-6.7-4.4-10.5-4.6c4.5-14,15.6-25,29.6-29.6
				c0.1,3.8,1.7,7.6,4.6,10.5c6.1,6.1,16,6.1,22.1,0c2.6-2.6,4.1-6,4.5-9.4c16.9,6.8,28.9,23.3,28.9,42.7h-35l9.1,20l-20-9.1v35
				c-8.3,0-16.2-2.2-22.9-6.1l-11.8,341c7.1-4.5,15.6-7.2,24.7-7.2v35l20-9.1l-9.1,20h35c0,19.3-12,35.9-28.9,42.7
				c-0.4-3.4-1.9-6.8-4.5-9.4c-6.1-6.1-16-6.1-22.1,0c-2.9,2.9-4.4,6.7-4.6,10.5c-14-4.5-25-15.6-29.6-29.6
				C7.8,598.6,11.6,597,14.5,594.1z"/>
			<path class="st3" d="M27,138.5c-1.7,1.8-3.3,3.8-4.8,5.9l-0.6,0.8"/>
			<path class="st3" d="M38.4,129.7L38.4,129.7c-2,1.1-4,2.4-5.8,3.8"/>
			<line class="st3" x1="24" y1="365.5" x2="22.6" y2="379.9"/>
			<line class="st3" x1="26.4" y1="346.8" x2="25" y2="356.6"/>
		</g>
		<path class="st4" d="M591.9,261.7l-74.7,1.8l-4.3,310.1h0c25.6,7.1,52.8,7.8,78.8,2.1L591.9,261.7z"/>
		<path class="st5" d="M591.9,244.6l-74.7,1.8l-4.3,310.1h0c25.6,7.1,52.8,7.8,78.8,2.1L591.9,244.6z"/>
		<g>
			<path class="st5" d="M489.7,577.4c-2.1-29.2-3-58.3-3.5-87.5c-0.5-29.1-0.5-58.3-0.1-87.4c0.4-29.1,1.2-58.3,2.4-87.4
				c1.3-29.1,3-58.2,5.9-87.3c2.1,29.2,3,58.3,3.6,87.5c0.5,29.1,0.5,58.3,0.1,87.4c-0.4,29.1-1.2,58.3-2.5,87.4
				C494.2,519.2,492.5,548.3,489.7,577.4z"/>
		</g>
		<g>
			<path class="st5" d="M620.4,577.5c-2.9-29.1-4.6-58.2-6-87.3c-1.3-29.1-2.1-58.3-2.5-87.4c-0.4-29.1-0.4-58.3,0-87.4
				c0.5-29.2,1.4-58.3,3.5-87.5c2.9,29.1,4.6,58.2,6,87.3c1.3,29.1,2.1,58.3,2.5,87.4c0.4,29.1,0.4,58.3,0,87.4
				C623.3,519.1,622.4,548.3,620.4,577.5z"/>
		</g>
	</g>
	<g>
		<g>
			<path class="st6" d="M488.3,564.8l-144.9,19.4c-10.3-0.2-20.6,0.4-30.8,1.8l-121.8,16.6c-9,1.2-18,2-27.1,2.4l-115.8,4.7
				l16.3-191.9c2.6-30.2,2.5-60.5-0.2-90.7L49.2,162.6l446-15.4L488.3,564.8z"/>
			<g>
				<path class="st7" d="M573.9,460.9l-63.2-337.4l-14.4-3.9c-18.3-4.9-37-7.6-55.9-8.2h0c-19.8-0.6-39.7,1.3-59.1,5.5l-79.1,17.3
					c-19.7,4.3-39.6,7.7-59.6,10l-40.8,4.8c-15.8,1.9-31.6,3.1-47.4,3.8l-0.7,0l-3.1-78.2l-28.5,1.1l-6.5,0.2l1.1,12.5l-7.1,0.4
					l1.3,16.1l-8.6,0.5l0.8,10.1l-7,0.4l0.4,6.2l-8.9,0.5l0.3,3.9l-5.6,0.3l0.3,3.6l-5.4,0.2l0.4,4.2l-7.1,0.3l0.7,5l-4.6,0.2
					l0.6,4.3l-4.5,0.9l0.7,5l-4.6,0.2l0.8,6L55,157l7,51.3c11.3,82.6,13.3,166.3,6,249.4L55,604.4l99.5-4.1
					c15.8-0.6,31.6-1.9,47.4-3.8l40.8-4.8c20-2.4,39.9-5.7,59.6-10l79.1-17.3c19.4-4.3,39.3-6.1,59.1-5.5h0
					c18.8,0.5,37.6,3.3,55.9,8.2l14.4,3.9l3.9-6.2l3.9-5.2l3.9-5.2l3.9-5.2l7.3-5l7.2-1.7l5.2-1.7l6.4,0.6l5.4-3.3l5,1.1h5.6h5.5
					L573.9,460.9z"/>
				<path class="st8" d="M58.9,150.7l7,51.3c11.3,82.6,13.3,166.3,6,249.4l-13,146.7l99.5-4.1c15.8-0.6,31.6-1.9,47.4-3.8l40.8-4.8
					c20-2.4,39.9-5.7,59.6-10l79.1-17.3c19.4-4.3,39.3-6.1,59.1-5.5h0c18.8,0.5,37.6,3.3,55.9,8.2l14.4,3.9"/>
				<path class="st8" d="M62.8,145.6l7,51.3c11.3,82.6,13.3,166.3,6,249.4L62.8,593l99.5-4.1c15.8-0.6,31.6-1.9,47.4-3.8l40.8-4.8
					c20-2.4,39.9-5.7,59.6-10l79.1-17.3c19.4-4.3,39.3-6.1,59.1-5.5h0c18.8,0.5,37.6,3.3,55.9,8.2l14.4,3.9"/>
				<path class="st8" d="M66.7,140.4l7,51.3c11.3,82.6,13.3,166.3,6,249.4l-13,146.7l99.5-4.1c15.8-0.6,31.6-1.9,47.4-3.8l40.8-4.8
					c20-2.4,39.9-5.7,59.6-10l79.1-17.3c19.4-4.3,39.3-6.1,59.1-5.5l0,0c18.8,0.5,37.6,3.3,55.9,8.2l14.4,3.9"/>
				<path class="st8" d="M70.6,135.2l7,51.3c11.3,82.6,13.3,166.3,6,249.4l-13,146.7l99.5-4.1c15.8-0.6,31.6-1.9,47.4-3.8l40.8-4.8
					c20-2.4,39.9-5.7,59.6-10l79.1-17.3c19.4-4.3,39.3-6.1,59.1-5.5h0c18.8,0.5,37.6,3.3,55.9,8.2l14.4,3.9"/>
				<path class="st8" d="M77.3,130.7l9.6,108c4.4,49.9,5.1,100.2,2,150.2L77.3,578.2l92.8-4c16.8-0.7,33.6-2.2,50.3-4.3l52-6.8
					c20.3-2.6,40.5-6.4,60.5-11.1l79.2-18.9c14.6-3.5,29.5-5.1,44.4-5h0c17.5,0.2,34.8,2.9,51.6,8.1l25.6,7.9"/>
				<path class="st8" d="M82.4,126.9l10.2,138.9c3,41,3.3,82.1,0.9,123.1l-11,186l96-4.9c16.4-0.8,32.8-2.5,49.1-4.9l56.4-8.5
					c22.6-3.4,45-8.4,67-14.9l77-22.7c16.3-4.8,33.4-6.1,50.2-3.7h0c17.5,2.4,34.3,8.8,49.3,18.5l13.4,8.7"/>
				<path class="st8" d="M87.6,122.7l9.9,122.1c4.2,52.2,4.6,104.6,1.2,156.9L87.6,570.9l100.1-5.4c23.1-1.2,46.1-4.2,68.8-9
					l63.4-13.2c17.5-3.6,34.8-8.3,51.9-14l60.7-20.2c17.4-5.8,35.9-6.8,53.7-2.8l0,0c15.6,3.4,30.3,10.5,43,20.7l16.9,13.6"/>
				<path class="st8" d="M96.2,116.1l9.8,153.6c2.2,34.8,2.4,69.7,0.5,104.5L96.2,566.6l92.1-5.8c21.5-1.4,42.8-4.3,63.9-8.8
					l61.7-13.3c21-4.5,41.6-10.6,61.8-18.1l55.7-20.9c17.8-6.7,37-8,55.5-3.8h0c20.2,4.6,38.7,15.5,52.9,31.5l12.7,14.2"/>
				<path class="st8" d="M102.4,105.6l7.7,97.2c4.3,53.8,5,108,2.3,162l-10,194.9l98.3-5.2c22.5-1.2,44.8-4.3,67-9.3l47.5-10.8
					c23.1-5.3,46-12.6,68.3-21.9l52.9-22.1c15.8-6.6,32.6-8.6,49.2-5.9h0c18.2,3,35.6,11.8,50.6,25.4l21.8,28.2"/>
				<path class="st8" d="M109.7,89l6.6,85c5.3,67.5,6.1,135.4,2.5,203.1l-9.2,172.3l94.5-4.8c16.3-0.8,32.4-3,48.5-6.4l58-12.5
					c24.5-5.3,48.5-13.5,71.7-24.7l55.3-26.6c16.9-8.1,35.1-10.1,52.8-5.9h0c21.8,5.3,41.7,19.8,56.3,41.4l16.1,29.4"/>
				<path class="st9" d="M568.5,111.1l-16.6-31.2c-12.7-23.9-31.7-41-53.4-48.3l0,0c-18.4-6.2-37.8-5-55.6,3.5l-67.4,31.8
					c-25.2,11.9-51,21.2-77.3,27.8l-23.3-17.3c-27.6,7-55.6,11-83.8,12.1l-75.2-13.4l9.8,113.4c5.2,60.1,5.8,120.6,1.7,180.9
					l-11.5,171l75.2-2.8c28.1-1.1,56.2-5.1,83.8-12.1l23.3-5.9c26.3-6.7,52.1-16,77.3-27.8l67.4-31.8c17.8-8.4,37.3-9.6,55.6-3.5
					l0,0c21.7,7.3,40.7,24.5,53.4,48.3l16.6,33.5"/>
				<path class="st9" d="M574,102.8l-7.6-22.3C554,44.1,529.2,17.6,499.9,8l-5.8,7.2l-2.3-9.4c-2.5-0.5-5-1-7.6-1.3h0
					c-15.4-1.8-30.9,1.1-45.3,8.4l-60.6,30.8h0c-7.8,3.9-56.3,16.8-102.9,23c-43.3,5.8-84.8,5.3-90.4,4.1l-39.5-8.2l-7.5,4.9
					l0.5-6.3l-17.9-3.7l9.8,116.9c6.8,81.5,6.8,163.3-0.1,244.8l-9.6,114.2H171l4.7-13.1l8.5,13.1h13.9c32,0,31.8-3.4,63.4-10.1
					l11.3-2.4c28.9-6.2,57.2-16.2,84.5-29.9l21.1-10.6l60.6-30.8c14.4-7.3,29.9-10.2,45.3-8.4h0c36.1,4.1,67.6,33.2,82.2,75.9
					l7,20.5c0.1,0.3,0.6,0.3,0.6-0.1L574,102.8z"/>
				<path class="st10" d="M566.4,80.5L557,222.4c-2.6,39.6-3.2,79.3-1.6,118.9l6.4,161.2l12.2,34.8l1.8-433.7L566.4,80.5z"/>
				<path class="st8" d="M574,102.8l-7.6-22.3C554,44.1,529.2,17.6,499.9,8l-5.8,7.2l-2.3-9.4c-2.5-0.5-5-1-7.6-1.3h0
					c-15.4-1.8-30.9,1.1-45.3,8.4l-60.6,30.8h0c-7.8,3.9-56.3,16.8-102.9,23c-43.3,5.8-84.8,5.3-90.4,4.1l-39.5-8.2l-7.5,4.9
					l0.5-6.3l-17.9-3.7l9.8,116.9c6.8,81.5,6.8,163.3-0.1,244.8l-9.6,114.2H171l4.7-13.1l8.5,13.1h13.9c32,0,31.8-3.4,63.4-10.1
					l11.3-2.4c28.9-6.2,57.2-16.2,84.5-29.9l21.1-10.6l60.6-30.8c14.4-7.3,29.9-10.2,45.3-8.4h0c36.1,4.1,67.6,33.2,82.2,75.9
					l7,20.5c0.1,0.3,0.6,0.3,0.6-0.1L574,102.8z"/>
			</g>
			<g>
				<path class="st11" d="M182.3,188.6c-1.5,3.8-2.3,7.8-2.3,11.9l-2.3,131.3L174.1,440c-0.6,16.8,11.1,31.5,27.5,34.9l11,2.2
					c4.4,0.9,8.9,0.9,13.3,0.1l86.4-16.3c2.8-0.5,5.5-1.4,8.1-2.6l74-34.4c3.3-1.5,6.9-2.5,10.5-3l78.9-9.3c2.5-0.3,4.9-0.3,7.4-0.1
					h0c19.8,2,37.1-13.2,37.8-33.1l2.2-66.5c0-1.1,0-2.3-0.1-3.4l-6.3-97.5c-0.1-2.1-0.5-4.1-1-6.1l-23.2-92.6
					c-2-7.9-6.7-14.9-13.3-19.6l-22.7-16.3c-3.8-2.8-8.2-4.7-12.8-5.7L416.1,63c-6.4-1.4-13-0.9-19.2,1.3l-46.1,17
					c-2.4,0.9-5,1.5-7.6,1.9l-42.6,5.4c-0.7,0.1-1.3,0.2-2,0.3l-57.1,10.7c-5.9,1.1-11.3,3.7-15.9,7.5l-10.6,9
					c-4.4,3.7-7.8,8.4-9.9,13.8L182.3,188.6z"/>
				<path class="st12" d="M202.3,198.3c-1.3,3.3-2,6.9-2.1,10.5l-2,115.2l-3.2,95c-0.5,14.7,9.7,27.7,24.1,30.6l9.6,2
					c3.8,0.8,7.8,0.8,11.7,0.1l75.8-14.3c2.5-0.5,4.9-1.2,7.1-2.3l64.9-30.2c2.9-1.4,6-2.2,9.2-2.6l69.3-8.1
					c2.2-0.3,4.3-0.3,6.5-0.1h0c17.4,1.7,32.6-11.6,33.2-29.1l2-58.4c0-1,0-2,0-3l-5.5-85.6c-0.1-1.8-0.4-3.6-0.8-5.4l-20.3-81.3
					c-1.7-6.9-5.9-13-11.7-17.2l-19.9-14.3c-3.4-2.4-7.2-4.1-11.3-5l-31.4-6.8c-5.6-1.2-11.5-0.8-16.8,1.2l-40.5,14.9
					c-2.1,0.8-4.4,1.3-6.7,1.6l-37.4,4.7c-0.6,0.1-1.2,0.2-1.8,0.3l-50.1,9.4c-5.1,1-10,3.2-14,6.6l-9.3,7.9
					c-3.8,3.3-6.8,7.4-8.7,12.1L202.3,198.3z"/>
				<path class="st13" d="M225.1,209.4c-1.1,2.8-1.7,5.8-1.7,8.8l-1.7,96.9l-2.7,79.9c-0.4,12.4,8.2,23.3,20.3,25.7l8.1,1.7
					c3.2,0.7,6.6,0.7,9.8,0.1l63.8-12c2.1-0.4,4.1-1,6-1.9l54.6-25.4c2.4-1.1,5.1-1.9,7.7-2.2l58.3-6.8c1.8-0.2,3.6-0.2,5.5-0.1h0
					c14.6,1.4,27.4-9.8,27.9-24.4l1.7-49.1c0-0.8,0-1.7,0-2.5l-4.7-72c-0.1-1.5-0.3-3-0.7-4.5l-17.1-68.4c-1.5-5.8-4.9-11-9.8-14.5
					l-16.8-12c-2.8-2-6.1-3.5-9.5-4.2l-26.4-5.7c-4.7-1-9.6-0.7-14.2,1l-34,12.5c-1.8,0.7-3.7,1.1-5.6,1.4l-31.5,4
					c-0.5,0.1-1,0.1-1.5,0.2l-42.2,7.9c-4.3,0.8-8.4,2.7-11.7,5.6l-7.8,6.6c-3.2,2.7-5.7,6.2-7.3,10.2L225.1,209.4z"/>
			</g>
		</g>
		<g>
			<path class="st6" d="M622.3,561.7l141.7-2.7c10.1-0.2,20.1,0.4,30.1,1.8L913.3,577c8.8,1.2,17.6,2,26.5,2.4L1053,584L1037,395
				c-2.5-29.7-2.4-59.6,0.2-89.3l14.5-161.9l-436.2-15.1L622.3,561.7z"/>
			<g>
				<path class="st7" d="M1031.6,293.2l11.3-152.9l-7.1-0.4l0.6-7.5l-5.6-0.3l0.5-6.8l-6.5-0.3l0.4-5.7h-4.4l0.4-5.1l-4.4-0.5
					l-44.7-1l-1.8,23.8l-19-1c-10.9-0.6-21.9-1.5-32.8-2.8l-44.7-5.2l-136.7-19.2c-16.1-2.3-32.4-2.7-48.6-1.2h0
					c-27.4,2.5-54.1,10.3-78.5,23l-8.6,4.5v284.1l-25.3,0.4l-0.4,120.6l4,5.1l4,5.1l6.1,6.1l5.1,7.1l6.5,7.9l20.8-9.3
					c0,0,43.4-16.1,66.3-18.2l0,0c16.2-1.5,32.5-1.1,48.6,1.2l136.7,19.2l44.7,5.2c10.9,1.3,21.8,2.2,32.8,2.8l91.5,4.8l-11.7-176.1
					C1028.8,364.8,1028.9,328.9,1031.6,293.2z"/>
				<path class="st9" d="M1036.4,132.5L1025,285.4c-2.6,35.7-2.8,71.5-0.4,107.2l11.7,176.1l-91.5-4.8c-10.9-0.6-21.9-1.5-32.8-2.8
					l-44.7-5.2l-136.7-19.2c-16.1-2.3-32.4-2.7-48.6-1.2h0c-27.4,2.5-54.1,10.3-78.5,23l-8.6,4.5"/>
				<path class="st9" d="M1031.3,125.4L1020,278.3c-2.6,35.7-2.8,71.5-0.4,107.2l11.7,176.1l-91.5-4.8c-10.9-0.6-21.9-1.5-32.8-2.8
					l-44.7-5.2l-136.7-19.2c-16.1-2.3-32.4-2.7-48.6-1.2h0c-27.4,2.5-54.1,10.3-78.5,23l-8.6,4.5"/>
				<path class="st9" d="M1025.2,119.4l-11.3,152.9c-2.6,35.7-2.8,71.5-0.4,107.2l11.7,176.1l-91.5-4.8c-10.9-0.6-21.9-1.5-32.8-2.8
					l-44.7-5.2l-136.7-19.2c-16.1-2.3-32.4-2.7-48.6-1.2h0c-27.4,2.5-54.1,10.3-78.5,23l-8.6,4.5"/>
				<path class="st9" d="M579.8,108.7l8.6-4.5c24.4-12.7,51.1-20.5,78.5-23l0,0c16.2-1.5,32.5-1.1,48.6,1.2l136.7,19.2l44.7,5.2
					c10.9,1.3,21.8,2.2,32.8,2.8l91.5,4.8l-11.3,152.9c-2.6,35.7-2.8,71.5-0.4,107.2l11.7,176.1l-91.5-4.8
					c-10.9-0.6-21.9-1.5-32.8-2.8l-44.7-5.2l-136.7-19.2c-16.1-2.3-32.4-2.7-48.6-1.2h0c-27.4,2.5-54.1,10.3-78.5,23l-8.6,4.5"/>
				<path class="st14" d="M1010.6,484.6l-0.9,20.2c-0.4,9.2-4,17.9-10.1,24.7l0,0c-7.6,8.4-18.4,13.2-29.7,13.1l-29.5-0.3"/>
				<path class="st15" d="M1008.6,479.6l-0.9,20.2c-0.4,9.2-4,17.9-10.1,24.7l0,0c-7.6,8.4-18.4,13.2-29.7,13.1l-29.5-0.3"/>
				<path class="st9" d="M1005.4,369.4c-0.8-11.5-1.3-23-1.5-34.4l-11.1-4.3l11-6.7c-0.1-20.6,0.5-41.2,2.1-61.8l11.3-152.9
					l-91.5-4.8c-10.9-0.6-21.9-1.5-32.8-2.8l-44.7-5.2l-26.5-3.7l-14.2,9.8l0.6-11.8l-96.6-13.5c-16.1-2.3-32.4-2.7-48.6-1.2h0
					c-27.4,2.5-54.1,10.3-78.5,23l-8.6,4.5v435c0,0.6,0.6,0.9,1.1,0.7l7.5-3.9c24.4-12.7,51.1-20.5,78.5-23h0
					c16.2-1.5,32.5-1.1,48.6,1.2l136.7,19.2l44.7,5.2c10.9,1.3,21.8,2.2,32.8,2.8l14.8-0.4c20.8-0.5,39.4-13.3,47.3-32.5l3.2-7.8h0
					c10.6,1.8,20.2-6.6,19.7-17.4L1005.4,369.4z"/>
				<path class="st10" d="M584.4,99.2l6.5,164.3c1,26.2,1.1,52.4,0.2,78.5l-6.7,193.3l-8.6,4.5V103.6L584.4,99.2z"/>
				<path class="st8" d="M1005.4,369.4c-0.8-11.5-1.3-23-1.5-34.4l-11.1-4.3l11-6.7c-0.1-20.6,0.5-41.2,2.1-61.8l11.3-152.9
					l-91.5-4.8c-10.9-0.6-21.9-1.5-32.8-2.8l-44.7-5.2l-26.5-3.7l-14.2,9.8l0.6-11.8l-96.6-13.5c-16.1-2.3-32.4-2.7-48.6-1.2h0
					c-27.4,2.5-54.1,10.3-78.5,23l-8.6,4.5v435c0,0.6,0.6,0.9,1.1,0.7l7.5-3.9c24.4-12.7,51.1-20.5,78.5-23h0
					c16.2-1.5,32.5-1.1,48.6,1.2l136.7,19.2l44.7,5.2c10.9,1.3,21.8,2.2,32.8,2.8l14.8-0.4c20.8-0.5,39.4-13.3,47.3-32.5l3.2-7.8h0
					c10.6,1.8,20.2-6.6,19.7-17.4L1005.4,369.4z"/>
			</g>
			<g>
				<path class="st11" d="M950.9,220.3c1.8,3.7,2.9,7.6,3.4,11.7l13.6,130.6l12.9,107.5c2,16.7-8.3,32.3-24.4,37.1l-10.7,3.2
					c-4.3,1.3-8.8,1.7-13.2,1.2l-87.5-8.8c-2.8-0.3-5.6-0.9-8.3-1.9l-76.7-27.9c-3.4-1.2-7.1-1.9-10.7-2.1l-79.4-2.4
					c-2.5-0.1-4.9,0.1-7.4,0.6l0,0c-19.6,3.7-38.1-10-40.5-29.7l-8-66.1c-0.1-1.1-0.2-2.2-0.2-3.4l-2.1-97.7c0-2.1,0.1-4.1,0.4-6.2
					l15.1-94.3c1.3-8,5.4-15.4,11.6-20.7l21.2-18.2c3.6-3.1,7.8-5.4,12.3-6.8l35-10.8c6.2-1.9,12.9-2,19.2-0.3l47.4,13
					c2.5,0.7,5.1,1.1,7.7,1.2l42.9,1.7c0.7,0,1.3,0.1,2,0.1l57.8,5.7c5.9,0.6,11.6,2.7,16.5,6.1l11.3,8c4.7,3.3,8.5,7.7,11,12.9
					L950.9,220.3z"/>
				<path class="st12" d="M931.9,231.7c1.6,3.2,2.6,6.7,3,10.2l11.9,114.6L958,451c1.8,14.6-7.3,28.4-21.4,32.6l-9.4,2.8
					c-3.8,1.1-7.7,1.5-11.6,1.1l-76.8-7.7c-2.5-0.3-5-0.8-7.3-1.7l-67.3-24.5c-3-1.1-6.2-1.7-9.4-1.8l-69.7-2.1
					c-2.2-0.1-4.3,0.1-6.5,0.5v0c-17.2,3.2-33.5-8.8-35.6-26.1l-7-58c-0.1-1-0.2-2-0.2-3l-1.8-85.7c0-1.8,0.1-3.6,0.4-5.4l13.2-82.8
					c1.1-7.1,4.7-13.5,10.2-18.2l18.6-16c3.1-2.7,6.8-4.7,10.8-6l30.7-9.5c5.5-1.7,11.3-1.8,16.9-0.3l41.6,11.4c2.2,0.6,4.5,1,6.8,1
					l37.7,1.5c0.6,0,1.2,0.1,1.8,0.1l50.8,5c5.2,0.5,10.2,2.4,14.5,5.4l9.9,7c4.1,2.9,7.4,6.8,9.7,11.3L931.9,231.7z"/>
				<path class="st13" d="M910.1,244.7c1.3,2.7,2.2,5.6,2.5,8.6l10,96.4l9.5,79.3c1.5,12.3-6.1,23.9-18,27.4l-7.9,2.3
					c-3.2,0.9-6.5,1.2-9.8,0.9l-64.6-6.5c-2.1-0.2-4.2-0.7-6.1-1.4l-56.6-20.6c-2.5-0.9-5.2-1.4-7.9-1.5l-58.6-1.8
					c-1.8-0.1-3.7,0.1-5.4,0.4h0c-14.4,2.7-28.1-7.4-29.9-21.9l-5.9-48.8c-0.1-0.8-0.2-1.7-0.2-2.5l-1.6-72.1c0-1.5,0.1-3.1,0.3-4.6
					l11.1-69.6c1-5.9,4-11.3,8.5-15.3l15.7-13.4c2.6-2.3,5.7-4,9.1-5l25.8-8c4.6-1.4,9.5-1.5,14.2-0.2l35,9.6
					c1.9,0.5,3.8,0.8,5.7,0.9l31.7,1.3c0.5,0,1,0.1,1.5,0.1l42.7,4.2c4.4,0.4,8.6,2,12.2,4.5l8.4,5.9c3.5,2.4,6.3,5.7,8.1,9.5
					L910.1,244.7z"/>
			</g>
		</g>
		<g>
			<path class="st16" d="M514.2,578.5c-1,0-2-0.3-2.9-0.8c-2.6-1.6-3.4-5.1-1.8-7.7l6.3-10.1c8.8-14,24.6-22.6,41.1-22.3
				c16.1,0.3,30.8,8.5,39.4,22.1l7.4,11.7c1.6,2.6,0.9,6-1.7,7.7c-2.6,1.6-6,0.9-7.7-1.7l-7.4-11.7c-6.6-10.4-17.9-16.7-30.2-16.9
				c-12.7-0.2-24.8,6.3-31.5,17.1l-6.3,10.1C517.9,577.6,516.1,578.6,514.2,578.5z"/>
		</g>
	</g>
</g>
</svg>
