<?xml version="1.0" encoding="utf-8"?>
<!-- Generator: Adobe Illustrator 24.2.1, SVG Export Plug-In . SVG Version: 6.00 Build 0)  -->
<svg version="1.1" id="Lag_1" xmlns="http://www.w3.org/2000/svg" xmlns:xlink="http://www.w3.org/1999/xlink" x="0px" y="0px"
	 viewBox="0 0 327 83" style="enable-background:new 0 0 327 83;" xml:space="preserve">
<style type="text/css">
	.st0{fill:#DBC3A9;stroke:#110B09;stroke-width:2;stroke-miterlimit:10;}
	.st1{fill:#C6B29E;}
	.st2{fill:none;stroke:#000000;stroke-width:2;stroke-miterlimit:10;}
	.st3{fill:#EDD7C0;}
	.st4{fill:#E0C9B3;stroke:#110B09;stroke-width:2;stroke-miterlimit:10;}
</style>
<g>
	<polygon class="st0" points="244.6,76 165.6,79 83.1,76 85.7,64.1 83.1,49.2 244.6,49.2 242,65.1 	"/>
	<polygon class="st1" points="243.3,61.5 244.6,53.2 83.1,53.2 84.5,61.2 163.4,65 	"/>
	<polygon class="st2" points="244.6,76 165.6,79 83.1,76 85.7,64.1 83.1,49.2 244.6,49.2 242,65.1 	"/>
	<g>
		<polygon class="st0" points="298.9,13.8 163.5,7.5 28.2,13.7 47.5,33 29.3,51.2 163.5,57.5 297.8,51.3 279.6,33.1 		"/>
		<polygon class="st3" points="281.4,20.7 163.5,15.3 45.7,20.6 58.9,32.8 46.4,44.3 163.5,49.6 280.6,44.4 268.1,32.9 		"/>
		<path class="st4" d="M163.5,61h-0.2L21.2,54.3L42.6,33L20.1,10.5L163.5,4h0.2l143.2,6.7l-22.4,22.4l21.3,21.3L163.5,61z M37.4,48
			l126.1,6l126.2-5.8l-15.1-15.1l16.2-16.2L163.5,11L36.3,16.8L52.5,33L37.4,48z"/>
		<path class="st0" d="M17.1,18.3L3.8,32.5L17,46.6l13.2-14.1L17.1,18.3z M9.6,32.5l7.4-8l7.4,8l-7.4,8L9.6,32.5z"/>
		<path class="st0" d="M309.9,19l-13.2,14.1l13.2,14.1l13.2-14.1L309.9,19z M302.5,33.1l7.4-8l7.4,8l-7.4,8L302.5,33.1z"/>
	</g>
</g>
</svg>
