<?xml version="1.0" encoding="utf-8"?>
<!-- Generator: Adobe Illustrator 24.1.3, SVG Export Plug-In . SVG Version: 6.00 Build 0)  -->
<svg version="1.1" id="Lag_1" xmlns="http://www.w3.org/2000/svg" xmlns:xlink="http://www.w3.org/1999/xlink" x="0px" y="0px"
	 viewBox="0 0 280 166.7" style="enable-background:new 0 0 280 166.7;" xml:space="preserve">
<style type="text/css">
	.st0{fill:none;}
	.st1{fill:#F7F2F0;}
</style>
<g>
	<g>
		<g>
			<line class="st0" x1="-0.7" y1="43.1" x2="279.9" y2="43.1"/>
			<rect x="-0.7" y="42.1" class="st1" width="280.6" height="2"/>
		</g>
		<g>
			<line class="st0" x1="-0.4" y1="53.6" x2="280.2" y2="53.6"/>
			<rect x="-0.4" y="52.6" class="st1" width="280.6" height="2"/>
		</g>
		<g>
			<line class="st0" x1="-0.1" y1="113.1" x2="280.5" y2="113.1"/>
			<rect x="-0.1" y="112.1" class="st1" width="280.6" height="2"/>
		</g>
		<g>
			<line class="st0" x1="0.2" y1="123.6" x2="280.8" y2="123.6"/>
			<rect x="0.2" y="122.6" class="st1" width="280.6" height="2"/>
		</g>
	</g>
	<g>
		<g>
			<g>
				<path class="st1" d="M3.3,86.2c-0.8,0-1.7-0.1-2.7-0.2l0.3-2c3.4,0.5,5.9,0,7.7-1.4l1.3,1.6C8.1,85.5,6,86.2,3.3,86.2z"/>
			</g>
			<g>
				<path class="st1" d="M3.3,93.2c-1.1,0-2.3-0.1-3.6-0.3l0.3-2c4.9,0.7,9-0.1,12.2-2.3l1.1,1.7C10.5,92.2,7.2,93.2,3.3,93.2z"/>
			</g>
			<g>
				<path class="st1" d="M67.3,93.2c-5.2,0-9.4-1.7-12.6-5.1c-5.7-6.1-6-16-5.6-22H21.4c0.4,5.1,0.2,12-2.6,17.7L17,82.9
					c3-5.9,2.7-13.6,2.3-17.7l-0.1-1.1h32.1l-0.1,1.1c-0.5,5.5-0.6,15.6,4.9,21.5c3.3,3.5,8,5,14,4.3l0.1,0l0.1,0
					c4.7,0.6,8.7-0.2,11.8-2.3l1.1,1.7c-3.5,2.4-7.8,3.3-13,2.7C69.3,93.1,68.3,93.2,67.3,93.2z"/>
			</g>
			<g>
				<path class="st1" d="M137.3,93.2c-5.2,0-9.4-1.7-12.6-5.1c-5.7-6.1-6-16-5.6-22H91.4c0.4,5.1,0.2,12-2.6,17.7L87,82.9
					c2.9-5.9,2.7-13.6,2.3-17.7l-0.1-1.1h32.1l-0.1,1.1c-0.6,5.5-0.6,15.6,4.9,21.5c3.3,3.5,8,5,14,4.3l0.1,0l0.1,0
					c4.7,0.6,8.7-0.2,11.8-2.3l1.1,1.7c-3.5,2.4-7.8,3.3-13,2.7C139.3,93.1,138.3,93.2,137.3,93.2z"/>
			</g>
			<g>
				<path class="st1" d="M207.3,93.2c-5.2,0-9.4-1.7-12.6-5.1c-5.7-6.1-6-16-5.6-22h-27.8c0.4,5.1,0.2,12-2.6,17.7l-1.8-0.9
					c2.9-5.9,2.7-13.6,2.3-17.7l-0.1-1.1h32.1l-0.1,1.1c-0.6,5.5-0.6,15.6,4.9,21.5c3.3,3.5,8,5,14,4.3l0.1,0l0.1,0
					c4.7,0.6,8.7-0.2,11.8-2.3l1.1,1.7c-3.5,2.4-7.8,3.3-13,2.7C209.3,93.1,208.3,93.2,207.3,93.2z"/>
			</g>
			<g>
				<path class="st1" d="M277.3,93.2c-5.2,0-9.4-1.7-12.6-5.1c-5.7-6.1-6-16-5.6-22h-27.8c0.4,5.1,0.2,12-2.6,17.7l-1.8-0.9
					c2.9-5.9,2.7-13.6,2.3-17.7l-0.1-1.1h32.1l-0.1,1.1c-0.5,5.5-0.6,15.6,4.9,21.5c3.4,3.6,8.3,5,14.4,4.2l0.3,2
					C279.7,93.1,278.5,93.2,277.3,93.2z"/>
			</g>
			<g>
				<path class="st1" d="M277.3,86.2c-3.2,0-5.7-0.9-7.5-2.9c-6-6.3-3.1-21.1-3.1-21.2l0.6-3h-44.1l0.6,3c0.6,3.1,1.3,9.8-0.1,15.4
					l-1.9-0.5c1.3-5.2,0.6-11.8,0.1-14.5l-1.1-5.4h49l-1.1,5.4c-0.7,3.6-1.8,14.8,2.6,19.5c1.8,1.9,4.5,2.6,8.4,2.1l0.3,2
					C279,86.1,278.1,86.2,277.3,86.2z"/>
			</g>
			<g>
				<path class="st1" d="M207.3,86.2c-3.2,0-5.7-0.9-7.5-2.9c-6-6.3-3.1-21.1-3.1-21.2l0.6-3h-44.1l0.6,3c0.6,3.1,1.3,9.8-0.1,15.4
					l-1.9-0.5c1.3-5.2,0.6-11.8,0.1-14.5l-1.1-5.4h49l-1.1,5.4c-0.7,3.6-1.8,14.8,2.6,19.5c1.8,1.9,4.5,2.6,8.4,2.1l0.6-0.1l0.6,0.1
					c3.4,0.5,5.9,0,7.7-1.4l1.3,1.6c-2.2,1.8-5.2,2.4-9.2,1.8l-0.3-0.1L210,86C209,86.1,208.1,86.2,207.3,86.2z"/>
			</g>
			<g>
				<path class="st1" d="M137.3,86.2c-3.2,0-5.7-0.9-7.5-2.9c-6-6.3-3.1-21.1-3.1-21.2l0.6-3H83.2l0.6,3c0.6,3.1,1.3,9.8-0.1,15.3
					l-1.9-0.5c1.3-5.2,0.6-11.7,0.1-14.4l-1.1-5.4h49l-1.1,5.4c-0.7,3.6-1.8,14.8,2.6,19.5c1.8,1.9,4.5,2.6,8.4,2.1l0.6-0.1l0.6,0.1
					c3.4,0.5,5.9,0,7.7-1.4l1.3,1.6c-2.2,1.8-5.2,2.4-9.2,1.8l-0.3-0.1l-0.3,0.1C139,86.1,138.1,86.2,137.3,86.2z"/>
			</g>
			<g>
				<path class="st1" d="M67.3,86.2c-3.2,0-5.7-0.9-7.5-2.9c-6-6.3-3.1-21.1-3.1-21.2l0.6-3H13.2l0.6,3c0.6,3.1,1.3,9.8-0.1,15.4
					L11.8,77c1.3-5.2,0.6-11.8,0.1-14.5l-1.1-5.4h49l-1.1,5.4C58,66,56.9,77.3,61.3,81.9c1.8,1.9,4.5,2.6,8.4,2.1l0.6-0.1l0.6,0.1
					c3.4,0.5,5.9,0,7.7-1.4l1.3,1.6c-2.2,1.8-5.2,2.4-9.2,1.8l-0.3-0.1L70,86C69,86.1,68.1,86.2,67.3,86.2z"/>
			</g>
		</g>
		<g>
			<g>
				<path class="st1" d="M51.4,102.6H19.2l0.1-1.1c0.5-5.5,0.6-15.6-4.9-21.5C11,76.3,6.1,74.9,0,75.7l-0.3-2
					c6.9-0.9,12.3,0.7,16.2,4.8c5.7,6.1,6,16,5.6,22h27.7c-0.4-5.1-0.2-12,2.6-17.7l1.8,0.9c-3,5.9-2.7,13.6-2.3,17.7L51.4,102.6z"
					/>
			</g>
			<g>
				<path class="st1" d="M59.8,109.6h-49l1.1-5.4c0.7-3.6,1.8-14.8-2.6-19.5c-1.8-1.9-4.5-2.6-8.4-2.1l-0.3-2
					c4.5-0.6,7.8,0.3,10.1,2.7c6,6.3,3.1,21.1,3.1,21.2l-0.6,3h44.1l-0.6-3c-0.6-3.1-1.3-9.8,0.1-15.4l1.9,0.5
					c-1.3,5.2-0.7,11.8-0.1,14.5L59.8,109.6z"/>
			</g>
			<g>
				<path class="st1" d="M129.8,109.6h-49l1.1-5.4c0.7-3.6,1.8-14.8-2.6-19.5c-1.8-1.9-4.5-2.6-8.4-2.1l-0.6,0.1l-0.6-0.1
					c-3.4-0.5-5.9,0-7.7,1.4l-1.3-1.6c2.2-1.8,5.2-2.4,9.2-1.8l0.3,0.1l0.3-0.1c4.5-0.6,7.8,0.3,10.1,2.7c6,6.3,3.1,21.1,3.1,21.2
					l-0.6,3h44.1l-0.6-3c-0.6-3.1-1.3-9.8,0.1-15.4l1.9,0.5c-1.3,5.2-0.6,11.8-0.1,14.5L129.8,109.6z"/>
			</g>
			<g>
				<path class="st1" d="M199.8,109.6h-49l1.1-5.4c0.7-3.6,1.8-14.8-2.6-19.5c-1.8-1.9-4.5-2.6-8.4-2.1l-0.6,0.1l-0.6-0.1
					c-3.4-0.5-5.9,0-7.7,1.4c-0.3,0.2-0.5,0.4-0.7,0.7l-1.5-1.4c0.3-0.3,0.6-0.6,0.9-0.8c2.2-1.8,5.2-2.4,9.2-1.8l0.3,0.1l0.3-0.1
					c4.5-0.6,7.9,0.3,10.1,2.7c6,6.3,3.1,21.1,3.1,21.2l-0.6,3h44.1l-0.6-3c-0.6-3.1-1.3-9.8,0.1-15.4l1.9,0.5
					c-1.3,5.2-0.6,11.8-0.1,14.5L199.8,109.6z"/>
			</g>
			<g>
				<path class="st1" d="M269.8,109.6h-49l1.1-5.4c0.7-3.6,1.8-14.8-2.6-19.5c-1.8-1.9-4.5-2.6-8.4-2.1l-0.6,0.1l-0.6-0.1
					c-3.4-0.5-5.9,0-7.7,1.4l-1.3-1.6c2.2-1.8,5.2-2.4,9.2-1.8l0.3,0.1l0.3-0.1c4.5-0.6,7.9,0.3,10.1,2.7c6,6.3,3.1,21.1,3.1,21.2
					l-0.6,3h44.1l-0.6-3c-0.6-3.1-1.3-9.8,0.1-15.4l1.9,0.5c-1.3,5.2-0.6,11.8-0.1,14.5L269.8,109.6z"/>
			</g>
			<g>
				<path class="st1" d="M272,84.1l-1.3-1.6c2.2-1.8,5.2-2.4,9.2-1.8l-0.3,2C276.3,82.2,273.8,82.7,272,84.1z"/>
			</g>
			<g>
				<path class="st1" d="M268.4,78l-1.1-1.7c3.6-2.5,8.2-3.4,13.6-2.6l-0.3,2C275.7,75.1,271.6,75.8,268.4,78z"/>
			</g>
			<g>
				<path class="st1" d="M261.4,102.6h-32.1l0.1-1.1c0.6-5.5,0.6-15.6-4.9-21.5c-3.3-3.5-8-5-14-4.3l-0.1,0l-0.1,0
					c-4.7-0.6-8.7,0.2-11.8,2.3l-1.1-1.7c3.5-2.4,7.8-3.3,13-2.7c6.6-0.8,11.8,0.9,15.6,4.9c5.7,6.1,6,16,5.6,22h27.8
					c-0.4-5.1-0.2-12,2.6-17.7l1.8,0.9c-3,5.9-2.7,13.6-2.3,17.7L261.4,102.6z"/>
			</g>
			<g>
				<path class="st1" d="M191.4,102.6h-32.1l0.1-1.1c0.6-5.5,0.6-15.6-4.9-21.5c-3.3-3.5-8-5-14-4.3l-0.1,0l-0.1,0
					c-4.7-0.6-8.7,0.2-11.8,2.3l-1.1-1.7c3.5-2.4,7.8-3.3,13-2.7c6.6-0.8,11.8,0.9,15.6,4.9c5.7,6.1,6,16,5.6,22h27.8
					c-0.4-5.1-0.2-12,2.6-17.7l1.8,0.9c-2.9,5.9-2.7,13.6-2.3,17.7L191.4,102.6z"/>
			</g>
			<g>
				<path class="st1" d="M121.4,102.6H89.2l0.1-1.1c0.6-5.5,0.6-15.6-4.9-21.5c-3.3-3.5-8-5-14-4.3l-0.1,0l-0.1,0
					c-4.7-0.6-8.7,0.2-11.8,2.3l-1.1-1.7c3.5-2.4,7.8-3.3,13-2.7c6.6-0.8,11.8,0.9,15.6,4.9c5.7,6.1,6,16,5.6,22h27.8
					c-0.4-5.1-0.2-12,2.6-17.7l1.8,0.9c-2.9,5.9-2.7,13.6-2.3,17.7L121.4,102.6z"/>
			</g>
		</g>
	</g>
	<g>
		<path class="st1" d="M35.7,74.1C35.7,74.1,35.7,74.1,35.7,74.1c0-0.1,0-0.1,0-0.2l-0.1-0.2c0-0.1-0.1-0.3-0.1-0.4
			c0-0.1,0.1-0.3,0.2-0.4l0,0c0,0,0,0,0,0c-0.1,0-0.1-0.1-0.1-0.2l0-0.3c0,0,0,0,0,0l-0.3,0.3c0-0.1-0.1-0.3-0.1-0.4
			c0,0,0-0.1,0-0.1c0-0.1,0-0.3,0-0.4l0-0.5c0,0,0,0,0,0l-0.2,0.3c0,0,0,0,0,0l-0.2-0.4c0,0,0,0,0,0l0,0.6c0,0.1,0,0.2,0,0.3
			c0,0,0,0.1,0,0.1c0,0.1-0.1,0.2-0.1,0.4l-0.3-0.3c0,0,0,0,0,0l0,0.3c0,0.1,0,0.1-0.1,0.2c0,0,0,0,0,0l0,0c0.1,0.1,0.2,0.2,0.2,0.4
			c0,0.1,0,0.3-0.1,0.4l-0.1,0.2c0,0.1,0,0.1,0,0.2c0,0,0,0,0,0c-0.3,0.8,0.2,1.7,0.9,1.7C35.5,75.8,36,74.9,35.7,74.1z"/>
		<circle class="st1" cx="34.8" cy="83.6" r="1"/>
		<path class="st1" d="M35.7,93C35.7,93,35.7,93,35.7,93c0,0.1,0,0.1,0,0.2l-0.1,0.2c0,0.1-0.1,0.3-0.1,0.4c0,0.1,0.1,0.3,0.2,0.4
			l0,0c0,0,0,0,0,0c-0.1,0-0.1,0.1-0.1,0.2v0.3c0,0,0,0,0,0l-0.3-0.3c0,0.1-0.1,0.3-0.1,0.4c0,0,0,0.1,0,0.1c0,0.1,0,0.3,0,0.4
			l0,0.5c0,0,0,0,0,0l-0.2-0.3c0,0,0,0,0,0l-0.2,0.4c0,0,0,0,0,0l0-0.6c0-0.1,0-0.2,0-0.3c0,0,0-0.1,0-0.1c0-0.1-0.1-0.2-0.1-0.4
			l-0.3,0.3c0,0,0,0,0,0l0-0.3c0-0.1,0-0.1-0.1-0.2c0,0,0,0,0,0l0,0c0.1-0.1,0.2-0.2,0.2-0.4c0-0.1,0-0.3-0.1-0.4l-0.1-0.2
			c0-0.1,0-0.1,0-0.2c0,0,0,0,0,0c-0.3-0.8,0.2-1.7,0.9-1.7C35.5,91.3,36,92.2,35.7,93z"/>
		<circle class="st1" cx="34.8" cy="83.6" r="1"/>
		<path class="st1" d="M25.3,82.7C25.3,82.7,25.3,82.7,25.3,82.7c-0.1,0-0.1,0-0.2,0.1l-0.2,0.1c-0.1,0.1-0.3,0.1-0.4,0.1
			c-0.1,0-0.3-0.1-0.4-0.2l0,0c0,0,0,0,0,0c0,0.1-0.1,0.1-0.2,0.1l-0.3,0c0,0,0,0,0,0.1l0.4,0.3c-0.1,0-0.3,0.1-0.4,0.1
			c0,0-0.1,0-0.1,0c-0.1,0-0.3,0-0.4,0l-0.5,0c0,0,0,0,0,0l0.3,0.2c0,0,0,0,0,0l-0.4,0.2c0,0,0,0,0,0l0.6,0c0.1,0,0.2,0,0.3,0
			c0,0,0.1,0,0.1,0c0.1,0,0.2,0.1,0.4,0.1l-0.3,0.3c0,0,0,0.1,0,0.1l0.3,0c0.1,0,0.1,0,0.2,0.1c0,0,0,0,0,0l0,0
			c0.1-0.1,0.2-0.2,0.4-0.2c0.1,0,0.3,0,0.4,0.1l0.2,0.1c0.1,0,0.1,0,0.2,0c0,0,0,0,0,0c0.8,0.3,1.7-0.2,1.7-0.9
			C27.1,82.9,26.1,82.4,25.3,82.7z"/>
		<circle class="st1" cx="34.8" cy="83.6" r="1"/>
		<path class="st1" d="M44.3,82.7C44.3,82.7,44.3,82.7,44.3,82.7c0.1,0,0.2,0,0.2,0.1l0.2,0.1c0.1,0.1,0.3,0.1,0.4,0.1
			c0.1,0,0.3-0.1,0.4-0.2l0,0c0,0,0,0,0,0c0,0.1,0.1,0.1,0.2,0.1l0.3,0c0,0,0,0,0,0.1l-0.3,0.3c0.1,0,0.3,0.1,0.4,0.1
			c0,0,0.1,0,0.1,0c0.1,0,0.3,0,0.4,0l0.5,0c0,0,0,0,0,0l-0.3,0.2c0,0,0,0,0,0l0.4,0.2c0,0,0,0,0,0l-0.6,0c-0.1,0-0.2,0-0.3,0
			c0,0-0.1,0-0.1,0c-0.1,0-0.2,0.1-0.4,0.1l0.3,0.3c0,0,0,0.1,0,0.1l-0.3,0c-0.1,0-0.1,0-0.2,0.1c0,0,0,0,0,0l0,0
			c-0.1-0.1-0.2-0.2-0.4-0.2c-0.1,0-0.3,0-0.4,0.1l-0.2,0.1c-0.1,0-0.1,0-0.2,0c0,0,0,0,0,0c-0.8,0.3-1.7-0.2-1.7-0.9
			C42.5,82.9,43.4,82.4,44.3,82.7z"/>
		<circle class="st1" cx="34.8" cy="83.6" r="1"/>
		<path class="st1" d="M27.5,89.6C27.5,89.6,27.4,89.6,27.5,89.6c-0.1,0.1-0.1,0.1-0.1,0.2L27.3,90c0,0.1-0.1,0.2-0.2,0.3
			c-0.1,0.1-0.3,0.2-0.4,0.2l0,0c0,0,0,0,0,0c0,0.1,0,0.2,0,0.2l-0.2,0.2c0,0,0,0.1,0,0.1l0.5,0c-0.1,0.1-0.1,0.3-0.2,0.4
			c0,0,0,0.1,0,0.1c-0.1,0.1-0.2,0.2-0.3,0.3L26,92c0,0,0,0,0,0l0.4-0.1c0,0,0,0,0,0l-0.1,0.4c0,0,0,0,0,0l0.4-0.4
			c0.1-0.1,0.2-0.2,0.3-0.2c0,0,0,0,0.1-0.1c0.1-0.1,0.2-0.1,0.3-0.2l0,0.5c0,0,0,0,0,0l0.2-0.2c0.1-0.1,0.1-0.1,0.2-0.1
			c0,0,0,0,0,0l0,0c0-0.1,0.1-0.3,0.2-0.4c0.1-0.1,0.2-0.2,0.3-0.2l0.2-0.1c0.1,0,0.1-0.1,0.1-0.1c0,0,0,0,0,0
			c0.8-0.4,1.1-1.4,0.6-1.9C28.8,88.5,27.8,88.8,27.5,89.6z"/>
		<circle class="st1" cx="34.8" cy="83.6" r="1"/>
		<path class="st1" d="M40.8,76.2C40.8,76.2,40.8,76.2,40.8,76.2c0.1-0.1,0.1-0.1,0.2-0.1l0.2-0.1c0.1-0.1,0.2-0.1,0.3-0.2
			c0.1-0.1,0.2-0.3,0.2-0.4l0,0c0,0,0,0,0,0c0.1,0,0.2,0,0.2-0.1l0.2-0.2c0,0,0,0,0,0l0,0.5c0.1-0.1,0.3-0.1,0.4-0.2
			c0,0,0,0,0.1-0.1c0.1-0.1,0.2-0.2,0.3-0.3l0.3-0.4c0,0,0,0,0,0l-0.1,0.4c0,0,0,0,0,0l0.4-0.1c0,0,0,0,0,0l-0.5,0.4
			c-0.1,0.1-0.2,0.2-0.2,0.3c0,0,0,0.1,0,0.1c-0.1,0.1-0.1,0.2-0.2,0.3l0.5,0c0,0,0,0,0,0.1L43,76.4c0,0.1-0.1,0.1,0,0.2
			c0,0,0,0,0,0l0,0c-0.1,0-0.3,0.1-0.4,0.2c-0.1,0.1-0.2,0.2-0.2,0.3l-0.1,0.2c0,0.1-0.1,0.1-0.1,0.2c0,0,0,0,0,0
			c-0.4,0.8-1.4,1.1-1.9,0.6C39.8,77.6,40.1,76.6,40.8,76.2z"/>
		<circle class="st1" cx="34.8" cy="83.6" r="1"/>
		<path class="st1" d="M40.8,91C40.8,91,40.8,91,40.8,91C40.9,91,41,91,41,91.1l0.2,0.1c0.1,0.1,0.2,0.1,0.3,0.2
			c0.1,0.1,0.2,0.3,0.2,0.4l0,0c0,0,0,0,0,0c0.1,0,0.2,0,0.2,0.1l0.2,0.2c0,0,0,0,0,0l0-0.5c0.1,0.1,0.3,0.1,0.4,0.2
			c0,0,0,0,0.1,0.1c0.1,0.1,0.2,0.2,0.3,0.3l0.3,0.4c0,0,0,0,0,0L43.2,92c0,0,0,0,0,0l0.4,0.1c0,0,0,0,0,0l-0.5-0.4
			c-0.1-0.1-0.2-0.2-0.2-0.3c0,0,0-0.1,0-0.1c-0.1-0.1-0.1-0.2-0.2-0.3l0.5,0c0,0,0,0,0-0.1L43,90.8c0-0.1-0.1-0.1,0-0.2
			c0,0,0,0,0,0l0,0c-0.1,0-0.3-0.1-0.4-0.2c-0.1-0.1-0.2-0.2-0.2-0.3l-0.1-0.2c0-0.1-0.1-0.1-0.1-0.2c0,0,0,0,0,0
			c-0.4-0.8-1.4-1.1-1.9-0.6C39.8,89.6,40.1,90.6,40.8,91z"/>
		<circle class="st1" cx="34.8" cy="83.6" r="1"/>
		<path class="st1" d="M27.5,77.6C27.5,77.6,27.4,77.6,27.5,77.6c-0.1-0.1-0.1-0.1-0.1-0.2l-0.1-0.2c0-0.1-0.1-0.2-0.2-0.3
			c-0.1-0.1-0.3-0.2-0.4-0.2l0,0c0,0,0,0,0,0c0-0.1,0-0.2,0-0.2l-0.2-0.2c0,0,0-0.1,0-0.1l0.5,0c-0.1-0.1-0.1-0.3-0.2-0.4
			c0,0,0-0.1,0-0.1c-0.1-0.1-0.2-0.2-0.3-0.3L26,75.2c0,0,0,0,0,0l0.4,0.1c0,0,0,0,0,0l-0.1-0.4c0,0,0,0,0,0l0.4,0.4
			c0.1,0.1,0.2,0.2,0.3,0.2c0,0,0,0,0.1,0.1c0.1,0.1,0.2,0.1,0.3,0.2l0-0.5c0,0,0,0,0,0l0.2,0.2c0.1,0.1,0.1,0.1,0.2,0.1
			c0,0,0,0,0,0l0,0c0,0.1,0.1,0.3,0.2,0.4c0.1,0.1,0.2,0.2,0.3,0.2l0.2,0.1c0.1,0,0.1,0.1,0.1,0.1c0,0,0,0,0,0
			c0.8,0.4,1.1,1.4,0.6,1.9C28.8,78.6,27.8,78.4,27.5,77.6z"/>
		<circle class="st1" cx="34.8" cy="83.6" r="1"/>
	</g>
	<g>
		<path class="st1" d="M106.2,74.1C106.2,74.1,106.2,74.1,106.2,74.1c0-0.1,0-0.1-0.1-0.2l-0.1-0.2c-0.1-0.1-0.1-0.3-0.1-0.4
			c0-0.1,0.1-0.3,0.2-0.4l0,0c0,0,0,0,0,0c-0.1,0-0.1-0.1-0.1-0.2l0-0.3c0,0,0,0-0.1,0l-0.3,0.3c0-0.1-0.1-0.3-0.1-0.4
			c0,0,0-0.1,0-0.1c0-0.1,0-0.3,0-0.4l0-0.5c0,0,0,0,0,0l-0.2,0.3c0,0,0,0,0,0l-0.2-0.4c0,0,0,0,0,0l0,0.6c0,0.1,0,0.2,0,0.3
			c0,0,0,0.1,0,0.1c0,0.1-0.1,0.2-0.1,0.4l-0.3-0.3c0,0-0.1,0-0.1,0l0,0.3c0,0.1,0,0.1-0.1,0.2c0,0,0,0,0,0l0,0
			c0.1,0.1,0.2,0.2,0.2,0.4c0,0.1,0,0.3-0.1,0.4l-0.1,0.2c0,0.1,0,0.1,0,0.2c0,0,0,0,0,0c-0.3,0.8,0.2,1.7,0.9,1.7
			C106,75.8,106.5,74.9,106.2,74.1z"/>
		<circle class="st1" cx="105.3" cy="83.6" r="1"/>
		<path class="st1" d="M106.2,93C106.2,93,106.2,93,106.2,93c0,0.1,0,0.1-0.1,0.2l-0.1,0.2c-0.1,0.1-0.1,0.3-0.1,0.4
			c0,0.1,0.1,0.3,0.2,0.4l0,0c0,0,0,0,0,0c-0.1,0-0.1,0.1-0.1,0.2v0.3c0,0,0,0-0.1,0l-0.3-0.3c0,0.1-0.1,0.3-0.1,0.4
			c0,0,0,0.1,0,0.1c0,0.1,0,0.3,0,0.4l0,0.5c0,0,0,0,0,0l-0.2-0.3c0,0,0,0,0,0l-0.2,0.4c0,0,0,0,0,0l0-0.6c0-0.1,0-0.2,0-0.3
			c0,0,0-0.1,0-0.1c0-0.1-0.1-0.2-0.1-0.4l-0.3,0.3c0,0-0.1,0-0.1,0l0-0.3c0-0.1,0-0.1-0.1-0.2c0,0,0,0,0,0l0,0
			c0.1-0.1,0.2-0.2,0.2-0.4c0-0.1,0-0.3-0.1-0.4l-0.1-0.2c0-0.1,0-0.1,0-0.2c0,0,0,0,0,0c-0.3-0.8,0.2-1.7,0.9-1.7
			C106,91.3,106.5,92.2,106.2,93z"/>
		<circle class="st1" cx="105.3" cy="83.6" r="1"/>
		<path class="st1" d="M95.8,82.7C95.8,82.7,95.8,82.7,95.8,82.7c-0.1,0-0.1,0-0.2,0.1l-0.2,0.1c-0.1,0.1-0.3,0.1-0.4,0.1
			c-0.1,0-0.3-0.1-0.4-0.2l0,0c0,0,0,0,0,0c0,0.1-0.1,0.1-0.2,0.1l-0.3,0c0,0,0,0,0,0.1l0.4,0.3c-0.1,0-0.3,0.1-0.4,0.1
			c0,0-0.1,0-0.1,0c-0.1,0-0.3,0-0.4,0l-0.5,0c0,0,0,0,0,0l0.3,0.2c0,0,0,0,0,0l-0.4,0.2c0,0,0,0,0,0l0.6,0c0.1,0,0.2,0,0.3,0
			c0,0,0.1,0,0.1,0c0.1,0,0.2,0.1,0.4,0.1l-0.3,0.3c0,0,0,0.1,0,0.1l0.3,0c0.1,0,0.1,0,0.2,0.1c0,0,0,0,0,0l0,0
			c0.1-0.1,0.2-0.2,0.4-0.2c0.1,0,0.3,0,0.4,0.1l0.2,0.1c0.1,0,0.1,0,0.2,0c0,0,0,0,0,0c0.8,0.3,1.7-0.2,1.7-0.9
			C97.6,82.9,96.7,82.4,95.8,82.7z"/>
		<circle class="st1" cx="105.3" cy="83.6" r="1"/>
		<path class="st1" d="M114.8,82.7C114.8,82.7,114.8,82.7,114.8,82.7c0.1,0,0.1,0,0.2,0.1l0.2,0.1c0.1,0.1,0.3,0.1,0.4,0.1
			c0.1,0,0.3-0.1,0.4-0.2l0,0c0,0,0,0,0,0c0,0.1,0.1,0.1,0.2,0.1l0.3,0c0,0,0,0,0,0.1l-0.3,0.3c0.1,0,0.3,0.1,0.4,0.1
			c0,0,0.1,0,0.1,0c0.1,0,0.3,0,0.4,0l0.5,0c0,0,0,0,0,0l-0.3,0.2c0,0,0,0,0,0l0.4,0.2c0,0,0,0,0,0l-0.6,0c-0.1,0-0.2,0-0.3,0
			c0,0-0.1,0-0.1,0c-0.1,0-0.2,0.1-0.4,0.1l0.3,0.3c0,0,0,0.1,0,0.1l-0.3,0c-0.1,0-0.1,0-0.2,0.1c0,0,0,0,0,0l0,0
			c-0.1-0.1-0.2-0.2-0.4-0.2c-0.1,0-0.3,0-0.4,0.1l-0.2,0.1c-0.1,0-0.1,0-0.2,0c0,0,0,0,0,0c-0.8,0.3-1.7-0.2-1.7-0.9
			C113,82.9,113.9,82.4,114.8,82.7z"/>
		<circle class="st1" cx="105.3" cy="83.6" r="1"/>
		<path class="st1" d="M98,89.6C98,89.6,97.9,89.6,98,89.6c-0.1,0.1-0.1,0.1-0.1,0.2L97.8,90c-0.1,0.1-0.1,0.2-0.2,0.3
			c-0.1,0.1-0.3,0.2-0.4,0.2l0,0c0,0,0,0,0,0c0,0.1,0,0.2-0.1,0.2l-0.2,0.2c0,0,0,0.1,0,0.1l0.5,0c-0.1,0.1-0.1,0.3-0.2,0.4
			c0,0,0,0.1-0.1,0.1c-0.1,0.1-0.2,0.2-0.3,0.3L96.5,92c0,0,0,0,0,0l0.4-0.1c0,0,0,0,0,0l-0.1,0.4c0,0,0,0,0,0l0.4-0.4
			c0.1-0.1,0.2-0.2,0.3-0.2c0,0,0.1,0,0.1-0.1c0.1-0.1,0.2-0.1,0.3-0.2l0,0.5c0,0,0,0,0.1,0l0.2-0.2c0.1-0.1,0.1-0.1,0.2-0.1
			c0,0,0,0,0,0l0,0c0-0.1,0.1-0.3,0.2-0.4c0.1-0.1,0.2-0.2,0.3-0.2l0.2-0.1c0.1,0,0.1-0.1,0.2-0.1c0,0,0,0,0,0
			c0.8-0.4,1.1-1.4,0.6-1.9C99.3,88.5,98.3,88.8,98,89.6z"/>
		<circle class="st1" cx="105.3" cy="83.6" r="1"/>
		<path class="st1" d="M111.3,76.2C111.3,76.2,111.3,76.2,111.3,76.2c0.1-0.1,0.1-0.1,0.2-0.1l0.2-0.1c0.1-0.1,0.2-0.1,0.3-0.2
			c0.1-0.1,0.2-0.3,0.2-0.4l0,0c0,0,0,0,0,0c0.1,0,0.2,0,0.2-0.1l0.2-0.2c0,0,0.1,0,0.1,0l0,0.5c0.1-0.1,0.3-0.1,0.4-0.2
			c0,0,0.1,0,0.1-0.1c0.1-0.1,0.2-0.2,0.3-0.3l0.3-0.4c0,0,0,0,0,0l-0.1,0.4c0,0,0,0,0,0l0.4-0.1c0,0,0,0,0,0l-0.4,0.4
			c-0.1,0.1-0.2,0.2-0.2,0.3c0,0,0,0.1-0.1,0.1c-0.1,0.1-0.1,0.2-0.2,0.3l0.5,0c0,0,0,0,0,0.1l-0.2,0.2c-0.1,0.1-0.1,0.1-0.1,0.2
			c0,0,0,0,0,0l0,0c-0.1,0-0.3,0.1-0.4,0.2c-0.1,0.1-0.2,0.2-0.2,0.3l-0.1,0.2c0,0.1-0.1,0.1-0.1,0.2c0,0,0,0,0,0
			c-0.4,0.8-1.4,1.1-1.9,0.6C110.3,77.6,110.6,76.6,111.3,76.2z"/>
		<circle class="st1" cx="105.3" cy="83.6" r="1"/>
		<path class="st1" d="M111.3,91C111.3,91,111.3,91,111.3,91c0.1,0.1,0.1,0.1,0.2,0.1l0.2,0.1c0.1,0.1,0.2,0.1,0.3,0.2
			c0.1,0.1,0.2,0.3,0.2,0.4l0,0c0,0,0,0,0,0c0.1,0,0.2,0,0.2,0.1l0.2,0.2c0,0,0.1,0,0.1,0l0-0.5c0.1,0.1,0.3,0.1,0.4,0.2
			c0,0,0.1,0,0.1,0.1c0.1,0.1,0.2,0.2,0.3,0.3l0.3,0.4c0,0,0,0,0,0l-0.1-0.4c0,0,0,0,0,0l0.4,0.1c0,0,0,0,0,0l-0.4-0.4
			c-0.1-0.1-0.2-0.2-0.2-0.3c0,0,0-0.1-0.1-0.1c-0.1-0.1-0.1-0.2-0.2-0.3l0.5,0c0,0,0,0,0-0.1l-0.2-0.2c-0.1-0.1-0.1-0.1-0.1-0.2
			c0,0,0,0,0,0l0,0c-0.1,0-0.3-0.1-0.4-0.2c-0.1-0.1-0.2-0.2-0.2-0.3l-0.1-0.2c0-0.1-0.1-0.1-0.1-0.2c0,0,0,0,0,0
			c-0.4-0.8-1.4-1.1-1.9-0.6C110.3,89.6,110.6,90.6,111.3,91z"/>
		<circle class="st1" cx="105.3" cy="83.6" r="1"/>
		<path class="st1" d="M98,77.6C98,77.6,97.9,77.6,98,77.6c-0.1-0.1-0.1-0.1-0.1-0.2l-0.1-0.2c-0.1-0.1-0.1-0.2-0.2-0.3
			c-0.1-0.1-0.3-0.2-0.4-0.2l0,0c0,0,0,0,0,0c0-0.1,0-0.2-0.1-0.2l-0.2-0.2c0,0,0-0.1,0-0.1l0.5,0c-0.1-0.1-0.1-0.3-0.2-0.4
			c0,0,0-0.1-0.1-0.1c-0.1-0.1-0.2-0.2-0.3-0.3l-0.4-0.3c0,0,0,0,0,0l0.4,0.1c0,0,0,0,0,0l-0.1-0.4c0,0,0,0,0,0l0.4,0.4
			c0.1,0.1,0.2,0.2,0.3,0.2c0,0,0.1,0,0.1,0.1c0.1,0.1,0.2,0.1,0.3,0.2l0-0.5c0,0,0,0,0.1,0l0.2,0.2c0.1,0.1,0.1,0.1,0.2,0.1
			c0,0,0,0,0,0l0,0c0,0.1,0.1,0.3,0.2,0.4c0.1,0.1,0.2,0.2,0.3,0.2l0.2,0.1c0.1,0,0.1,0.1,0.2,0.1c0,0,0,0,0,0
			c0.8,0.4,1.1,1.4,0.6,1.9C99.3,78.6,98.3,78.4,98,77.6z"/>
		<circle class="st1" cx="105.3" cy="83.6" r="1"/>
	</g>
	<g>
		<path class="st1" d="M175.7,74.1C175.7,74.1,175.7,74.1,175.7,74.1c0-0.1,0-0.1,0-0.2l-0.1-0.2c-0.1-0.1-0.1-0.3-0.1-0.4
			c0-0.1,0.1-0.3,0.2-0.4l0,0c0,0,0,0,0,0c-0.1,0-0.1-0.1-0.1-0.2l0-0.3c0,0,0,0-0.1,0l-0.3,0.3c0-0.1-0.1-0.3-0.1-0.4
			c0,0,0-0.1,0-0.1c0-0.1,0-0.3,0-0.4l0-0.5c0,0,0,0,0,0l-0.2,0.3c0,0,0,0,0,0l-0.2-0.4c0,0,0,0,0,0l0,0.6c0,0.1,0,0.2,0,0.3
			c0,0,0,0.1,0,0.1c0,0.1-0.1,0.2-0.1,0.4l-0.3-0.3c0,0-0.1,0-0.1,0l0,0.3c0,0.1,0,0.1-0.1,0.2c0,0,0,0,0,0l0,0
			c0.1,0.1,0.2,0.2,0.2,0.4c0,0.1,0,0.3-0.1,0.4l-0.1,0.2c0,0.1,0,0.1,0,0.2c0,0,0,0,0,0c-0.3,0.8,0.2,1.7,0.9,1.7
			C175.5,75.8,176,74.9,175.7,74.1z"/>
		<circle class="st1" cx="174.8" cy="83.6" r="1"/>
		<path class="st1" d="M175.7,93C175.7,93,175.7,93,175.7,93c0,0.1,0,0.1,0,0.2l-0.1,0.2c-0.1,0.1-0.1,0.3-0.1,0.4
			c0,0.1,0.1,0.3,0.2,0.4l0,0c0,0,0,0,0,0c-0.1,0-0.1,0.1-0.1,0.2l0,0.3c0,0,0,0-0.1,0l-0.3-0.3c0,0.1-0.1,0.3-0.1,0.4
			c0,0,0,0.1,0,0.1c0,0.1,0,0.3,0,0.4l0,0.5c0,0,0,0,0,0l-0.2-0.3c0,0,0,0,0,0l-0.2,0.4c0,0,0,0,0,0l0-0.6c0-0.1,0-0.2,0-0.3
			c0,0,0-0.1,0-0.1c0-0.1-0.1-0.2-0.1-0.4l-0.3,0.3c0,0-0.1,0-0.1,0l0-0.3c0-0.1,0-0.1-0.1-0.2c0,0,0,0,0,0l0,0
			c0.1-0.1,0.2-0.2,0.2-0.4c0-0.1,0-0.3-0.1-0.4l-0.1-0.2c0-0.1,0-0.1,0-0.2c0,0,0,0,0,0c-0.3-0.8,0.2-1.7,0.9-1.7
			C175.5,91.3,176,92.2,175.7,93z"/>
		<circle class="st1" cx="174.8" cy="83.6" r="1"/>
		<path class="st1" d="M165.3,82.7C165.3,82.7,165.3,82.7,165.3,82.7c-0.1,0-0.2,0-0.2,0.1l-0.2,0.1c-0.1,0.1-0.3,0.1-0.4,0.1
			c-0.1,0-0.3-0.1-0.4-0.2l0,0c0,0,0,0,0,0c0,0.1-0.1,0.1-0.2,0.1l-0.3,0c0,0,0,0,0,0.1l0.4,0.3c-0.1,0-0.3,0.1-0.4,0.1
			c0,0-0.1,0-0.1,0c-0.1,0-0.3,0-0.4,0l-0.5,0c0,0,0,0,0,0l0.3,0.2c0,0,0,0,0,0l-0.4,0.2c0,0,0,0,0,0l0.6,0c0.1,0,0.2,0,0.3,0
			c0,0,0.1,0,0.1,0c0.1,0,0.2,0.1,0.4,0.1l-0.3,0.3c0,0,0,0.1,0,0.1l0.3,0c0.1,0,0.1,0,0.2,0.1c0,0,0,0,0,0l0,0
			c0.1-0.1,0.2-0.2,0.4-0.2c0.1,0,0.3,0,0.4,0.1l0.2,0.1c0.1,0,0.1,0,0.2,0c0,0,0,0,0,0c0.8,0.3,1.7-0.2,1.7-0.9
			C167.1,82.9,166.1,82.4,165.3,82.7z"/>
		<circle class="st1" cx="174.8" cy="83.6" r="1"/>
		<path class="st1" d="M184.3,82.7C184.3,82.7,184.3,82.7,184.3,82.7c0.1,0,0.2,0,0.2,0.1l0.2,0.1c0.1,0.1,0.3,0.1,0.4,0.1
			c0.1,0,0.3-0.1,0.4-0.2l0,0c0,0,0,0,0,0c0,0.1,0.1,0.1,0.2,0.1l0.3,0c0,0,0,0,0,0.1l-0.4,0.3c0.1,0,0.3,0.1,0.4,0.1
			c0,0,0.1,0,0.1,0c0.1,0,0.3,0,0.4,0l0.5,0c0,0,0,0,0,0l-0.3,0.2c0,0,0,0,0,0l0.4,0.2c0,0,0,0,0,0l-0.6,0c-0.1,0-0.2,0-0.3,0
			c0,0-0.1,0-0.1,0c-0.1,0-0.2,0.1-0.4,0.1l0.3,0.3c0,0,0,0.1,0,0.1l-0.3,0c-0.1,0-0.1,0-0.2,0.1c0,0,0,0,0,0l0,0
			c-0.1-0.1-0.2-0.2-0.4-0.2c-0.1,0-0.3,0-0.4,0.1l-0.2,0.1c-0.1,0-0.1,0-0.2,0c0,0,0,0,0,0c-0.8,0.3-1.7-0.2-1.7-0.9
			C182.5,82.9,183.4,82.4,184.3,82.7z"/>
		<circle class="st1" cx="174.8" cy="83.6" r="1"/>
		<path class="st1" d="M167.5,89.6C167.5,89.6,167.5,89.6,167.5,89.6c0,0.1-0.1,0.1-0.1,0.2l-0.1,0.2c-0.1,0.1-0.1,0.2-0.2,0.3
			c-0.1,0.1-0.3,0.2-0.4,0.2l0,0c0,0,0,0,0,0c0,0.1,0,0.2-0.1,0.2l-0.2,0.2c0,0,0,0.1,0,0.1l0.5,0c-0.1,0.1-0.1,0.3-0.2,0.4
			c0,0,0,0.1-0.1,0.1c-0.1,0.1-0.2,0.2-0.3,0.3L166,92c0,0,0,0,0,0l0.4-0.1c0,0,0,0,0,0l-0.1,0.4c0,0,0,0,0,0l0.4-0.4
			c0.1-0.1,0.2-0.2,0.3-0.2c0,0,0.1,0,0.1-0.1c0.1-0.1,0.2-0.1,0.3-0.2l0,0.5c0,0,0,0,0.1,0l0.2-0.2c0.1-0.1,0.1-0.1,0.2-0.1
			c0,0,0,0,0,0l0,0c0-0.1,0.1-0.3,0.2-0.4c0.1-0.1,0.2-0.2,0.3-0.2l0.2-0.1c0.1,0,0.1-0.1,0.1-0.1c0,0,0,0,0,0
			c0.8-0.4,1.1-1.4,0.6-1.9C168.8,88.5,167.8,88.8,167.5,89.6z"/>
		<circle class="st1" cx="174.8" cy="83.6" r="1"/>
		<path class="st1" d="M180.8,76.2C180.8,76.2,180.8,76.2,180.8,76.2c0.1-0.1,0.1-0.1,0.2-0.1l0.2-0.1c0.1-0.1,0.2-0.1,0.3-0.2
			c0.1-0.1,0.1-0.3,0.2-0.4l0,0c0,0,0,0,0,0c0.1,0,0.1,0,0.2-0.1l0.2-0.2c0,0,0.1,0,0.1,0l0,0.5c0.1-0.1,0.3-0.1,0.4-0.2
			c0,0,0.1,0,0.1-0.1c0.1-0.1,0.2-0.2,0.3-0.3l0.3-0.4c0,0,0,0,0,0l-0.1,0.4c0,0,0,0,0,0l0.4-0.1c0,0,0,0,0,0l-0.4,0.4
			c-0.1,0.1-0.2,0.2-0.2,0.3c0,0,0,0.1-0.1,0.1c-0.1,0.1-0.1,0.2-0.2,0.3l0.5,0c0,0,0,0,0,0.1l-0.2,0.2c-0.1,0.1-0.1,0.1-0.1,0.2
			c0,0,0,0,0,0l0,0c-0.1,0-0.3,0.1-0.4,0.2c-0.1,0.1-0.2,0.2-0.2,0.3l-0.1,0.2c0,0.1-0.1,0.1-0.1,0.2c0,0,0,0,0,0
			c-0.4,0.8-1.4,1.1-1.9,0.6C179.8,77.6,180.1,76.6,180.8,76.2z"/>
		<circle class="st1" cx="174.8" cy="83.6" r="1"/>
		<path class="st1" d="M180.8,91C180.8,91,180.8,91,180.8,91c0.1,0.1,0.1,0.1,0.2,0.1l0.2,0.1c0.1,0.1,0.2,0.1,0.3,0.2
			c0.1,0.1,0.1,0.3,0.2,0.4l0,0c0,0,0,0,0,0c0.1,0,0.1,0,0.2,0.1l0.2,0.2c0,0,0.1,0,0.1,0l0-0.5c0.1,0.1,0.3,0.1,0.4,0.2
			c0,0,0.1,0,0.1,0.1c0.1,0.1,0.2,0.2,0.3,0.3l0.3,0.4c0,0,0,0,0,0l-0.1-0.4c0,0,0,0,0,0l0.4,0.1c0,0,0,0,0,0l-0.4-0.4
			c-0.1-0.1-0.2-0.2-0.2-0.3c0,0,0-0.1-0.1-0.1c-0.1-0.1-0.1-0.2-0.2-0.3l0.5,0c0,0,0,0,0-0.1l-0.2-0.2c-0.1-0.1-0.1-0.1-0.1-0.2
			c0,0,0,0,0,0l0,0c-0.1,0-0.3-0.1-0.4-0.2c-0.1-0.1-0.2-0.2-0.2-0.3l-0.1-0.2c0-0.1-0.1-0.1-0.1-0.2c0,0,0,0,0,0
			c-0.4-0.8-1.4-1.1-1.9-0.6C179.8,89.6,180.1,90.6,180.8,91z"/>
		<circle class="st1" cx="174.8" cy="83.6" r="1"/>
		<path class="st1" d="M167.5,77.6C167.5,77.6,167.5,77.6,167.5,77.6c0-0.1-0.1-0.1-0.1-0.2l-0.1-0.2c-0.1-0.1-0.1-0.2-0.2-0.3
			c-0.1-0.1-0.3-0.2-0.4-0.2l0,0c0,0,0,0,0,0c0-0.1,0-0.2-0.1-0.2l-0.2-0.2c0,0,0-0.1,0-0.1l0.5,0c-0.1-0.1-0.1-0.3-0.2-0.4
			c0,0,0-0.1-0.1-0.1c-0.1-0.1-0.2-0.2-0.3-0.3l-0.4-0.3c0,0,0,0,0,0l0.4,0.1c0,0,0,0,0,0l-0.1-0.4c0,0,0,0,0,0l0.4,0.4
			c0.1,0.1,0.2,0.2,0.3,0.2c0,0,0.1,0,0.1,0.1c0.1,0.1,0.2,0.1,0.3,0.2l0-0.5c0,0,0,0,0.1,0l0.2,0.2c0.1,0.1,0.1,0.1,0.2,0.1
			c0,0,0,0,0,0l0,0c0,0.1,0.1,0.3,0.2,0.4c0.1,0.1,0.2,0.2,0.3,0.2l0.2,0.1c0.1,0,0.1,0.1,0.1,0.1c0,0,0,0,0,0
			c0.8,0.4,1.1,1.4,0.6,1.9C168.8,78.6,167.8,78.4,167.5,77.6z"/>
		<circle class="st1" cx="174.8" cy="83.6" r="1"/>
	</g>
	<g>
		<path class="st1" d="M246.2,74.1C246.2,74.1,246.2,74.1,246.2,74.1c0-0.1,0-0.1,0-0.2l-0.1-0.2c-0.1-0.1-0.1-0.3-0.1-0.4
			c0-0.1,0.1-0.3,0.2-0.4l0,0c0,0,0,0,0,0c-0.1,0-0.1-0.1-0.1-0.2l0-0.3c0,0,0,0-0.1,0l-0.3,0.3c0-0.1-0.1-0.3-0.1-0.4
			c0,0,0-0.1,0-0.1c0-0.1,0-0.3,0-0.4l0-0.5c0,0,0,0,0,0l-0.2,0.3c0,0,0,0,0,0l-0.2-0.4c0,0,0,0,0,0l0,0.6c0,0.1,0,0.2,0,0.3
			c0,0,0,0.1,0,0.1c0,0.1-0.1,0.2-0.1,0.4l-0.3-0.3c0,0-0.1,0-0.1,0l0,0.3c0,0.1,0,0.1-0.1,0.2c0,0,0,0,0,0l0,0
			c0.1,0.1,0.2,0.2,0.2,0.4c0,0.1,0,0.3-0.1,0.4l-0.1,0.2c0,0.1,0,0.1,0,0.2c0,0,0,0,0,0c-0.3,0.8,0.2,1.7,0.9,1.7
			C246,75.8,246.5,74.9,246.2,74.1z"/>
		<circle class="st1" cx="245.3" cy="83.6" r="1"/>
		<path class="st1" d="M246.2,93C246.2,93,246.2,93,246.2,93c0,0.1,0,0.1,0,0.2l-0.1,0.2c-0.1,0.1-0.1,0.3-0.1,0.4
			c0,0.1,0.1,0.3,0.2,0.4l0,0c0,0,0,0,0,0c-0.1,0-0.1,0.1-0.1,0.2l0,0.3c0,0,0,0-0.1,0l-0.3-0.3c0,0.1-0.1,0.3-0.1,0.4
			c0,0,0,0.1,0,0.1c0,0.1,0,0.3,0,0.4l0,0.5c0,0,0,0,0,0l-0.2-0.3c0,0,0,0,0,0l-0.2,0.4c0,0,0,0,0,0l0-0.6c0-0.1,0-0.2,0-0.3
			c0,0,0-0.1,0-0.1c0-0.1-0.1-0.2-0.1-0.4l-0.3,0.3c0,0-0.1,0-0.1,0l0-0.3c0-0.1,0-0.1-0.1-0.2c0,0,0,0,0,0l0,0
			c0.1-0.1,0.2-0.2,0.2-0.4c0-0.1,0-0.3-0.1-0.4l-0.1-0.2c0-0.1,0-0.1,0-0.2c0,0,0,0,0,0c-0.3-0.8,0.2-1.7,0.9-1.7
			C246,91.3,246.5,92.2,246.2,93z"/>
		<circle class="st1" cx="245.3" cy="83.6" r="1"/>
		<path class="st1" d="M235.8,82.7C235.8,82.7,235.8,82.7,235.8,82.7c-0.1,0-0.2,0-0.2,0.1l-0.2,0.1c-0.1,0.1-0.3,0.1-0.4,0.1
			c-0.1,0-0.3-0.1-0.4-0.2l0,0c0,0,0,0,0,0c0,0.1-0.1,0.1-0.2,0.1l-0.3,0c0,0,0,0,0,0.1l0.4,0.3c-0.1,0-0.3,0.1-0.4,0.1
			c0,0-0.1,0-0.1,0c-0.1,0-0.3,0-0.4,0l-0.5,0c0,0,0,0,0,0l0.3,0.2c0,0,0,0,0,0l-0.4,0.2c0,0,0,0,0,0l0.6,0c0.1,0,0.2,0,0.3,0
			c0,0,0.1,0,0.1,0c0.1,0,0.2,0.1,0.4,0.1l-0.3,0.3c0,0,0,0.1,0,0.1l0.3,0c0.1,0,0.1,0,0.2,0.1c0,0,0,0,0,0l0,0
			c0.1-0.1,0.2-0.2,0.4-0.2c0.1,0,0.3,0,0.4,0.1l0.2,0.1c0.1,0,0.1,0,0.2,0c0,0,0,0,0,0c0.8,0.3,1.7-0.2,1.7-0.9
			C237.6,82.9,236.6,82.4,235.8,82.7z"/>
		<circle class="st1" cx="245.3" cy="83.6" r="1"/>
		<path class="st1" d="M254.8,82.7C254.8,82.7,254.8,82.7,254.8,82.7c0.1,0,0.2,0,0.2,0.1l0.2,0.1c0.1,0.1,0.3,0.1,0.4,0.1
			c0.1,0,0.3-0.1,0.4-0.2l0,0c0,0,0,0,0,0c0,0.1,0.1,0.1,0.2,0.1l0.3,0c0,0,0,0,0,0.1l-0.4,0.3c0.1,0,0.3,0.1,0.4,0.1
			c0,0,0.1,0,0.1,0c0.1,0,0.3,0,0.4,0l0.5,0c0,0,0,0,0,0l-0.3,0.2c0,0,0,0,0,0l0.4,0.2c0,0,0,0,0,0l-0.6,0c-0.1,0-0.2,0-0.3,0
			c0,0-0.1,0-0.1,0c-0.1,0-0.2,0.1-0.4,0.1l0.3,0.3c0,0,0,0.1,0,0.1l-0.3,0c-0.1,0-0.1,0-0.2,0.1c0,0,0,0,0,0l0,0
			c-0.1-0.1-0.2-0.2-0.4-0.2c-0.1,0-0.3,0-0.4,0.1l-0.2,0.1c-0.1,0-0.1,0-0.2,0c0,0,0,0,0,0c-0.8,0.3-1.7-0.2-1.7-0.9
			C253,82.9,253.9,82.4,254.8,82.7z"/>
		<circle class="st1" cx="245.3" cy="83.6" r="1"/>
		<path class="st1" d="M238,89.6C238,89.6,238,89.6,238,89.6c0,0.1-0.1,0.1-0.1,0.2l-0.1,0.2c-0.1,0.1-0.1,0.2-0.2,0.3
			c-0.1,0.1-0.3,0.2-0.4,0.2l0,0c0,0,0,0,0,0c0,0.1,0,0.2-0.1,0.2l-0.2,0.2c0,0,0,0.1,0,0.1l0.5,0c-0.1,0.1-0.1,0.3-0.2,0.4
			c0,0,0,0.1-0.1,0.1c-0.1,0.1-0.2,0.2-0.3,0.3l-0.4,0.3c0,0,0,0,0,0l0.4-0.1c0,0,0,0,0,0l-0.1,0.4c0,0,0,0,0,0l0.4-0.4
			c0.1-0.1,0.2-0.2,0.3-0.2c0,0,0.1,0,0.1-0.1c0.1-0.1,0.2-0.1,0.3-0.2l0,0.5c0,0,0,0,0.1,0l0.2-0.2c0.1-0.1,0.1-0.1,0.2-0.1
			c0,0,0,0,0,0l0,0c0-0.1,0.1-0.3,0.2-0.4c0.1-0.1,0.2-0.2,0.3-0.2l0.2-0.1c0.1,0,0.1-0.1,0.1-0.1c0,0,0,0,0,0
			c0.8-0.4,1.1-1.4,0.6-1.9C239.3,88.5,238.3,88.8,238,89.6z"/>
		<circle class="st1" cx="245.3" cy="83.6" r="1"/>
		<path class="st1" d="M251.3,76.2C251.3,76.2,251.3,76.2,251.3,76.2c0.1-0.1,0.1-0.1,0.2-0.1l0.2-0.1c0.1-0.1,0.2-0.1,0.3-0.2
			c0.1-0.1,0.1-0.3,0.2-0.4l0,0c0,0,0,0,0,0c0.1,0,0.1,0,0.2-0.1l0.2-0.2c0,0,0.1,0,0.1,0l0,0.5c0.1-0.1,0.3-0.1,0.4-0.2
			c0,0,0.1,0,0.1-0.1c0.1-0.1,0.2-0.2,0.3-0.3l0.3-0.4c0,0,0,0,0,0l-0.1,0.4c0,0,0,0,0,0l0.4-0.1c0,0,0,0,0,0l-0.4,0.4
			c-0.1,0.1-0.2,0.2-0.2,0.3c0,0,0,0.1-0.1,0.1c-0.1,0.1-0.1,0.2-0.2,0.3l0.5,0c0,0,0,0,0,0.1l-0.2,0.2c-0.1,0.1-0.1,0.1-0.1,0.2
			c0,0,0,0,0,0l0,0c-0.1,0-0.3,0.1-0.4,0.2c-0.1,0.1-0.2,0.2-0.2,0.3l-0.1,0.2c0,0.1-0.1,0.1-0.1,0.2c0,0,0,0,0,0
			c-0.4,0.8-1.4,1.1-1.9,0.6C250.3,77.6,250.6,76.6,251.3,76.2z"/>
		<circle class="st1" cx="245.3" cy="83.6" r="1"/>
		<path class="st1" d="M251.3,91C251.3,91,251.3,91,251.3,91c0.1,0.1,0.1,0.1,0.2,0.1l0.2,0.1c0.1,0.1,0.2,0.1,0.3,0.2
			c0.1,0.1,0.1,0.3,0.2,0.4l0,0c0,0,0,0,0,0c0.1,0,0.1,0,0.2,0.1l0.2,0.2c0,0,0.1,0,0.1,0l0-0.5c0.1,0.1,0.3,0.1,0.4,0.2
			c0,0,0.1,0,0.1,0.1c0.1,0.1,0.2,0.2,0.3,0.3l0.3,0.4c0,0,0,0,0,0l-0.1-0.4c0,0,0,0,0,0l0.4,0.1c0,0,0,0,0,0l-0.4-0.4
			c-0.1-0.1-0.2-0.2-0.2-0.3c0,0,0-0.1-0.1-0.1c-0.1-0.1-0.1-0.2-0.2-0.3l0.5,0c0,0,0,0,0-0.1l-0.2-0.2c-0.1-0.1-0.1-0.1-0.1-0.2
			c0,0,0,0,0,0l0,0c-0.1,0-0.3-0.1-0.4-0.2c-0.1-0.1-0.2-0.2-0.2-0.3l-0.1-0.2c0-0.1-0.1-0.1-0.1-0.2c0,0,0,0,0,0
			c-0.4-0.8-1.4-1.1-1.9-0.6C250.3,89.6,250.6,90.6,251.3,91z"/>
		<circle class="st1" cx="245.3" cy="83.6" r="1"/>
		<path class="st1" d="M238,77.6C238,77.6,238,77.6,238,77.6c0-0.1-0.1-0.1-0.1-0.2l-0.1-0.2c-0.1-0.1-0.1-0.2-0.2-0.3
			c-0.1-0.1-0.3-0.2-0.4-0.2l0,0c0,0,0,0,0,0c0-0.1,0-0.2-0.1-0.2l-0.2-0.2c0,0,0-0.1,0-0.1l0.5,0c-0.1-0.1-0.1-0.3-0.2-0.4
			c0,0,0-0.1-0.1-0.1c-0.1-0.1-0.2-0.2-0.3-0.3l-0.4-0.3c0,0,0,0,0,0l0.4,0.1c0,0,0,0,0,0l-0.1-0.4c0,0,0,0,0,0l0.4,0.4
			c0.1,0.1,0.2,0.2,0.3,0.2c0,0,0.1,0,0.1,0.1c0.1,0.1,0.2,0.1,0.3,0.2l0-0.5c0,0,0,0,0.1,0l0.2,0.2c0.1,0.1,0.1,0.1,0.2,0.1
			c0,0,0,0,0,0l0,0c0,0.1,0.1,0.3,0.2,0.4c0.1,0.1,0.2,0.2,0.3,0.2l0.2,0.1c0.1,0,0.1,0.1,0.1,0.1c0,0,0,0,0,0
			c0.8,0.4,1.1,1.4,0.6,1.9C239.3,78.6,238.3,78.4,238,77.6z"/>
		<circle class="st1" cx="245.3" cy="83.6" r="1"/>
	</g>
</g>
<g>
	<g>
		<path class="st1" d="M13.6,133.6L13.6,133.6c-0.3,0.2-0.4,0.3-0.5,0.6h0l-0.6-0.7c-0.2-0.2-0.2-0.5-0.1-0.7l0,0
			c0-0.1,0.1-0.1,0.2-0.2l0.2-0.1c0.1,0,0.2,0,0.2,0l0,0c0.1,0,0.1,0,0.2,0h0c0.1,0,0.2,0,0.2,0.1l0.2,0.1c0.1,0.1,0.1,0.1,0.2,0.2
			l0,0C13.9,133.2,13.8,133.4,13.6,133.6z"/>
		<path class="st1" d="M12.4,134.6L12.4,134.6c0.3-0.2,0.4-0.3,0.5-0.6l0,0l0.6,0.7c0.2,0.2,0.2,0.5,0.1,0.7l0,0
			c0,0.1-0.1,0.1-0.2,0.2l-0.2,0.1c-0.1,0-0.2,0-0.2,0l0,0c-0.1,0-0.1,0-0.2,0l0,0c-0.1,0-0.2,0-0.2-0.1l-0.2-0.1
			c-0.1-0.1-0.1-0.1-0.2-0.2l0,0C12.1,135,12.2,134.7,12.4,134.6z"/>
		<path class="st1" d="M12.5,133.5L12.5,133.5c0.2,0.3,0.3,0.4,0.6,0.5l0,0l-0.7,0.6c-0.2,0.2-0.5,0.2-0.7,0.1l0,0
			c-0.1,0-0.1-0.1-0.2-0.2l-0.1-0.2c0-0.1,0-0.2,0-0.2l0,0c0-0.1,0-0.1,0-0.2l0,0c0-0.1,0-0.2,0.1-0.2l0.1-0.2
			c0.1-0.1,0.1-0.1,0.2-0.2l0,0C12.1,133.2,12.4,133.3,12.5,133.5z"/>
		<path class="st1" d="M13.5,134.6L13.5,134.6c-0.2-0.3-0.3-0.4-0.6-0.5l0,0l0.7-0.6c0.2-0.2,0.5-0.2,0.7-0.1l0,0
			c0.1,0,0.1,0.1,0.2,0.2l0.1,0.2c0,0.1,0,0.2,0,0.2l0,0c0,0.1,0,0.1,0,0.2l0,0c0,0.1,0,0.2-0.1,0.2l-0.1,0.2
			c-0.1,0.1-0.1,0.1-0.2,0.2l0,0C13.9,135,13.6,134.8,13.5,134.6z"/>
		<path class="st1" d="M13.3,134.1c0,0.1-0.1,0.1-0.1,0.1c-0.1,0.1-0.1,0.2-0.2,0.2c-0.1,0-0.1-0.1-0.1-0.1c0-0.1-0.2-0.1-0.1-0.2
			c0-0.1,0.1-0.1,0.2-0.2c0.1-0.1,0.1-0.1,0.2-0.1c0.1,0,0.1,0.1,0.2,0.2S13.3,134,13.3,134.1z"/>
	</g>
	<g>
		<path class="st1" d="M52.9,134L52.9,134c-0.3,0.2-0.4,0.3-0.5,0.6l0,0l-0.6-0.7c-0.2-0.2-0.2-0.5-0.1-0.7l0,0
			c0-0.1,0.1-0.1,0.2-0.2l0.2-0.1c0.1,0,0.2,0,0.2,0l0,0c0.1,0,0.1,0,0.2,0l0,0c0.1,0,0.2,0,0.2,0.1l0.2,0.1
			c0.1,0.1,0.1,0.1,0.2,0.2l0,0C53.2,133.6,53.1,133.9,52.9,134z"/>
		<path class="st1" d="M51.8,135L51.8,135c0.3-0.2,0.4-0.3,0.5-0.6l0,0l0.6,0.7c0.2,0.2,0.2,0.5,0.1,0.7l0,0c0,0.1-0.1,0.1-0.2,0.2
			l-0.2,0.1c-0.1,0-0.2,0-0.2,0l0,0c-0.1,0-0.1,0-0.2,0l0,0c-0.1,0-0.2,0-0.2-0.1l-0.2-0.1c-0.1-0.1-0.1-0.1-0.2-0.2l0,0
			C51.4,135.4,51.6,135.1,51.8,135z"/>
		<path class="st1" d="M51.8,133.9L51.8,133.9c0.2,0.3,0.3,0.4,0.6,0.5l0,0l-0.7,0.6c-0.2,0.2-0.5,0.2-0.7,0.1l0,0
			c-0.1,0-0.1-0.1-0.2-0.2l-0.1-0.2c0-0.1,0-0.2,0-0.2l0,0c0-0.1,0-0.1,0-0.2l0,0c0-0.1,0-0.2,0.1-0.2l0.1-0.2
			c0.1-0.1,0.1-0.1,0.2-0.2l0,0C51.5,133.6,51.7,133.7,51.8,133.9z"/>
		<path class="st1" d="M52.8,135.1L52.8,135.1c-0.2-0.3-0.3-0.4-0.6-0.5l0,0L53,134c0.2-0.2,0.5-0.2,0.7-0.1l0,0
			c0.1,0,0.1,0.1,0.2,0.2l0.1,0.2c0,0.1,0,0.2,0,0.2l0,0c0,0.1,0,0.1,0,0.2l0,0c0,0.1,0,0.2-0.1,0.2l-0.1,0.2
			c-0.1,0.1-0.1,0.1-0.2,0.2l0,0C53.2,135.4,53,135.3,52.8,135.1z"/>
		<path class="st1" d="M52.7,134.5c0,0.1-0.1,0.1-0.1,0.1c-0.1,0.1-0.1,0.2-0.2,0.2c-0.1,0-0.1-0.1-0.1-0.1c0-0.1-0.2-0.1-0.1-0.2
			c0-0.1,0.1-0.1,0.2-0.2c0.1-0.1,0.1-0.1,0.2-0.1c0.1,0,0.1,0.1,0.2,0.2C52.6,134.5,52.7,134.5,52.7,134.5z"/>
	</g>
	<path class="st1" d="M70.6,128.1"/>
	<path class="st1" d="M40.4,129.2c-3,2.7-5,6-6.1,10.1l-1.5-2.5l-1.3,2.5c-1.2-4.1-3.1-7.4-6.1-10.1c-8-7.1-19.2-6.3-25.1-5.9v0.5
		c5.9-0.4,16.4,1,23.5,7.2l0,0c1.5,1.3,1.7,3.5,0.5,5.1c-1.1,1.3-2.3,2.1-3.8,1.4l-0.2-0.1c-0.3-0.1-0.9-1-1.4-1.8
		c-0.1-0.4,0-0.9,0.2-1.3c0.8-1.4-0.5-4-1.1-5l-0.1-0.1l-0.1-0.1c-0.9-0.9-2.2-1.4-3.4-1.2l-1.3,0.2c-2.8,0.4-5.1,2.5-5.7,5.3
		c-0.3,1.5,0.5,3.1,1.9,3.8l2.8,1.5c0,0-3.1-3.5-3-4.1c0.4-1.9,0.7-4.1,2.6-4.3c0,0,1.1,0,2.2,0c1.6,0,3,1.1,3.3,2.7
		c0,0.2,0.1,0.3,0,0.4c-0.5,0.9-0.6,2-0.3,3l0.1,0.2c0.4,0.7,1.4,2.4,2.5,2.8c1.2,0.6,2.4,0.8,3.7,0.8c0.7,0,1.4,0.1,2.1,0.1
		c2,0.1,3.7,1.6,4,3.6l0.1,0.4l-2.1-0.4l2.6,7.5l-1.3-1.2l1.4,7.5l2.9,8.7l3.1-8.7l1.4-7.5l-1.3,1.2l2.6-7.5l-2.1,0.4l0.1-0.4
		c0.3-2,2-3.5,4-3.6c0.7,0,1.4-0.1,2.1-0.1c1.2,0,2.5-0.3,3.7-0.8c1.1-0.4,2.1-2.1,2.5-2.8l0.1-0.2c0.3-1,0.2-2.1-0.3-3
		c0-0.1,0-0.2,0-0.4c0.3-1.5,1.7-2.6,3.3-2.7c1.1,0,2.2,0,2.2,0c1.9,0.2,2.2,2.5,2.6,4.3c0.1,0.7-3,4.1-3,4.1l2.8-1.5
		c1.4-0.7,2.2-2.3,1.9-3.8c-0.6-2.8-2.9-4.9-5.7-5.3l-1.3-0.2c-1.2-0.2-2.5,0.2-3.4,1.2l-0.1,0.1l-0.1,0.1c-0.6,1-1.8,3.6-1.1,5
		c0.2,0.4,0.3,0.8,0.2,1.3c-0.5,0.8-1.1,1.6-1.4,1.8l-0.2,0.1c-1.6,0.7-2.8-0.1-3.8-1.4c-1.2-1.5-1-3.8,0.5-5.1l0,0
		c7.1-6.3,17.6-7.6,23.5-7.2v-0.5C59.6,122.8,48.4,122,40.4,129.2z"/>
</g>
<g>
	<g>
		<path class="st1" d="M82.4,32.9L82.4,32.9c-0.3-0.2-0.4-0.3-0.5-0.6l0,0L81.3,33c-0.2,0.2-0.2,0.5-0.1,0.7l0,0
			c0,0.1,0.1,0.1,0.2,0.2l0.2,0.1c0.1,0,0.2,0,0.2,0l0,0c0.1,0,0.1,0,0.2,0l0,0c0.1,0,0.2,0,0.2-0.1l0.2-0.1
			c0.1-0.1,0.1-0.1,0.2-0.2l0,0C82.7,33.3,82.6,33,82.4,32.9z"/>
		<path class="st1" d="M81.3,31.9L81.3,31.9c0.3,0.2,0.4,0.3,0.5,0.6l0,0l0.6-0.7c0.2-0.2,0.2-0.5,0.1-0.7l0,0
			c0-0.1-0.1-0.1-0.2-0.2L82,30.8c-0.1,0-0.2,0-0.2,0l0,0c-0.1,0-0.1,0-0.2,0l0,0c-0.1,0-0.2,0-0.2,0.1L81.2,31
			c-0.1,0.1-0.1,0.1-0.2,0.2v0C81,31.5,81.1,31.7,81.3,31.9z"/>
		<path class="st1" d="M81.3,32.9L81.3,32.9c0.2-0.3,0.3-0.4,0.6-0.5l0,0l-0.7-0.6c-0.2-0.2-0.5-0.2-0.7-0.1l0,0
			c-0.1,0-0.1,0.1-0.2,0.2l-0.1,0.2c0,0.1,0,0.2,0,0.2l0,0c0,0.1,0,0.1,0,0.2l0,0c0,0.1,0,0.2,0.1,0.2l0.1,0.2
			c0.1,0.1,0.1,0.1,0.2,0.2l0,0C81,33.3,81.2,33.2,81.3,32.9z"/>
		<path class="st1" d="M82.4,31.8L82.4,31.8c-0.2,0.3-0.3,0.4-0.6,0.5l0,0l0.7,0.6c0.2,0.2,0.5,0.2,0.7,0.1l0,0
			c0.1,0,0.1-0.1,0.2-0.2l0.1-0.2c0-0.1,0-0.2,0-0.2l0,0c0-0.1,0-0.1,0-0.2l0,0c0-0.1,0-0.2-0.1-0.2l-0.1-0.2
			c-0.1-0.1-0.1-0.1-0.2-0.2l0,0C82.7,31.5,82.5,31.6,82.4,31.8z"/>
		<path class="st1" d="M82.2,32.3c0-0.1-0.1-0.1-0.1-0.1C82,32.2,81.9,32,81.8,32c-0.1,0-0.1,0.1-0.1,0.1c0,0.1-0.2,0.1-0.1,0.2
			c0,0.1,0.1,0.1,0.2,0.2c0.1,0.1,0.1,0.1,0.2,0.1c0.1,0,0.1-0.1,0.2-0.2C82.1,32.4,82.2,32.4,82.2,32.3z"/>
	</g>
	<g>
		<path class="st1" d="M121.8,32.5L121.8,32.5c-0.3-0.2-0.4-0.3-0.5-0.6l0,0l-0.6,0.7c-0.2,0.2-0.2,0.5-0.1,0.7l0,0
			c0,0.1,0.1,0.1,0.2,0.2l0.2,0.1c0.1,0,0.2,0,0.2,0l0,0c0.1,0,0.1,0,0.2,0l0,0c0.1,0,0.2,0,0.2-0.1l0.2-0.1
			c0.1-0.1,0.1-0.1,0.2-0.2l0,0C122.1,32.8,122,32.6,121.8,32.5z"/>
		<path class="st1" d="M120.6,31.4L120.6,31.4c0.3,0.2,0.4,0.3,0.5,0.6l0,0l0.6-0.7c0.2-0.2,0.2-0.5,0.1-0.7l0,0
			c0-0.1-0.1-0.1-0.2-0.2l-0.2-0.1c-0.1,0-0.2,0-0.2,0l0,0c-0.1,0-0.1,0-0.2,0l0,0c-0.1,0-0.2,0-0.2,0.1l-0.2,0.1
			c-0.1,0.1-0.1,0.1-0.2,0.2l0,0C120.3,31.1,120.4,31.3,120.6,31.4z"/>
		<path class="st1" d="M120.7,32.5L120.7,32.5c0.2-0.3,0.3-0.4,0.6-0.5l0,0l-0.7-0.6c-0.2-0.2-0.5-0.2-0.7-0.1l0,0
			c-0.1,0-0.1,0.1-0.2,0.2l-0.1,0.2c0,0.1,0,0.2,0,0.2l0,0c0,0.1,0,0.1,0,0.2v0c0,0.1,0,0.2,0.1,0.2l0.1,0.2
			c0.1,0.1,0.1,0.1,0.2,0.2l0,0C120.3,32.8,120.6,32.7,120.7,32.5z"/>
		<path class="st1" d="M121.7,31.4L121.7,31.4c-0.2,0.3-0.3,0.4-0.6,0.5l0,0l0.7,0.6c0.2,0.2,0.5,0.2,0.7,0.1l0,0
			c0.1,0,0.1-0.1,0.2-0.2l0.1-0.2c0-0.1,0-0.2,0-0.2l0,0c0-0.1,0-0.1,0-0.2v0c0-0.1,0-0.2-0.1-0.2l-0.1-0.2
			c-0.1-0.1-0.1-0.1-0.2-0.2l0,0C122.1,31.1,121.8,31.2,121.7,31.4z"/>
		<path class="st1" d="M121.5,31.9c0-0.1-0.1-0.1-0.1-0.1c-0.1-0.1-0.1-0.2-0.2-0.2c-0.1,0-0.1,0.1-0.1,0.1c0,0.1-0.2,0.1-0.1,0.2
			c0,0.1,0.1,0.1,0.2,0.2c0.1,0.1,0.1,0.1,0.2,0.1c0.1,0,0.1-0.1,0.2-0.2C121.5,32,121.5,32,121.5,31.9z"/>
	</g>
	<path class="st1" d="M139.5,38.3"/>
	<path class="st1" d="M109.2,37.3c-3-2.7-5-6-6.1-10.1l-1.5,2.5l-1.3-2.5c-1.2,4.1-3.1,7.4-6.1,10.1c-8,7.1-19.2,6.3-25.1,5.9v-0.5
		c5.9,0.4,16.4-1,23.5-7.2l0,0c1.5-1.3,1.7-3.5,0.5-5.1c-1.1-1.3-2.3-2.1-3.8-1.4L89,29c-0.3,0.1-0.9,1-1.4,1.8
		c-0.1,0.4,0,0.9,0.2,1.3c0.8,1.4-0.5,4-1.1,5l-0.1,0.1l-0.1,0.1c-0.9,0.9-2.2,1.4-3.4,1.2l-1.3-0.2c-2.8-0.4-5.1-2.5-5.7-5.3
		c-0.3-1.5,0.5-3.1,1.9-3.8l2.8-1.5c0,0-3.1,3.5-3,4.1c0.4,1.9,0.7,4.1,2.6,4.3c0,0,1.1,0,2.2,0c1.6,0,3-1.1,3.3-2.7
		c0-0.2,0.1-0.3,0-0.4c-0.5-0.9-0.6-2-0.3-3l0.1-0.2c0.4-0.7,1.4-2.4,2.5-2.8c1.2-0.6,2.4-0.8,3.7-0.8c0.7,0,1.4-0.1,2.1-0.1
		c2-0.1,3.7-1.6,4-3.6l0.1-0.4L96,22.5l2.6-7.5l-1.3,1.2l1.4-7.5l2.9-8.7l3.1,8.7l1.4,7.5l-1.3-1.2l2.6,7.5l-2.1-0.4l0.1,0.4
		c0.3,2,2,3.5,4,3.6c0.7,0,1.4,0.1,2.1,0.1c1.2,0,2.5,0.3,3.7,0.8c1.1,0.4,2.1,2.1,2.5,2.8l0.1,0.2c0.3,1,0.2,2.1-0.3,3
		c0,0.1,0,0.2,0,0.4c0.3,1.5,1.7,2.6,3.3,2.7c1.1,0,2.2,0,2.2,0c1.9-0.2,2.2-2.5,2.6-4.3c0.1-0.7-3-4.1-3-4.1l2.8,1.5
		c1.4,0.7,2.2,2.3,1.9,3.8c-0.6,2.8-2.9,4.9-5.7,5.3l-1.3,0.2c-1.2,0.2-2.5-0.2-3.4-1.2l-0.1-0.1l-0.1-0.1c-0.6-1-1.8-3.6-1.1-5
		c0.2-0.4,0.3-0.8,0.2-1.3c-0.5-0.8-1.1-1.6-1.4-1.8l-0.2-0.1c-1.6-0.7-2.8,0.1-3.8,1.4c-1.2,1.5-1,3.8,0.5,5.1l0,0
		c7.1,6.3,17.6,7.6,23.5,7.2v0.5C128.4,43.6,117.3,44.4,109.2,37.3z"/>
</g>
<g>
	<g>
		<path class="st1" d="M155.5,133.6L155.5,133.6c-0.3,0.2-0.4,0.3-0.5,0.6l0,0l-0.6-0.7c-0.2-0.2-0.2-0.5-0.1-0.7l0,0
			c0-0.1,0.1-0.1,0.2-0.2l0.2-0.1c0.1,0,0.2,0,0.2,0l0,0c0.1,0,0.1,0,0.2,0l0,0c0.1,0,0.2,0,0.2,0.1l0.2,0.1
			c0.1,0.1,0.1,0.1,0.2,0.2l0,0C155.8,133.2,155.7,133.4,155.5,133.6z"/>
		<path class="st1" d="M154.3,134.6L154.3,134.6c0.3-0.2,0.4-0.3,0.5-0.6l0,0l0.6,0.7c0.2,0.2,0.2,0.5,0.1,0.7l0,0
			c0,0.1-0.1,0.1-0.2,0.2l-0.2,0.1c-0.1,0-0.2,0-0.2,0l0,0c-0.1,0-0.1,0-0.2,0l0,0c-0.1,0-0.2,0-0.2-0.1l-0.2-0.1
			c-0.1-0.1-0.1-0.1-0.2-0.2l0,0C154,135,154.1,134.7,154.3,134.6z"/>
		<path class="st1" d="M154.4,133.5L154.4,133.5c0.2,0.3,0.3,0.4,0.6,0.5l0,0l-0.7,0.6c-0.2,0.2-0.5,0.2-0.7,0.1l0,0
			c-0.1,0-0.1-0.1-0.2-0.2l-0.1-0.2c0-0.1,0-0.2,0-0.2l0,0c0-0.1,0-0.1,0-0.2l0,0c0-0.1,0-0.2,0.1-0.2l0.1-0.2
			c0.1-0.1,0.1-0.1,0.2-0.2l0,0C154,133.2,154.3,133.3,154.4,133.5z"/>
		<path class="st1" d="M155.4,134.6L155.4,134.6c-0.2-0.3-0.3-0.4-0.6-0.5l0,0l0.7-0.6c0.2-0.2,0.5-0.2,0.7-0.1l0,0
			c0.1,0,0.1,0.1,0.2,0.2l0.1,0.2c0,0.1,0,0.2,0,0.2l0,0c0,0.1,0,0.1,0,0.2l0,0c0,0.1,0,0.2-0.1,0.2l-0.1,0.2
			c-0.1,0.1-0.1,0.1-0.2,0.2l0,0C155.8,135,155.5,134.8,155.4,134.6z"/>
		<path class="st1" d="M155.2,134.1c0,0.1-0.1,0.1-0.1,0.1c-0.1,0.1-0.1,0.2-0.2,0.2c-0.1,0-0.1-0.1-0.1-0.1c0-0.1-0.2-0.1-0.1-0.2
			c0-0.1,0.1-0.1,0.2-0.2c0.1-0.1,0.1-0.1,0.2-0.1c0.1,0,0.1,0.1,0.2,0.2S155.2,134,155.2,134.1z"/>
	</g>
	<g>
		<path class="st1" d="M194.8,134L194.8,134c-0.3,0.2-0.4,0.3-0.5,0.6l0,0l-0.6-0.7c-0.2-0.2-0.2-0.5-0.1-0.7l0,0
			c0-0.1,0.1-0.1,0.2-0.2l0.2-0.1c0.1,0,0.2,0,0.2,0l0,0c0.1,0,0.1,0,0.2,0l0,0c0.1,0,0.2,0,0.2,0.1l0.2,0.1
			c0.1,0.1,0.1,0.1,0.2,0.2l0,0C195.1,133.6,195,133.9,194.8,134z"/>
		<path class="st1" d="M193.7,135L193.7,135c0.3-0.2,0.4-0.3,0.5-0.6l0,0l0.6,0.7c0.2,0.2,0.2,0.5,0.1,0.7l0,0
			c0,0.1-0.1,0.1-0.2,0.2l-0.2,0.1c-0.1,0-0.2,0-0.2,0l0,0c-0.1,0-0.1,0-0.2,0l0,0c-0.1,0-0.2,0-0.2-0.1l-0.2-0.1
			c-0.1-0.1-0.1-0.1-0.2-0.2l0,0C193.4,135.4,193.5,135.1,193.7,135z"/>
		<path class="st1" d="M193.7,133.9L193.7,133.9c0.2,0.3,0.3,0.4,0.6,0.5l0,0l-0.7,0.6c-0.2,0.2-0.5,0.2-0.7,0.1l0,0
			c-0.1,0-0.1-0.1-0.2-0.2l-0.1-0.2c0-0.1,0-0.2,0-0.2l0,0c0-0.1,0-0.1,0-0.2l0,0c0-0.1,0-0.2,0.1-0.2l0.1-0.2
			c0.1-0.1,0.1-0.1,0.2-0.2l0,0C193.4,133.6,193.6,133.7,193.7,133.9z"/>
		<path class="st1" d="M194.8,135.1L194.8,135.1c-0.2-0.3-0.3-0.4-0.6-0.5l0,0l0.7-0.6c0.2-0.2,0.5-0.2,0.7-0.1l0,0
			c0.1,0,0.1,0.1,0.2,0.2l0.1,0.2c0,0.1,0,0.2,0,0.2l0,0c0,0.1,0,0.1,0,0.2l0,0c0,0.1,0,0.2-0.1,0.2l-0.1,0.2
			c-0.1,0.1-0.1,0.1-0.2,0.2l0,0C195.1,135.4,194.9,135.3,194.8,135.1z"/>
		<path class="st1" d="M194.6,134.5c0,0.1-0.1,0.1-0.1,0.1c-0.1,0.1-0.1,0.2-0.2,0.2c-0.1,0-0.1-0.1-0.1-0.1c0-0.1-0.2-0.1-0.1-0.2
			c0-0.1,0.1-0.1,0.2-0.2c0.1-0.1,0.1-0.1,0.2-0.1c0.1,0,0.1,0.1,0.2,0.2C194.5,134.5,194.6,134.5,194.6,134.5z"/>
	</g>
	<path class="st1" d="M212.5,128.1"/>
	<path class="st1" d="M182.3,129.2c-3,2.7-5,6-6.1,10.1l-1.5-2.5l-1.3,2.5c-1.2-4.1-3.1-7.4-6.1-10.1c-8-7.1-19.2-6.3-25.1-5.9v0.5
		c5.9-0.4,16.4,1,23.5,7.2l0,0c1.5,1.3,1.7,3.5,0.5,5.1c-1.1,1.3-2.3,2.1-3.8,1.4l-0.2-0.1c-0.3-0.1-0.9-1-1.4-1.8
		c-0.1-0.4,0-0.9,0.2-1.3c0.8-1.4-0.5-4-1.1-5l-0.1-0.1l-0.1-0.1c-0.9-0.9-2.2-1.4-3.4-1.2l-1.3,0.2c-2.8,0.4-5.1,2.5-5.7,5.3
		c-0.3,1.5,0.5,3.1,1.9,3.8l2.8,1.5c0,0-3.1-3.5-3-4.1c0.4-1.9,0.7-4.1,2.6-4.3c0,0,1.1,0,2.2,0c1.6,0,3,1.1,3.3,2.7
		c0,0.2,0.1,0.3,0,0.4c-0.5,0.9-0.6,2-0.3,3l0.1,0.2c0.4,0.7,1.4,2.4,2.5,2.8c1.2,0.6,2.4,0.8,3.7,0.8c0.7,0,1.4,0.1,2.1,0.1
		c2,0.1,3.7,1.6,4,3.6l0.1,0.4l-2.1-0.4l2.6,7.5l-1.3-1.2l1.4,7.5l2.9,8.7l3.1-8.7l1.4-7.5l-1.3,1.2l2.6-7.5l-2.1,0.4l0.1-0.4
		c0.3-2,2-3.5,4-3.6c0.7,0,1.4-0.1,2.1-0.1c1.2,0,2.5-0.3,3.7-0.8c1.1-0.4,2.1-2.1,2.5-2.8l0.1-0.2c0.3-1,0.2-2.1-0.3-3
		c0-0.1,0-0.2,0-0.4c0.3-1.5,1.7-2.6,3.3-2.7c1.1,0,2.2,0,2.2,0c1.9,0.2,2.2,2.5,2.6,4.3c0.1,0.7-3,4.1-3,4.1l2.8-1.5
		c1.4-0.7,2.2-2.3,1.9-3.8c-0.6-2.8-2.9-4.9-5.7-5.3l-1.3-0.2c-1.2-0.2-2.5,0.2-3.4,1.2l-0.1,0.1l-0.1,0.1c-0.6,1-1.9,3.6-1.1,5
		c0.2,0.4,0.3,0.8,0.2,1.3c-0.5,0.8-1.1,1.6-1.4,1.8l-0.2,0.1c-1.6,0.7-2.8-0.1-3.8-1.4c-1.2-1.5-1-3.8,0.5-5.1l0,0
		c7.1-6.3,17.6-7.6,23.5-7.2v-0.5C201.5,122.8,190.3,122,182.3,129.2z"/>
</g>
<g>
	<g>
		<path class="st1" d="M228.5,32.9L228.5,32.9c-0.3-0.2-0.4-0.3-0.5-0.6l0,0l-0.6,0.7c-0.2,0.2-0.2,0.5-0.1,0.7l0,0
			c0,0.1,0.1,0.1,0.2,0.2l0.2,0.1c0.1,0,0.2,0,0.2,0l0,0c0.1,0,0.1,0,0.2,0l0,0c0.1,0,0.2,0,0.2-0.1l0.2-0.1
			c0.1-0.1,0.1-0.1,0.2-0.2l0,0C228.8,33.3,228.7,33,228.5,32.9z"/>
		<path class="st1" d="M227.4,31.9L227.4,31.9c0.3,0.2,0.4,0.3,0.5,0.6l0,0l0.6-0.7c0.2-0.2,0.2-0.5,0.1-0.7l0,0
			c0-0.1-0.1-0.1-0.2-0.2l-0.2-0.1c-0.1,0-0.2,0-0.2,0l0,0c-0.1,0-0.1,0-0.2,0l0,0c-0.1,0-0.2,0-0.2,0.1l-0.2,0.1
			c-0.1,0.1-0.1,0.1-0.2,0.2v0C227.1,31.5,227.2,31.7,227.4,31.9z"/>
		<path class="st1" d="M227.4,32.9L227.4,32.9c0.2-0.3,0.3-0.4,0.6-0.5l0,0l-0.7-0.6c-0.2-0.2-0.5-0.2-0.7-0.1l0,0
			c-0.1,0-0.1,0.1-0.2,0.2l-0.1,0.2c0,0.1,0,0.2,0,0.2l0,0c0,0.1,0,0.1,0,0.2l0,0c0,0.1,0,0.2,0.1,0.2l0.1,0.2
			c0.1,0.1,0.1,0.1,0.2,0.2l0,0C227.1,33.3,227.3,33.2,227.4,32.9z"/>
		<path class="st1" d="M228.5,31.8L228.5,31.8c-0.2,0.3-0.3,0.4-0.6,0.5l0,0l0.7,0.6c0.2,0.2,0.5,0.2,0.7,0.1l0,0
			c0.1,0,0.1-0.1,0.2-0.2l0.1-0.2c0-0.1,0-0.2,0-0.2l0,0c0-0.1,0-0.1,0-0.2l0,0c0-0.1,0-0.2-0.1-0.2l-0.1-0.2
			c-0.1-0.1-0.1-0.1-0.2-0.2h0C228.8,31.5,228.6,31.6,228.5,31.8z"/>
		<path class="st1" d="M228.3,32.3c0-0.1-0.1-0.1-0.1-0.1c-0.1-0.1-0.1-0.2-0.2-0.2c-0.1,0-0.1,0.1-0.1,0.1c0,0.1-0.2,0.1-0.1,0.2
			c0,0.1,0.1,0.1,0.2,0.2c0.1,0.1,0.1,0.1,0.2,0.1c0.1,0,0.1-0.1,0.2-0.2C228.2,32.4,228.3,32.4,228.3,32.3z"/>
	</g>
	<g>
		<path class="st1" d="M267.9,32.5L267.9,32.5c-0.3-0.2-0.4-0.3-0.5-0.6l0,0l-0.6,0.7c-0.2,0.2-0.2,0.5-0.1,0.7l0,0
			c0,0.1,0.1,0.1,0.2,0.2l0.2,0.1c0.1,0,0.2,0,0.2,0l0,0c0.1,0,0.1,0,0.2,0l0,0c0.1,0,0.2,0,0.2-0.1l0.2-0.1
			c0.1-0.1,0.1-0.1,0.2-0.2l0,0C268.2,32.8,268.1,32.6,267.9,32.5z"/>
		<path class="st1" d="M266.7,31.4L266.7,31.4c0.3,0.2,0.4,0.3,0.5,0.6l0,0l0.6-0.7c0.2-0.2,0.2-0.5,0.1-0.7l0,0
			c0-0.1-0.1-0.1-0.2-0.2l-0.2-0.1c-0.1,0-0.2,0-0.2,0l0,0c-0.1,0-0.1,0-0.2,0l0,0c-0.1,0-0.2,0-0.2,0.1l-0.2,0.1
			c-0.1,0.1-0.1,0.1-0.2,0.2l0,0C266.4,31.1,266.5,31.3,266.7,31.4z"/>
		<path class="st1" d="M266.8,32.5L266.8,32.5c0.2-0.3,0.3-0.4,0.6-0.5l0,0l-0.7-0.6c-0.2-0.2-0.5-0.2-0.7-0.1l0,0
			c-0.1,0-0.1,0.1-0.2,0.2l-0.1,0.2c0,0.1,0,0.2,0,0.2l0,0c0,0.1,0,0.1,0,0.2v0c0,0.1,0,0.2,0.1,0.2l0.1,0.2
			c0.1,0.1,0.1,0.1,0.2,0.2l0,0C266.4,32.8,266.7,32.7,266.8,32.5z"/>
		<path class="st1" d="M267.8,31.4L267.8,31.4c-0.2,0.3-0.3,0.4-0.6,0.5l0,0l0.7,0.6c0.2,0.2,0.5,0.2,0.7,0.1l0,0
			c0.1,0,0.1-0.1,0.2-0.2l0.1-0.2c0-0.1,0-0.2,0-0.2l0,0c0-0.1,0-0.1,0-0.2v0c0-0.1,0-0.2-0.1-0.2l-0.1-0.2
			c-0.1-0.1-0.1-0.1-0.2-0.2h0C268.2,31.1,267.9,31.2,267.8,31.4z"/>
		<path class="st1" d="M267.6,31.9c0-0.1-0.1-0.1-0.1-0.1c-0.1-0.1-0.1-0.2-0.2-0.2c-0.1,0-0.1,0.1-0.1,0.1c0,0.1-0.2,0.1-0.1,0.2
			c0,0.1,0.1,0.1,0.2,0.2c0.1,0.1,0.1,0.1,0.2,0.1c0.1,0,0.1-0.1,0.2-0.2C267.6,32,267.6,32,267.6,31.9z"/>
	</g>
	<path class="st1" d="M285.6,38.3"/>
	<path class="st1" d="M255.3,37.3c-3-2.7-5-6-6.1-10.1l-1.5,2.5l-1.3-2.5c-1.2,4.1-3.1,7.4-6.1,10.1c-8,7.1-19.2,6.3-25.1,5.9v-0.5
		c5.9,0.4,16.4-1,23.5-7.2l0,0c1.5-1.3,1.7-3.5,0.5-5.1c-1.1-1.3-2.3-2.1-3.8-1.4l-0.2,0.1c-0.3,0.1-0.9,1-1.4,1.8
		c-0.1,0.4,0,0.9,0.2,1.3c0.8,1.4-0.5,4-1.1,5l-0.1,0.1l-0.1,0.1c-0.9,0.9-2.2,1.4-3.4,1.2l-1.3-0.2c-2.8-0.4-5.1-2.5-5.7-5.3
		c-0.3-1.5,0.5-3.1,1.9-3.8l2.8-1.5c0,0-3.1,3.5-3,4.1c0.4,1.9,0.7,4.1,2.6,4.3c0,0,1.1,0,2.2,0c1.6,0,3-1.1,3.3-2.7
		c0-0.2,0.1-0.3,0-0.4c-0.5-0.9-0.6-2-0.3-3l0.1-0.2c0.4-0.7,1.4-2.4,2.5-2.8c1.2-0.6,2.4-0.8,3.7-0.8c0.7,0,1.4-0.1,2.1-0.1
		c2-0.1,3.7-1.6,4-3.6l0.1-0.4l-2.1,0.4l2.6-7.5l-1.3,1.2l1.4-7.5l2.9-8.7l3.1,8.7l1.4,7.5l-1.3-1.2l2.6,7.5l-2.1-0.4l0.1,0.4
		c0.3,2,2,3.5,4,3.6c0.7,0,1.4,0.1,2.1,0.1c1.2,0,2.5,0.3,3.7,0.8c1.1,0.4,2.1,2.1,2.5,2.8l0.1,0.2c0.3,1,0.2,2.1-0.3,3
		c0,0.1,0,0.2,0,0.4c0.3,1.5,1.7,2.6,3.3,2.7c1.1,0,2.2,0,2.2,0c1.9-0.2,2.2-2.5,2.6-4.3c0.1-0.7-3-4.1-3-4.1l2.8,1.5
		c1.4,0.7,2.2,2.3,1.9,3.8c-0.6,2.8-2.9,4.9-5.7,5.3l-1.3,0.2c-1.2,0.2-2.5-0.2-3.4-1.2l-0.1-0.1l-0.1-0.1c-0.6-1-1.8-3.6-1.1-5
		c0.2-0.4,0.3-0.8,0.2-1.3c-0.5-0.8-1.1-1.6-1.4-1.8l-0.2-0.1c-1.6-0.7-2.8,0.1-3.8,1.4c-1.2,1.5-1,3.8,0.5,5.1l0,0
		c7.1,6.3,17.6,7.6,23.5,7.2v0.5C274.5,43.6,263.4,44.4,255.3,37.3z"/>
</g>
</svg>
