<?xml version="1.0" encoding="utf-8"?>
<!-- Generator: Adobe Illustrator 24.1.3, SVG Export Plug-In . SVG Version: 6.00 Build 0)  -->
<svg version="1.1" id="Lag_1" xmlns="http://www.w3.org/2000/svg" xmlns:xlink="http://www.w3.org/1999/xlink" x="0px" y="0px"
	 viewBox="0 0 32 13" style="enable-background:new 0 0 32 13;" xml:space="preserve">
<style type="text/css">
	.st0{fill:#B5B4B4;}
	.st1{fill:#2D2521;}
	.st2{fill:#EFEFEF;}
	.st3{fill:#54372A;}
	.st4{fill:#FFFFFF;stroke:#2D2521;stroke-width:2;stroke-linecap:round;stroke-miterlimit:10;}
	.st5{fill:#845338;}
	.st6{fill:#99604F;}
	.st7{fill:#EFBBAF;}
</style>
<g>
	<g>
		<polygon class="st0" points="16.7,9.4 16.8,9.2 17,9.5 17.1,9.5 17.4,8.7 17.9,9.6 17.9,9.6 18.1,9.1 18.6,9.6 18.7,9.7 
			24.8,10.4 30.8,7.7 25.3,4.5 11.7,4.7 11.1,5.5 10.9,4.7 10.5,4.7 10.3,5.4 10,4.7 8,4.7 7.8,7.9 		"/>
		<path class="st1" d="M7.9,4.6l2.2,0l0.2,0.5l0.1-0.5l0.6,0l0.2,0.7l0.5-0.7l0.1,0l13.6-0.2l5.7,3.4l-6.3,2.7l-6.2-0.7l0-0.1
			l-0.4-0.4L18,9.7l-0.1,0l0,0L17.5,9l-0.3,0.6l-0.2,0l-0.1-0.2l-0.1,0.2L7.7,8L7.9,4.6z M10,4.8l-1.9,0l-0.2,3l8.7,1.5l0.2-0.4
			l0.2,0.4l0.4-0.8l0.4,0.8L18,8.9l0.7,0.7l6.1,0.7l5.8-2.5l-5.3-3.2L11.8,4.8l-0.7,1l-0.2-1l-0.2,0l-0.3,0.8L10,4.8z"/>
	</g>
	<g>
		<g>
			<path class="st2" d="M22.2,4.5c0-0.1,0.3-0.1,0.5,0.1l3.9,5c0.1,0.2-0.7,0.5-0.8,0.3l-3.5-5.2C22.2,4.6,22.1,4.6,22.2,4.5z"/>
		</g>
	</g>
	<g>
		<g>
			<path class="st2" d="M16.6,4.6l5.1,5.3c0.1,0.1-0.7,0.1-0.8,0l-4.6-5.2C16.3,4.6,16.5,4.5,16.6,4.6z"/>
		</g>
	</g>
	<g>
		<g>
			<path class="st2" d="M11.9,4.7L14.1,9c0,0.1-0.5,0-0.5-0.1l-2-4.1C11.6,4.7,11.9,4.6,11.9,4.7z"/>
		</g>
	</g>
	<g>
		<path class="st1" d="M7.9,4.6l2.2,0l0.2,0.5l0.1-0.5l0.6,0l0.2,0.7l0.5-0.7l0.1,0l13.6-0.2l5.7,3.4l-6.3,2.7l-6.2-0.7l0-0.1
			l-0.4-0.4L18,9.7l-0.1,0l0,0L17.5,9l-0.3,0.6l-0.2,0l-0.1-0.2l-0.1,0.2L7.7,8L7.9,4.6z M10,4.8l-1.9,0l-0.2,3l8.7,1.5l0.2-0.4
			l0.2,0.4l0.4-0.8l0.4,0.8L18,8.9l0.7,0.7l6.1,0.7l5.8-2.5l-5.3-3.2L11.8,4.8l-0.7,1l-0.2-1l-0.2,0l-0.3,0.8L10,4.8z"/>
	</g>
	<g>
		<g>
			<path class="st3" d="M2.7,6.6l0.1-1.2l2.1,0.2c0.1,0,0.3,0,0.4,0l2.2-0.2L7.4,7.3L5.5,6.8c-0.2,0-0.4-0.1-0.6-0.1L2.7,6.6z"/>
			<path class="st1" d="M2.7,5.3l2.2,0.2c0.1,0,0.3,0,0.4,0l2.3-0.2L7.5,7.4l-2-0.5c-0.2,0-0.4-0.1-0.6-0.1L2.6,6.7L2.7,5.3z
				 M7.4,5.5L5.3,5.7c-0.1,0-0.3,0-0.4,0l-2-0.2l-0.1,1l2,0.1c0.2,0,0.4,0,0.7,0.1l1.8,0.4L7.4,5.5z"/>
		</g>
		<g>
			<path class="st4" d="M25,10.2"/>
		</g>
		<g>
			<path class="st1" d="M23.9,6.7C23.9,6.7,23.9,6.6,23.9,6.7l1.3-1.8c0,0,0.1-0.1,0.1,0c0,0,0.1,0.1,0,0.1l-1.2,1.8
				c0,0-0.1,0.1-0.1,0C23.9,6.8,23.9,6.7,23.9,6.7z"/>
		</g>
		<g>
			<path class="st1" d="M23.8,8C23.8,8,23.8,8,23.8,8C23.9,7.9,24,7.9,24,8l0.8,1.8c0,0.1,0,0.1-0.1,0.1c-0.1,0-0.1,0-0.1-0.1
				L23.8,8C23.8,8.1,23.8,8,23.8,8z"/>
		</g>
		<g>
			<path class="st1" d="M8.8,6.4c0,0,0.1-0.1,0.1-0.1l15,0.9C24,7.2,24,7.3,24,7.3c0,0.1-0.1,0.1-0.1,0.1l-15-0.9
				C8.8,6.5,8.8,6.5,8.8,6.4C8.8,6.4,8.8,6.4,8.8,6.4z"/>
		</g>
		<g>
			<path class="st5" d="M6.8,10.2l0.5-7.8c0-0.3,0.3-0.6,0.7-0.6l0,0c0.3,0,0.6,0.3,0.6,0.7L8.1,6.4l0,3.9c0,0.3-0.3,0.6-0.7,0.6h0
				C7,10.8,6.8,10.5,6.8,10.2z"/>
			<path class="st1" d="M7.2,2.1c0-0.1,0.1-0.2,0.2-0.3c0.1-0.1,0.3-0.2,0.5-0.2c0.4,0,0.7,0.4,0.7,0.8L8.2,6.4l0,3.9
				c0,0.4-0.4,0.7-0.8,0.7c-0.4,0-0.7-0.4-0.7-0.8l0.5-7.8C7.2,2.3,7.2,2.2,7.2,2.1z M7.9,10.4c0,0,0-0.1,0-0.2l0-3.9l0.4-3.9
				c0-0.3-0.2-0.5-0.5-0.5c-0.1,0-0.3,0-0.4,0.1C7.5,2.1,7.4,2.2,7.4,2.4l-0.5,7.8c0,0.3,0.2,0.5,0.5,0.5
				C7.6,10.8,7.8,10.6,7.9,10.4z M6.8,10.2L6.8,10.2L6.8,10.2z"/>
		</g>
		<g>
			<g>
				<line class="st5" x1="8.1" y1="2.8" x2="7.8" y2="5.5"/>
				<path class="st1" d="M8,2.8c0,0,0.1-0.1,0.1-0.1c0.1,0,0.1,0.1,0.1,0.1L7.9,5.5c0,0.1-0.1,0.1-0.1,0.1c-0.1,0-0.1-0.1-0.1-0.1
					L8,2.8C8,2.8,8,2.8,8,2.8z"/>
			</g>
			<g>
				<line class="st5" x1="7.7" y1="5.8" x2="7.7" y2="6.3"/>
				<path class="st1" d="M7.7,5.8c0,0,0.1-0.1,0.1-0.1c0.1,0,0.1,0.1,0.1,0.1L7.8,6.3c0,0.1-0.1,0.1-0.1,0.1c-0.1,0-0.1-0.1-0.1-0.1
					L7.7,5.8C7.6,5.8,7.6,5.8,7.7,5.8z"/>
			</g>
			<g>
				<line class="st5" x1="7.6" y1="6.6" x2="7.6" y2="8.9"/>
				<path class="st1" d="M7.5,6.6C7.6,6.6,7.6,6.5,7.5,6.6c0.2-0.1,0.2,0,0.2,0l0,2.2c0,0.1,0,0.1-0.1,0.1s-0.1,0-0.1-0.1L7.5,6.6
					C7.5,6.6,7.5,6.6,7.5,6.6z"/>
			</g>
			<g>
				<line class="st5" x1="7.6" y1="9.1" x2="7.7" y2="10.2"/>
				<path class="st1" d="M7.6,9C7.6,9,7.6,9,7.6,9c0.2-0.1,0.2,0,0.2,0l0,1.1c0,0.1,0,0.1-0.1,0.1c-0.1,0-0.1,0-0.1-0.1L7.6,9
					C7.5,9.1,7.5,9.1,7.6,9z"/>
			</g>
		</g>
		<g>
			<g>
				<circle class="st6" cx="7.4" cy="11.2" r="1"/>
				<path class="st1" d="M6.3,10.7c0.1-0.2,0.2-0.3,0.3-0.4C6.8,10.1,7.1,10,7.4,10c0.3,0,0.6,0.2,0.8,0.4c0.2,0.2,0.3,0.5,0.3,0.8
					c0,0.3-0.2,0.6-0.4,0.8c-0.2,0.2-0.5,0.3-0.8,0.3l0,0c-0.3,0-0.6-0.2-0.8-0.4c-0.2-0.2-0.3-0.5-0.3-0.8
					C6.2,11,6.3,10.9,6.3,10.7z M8.2,11.5c0-0.1,0.1-0.2,0.1-0.3c0-0.2-0.1-0.5-0.2-0.7c-0.2-0.2-0.4-0.3-0.6-0.3
					c-0.2,0-0.5,0.1-0.7,0.2c-0.2,0.2-0.3,0.4-0.3,0.6c0,0.2,0.1,0.5,0.2,0.7c0.2,0.2,0.4,0.3,0.6,0.3c0.2,0,0.5-0.1,0.7-0.2
					C8.1,11.8,8.2,11.6,8.2,11.5z"/>
			</g>
			<g>
				<path class="st7" d="M7.4,10.5c0,0,0.1-0.1,0.1-0.1c0,0,0.2,0,0.3,0.2C8,10.8,8.2,11,8.1,11.4c0,0.1-0.1,0.1-0.1,0.1
					c-0.1,0-0.1-0.1-0.1-0.1c0.1-0.5-0.3-0.6-0.4-0.6C7.4,10.7,7.4,10.6,7.4,10.5C7.4,10.6,7.4,10.5,7.4,10.5z"/>
			</g>
		</g>
		<g>
			<g>
				<circle class="st6" cx="2.2" cy="6" r="1"/>
				<path class="st1" d="M1.1,5.6c0.1-0.2,0.2-0.3,0.3-0.4C1.7,4.9,2,4.8,2.3,4.9c0.3,0,0.6,0.2,0.8,0.4c0.2,0.2,0.3,0.5,0.3,0.8
					c0,0.3-0.2,0.6-0.4,0.8C2.7,7,2.4,7.1,2.1,7.1l0,0C1.5,7.1,1,6.5,1.1,5.9C1.1,5.8,1.1,5.7,1.1,5.6z M3.1,6.3
					c0-0.1,0.1-0.2,0.1-0.3c0-0.2-0.1-0.5-0.2-0.7C2.7,5.2,2.5,5.1,2.3,5.1c-0.5,0-1,0.4-1,0.9c0,0.5,0.4,1,0.9,1
					c0.2,0,0.5-0.1,0.7-0.2C2.9,6.6,3,6.5,3.1,6.3z"/>
			</g>
			<g>
				<path class="st7" d="M2.2,5.3c0,0,0.1-0.1,0.1-0.1c0,0,0.2,0,0.3,0.2c0.1,0.1,0.3,0.3,0.2,0.7c0,0.1-0.1,0.1-0.1,0.1
					S2.6,6.1,2.6,6.1c0.1-0.5-0.3-0.6-0.4-0.6C2.2,5.4,2.1,5.4,2.2,5.3C2.1,5.3,2.1,5.3,2.2,5.3z"/>
			</g>
		</g>
		<g>
			<g>
				<circle class="st6" cx="7.9" cy="1.8" r="1"/>
				<path class="st1" d="M6.9,1.4c0.1-0.2,0.2-0.3,0.3-0.4C7.4,0.7,7.7,0.6,8,0.7c0.6,0,1.1,0.6,1.1,1.2c0,0.3-0.2,0.6-0.4,0.8
					C8.5,2.8,8.2,2.9,7.9,2.9c-0.6,0-1.1-0.6-1.1-1.2C6.8,1.6,6.8,1.5,6.9,1.4z M8.8,2.1c0-0.1,0.1-0.2,0.1-0.3c0-0.5-0.4-1-0.9-1
					c-0.5,0-1,0.4-1,0.9c0,0.5,0.4,1,0.9,1c0.2,0,0.5-0.1,0.7-0.2C8.7,2.4,8.7,2.3,8.8,2.1z"/>
			</g>
			<g>
				<path class="st7" d="M8,1.1C8,1,8,1,8.1,1c0,0,0.2,0,0.3,0.2c0.1,0.1,0.3,0.3,0.2,0.7C8.6,2,8.6,2,8.5,2C8.5,2,8.4,1.9,8.4,1.9
					C8.5,1.4,8.1,1.2,8,1.2C8,1.2,7.9,1.2,8,1.1C8,1.1,8,1.1,8,1.1z"/>
			</g>
		</g>
	</g>
</g>
</svg>
