<?xml version="1.0" encoding="utf-8"?>
<!-- Generator: Adobe Illustrator 24.1.3, SVG Export Plug-In . SVG Version: 6.00 Build 0)  -->
<svg version="1.1" id="Lag_1" xmlns="http://www.w3.org/2000/svg" xmlns:xlink="http://www.w3.org/1999/xlink" x="0px" y="0px"
	 viewBox="0 0 50 50" style="enable-background:new 0 0 50 50;" xml:space="preserve">
<style type="text/css">
	.st0{fill:#385650;}
</style>
<g>
	<g>
		<g>
			<g>
				<path class="st0" d="M0.2,46.86L4.9,34.83l4.59-3.6l0.2,0.71c0.92,3.21,2.9,6.09,5.57,8.12l0.45,0.34l-3.3,3.29L0.2,46.86z
					 M5.72,35.45l-3.89,9.96l10.07-2.61l2.3-2.3c-2.43-1.98-4.27-4.63-5.26-7.58L5.72,35.45z"/>
			</g>
			<g>
				<path class="st0" d="M37.45,18.68l-0.34-0.46c-1.28-1.69-2.86-3.08-4.7-4.13l-0.64-0.37l5.21-4.09l2.36,2.39l2.12,2.65
					L37.45,18.68z M33.53,13.61c1.53,0.97,2.88,2.16,4.02,3.57l2.58-2.58l-1.55-1.93l-1.69-1.7L33.53,13.61z"/>
			</g>
		</g>
		<g>
			<path class="st0" d="M41.42,13.08L38.5,9.81l6.92-5.23l0.08,0.9c0.02,0.29,0.14,0.57,0.34,0.78l0,0c0.2,0.23,0.47,0.38,0.77,0.43
				l0.93,0.16L41.42,13.08z M39.96,9.95l1.49,1.67l4.18-4.24c-0.2-0.12-0.38-0.27-0.54-0.45h0c-0.15-0.17-0.28-0.36-0.37-0.57
				L39.96,9.95z"/>
		</g>
		<g>
			<path class="st0" d="M5.29,35.53"/>
		</g>
		<g>
			<path class="st0" d="M11.68,43.06c-0.24,0-0.45-0.17-0.49-0.41l-0.7-3.83c-0.05-0.27,0.13-0.53,0.4-0.58
				c0.27-0.05,0.53,0.13,0.58,0.4l0.7,3.83c0.05,0.27-0.13,0.53-0.4,0.58C11.74,43.06,11.71,43.06,11.68,43.06z"/>
		</g>
		<g>
			<path class="st0" d="M9.39,37.44c-0.06,0-0.12-0.01-0.17-0.03l-3.33-1.24c-0.26-0.1-0.39-0.38-0.29-0.64
				c0.1-0.26,0.38-0.39,0.64-0.29l3.33,1.24c0.26,0.1,0.39,0.38,0.29,0.64C9.78,37.31,9.59,37.44,9.39,37.44z"/>
		</g>
		<g>
			<path class="st0" d="M43.4,18.69l-4.82-6.02l-4.89-4.94c-0.08-0.08-0.12-0.15-0.17-0.22l-0.44-0.69l0.81-0.08
				c0.29-0.03,0.55-0.14,0.77-0.33v0c0.21-0.19,0.36-0.44,0.42-0.72l0.17-0.8l0.63,0.52c0.06,0.05,0.13,0.11,0.18,0.17l9.76,10.94
				l-0.99,0.08c-0.29,0.02-0.57,0.14-0.78,0.34c-0.21,0.19-0.36,0.44-0.42,0.72L43.4,18.69z M34.84,7.49l4.5,4.54l3.67,4.58
				c0.1-0.15,0.23-0.29,0.37-0.41c0.16-0.14,0.33-0.25,0.51-0.35l-8.17-9.16c-0.11,0.17-0.25,0.33-0.4,0.47
				C35.17,7.29,35.01,7.4,34.84,7.49z"/>
		</g>
		<g>
			<path class="st0" d="M33.76,7.75c-0.05,0-0.09,0-0.14,0c-0.62-0.04-1.2-0.31-1.62-0.78c-0.42-0.47-0.63-1.07-0.59-1.69
				c0.04-0.62,0.31-1.2,0.78-1.62c0.96-0.86,2.45-0.78,3.31,0.19c0.42,0.47,0.63,1.07,0.59,1.69c-0.04,0.62-0.31,1.2-0.78,1.62
				C34.89,7.54,34.34,7.75,33.76,7.75z M33.76,4.06c-0.32,0-0.64,0.11-0.9,0.34c-0.27,0.24-0.43,0.57-0.45,0.93
				c-0.02,0.36,0.1,0.71,0.34,0.97c0.24,0.27,0.57,0.43,0.93,0.45c0.36,0.02,0.71-0.1,0.97-0.34c0.27-0.24,0.43-0.57,0.45-0.93
				c0.02-0.36-0.1-0.71-0.34-0.97C34.5,4.21,34.13,4.06,33.76,4.06z"/>
		</g>
		<g>
			<path class="st0" d="M46.84,7.71c-0.65,0-1.29-0.26-1.75-0.78c-0.42-0.47-0.63-1.07-0.59-1.69c0.04-0.62,0.31-1.2,0.78-1.62
				c0.96-0.86,2.45-0.78,3.31,0.19c0.42,0.47,0.63,1.07,0.59,1.69c-0.04,0.62-0.31,1.2-0.78,1.62C47.95,7.52,47.39,7.71,46.84,7.71z
				 M46.84,4.02c-0.32,0-0.64,0.11-0.9,0.34c-0.27,0.24-0.43,0.57-0.45,0.93c-0.02,0.36,0.1,0.71,0.34,0.97
				c0.49,0.55,1.35,0.6,1.9,0.11c0.27-0.24,0.43-0.57,0.45-0.93c0.02-0.36-0.1-0.71-0.34-0.97C47.58,4.18,47.21,4.02,46.84,4.02z"/>
		</g>
		<g>
			<path class="st0" d="M44.94,20.29c-0.65,0-1.29-0.26-1.75-0.78c-0.86-0.96-0.78-2.45,0.19-3.31l0,0
				c0.97-0.86,2.45-0.77,3.31,0.19c0.86,0.96,0.78,2.45-0.19,3.31C46.05,20.09,45.5,20.29,44.94,20.29z M44.04,16.94
				c-0.55,0.49-0.6,1.35-0.11,1.9c0.49,0.56,1.35,0.6,1.9,0.11c0.55-0.49,0.6-1.35,0.11-1.9C45.45,16.49,44.6,16.44,44.04,16.94
				L44.04,16.94z"/>
		</g>
	</g>
	<g>
		<g>
			<g>
				<path class="st0" d="M49.5,46.86l-12.22-3.17l-3.45-3.44l0.44-0.35c2.64-2.07,4.57-4.97,5.44-8.19l0.2-0.73l4.89,3.84l0.05,0.13
					L49.5,46.86z M37.79,42.8l10.07,2.61l-3.89-9.96l-3.51-2.76c-0.95,2.96-2.75,5.63-5.14,7.64L37.79,42.8z"/>
			</g>
			<g>
				<path class="st0" d="M12.04,18.47l-3.8-3.8l2.16-2.68l2.33-2.35l5.06,3.98l-0.66,0.36c-1.84,1.02-3.44,2.38-4.74,4.05
					L12.04,18.47z M9.57,14.6l2.38,2.38c1.16-1.39,2.52-2.56,4.05-3.5l-3.2-2.51l-1.69,1.7L9.57,14.6z"/>
			</g>
		</g>
		<g>
			<path class="st0" d="M8.29,13.08L2.17,6.86L3.1,6.7c0.3-0.05,0.57-0.2,0.77-0.43c0.19-0.22,0.31-0.49,0.33-0.78l0.07-0.9
				l6.92,5.23L8.29,13.08z M4.07,7.38l4.18,4.24l1.49-1.67L4.99,6.36c-0.09,0.2-0.22,0.39-0.37,0.57l0,0
				C4.45,7.11,4.27,7.26,4.07,7.38z M4.24,6.6L4.24,6.6L4.24,6.6z"/>
		</g>
		<g>
			<path class="st0" d="M44.41,35.53"/>
		</g>
		<g>
			<path class="st0" d="M38.02,43.06c-0.03,0-0.06,0-0.09-0.01c-0.27-0.05-0.45-0.31-0.4-0.58l0.7-3.83
				c0.05-0.27,0.31-0.45,0.58-0.4c0.27,0.05,0.45,0.31,0.4,0.58l-0.7,3.83C38.46,42.89,38.25,43.06,38.02,43.06z"/>
		</g>
		<g>
			<path class="st0" d="M40.31,37.44c-0.2,0-0.39-0.12-0.47-0.32c-0.1-0.26,0.04-0.54,0.29-0.64l3.33-1.24
				c0.26-0.1,0.54,0.04,0.64,0.29c0.1,0.26-0.04,0.54-0.29,0.64l-3.33,1.24C40.43,37.43,40.37,37.44,40.31,37.44z"/>
		</g>
		<g>
			<path class="st0" d="M6.3,18.69l-0.22-1.02c-0.06-0.28-0.21-0.53-0.42-0.72c-0.22-0.19-0.49-0.31-0.78-0.34l-0.99-0.08
				l9.76-10.94c0.06-0.06,0.12-0.12,0.19-0.17l0.63-0.52l0.17,0.8c0.06,0.28,0.2,0.53,0.42,0.72l0,0c0.21,0.19,0.48,0.31,0.77,0.33
				l0.81,0.08l-0.44,0.69c-0.05,0.07-0.09,0.14-0.15,0.2l-4.91,4.96L6.3,18.69z M5.81,15.85C6,15.94,6.17,16.06,6.32,16.2
				c0.14,0.12,0.26,0.26,0.37,0.41l3.71-4.62l4.46-4.5c-0.17-0.09-0.33-0.2-0.48-0.33v0c-0.16-0.14-0.29-0.3-0.4-0.47L5.81,15.85z"
				/>
		</g>
		<g>
			<path class="st0" d="M15.94,7.75c-0.56,0-1.11-0.2-1.56-0.59c-0.96-0.86-1.05-2.34-0.19-3.31c0.42-0.47,0.99-0.74,1.62-0.78
				c0.63-0.04,1.23,0.17,1.69,0.59l0,0c0.47,0.42,0.74,0.99,0.78,1.62c0.04,0.62-0.17,1.23-0.59,1.69
				C17.23,7.48,16.59,7.75,15.94,7.75z M15.94,4.06c-0.03,0-0.05,0-0.08,0c-0.36,0.02-0.69,0.18-0.93,0.45
				c-0.49,0.55-0.45,1.41,0.11,1.9c0.56,0.49,1.41,0.45,1.9-0.11c0.24-0.27,0.36-0.61,0.34-0.97c-0.02-0.36-0.18-0.69-0.45-0.93l0,0
				C16.59,4.18,16.27,4.06,15.94,4.06z"/>
		</g>
		<g>
			<path class="st0" d="M2.86,7.71c-0.56,0-1.11-0.2-1.56-0.59C0.34,6.26,0.26,4.78,1.12,3.81c0.86-0.97,2.34-1.05,3.31-0.19l0,0
				C4.89,4.04,5.17,4.61,5.2,5.24c0.04,0.63-0.17,1.23-0.59,1.69C4.15,7.45,3.51,7.71,2.86,7.71z M2.87,4.02
				c-0.37,0-0.74,0.15-1.01,0.45c-0.49,0.55-0.45,1.41,0.11,1.9c0.56,0.49,1.41,0.45,1.9-0.11C4.11,6,4.23,5.65,4.21,5.29
				C4.19,4.93,4.03,4.6,3.76,4.36l0,0C3.51,4.14,3.19,4.02,2.87,4.02z"/>
		</g>
		<g>
			<path class="st0" d="M4.76,20.29c-0.58,0-1.12-0.21-1.56-0.59c-0.47-0.42-0.74-0.99-0.78-1.62c-0.04-0.62,0.17-1.23,0.59-1.69
				c0.86-0.97,2.34-1.05,3.31-0.19c0.47,0.42,0.74,0.99,0.78,1.62c0.04,0.62-0.17,1.23-0.59,1.69c-0.42,0.47-0.99,0.74-1.62,0.78
				C4.85,20.29,4.8,20.29,4.76,20.29z M4.76,16.6c-0.37,0-0.74,0.15-1.01,0.45c-0.24,0.27-0.36,0.61-0.34,0.97
				c0.02,0.36,0.18,0.69,0.45,0.93c0.27,0.24,0.62,0.36,0.97,0.34c0.36-0.02,0.69-0.18,0.93-0.45c0.24-0.27,0.36-0.61,0.34-0.97
				c-0.02-0.36-0.18-0.69-0.45-0.93C5.4,16.71,5.08,16.6,4.76,16.6z"/>
		</g>
	</g>
	<g>
		<path class="st0" d="M24.67,44.21c-9.15,0-16.59-7.44-16.59-16.59s7.44-16.59,16.59-16.59s16.59,7.44,16.59,16.59
			S33.82,44.21,24.67,44.21z M24.67,12.03c-8.6,0-15.59,6.99-15.59,15.59s6.99,15.59,15.59,15.59s15.59-6.99,15.59-15.59
			S33.27,12.03,24.67,12.03z"/>
	</g>
	<g>
		<path class="st0" d="M24.67,38.85c-6.19,0-11.22-5.03-11.22-11.22S18.48,16.4,24.67,16.4s11.22,5.03,11.22,11.22
			S30.86,38.85,24.67,38.85z M24.67,17.4c-5.64,0-10.23,4.59-10.23,10.23c0,5.64,4.59,10.23,10.23,10.23S34.9,33.26,34.9,27.62
			C34.9,21.98,30.31,17.4,24.67,17.4z"/>
	</g>
	<g>
		<path class="st0" d="M24.67,15.79c-0.96,0-1.75-0.78-1.75-1.75s0.78-1.75,1.75-1.75s1.75,0.78,1.75,1.75S25.64,15.79,24.67,15.79z
			 M24.67,13.29c-0.42,0-0.75,0.34-0.75,0.75s0.34,0.75,0.75,0.75s0.75-0.34,0.75-0.75S25.09,13.29,24.67,13.29z"/>
	</g>
	<g>
		<path class="st0" d="M24.85,42.78c-0.96,0-1.75-0.78-1.75-1.75c0-0.96,0.78-1.75,1.75-1.75s1.75,0.78,1.75,1.75
			C26.6,42,25.82,42.78,24.85,42.78z M24.85,40.28c-0.42,0-0.75,0.34-0.75,0.75s0.34,0.75,0.75,0.75c0.42,0,0.75-0.34,0.75-0.75
			S25.27,40.28,24.85,40.28z"/>
	</g>
	<g>
		<path class="st0" d="M15.16,19.8c-0.45,0-0.9-0.17-1.24-0.51c-0.68-0.68-0.68-1.79,0-2.47c0.68-0.68,1.79-0.68,2.47,0l0,0
			c0.68,0.68,0.68,1.79,0,2.47C16.05,19.63,15.6,19.8,15.16,19.8z M15.16,17.3c-0.19,0-0.39,0.07-0.53,0.22
			c-0.29,0.29-0.29,0.77,0,1.07c0.29,0.29,0.77,0.29,1.07,0c0.29-0.29,0.29-0.77,0-1.07l0,0C15.54,17.38,15.35,17.3,15.16,17.3z"/>
	</g>
	<g>
		<path class="st0" d="M34.37,38.76c-0.45,0-0.9-0.17-1.24-0.51c-0.33-0.33-0.51-0.77-0.51-1.24c0-0.47,0.18-0.91,0.51-1.24
			c0.33-0.33,0.77-0.51,1.24-0.51c0.47,0,0.91,0.18,1.24,0.51c0.68,0.68,0.68,1.79,0,2.47C35.26,38.59,34.82,38.76,34.37,38.76z
			 M34.37,36.26c-0.2,0-0.39,0.08-0.53,0.22c-0.14,0.14-0.22,0.33-0.22,0.53c0,0.2,0.08,0.39,0.22,0.53c0.29,0.29,0.77,0.29,1.07,0
			c0.29-0.29,0.29-0.77,0-1.07l0,0C34.76,36.34,34.57,36.26,34.37,36.26z"/>
	</g>
	<g>
		<path class="st0" d="M11.27,29.37c-0.96,0-1.75-0.78-1.75-1.75s0.78-1.75,1.75-1.75s1.75,0.78,1.75,1.75S12.23,29.37,11.27,29.37z
			 M11.27,26.87c-0.42,0-0.75,0.34-0.75,0.75s0.34,0.75,0.75,0.75s0.75-0.34,0.75-0.75S11.68,26.87,11.27,26.87z"/>
	</g>
	<g>
		<path class="st0" d="M38.26,29.19c-0.96,0-1.75-0.78-1.75-1.75s0.78-1.75,1.75-1.75s1.75,0.78,1.75,1.75S39.22,29.19,38.26,29.19z
			 M38.26,26.69c-0.42,0-0.75,0.34-0.75,0.75s0.34,0.75,0.75,0.75c0.42,0,0.75-0.34,0.75-0.75S38.67,26.69,38.26,26.69z"/>
	</g>
	<g>
		<path class="st0" d="M15.28,38.89c-0.45,0-0.9-0.17-1.24-0.51c-0.68-0.68-0.68-1.79,0-2.47v0c0.33-0.33,0.77-0.51,1.24-0.51
			c0.47,0,0.91,0.18,1.24,0.51c0.68,0.68,0.68,1.79,0,2.47C16.18,38.72,15.73,38.89,15.28,38.89z M14.75,36.61
			c-0.29,0.29-0.29,0.77,0,1.07c0.29,0.29,0.77,0.29,1.07,0c0.29-0.29,0.29-0.77,0-1.07C15.53,36.32,15.03,36.32,14.75,36.61
			L14.75,36.61z"/>
	</g>
	<g>
		<path class="st0" d="M34.24,19.68c-0.47,0-0.91-0.18-1.24-0.51c-0.68-0.68-0.68-1.79,0-2.47v0c0.68-0.68,1.79-0.68,2.47,0
			c0.68,0.68,0.68,1.79,0,2.47C35.15,19.5,34.71,19.68,34.24,19.68z M33.71,17.4c-0.29,0.29-0.29,0.77,0,1.07
			c0.29,0.28,0.78,0.28,1.07,0c0.29-0.29,0.29-0.77,0-1.07C34.48,17.1,34,17.1,33.71,17.4z"/>
	</g>
	<g>
		<path class="st0" d="M13.95,28.12c-0.16,0-0.33-0.08-0.42-0.23c-0.15-0.23-0.08-0.54,0.15-0.69l15.3-9.7
			c0.23-0.15,0.54-0.08,0.69,0.15c0.15,0.23,0.08,0.54-0.15,0.69l-15.3,9.7C14.13,28.1,14.04,28.12,13.95,28.12z"/>
	</g>
	<g>
		<path class="st0" d="M14.62,31.86c-0.17,0-0.34-0.09-0.43-0.25c-0.13-0.24-0.05-0.54,0.19-0.68l18.5-10.34
			c0.24-0.13,0.54-0.05,0.68,0.19c0.13,0.24,0.05,0.54-0.19,0.68l-18.5,10.34C14.78,31.84,14.7,31.86,14.62,31.86z"/>
	</g>
	<g>
		<path class="st0" d="M16.09,34.56c-0.17,0-0.34-0.09-0.43-0.25c-0.14-0.24-0.05-0.54,0.19-0.68l18.49-10.54
			c0.24-0.14,0.54-0.05,0.68,0.19c0.14,0.24,0.05,0.54-0.19,0.68L16.34,34.49C16.26,34.54,16.18,34.56,16.09,34.56z"/>
	</g>
	<g>
		<path class="st0" d="M19.36,37.44c-0.17,0-0.34-0.09-0.43-0.25c-0.14-0.24-0.06-0.54,0.18-0.68l16.04-9.32
			c0.24-0.14,0.54-0.06,0.68,0.18c0.14,0.24,0.06,0.54-0.18,0.68l-16.04,9.32C19.53,37.42,19.44,37.44,19.36,37.44z"/>
	</g>
	<g>
		<path class="st0" d="M24.67,38.85c-0.16,0-0.31-0.07-0.41-0.21c-0.16-0.23-0.1-0.54,0.12-0.69l10.06-6.99
			c0.23-0.16,0.54-0.1,0.69,0.12c0.16,0.23,0.1,0.54-0.12,0.69l-10.06,6.99C24.87,38.82,24.77,38.85,24.67,38.85z"/>
	</g>
	<g>
		<path class="st0" d="M14.61,24.89c-0.15,0-0.3-0.07-0.4-0.2c-0.16-0.22-0.12-0.53,0.1-0.7l10.07-7.5c0.22-0.16,0.53-0.12,0.7,0.1
			c0.16,0.22,0.12,0.53-0.1,0.7L14.9,24.8C14.81,24.86,14.71,24.89,14.61,24.89z"/>
	</g>
</g>
</svg>
