<?xml version="1.0" encoding="utf-8"?>
<!-- Generator: Adobe Illustrator 24.1.3, SVG Export Plug-In . SVG Version: 6.00 Build 0)  -->
<svg version="1.1" id="Lag_1" xmlns="http://www.w3.org/2000/svg" xmlns:xlink="http://www.w3.org/1999/xlink" x="0px" y="0px"
	 viewBox="0 0 50 50" style="enable-background:new 0 0 50 50;" xml:space="preserve">
<style type="text/css">
	.st0{fill:#385650;}
</style>
<g>
	<g>
		<path class="st0" d="M40.41,48h-7.85l-8.18-5.22L16.37,48H9.14l3.8-8.41l0.8-5.68l-4.35-3.75V13.88l4.02,3.71l-1.6,3.06
			c0.85,2.52,1.67,4.58,3.49,6.16c0.13,0.12,0.28,0.22,0.43,0.32c0.82,0.38,1.77,0.39,2.62,0.01c0.86-0.39,1.48-1.1,1.75-2.01
			l0.02-0.05l3.2-7.64L21,13.47l3.83-3.83l3.83,3.83l-2.4,4.09l3.18,7.56c0.26,0.91,0.89,1.62,1.75,2.01
			c0.85,0.38,1.8,0.38,2.62-0.01c0.16-0.1,0.3-0.2,0.43-0.32c1.82-1.58,2.64-3.64,3.49-6.16l-1.6-3.06l4.02-3.71v16.01l-4.35,3.68
			l0.88,6.19L40.41,48z M32.82,47.08h6.17l-3.19-7.08l-0.97-6.82l4.41-3.73V15.97l-1.97,1.82l1.45,2.78l-0.06,0.18
			c-0.92,2.74-1.78,4.97-3.82,6.74c-0.18,0.15-0.37,0.3-0.58,0.42l-0.04,0.02c-1.06,0.51-2.3,0.52-3.4,0.02
			c-1.09-0.49-1.9-1.42-2.25-2.56l-3.33-7.91l2.27-3.88l-2.69-2.69l-2.69,2.69l2.19,3.74l-3.37,8.04c-0.34,1.14-1.16,2.08-2.25,2.57
			c-1.1,0.49-2.34,0.48-3.4-0.02l-0.04-0.02c-0.21-0.13-0.4-0.27-0.58-0.42c-2.03-1.77-2.9-4.01-3.82-6.74l-0.06-0.18l1.45-2.78
			l-1.97-1.82v13.77l4.41,3.8l-0.89,6.31l-3.27,7.23h5.54l8.27-5.39L32.82,47.08z"/>
	</g>
	<g>
		<path class="st0" d="M15.15,33.59c-0.2,0-0.39-0.14-0.44-0.35c-0.06-0.25,0.09-0.49,0.33-0.56l8.3-2.07
			c0.25-0.06,0.49,0.09,0.56,0.33c0.06,0.25-0.09,0.49-0.33,0.56l-8.3,2.07C15.22,33.59,15.19,33.59,15.15,33.59z"/>
	</g>
	<g>
		<path class="st0" d="M34.05,33.59c-0.04,0-0.08,0-0.11-0.01l-8.07-2.07c-0.24-0.06-0.39-0.31-0.33-0.56
			c0.06-0.24,0.31-0.39,0.56-0.33l8.07,2.07c0.24,0.06,0.39,0.31,0.33,0.56C34.44,33.45,34.26,33.59,34.05,33.59z"/>
	</g>
	<g>
		<path class="st0" d="M24.83,23.68c-0.25,0-0.46-0.2-0.46-0.46v-2.54c0-0.25,0.2-0.46,0.46-0.46s0.46,0.2,0.46,0.46v2.54
			C25.29,23.47,25.08,23.68,24.83,23.68z"/>
	</g>
	<g>
		<path class="st0" d="M24.83,26.45c-0.25,0-0.46-0.2-0.46-0.46V24.6c0-0.25,0.2-0.46,0.46-0.46s0.46,0.2,0.46,0.46v1.38
			C25.29,26.24,25.08,26.45,24.83,26.45z"/>
	</g>
	<g>
		<path class="st0" d="M24.37,14.69c-0.04,0-0.08-0.01-0.13-0.02l-1.61-0.46c-0.24-0.07-0.38-0.32-0.31-0.57
			c0.07-0.24,0.32-0.38,0.57-0.31l1.61,0.46c0.24,0.07,0.38,0.32,0.31,0.57C24.75,14.56,24.57,14.69,24.37,14.69z"/>
	</g>
	<g>
		<path class="st0" d="M25.98,14.69c-0.17,0-0.33-0.09-0.41-0.25c-0.11-0.23-0.02-0.5,0.2-0.61l0.92-0.46
			c0.23-0.11,0.5-0.02,0.61,0.2c0.11,0.23,0.02,0.5-0.2,0.61l-0.92,0.46C26.12,14.67,26.05,14.69,25.98,14.69z"/>
	</g>
	<g>
		<path class="st0" d="M24.83,17.22c-0.25,0-0.46-0.2-0.46-0.46v-0.92c0-0.25,0.2-0.46,0.46-0.46s0.46,0.2,0.46,0.46v0.92
			C25.29,17.02,25.08,17.22,24.83,17.22z"/>
	</g>
	<g>
		<path class="st0" d="M30.47,27.78l-0.21-0.14c-0.82-0.54-1.4-1.31-1.68-2.25l-3.33-7.91l2.27-3.88l-2.69-2.69l-2.69,2.69
			l2.19,3.74l-3.37,8.04c-0.27,0.91-0.83,1.68-1.62,2.21l-0.22,0.15l-0.24-0.11c-3.47-1.65-6.11-4.69-7.26-8.34l-0.06-0.18l0.7-1.33
			l-1.19-1.1l-0.02-0.17C11.03,16.06,11,15.6,11,15.15c0-7.62,6.2-13.83,13.83-13.83s13.83,6.2,13.83,13.83
			c0,0.4-0.02,0.81-0.06,1.25l-0.02,0.18l-1.31,1.21l0.77,1.47l-0.06,0.18c-1.18,3.62-3.83,6.62-7.28,8.24L30.47,27.78z
			 M26.27,17.56l3.18,7.56c0.19,0.65,0.57,1.21,1.1,1.62c3.05-1.51,5.4-4.18,6.5-7.39l-0.91-1.75l1.57-1.45
			c0.03-0.35,0.04-0.67,0.04-0.99c0-7.12-5.79-12.91-12.91-12.91c-7.12,0-12.91,5.79-12.91,12.91c0,0.36,0.02,0.73,0.05,1.1
			l1.45,1.33l-0.84,1.62c1.07,3.24,3.42,5.96,6.48,7.49c0.51-0.41,0.87-0.95,1.06-1.58l0.02-0.05l3.2-7.64L21,13.47l3.83-3.83
			l3.83,3.83L26.27,17.56z"/>
	</g>
	<g>
		<path class="st0" d="M32.69,7.02c-0.12,0-0.24-0.05-0.33-0.14c-2.89-2.96-5.94-2.93-5.96-2.94c-0.25,0-0.46-0.2-0.47-0.45
			c-0.01-0.25,0.19-0.46,0.45-0.47c0.14,0,3.46-0.05,6.64,3.21c0.18,0.18,0.17,0.47-0.01,0.65C32.92,6.98,32.8,7.02,32.69,7.02z"/>
	</g>
	<g>
		<path class="st0" d="M33.88,8.6c-0.14,0-0.29-0.07-0.37-0.19l-0.48-0.68c-0.15-0.21-0.1-0.49,0.11-0.64
			c0.21-0.15,0.49-0.1,0.64,0.11l0.48,0.68c0.15,0.21,0.1,0.49-0.11,0.64C34.06,8.58,33.97,8.6,33.88,8.6z"/>
	</g>
</g>
</svg>
