<?xml version="1.0" encoding="utf-8"?>
<!-- Generator: Adobe Illustrator 24.1.3, SVG Export Plug-In . SVG Version: 6.00 Build 0)  -->
<svg version="1.1" id="Lag_1" xmlns="http://www.w3.org/2000/svg" xmlns:xlink="http://www.w3.org/1999/xlink" x="0px" y="0px"
	 viewBox="0 0 64.6 50" style="enable-background:new 0 0 64.6 50;" xml:space="preserve">
<style type="text/css">
	.st0{fill:#385650;}
</style>
<g>
	<path class="st0" d="M13.3,21.5h5.2V18h-6.6v2.8H6.6l0.1,3.5h6.5V21.5z M12.6,18.7h5.2v2.1h-4.5h-0.7V18.7z M12.6,23.5H7.4
		l-0.1-2.1h4.6h0.7V23.5z"/>
	<path class="st0" d="M13,36.9h7.6v-3.7h-3.7v-2.5h4.4l0.1-3.2h-6.9V30h-4.1v3.9H13V36.9z M19.9,33.9v2.3h-6.2v-2.3h3.2H19.9z
		 M15.1,28.2h5.5l0,1.8h-3.7h-1.8V28.2z M11,33.2v-2.5h3.4h1.8v2.5H13H11z"/>
	<path class="st0" d="M7.7,45.9h6.4V43H7.7V45.9z M8.4,43.7h5.1v1.5H8.4V43.7z"/>
	<path class="st0" d="M6.7,7.7h0.7c0.2,0,0.3-0.2,0.3-0.3C7.7,7.1,7.6,7,7.4,7H6.7C6.5,7,6.4,7.1,6.4,7.3C6.4,7.5,6.5,7.7,6.7,7.7z"
		/>
	<path class="st0" d="M9,7.7h1.4c0.2,0,0.3-0.2,0.3-0.3c0-0.2-0.2-0.3-0.3-0.3H9C8.8,7,8.7,7.1,8.7,7.3C8.7,7.5,8.8,7.7,9,7.7z"/>
	<path class="st0" d="M15.5,7.6C15.5,7.6,15.5,7.6,15.5,7.6c0.1,0,0.1,0,0.1,0.1c0,0,0,0,0.1,0c0.1,0,0.2,0,0.2-0.1
		C16,7.5,16,7.4,16,7.3c0-0.1,0-0.2-0.1-0.2c-0.1-0.1-0.4-0.1-0.5,0c-0.1,0.1-0.1,0.2-0.1,0.2C15.3,7.4,15.4,7.5,15.5,7.6
		C15.5,7.6,15.5,7.6,15.5,7.6z"/>
	<path class="st0" d="M16.8,7.7h0.9c0.2,0,0.3-0.2,0.3-0.3c0-0.2-0.2-0.3-0.3-0.3h-0.9c-0.2,0-0.3,0.2-0.3,0.3
		C16.5,7.5,16.6,7.7,16.8,7.7z"/>
	<path class="st0" d="M18.9,7.7h0.5c0.2,0,0.3-0.2,0.3-0.3c0-0.2-0.2-0.3-0.3-0.3h-0.5c-0.2,0-0.3,0.2-0.3,0.3
		C18.6,7.5,18.7,7.7,18.9,7.7z"/>
	<path class="st0" d="M52.8,18h-6.6v3.5h5.2v2.8H58l0.1-3.5h-5.3V18z M46.9,20.8v-2.1h5.2v2.1h-0.7H46.9z M57.4,21.5l-0.1,2.1h-5.2
		v-2.1h0.7H57.4z"/>
	<path class="st0" d="M50.3,27.5h-6.9l0.1,3.2h4.4v2.5h-3.7v3.7h7.6v-3h2.7V30h-4.1V27.5z M44.1,30l0-1.8h5.5V30h-1.8H44.1z
		 M51,36.2h-6.2v-2.3h3H51V36.2z M53.7,30.7v2.5h-2h-3.2v-2.5h1.8H53.7z"/>
	<path class="st0" d="M50.5,45.9H57V43h-6.4V45.9z M51.2,43.7h5.1v1.5h-5.1V43.7z"/>
	<path class="st0" d="M57.3,7.7H58c0.2,0,0.3-0.2,0.3-0.3C58.4,7.1,58.2,7,58,7h-0.7C57.1,7,57,7.1,57,7.3C57,7.5,57.1,7.7,57.3,7.7
		z"/>
	<path class="st0" d="M54.3,7.7h1.6c0.2,0,0.3-0.2,0.3-0.3c0-0.2-0.2-0.3-0.3-0.3h-1.6C54.1,7,54,7.1,54,7.3
		C54,7.5,54.1,7.7,54.3,7.7z"/>
	<path class="st0" d="M48.8,7.7H49c0.2,0,0.3-0.2,0.3-0.3C49.4,7.1,49.2,7,49,7h-0.2c-0.2,0-0.3,0.2-0.3,0.3
		C48.5,7.5,48.6,7.7,48.8,7.7z"/>
	<path class="st0" d="M46.7,7.7h0.9c0.2,0,0.3-0.2,0.3-0.3C48,7.1,47.9,7,47.7,7h-0.9c-0.2,0-0.3,0.2-0.3,0.3
		C46.4,7.5,46.6,7.7,46.7,7.7z"/>
	<path class="st0" d="M45.4,7.7h0.2c0.2,0,0.3-0.2,0.3-0.3c0-0.2-0.2-0.3-0.3-0.3h-0.2C45.2,7,45,7.1,45,7.3
		C45,7.5,45.2,7.7,45.4,7.7z"/>
	<path class="st0" d="M61.3,16.3l0.9-4.4l0,0c0.4,0,0.7-0.3,0.7-0.7V10c0.4,0,0.7-0.3,0.7-0.7V1.9h-6v3.2h-3V1.9h-6v3.2h-3V1.9h-6
		v7.3c0,0.4,0.3,0.7,0.7,0.7v1.1c0,0.1,0,0.2,0,0.3h-1.2V16h-0.7v-2.8h-3.7V16H34v-4.4h-3.7V16h-1.2v-2.8h-3.7V16h-0.7v-4.4h-0.7
		c0.1-0.1,0.2-0.3,0.2-0.5V10c0.4,0,0.7-0.3,0.7-0.7V1.9h-6v3.2h-3V1.9h-6v3.2h-3V1.9h-6v7.3c0,0.4,0.3,0.7,0.7,0.7v1.1
		c0,0.4,0.3,0.7,0.7,0.7c0,0,0,0,0,0l0.1,0l0.9,4.4c0.3,1.3,0.4,2.6,0.4,4L4,28.6h0l0,0.3l0.2,8.9h0l0,0.6l0,0.3c0,0.1,0,0.3,0,0.4
		c0,0.9-0.2,1.8-0.5,2.7l-0.1,0.4h0.1l-1.2,4.1H1.1v2.3h23.7v-2.3h-1l-0.3-0.9h2h1.2h5.5h0.7h5.5h1.2h1.7L41,46.3h-1v2.3h23.7v-2.3
		h-1.5L61,42.2h0.1l-0.1-0.4c-0.3-0.9-0.4-1.7-0.5-2.6c0-0.2,0-0.3,0-0.5l0-0.3l0-0.6h0l0.2-8.9l0-0.3h0l0.2-8.4
		C60.9,18.9,61.1,17.6,61.3,16.3z M21.3,39.4c0,0.1,0,0.2,0,0.3c0,0.9,0.2,1.7,0.4,2.6l0.4,1.3h-4v-4.1H21.3z M13.4,12.3l-0.4,2.5
		h-0.8l-0.4-2.5h1l0,0l0,0H13.4z M2.5,11.1V10l9.9,0.4c0.2,0,0.4,0,0.5,0c0.2,0,0.4,0,0.5,0L23.6,10v1.1c0,0,0,0,0,0l-10.1,0.4
		c-0.3,0-0.7,0-1.1,0L2.5,11.1C2.5,11.1,2.5,11.1,2.5,11.1z M22.3,19.4L22.3,19.4c0-0.3,0-0.6,0-0.8h20.1c0,0,0,0,0,0.1
		c0,0.2,0,0.5,0,0.7l0,0.3H22.3L22.3,19.4z M41.1,11.1V10l10.2,0.4c0.2,0,0.4,0,0.5,0c0.2,0,0.4,0,0.5,0l9.9-0.4v1.1c0,0,0,0,0,0
		l-9.9,0.5c-0.4,0-0.7,0-1.1,0L41.1,11.1C41.1,11.1,41.1,11.1,41.1,11.1z M43,42.3c0.2-0.8,0.4-1.7,0.4-2.6c0-0.1,0-0.2,0-0.3h3.3
		v4.1h-4L43,42.3z M51.8,12.3L51.8,12.3L51.8,12.3h1l-0.4,2.5h-0.8l-0.4-2.5H51.8z M40.4,2.6H45v3.2h4.4V2.6H54v3.2h4.4V2.6H63v6.6
		c0,0,0,0,0,0L52.3,9.7c-0.3,0-0.7,0-1,0L40.4,9.3c0,0,0,0,0,0V2.6z M26.2,16.6v-2.8h2.3v2.8H31v-4.4h2.3v4.4h2.3v-2.8h2.3v2.8H40
		V12H41l1.1,4.4c0.1,0.5,0.2,0.9,0.3,1.4h-20c0.1-0.5,0.1-1,0.3-1.4l1-4.2h0.4v4.4H26.2z M1.8,2.6h4.6v3.2h4.4V2.6h4.6v3.2h4.4V2.6
		h4.6v6.6c0,0,0,0,0,0L13.4,9.7c-0.3,0-0.7,0-1,0L1.8,9.3c0,0,0,0,0,0V2.6z M4.9,38.8c0-0.1,0-0.2,0-0.3H10v3H4.6
		C4.8,40.6,5,39.7,4.9,38.8z M24.1,47v0.9H1.8V47h0.6l0,0H24l0,0H24.1z M3.3,46.3l1.2-4.1h6.3v-4.4H4.9L4.8,33h3.8v-4.4H4.7
		l-0.2-8.4c0-1.4-0.2-2.8-0.5-4.1l-0.9-4.3l1.6,0.1L6.5,15h1l-0.2-3l3.9,0.2l0.5,3.3h2l0.5-3.3l4.6-0.2l-0.2,3h1l1.7-3.1l1.8-0.1
		L22,16.3c-0.2,1-0.4,2-0.4,3l0,0.3h0l0,0.2l0,0.5h0l-0.2,18.4h-3.9v5.5h5l0.6,2.1H3.3z M4.7,29.3H8v3H4.8L4.7,29.3z M6.8,14.1
		l-1.1-2h0.9L6.8,14.1z M20.4,12l-1.1,2l0.2-2H20.4z M27.3,44.7V31c0-2.7,2.1-5,4.8-5.2v18.9H27.3z M32.8,44.7V25.9
		c2.7,0.2,4.8,2.4,4.8,5.2v13.7H32.8z M38.3,44.7V31c0-3.1-2.4-5.7-5.5-5.9v0h-0.3h-0.3v0c-3.1,0.2-5.5,2.7-5.5,5.9v13.7h-0.5V30.2
		c0-3,2.8-5.5,6.3-5.5c3.5,0,6.3,2.5,6.3,5.5v14.5H38.3z M41.4,44.7h-2V30.2c0-3.4-3.1-6.2-7-6.2c-3.9,0-7,2.8-7,6.2v14.5h-2.2
		l-0.8-2.8c-0.2-0.8-0.4-1.5-0.4-2.3c0-0.2,0-0.3,0-0.5l0-0.4h0l0.2-18.4h20.2l0.2,18.4h0l0,0.4c0,0.2,0,0.3,0,0.5
		c0,0.8-0.2,1.6-0.4,2.3L41.4,44.7z M63,47v0.9H40.6V47h0.1l0,0h21.6l0,0H63z M59.8,38.8c0,0.9,0.1,1.8,0.3,2.7h-5.4v-3h5.1l0,0
		C59.8,38.6,59.8,38.7,59.8,38.8z M56.1,28.6V33h3.8l-0.1,4.8H54v4.4h6.3l1.2,4.1H41.7l0.6-2.1h5v-5.5h-3.9l-0.2-18.4h0l0-0.5l0-0.2
		h0l0-0.3c0-1-0.1-2.1-0.4-3l-1.1-4.5l1.8,0.1l1.7,3.1h1L46,12l4.6,0.2l0.5,3.3h2l0.5-3.3l3.9-0.2l-0.2,3h1l1.7-3.1l1.6-0.1
		l-0.9,4.3c-0.3,1.3-0.4,2.7-0.5,4.1L60,28.6H56.1z M60,29.3l-0.1,3h-3.1v-3H60z M45.4,14.1l-1.1-2h0.9L45.4,14.1z M59.1,12l-1.1,2
		l0.2-2H59.1z"/>
	<path class="st0" d="M30.9,32.5c-0.2,0-0.3,0.2-0.3,0.3v1.4c0,0.2,0.2,0.3,0.3,0.3c0.2,0,0.3-0.2,0.3-0.3v-1.4
		C31.2,32.7,31.1,32.5,30.9,32.5z"/>
	<path class="st0" d="M30.9,29.4c-0.2,0-0.3,0.2-0.3,0.3v2c0,0.2,0.2,0.3,0.3,0.3c0.2,0,0.3-0.2,0.3-0.3v-2
		C31.2,29.5,31.1,29.4,30.9,29.4z"/>
	<path class="st0" d="M30.9,27.9c-0.2,0-0.3,0.2-0.3,0.3v0.2c0,0.2,0.2,0.3,0.3,0.3c0.2,0,0.3-0.2,0.3-0.3v-0.2
		C31.2,28.1,31.1,27.9,30.9,27.9z"/>
	<path class="st0" d="M34.1,42.3c-0.2,0-0.3,0.2-0.3,0.3v0.6c0,0.2,0.2,0.3,0.3,0.3s0.3-0.2,0.3-0.3v-0.6
		C34.4,42.4,34.3,42.3,34.1,42.3z"/>
	<path class="st0" d="M34.1,39.2c-0.2,0-0.3,0.2-0.3,0.3v1.7c0,0.2,0.2,0.3,0.3,0.3s0.3-0.2,0.3-0.3v-1.7
		C34.4,39.4,34.3,39.2,34.1,39.2z"/>
</g>
</svg>
