<?xml version="1.0" encoding="utf-8"?>
<!-- Generator: Adobe Illustrator 24.1.3, SVG Export Plug-In . SVG Version: 6.00 Build 0)  -->
<svg version="1.1" id="Lag_1" xmlns="http://www.w3.org/2000/svg" xmlns:xlink="http://www.w3.org/1999/xlink" x="0px" y="0px"
	 viewBox="0 0 50 50" style="enable-background:new 0 0 50 50;" xml:space="preserve">
<style type="text/css">
	.st0{fill:#385650;}
</style>
<g>
	<g>
		<g>
			<g>
				<path class="st0" d="M24.94,25.08l-2.43-3.13l0.9-3.47l-0.38-0.42l-9.66,0.5l0-0.48c0-0.04,0-0.81,0-0.85
					C13.35,8.28,18.53,1,24.89,1s11.54,7.28,11.54,16.23c0,0.04,0,0.81,0,0.85l0,0.48l-9.57-0.5l-0.38,0.42l0.9,3.47L24.94,25.08z
					 M23.51,21.75l1.43,1.83l1.43-1.83l-0.91-3.52l1.02-1.11l9.03,0.47c0-0.18,0-0.34,0-0.36c0-8.44-4.76-15.31-10.61-15.31
					S14.28,8.79,14.28,17.23c0,0.02,0,0.18,0,0.36l9.13-0.47l1.02,1.11L23.51,21.75z"/>
			</g>
			<g>
				<path class="st0" d="M27.78,4.81c-0.65,0-1.18-0.53-1.18-1.18c0-0.65,0.53-1.18,1.18-1.18s1.18,0.53,1.18,1.18
					C28.96,4.28,28.43,4.81,27.78,4.81z M27.78,3.37c-0.14,0-0.26,0.12-0.26,0.26c0,0.14,0.12,0.26,0.26,0.26s0.26-0.12,0.26-0.26
					C28.04,3.48,27.92,3.37,27.78,3.37z"/>
			</g>
			<g>
				<path class="st0" d="M30.06,6.5C29.48,6.5,29,6.02,29,5.43s0.48-1.06,1.06-1.06c0.59,0,1.06,0.48,1.06,1.06S30.65,6.5,30.06,6.5
					z M30.06,5.29c-0.08,0-0.14,0.06-0.14,0.14c0,0.08,0.06,0.14,0.14,0.14c0.08,0,0.14-0.06,0.14-0.14
					C30.2,5.36,30.14,5.29,30.06,5.29z"/>
			</g>
			<g>
				<path class="st0" d="M31.75,7.94c-0.45,0-0.82-0.37-0.82-0.82S31.3,6.3,31.75,6.3c0.45,0,0.82,0.37,0.82,0.82
					S32.2,7.94,31.75,7.94z M31.75,7.02c-0.06,0-0.1,0.05-0.1,0.1s0.05,0.1,0.1,0.1s0.1-0.05,0.1-0.1S31.8,7.02,31.75,7.02z"/>
			</g>
			<g>
				<path class="st0" d="M24.89,8.18c-0.25,0-0.46-0.21-0.46-0.46V2.91c0-0.25,0.21-0.46,0.46-0.46s0.46,0.21,0.46,0.46v4.81
					C25.35,7.98,25.14,8.18,24.89,8.18z"/>
			</g>
			<g>
				<path class="st0" d="M24.89,11.79c-0.25,0-0.46-0.21-0.46-0.46V9.41c0-0.25,0.21-0.46,0.46-0.46s0.46,0.21,0.46,0.46v1.93
					C25.35,11.59,25.14,11.79,24.89,11.79z"/>
			</g>
			<g>
				<path class="st0" d="M24.89,20.7c-0.25,0-0.46-0.21-0.46-0.46v-1.69c0-0.25,0.21-0.46,0.46-0.46s0.46,0.21,0.46,0.46v1.69
					C25.35,20.49,25.14,20.7,24.89,20.7z"/>
			</g>
			<g>
				<path class="st0" d="M24.89,23.11c-0.25,0-0.46-0.21-0.46-0.46v-0.96c0-0.25,0.21-0.46,0.46-0.46s0.46,0.21,0.46,0.46v0.96
					C25.35,22.9,25.14,23.11,24.89,23.11z"/>
			</g>
			<g>
				<path class="st0" d="M13.81,15.89c-0.23,0-0.43-0.18-0.46-0.41c-0.03-0.25,0.16-0.48,0.41-0.51l11.12-1.21L36,14.72
					c0.25,0.02,0.44,0.25,0.42,0.5c-0.02,0.25-0.25,0.44-0.5,0.42l-11.03-0.96l-11.03,1.2C13.85,15.89,13.83,15.89,13.81,15.89z"/>
			</g>
		</g>
		<g>
			<path class="st0" d="M24.89,29.25c-5.43,0-9.91-4.85-10.2-11.03c-0.01-0.25,0.19-0.47,0.44-0.48c0.25-0.01,0.47,0.19,0.48,0.44
				c0.26,5.69,4.34,10.15,9.27,10.15s9.01-4.46,9.27-10.15c0.01-0.25,0.23-0.45,0.48-0.44c0.25,0.01,0.45,0.23,0.44,0.48
				C34.8,24.4,30.32,29.25,24.89,29.25z"/>
		</g>
	</g>
	<g>
		<path class="st0" d="M39.27,48.53l-14.02-0.64l-14.74,0.64l0.69-4.71l-0.61-6.56c0-3.58,1.78-6.89,4.77-8.86
			c1.25-0.82,2.87-0.87,4.12-0.12c1.63,0.98,3.5,1.49,5.41,1.49c2.05,0,4.04-0.59,5.75-1.71c0.92-0.6,2.1-0.63,3.08-0.09l0,0
			c3.37,1.87,5.47,5.43,5.47,9.29l0,0.04l-0.61,6.64L39.27,48.53z M11.51,37.24l0.62,6.61l-0.54,3.72l13.67-0.59l0.02,0l12.92,0.59
			l-0.54-3.59l0.62-6.73c-0.01-3.51-1.92-6.75-4.99-8.46l0,0c-0.68-0.38-1.5-0.36-2.13,0.05c-1.87,1.22-4.03,1.86-6.26,1.86
			c-2.07,0-4.11-0.56-5.88-1.62c-0.95-0.57-2.19-0.53-3.14,0.1C13.14,30.96,11.51,33.98,11.51,37.24z M38.73,37.26L38.73,37.26
			L38.73,37.26z"/>
	</g>
	<g>
		<path class="st0" d="M25.19,33.23c-4.61,0-7.11-2.06-7.22-2.16c-0.19-0.16-0.22-0.46-0.05-0.65c0.16-0.19,0.45-0.22,0.65-0.05
			c0.05,0.04,3.09,2.5,8.55,1.82c0.25-0.03,0.48,0.15,0.52,0.4c0.03,0.25-0.15,0.48-0.4,0.52C26.51,33.19,25.83,33.23,25.19,33.23z"
			/>
	</g>
	<g>
		<path class="st0" d="M27.18,40.56c-0.25,0-0.46-0.21-0.46-0.46v-5.3c0-0.25,0.21-0.46,0.46-0.46s0.46,0.21,0.46,0.46v5.3
			C27.64,40.36,27.43,40.56,27.18,40.56z"/>
	</g>
	<g>
		<path class="st0" d="M27.18,44.87c-0.25,0-0.46-0.21-0.46-0.46v-2.38c0-0.25,0.21-0.46,0.46-0.46s0.46,0.21,0.46,0.46v2.38
			C27.64,44.66,27.43,44.87,27.18,44.87z"/>
	</g>
	<g>
		<path class="st0" d="M24.29,36.64c-0.79,0-1.42-0.64-1.42-1.42c0-0.79,0.64-1.42,1.42-1.42c0.79,0,1.42,0.64,1.42,1.42
			C25.71,36,25.07,36.64,24.29,36.64z M24.29,34.72c-0.28,0-0.5,0.23-0.5,0.5c0,0.28,0.23,0.5,0.5,0.5c0.28,0,0.5-0.23,0.5-0.5
			C24.79,34.94,24.56,34.72,24.29,34.72z"/>
	</g>
	<g>
		<path class="st0" d="M24.29,40.67c-0.79,0-1.42-0.64-1.42-1.42c0-0.79,0.64-1.42,1.42-1.42c0.79,0,1.42,0.64,1.42,1.42
			C25.71,40.03,25.07,40.67,24.29,40.67z M24.29,38.74c-0.28,0-0.5,0.23-0.5,0.5c0,0.28,0.23,0.5,0.5,0.5c0.28,0,0.5-0.23,0.5-0.5
			C24.79,38.97,24.56,38.74,24.29,38.74z"/>
	</g>
	<g>
		<path class="st0" d="M24.29,44.76c-0.79,0-1.42-0.64-1.42-1.42s0.64-1.42,1.42-1.42c0.79,0,1.42,0.64,1.42,1.42
			S25.07,44.76,24.29,44.76z M24.29,42.84c-0.28,0-0.5,0.23-0.5,0.5s0.23,0.5,0.5,0.5c0.28,0,0.5-0.23,0.5-0.5
			S24.56,42.84,24.29,42.84z"/>
	</g>
</g>
</svg>
