<?xml version="1.0" encoding="utf-8"?>
<!-- Generator: Adobe Illustrator 27.0.0, SVG Export Plug-In . SVG Version: 6.00 Build 0)  -->
<svg version="1.1" id="Lag_1" xmlns="http://www.w3.org/2000/svg" xmlns:xlink="http://www.w3.org/1999/xlink" x="0px" y="0px"
	 viewBox="0 0 228.5 190.5" style="enable-background:new 0 0 228.5 190.5;" xml:space="preserve">
<style type="text/css">
	.st0{fill:#919191;}
	.st1{fill:#2D2521;}
	.st2{fill:#D8D5D4;}
	.st3{fill:#BC694B;}
	.st4{fill:#EDEBE4;}
	.st5{fill:#D3CC6A;}
	.st6{fill:#EAF2F4;}
	.st7{opacity:0.46;fill:#11100E;}
	.st8{fill:none;stroke:#2D2521;stroke-width:2;stroke-linecap:round;stroke-miterlimit:10;}
	.st9{fill:none;stroke:#2D2521;stroke-width:0.75;stroke-linecap:round;stroke-miterlimit:10;}
	.st10{fill:none;stroke:#E5B8AA;stroke-width:2;stroke-linecap:round;stroke-miterlimit:10;}
	.st11{fill:#FFFFFF;}
	.st12{fill:none;stroke:#EAE5B9;stroke-linecap:round;stroke-miterlimit:10;}
	.st13{fill:none;stroke:#2D2521;stroke-width:3;stroke-linecap:round;stroke-miterlimit:10;}
	.st14{fill:#EDE0D3;stroke:#2D2521;stroke-width:3;stroke-miterlimit:10;}
	.st15{fill:#6BA4D6;stroke:#2D2521;stroke-width:2;stroke-miterlimit:10;}
	.st16{fill:none;stroke:#DAE8F2;stroke-width:2;stroke-linecap:round;stroke-miterlimit:10;}
	.st17{fill:#DAE8F2;}
</style>
<g>
	<g>
		<g>
			<g>
				
					<ellipse transform="matrix(0.9832 -0.1825 0.1825 0.9832 -24.075 21.1521)" class="st0" cx="102.9" cy="141.4" rx="7" ry="11.9"/>
				<path class="st1" d="M105.4,154.6c-4.7,0.9-9.4-4.3-10.8-11.7c-1.4-7.4,1.2-13.9,5.9-14.7s9.4,4.3,10.8,11.7
					S110,153.8,105.4,154.6z M101,131.2c-2.5,0.5-4.6,5.2-3.5,11.3c1.1,6,4.7,9.7,7.3,9.3c2.5-0.5,4.6-5.2,3.5-11.3
					S103.6,130.7,101,131.2z"/>
			</g>
			<g>
				<path class="st1" d="M131.9,164.4l-0.3-0.7c-0.2-0.6-0.9-0.9-1.5-0.6L123,166l0.8-11l-3-0.2l-0.9,12.5l-9.1,6.4
					c-0.5,0.4-0.6,1.1-0.3,1.6l0.4,0.6c0.4,0.5,1.1,0.7,1.6,0.3l8.6-5.9l7.6,7.2c0.5,0.4,1.2,0.4,1.6,0l0.5-0.5
					c0.4-0.5,0.4-1.2,0-1.6l-6.8-6.5l7.2-2.9C131.8,165.7,132.1,165,131.9,164.4z"/>
			</g>
			<g>
				<path class="st1" d="M111.8,160.4L111.8,160.4c-0.2-0.6-0.9-0.9-1.5-0.6l-5.2,2.1l0.6-8.4l-2.3-0.2l-0.7,9.5l-6.7,4.7
					c-0.5,0.4-0.6,1.1-0.3,1.6l0,0c0.4,0.5,1.1,0.7,1.6,0.3l6.3-4.3l5.6,5.3c0.5,0.4,1.2,0.4,1.6,0l0,0c0.4-0.5,0.4-1.2,0-1.6
					L106,164l5.2-2.1C111.8,161.7,112,161,111.8,160.4z"/>
			</g>
			<g>
				<path class="st2" d="M177.8,80.5l-11.1,1.3l-0.7-17c0-0.8-0.9-1.3-1.6-0.8l-12.8,9.1c-0.3,0.2-0.6,0.4-0.9,0.6l-15.2-12.8
					c-0.6-0.5-1.4-0.1-1.5,0.6l-1.8,14.5c-0.2,1.3-0.6,2.5-1.1,3.7l-24.3,0.9c-2.5,0.1-4.9,0.6-7.3,1.4l-21.6,7.4
					c-10.4,3.6-17.4,13.4-17.4,24.4l0,1.6c0,3.1,0.6,6.2,1.7,9l0.8,2.1c3.8,10,13.4,16.6,24.1,16.6l19.2-0.1c3.3,8,9.7,13.1,15.9,12
					c6.7-1.2,10.9-9.3,10.5-18.9l8.6-3.3c9.4-3.6,15.9-12.3,16.5-22.3l1-0.2c4.2-0.8,7.7-3.4,9.6-7.2l10.4-20.8
					C179.3,81.3,178.7,80.4,177.8,80.5z"/>
				<path class="st1" d="M122.5,156.3c-6.6,1.2-13.4-3.6-17.2-12l-18.3,0.1c-11.3,0.1-21.5-7-25.6-17.5l-0.8-2.1
					c-1.2-3.1-1.8-6.3-1.8-9.6l0-1.6c0-11.7,7.4-22.1,18.4-25.8L99,80.5c2.5-0.9,5.1-1.3,7.7-1.4l23.3-0.9c0.3-0.8,0.5-1.6,0.6-2.4
					l1.8-14.5c0.1-0.9,0.7-1.6,1.5-2c0.8-0.3,1.8-0.2,2.5,0.4l14.3,12.1l12.7-9c0.8-0.5,1.7-0.6,2.6-0.2c0.8,0.4,1.4,1.2,1.4,2.2
					l0.6,15.3l9.5-1.1c0.9-0.1,1.9,0.3,2.4,1.1c0.5,0.8,0.6,1.8,0.2,2.6l-10.4,20.8c-2.1,4.1-6,7.1-10.5,8
					c-1.1,10.1-7.8,18.8-17.4,22.5l-7.6,2.9C134.4,146.9,129.6,155,122.5,156.3z M103.4,82.5c-1.1,0.2-2.3,0.5-3.4,0.9l-21.6,7.4
					c-9.8,3.4-16.4,12.6-16.4,23l0,1.6c0,2.9,0.5,5.8,1.6,8.5l0.8,2.1c3.6,9.4,12.7,15.6,22.7,15.6l20.3-0.1l0.4,0.9
					c3.1,7.5,9,12.1,14.2,11.1c5.8-1.1,9.7-8.4,9.3-17.4l0-1.1l9.6-3.6c8.8-3.3,15-11.6,15.6-21l0.1-1.2l2.1-0.4c0,0,0,0,0,0
					c3.7-0.7,6.8-3.1,8.5-6.4l10-20.1l-12,1.4l-0.7-17.7l-12.1,8.6c-0.3,0.2-0.7,0.4-1,0.6l-0.9,0.5l-15.2-12.8l-1.7,13.4
					c-0.2,1.4-0.6,2.9-1.3,4.2l-0.4,0.8l-25.2,1C105.7,82.1,104.5,82.3,103.4,82.5z"/>
			</g>
			<g>
				<path class="st3" d="M40,72.1l-1-1.2c-2.1-2.5-1.8-6.2,0.7-8.4l5.7-4.9l4.9,5.7c2.1,2.5,1.8,6.2-0.7,8.4l-1.2,1
					C45.9,74.9,42.2,74.6,40,72.1z"/>
				<path class="st1" d="M46.2,75.2c-0.7,0.1-1.4,0.2-2.2,0.1c-2.2-0.2-4.2-1.2-5.6-2.9c-3-3.5-2.5-8.7,0.9-11.6l6.3-5.4l5.4,6.3
					c1.4,1.7,2.1,3.8,1.9,6C52.7,70,51.7,72,50,73.4C48.9,74.3,47.6,75,46.2,75.2z M45.2,59.7l-4,3.4c-2.2,1.9-2.5,5.2-0.6,7.4
					c0.9,1.1,2.2,1.7,3.6,1.8c1.4,0.1,2.8-0.3,3.8-1.2c2.2-1.9,2.5-5.2,0.6-7.4L45.2,59.7z"/>
			</g>
			<g>
				<path class="st4" d="M45.2,57.1c3.2,4.5,7.9,7.6,13.3,8.8l1.4,2.4c3.5,6.1,5,13.1,4.3,20.1l-1.1,11.4c-0.1,0.7,0.4,1.3,1.1,1.3
					l4.1,0.2c9.3,0.5,18.4-2.9,24.9-9.5l3.9-3.9c0.6-0.6,0.4-1.5-0.3-1.9l-8.2-4.6C85,75.6,83.1,68.8,83.3,62c0,0,2.9-17.2,2-21.9
					c-2.2-12.1-13.9-20.1-26-17.9c-10.1,1.9-17.3,10.3-18.1,20.1"/>
				<path class="st1" d="M76.5,102.2c-2.7,0.5-5.4,0.7-8.2,0.5l-4.1-0.2c-0.7,0-1.4-0.4-1.9-0.9c-0.5-0.6-0.7-1.3-0.6-2l1.1-11.4
					c0.6-6.7-0.8-13.3-4.2-19.2l-1-1.8C52.1,65.8,47.3,62.6,44,58l2.4-1.7c3,4.2,7.4,7.1,12.4,8.2l0.6,0.1l1.7,2.9
					c3.6,6.4,5.2,13.6,4.5,21l-1,11.1l3.8,0.2c8.8,0.5,17.5-2.8,23.8-9.1l3.6-3.7l-8.2-4.5l-0.2-0.3c-3.9-6-5.9-13-5.7-20.2l0-0.2
					c0.8-4.7,2.7-17.7,2-21.4c-2.1-11.3-13-18.8-24.3-16.7c-9.2,1.7-16.2,9.4-16.9,18.8l-3-0.2c0.9-10.7,8.8-19.5,19.4-21.5
					c12.9-2.4,25.3,6.2,27.7,19.1c0.9,4.8-1.6,20.1-1.9,22.4c-0.1,6.4,1.6,12.7,5,18.1l7.9,4.4c0.7,0.4,1.2,1.1,1.4,2
					c0.1,0.8-0.2,1.7-0.8,2.3l-3.9,3.9C89.4,97.7,83.2,101,76.5,102.2z"/>
			</g>
			<g>
				<path class="st5" d="M45.2,57.1l-20.1,3.7c-1.5-8.3,5.3-16.6,15.2-18.4c0.3,0,0.5-0.1,0.8-0.1L45.2,57.1z"/>
				<path class="st1" d="M47.1,58.3l-23.2,4.3l-0.3-1.5C22,52,29.3,42.9,40,41c0.2,0,0.4-0.1,0.6-0.1l1.6-0.2L47.1,58.3z M26.4,59.1
					l16.9-3.1L40,44C31.8,45.8,26.1,52.2,26.4,59.1z"/>
			</g>
			<g>
				<circle class="st6" cx="55.3" cy="41.2" r="7.3"/>
				<path class="st1" d="M55.3,49.7c-4.1,0-7.6-2.9-8.4-7c-0.9-4.6,2.2-9.1,6.8-9.9c0.5-0.1,1-0.1,1.6-0.1c4.1,0,7.6,2.9,8.4,6.9
					c0.9,4.6-2.2,9.1-6.8,9.9C56.4,49.6,55.9,49.7,55.3,49.7z M55.3,35.2c-0.4,0-0.7,0-1.1,0.1c-3.3,0.6-5.4,3.7-4.8,7
					c0.5,2.8,3,4.9,5.9,4.9c0.4,0,0.7,0,1.1-0.1c1.6-0.3,2.9-1.2,3.9-2.5s1.2-2.9,1-4.5C60.7,37.2,58.2,35.2,55.3,35.2z"/>
			</g>
			<g>
				<path class="st7" d="M155.2,94.7c3,16.1-10.3,32.1-29.8,35.8c-11.5,2.1-22.5-0.5-30.3-6.4c-7.9-6-7.1-18.1,1.5-23.1l5.1-2.9
					c1.9-1.1,4.1-1.7,6.3-1.8L155.2,94.7z"/>
				<path class="st4" d="M153.2,91.7c3,16.1-10.3,32.1-29.8,35.8c-11.5,2.1-22.5-0.5-30.3-6.4c-7.9-6-7.1-18.1,1.5-23.1l5.1-2.9
					c1.9-1.1,4.1-1.7,6.3-1.8L153.2,91.7z"/>
				<path class="st1" d="M123.7,128.9c-11.5,2.1-23-0.3-31.4-6.7c-4.1-3.1-6.4-8.1-6-13.2c0.3-5.2,3.2-9.8,7.7-12.3l5.1-2.9
					c2.1-1.2,4.6-1.9,7-2l48.4-1.7l0.2,1.3C157.8,108.3,143.9,125.2,123.7,128.9z M104.3,95c-1.3,0.3-2.7,0.7-3.8,1.4l-5.1,2.9
					c-3.6,2.1-5.9,5.8-6.2,9.9c-0.3,4.2,1.5,8.1,4.9,10.6c7.8,5.9,18.4,8.1,29.1,6.1c18.1-3.4,30.7-17.9,28.8-32.7l-45.8,1.6
					C105.5,94.8,104.9,94.9,104.3,95z"/>
			</g>
			<path class="st8" d="M56.3,26.8c0,0,5.1-7.9-3.3-12.4S47.3,6,52.5,3.6"/>
			<path class="st8" d="M69.6,26.8c0,0,3.8-9.4,8.7-7.8c5,1.6,11-1.3,8.6-6.5"/>
			<path class="st8" d="M63.2,24.5c0,0-0.7-11.5,6.4-10.4"/>
			<circle class="st1" cx="55.2" cy="40.7" r="1.2"/>
			<path class="st9" d="M53.8,39.1c0,0-2.1,1.7,0,3.3"/>
			<path class="st9" d="M56.8,39.1c0,0,2.1,1.7,0,3.3"/>
			<path class="st10" d="M47.4,68.6c-0.3,0.6-0.8,1.3-1.5,1.9"/>
			<path class="st10" d="M47.7,65.4c0,0,0.1,0.3,0.2,0.9"/>
			<circle class="st11" cx="55.9" cy="39.5" r="0.7"/>
			<path class="st12" d="M34.5,48c-1,0.6-2,1.5-3,2.7"/>
			<path class="st12" d="M37.9,46.5c0,0-0.6,0.1-1.5,0.5"/>
			<path class="st13" d="M106.4,142.8c0,0-2.2-3.4-0.6-7.8"/>
			<path class="st13" d="M132.8,135.9c0,0,0-2.2-2.2-6.2"/>
			<path class="st13" d="M153.2,98.9c0,0-6.1,8.8-18.9,3.9"/>
			<path class="st13" d="M148.6,111.2c0,0-4.1,2.7-9.1,0.8"/>
			<line class="st13" x1="131.1" y1="79.6" x2="128.3" y2="83.9"/>
			<path class="st13" d="M150.7,73.7c0,0,0.1,6.6-2.1,8.1"/>
			<path class="st13" d="M166.7,81.8c0,0-0.3,2.1-3.7,2.1"/>
		</g>
		<path class="st14" d="M28.5,97c-0.9,2.7,1.9,6.1,6.4,7.7c0.3,0.1,0.6,0.2,1,0.3c0.2,2.6,2.5,5.2,5.8,6.4c4.2,1.4,8.4,0.1,9.5-3.1
			c0.5-1.5,0.2-3.2-0.7-4.7c1.5-0.7,2.6-1.9,3.2-3.4c1.2-3.5-1.3-7.5-5.7-9s-8.8,0.1-10,3.6c0,0,0,0,0,0
			C33.6,93.5,29.4,94.4,28.5,97z"/>
		<path class="st14" d="M223,78.5c0-6.1-8.1-11-18-11c-0.7,0-1.4,0-2.1,0.1c-2.3-5.1-8.6-8.7-16.1-8.7c-9.4,0-17,5.7-17,12.8
			c0,3.4,1.8,6.5,4.7,8.8c-2.5,2.4-4,5.6-4,9c0,7.8,7.9,14.1,17.6,14.1s17.6-6.3,17.6-14.1c0,0,0,0,0,0
			C215.4,89.2,223,84.4,223,78.5z"/>
		<path class="st14" d="M76.7,148c0-8.1-10.8-14.7-24.2-14.7c-1,0-1.9,0-2.9,0.1c-3-6.8-11.5-11.7-21.5-11.7
			c-12.5,0-22.7,7.7-22.7,17.1c0,4.6,2.4,8.7,6.3,11.8c-3.4,3.3-5.4,7.4-5.4,12c0,10.4,10.6,18.9,23.6,18.9s23.6-8.5,23.6-18.9
			c0,0,0,0,0,0C66.5,162.4,76.7,155.9,76.7,148z"/>
		<path class="st14" d="M96.5,177.1c0-2.4-3.1-4.3-7-4.3c-0.3,0-0.6,0-0.8,0c-0.9-2-3.4-3.4-6.3-3.4c-3.7,0-6.6,2.2-6.6,5
			c0,1.3,0.7,2.5,1.8,3.4c-1,1-1.6,2.2-1.6,3.5c0,3,3.1,5.5,6.9,5.5s6.9-2.5,6.9-5.5c0,0,0,0,0,0C93.5,181.3,96.5,179.4,96.5,177.1z
			"/>
		<path class="st14" d="M191.5,145.6c0-3.3-4.3-5.9-9.7-5.9c-0.4,0-0.8,0-1.2,0c-1.2-2.7-4.6-4.7-8.6-4.7c-5,0-9.1,3.1-9.1,6.9
			c0,1.8,1,3.5,2.5,4.7c-1.3,1.3-2.2,3-2.2,4.8c0,4.2,4.2,7.6,9.5,7.6s9.5-3.4,9.5-7.6c0,0,0,0,0,0
			C187.4,151.3,191.5,148.8,191.5,145.6z"/>
		<path class="st14" d="M135.5,36.7c0-5.3-7.1-9.6-15.8-9.6c-0.6,0-1.3,0-1.9,0.1c-2-4.4-7.5-7.6-14.1-7.6c-8.2,0-14.8,5-14.8,11.2
			c0,3,1.6,5.7,4.1,7.7c-2.2,2.1-3.5,4.9-3.5,7.8c0,6.8,6.9,12.3,15.4,12.3s15.4-5.5,15.4-12.3c0,0,0,0,0,0
			C128.8,46.1,135.5,41.9,135.5,36.7z"/>
	</g>
	<path class="st15" d="M69.2,32.7l3.5-3.5l3.5,3.5c2,2,2,5.1,0,7.1v0c-2,2-5.1,2-7.1,0l0,0C67.3,37.8,67.3,34.6,69.2,32.7z"/>
	<path class="st15" d="M74.3,45.8l2.5-2.5l2.5,2.5c1.4,1.4,1.4,3.6,0,4.9l0,0c-1.4,1.4-3.6,1.4-4.9,0l0,0
		C72.9,49.4,72.9,47.1,74.3,45.8z"/>
	<path class="st16" d="M74.1,35.2c0,0,1.1,1.2,0,2.5"/>
	<path class="st16" d="M78.6,48.4"/>
	<ellipse transform="matrix(0.3344 -0.9424 0.9424 0.3344 6.2609 105.7284)" class="st17" cx="78" cy="48.4" rx="0.9" ry="0.6"/>
</g>
</svg>
