<?xml version="1.0" encoding="utf-8"?>
<!-- Generator: Adobe Illustrator 25.1.0, SVG Export Plug-In . SVG Version: 6.00 Build 0)  -->
<svg version="1.1" id="Lag_1" xmlns="http://www.w3.org/2000/svg" xmlns:xlink="http://www.w3.org/1999/xlink" x="0px" y="0px"
	 viewBox="0 0 113 106" style="enable-background:new 0 0 113 106;" xml:space="preserve">
<style type="text/css">
	.st0{fill:#C4A474;}
	.st1{fill:#DBB675;}
	.st2{fill:none;stroke:#110B09;stroke-width:3;stroke-miterlimit:10;}
	.st3{fill:#E0CDB8;}
	.st4{fill:#D3BEA5;}
	.st5{fill:#C1AD91;}
	.st6{fill:#F7E7CD;}
</style>
<g>
	<g>
		<polygon class="st0" points="62.6,38.1 105,38.1 105,68.4 62.6,68.4 62.6,89.6 14.4,53.3 62.6,16.9 		"/>
		<path class="st0" d="M61.6,87.6L40.7,71.8L16,53.2l24.7-18.5l20.9-15.8v13.3v6.9h6.9H104v28.3H68.5h-6.9v6.9V87.6 M63.6,91.6v-3.9
			V74.3v-4.9h4.9H104h2v-2V39.1v-2h-2H68.5h-4.9v-4.9V18.8v-3.9l-3.1,2.4l-21,15.8L14.8,51.7l-2.1,1.6l2.1,1.6l24.7,18.5l20.9,15.8
			L63.6,91.6L63.6,91.6z"/>
	</g>
	<path class="st1" d="M62.6,89.6l-22.5-17L14.4,53.2l25.7-19.3l22.5-17v15.3v5.9h5.9H105v30.3H68.5h-5.9v5.9V89.6 M68.5,101.4V74.2
		h42.4v-42H68.5V5l-32,24.2L4.6,53.3l31.9,24L68.5,101.4L68.5,101.4z"/>
	<polygon class="st2" points="36.5,77.3 68.5,101.4 68.5,74.3 110.9,74.3 110.9,32.2 68.5,32.2 68.5,5.1 36.5,29.2 4.6,53.3 	"/>
	<polygon class="st3" points="42.4,69.5 58.7,81.7 58.7,74.3 58.7,67.4 58.7,64.4 61.6,64.4 68.5,64.4 101.1,64.4 101.1,42.1 
		68.5,42.1 61.6,42.1 58.7,42.1 58.7,39.1 58.7,32.2 58.7,24.8 42.4,37 20.9,53.3 	"/>
	<path class="st4" d="M51.8,67.9L46.6,64L32.3,53.2l14.3-10.7l5.2-3.9v0.5V42v6.9h6.9h2.9h6.9h25.7v8.6H68.5h-6.9h-2.9h-6.9v6.9v3
		L51.8,67.9 M58.7,81.7v-7.5v-6.8v-3h2.9h6.9h32.6V42H68.5h-6.9h-2.9v-2.9v-6.9v-7.5L42.5,36.9L21,53.1l21.4,16.4L58.7,81.7
		L58.7,81.7z"/>
	<path class="st5" d="M54.7,73.8l-9.9-7.5L27.4,53.2l17.4-13.1l9.9-7.5v6.5V42v3.9h3.9h2.9h7h28.7v14.6H68.5h-6.9h-2.9h-3.9v3.9v3
		L54.7,73.8 M58.7,81.7v-7.5v-6.8v-3h2.9h6.9h32.6V42H68.5h-6.9h-2.9v-2.9v-6.9v-7.5L42.5,36.9L21,53.1l21.4,16.4L58.7,81.7
		L58.7,81.7z"/>
	<polygon class="st2" points="42.4,69.5 58.7,81.7 58.7,74.3 58.7,67.4 58.7,64.4 61.6,64.4 68.5,64.4 101.1,64.4 101.1,42.1 
		68.5,42.1 61.6,42.1 58.7,42.1 58.7,39.1 58.7,32.2 58.7,24.8 42.4,37 20.9,53.3 	"/>
	<g>
		<path class="st6" d="M71.1,70.1h6.1c0.5,0,0.9,0.4,0.9,0.9s-0.4,0.9-0.9,0.9h-6.1c-0.5,0-0.9-0.4-0.9-0.9
			C70.2,70.5,70.6,70.1,71.1,70.1z"/>
	</g>
	<g>
		<path class="st6" d="M86.5,70.1h10.7c0.5,0,0.9,0.4,0.9,0.9s-0.4,0.9-0.9,0.9H86.5c-0.5,0-0.9-0.4-0.9-0.9
			C85.5,70.5,85.9,70.1,86.5,70.1z"/>
	</g>
</g>
</svg>
