<?xml version="1.0" encoding="utf-8"?>
<!-- Generator: Adobe Illustrator 27.0.0, SVG Export Plug-In . SVG Version: 6.00 Build 0)  -->
<svg version="1.1" id="Lag_1" xmlns="http://www.w3.org/2000/svg" xmlns:xlink="http://www.w3.org/1999/xlink" x="0px" y="0px"
	 viewBox="0 0 93 93" style="enable-background:new 0 0 93 93;" xml:space="preserve">
<style type="text/css">
	.st0{fill:#C4A474;}
	.st1{fill:#DBB675;}
	.st2{fill:#110B09;}
	.st3{fill:#E0CDB8;}
	.st4{fill:#D3BEA5;}
	.st5{fill:#C1AD91;}
	.st6{fill:#F7E7CD;}
</style>
<g>
	<g>
		<g>
			<g>
				<polygon class="st0" points="29.6,7.5 3.9,3.9 7.5,29.5 13.9,23.1 26.8,36 36,26.8 23.1,13.9 				"/>
			</g>
			<g>
				<path class="st0" d="M7.8,28.6L6.3,17.5L4.4,4.3l13.1,1.9l11.1,1.5l-4,4l-2.1,2.1l2.1,2.1l10.8,10.8l-8.6,8.6L16,24.6l-2.1-2.1
					l-2.1,2.1L7.8,28.6 M7.2,30.4l1.2-1.2l4.1-4.1l1.5-1.5l1.5,1.5L26.2,36l0.6,0.6l0.6-0.6l8.6-8.6l0.6-0.6L36,26.2L25.2,15.4
					l-1.5-1.5l1.5-1.5l4.1-4.1l1.2-1.2l-1.7-0.2L17.6,5.4L4.5,3.5L3.4,3.4l0.2,1.1l1.9,13.1L7,28.7L7.2,30.4L7.2,30.4z"/>
			</g>
		</g>
		<g>
			<path class="st1" d="M7.5,29.5l-1.7-12L3.9,3.9l13.7,1.9l12,1.7l-4.6,4.6l-1.8,1.8l1.8,1.8L36,26.8L26.8,36L15.7,24.9l-1.8-1.8
				l-1.8,1.8L7.5,29.5 M5.7,34.9l8.3-8.3l12.9,12.9l12.7-12.7L26.7,13.9L35,5.6L17.9,3.3l-17-2.4l2.4,17L5.7,34.9L5.7,34.9z"/>
		</g>
		<g>
			<path class="st2" d="M5.2,36.3L0.2,0.2L18,2.6l18.3,2.6l-8.7,8.7l12.9,12.9L26.8,40.5L13.9,27.6L5.2,36.3z M1.7,1.7l4.5,31.9
				l7.8-7.8l12.9,12.9l11.9-11.9L25.8,13.9l7.8-7.8L17.8,3.9L1.7,1.7z"/>
		</g>
		<g>
			<polygon class="st3" points="5.9,5.9 17.3,7.4 26,8.7 23.7,10.9 21.6,13 20.7,13.9 21.6,14.8 23.7,16.9 33.6,26.8 26.8,33.6 
				16.9,23.7 14.8,21.6 14,20.7 13.1,21.6 11,23.7 8.7,25.9 7.5,17.3 			"/>
		</g>
		<g>
			<path class="st4" d="M10.8,19.7l-0.4-2.8L9.3,9.3l7.6,1.1l2.8,0.4l-0.2,0.2l-0.9,0.9l-2.1,2.1l2.1,2.1l0.9,0.9l2.1,2.1l7.8,7.8
				l-2.6,2.6L19,21.6l-2.1-2.1l-0.9-0.9L14,16.5l-2.1,2.1L11,19.5L10.8,19.7 M8.7,25.9l2.3-2.3l2.1-2.1l0.9-0.9l0.9,0.9l2.1,2.1
				l9.9,9.9l6.8-6.8l-9.9-9.9l-2.1-2.1l-0.9-0.9l0.9-0.9l2.1-2.1L26,8.6l-8.6-1.2L5.9,5.8l1.5,11.5L8.7,25.9L8.7,25.9z"/>
		</g>
		<g>
			<path class="st5" d="M9.9,22.3l-0.7-5.3L7.9,7.8l9.3,1.3l5.3,0.7l-2,2l-0.9,0.9l-1.2,1.2l1.2,1.2l0.9,0.9l2.1,2.1l8.7,8.7
				l-4.4,4.4l-8.7-8.7L16,20.4l-0.9-0.9L14,18.3l-1.2,1.2l-0.9,0.9L9.9,22.3 M8.7,25.9l2.3-2.3l2.1-2.1l0.9-0.9l0.9,0.9l2.1,2.1
				l9.9,9.9l6.8-6.8l-9.9-9.9l-2.1-2.1l-0.9-0.9l0.9-0.9l2.1-2.1L26,8.6l-8.6-1.2L5.9,5.8l1.5,11.5L8.7,25.9L8.7,25.9z"/>
		</g>
		<g>
			<path class="st2" d="M8.3,27.3l-1.4-9.9L5.1,5.1l12.3,1.7l9.9,1.4l-5.7,5.7l12.9,12.9l-7.7,7.7L14,21.6L8.3,27.3z M8.1,17.2
				l1.1,7.4l4.8-4.8l12.9,12.9l5.9-5.9L19.8,13.9l4.8-4.8l-7.4-1.1L6.6,6.6L8.1,17.2z"/>
		</g>
		<g>
			<g>
				<path class="st6" d="M15.4,26.2c-0.2,0.2-0.2,0.4,0,0.5l1.9,1.9c0.2,0.2,0.4,0.2,0.5,0c0.2-0.2,0.2-0.4,0-0.5L16,26.2
					C15.8,26,15.6,26,15.4,26.2z"/>
			</g>
		</g>
		<g>
			<g>
				<path class="st6" d="M20.1,30.9c-0.2,0.2-0.2,0.4,0,0.5l3.2,3.2c0.2,0.2,0.4,0.2,0.5,0c0.2-0.2,0.2-0.4,0-0.5l-3.2-3.2
					C20.5,30.7,20.2,30.7,20.1,30.9z"/>
			</g>
		</g>
	</g>
	<g>
		<g>
			<g>
				<polygon class="st0" points="85.5,63.4 89.1,89.1 63.5,85.5 69.9,79.1 57,66.2 66.2,57 79.1,69.9 				"/>
			</g>
			<g>
				<path class="st0" d="M64.4,85.2l4-4l2.1-2.1L68.4,77L57.6,66.2l8.6-8.6L77,68.4l2.1,2.1l2.1-2.1l4-4l1.5,11.1l1.9,13.1
					l-13.1-1.9L64.4,85.2 M62.6,85.8l1.7,0.2l11.1,1.5l13.1,1.9l1.1,0.2l-0.2-1.1l-1.9-13.1l-1.6-11.2l-0.2-1.7l-1.2,1.2l-4.1,4.1
					l-1.5,1.5l-1.5-1.5L66.8,57l-0.6-0.6L65.6,57L57,65.6l-0.6,0.6l0.6,0.6l10.8,10.8l1.5,1.5l-1.5,1.5l-4.1,4.1L62.6,85.8
					L62.6,85.8z"/>
			</g>
		</g>
		<g>
			<path class="st1" d="M63.5,85.5l4.6-4.6l1.8-1.8l-1.8-1.8L57,66.2l9.2-9.2l11.1,11.1l1.8,1.8l1.8-1.8l4.6-4.6l1.7,12l1.9,13.7
				l-13.7-1.9L63.5,85.5 M58.1,87.3l17,2.4l17,2.4l-2.4-17L87.4,58l-8.3,8.3L66.2,53.4L53.5,66.2L66.4,79L58.1,87.3L58.1,87.3z"/>
		</g>
		<g>
			<path class="st2" d="M65.4,79.1L52.5,66.2l13.7-13.7l12.9,12.9l8.7-8.7L90.4,75l2.5,17.8l-36.1-5.1L65.4,79.1z M89.1,75.2
				l-2.2-15.7l-7.8,7.8L66.2,54.3L54.4,66.2l12.9,12.9l-7.8,7.8l31.9,4.5L89.1,75.2z"/>
		</g>
		<g>
			<polygon class="st3" points="87.1,87.1 85.6,75.7 84.3,67 82.1,69.3 80,71.4 79.1,72.3 78.2,71.4 76.1,69.3 66.2,59.4 59.4,66.2 
				69.3,76.1 71.4,78.2 72.3,79 71.4,79.9 69.3,82 67.1,84.3 75.7,85.5 			"/>
		</g>
		<g>
			<path class="st4" d="M73.3,82.2l0.2-0.2l0.9-0.9l2.1-2.1l-2.1-2.1l-0.9-0.9L71.4,74l-7.8-7.8l2.6-2.6l7.8,7.8l2.1,2.1l0.9,0.9
				l2.1,2.1l2.1-2.1l0.9-0.9l0.2-0.2l0.4,2.8l1.1,7.6l-7.6-1.1L73.3,82.2 M67.1,84.3l8.6,1.2l11.5,1.5l-1.6-11.4L84.4,67l-2.3,2.3
				L80,71.4l-0.9,0.9l-0.9-0.9l-2.1-2.1l-9.9-9.9l-6.8,6.8l9.9,9.9l2.1,2.1l0.9,0.9l-0.9,0.9L69.3,82L67.1,84.3L67.1,84.3z"/>
		</g>
		<g>
			<path class="st5" d="M70.7,83.1l1.9-2l0.9-0.9l1.2-1.2l-1.2-1.2L72.6,77l-2.1-2.1l-8.7-8.7l4.4-4.4l8.7,8.7l2.1,2.1l0.9,0.9
				l1.2,1.2l1.2-1.2l0.9-0.9l2-2l0.7,5.3l1.3,9.3l-9.3-1.3L70.7,83.1 M67.1,84.3l8.6,1.2l11.5,1.5l-1.6-11.4L84.4,67l-2.3,2.3
				L80,71.4l-0.9,0.9l-0.9-0.9l-2.1-2.1l-9.9-9.9l-6.8,6.8l9.9,9.9l2.1,2.1l0.9,0.9l-0.9,0.9L69.3,82L67.1,84.3L67.1,84.3z"/>
		</g>
		<g>
			<path class="st2" d="M71.4,79L58.5,66.2l7.7-7.7l12.9,12.9l5.7-5.7l1.4,9.9l1.7,12.3l-12.3-1.7l-9.9-1.4L71.4,79z M86.4,86.4
				l-1.5-10.6l-1.1-7.4l-4.8,4.8L66.2,60.3l-5.9,5.9L73.2,79l-4.8,4.8l7.4,1.1L86.4,86.4z"/>
		</g>
		<g>
			<g>
				<path class="st6" d="M66.8,77.6c-0.2,0.2-0.4,0.2-0.5,0l-1.9-1.9c-0.2-0.2-0.2-0.4,0-0.5s0.4-0.2,0.5,0l1.9,1.9
					C67,77.2,67,77.4,66.8,77.6z"/>
			</g>
		</g>
		<g>
			<g>
				<path class="st6" d="M62.1,72.9c-0.2,0.2-0.4,0.2-0.5,0l-3.2-3.2c-0.2-0.2-0.2-0.4,0-0.5s0.4-0.2,0.5,0l3.2,3.2
					C62.3,72.5,62.3,72.8,62.1,72.9z"/>
			</g>
		</g>
	</g>
	<g>
		<g>
			<g>
				<polygon class="st0" points="7.5,63.4 3.9,89.1 29.6,85.5 23.1,79.1 36,66.2 26.8,57 13.9,69.9 				"/>
			</g>
			<g>
				<path class="st0" d="M28.6,85.2l-11.1,1.5L4.4,88.6l1.9-13.1l1.5-11.1l4,4l2.1,2.1l2.1-2.1l10.8-10.8l8.6,8.6L24.6,77l-2.1,2.1
					l2.1,2.1L28.6,85.2 M30.5,85.8l-1.2-1.2l-4.1-4.1l-1.5-1.5l1.5-1.5L36,66.8l0.6-0.6L36,65.6L27.4,57l-0.6-0.6L26.2,57L15.4,67.8
					l-1.5,1.5l-1.5-1.5l-4.1-4.1l-1.2-1.2L7,64.2L5.4,75.4L3.6,88.5l-0.2,1.1l1.1-0.2l13.1-1.9L28.8,86L30.5,85.8L30.5,85.8z"/>
			</g>
		</g>
		<g>
			<path class="st1" d="M29.6,85.5l-12,1.7L3.9,89.1l1.9-13.7l1.7-12l4.6,4.6l1.8,1.8l1.8-1.8L26.8,57l9.2,9.2L24.9,77.3l-1.8,1.8
				l1.8,1.8L29.6,85.5 M34.9,87.3L26.7,79l12.9-12.9L26.8,53.4L13.9,66.3L5.7,58L3.3,75.1l-2.4,17l17-2.4L34.9,87.3L34.9,87.3z"/>
		</g>
		<g>
			<path class="st2" d="M36.3,87.8L0.2,92.8L2.7,75l2.6-18.3l8.7,8.7l12.9-12.9l13.7,13.7L27.6,79.1L36.3,87.8z M1.7,91.3l31.9-4.5
				l-7.8-7.8l12.9-12.9L26.8,54.3L13.9,67.2l-7.8-7.8L3.9,75.2L1.7,91.3z"/>
		</g>
		<g>
			<polygon class="st3" points="5.9,87.1 7.5,75.7 8.7,67 11,69.3 13.1,71.4 14,72.3 14.8,71.4 16.9,69.3 26.8,59.4 33.6,66.2 
				23.7,76.1 21.6,78.2 20.7,79 21.6,79.9 23.7,82 26,84.3 17.3,85.5 			"/>
		</g>
		<g>
			<path class="st4" d="M19.7,82.2l-2.8,0.4l-7.6,1.1l1.1-7.6l0.4-2.8l0.2,0.2l0.9,0.9l2.1,2.1l2.1-2.1l0.9-0.9l2.1-2.1l7.8-7.8
				l2.6,2.6L21.6,74l-2.1,2.1l-0.9,0.9L16.5,79l2.1,2.1l0.9,0.9L19.7,82.2 M26,84.3L23.7,82l-2.1-2.1L20.7,79l0.9-0.9l2.1-2.1
				l9.9-9.9l-6.8-6.8l-9.9,9.9l-2.1,2.1l-0.9,0.9l-0.9-0.9L11,69.3L8.7,67l-1.2,8.6L5.9,87.1l11.5-1.5L26,84.3L26,84.3z"/>
		</g>
		<g>
			<path class="st5" d="M22.4,83.1l-5.3,0.7l-9.3,1.3l1.3-9.3l0.7-5.3l2,2l0.9,0.9l1.2,1.2l1.2-1.2l0.9-0.9l2.1-2.1l8.7-8.7l4.4,4.4
				l-8.7,8.7L20.4,77l-0.9,0.9L18.4,79l1.2,1.2l0.9,0.9L22.4,83.1 M26,84.3L23.7,82l-2.1-2.1L20.7,79l0.9-0.9l2.1-2.1l9.9-9.9
				l-6.8-6.8l-9.9,9.9l-2.1,2.1l-0.9,0.9l-0.9-0.9L11,69.3L8.7,67l-1.2,8.6L5.9,87.1l11.5-1.5L26,84.3L26,84.3z"/>
		</g>
		<g>
			<path class="st2" d="M27.3,84.7l-9.9,1.4L5.1,87.9l1.7-12.3l1.4-9.9l5.7,5.7l12.9-12.9l7.7,7.7L21.6,79L27.3,84.7z M17.2,84.9
				l7.4-1.1L19.8,79l12.9-12.9l-5.9-5.9L14,73.2l-4.8-4.8l-1.1,7.4L6.6,86.4L17.2,84.9z"/>
		</g>
		<g>
			<g>
				<path class="st6" d="M26.2,77.6c0.2,0.2,0.4,0.2,0.5,0l1.9-1.9c0.2-0.2,0.2-0.4,0-0.5s-0.4-0.2-0.5,0L26.2,77
					C26.1,77.2,26.1,77.4,26.2,77.6z"/>
			</g>
		</g>
		<g>
			<g>
				<path class="st6" d="M30.9,72.9c0.2,0.2,0.4,0.2,0.5,0l3.2-3.2c0.2-0.2,0.2-0.4,0-0.5s-0.4-0.2-0.5,0l-3.2,3.2
					C30.7,72.5,30.7,72.8,30.9,72.9z"/>
			</g>
		</g>
	</g>
	<g>
		<g>
			<g>
				<polygon class="st0" points="62.8,8.2 88.4,4.6 84.8,30.2 78.4,23.8 65.5,36.7 56.3,27.5 69.2,14.6 				"/>
			</g>
			<g>
				<path class="st0" d="M84.5,29.3l-4-4l-2.1-2.1l-2.1,2.1L65.5,36.1l-8.6-8.6l10.8-10.8l2.1-2.1l-2.1-2.1l-4-4l11.1-1.5L87.9,5
					l-1.9,13.1L84.5,29.3 M85.1,31.1l0.2-1.7l1.5-11.1l1.9-13.1L89,4.1l-1.1,0.2L74.7,6.1L63.5,7.7l-1.7,0.2L63,9.1l4.1,4.1l1.5,1.5
					l-1.5,1.5L56.3,26.9l-0.6,0.6l0.6,0.6l8.6,8.6l0.6,0.6l0.6-0.6l10.8-10.8l1.5-1.5l1.5,1.5l4.1,4.1L85.1,31.1L85.1,31.1z"/>
			</g>
		</g>
		<g>
			<path class="st1" d="M84.8,30.2l-4.6-4.6l-1.8-1.8l-1.8,1.8L65.5,36.7l-9.2-9.2l11.1-11.1l1.8-1.8l-1.8-1.8l-4.6-4.6l12-1.7
				l13.7-1.9l-1.9,13.7L84.8,30.2 M86.6,35.6l2.4-17l2.4-17L74.4,4L57.4,6.4l8.3,8.3L52.8,27.5l12.7,12.7l12.9-12.9L86.6,35.6
				L86.6,35.6z"/>
		</g>
		<g>
			<path class="st2" d="M78.4,28.3L65.5,41.2L51.8,27.5l12.9-12.9L56,5.9l18.3-2.6l17.8-2.5L87.1,37L78.4,28.3z M74.5,4.6L58.8,6.8
				l7.8,7.8L53.7,27.5l11.9,11.9l12.9-12.9l7.8,7.8l4.5-31.9L74.5,4.6z"/>
		</g>
		<g>
			<polygon class="st3" points="86.5,6.6 75,8.1 66.3,9.4 68.6,11.6 70.7,13.7 71.6,14.6 70.7,15.5 68.6,17.6 58.7,27.5 65.5,34.3 
				75.4,24.4 77.5,22.3 78.4,21.4 79.3,22.3 81.4,24.4 83.6,26.7 84.9,18 			"/>
		</g>
		<g>
			<path class="st4" d="M81.5,20.4l-0.2-0.2l-0.9-0.9l-2.1-2.1l-2.1,2.1l-0.9,0.9l-2.1,2.1l-7.8,7.8l-2.6-2.6l7.8-7.8l2.1-2.1
				l0.9-0.9l2.1-2.1l-2.1-2.1l-0.9-0.9l-0.2-0.2l2.8-0.4L83,10l-1.1,7.6L81.5,20.4 M83.6,26.7l1.2-8.6l1.5-11.5L74.9,8.1l-8.6,1.2
				l2.3,2.3l2.1,2.1l0.9,0.9l-0.9,0.9l-2.1,2.1l-9.9,9.9l6.8,6.8l9.9-9.9l2.1-2.1l0.9-0.9l0.9,0.9l2.1,2.1L83.6,26.7L83.6,26.7z"/>
		</g>
		<g>
			<path class="st5" d="M82.4,23l-2-1.9l-0.9-0.9L78.4,19l-1.2,1.2l-0.9,0.9l-2.1,2.1l-8.7,8.7l-4.4-4.4l8.7-8.7l2.1-2.1l0.9-0.9
				l1.2-1.2l-1.2-1.2l-0.9-0.9l-2-2l5.3-0.7l9.3-1.3l-1.3,9.3L82.4,23 M83.6,26.7l1.2-8.6l1.5-11.5L74.9,8.1l-8.6,1.2l2.3,2.3
				l2.1,2.1l0.9,0.9l-0.9,0.9l-2.1,2.1l-9.9,9.9l6.8,6.8l9.9-9.9l2.1-2.1l0.9-0.9l0.9,0.9l2.1,2.1L83.6,26.7L83.6,26.7z"/>
		</g>
		<g>
			<path class="st2" d="M78.4,22.3L65.5,35.2l-7.7-7.7l12.9-12.9L65,8.9l9.9-1.4l12.3-1.7l-1.7,12.3L84.1,28L78.4,22.3z M85.7,7.3
				L75.1,8.8l-7.4,1.1l4.8,4.8L59.6,27.5l5.9,5.9l12.9-12.9l4.8,4.8l1.1-7.4L85.7,7.3z"/>
		</g>
		<g>
			<g>
				<path class="st6" d="M76.9,26.9c0.2,0.2,0.2,0.4,0,0.5L75,29.3c-0.2,0.2-0.4,0.2-0.5,0c-0.2-0.2-0.2-0.4,0-0.5l1.9-1.9
					C76.5,26.7,76.7,26.7,76.9,26.9z"/>
			</g>
		</g>
		<g>
			<g>
				<path class="st6" d="M72.2,31.6c0.2,0.2,0.2,0.4,0,0.5L69,35.4c-0.2,0.2-0.4,0.2-0.5,0s-0.2-0.4,0-0.5l3.2-3.2
					C71.8,31.4,72.1,31.4,72.2,31.6z"/>
			</g>
		</g>
	</g>
</g>
</svg>
