<?xml version="1.0" encoding="utf-8"?>
<!-- Generator: Adobe Illustrator 25.4.1, SVG Export Plug-In . SVG Version: 6.00 Build 0)  -->
<svg version="1.1" id="Lag_1" xmlns="http://www.w3.org/2000/svg" xmlns:xlink="http://www.w3.org/1999/xlink" x="0px" y="0px"
	 viewBox="0 0 124 174" style="enable-background:new 0 0 124 174;" xml:space="preserve">
<style type="text/css">
	.st0{fill:#664536;}
	.st1{fill:#110B09;}
	.st2{fill:#DBC2B9;}
	.st3{fill:#473129;}
	.st4{fill:#D6B78A;}
	.st5{fill:#E5C9A3;}
	.st6{fill:#EDD7BC;}
	.st7{clip-path:url(#SVGID_00000004540934119531888020000017830137299298269085_);}
	.st8{fill:#C5BDBA;}
	.st9{fill:#A89B95;}
	.st10{fill:#BFADAA;}
	.st11{fill:#D3CCC9;}
	.st12{fill:#CBC8DB;}
	.st13{fill:#EEEDF4;}
	.st14{fill:#E8E8ED;}
	.st15{fill:#AF8D84;}
	.st16{fill:#D4CAC8;}
	.st17{fill:#846D6A;}
	.st18{fill:#BFBBBA;}
	.st19{fill:#E0D8D7;}
	.st20{fill:#C9C2C1;}
	.st21{fill:#DD7957;}
	.st22{fill:#FFFFFF;}
	.st23{fill:#CC6B4A;}
	.st24{fill:#B76451;}
	.st25{fill:#E5D8D2;}
	.st26{fill:#E0DBDA;}
	.st27{fill:#895C3B;}
	.st28{fill:#C68A5D;}
	.st29{fill:#493328;}
	.st30{fill:#B28B6B;}
	.st31{fill:#A36B4D;}
	.st32{fill:#35251E;}
	.st33{opacity:0.44;}
</style>
<g>
	<g>
		
			<ellipse transform="matrix(0.1967 -0.9805 0.9805 0.1967 -75.9439 163.9118)" class="st0" cx="62.1" cy="128.3" rx="42.5" ry="59.9"/>
		<path class="st1" d="M70,172.2c-5.3,0-10.8-0.5-16.4-1.7C20.8,164-2,139.7,2.7,116.4S37.8,79.5,70.5,86
			c32.7,6.6,55.6,30.9,50.9,54.2C117.6,159.6,95.9,172.2,70,172.2z M54.1,85.6c-25.4,0-46.4,12.3-50.2,31
			c-4.5,22.6,17.9,46.3,49.9,52.7c32.1,6.4,61.9-6.7,66.4-29.4l0.6,0.1l-0.6-0.1c4.5-22.6-17.9-46.3-49.9-52.7
			C64.8,86.1,59.4,85.6,54.1,85.6z"/>
	</g>
	<g>
		<path class="st2" d="M111,114.8c-0.2,0-0.4-0.1-0.5-0.3c-1.2-1.7-2.5-3.4-4-5c-0.2-0.3-0.2-0.6,0-0.9c0.3-0.2,0.6-0.2,0.9,0
			c1.5,1.6,2.9,3.4,4.1,5.1c0.2,0.3,0.1,0.7-0.2,0.9C111.3,114.8,111.2,114.8,111,114.8z"/>
	</g>
	<g>
		<path class="st2" d="M103.7,106.4c-0.1,0-0.3-0.1-0.4-0.2c-3.5-3.2-7.4-6-11.8-8.5c-0.3-0.2-0.4-0.5-0.2-0.8
			c0.2-0.3,0.5-0.4,0.8-0.2c4.5,2.5,8.6,5.4,12.1,8.6c0.3,0.2,0.3,0.6,0,0.9C104,106.3,103.8,106.4,103.7,106.4z"/>
	</g>
	<g>
		<path class="st2" d="M83.6,94c-0.1,0-0.2,0-0.2,0c-2.9-1.2-5.9-2.2-9-3c-0.3-0.1-0.5-0.4-0.4-0.8c0.1-0.3,0.4-0.5,0.8-0.4
			c3.1,0.8,6.2,1.8,9.1,3c0.3,0.1,0.5,0.5,0.3,0.8C84.1,93.9,83.8,94,83.6,94z"/>
	</g>
	<g>
		
			<ellipse transform="matrix(0.1967 -0.9805 0.9805 0.1967 -75.9439 163.9118)" class="st3" cx="62.1" cy="128.3" rx="38" ry="53.6"/>
	</g>
	<g>
		
			<ellipse transform="matrix(0.1967 -0.9805 0.9805 0.1967 -75.9439 163.9118)" class="st4" cx="62.1" cy="128.3" rx="35.5" ry="50.1"/>
		<path class="st1" d="M68.7,165.1c-4.5,0-9.1-0.4-13.7-1.4c-13.2-2.7-25-8.8-33-17.3c-8.1-8.6-11.5-18.5-9.6-28
			c3.9-19.5,29.4-30.9,56.8-25.4c27.4,5.5,46.5,25.8,42.6,45.4C108.5,154.5,90.4,165.1,68.7,165.1z M55.4,92.8
			c-21.1,0-38.7,10.2-41.8,25.8c-1.8,9.1,1.5,18.7,9.3,26.9c7.9,8.3,19.3,14.4,32.3,17c26.7,5.4,51.6-5.6,55.3-24.5l0.6,0.1
			l-0.6-0.1c3.8-18.8-14.9-38.5-41.6-43.9C64.3,93.2,59.8,92.8,55.4,92.8z"/>
	</g>
	<g>
		
			<ellipse transform="matrix(0.1967 -0.9805 0.9805 0.1967 -75.9439 163.9118)" class="st5" cx="62.1" cy="128.3" rx="31" ry="43.8"/>
	</g>
	<g>
		
			<ellipse transform="matrix(0.1967 -0.9805 0.9805 0.1967 -75.9439 163.9118)" class="st6" cx="62.1" cy="128.3" rx="25.8" ry="36.4"/>
	</g>
	<g>
		<defs>
			<path id="SVGID_1_" d="M110.9,121.7V-8.2H19.6l-1.2,112.1c-3.3,3.7-5.5,8-6.5,12.8c-3.9,19.6,15.3,40,43,45.6
				c27.7,5.6,53.3-5.9,57.3-25.5C113.2,131.7,112.7,126.6,110.9,121.7z"/>
		</defs>
		<clipPath id="SVGID_00000021831739075556691830000010184512335935069880_">
			<use xlink:href="#SVGID_1_"  style="overflow:visible;"/>
		</clipPath>
		<g style="clip-path:url(#SVGID_00000021831739075556691830000010184512335935069880_);">
			<g>
				<g>
					<g>
						<rect x="48.1" y="55.9" class="st8" width="33.3" height="71.5"/>
						<path class="st1" d="M82,128.1H47.4V55.3H82V128.1z M48.7,126.9h32.1V56.5H48.7V126.9z"/>
					</g>
					<g>
						<path class="st9" d="M64.6,127.5H48.1V55.9h33.3v4.6c0,0-15.4-3.1-18.1,12.8l0.3,8.6c-0.3,6.8-0.3,13.7,0,20.5L64.6,127.5z"/>
					</g>
					<g>
						<path class="st1" d="M82,128.1H47.4V55.3H82V128.1z M48.7,126.9h32.1V56.5H48.7V126.9z"/>
					</g>
					<g>
						<rect x="54.6" y="110.8" class="st10" width="7.2" height="3"/>
						<path class="st1" d="M62.5,114.4H54v-4.3h8.5V114.4z M55.3,113.2h6v-1.8h-6V113.2z"/>
					</g>
					<g>
						<rect x="70.5" y="121.3" class="st11" width="7.2" height="3"/>
						<path class="st1" d="M78.3,125h-8.5v-4.3h8.5V125z M71.1,123.7h6v-1.8h-6V123.7z"/>
					</g>
					<g>
						<rect x="68" y="102" class="st11" width="7.2" height="3"/>
						<path class="st1" d="M75.9,105.6h-8.5v-4.3h8.5V105.6z M68.6,104.4h6v-1.8h-6V104.4z"/>
					</g>
					<g>
						<rect x="49.9" y="121.7" class="st10" width="7.2" height="3"/>
						<path class="st1" d="M57.7,125.3h-8.5V121h8.5V125.3z M50.5,124.1h6v-1.8h-6V124.1z"/>
					</g>
				</g>
				<g>
					<g>
						<path class="st12" d="M76.4,96.2h-7v-9c0-1,0.5-2,1.2-2.7l0,0c0.6-0.5,2.2-1.9,2.2-1.9s1.6,1.3,2.2,1.8l0,0
							c0.8,0.7,1.3,1.6,1.3,2.7V96.2z"/>
						<path class="st1" d="M77,96.8h-8.2v-9.6c0-1.2,0.5-2.4,1.5-3.1c0.6-0.5,2.2-1.9,2.2-1.9l0.4-0.3l0.4,0.3c0,0,1.6,1.3,2.2,1.8
							c1,0.8,1.5,2,1.5,3.2V96.8z M70.1,95.6h5.7v-8.4c0-0.9-0.4-1.7-1-2.2c-0.5-0.4-1.3-1.1-1.9-1.5c-0.5,0.4-1.4,1.2-1.8,1.5
							c-0.6,0.5-1,1.3-1,2.2V95.6z"/>
					</g>
					<g>
						<polygon class="st13" points="75.7,85.1 76.2,86 76.4,87.2 69.4,95.2 						"/>
					</g>
					<g>
						<polygon class="st13" points="74.1,83.7 74.7,84.2 69.5,89.4 						"/>
					</g>
					<g>
						<polygon class="st13" points="76.4,93 73.4,96.2 76.4,93.6 						"/>
					</g>
					<g>
						<path class="st1" d="M77,96.8h-8.2v-9.6c0-1.2,0.5-2.4,1.5-3.1c0.6-0.5,2.2-1.9,2.2-1.9l0.4-0.3l0.4,0.3c0,0,1.6,1.3,2.2,1.8
							c1,0.8,1.5,2,1.5,3.2V96.8z M70.1,95.6h5.7v-8.4c0-0.9-0.4-1.7-1-2.2c-0.5-0.4-1.3-1.1-1.9-1.5c-0.5,0.4-1.4,1.2-1.8,1.5
							c-0.6,0.5-1,1.3-1,2.2V95.6z"/>
					</g>
					<g>
						<line class="st12" x1="72.9" y1="82.7" x2="72.9" y2="96.2"/>
						<rect x="72.3" y="82.7" class="st1" width="1.2" height="13.5"/>
					</g>
					<g>
						<line class="st12" x1="69.5" y1="92.7" x2="76.4" y2="92.7"/>
						<rect x="69.5" y="92" class="st1" width="7" height="1.2"/>
					</g>
					<g>
						<line class="st12" x1="69.5" y1="88.8" x2="76.4" y2="88.8"/>
						<rect x="69.5" y="88.1" class="st1" width="7" height="1.2"/>
					</g>
				</g>
				<g>
					<g>
						<path class="st12" d="M60.8,96.2h-7v-9c0-1,0.5-2,1.2-2.7v0c0.6-0.5,2.2-1.9,2.2-1.9s1.6,1.3,2.2,1.8l0,0
							c0.8,0.7,1.3,1.6,1.3,2.7V96.2z"/>
						<path class="st1" d="M61.5,96.8h-8.2v-9.6c0-1.2,0.5-2.4,1.5-3.1c0.6-0.5,2.2-1.9,2.2-1.9l0.4-0.3l0.4,0.3
							c0,0,1.6,1.3,2.2,1.8c1,0.8,1.5,2,1.5,3.2V96.8z M54.5,95.6h5.7v-8.4c0-0.9-0.4-1.7-1-2.2c-0.5-0.4-1.3-1.1-1.9-1.5
							c-0.5,0.4-1.4,1.2-1.8,1.5c-0.6,0.5-1,1.3-1,2.2V95.6z"/>
					</g>
					<g>
						<polygon class="st14" points="60.1,85.1 60.6,86 60.8,86.8 53.9,91.7 						"/>
					</g>
					<g>
						<polygon class="st14" points="60.8,91.1 60.8,91.9 53.9,95 						"/>
					</g>
					<g>
						<path class="st1" d="M61.5,96.8h-8.2v-9.6c0-1.2,0.5-2.4,1.5-3.1c0.6-0.5,2.2-1.9,2.2-1.9l0.4-0.3l0.4,0.3
							c0,0,1.6,1.3,2.2,1.8c1,0.8,1.5,2,1.5,3.2V96.8z M54.5,95.6h5.7v-8.4c0-0.9-0.4-1.7-1-2.2c-0.5-0.4-1.3-1.1-1.9-1.5
							c-0.5,0.4-1.4,1.2-1.8,1.5c-0.6,0.5-1,1.3-1,2.2V95.6z"/>
					</g>
					<g>
						<line class="st12" x1="57.3" y1="82.7" x2="57.3" y2="96.2"/>
						<rect x="56.7" y="82.7" class="st1" width="1.2" height="13.5"/>
					</g>
					<g>
						<line class="st12" x1="53.9" y1="92.7" x2="60.8" y2="92.7"/>
						<rect x="53.9" y="92" class="st1" width="7" height="1.2"/>
					</g>
					<g>
						<line class="st12" x1="53.9" y1="88.8" x2="60.8" y2="88.8"/>
						<rect x="53.9" y="88.1" class="st1" width="7" height="1.2"/>
					</g>
				</g>
				<g>
					<g>
						<rect x="62.7" y="70.8" class="st15" width="3.2" height="7.3"/>
					</g>
					<g>
						<rect x="63.1" y="70.1" class="st16" width="3.2" height="7.3"/>
						<path class="st1" d="M66.9,78.1h-4.4v-8.6h4.4V78.1z M63.8,76.8h1.9v-6.1h-1.9V76.8z"/>
					</g>
					<g>
						<rect x="72" y="70.6" class="st15" width="3.2" height="7.3"/>
					</g>
					<g>
						<rect x="72.5" y="70.1" class="st16" width="3.2" height="7.3"/>
						<path class="st1" d="M76.3,78.1h-4.4v-8.6h4.4V78.1z M73.1,76.8H75v-6.1h-1.9V76.8z"/>
					</g>
					<g>
						<rect x="53.3" y="70.5" class="st17" width="3.2" height="7.3"/>
					</g>
					<g>
						<rect x="53.8" y="70.1" class="st16" width="3.2" height="7.3"/>
						<path class="st1" d="M57.5,78h-4.4v-8.6h4.4V78z M54.4,76.8h1.9v-6.1h-1.9V76.8z"/>
					</g>
					<g>
						<path class="st16" d="M79.9,73.4H49.3c-2.2,0-4-1.7-4.3-4l-0.4-3.3h40l-0.4,3.3C83.9,71.7,82.1,73.4,79.9,73.4z"/>
						<path class="st1" d="M79.9,74.1H49.3c-2.5,0-4.6-2-4.9-4.6l-0.5-4h41.4l-0.5,4C84.5,72.1,82.4,74.1,79.9,74.1z M45.3,66.8
							l0.3,2.6c0.2,2,1.8,3.5,3.7,3.5h30.6c1.9,0,3.4-1.5,3.7-3.5l0.3-2.6H45.3z"/>
					</g>
					<g>
						<path class="st18" d="M59.9,73.4H49.3c-2.2,0-4-1.7-4.3-4l-0.4-3.3h15.3l-4.3,2.1c-0.3,0.1-0.6,0.3-0.8,0.6l0,0
							c-0.9,1.2-0.4,3,1.1,3.4L59.9,73.4z"/>
					</g>
					<g>
						<path class="st1" d="M79.9,74.1H49.3c-2.5,0-4.6-2-4.9-4.6l-0.5-4h41.4l-0.5,4C84.5,72.1,82.4,74.1,79.9,74.1z M45.3,66.8
							l0.3,2.6c0.2,2,1.8,3.5,3.7,3.5h30.6c1.9,0,3.4-1.5,3.7-3.5l0.3-2.6H45.3z"/>
					</g>
					<g>
						<g>
							<rect x="43.9" y="65.1" class="st19" width="41.4" height="3.1"/>
							<path class="st1" d="M85.9,68.8H43.2v-4.4h42.6V68.8z M44.5,67.6h40.2v-1.9H44.5V67.6z"/>
						</g>
						<g>
							<polyline class="st20" points="56.3,68.2 43.9,68.2 43.9,65.1 56.3,65.1 							"/>
							<polygon class="st1" points="56.3,68.8 43.2,68.8 43.2,64.4 56.3,64.4 56.3,65.7 44.5,65.7 44.5,67.6 56.3,67.6 							"/>
						</g>
						<g>
							<path class="st1" d="M85.9,68.8H43.2v-4.4h42.6V68.8z M44.5,67.6h40.2v-1.9H44.5V67.6z"/>
						</g>
					</g>
				</g>
				<g>
					<g>
						<path class="st21" d="M64.8,19V2.1l3.4,0.5c4,0.5,8,0.5,12,0l3.4-0.5v12.2l-0.4,0.1c-5.9,1.4-12,1.5-18,0.4l0,0"/>
					</g>
					<g>
						<path class="st22" d="M75,10.9c0.2,0,0.4-0.1,0.5-0.1c0.5-0.1,0.9-0.4,1.1-0.8c0.2-0.5,0.3-1,0.2-1.6
							c-0.1-0.2-0.2-0.4-0.3-0.6c0,0,0-0.1,0-0.1c0.1-0.3,0.1-0.6,0-1c0,0-0.1-0.1-0.1-0.1c-0.2,0-0.4,0.1-0.6,0.1
							c-0.2,0.1-0.3,0.2-0.5,0.2c0,0-0.1,0-0.1,0c-0.7-0.2-1.3-0.2-2,0c0,0-0.1,0-0.1,0c-0.3-0.2-0.5-0.3-0.9-0.4c0,0,0,0,0,0
							c-0.2,0-0.2,0-0.2,0.1c-0.1,0.3-0.1,0.6,0,0.9c0,0,0,0.1,0,0.1c-0.4,0.4-0.4,0.9-0.4,1.5c0,0.2,0.1,0.4,0.1,0.6
							c0.2,0.5,0.6,0.8,1.2,1c0.2,0,0.3,0.1,0.5,0.1c-0.1,0.1-0.2,0.3-0.2,0.5c0,0,0,0-0.1,0.1c-0.4,0.2-0.9,0.1-1.2-0.4
							c-0.1-0.2-0.3-0.4-0.6-0.4c-0.1,0-0.1,0-0.2,0c-0.1,0-0.1,0.1,0,0.1c0,0,0.1,0.1,0.1,0.1c0.2,0.1,0.4,0.3,0.5,0.6
							c0.2,0.4,0.5,0.5,0.8,0.6c0.2,0,0.4,0,0.6,0c0,0.3,0,0.5,0,0.8c0,0.1-0.1,0.2-0.3,0.1c-0.4-0.1-0.7-0.3-1-0.5
							c-1.3-0.9-1.9-2.1-1.8-3.6C70.2,7,71.6,5.4,73.5,5c2.2-0.4,4.3,0.9,4.8,3c0.5,2.1-0.6,4.3-2.7,4.9c-0.2,0.1-0.3,0-0.3-0.2
							c0-0.3,0-0.7,0-1C75.3,11.4,75.2,11.1,75,10.9z"/>
						<path class="st22" d="M72.8,11.6C72.8,11.7,72.8,11.7,72.8,11.6c0.1,0.1,0,0.1,0,0.1C72.7,11.8,72.7,11.7,72.8,11.6
							C72.7,11.7,72.7,11.7,72.8,11.6z"/>
						<path class="st22" d="M72.3,11.5C72.2,11.5,72.2,11.6,72.3,11.5c-0.1,0-0.2,0-0.2,0c0,0,0-0.1,0-0.1
							C72.2,11.4,72.2,11.5,72.3,11.5z"/>
						<path class="st22" d="M72.4,11.6C72.5,11.6,72.5,11.6,72.4,11.6c0.1,0.1,0,0.1,0,0.1C72.4,11.7,72.4,11.7,72.4,11.6
							C72.4,11.6,72.4,11.6,72.4,11.6z"/>
						<path class="st22" d="M73.1,11.6C73.1,11.6,73.2,11.6,73.1,11.6c0,0.1,0,0.1,0,0.1C73.1,11.7,73,11.7,73.1,11.6
							C73,11.6,73.1,11.6,73.1,11.6z"/>
						<path class="st22" d="M72,11.3c0-0.1-0.1-0.1-0.1-0.1c0,0,0,0,0-0.1C72,11.2,72,11.2,72,11.3C72,11.3,72,11.3,72,11.3z"/>
						<path class="st22" d="M71.8,10.9c0,0,0.1,0.1,0.1,0.1c0,0,0,0,0,0C71.8,11.1,71.7,11,71.8,10.9C71.7,11,71.7,11,71.8,10.9z"/>
					</g>
					<g>
						<path class="st1" d="M64.8,19.6c-0.3,0-0.6-0.3-0.6-0.6V1.4l4.1,0.6c3.9,0.5,7.9,0.5,11.8,0l4.1-0.6v13.4l-0.9,0.2
							c-5.9,1.4-11.9,1.5-17.9,0.5V19C65.4,19.3,65.1,19.6,64.8,19.6z M65.4,14.1c5.9,1.1,11.8,0.9,17.6-0.4v-11l-2.7,0.4
							c-4,0.5-8.1,0.5-12.1,0l-2.7-0.4V14.1z"/>
					</g>
				</g>
				<g>
					<g>
						<g>
							<path class="st23" d="M76,33.9L64.8,17.4L53.8,33c-1.9,2.7-3.5,5.5-4.9,8.5l-7.7,16.7L51,59c9.6,0.7,19.2,0.7,28.7-0.1
								l8.6-0.7l-8.4-17.5C78.8,38.4,77.5,36.1,76,33.9z"/>
							<path class="st1" d="M65,60.2c-4.7,0-9.4-0.2-14-0.5l-10.7-0.8l8-17.5c1.4-3,3.1-5.9,5-8.6l11.5-16.3l11.7,17.2v0
								c1.5,2.2,2.8,4.5,4,6.9l8.8,18.3l-9.5,0.8C74.9,60,69.9,60.2,65,60.2z M42.1,57.7l8.9,0.7c9.5,0.7,19.1,0.7,28.6-0.1l7.7-0.6
								l-8-16.7c-1.1-2.3-2.4-4.6-3.9-6.8v0L64.8,18.5L54.3,33.3c-1.9,2.7-3.5,5.5-4.9,8.4L42.1,57.7z"/>
						</g>
						<g>
							<path class="st24" d="M64.8,17.4L53.8,33c-1.9,2.7-3.5,5.5-4.9,8.5l-7.7,16.7L51,59c4.5,0.3,8.9,0.5,13.4,0.5"/>
							<path class="st1" d="M64.4,60.2c-4.5,0-9-0.2-13.5-0.5l-10.7-0.8l8-17.5c1.4-3,3.1-5.9,5-8.6l11-15.5l1,0.7l-11,15.5
								c-1.9,2.7-3.5,5.5-4.9,8.4l-7.3,15.9l8.9,0.7c4.4,0.3,8.9,0.5,13.4,0.5L64.4,60.2z"/>
						</g>
						<g>
							<path class="st1" d="M65,60.2c-4.7,0-9.4-0.2-14-0.5l-10.7-0.8l8-17.5c1.4-3,3.1-5.9,5-8.6l11.5-16.3l11.7,17.2v0
								c1.5,2.2,2.8,4.5,4,6.9l8.8,18.3l-9.5,0.8C74.9,60,69.9,60.2,65,60.2z M42.1,57.7l8.9,0.7c9.5,0.7,19.1,0.7,28.6-0.1l7.7-0.6
								l-8-16.7c-1.1-2.3-2.4-4.6-3.9-6.8v0L64.8,18.5L54.3,33.3c-1.9,2.7-3.5,5.5-4.9,8.4L42.1,57.7z"/>
						</g>
					</g>
					<g>
						
							<rect x="59.4" y="28.7" transform="matrix(0.9843 0.1766 -0.1766 0.9843 6.5738 -10.2239)" class="st24" width="2.6" height="6.3"/>
						<path class="st1" d="M61.9,35.9l-3.8-0.7l1.3-7.5l3.8,0.7L61.9,35.9z M59.6,34.2l1.3,0.2l0.9-5l-1.3-0.2L59.6,34.2z"/>
					</g>
					<g>
						
							<rect x="67.8" y="31.8" transform="matrix(0.9978 -6.598387e-02 6.598387e-02 0.9978 -2.1538 4.6373)" class="st23" width="2.6" height="6.3"/>
						<path class="st1" d="M67.5,38.8L67,31.3l3.8-0.3l0.5,7.6L67.5,38.8z M68.3,32.4l0.3,5.1l1.3-0.1l-0.3-5.1L68.3,32.4z"/>
					</g>
					<g>
						
							<rect x="75.5" y="48" transform="matrix(0.9978 -6.598387e-02 6.598387e-02 0.9978 -3.209 5.1757)" class="st23" width="2.6" height="6.3"/>
						<path class="st1" d="M75.1,55.1l-0.5-7.6l3.8-0.3l0.5,7.6L75.1,55.1z M75.9,48.7l0.3,5.1l1.3-0.1l-0.3-5.1L75.9,48.7z"/>
					</g>
					<g>
						
							<rect x="54.1" y="39.1" transform="matrix(0.9843 0.1766 -0.1766 0.9843 8.3297 -9.1103)" class="st24" width="2.6" height="6.3"/>
						<path class="st1" d="M56.6,46.3l-3.8-0.7l1.3-7.5l3.8,0.7L56.6,46.3z M54.2,44.6l1.3,0.2l0.9-5l-1.3-0.2L54.2,44.6z"/>
					</g>
					<g>
						
							<rect x="55.4" y="49.6" transform="matrix(0.9843 0.1766 -0.1766 0.9843 10.203 -9.1892)" class="st24" width="2.6" height="6.3"/>
						<path class="st1" d="M57.9,56.8l-3.8-0.7l1.3-7.5l3.8,0.7L57.9,56.8z M55.6,55.1l1.3,0.2l0.9-5l-1.3-0.2L55.6,55.1z"/>
					</g>
				</g>
			</g>
			<g>
				<g>
					<g>
						<polygon class="st16" points="96.5,103.1 96.5,114.2 89.3,114.2 89.3,103.1 77.5,103.1 77.5,114.2 70.5,114.2 70.5,103.1 
							58.6,103.1 58.6,114.2 51.3,114.2 51.3,103.1 39.4,103.1 39.4,114.2 32.4,114.2 32.4,103.3 20.5,103.3 20.6,167.5 
							108.4,167.5 108.4,103.1 						"/>
						<path class="st1" d="M109,168.1H20l-0.1-65.4H33v10.8h5.9v-11h13.1v11h6v-11.1h13.1v11.1h5.8v-11.1H90v11.1h5.9v-11.1H109
							V168.1z M21.2,166.9h86.5v-63.2H97.1v11.1h-8.4v-11.1H78.1v11.1h-8.2v-11.1H59.2v11.1h-8.5v-11H40.1v11h-8.3v-10.8H21.1
							L21.2,166.9z"/>
					</g>
					<g>
						<g>
							<rect x="37.2" y="120.8" class="st25" width="8.3" height="3.8"/>
							<path class="st1" d="M46.2,125.3h-9.5v-5.1h9.5V125.3z M37.9,124.1h7.1v-2.6h-7.1V124.1z"/>
						</g>
						<g>
							<rect x="23.7" y="131.3" class="st25" width="8.3" height="3.8"/>
							<path class="st1" d="M32.6,135.7h-9.5v-5.1h9.5V135.7z M24.3,134.5h7.1v-2.6h-7.1V134.5z"/>
						</g>
						<g>
							<rect x="25.8" y="150.4" class="st25" width="8.3" height="3.8"/>
							<path class="st1" d="M34.7,154.8h-9.5v-5.1h9.5V154.8z M26.4,153.6h7.1V151h-7.1V153.6z"/>
						</g>
						<g>
							<rect x="79.4" y="119.7" class="st25" width="8.3" height="3.8"/>
							<path class="st1" d="M88.4,124.2h-9.5v-5.1h9.5V124.2z M80.1,122.9h7.1v-2.6h-7.1V122.9z"/>
						</g>
						<g>
							<rect x="95.1" y="127.5" class="st25" width="8.3" height="3.8"/>
							<path class="st1" d="M104,131.9h-9.5v-5.1h9.5V131.9z M95.7,130.7h7.1v-2.6h-7.1V130.7z"/>
						</g>
						<g>
							<rect x="90.6" y="137.8" class="st25" width="8.3" height="3.8"/>
							<path class="st1" d="M99.5,142.2H90v-5.1h9.5V142.2z M91.2,141h7.1v-2.6h-7.1V141z"/>
						</g>
						<g>
							<rect x="90.6" y="158.4" class="st25" width="8.3" height="3.8"/>
							<path class="st1" d="M99.5,162.9H90v-5.1h9.5V162.9z M91.2,161.7h7.1v-2.6h-7.1V161.7z"/>
						</g>
					</g>
					<g>
						<g>
							<path class="st1" d="M79.3,114.8h-1.8c-0.3,0-0.6-0.3-0.6-0.6s0.3-0.6,0.6-0.6h1.8c0.3,0,0.6,0.3,0.6,0.6
								S79.6,114.8,79.3,114.8z"/>
						</g>
						<g>
							<path class="st1" d="M51.3,114.8h-2.4c-0.3,0-0.6-0.3-0.6-0.6s0.3-0.6,0.6-0.6h2.4c0.3,0,0.6,0.3,0.6,0.6
								S51.7,114.8,51.3,114.8z"/>
						</g>
						<g>
							<path class="st1" d="M32.4,114.8H30c-0.3,0-0.6-0.3-0.6-0.6s0.3-0.6,0.6-0.6h2.4c0.3,0,0.6,0.3,0.6,0.6
								S32.7,114.8,32.4,114.8z"/>
						</g>
						<g>
							<path class="st1" d="M41.1,114.8h-1.6c-0.3,0-0.6-0.3-0.6-0.6s0.3-0.6,0.6-0.6h1.6c0.3,0,0.6,0.3,0.6,0.6
								S41.4,114.8,41.1,114.8z"/>
						</g>
						<g>
							<path class="st1" d="M65.5,114.8h-2.8c-0.3,0-0.6-0.3-0.6-0.6s0.3-0.6,0.6-0.6h2.8c0.3,0,0.6,0.3,0.6,0.6
								S65.9,114.8,65.5,114.8z"/>
						</g>
						<g>
							<path class="st1" d="M59.6,114.8h-1c-0.3,0-0.6-0.3-0.6-0.6s0.3-0.6,0.6-0.6h1c0.3,0,0.6,0.3,0.6,0.6S59.9,114.8,59.6,114.8z
								"/>
						</g>
						<g>
							<path class="st1" d="M87.5,114.8h-1.9c-0.3,0-0.6-0.3-0.6-0.6s0.3-0.6,0.6-0.6h1.9c0.3,0,0.6,0.3,0.6,0.6
								S87.8,114.8,87.5,114.8z"/>
						</g>
						<g>
							<path class="st1" d="M101.2,114.8h-1.9c-0.3,0-0.6-0.3-0.6-0.6s0.3-0.6,0.6-0.6h1.9c0.3,0,0.6,0.3,0.6,0.6
								S101.5,114.8,101.2,114.8z"/>
						</g>
					</g>
					<g>
						<g>
							<g>
								<polygon class="st26" points="87.3,105.4 79.4,105.4 77.5,103.1 89.3,103.1 								"/>
							</g>
							<g>
								<polygon class="st26" points="68.4,105.4 60.5,105.4 58.6,103.1 70.5,103.1 								"/>
							</g>
							<g>
								<polygon class="st26" points="49.6,105.4 41.7,105.4 39.4,103.1 51.3,103.1 								"/>
							</g>
							<g>
								<polygon class="st26" points="30.4,105.4 22.5,105.4 20.5,103.3 32.4,103.3 								"/>
							</g>
							<g>
								<polygon class="st26" points="106.4,105.4 98.5,105.4 96.5,103.1 108.4,103.1 								"/>
							</g>
						</g>
						<g>
							<g>
								<path class="st1" d="M87.3,106h-7.9c-0.3,0-0.6-0.3-0.6-0.6c0-0.3,0.3-0.6,0.6-0.6h7.9c0.3,0,0.6,0.3,0.6,0.6
									C88,105.7,87.7,106,87.3,106z"/>
							</g>
							<g>
								<path class="st1" d="M68.4,106h-7.9c-0.3,0-0.6-0.3-0.6-0.6c0-0.3,0.3-0.6,0.6-0.6h7.9c0.3,0,0.6,0.3,0.6,0.6
									C69,105.7,68.7,106,68.4,106z"/>
							</g>
							<g>
								<path class="st1" d="M49.6,106h-7.9c-0.3,0-0.6-0.3-0.6-0.6c0-0.3,0.3-0.6,0.6-0.6h7.9c0.3,0,0.6,0.3,0.6,0.6
									C50.2,105.7,49.9,106,49.6,106z"/>
							</g>
							<g>
								<path class="st1" d="M30.4,106h-7.9c-0.3,0-0.6-0.3-0.6-0.6c0-0.3,0.3-0.6,0.6-0.6h7.9c0.3,0,0.6,0.3,0.6,0.6
									C31,105.7,30.7,106,30.4,106z"/>
							</g>
							<g>
								<path class="st1" d="M106.4,106h-7.9c-0.3,0-0.6-0.3-0.6-0.6c0-0.3,0.3-0.6,0.6-0.6h7.9c0.3,0,0.6,0.3,0.6,0.6
									C107.1,105.7,106.8,106,106.4,106z"/>
							</g>
						</g>
					</g>
					<g>
						<path class="st1" d="M109,168.1H20l-0.1-65.4H33v10.8h5.9v-11h13.1v11h6v-11.1h13.1v11.1h5.8v-11.1H90v11.1h5.9v-11.1H109
							V168.1z M21.2,166.9h86.5v-63.2H97.1v11.1h-8.4v-11.1H78.1v11.1h-8.2v-11.1H59.2v11.1h-8.5v-11H40.1v11h-8.3v-10.8H21.1
							L21.2,166.9z"/>
					</g>
				</g>
				<g>
					<g>
						<path class="st27" d="M85,167.5H64H43v-24.4c0-10.9,9.4-19.7,21-19.7h0c11.6,0,21,8.8,21,19.7V167.5z"/>
						<path class="st1" d="M85.6,168.1H42.4v-25c0-11.2,9.7-20.3,21.6-20.3s21.6,9.1,21.6,20.3V168.1z M43.6,166.9h40.8v-23.8
							c0-10.5-9.1-19.1-20.4-19.1s-20.4,8.6-20.4,19.1V166.9z"/>
					</g>
					<g>
						<g>
							<g>
								<g>
									<path class="st28" d="M64,167.5h17.9v-22.2c0-9.9-8-17.9-17.9-17.9h0L64,167.5z"/>
								</g>
								<g>
									<g>
										
											<rect x="68.3" y="128.3" transform="matrix(1 -2.031436e-03 2.031436e-03 1 -0.2999 0.1396)" class="st29" width="0.6" height="38.7"/>
									</g>
									<g>
										
											<rect x="73.8" y="130.4" transform="matrix(1 -3.062610e-03 3.062610e-03 1 -0.4559 0.2276)" class="st29" width="0.6" height="37.1"/>
									</g>
									<g>
										
											<rect x="79" y="135.8" transform="matrix(1 -5.607227e-03 5.607227e-03 1 -0.849 0.4473)" class="st29" width="0.6" height="31.6"/>
									</g>
								</g>
								<g>
									<path class="st1" d="M82.5,168.1H63.4v-41.3H64c10.2,0,18.5,8.3,18.5,18.5V168.1z M64.6,166.9h16.6v-21.5
										c0-9.3-7.4-16.9-16.6-17.2V166.9z"/>
								</g>
							</g>
							<g>
								<circle class="st30" cx="67.5" cy="149.1" r="1.5"/>
								<path class="st1" d="M67.5,151.2c-1.2,0-2.2-1-2.2-2.2c0-1.2,1-2.2,2.2-2.2s2.2,1,2.2,2.2C69.7,150.3,68.7,151.2,67.5,151.2
									z M67.5,148.2c-0.5,0-0.9,0.4-0.9,0.9c0,0.5,0.4,0.9,0.9,0.9s0.9-0.4,0.9-0.9C68.4,148.6,68,148.2,67.5,148.2z"/>
							</g>
						</g>
						<g>
							<g>
								<g>
									<path class="st31" d="M64,167.5H46.1v-22.2c0-9.9,8-17.9,17.9-17.9L64,167.5z"/>
								</g>
								<g>
									<g>
										
											<rect x="40.2" y="147.4" transform="matrix(1.953121e-03 -1 1 1.953121e-03 -88.2311 206.9488)" class="st32" width="38.7" height="0.6"/>
									</g>
									<g>
										
											<rect x="35.5" y="148.7" transform="matrix(2.929675e-03 -1 1 2.929675e-03 -95.0745 202.5894)" class="st32" width="37.1" height="0.6"/>
									</g>
									<g>
										
											<rect x="33" y="151.3" transform="matrix(5.859274e-03 -1 1 5.859274e-03 -103.1204 199.528)" class="st32" width="31.6" height="0.6"/>
									</g>
								</g>
								<g>
									<path class="st1" d="M64.6,168.1H45.5v-22.8c0-10.2,8.3-18.5,18.5-18.5h0.6V168.1z M46.8,166.9h16.6v-38.8
										c-9.2,0.3-16.6,7.9-16.6,17.2V166.9z"/>
								</g>
							</g>
							<g>
								<circle class="st30" cx="60.2" cy="149.1" r="1.5"/>
								<path class="st1" d="M60.2,151.2c-1.2,0-2.2-1-2.2-2.2c0-1.2,1-2.2,2.2-2.2s2.2,1,2.2,2.2C62.3,150.3,61.4,151.2,60.2,151.2
									z M60.2,148.2c-0.5,0-0.9,0.4-0.9,0.9c0,0.5,0.4,0.9,0.9,0.9s0.9-0.4,0.9-0.9C61.1,148.6,60.7,148.2,60.2,148.2z"/>
							</g>
						</g>
						<g class="st33">
							<g>
								<path class="st1" d="M64,129.3c8.9,0,16.1,7.2,16.1,16.1v20.3H64H47.9v-20.3C47.9,136.5,55.1,129.3,64,129.3 M64,128L64,128
									c-9.6,0-17.4,7.8-17.4,17.4V167H64h17.4v-21.6C81.4,135.8,73.6,128,64,128L64,128z"/>
							</g>
						</g>
					</g>
				</g>
			</g>
		</g>
	</g>
	<g>
		<path class="st1" d="M68.7,165.1c-4.5,0-9.1-0.4-13.7-1.4c-13.2-2.7-25-8.8-33-17.3c-8.1-8.6-11.5-18.5-9.6-28
			c0.9-4.4,2.9-8.5,5.9-12.1l1,0.8c-2.9,3.5-4.8,7.4-5.6,11.6c-1.8,9.1,1.5,18.7,9.3,26.9c7.9,8.3,19.3,14.4,32.3,17
			c26.7,5.4,51.6-5.6,55.3-24.5c1-5.2,0.4-10.4-1.8-15.7l1.1-0.5c2.3,5.5,2.9,11,1.9,16.4C108.5,154.5,90.4,165.1,68.7,165.1z"/>
	</g>
</g>
</svg>
