<?xml version="1.0" encoding="utf-8"?>
<!-- Generator: Adobe Illustrator 24.2.3, SVG Export Plug-In . SVG Version: 6.00 Build 0)  -->
<svg version="1.1" id="Lag_1" xmlns="http://www.w3.org/2000/svg" xmlns:xlink="http://www.w3.org/1999/xlink" x="0px" y="0px"
	 viewBox="0 0 124 116" style="enable-background:new 0 0 124 116;" xml:space="preserve">
<style type="text/css">
	.st0{fill:#664536;}
	.st1{fill:#110B09;}
	.st2{fill:#DBC2B9;}
	.st3{fill:#473129;}
	.st4{fill:#D6B78A;}
	.st5{fill:#E5C9A3;}
	.st6{fill:#EDD7BC;}
	.st7{clip-path:url(#SVGID_2_);}
	.st8{fill:#B2A6A6;}
	.st9{fill:#2D2521;}
	.st10{fill:#8C8080;}
	.st11{fill:#68462F;}
	.st12{fill:#7C5840;}
	.st13{fill:#8C6449;}
	.st14{fill:#CC7590;}
	.st15{fill:#C17C7C;}
	.st16{fill:#F2E7E7;}
	.st17{fill:#826B6B;}
	.st18{fill:#665656;}
	.st19{fill:#9E8585;}
	.st20{fill:#705E5E;}
</style>
<g>
	<g>
		
			<ellipse transform="matrix(0.1967 -0.9805 0.9805 0.1967 -19.2685 117.3876)" class="st0" cx="62" cy="70.5" rx="42.5" ry="59.9"/>
		<path class="st1" d="M69.9,114.4c-5.3,0-10.8-0.5-16.4-1.7c-15.8-3.2-29.8-10.5-39.4-20.7C4.4,81.8,0.3,69.9,2.6,58.5
			c4.7-23.3,35.1-36.9,67.9-30.4c32.7,6.6,55.6,30.9,50.9,54.2C117.5,101.7,95.9,114.4,69.9,114.4z M54,27.8
			c-25.4,0-46.4,12.3-50.2,31C1.6,69.7,5.6,81.2,15,91.1c9.4,10,23.2,17.2,38.8,20.4c32.1,6.4,61.9-6.7,66.4-29.4
			c4.5-22.6-17.9-46.3-49.9-52.7C64.7,28.3,59.3,27.8,54,27.8z"/>
	</g>
	<g>
		<path class="st2" d="M111,56.9c-0.2,0-0.4-0.1-0.5-0.3c-1.2-1.7-2.5-3.4-4-5c-0.2-0.3-0.2-0.6,0-0.9c0.3-0.2,0.6-0.2,0.9,0
			c1.5,1.6,2.9,3.4,4.1,5.1c0.2,0.3,0.1,0.7-0.2,0.9C111.2,56.9,111.1,56.9,111,56.9z"/>
	</g>
	<g>
		<path class="st2" d="M103.6,48.6c-0.1,0-0.3-0.1-0.4-0.2c-3.5-3.2-7.4-6-11.9-8.5c-0.3-0.2-0.4-0.5-0.2-0.8
			c0.2-0.3,0.5-0.4,0.8-0.2c4.5,2.5,8.6,5.4,12.1,8.6c0.3,0.2,0.3,0.6,0,0.9C103.9,48.5,103.8,48.6,103.6,48.6z"/>
	</g>
	<g>
		<path class="st2" d="M83.5,36.2c-0.1,0-0.2,0-0.2,0c-2.9-1.2-5.9-2.2-9-3c-0.3-0.1-0.5-0.4-0.4-0.8c0.1-0.3,0.4-0.5,0.8-0.4
			c3.1,0.8,6.2,1.8,9.1,3c0.3,0.1,0.5,0.5,0.3,0.8C84,36,83.8,36.2,83.5,36.2z"/>
	</g>
	<g>
		<ellipse transform="matrix(0.1967 -0.9805 0.9805 0.1967 -19.2685 117.3876)" class="st3" cx="62" cy="70.5" rx="38" ry="53.6"/>
	</g>
	<g>
		
			<ellipse transform="matrix(0.1967 -0.9805 0.9805 0.1967 -19.2685 117.3876)" class="st4" cx="62" cy="70.5" rx="35.5" ry="50.1"/>
		<path class="st1" d="M68.7,107.2c-4.5,0-9.2-0.5-13.8-1.4c-13.2-2.7-25-8.8-33-17.3c-8.1-8.6-11.5-18.5-9.6-28
			C14.2,51,21.2,43.1,32,38.3c10.7-4.8,23.9-5.9,37.1-3.3c13.2,2.7,25,8.8,33,17.3c8.1,8.6,11.5,18.5,9.6,28
			c-1.9,9.5-8.9,17.4-19.7,22.2C85.1,105.7,77.1,107.2,68.7,107.2z M55.3,34.9c-8.2,0-16,1.5-22.8,4.6c-10.4,4.6-17.1,12.2-19,21.3
			c-1.8,9.1,1.5,18.7,9.3,26.9c7.9,8.3,19.3,14.4,32.3,17s25.9,1.5,36.4-3.2c10.4-4.6,17.1-12.2,19-21.3c1.8-9.1-1.5-18.7-9.3-26.9
			c-7.9-8.3-19.3-14.4-32.3-17C64.3,35.4,59.7,34.9,55.3,34.9z"/>
	</g>
	<g>
		<ellipse transform="matrix(0.1967 -0.9805 0.9805 0.1967 -19.2685 117.3876)" class="st5" cx="62" cy="70.5" rx="31" ry="43.8"/>
	</g>
	<g>
		
			<ellipse transform="matrix(0.1967 -0.9805 0.9805 0.1967 -19.2685 117.3876)" class="st6" cx="62" cy="70.5" rx="25.8" ry="36.4"/>
	</g>
	<g>
		<defs>
			<path id="SVGID_1_" d="M112.9-10.7H19.7v58.3c-3.4,3.7-5.8,8.1-6.8,13c-3.9,19.2,15,39.2,42.1,44.6c27.1,5.4,52.2-5.7,56.1-24.9
				c1.1-5.6,0.3-11.3-2.1-16.7L112.9-10.7z"/>
		</defs>
		<clipPath id="SVGID_2_">
			<use xlink:href="#SVGID_1_"  style="overflow:visible;"/>
		</clipPath>
		<g class="st7">
			<g>
				<path class="st8" d="M10.7,44.7L8,55.8c-0.6,2.4-0.9,4.9-0.9,7.4l0,1.5h51.8l0-1.5c0-2.5-0.3-5-0.9-7.4l-2.8-11.7H51v11.4h-3.4
					v-6.9h-7.4v6.9h-4V44.7h-7.4v10.8h-4.6v-6.9h-7.4v6.9h-3.4V44.7H10.7z"/>
				<path class="st9" d="M59.5,65.3H6.5l0-2.1c0-2.5,0.4-5.1,0.9-7.5l2.8-11.6h3.7v10.8h2.2v-6.9h8.7v6.9h3.3V44.1h8.7v10.8h2.8
					v-6.9h8.7v6.9h2.2V43.5h5.2l3,12.2c0.6,2.5,0.9,5,0.9,7.5L59.5,65.3z M7.7,64.1h50.6l0-0.9c0-2.4-0.3-4.9-0.9-7.2l-2.7-11.2h-3
					v11.4h-4.7v-6.9h-6.2v6.9h-5.2V45.3h-6.2v10.8h-5.8v-6.9h-6.2v6.9h-4.7V45.3h-1.5L8.6,56c-0.6,2.4-0.9,4.8-0.9,7.2L7.7,64.1z"/>
			</g>
			<g>
				<path class="st10" d="M58.9,64.7H7.1l-0.6,46.8c0,2.6,0.3,5.2,1.1,7.8l2.2,7.7h46.4l2.2-7.7c0.7-2.5,1.1-5.1,1.1-7.8L58.9,64.7z
					"/>
				<path class="st9" d="M56.6,127.5H9.3L7,119.4c-0.8-2.6-1.1-5.3-1.1-7.9l0.6-47.4h53l0.6,47.4c0,2.7-0.3,5.4-1.1,7.9L56.6,127.5z
					 M10.3,126.3h45.4l2.1-7.2c0.7-2.5,1.1-5,1-7.6l-0.6-46.2H7.7l-0.6,46.2c0,2.6,0.3,5.1,1,7.6L10.3,126.3z"/>
			</g>
			<g>
				<path class="st11" d="M33.3,75.5c-9.1,0-16.6,6.5-16.6,14.5v36.9h16.6h16.6V90C49.8,82,42.4,75.5,33.3,75.5z"/>
				<path class="st9" d="M50.5,127.5H16.1V90c0-8.3,7.7-15.1,17.2-15.1c9.5,0,17.2,6.8,17.2,15.1V127.5z M17.3,126.3h31.9V90
					c0-7.7-7.1-13.9-15.9-13.9S17.3,82.4,17.3,90V126.3z"/>
			</g>
			<g>
				<path class="st12" d="M33.3,126.9H19.6V92.1c0-7.6,6.1-13.7,13.7-13.7h0V126.9z"/>
				<path class="st9" d="M33.9,127.5H19V92.1c0-7.9,6.4-14.3,14.3-14.3h0.6V127.5z M20.2,126.3h12.5V79c-6.9,0.3-12.5,6.1-12.5,13.1
					V126.3z"/>
			</g>
			<g>
				<path class="st13" d="M47,126.9H33.3V78.4h0c7.6,0,13.7,6.1,13.7,13.7V126.9z"/>
				<path class="st9" d="M47.6,127.5H32.7V77.8h0.6c7.9,0,14.3,6.4,14.3,14.3V127.5z M33.9,126.3h12.5V92.1c0-7-5.5-12.7-12.5-13.1
					V126.3z"/>
			</g>
			<g>
				<path class="st9" d="M30.4,99c-0.3,0-0.6-0.3-0.6-0.6V95c0-0.3,0.3-0.6,0.6-0.6S31,94.7,31,95v3.4C31,98.7,30.8,99,30.4,99z"/>
			</g>
			<g>
				<path class="st9" d="M30.4,93.9c-0.3,0-0.6-0.3-0.6-0.6v-5.6c0-0.3,0.3-0.6,0.6-0.6s0.6,0.3,0.6,0.6v5.6
					C31,93.6,30.8,93.9,30.4,93.9z"/>
			</g>
			<g>
				<path class="st9" d="M30.4,86.3c-0.3,0-0.6-0.3-0.6-0.6v-0.5c0-0.3,0.3-0.6,0.6-0.6s0.6,0.3,0.6,0.6v0.5
					C31,86.1,30.8,86.3,30.4,86.3z"/>
			</g>
			<g>
				<path class="st9" d="M36.1,123c-0.3,0-0.6-0.3-0.6-0.6v-1.5c0-0.3,0.3-0.6,0.6-0.6s0.6,0.3,0.6,0.6v1.5
					C36.8,122.7,36.5,123,36.1,123z"/>
			</g>
			<g>
				<path class="st9" d="M36.1,119.7c-0.3,0-0.6-0.3-0.6-0.6v-4.7c0-0.3,0.3-0.6,0.6-0.6s0.6,0.3,0.6,0.6v4.7
					C36.8,119.4,36.5,119.7,36.1,119.7z"/>
			</g>
			<g>
				<path class="st9" d="M36.1,62.3c-0.3,0-0.6-0.3-0.6-0.6v-2.1c0-0.3,0.3-0.6,0.6-0.6s0.6,0.3,0.6,0.6v2.1
					C36.8,62,36.5,62.3,36.1,62.3z"/>
			</g>
			<g>
				<path class="st9" d="M36.1,58.2c-0.3,0-0.6-0.3-0.6-0.6v-0.5c0-0.3,0.3-0.6,0.6-0.6s0.6,0.3,0.6,0.6v0.5
					C36.8,57.9,36.5,58.2,36.1,58.2z"/>
			</g>
			<g>
				<g>
					<line class="st14" x1="74.8" y1="24.2" x2="74.8" y2="10.2"/>
					<path class="st1" d="M74.8,24.8c-0.3,0-0.6-0.3-0.6-0.6v-14c0-0.3,0.3-0.6,0.6-0.6c0.3,0,0.6,0.3,0.6,0.6v14
						C75.4,24.5,75.1,24.8,74.8,24.8z"/>
				</g>
				<g>
					<path class="st15" d="M96.7,16.2L91.9,17c-4.1,0.7-8.2,0.7-12.3,0l-4.8-0.8V1.4l5,0.8c4.1,0.7,8.2,0.7,12.3,0l4.6-0.8V16.2z"/>
					<path class="st1" d="M85.7,18.1c-2.1,0-4.2-0.2-6.3-0.5l-5.3-0.9V0.6l5.7,0.9c4,0.7,8.1,0.6,12.1,0l5.3-0.9v16.1L92,17.6
						C89.9,17.9,87.8,18.1,85.7,18.1z M75.4,15.6l4.3,0.7c4,0.7,8.1,0.7,12.1,0l4.3-0.7V2.1l-3.8,0.7c-4.1,0.7-8.4,0.7-12.5,0
						l-4.3-0.7V15.6z M96.7,16.2L96.7,16.2L96.7,16.2z"/>
				</g>
				<g>
					<g>
						<path class="st16" d="M90.8,13.4h-9.7V6.8h9.7V13.4z M81.7,12.8h8.5V7.4h-8.5V12.8z"/>
					</g>
					<g>
						<path class="st16" d="M90.5,13.4h-9.1c-0.2,0-0.3-0.1-0.3-0.3v-6c0-0.1,0.1-0.2,0.2-0.3c0.1-0.1,0.2,0,0.3,0l4.4,3.3l4.4-3.3
							c0.1-0.1,0.2-0.1,0.3,0c0.1,0.1,0.2,0.2,0.2,0.3v6C90.8,13.3,90.7,13.4,90.5,13.4z M81.7,12.8h8.5v-5l-4.1,3
							c-0.1,0.1-0.3,0.1-0.4,0l-4.1-3V12.8z"/>
					</g>
				</g>
			</g>
			<g>
				<g>
					<path class="st17" d="M-40.4,131l3.5-12.3c0.7-2.5,1-5.1,1-7.7l-1-45.7c-0.1-3.4-0.4-6.7-1.1-10l-2.4-11.7l25.1,1.1L11,43.6
						L8,55.8c-0.6,2.4-0.9,4.9-0.9,7.4l-0.6,48.3c0,2.6,0.3,5.2,1.1,7.8L11,131H-40.4z"/>
					<path class="st9" d="M11.8,131.6h-53l3.7-13.1c0.7-2.5,1-5,1-7.5l-1-45.7c-0.1-3.3-0.4-6.7-1.1-9.9l-2.5-12.5l25.9,1.2l27-1.2
						L8.6,56c-0.6,2.4-0.9,4.8-0.9,7.2l-0.6,48.3c0,2.6,0.3,5.1,1,7.6L11.8,131.6z M-39.6,130.4h49.7l-3.2-11
						c-0.8-2.6-1.1-5.3-1.1-7.9l0.6-48.3c0-2.5,0.4-5.1,0.9-7.5l2.8-11.5l-25.4,1.1l-24.4-1.1l2.2,10.9c0.7,3.3,1,6.7,1.1,10.1
						l1,45.7c0.1,2.7-0.3,5.3-1,7.9L-39.6,130.4z"/>
				</g>
				<g>
					<path class="st18" d="M-42.1,41.3v1.4c0,0.5,0.4,0.9,0.9,0.9l24.5,1.1c0.9,0,1.9,0,2.8,0l25.1-1.1c0.5,0,0.9-0.4,0.9-0.9v-1.4"
						/>
					<path class="st9" d="M-15.2,45.3c-0.5,0-1,0-1.4,0l-24.5-1.1c0,0,0,0,0,0c-0.8,0-1.5-0.7-1.5-1.5v-1.4c0-0.3,0.3-0.6,0.6-0.6
						s0.6,0.3,0.6,0.6v1.4c0,0.2,0.1,0.3,0.3,0.3l24.6,1.1c0.9,0,1.8,0,2.7,0l25.1-1.1c0.2,0,0.3-0.1,0.3-0.3v-1.4
						c0-0.3,0.3-0.6,0.6-0.6c0.3,0,0.6,0.3,0.6,0.6v1.4c0,0.8-0.7,1.5-1.5,1.5l-25.1,1.1C-14.3,45.3-14.8,45.3-15.2,45.3z"/>
				</g>
				<g>
					<path class="st19" d="M0.7,23v8h-9.1v-8h-13.1v8h-9.1v-8h-13.1v17.4c0,0.5,0.4,0.9,0.9,0.9l26.3,1.1c0.9,0,1.7,0,2.6,0
						l26.9-1.1c0.5,0,0.9-0.4,0.9-0.9V23H0.7z"/>
					<path class="st9" d="M-15.2,43c-0.5,0-0.9,0-1.3,0l-26.3-1.1c0,0,0,0,0,0c-0.8,0-1.5-0.7-1.5-1.5v-18H-30v8h7.9v-8h14.4v8h7.9
						v-8h14.4v18c0,0.8-0.7,1.5-1.5,1.5L-13.9,43C-14.4,43-14.8,43-15.2,43z M-43.2,23.6v16.7c0,0.2,0.1,0.3,0.3,0.3l26.3,1.1
						c0.9,0,1.7,0,2.6,0l26.9-1.1c0.2,0,0.3-0.1,0.3-0.3V23.6H1.4v8H-9v-8h-11.9v8h-10.4v-8H-43.2z"/>
				</g>
				<g>
					<polygon class="st20" points="-29.5,51.6 -30.7,51.6 -34.7,44.1 -30.1,44.1 					"/>
					<path class="st9" d="M-28.9,52.2H-31l-4.7-8.7h6.2L-28.9,52.2z M-30.3,50.9h0.1l-0.5-6.2h-3L-30.3,50.9z"/>
				</g>
				<g>
					<polygon class="st20" points="0.7,51.6 -0.4,51.6 0.2,44.1 4.7,44.1 					"/>
					<path class="st9" d="M1.1,52.2h-2.2l0.7-8.7h6.2L1.1,52.2z M0.3,50.9h0.1l3.3-6.2h-3L0.3,50.9z"/>
				</g>
				<g>
					<polygon class="st20" points="-14.1,52.7 -17.5,52.7 -18.7,44.7 -16.1,44.7 -13,44.7 					"/>
					<path class="st9" d="M-13.6,53.3h-4.5l-1.3-9.2h7.1L-13.6,53.3z M-17,52.1h2.4l1-6.8H-18L-17,52.1z"/>
				</g>
				<g>
					<rect x="-17" y="60.7" class="st19" width="14.7" height="6.9"/>
					<path class="st9" d="M-1.7,68.2h-15.9v-8.1h15.9V68.2z M-16.3,66.9h13.4v-5.6h-13.4V66.9z"/>
				</g>
				<g>
					<polygon class="st19" points="-15.3,74.4 -15.3,67.5 -30.1,67.5 -29.8,74.4 					"/>
					<path class="st9" d="M-14.6,75h-15.8l-0.3-8.1h16.1V75z M-29.2,73.8h13.3v-5.6h-13.5L-29.2,73.8z"/>
				</g>
				<g>
					<polygon class="st19" points="-10.7,90.4 4.6,90.4 4.7,84.1 -10.7,84.1 					"/>
					<path class="st9" d="M5.2,91h-16.5v-7.5H5.4L5.2,91z M-10.1,89.8H4l0.1-5h-14.2V89.8z"/>
				</g>
				<g>
					<polygon class="st19" points="-26.7,96.1 -26.7,87 -36.4,87 -36.2,96.1 					"/>
					<path class="st9" d="M-26.1,96.7h-10.7l-0.3-10.4h11V96.7z M-35.6,95.5h8.3v-7.9h-8.5L-35.6,95.5z"/>
				</g>
				<g>
					<rect x="-20.9" y="90.4" class="st19" width="14.7" height="8"/>
					<path class="st9" d="M-5.6,99h-15.9v-9.2h15.9V99z M-20.3,97.8h13.4V91h-13.4V97.8z"/>
				</g>
				<g>
					<rect x="-14.1" y="98.4" class="st19" width="17.1" height="7.4"/>
					<path class="st9" d="M3.6,106.4h-18.4v-8.7H3.6V106.4z M-13.5,105.2H2.4V99h-15.9V105.2z"/>
				</g>
				<g>
					<path class="st19" d="M-37.1,118.9h15.5v-9.1h-14.4l0.1,0.9C-35.8,113.5-36.2,116.3-37.1,118.9L-37.1,118.9z"/>
					<path class="st9" d="M-20.9,119.5h-17l0.2-0.8c0.8-2.6,1.2-5.3,1.1-8l-0.1-1.5h15.7V119.5z M-36.2,118.3h14.1v-7.9h-13.1l0,0.2
						C-35.2,113.3-35.5,115.8-36.2,118.3z"/>
				</g>
				<g>
					<path class="st19" d="M-3.3,112.1v12h12l-1.2-4.2c-0.7-2.5-1.1-5.1-1-7.8l0,0H-3.3z"/>
					<path class="st9" d="M9.5,124.7H-3.9v-13.2h11l0,0.6c-0.1,2.6,0.3,5.1,1,7.6L9.5,124.7z M-2.6,123.4H7.9l-1-3.4
						c-0.7-2.4-1-4.8-1-7.3h-8.5V123.4z"/>
				</g>
				<g>
					<rect x="-27.2" y="122.6" class="st19" width="14.3" height="5.5"/>
					<path class="st9" d="M-12.3,128.7h-15.5V122h15.5V128.7z M-26.6,127.4h13v-4.2h-13V127.4z"/>
				</g>
				<g>
					<rect x="-43.8" y="130.9" class="st19" width="57.1" height="4"/>
					<path class="st9" d="M13.9,135.5h-58.3v-5.2h58.3V135.5z M-43.2,134.3h55.9v-2.8h-55.9V134.3z"/>
				</g>
				<g>
					<path class="st9" d="M-28.4,33.9h-2.3c-0.3,0-0.6-0.3-0.6-0.6s0.3-0.6,0.6-0.6h2.3c0.3,0,0.6,0.3,0.6,0.6S-28,33.9-28.4,33.9z"
						/>
				</g>
				<g>
					<path class="st9" d="M-21.5,33.9h-4.6c-0.3,0-0.6-0.3-0.6-0.6s0.3-0.6,0.6-0.6h4.6c0.3,0,0.6,0.3,0.6,0.6S-21.2,33.9-21.5,33.9
						z"/>
				</g>
				<g>
					<path class="st9" d="M-7.3,33.9h-1.1c-0.3,0-0.6-0.3-0.6-0.6s0.3-0.6,0.6-0.6h1.1c0.3,0,0.6,0.3,0.6,0.6S-6.9,33.9-7.3,33.9z"
						/>
				</g>
				<g>
					<path class="st9" d="M-2.7,33.9h-2.9c-0.3,0-0.6-0.3-0.6-0.6s0.3-0.6,0.6-0.6h2.9c0.3,0,0.6,0.3,0.6,0.6S-2.3,33.9-2.7,33.9z"
						/>
				</g>
				<g>
					<path class="st9" d="M0.7,33.9H-1c-0.3,0-0.6-0.3-0.6-0.6s0.3-0.6,0.6-0.6h1.7c0.3,0,0.6,0.3,0.6,0.6S1.1,33.9,0.7,33.9z"/>
				</g>
				<g>
					<path class="st9" d="M-15.8,40.9C-15.8,40.9-15.8,40.9-15.8,40.9l-0.9,0c-0.3,0-0.6-0.3-0.6-0.6c0-0.3,0.3-0.6,0.6-0.6
						c0,0,0,0,0,0l0.9,0c0.3,0,0.6,0.3,0.6,0.6C-15.2,40.7-15.5,40.9-15.8,40.9z"/>
				</g>
				<g>
					<path class="st9" d="M-19.1,40.9C-19.1,40.9-19.1,40.9-19.1,40.9c-1,0-1.9-0.1-2.8-0.1c-0.3,0-0.6-0.3-0.6-0.6
						c0-0.3,0.3-0.6,0.6-0.6c0.9,0,1.8,0.1,2.7,0.1c0.3,0,0.6,0.3,0.6,0.6C-18.5,40.6-18.8,40.9-19.1,40.9z"/>
				</g>
				<g>
					<path class="st9" d="M-24.9,40.6C-24.9,40.6-24.9,40.6-24.9,40.6c-3.2-0.2-5.3-0.4-5.3-0.4c-0.3,0-0.6-0.3-0.5-0.7
						c0-0.3,0.3-0.6,0.7-0.5c0,0,2,0.2,5.2,0.4c0.3,0,0.6,0.3,0.6,0.7C-24.3,40.4-24.6,40.6-24.9,40.6z"/>
				</g>
			</g>
			<g>
				<g>
					<path class="st17" d="M106.4,131l-3.5-12.3c-0.7-2.5-1-5.1-1-7.7l1-45.7c0.1-3.4,0.4-6.7,1.1-10l2.4-11.7l-25.1,1.1L55,43.6
						l3,12.3c0.6,2.4,0.9,4.9,0.9,7.4l0.6,48.3c0,2.6-0.3,5.2-1.1,7.8L55,131H106.4z"/>
					<path class="st9" d="M107.2,131.6h-53l3.7-12.5c0.7-2.5,1.1-5,1-7.6l-0.6-48.3c0-2.4-0.3-4.9-0.9-7.2l-3.2-13.1l27.1,1.2
						l25.9-1.2l-2.5,12.5c-0.7,3.3-1,6.6-1.1,9.9l-1,45.7c-0.1,2.6,0.3,5.1,1,7.5L107.2,131.6z M55.8,130.4h49.7l-3.3-11.5
						c-0.7-2.6-1.1-5.2-1-7.9l1-45.7c0.1-3.4,0.5-6.8,1.1-10.1l2.2-10.9l-24.3,1.1l-25.5-1.1l2.8,11.5c0.6,2.5,0.9,5,0.9,7.5
						l0.6,48.3c0,2.7-0.3,5.4-1.1,7.9L55.8,130.4z"/>
				</g>
				<g>
					<path class="st18" d="M108.1,41.3v1.4c0,0.5-0.4,0.9-0.9,0.9l-24.5,1.1c-0.9,0-1.9,0-2.8,0l-25.1-1.1c-0.5,0-0.9-0.4-0.9-0.9
						v-1.4"/>
					<path class="st9" d="M81.2,45.3c-0.5,0-0.9,0-1.4,0l-25.1-1.1c0,0,0,0,0,0c-0.8,0-1.5-0.7-1.5-1.5v-1.4c0-0.3,0.3-0.6,0.6-0.6
						s0.6,0.3,0.6,0.6v1.4c0,0.2,0.1,0.3,0.3,0.3L79.9,44c0.9,0,1.8,0,2.7,0l24.5-1.1c0.2,0,0.3-0.1,0.3-0.3v-1.4
						c0-0.3,0.3-0.6,0.6-0.6c0.3,0,0.6,0.3,0.6,0.6v1.4c0,0.8-0.7,1.5-1.5,1.5l-24.5,1.1C82.2,45.3,81.7,45.3,81.2,45.3z"/>
				</g>
				<g>
					<path class="st19" d="M65.3,23v8h9.1v-8h13.1v8h9.1v-8h13.1v17.4c0,0.5-0.4,0.9-0.9,0.9l-26.3,1.1c-0.9,0-1.7,0-2.6,0L53,41.3
						c-0.5,0-0.9-0.4-0.9-0.9V23H65.3z"/>
					<path class="st9" d="M81.2,43c-0.4,0-0.9,0-1.3,0L53,41.9c0,0,0,0,0,0c-0.8,0-1.5-0.7-1.5-1.5v-18h14.4v8h7.9v-8h14.4v8H96v-8
						h14.4v18c0,0.8-0.7,1.5-1.5,1.5L82.6,43C82.1,43,81.7,43,81.2,43z M52.7,23.6v16.7c0,0.2,0.1,0.3,0.3,0.3L80,41.7
						c0.8,0,1.7,0,2.6,0l26.3-1.1c0.2,0,0.3-0.1,0.3-0.3V23.6H97.3v8H86.9v-8H75v8H64.6v-8H52.7z"/>
				</g>
				<g>
					<polygon class="st20" points="95.5,51.6 96.7,51.6 100.7,44.1 96.1,44.1 					"/>
					<path class="st9" d="M97,52.2h-2.2l0.7-8.7h6.2L97,52.2z M96.2,50.9h0.1l3.3-6.2h-3L96.2,50.9z"/>
				</g>
				<g>
					<polygon class="st20" points="65.3,51.6 66.4,51.6 65.8,44.1 61.3,44.1 					"/>
					<path class="st9" d="M67.1,52.2h-2.2l-4.7-8.7h6.2L67.1,52.2z M65.6,50.9h0.1l-0.5-6.2h-3L65.6,50.9z"/>
				</g>
				<g>
					<polygon class="st20" points="80.1,52.7 83.5,52.7 84.7,44.7 82,44.7 79,44.7 					"/>
					<path class="st9" d="M84.1,53.3h-4.5l-1.3-9.2h7.1L84.1,53.3z M80.6,52.1H83l1-6.8h-4.3L80.6,52.1z"/>
				</g>
				<g>
					
						<rect x="68.3" y="60.7" transform="matrix(-1 -4.485047e-11 4.485047e-11 -1 151.2219 128.2334)" class="st19" width="14.7" height="6.9"/>
					<path class="st9" d="M83.6,68.2H67.7v-8.1h15.9V68.2z M68.9,66.9h13.4v-5.6H68.9V66.9z"/>
				</g>
				<g>
					<polygon class="st19" points="81.2,74.4 81.2,67.5 96,67.5 95.8,74.4 					"/>
					<path class="st9" d="M96.4,75H80.6v-8.1h16.1L96.4,75z M81.9,73.8h13.3l0.2-5.6H81.9V73.8z"/>
				</g>
				<g>
					<polygon class="st19" points="76.7,90.4 61.4,90.4 61.3,84.1 76.7,84.1 					"/>
					<path class="st9" d="M77.3,91H60.8l-0.1-7.5h16.7V91z M62,89.8h14.1v-5H61.9L62,89.8z"/>
				</g>
				<g>
					<polygon class="st19" points="92.7,96.1 92.7,87 102.4,87 102.1,96.1 					"/>
					<path class="st9" d="M102.7,96.7H92V86.3h11L102.7,96.7z M93.3,95.5h8.3l0.2-7.9h-8.5V95.5z"/>
				</g>
				<g>
					
						<rect x="72.2" y="90.4" transform="matrix(-1 -4.497437e-11 4.497437e-11 -1 159.052 188.754)" class="st19" width="14.7" height="8"/>
					<path class="st9" d="M87.5,99H71.6v-9.2h15.9V99z M72.8,97.8h13.4V91H72.8V97.8z"/>
				</g>
				<g>
					
						<rect x="63" y="98.4" transform="matrix(-1 -4.481538e-11 4.481538e-11 -1 143.0654 204.1696)" class="st19" width="17.1" height="7.4"/>
					<path class="st9" d="M80.7,106.4H62.3v-8.7h18.4V106.4z M63.6,105.2h15.9V99H63.6V105.2z"/>
				</g>
				<g>
					<path class="st19" d="M103,118.9H87.5v-9.1h14.4l-0.1,0.9C101.8,113.5,102.2,116.3,103,118.9L103,118.9z"/>
					<path class="st9" d="M103.9,119.5h-17v-10.4h15.7l-0.1,1.6c0,2.7,0.3,5.4,1.1,8L103.9,119.5z M88.1,118.3h14.1
						c-0.7-2.5-1-5-1-7.6l0-0.3H88.1V118.3z"/>
				</g>
				<g>
					<path class="st19" d="M69.2,112.1v12h-12l1.2-4.2c0.7-2.5,1.1-5.1,1-7.8l0,0H69.2z"/>
					<path class="st9" d="M69.9,124.7H56.4l1.4-5c0.7-2.5,1-5,1-7.6l0-0.6h11V124.7z M58.1,123.4h10.5v-10.8h-8.5
						c0,2.5-0.3,4.9-1,7.3L58.1,123.4z"/>
				</g>
				<g>
					
						<rect x="79" y="122.6" transform="matrix(-1 -4.498503e-11 4.498503e-11 -1 172.1838 250.6684)" class="st19" width="14.3" height="5.5"/>
					<path class="st9" d="M93.8,128.7H78.3V122h15.5V128.7z M79.6,127.4h13v-4.2h-13V127.4z"/>
				</g>
				<g>
					
						<rect x="52.7" y="130.9" transform="matrix(-1 -4.482604e-11 4.482604e-11 -1 162.4777 265.8321)" class="st19" width="57.1" height="4"/>
					<path class="st9" d="M110.4,135.5H52.1v-5.2h58.3V135.5z M53.3,134.3h55.9v-2.8H53.3V134.3z"/>
				</g>
				<g>
					<path class="st9" d="M96.7,33.9h-2.3c-0.3,0-0.6-0.3-0.6-0.6s0.3-0.6,0.6-0.6h2.3c0.3,0,0.6,0.3,0.6,0.6S97,33.9,96.7,33.9z"/>
				</g>
				<g>
					<path class="st9" d="M92.1,33.9h-4.6c-0.3,0-0.6-0.3-0.6-0.6s0.3-0.6,0.6-0.6h4.6c0.3,0,0.6,0.3,0.6,0.6S92.4,33.9,92.1,33.9z"
						/>
				</g>
				<g>
					<path class="st9" d="M74.4,33.9h-1.1c-0.3,0-0.6-0.3-0.6-0.6s0.3-0.6,0.6-0.6h1.1c0.3,0,0.6,0.3,0.6,0.6S74.7,33.9,74.4,33.9z"
						/>
				</g>
				<g>
					<path class="st9" d="M71.5,33.9h-2.9c-0.3,0-0.6-0.3-0.6-0.6s0.3-0.6,0.6-0.6h2.9c0.3,0,0.6,0.3,0.6,0.6S71.9,33.9,71.5,33.9z"
						/>
				</g>
				<g>
					<path class="st9" d="M67,33.9h-1.7c-0.3,0-0.6-0.3-0.6-0.6s0.3-0.6,0.6-0.6H67c0.3,0,0.6,0.3,0.6,0.6S67.3,33.9,67,33.9z"/>
				</g>
				<g>
					<path class="st9" d="M81.8,40.9c-0.3,0-0.6-0.3-0.6-0.6c0-0.3,0.3-0.6,0.6-0.6l0.9,0c0.4,0,0.6,0.3,0.6,0.6
						c0,0.3-0.3,0.6-0.6,0.6L81.8,40.9C81.8,40.9,81.8,40.9,81.8,40.9z"/>
				</g>
				<g>
					<path class="st9" d="M85.1,40.9c-0.3,0-0.6-0.3-0.6-0.6c0-0.3,0.3-0.6,0.6-0.6c1,0,1.9-0.1,2.7-0.1c0.3,0,0.6,0.2,0.6,0.6
						c0,0.3-0.2,0.6-0.6,0.6C87,40.8,86.1,40.9,85.1,40.9C85.1,40.9,85.1,40.9,85.1,40.9z"/>
				</g>
				<g>
					<path class="st9" d="M90.9,40.6c-0.3,0-0.6-0.3-0.6-0.6c0-0.3,0.2-0.6,0.6-0.7C94,39.2,96,39,96,39c0.3,0,0.6,0.2,0.7,0.5
						c0,0.3-0.2,0.6-0.5,0.7C96.1,40.2,94.1,40.4,90.9,40.6C90.9,40.6,90.9,40.6,90.9,40.6z"/>
				</g>
			</g>
		</g>
	</g>
	<g>
		<path class="st1" d="M68.7,107.2c-4.5,0-9.2-0.5-13.8-1.4c-13.2-2.7-25-8.8-33-17.3c-8.1-8.6-11.5-18.5-9.6-28
			c0.9-4.4,2.9-8.5,5.9-12.1l1,0.8c-2.9,3.5-4.8,7.4-5.6,11.6c-1.8,9.1,1.5,18.7,9.3,26.9c7.9,8.3,19.3,14.4,32.3,17
			s25.9,1.5,36.4-3.2c10.4-4.6,17.1-12.2,19-21.3c1-5.2,0.4-10.4-1.8-15.7l1.1-0.5c2.3,5.5,2.9,11,1.9,16.4
			c-1.9,9.5-8.9,17.4-19.7,22.2C85.1,105.7,77.1,107.2,68.7,107.2z"/>
	</g>
</g>
</svg>
