<?xml version="1.0" encoding="utf-8"?>
<!-- Generator: Adobe Illustrator 24.2.3, SVG Export Plug-In . SVG Version: 6.00 Build 0)  -->
<svg version="1.1" id="Lag_1" xmlns="http://www.w3.org/2000/svg" xmlns:xlink="http://www.w3.org/1999/xlink" x="0px" y="0px"
	 viewBox="0 0 85 98" style="enable-background:new 0 0 85 98;" xml:space="preserve">
<style type="text/css">
	.st0{fill:#B5B4B4;}
	.st1{fill:#2D2521;}
	.st2{fill:#727272;}
	.st3{fill:#AFA3A3;}
	.st4{fill:#C9C9C9;}
	.st5{fill:#E5E5E5;}
	.st6{opacity:0.67;}
	.st7{fill:#C14040;}
	.st8{fill:#E2B069;}
</style>
<g>
	<g>
		<path class="st0" d="M58.9,71.2L42.1,92.8L23.3,70.4c-10.2-12.1-7.2-25.3-9.9-40.9L1.9,4.2l5.5-0.6c21.6,4.9,47,4.7,68.1-2.1
			l7.5-0.6L77.4,24C75.9,41.2,69.5,57.5,58.9,71.2z"/>
		<path class="st1" d="M42.1,93.4L23,70.7c-7.3-8.6-7.9-18-8.6-27.8c-0.3-4.2-0.6-8.6-1.4-13.2L1.4,3.8l6.1-0.6l0.1,0
			c22.5,5.1,47.9,4.3,67.9-2.1l0.1,0l8.1-0.7L77.8,24c-1.5,17.3-8,33.7-18.6,47.4L42.1,93.4z M2.5,4.5l11.3,25l0,0
			c0.8,4.6,1.1,9,1.4,13.3c0.7,10.2,1.3,19,8.4,27.4l18.5,22l16.5-21.2l0.3,0.2l-0.3-0.2c10.6-13.6,16.9-29.8,18.4-47l0-0.1
			l5.6-22.6l-6.9,0.6C55.6,8.3,30.1,9.1,7.4,4L2.5,4.5z"/>
	</g>
	<g>
		<path class="st2" d="M62.2,75.4L45.4,97L26.6,74.7C16.4,62.6,9.6,48,6.9,32.4l-5-28.3l8.5,1.9C32.1,11,54.6,10,75.7,3.3l7.4-2.4
			l-2.4,27.3C79.2,45.4,72.8,61.8,62.2,75.4z"/>
		<path class="st1" d="M45.4,97.7L26.3,75C16.1,62.8,9.3,48.1,6.5,32.5L1.5,3.7l9.1,2.1c21.5,4.9,44,3.9,65.1-2.8l8-2.6l-2.4,27.9
			C79.6,45.6,73.2,62,62.5,75.7l-0.3-0.2l0.3,0.2L45.4,97.7z M2.4,4.7l4.9,27.7c2.7,15.5,9.5,30.1,19.6,42.1l18.5,22l16.5-21.2
			c10.6-13.6,16.9-29.8,18.4-47l2.3-26.8l-6.9,2.2C54.7,10.4,32,11.4,10.4,6.5L2.4,4.7z"/>
	</g>
	<g>
		<path class="st3" d="M60,71.8l-14.7,19L28.8,71.1C19.8,60.5,13.9,47.7,11.5,34L7.1,9.3l7.5,1.7c19,4.3,38.7,3.5,57.2-2.5l6.5-2.1
			l-2.1,24C74.9,45.4,69.3,59.8,60,71.8z"/>
		<path class="st1" d="M45.3,91.3l-16.8-20c-9-10.7-15-23.5-17.4-37.3L6.6,8.7l8,1.8c18.9,4.3,38.6,3.4,57-2.5l7.1-2.3l-2.2,24.6
			C75.3,45.6,69.6,60,60.3,72L60,71.8l0.3,0.2L45.3,91.3z M7.6,9.8L11.8,34c2.4,13.6,8.3,26.4,17.2,36.9l16.2,19.2l14.4-18.6
			c9.3-11.9,14.8-26.2,16.2-41.2l2.1-23.4l-6,1.9c-18.6,6-38.4,6.8-57.5,2.5L7.6,9.8z"/>
	</g>
	<g>
		<g>
			<path class="st4" d="M55,64.3l-10.1,13L33.6,63.9c-6.1-7.3-10.2-16.1-11.9-25.5l-3-17l5.1,1.2c13,3,26.6,2.4,39.3-1.7l4.5-1.4
				l-1.4,16.5C65.3,46.2,61.4,56.1,55,64.3z"/>
		</g>
		<g>
			<g>
				<path class="st1" d="M44.9,77.9L34.1,65.1c-0.1-0.2-0.1-0.4,0-0.5c0.2-0.1,0.4-0.1,0.5,0l10.2,12.1l9.7-12.5
					c0.1-0.2,0.4-0.2,0.5-0.1c0.2,0.1,0.2,0.4,0.1,0.5L44.9,77.9z"/>
			</g>
			<g>
				<path class="st1" d="M21.5,37.7c-0.2,0-0.3-0.1-0.4-0.3l-2.9-16.6l5.7,1.3c3.5,0.8,7.2,1.4,10.8,1.6c0.2,0,0.4,0.2,0.4,0.4
					c0,0.2-0.2,0.4-0.4,0.4c-3.7-0.3-7.3-0.8-10.9-1.6l-4.6-1l2.7,15.4C21.9,37.5,21.8,37.7,21.5,37.7
					C21.6,37.7,21.5,37.7,21.5,37.7z"/>
			</g>
			<g>
				<path class="st1" d="M66.2,36C66.2,36,66.2,36,66.2,36c-0.2,0-0.4-0.2-0.4-0.4l1.4-15.6l-3.9,1.3c-3.7,1.2-7.5,2.1-11.3,2.7
					c-0.2,0-0.4-0.1-0.4-0.3c0-0.2,0.1-0.4,0.3-0.4c3.8-0.6,7.5-1.5,11.2-2.6l5-1.6l-1.5,16.8C66.6,35.8,66.4,36,66.2,36z"/>
			</g>
		</g>
	</g>
	<g>
		<g>
			<path class="st1" d="M44.9,77.9l-5-6c-0.1-0.2-0.1-0.4,0-0.5c0.2-0.1,0.4-0.1,0.5,0l4.4,5.3l4.2-5.4c0.1-0.2,0.4-0.2,0.5-0.1
				c0.2,0.1,0.2,0.4,0.1,0.5L44.9,77.9z"/>
		</g>
		<g>
			<path class="st1" d="M30,59.5c-0.1,0-0.2-0.1-0.3-0.2c-3-4.5-5.4-9.5-6.9-14.7c-0.1-0.2,0.1-0.4,0.3-0.5c0.2-0.1,0.4,0.1,0.5,0.3
				c1.5,5.2,3.8,10,6.8,14.5c0.1,0.2,0.1,0.4-0.1,0.5C30.1,59.5,30.1,59.5,30,59.5z"/>
		</g>
		<g>
			<path class="st1" d="M20,29c-0.2,0-0.3-0.1-0.4-0.3l-1.4-7.8l5.7,1.3c0.7,0.2,1.4,0.3,2,0.4c0.2,0,0.3,0.2,0.3,0.5
				c0,0.2-0.2,0.3-0.5,0.3c-0.7-0.1-1.4-0.3-2.1-0.4l-4.6-1l1.2,6.7C20.4,28.7,20.2,28.9,20,29C20,29,20,29,20,29z"/>
		</g>
		<g>
			<path class="st1" d="M40.4,24.8c-1,0-1.9,0-2.9-0.1c-0.2,0-0.4-0.2-0.4-0.4c0-0.2,0.2-0.4,0.4-0.4c3.9,0.1,7.8,0,11.6-0.5
				c0.2,0,0.4,0.1,0.4,0.3c0,0.2-0.1,0.4-0.3,0.4C46.3,24.6,43.3,24.8,40.4,24.8z"/>
		</g>
		<g>
			<path class="st1" d="M67,27.1C67,27.1,67,27.1,67,27.1c-0.2,0-0.4-0.2-0.4-0.4l0.6-6.7l-3.9,1.3c-0.8,0.3-1.7,0.5-2.6,0.8
				c-0.2,0.1-0.4-0.1-0.5-0.3c-0.1-0.2,0.1-0.4,0.3-0.5c0.8-0.2,1.7-0.5,2.5-0.8l5-1.6l-0.7,7.9C67.3,26.9,67.2,27.1,67,27.1z"/>
		</g>
		<g>
			<path class="st1" d="M59.1,58.6c-0.1,0-0.1,0-0.2-0.1c-0.2-0.1-0.2-0.3-0.1-0.5c2.7-4.7,4.7-9.8,5.9-15.1c0-0.2,0.3-0.3,0.5-0.3
				c0.2,0,0.3,0.3,0.3,0.5c-1.2,5.4-3.2,10.6-6,15.3C59.4,58.6,59.2,58.6,59.1,58.6z"/>
		</g>
	</g>
	<g>
		<g>
			<circle class="st0" cx="12.2" cy="15.7" r="2"/>
			<path class="st1" d="M12.2,18.1c-1.3,0-2.3-1-2.4-2.3c0-1.3,1-2.4,2.3-2.4c0.6,0,1.2,0.2,1.7,0.6c0.5,0.4,0.7,1,0.7,1.7l0,0
				c0,0.6-0.2,1.2-0.6,1.7C13.5,17.8,12.9,18.1,12.2,18.1C12.3,18.1,12.2,18.1,12.2,18.1z M12.2,14.1C12.2,14.1,12.2,14.1,12.2,14.1
				c-0.9,0-1.6,0.8-1.6,1.6c0,0.9,0.8,1.6,1.6,1.5c0.9,0,1.6-0.8,1.5-1.6v0c0-0.4-0.2-0.8-0.5-1.1C13,14.3,12.6,14.1,12.2,14.1z"/>
		</g>
		<g>
			<path class="st5" d="M11.4,16.2c-0.2,0-0.4-0.2-0.4-0.4c0-0.9,0.7-1.2,1.1-1.2c0,0,0,0,0,0c0.2,0,0.4,0.2,0.4,0.4
				c0,0.2-0.2,0.4-0.4,0.4c-0.2,0-0.4,0.1-0.4,0.4C11.8,16,11.6,16.1,11.4,16.2C11.4,16.2,11.4,16.2,11.4,16.2z"/>
		</g>
	</g>
	<g>
		<g>
			<circle class="st0" cx="15.9" cy="32.7" r="2"/>
			<path class="st1" d="M15.9,35.1c-0.6,0-1.2-0.2-1.6-0.6c-0.5-0.4-0.7-1-0.7-1.7c0-0.6,0.2-1.2,0.6-1.7c0.4-0.5,1-0.7,1.7-0.7
				c0,0,0,0,0.1,0c1.3,0,2.3,1,2.4,2.3v0C18.3,33.9,17.3,35,15.9,35.1C15.9,35.1,15.9,35.1,15.9,35.1z M15.9,31.1
				C15.9,31.1,15.9,31.1,15.9,31.1c-0.5,0-0.9,0.2-1.2,0.5c-0.3,0.3-0.4,0.7-0.4,1.1c0,0.4,0.2,0.8,0.5,1.1c0.3,0.3,0.7,0.4,1.1,0.4
				c0.9,0,1.6-0.8,1.5-1.6l0,0C17.5,31.8,16.8,31.1,15.9,31.1z"/>
		</g>
		<g>
			<path class="st5" d="M15.1,33.1c-0.2,0-0.4-0.2-0.4-0.4c0-0.9,0.7-1.2,1.1-1.2c0.2,0,0.4,0.2,0.4,0.4c0,0.2-0.2,0.4-0.4,0.4
				c-0.2,0-0.4,0.1-0.4,0.4C15.5,32.9,15.3,33.1,15.1,33.1C15.1,33.1,15.1,33.1,15.1,33.1z"/>
		</g>
	</g>
	<g>
		<g>
			<circle class="st0" cx="22.5" cy="53.9" r="2"/>
			<path class="st1" d="M22.5,56.3c-0.6,0-1.2-0.2-1.6-0.6c-0.5-0.4-0.7-1-0.7-1.7c0-0.6,0.2-1.2,0.6-1.7c0.4-0.5,1-0.7,1.7-0.7
				c0.6,0,1.2,0.2,1.7,0.6c0.5,0.4,0.7,1,0.7,1.7l0,0c0,0.6-0.2,1.2-0.6,1.7C23.8,56,23.2,56.2,22.5,56.3
				C22.5,56.3,22.5,56.3,22.5,56.3z M22.5,52.3C22.5,52.3,22.5,52.3,22.5,52.3c-0.5,0-0.9,0.2-1.2,0.5c-0.3,0.3-0.4,0.7-0.4,1.1
				c0,0.4,0.2,0.8,0.5,1.1c0.3,0.3,0.7,0.5,1.1,0.4c0.4,0,0.8-0.2,1.1-0.5c0.3-0.3,0.4-0.7,0.4-1.1v0c0-0.4-0.2-0.8-0.5-1.1
				C23.3,52.5,22.9,52.3,22.5,52.3z"/>
		</g>
		<g>
			<path class="st5" d="M21.7,54.3c-0.2,0-0.4-0.2-0.4-0.4c0-0.9,0.7-1.2,1.1-1.2c0,0,0,0,0,0c0.2,0,0.4,0.2,0.4,0.4
				c0,0.2-0.2,0.4-0.4,0.4c-0.2,0-0.4,0.1-0.4,0.4C22.1,54.1,21.9,54.3,21.7,54.3C21.7,54.3,21.7,54.3,21.7,54.3z"/>
		</g>
	</g>
	<g>
		<g>
			<circle class="st0" cx="32.5" cy="69.1" r="2"/>
			<path class="st1" d="M32.5,71.4c-0.6,0-1.2-0.2-1.6-0.6c-0.5-0.4-0.7-1-0.7-1.7c0-1.3,1-2.4,2.3-2.4c0,0,0,0,0.1,0
				c1.3,0,2.3,1,2.4,2.3l0,0C34.9,70.3,33.9,71.4,32.5,71.4C32.5,71.4,32.5,71.4,32.5,71.4z M32.5,67.5
				C32.5,67.5,32.4,67.5,32.5,67.5c-0.5,0-0.9,0.2-1.2,0.5c-0.3,0.3-0.4,0.7-0.4,1.1c0,0.4,0.2,0.8,0.5,1.1c0.3,0.3,0.7,0.5,1.1,0.4
				c0.9,0,1.6-0.8,1.5-1.6l0,0C34,68.1,33.3,67.5,32.5,67.5z"/>
		</g>
		<g>
			<path class="st5" d="M31.7,69.5c-0.2,0-0.4-0.2-0.4-0.4c0-0.5,0.2-0.8,0.6-1.1c0.3-0.1,0.5-0.2,0.6-0.2c0.2,0,0.4,0.2,0.4,0.4
				c0,0.2-0.2,0.4-0.4,0.4c-0.2,0-0.4,0.1-0.4,0.4C32.1,69.3,31.9,69.5,31.7,69.5C31.7,69.5,31.7,69.5,31.7,69.5z"/>
		</g>
	</g>
	<g>
		<g>
			<circle class="st0" cx="44.8" cy="82.2" r="2"/>
			<path class="st1" d="M44.8,84.5c-1.3,0-2.3-1-2.4-2.3c0-1.3,1-2.4,2.3-2.4c1.3,0,2.4,1,2.4,2.3l0,0
				C47.2,83.4,46.1,84.5,44.8,84.5C44.8,84.5,44.8,84.5,44.8,84.5z M44.8,80.6C44.8,80.6,44.7,80.6,44.8,80.6
				c-0.9,0-1.6,0.8-1.6,1.6c0,0.9,0.7,1.6,1.6,1.5c0.9,0,1.6-0.8,1.5-1.6l0,0c0-0.4-0.2-0.8-0.5-1.1C45.6,80.7,45.2,80.6,44.8,80.6z
				"/>
		</g>
		<g>
			<path class="st5" d="M44,82.6c-0.2,0-0.4-0.2-0.4-0.4c0-0.9,0.7-1.2,1.1-1.2c0.2,0,0.4,0.2,0.4,0.4c0,0.2-0.2,0.4-0.4,0.4
				c-0.2,0-0.4,0.1-0.4,0.4C44.4,82.4,44.2,82.6,44,82.6C44,82.6,44,82.6,44,82.6z"/>
		</g>
	</g>
	<g>
		<g>
			<circle class="st0" cx="57.4" cy="67.9" r="2"/>
			<path class="st1" d="M57.4,70.3c-0.6,0-1.2-0.2-1.6-0.6c-0.5-0.4-0.7-1-0.7-1.7c0-0.6,0.2-1.2,0.6-1.7c0.4-0.5,1-0.7,1.7-0.7
				c0.6,0,1.2,0.2,1.7,0.6c0.5,0.4,0.7,1,0.7,1.7l0,0c0,0.6-0.2,1.2-0.6,1.7C58.7,70,58.1,70.2,57.4,70.3
				C57.5,70.3,57.4,70.3,57.4,70.3z M57.4,66.3C57.4,66.3,57.4,66.3,57.4,66.3c-0.5,0-0.9,0.2-1.2,0.5c-0.3,0.3-0.4,0.7-0.4,1.1
				c0,0.4,0.2,0.8,0.5,1.1c0.3,0.3,0.7,0.4,1.1,0.4c0.9,0,1.6-0.8,1.5-1.6l0,0c0-0.4-0.2-0.8-0.5-1.1C58.2,66.5,57.8,66.3,57.4,66.3
				z"/>
		</g>
		<g>
			<path class="st5" d="M56.6,68.3c-0.2,0-0.4-0.2-0.4-0.4c0-0.5,0.2-0.8,0.6-1.1c0.3-0.1,0.5-0.2,0.6-0.2c0,0,0,0,0,0
				c0.2,0,0.4,0.2,0.4,0.4c0,0.2-0.2,0.4-0.4,0.4c-0.2,0-0.4,0.1-0.4,0.4C57,68.1,56.9,68.3,56.6,68.3
				C56.6,68.3,56.6,68.3,56.6,68.3z"/>
		</g>
	</g>
	<g>
		<g>
			<circle class="st0" cx="66.1" cy="52.6" r="2"/>
			<path class="st1" d="M66.1,54.9c-0.6,0-1.2-0.2-1.6-0.6c-0.5-0.4-0.7-1-0.7-1.7c0-0.6,0.2-1.2,0.6-1.7c0.4-0.5,1-0.7,1.7-0.7
				c0.6,0,1.2,0.2,1.7,0.6c0.5,0.4,0.7,1,0.7,1.7l0,0c0,0.6-0.2,1.2-0.6,1.7C67.4,54.6,66.8,54.9,66.1,54.9
				C66.1,54.9,66.1,54.9,66.1,54.9z M66.1,51C66.1,51,66,51,66.1,51c-0.5,0-0.9,0.2-1.2,0.5c-0.3,0.3-0.4,0.7-0.4,1.1
				c0,0.4,0.2,0.8,0.5,1.1c0.3,0.3,0.7,0.4,1.1,0.4c0.4,0,0.8-0.2,1.1-0.5c0.3-0.3,0.4-0.7,0.4-1.1v0c0-0.4-0.2-0.8-0.5-1.1
				C66.9,51.1,66.5,51,66.1,51z"/>
		</g>
		<g>
			<path class="st5" d="M65.3,53c-0.2,0-0.4-0.2-0.4-0.4c0-0.9,0.7-1.2,1.1-1.2c0,0,0,0,0,0c0.2,0,0.4,0.2,0.4,0.4
				c0,0.2-0.2,0.4-0.4,0.4c-0.2,0-0.4,0.1-0.4,0.4C65.7,52.8,65.5,53,65.3,53C65.3,53,65.3,53,65.3,53z"/>
		</g>
	</g>
	<g>
		<g>
			<circle class="st0" cx="71.3" cy="30.2" r="2"/>
			<path class="st1" d="M71.3,32.6c-0.6,0-1.2-0.2-1.6-0.6c-0.5-0.4-0.7-1-0.7-1.7c0-0.6,0.2-1.2,0.6-1.7c0.4-0.5,1-0.7,1.7-0.7
				c0.6,0,1.2,0.2,1.7,0.6c0.5,0.4,0.7,1,0.7,1.7l0,0c0,0.6-0.2,1.2-0.6,1.7C72.6,32.3,72,32.5,71.3,32.6
				C71.4,32.6,71.4,32.6,71.3,32.6z M71.3,28.6C71.3,28.6,71.3,28.6,71.3,28.6c-0.5,0-0.9,0.2-1.2,0.5c-0.3,0.3-0.4,0.7-0.4,1.1
				c0,0.4,0.2,0.8,0.5,1.1c0.3,0.3,0.7,0.4,1.1,0.4c0.4,0,0.8-0.2,1.1-0.5c0.3-0.3,0.4-0.7,0.4-1.1v0c0-0.4-0.2-0.8-0.5-1.1
				C72.1,28.8,71.7,28.6,71.3,28.6z"/>
		</g>
		<g>
			<path class="st5" d="M70.5,30.6c-0.2,0-0.4-0.2-0.4-0.4c0-0.9,0.7-1.2,1.1-1.2c0,0,0,0,0,0c0.2,0,0.4,0.2,0.4,0.4
				c0,0.2-0.2,0.4-0.4,0.4c-0.2,0-0.4,0.1-0.4,0.4C70.9,30.4,70.8,30.6,70.5,30.6C70.6,30.6,70.5,30.6,70.5,30.6z"/>
		</g>
	</g>
	<g>
		<g>
			<circle class="st0" cx="73.6" cy="12.7" r="2"/>
			<path class="st1" d="M73.6,15c-0.6,0-1.2-0.2-1.6-0.6c-0.5-0.4-0.7-1-0.7-1.7c0-0.6,0.2-1.2,0.6-1.7c0.4-0.5,1-0.7,1.7-0.7
				c0.6,0,1.2,0.2,1.7,0.6c0.5,0.4,0.7,1,0.7,1.7l0,0c0,0.6-0.2,1.2-0.6,1.7C74.9,14.8,74.3,15,73.6,15C73.6,15,73.6,15,73.6,15z
				 M73.6,11.1C73.6,11.1,73.5,11.1,73.6,11.1c-0.5,0-0.9,0.2-1.2,0.5c-0.3,0.3-0.4,0.7-0.4,1.1c0,0.4,0.2,0.8,0.5,1.1
				c0.3,0.3,0.7,0.4,1.1,0.4c0.4,0,0.8-0.2,1.1-0.5c0.3-0.3,0.4-0.7,0.4-1.1v0c0-0.4-0.2-0.8-0.5-1.1C74.4,11.2,74,11.1,73.6,11.1z"
				/>
		</g>
		<g>
			<path class="st5" d="M72.8,13.1c-0.2,0-0.4-0.2-0.4-0.4c0-0.9,0.7-1.2,1.1-1.2c0,0,0,0,0,0c0.2,0,0.4,0.2,0.4,0.4
				c0,0.2-0.2,0.4-0.4,0.4c-0.2,0-0.4,0.1-0.4,0.4C73.2,12.9,73,13.1,72.8,13.1C72.8,13.1,72.8,13.1,72.8,13.1z"/>
		</g>
	</g>
	<g>
		<g>
			<circle class="st0" cx="42.8" cy="19.2" r="2"/>
			<path class="st1" d="M42.8,21.5c-1.3,0-2.3-1-2.4-2.3c0-1.3,1-2.4,2.3-2.4c0,0,0,0,0.1,0c1.3,0,2.3,1,2.4,2.3v0
				C45.3,20.4,44.2,21.5,42.8,21.5C42.9,21.5,42.9,21.5,42.8,21.5z M42.8,17.6C42.8,17.6,42.8,17.6,42.8,17.6
				c-0.9,0-1.6,0.8-1.6,1.6c0,0.4,0.2,0.8,0.5,1.1c0.3,0.3,0.7,0.4,1.1,0.4c0.9,0,1.6-0.8,1.5-1.6l0,0
				C44.4,18.3,43.7,17.6,42.8,17.6z"/>
		</g>
		<g>
			<path class="st5" d="M42.1,19.6c-0.2,0-0.4-0.2-0.4-0.4c0-0.5,0.2-0.8,0.6-1.1c0.3-0.1,0.5-0.2,0.6-0.2c0.2,0,0.4,0.2,0.4,0.4
				c0,0.2-0.2,0.4-0.4,0.4c-0.2,0-0.4,0.1-0.4,0.4C42.4,19.4,42.3,19.6,42.1,19.6C42.1,19.6,42.1,19.6,42.1,19.6z"/>
		</g>
	</g>
	<g>
		<g>
			<circle class="st0" cx="59.8" cy="17.1" r="2"/>
			<path class="st1" d="M59.8,19.4c-0.6,0-1.2-0.2-1.6-0.6c-0.5-0.4-0.7-1-0.7-1.7c0-0.6,0.2-1.2,0.6-1.7c0.4-0.5,1-0.7,1.7-0.7
				c0.6,0,1.2,0.2,1.7,0.6c0.5,0.4,0.7,1,0.7,1.7l0,0c0,0.6-0.2,1.2-0.6,1.7C61.1,19.1,60.5,19.4,59.8,19.4
				C59.9,19.4,59.9,19.4,59.8,19.4z M59.8,15.5C59.8,15.5,59.8,15.5,59.8,15.5c-0.5,0-0.9,0.2-1.2,0.5c-0.3,0.3-0.4,0.7-0.4,1.1
				c0,0.4,0.2,0.8,0.5,1.1c0.3,0.3,0.7,0.4,1.1,0.4c0.4,0,0.8-0.2,1.1-0.5s0.4-0.7,0.4-1.1v0c0-0.4-0.2-0.8-0.5-1.1
				C60.6,15.6,60.2,15.5,59.8,15.5z"/>
		</g>
		<g>
			<path class="st5" d="M59,17.5c-0.2,0-0.4-0.2-0.4-0.4c0-0.9,0.7-1.2,1.1-1.2c0.2,0,0.4,0.2,0.4,0.4c0,0.2-0.2,0.4-0.4,0.4
				c-0.2,0-0.4,0.1-0.4,0.4C59.4,17.3,59.3,17.5,59,17.5C59,17.5,59,17.5,59,17.5z"/>
		</g>
	</g>
	<g>
		<g>
			<circle class="st0" cx="26.2" cy="18.5" r="2"/>
			<path class="st1" d="M26.2,20.9c-0.6,0-1.2-0.2-1.6-0.6c-0.5-0.4-0.7-1-0.7-1.7c0-0.6,0.2-1.2,0.6-1.7c0.4-0.5,1-0.7,1.7-0.7
				c0.6,0,1.2,0.2,1.7,0.6c0.5,0.4,0.7,1,0.7,1.7l0,0c0,0.6-0.2,1.2-0.6,1.7C27.5,20.6,26.9,20.8,26.2,20.9
				C26.2,20.9,26.2,20.9,26.2,20.9z M26.2,16.9C26.2,16.9,26.1,16.9,26.2,16.9c-0.5,0-0.9,0.2-1.2,0.5c-0.3,0.3-0.4,0.7-0.4,1.1
				c0,0.4,0.2,0.8,0.5,1.1c0.3,0.3,0.7,0.4,1.1,0.4c0.4,0,0.8-0.2,1.1-0.5c0.3-0.3,0.4-0.7,0.4-1.1v0c0-0.4-0.2-0.8-0.5-1.1
				C27,17,26.6,16.9,26.2,16.9z"/>
		</g>
		<g>
			<path class="st5" d="M25.4,18.9c-0.2,0-0.4-0.2-0.4-0.4c0-0.9,0.7-1.2,1.1-1.2c0.2,0,0.4,0.2,0.4,0.4c0,0.2-0.2,0.4-0.4,0.4
				c-0.2,0-0.4,0.1-0.4,0.4C25.8,18.7,25.6,18.9,25.4,18.9C25.4,18.9,25.4,18.9,25.4,18.9z"/>
		</g>
	</g>
	<g class="st6">
		<g>
			<path class="st7" d="M34.5,35.5l-0.1,0.1c-0.6,0.6-1,1.3-1.2,2.2l0,0l-2-2.1c-0.6-0.6-0.8-1.5-0.5-2.4l0.1-0.2
				c0.1-0.3,0.3-0.5,0.5-0.7l0.6-0.4c0.2-0.1,0.4-0.2,0.7-0.1l0.1,0c0.2,0,0.3,0,0.5,0v0c0.2-0.1,0.5-0.1,0.8,0.1l0.7,0.4
				c0.3,0.1,0.5,0.4,0.6,0.7l0,0C35.3,33.9,35.1,34.9,34.5,35.5z"/>
			<path class="st1" d="M33.3,38.1L31,35.8c-0.6-0.6-0.8-1.7-0.6-2.6l0.1-0.2c0.1-0.3,0.3-0.6,0.6-0.8l0.6-0.4
				c0.2-0.2,0.5-0.2,0.8-0.2l0.1,0c0.1,0,0.3,0,0.4,0c0.3-0.1,0.6-0.1,0.9,0.1l0.7,0.4c0.3,0.2,0.5,0.5,0.7,0.9
				c0.3,0.9,0.1,2-0.6,2.6l-0.1,0.1c-0.5,0.5-0.9,1.3-1.1,2.1L33.3,38.1z M32.2,32.1c-0.1,0-0.3,0-0.4,0.1l-0.6,0.4
				c-0.2,0.1-0.3,0.3-0.4,0.6l-0.1,0.2c-0.2,0.8-0.1,1.6,0.5,2.2l1.8,1.9c0.2-0.8,0.6-1.4,1.2-1.9l0.1-0.1c0.5-0.5,0.7-1.4,0.5-2.2
				c-0.1-0.3-0.3-0.5-0.5-0.6l-0.7-0.4c-0.2-0.1-0.4-0.1-0.6,0c-0.2,0.1-0.4,0.1-0.6,0l-0.1,0C32.3,32.1,32.3,32.1,32.2,32.1z"/>
		</g>
		<g>
			<path class="st7" d="M31.6,39.8l0.1-0.1c0.6-0.6,1-1.3,1.2-2.2v0l2,2.1c0.6,0.6,0.8,1.5,0.5,2.4l-0.1,0.2
				c-0.1,0.3-0.3,0.5-0.5,0.7l-0.6,0.4c-0.2,0.1-0.4,0.2-0.7,0.1l-0.1,0c-0.2,0-0.3,0-0.5,0l0,0c-0.2,0.1-0.5,0.1-0.8-0.1l-0.7-0.4
				c-0.3-0.1-0.5-0.4-0.6-0.7l0,0C30.8,41.3,31,40.4,31.6,39.8z"/>
			<path class="st1" d="M32.8,43.6c-0.2,0-0.4,0-0.5-0.1l-0.7-0.4c-0.3-0.2-0.5-0.5-0.7-0.9c-0.3-0.9-0.1-2,0.6-2.6l0.1-0.1
				c0.5-0.5,0.9-1.3,1.1-2.1l0.1-0.3l2.3,2.4c0.6,0.6,0.8,1.7,0.6,2.6l-0.1,0.2c-0.1,0.3-0.3,0.6-0.6,0.8l-0.6,0.4
				c-0.2,0.2-0.5,0.2-0.8,0.2l-0.1,0c-0.1,0-0.3,0-0.4,0C33.1,43.6,32.9,43.6,32.8,43.6z M33,37.9c-0.2,0.8-0.6,1.4-1.2,1.9L31.8,40
				c-0.5,0.5-0.7,1.4-0.5,2.2c0.1,0.3,0.3,0.5,0.5,0.6l0.7,0.4c0.2,0.1,0.4,0.1,0.6,0c0.2-0.1,0.4-0.1,0.6,0l0.1,0
				c0.2,0,0.4,0,0.5-0.1l0.6-0.4c0.2-0.1,0.3-0.3,0.4-0.6l0.1-0.2c0.2-0.8,0.1-1.6-0.5-2.2L33,37.9z M31.6,39.8L31.6,39.8L31.6,39.8
				z"/>
		</g>
		<g>
			<path class="st7" d="M31.2,35.9l0.1,0.2c0.5,0.7,1.1,1.2,1.8,1.5l0,0l-1.7,2.4c-0.5,0.7-1.3,0.9-2,0.6l-0.2-0.1
				c-0.2-0.1-0.4-0.3-0.6-0.6l-0.3-0.7c-0.1-0.3-0.2-0.5-0.1-0.8l0-0.1c0-0.2,0-0.4,0-0.6l0,0c-0.1-0.3-0.1-0.6,0-0.9l0.3-0.9
				c0.1-0.3,0.3-0.6,0.6-0.7h0C30,34.9,30.8,35.2,31.2,35.9z"/>
			<path class="st1" d="M30.1,40.9c-0.2,0-0.5-0.1-0.7-0.2l-0.2-0.1c-0.3-0.1-0.5-0.4-0.7-0.7l-0.3-0.7c-0.1-0.3-0.2-0.6-0.1-0.9
				l0-0.1c0-0.2,0-0.3,0-0.5c-0.1-0.3-0.1-0.7,0-1l0.3-0.9c0.1-0.4,0.4-0.7,0.7-0.8c0.8-0.3,1.7,0,2.2,0.7v0l0.1,0.2
				c0.4,0.7,1,1.1,1.7,1.4l0.2,0.1L31.6,40C31.2,40.6,30.7,40.9,30.1,40.9z M29.8,35.3c-0.2,0-0.3,0-0.5,0.1
				c-0.2,0.1-0.4,0.3-0.5,0.6l-0.3,0.9c-0.1,0.3-0.1,0.5,0,0.8c0.1,0.2,0.1,0.4,0,0.7l0,0.1c0,0.2,0,0.5,0.1,0.7l0.3,0.7
				c0.1,0.2,0.3,0.4,0.5,0.5l0.2,0.1c0.6,0.3,1.3,0.1,1.7-0.5l1.6-2.2c-0.7-0.3-1.2-0.8-1.7-1.4L31.1,36
				C30.8,35.5,30.3,35.3,29.8,35.3z"/>
		</g>
		<g>
			<path class="st7" d="M34.9,39.4l-0.1-0.2c-0.5-0.7-1.1-1.2-1.8-1.5h0l1.7-2.4c0.5-0.7,1.3-0.9,2-0.6l0.2,0.1
				c0.2,0.1,0.4,0.3,0.6,0.6l0.3,0.7c0.1,0.3,0.2,0.5,0.1,0.8l0,0.1c0,0.2,0,0.4,0,0.6l0,0c0.1,0.3,0.1,0.6,0,0.9l-0.3,0.9
				c-0.1,0.3-0.3,0.6-0.6,0.7h0C36.2,40.4,35.4,40.1,34.9,39.4z"/>
			<path class="st1" d="M36.3,40.4c-0.6,0-1.2-0.3-1.5-0.9v0l-0.1-0.2c-0.5-0.7-1-1.1-1.7-1.4l-0.2-0.1l1.9-2.6
				c0.5-0.8,1.4-1,2.2-0.6l0.2,0.1c0.3,0.1,0.5,0.4,0.7,0.7l0.3,0.7c0.1,0.3,0.2,0.6,0.1,0.9l0,0.1c0,0.2,0,0.3,0,0.5
				c0.1,0.3,0.1,0.7,0,1l-0.3,0.9c-0.1,0.4-0.4,0.7-0.7,0.8C36.7,40.3,36.5,40.4,36.3,40.4z M35,39.3c0.4,0.6,1.1,0.9,1.7,0.6
				c0.2-0.1,0.4-0.3,0.5-0.6l0.3-0.9c0.1-0.3,0.1-0.5,0-0.8c-0.1-0.2-0.1-0.4,0-0.7l0-0.1c0-0.2,0-0.5-0.1-0.7l-0.3-0.7
				c-0.1-0.2-0.3-0.4-0.5-0.5l-0.2-0.1c-0.6-0.3-1.3-0.1-1.7,0.5l-1.6,2.2c0.7,0.3,1.2,0.8,1.7,1.4L35,39.3z"/>
		</g>
		<g>
			<path class="st8" d="M34.1,37.7c0,0.3-0.2,0.3-0.3,0.5c-0.2,0.2-0.3,0.7-0.6,0.7c-0.3,0-0.3-0.3-0.5-0.5
				c-0.2-0.2-0.5-0.3-0.5-0.7c0-0.3,0.3-0.4,0.5-0.7c0.2-0.2,0.2-0.5,0.5-0.5c0.3,0,0.4,0.4,0.6,0.6C33.8,37.4,34.1,37.3,34.1,37.7z
				"/>
			<path class="st1" d="M33.1,39.1c-0.3,0-0.4-0.2-0.5-0.4c0-0.1-0.1-0.1-0.1-0.2c0-0.1-0.1-0.1-0.2-0.2c-0.2-0.1-0.4-0.3-0.4-0.6
				c0-0.3,0.2-0.5,0.3-0.6c0.1-0.1,0.1-0.1,0.2-0.2c0-0.1,0.1-0.1,0.1-0.2c0.1-0.2,0.2-0.4,0.5-0.4c0.3,0,0.5,0.3,0.6,0.5
				c0,0.1,0.1,0.2,0.1,0.2c0,0.1,0.1,0.1,0.2,0.1c0.1,0.1,0.3,0.2,0.3,0.5c0,0.3-0.1,0.4-0.3,0.5c-0.1,0-0.1,0.1-0.1,0.1
				c0,0.1-0.1,0.1-0.1,0.2C33.6,38.7,33.5,39,33.1,39.1C33.1,39.1,33.1,39.1,33.1,39.1z M33.1,36.7C33.1,36.7,33.1,36.7,33.1,36.7
				c-0.1,0-0.1,0-0.2,0.2c0,0.1-0.1,0.2-0.1,0.3c-0.1,0.1-0.1,0.2-0.2,0.2c-0.1,0.1-0.2,0.2-0.2,0.3c0,0.1,0.1,0.2,0.3,0.3
				c0.1,0.1,0.2,0.1,0.2,0.2c0.1,0.1,0.1,0.2,0.2,0.3c0.1,0.2,0.1,0.2,0.1,0.2c0.1,0,0.2-0.2,0.3-0.4c0-0.1,0.1-0.2,0.1-0.3
				c0.1-0.1,0.2-0.2,0.2-0.2c0.1-0.1,0.1-0.1,0.1-0.2v0c0-0.1,0-0.1-0.1-0.2c-0.1,0-0.1-0.1-0.2-0.2c-0.1-0.1-0.1-0.2-0.2-0.3
				C33.2,36.9,33.1,36.7,33.1,36.7z"/>
		</g>
	</g>
	<g class="st6">
		<g>
			<path class="st7" d="M56.5,34l-0.2,0.1c-0.7,0.6-1.2,1.5-1.4,2.4l0,0l-2.4-2.3c-0.7-0.6-0.9-1.7-0.6-2.6l0.1-0.2
				c0.1-0.3,0.3-0.6,0.6-0.7l0.7-0.4c0.2-0.1,0.5-0.2,0.8-0.2l0.1,0c0.2,0,0.4,0,0.6,0h0c0.3-0.1,0.6-0.1,0.9,0.1l0.8,0.4
				c0.3,0.2,0.5,0.5,0.7,0.8v0C57.4,32.3,57.2,33.3,56.5,34z"/>
			<path class="st1" d="M55.1,36.9l-2.6-2.6c-0.7-0.7-1-1.8-0.6-2.8l0.1-0.2c0.1-0.4,0.3-0.7,0.6-0.8l0.7-0.4
				c0.3-0.2,0.6-0.2,0.9-0.2l0.1,0c0.2,0,0.3,0,0.5,0c0.3-0.1,0.7-0.1,1,0.1l0.8,0.4c0.4,0.2,0.6,0.5,0.8,0.9c0.3,1,0.1,2.1-0.7,2.8
				l-0.2,0.1c-0.6,0.6-1.1,1.4-1.3,2.3L55.1,36.9z M53.9,30.2c-0.2,0-0.3,0-0.5,0.1l-0.7,0.4c-0.2,0.1-0.4,0.4-0.5,0.6l-0.1,0.2
				c-0.3,0.9-0.1,1.8,0.5,2.4l2.1,2.1c0.3-0.9,0.7-1.6,1.4-2.2l0.2-0.1c0.6-0.6,0.9-1.5,0.6-2.4c-0.1-0.3-0.3-0.6-0.6-0.7l-0.8-0.4
				c-0.2-0.1-0.5-0.1-0.7-0.1c-0.2,0.1-0.4,0.1-0.7,0.1l-0.1,0C54,30.2,53.9,30.2,53.9,30.2z M56.5,34L56.5,34L56.5,34z"/>
		</g>
		<g>
			<path class="st7" d="M53.2,38.8l0.2-0.1c0.7-0.6,1.2-1.5,1.4-2.4l0,0l2.4,2.3c0.7,0.6,0.9,1.7,0.6,2.6l-0.1,0.2
				c-0.1,0.3-0.3,0.6-0.6,0.7l-0.7,0.4c-0.2,0.1-0.5,0.2-0.8,0.2l-0.1,0c-0.2,0-0.4,0-0.6,0h0c-0.3,0.1-0.6,0.1-0.9-0.1l-0.8-0.4
				c-0.3-0.2-0.5-0.5-0.7-0.8l0,0C52.2,40.5,52.5,39.4,53.2,38.8z"/>
			<path class="st1" d="M54.5,43c-0.2,0-0.4,0-0.6-0.1l-0.8-0.4c-0.4-0.2-0.6-0.5-0.8-0.9c-0.3-1-0.1-2.1,0.7-2.8l0.2-0.1
				c0.6-0.6,1.1-1.4,1.3-2.3l0.1-0.3l2.6,2.6c0.7,0.7,1,1.8,0.6,2.8l-0.1,0.2c-0.1,0.4-0.3,0.7-0.6,0.8l-0.7,0.4
				c-0.3,0.2-0.6,0.2-0.9,0.2l-0.1,0c-0.2,0-0.3,0-0.5,0C54.8,42.9,54.7,43,54.5,43z M54.8,36.6c-0.3,0.9-0.7,1.6-1.4,2.2l-0.2,0.1
				c-0.6,0.6-0.9,1.5-0.6,2.4c0.1,0.3,0.3,0.6,0.6,0.7l0.8,0.4c0.2,0.1,0.5,0.1,0.7,0.1c0.2-0.1,0.4-0.1,0.7-0.1l0.1,0
				c0.2,0,0.5,0,0.7-0.1l0.7-0.4c0.2-0.1,0.4-0.4,0.5-0.6l0.1-0.2c0.3-0.9,0.1-1.8-0.5-2.4L54.8,36.6z M53.2,38.8L53.2,38.8
				L53.2,38.8z"/>
		</g>
		<g>
			<path class="st7" d="M52.7,34.4l0.1,0.2c0.5,0.8,1.3,1.3,2.1,1.6l0,0l-2,2.7c-0.6,0.7-1.5,1-2.3,0.6l-0.2-0.1
				c-0.3-0.1-0.5-0.4-0.7-0.7l-0.4-0.8c-0.1-0.3-0.2-0.6-0.1-0.9l0-0.1c0-0.2,0-0.4,0-0.6v0c-0.1-0.3-0.1-0.7,0-1l0.4-0.9
				c0.1-0.4,0.4-0.6,0.7-0.8l0,0C51.2,33.4,52.1,33.7,52.7,34.4z"/>
			<path class="st1" d="M51.4,39.9c-0.3,0-0.6-0.1-0.8-0.2l-0.2-0.1c-0.3-0.1-0.6-0.4-0.7-0.7l-0.4-0.8c-0.1-0.3-0.2-0.7-0.2-1
				l0-0.1c0-0.2,0-0.4,0-0.6c-0.1-0.4-0.1-0.8,0.1-1.1l0.4-0.9c0.2-0.4,0.5-0.7,0.8-0.9c0.9-0.4,1.9-0.1,2.5,0.8l0.1,0.2
				c0.5,0.7,1.2,1.3,2,1.5l0.3,0.1L53.1,39C52.7,39.6,52,39.9,51.4,39.9z M51.1,33.8c-0.2,0-0.4,0-0.6,0.1c-0.3,0.1-0.5,0.3-0.6,0.6
				l-0.4,0.9c-0.1,0.3-0.1,0.6,0,0.9c0.1,0.2,0.1,0.5,0,0.7l0,0.1c0,0.3,0,0.6,0.1,0.8l0.4,0.8c0.1,0.3,0.3,0.5,0.6,0.6l0.2,0.1
				c0.7,0.3,1.5,0.1,2.1-0.6l1.9-2.5c-0.8-0.3-1.4-0.9-2-1.6l-0.1-0.2C52.2,34,51.6,33.8,51.1,33.8z"/>
		</g>
		<g>
			<path class="st7" d="M57,38.3l-0.1-0.2c-0.5-0.8-1.3-1.3-2.1-1.6l0,0l2-2.7c0.6-0.7,1.5-1,2.3-0.6l0.2,0.1
				c0.3,0.1,0.5,0.4,0.7,0.7l0.4,0.8c0.1,0.3,0.2,0.6,0.1,0.9l0,0.1c0,0.2,0,0.4,0,0.6v0c0.1,0.3,0.1,0.7,0,1L60,38.3
				c-0.1,0.4-0.4,0.6-0.7,0.8l0,0C58.4,39.4,57.5,39.1,57,38.3z"/>
			<path class="st1" d="M58.6,39.4c-0.7,0-1.3-0.3-1.8-1l-0.1-0.2c-0.5-0.7-1.2-1.3-2-1.5l-0.3-0.1l2.2-2.9c0.6-0.8,1.6-1.1,2.5-0.7
				l0.2,0.1c0.3,0.1,0.6,0.4,0.7,0.7l0.4,0.8c0.1,0.3,0.2,0.7,0.2,1l0,0.1c0,0.2,0,0.4,0,0.6c0.1,0.4,0.1,0.8-0.1,1.1l-0.4,0.9
				c-0.2,0.4-0.5,0.7-0.8,0.9C59.1,39.3,58.8,39.4,58.6,39.4z M57.1,38.2c0.5,0.7,1.3,1,2.1,0.7c0.3-0.1,0.5-0.3,0.6-0.6l0.4-0.9
				c0.1-0.3,0.1-0.6,0-0.9c-0.1-0.2-0.1-0.5,0-0.7l0-0.1c0-0.3,0-0.6-0.1-0.8L59.7,34c-0.1-0.3-0.3-0.5-0.6-0.6l-0.2-0.1
				c-0.7-0.3-1.5-0.1-2.1,0.6L55,36.4c0.8,0.3,1.4,0.9,2,1.6L57.1,38.2z"/>
		</g>
		<g>
			<path class="st8" d="M56,36.4c0,0.3-0.2,0.3-0.4,0.5c-0.2,0.3-0.3,0.8-0.7,0.8c-0.3,0-0.3-0.3-0.5-0.5c-0.2-0.2-0.6-0.4-0.6-0.7
				c0-0.3,0.4-0.5,0.6-0.7c0.2-0.3,0.2-0.6,0.5-0.6c0.3,0,0.5,0.4,0.7,0.7C55.7,36.1,56,36.1,56,36.4z"/>
			<path class="st1" d="M54.9,37.9c-0.3,0-0.4-0.2-0.5-0.4c0-0.1-0.1-0.1-0.1-0.2c-0.1-0.1-0.1-0.1-0.2-0.2
				c-0.2-0.2-0.5-0.3-0.5-0.7c0-0.3,0.2-0.5,0.4-0.7c0.1-0.1,0.1-0.1,0.2-0.2c0.1-0.1,0.1-0.1,0.1-0.2c0.1-0.2,0.2-0.4,0.5-0.4
				c0,0,0,0,0,0c0.3,0,0.5,0.3,0.6,0.5c0.1,0.1,0.1,0.2,0.2,0.2c0.1,0.1,0.1,0.1,0.2,0.1c0.2,0.1,0.3,0.2,0.4,0.6v0
				c0,0.3-0.2,0.4-0.3,0.5c-0.1,0-0.1,0.1-0.2,0.1c-0.1,0.1-0.1,0.2-0.1,0.2C55.5,37.6,55.3,37.9,54.9,37.9
				C54.9,37.9,54.9,37.9,54.9,37.9z M54.8,35.4C54.8,35.4,54.8,35.4,54.8,35.4c-0.1,0-0.1,0-0.2,0.2c0,0.1-0.1,0.2-0.2,0.3
				c-0.1,0.1-0.2,0.2-0.3,0.2c-0.2,0.1-0.3,0.2-0.3,0.4c0,0.1,0.1,0.2,0.3,0.4c0.1,0.1,0.2,0.1,0.3,0.2c0.1,0.1,0.1,0.2,0.2,0.3
				c0.1,0.2,0.1,0.2,0.2,0.2c0.1,0,0.3-0.2,0.4-0.4c0.1-0.1,0.1-0.2,0.2-0.3c0.1-0.1,0.2-0.2,0.2-0.2c0.1-0.1,0.1-0.1,0.1-0.2
				c0-0.1,0-0.2-0.2-0.2c-0.1,0-0.2-0.1-0.3-0.2c-0.1-0.1-0.1-0.2-0.2-0.3C55.1,35.5,55,35.4,54.8,35.4z"/>
		</g>
	</g>
	<g class="st6">
		<g>
			<path class="st7" d="M45.4,51.4l-0.1,0.1c-0.6,0.5-1.1,1.2-1.3,2l0,0l-2.2-1.9c-0.6-0.5-0.8-1.4-0.5-2.1l0.1-0.2
				c0.1-0.3,0.3-0.5,0.5-0.6l0.6-0.3c0.2-0.1,0.5-0.2,0.7-0.1l0.1,0c0.2,0,0.4,0,0.5,0v0c0.3-0.1,0.6-0.1,0.8,0l0.8,0.3
				c0.3,0.1,0.5,0.4,0.6,0.7v0C46.3,50,46,50.9,45.4,51.4z"/>
			<path class="st1" d="M44.1,53.8l-2.4-2.1c-0.7-0.6-0.9-1.5-0.6-2.3l0.1-0.2c0.1-0.3,0.3-0.6,0.6-0.7l0.6-0.3
				c0.3-0.1,0.6-0.2,0.9-0.1l0.1,0c0.1,0,0.3,0,0.4,0c0.3-0.1,0.7-0.1,1,0.1l0.8,0.3c0.3,0.1,0.6,0.4,0.7,0.8c0.3,0.8,0,1.8-0.6,2.4
				l-0.1,0.1c-0.6,0.5-1,1.1-1.2,1.9L44.1,53.8z M43,48.4c-0.2,0-0.3,0-0.5,0.1l-0.6,0.3c-0.2,0.1-0.4,0.3-0.4,0.5l-0.1,0.2
				c-0.3,0.7-0.1,1.4,0.5,1.9l2,1.7c0.3-0.7,0.7-1.3,1.3-1.8l0.1-0.1c0.6-0.5,0.8-1.2,0.5-1.9c-0.1-0.2-0.3-0.4-0.5-0.5l-0.8-0.3
				c-0.2-0.1-0.5-0.1-0.7,0c-0.2,0.1-0.4,0.1-0.6,0l-0.1,0C43.1,48.4,43,48.4,43,48.4z M45.4,51.4L45.4,51.4L45.4,51.4z"/>
		</g>
		<g>
			<path class="st7" d="M42.3,55.3l0.1-0.1c0.6-0.5,1.1-1.2,1.3-2l0,0l2.2,1.9c0.6,0.5,0.8,1.4,0.5,2.1l-0.1,0.2
				c-0.1,0.3-0.3,0.5-0.5,0.6l-0.6,0.3c-0.2,0.1-0.5,0.2-0.7,0.1l-0.1,0c-0.2,0-0.4,0-0.5,0l0,0c-0.3,0.1-0.6,0.1-0.8,0l-0.8-0.3
				c-0.3-0.1-0.5-0.4-0.6-0.7l0,0C41.4,56.7,41.7,55.8,42.3,55.3z"/>
			<path class="st1" d="M43.6,58.8c-0.2,0-0.4,0-0.6-0.1l-0.8-0.3c-0.3-0.1-0.6-0.4-0.7-0.8c-0.3-0.8,0-1.8,0.6-2.4l0.1-0.1
				c0.6-0.5,1-1.1,1.2-1.9l0.1-0.3L46,55c0.7,0.6,0.9,1.5,0.6,2.3l-0.1,0.2c-0.1,0.3-0.3,0.6-0.6,0.7l-0.6,0.3
				c-0.3,0.1-0.6,0.2-0.9,0.1l-0.1,0c-0.1,0-0.3,0-0.4,0C43.8,58.7,43.7,58.8,43.6,58.8z M42.4,55.5c-0.6,0.5-0.8,1.2-0.5,1.9
				c0.1,0.2,0.3,0.4,0.5,0.6l0.8,0.3c0.2,0.1,0.5,0.1,0.7,0c0.2-0.1,0.4-0.1,0.6,0l0.1,0c0.2,0,0.4,0,0.6-0.1l0.6-0.3
				c0.2-0.1,0.4-0.3,0.4-0.5l0.1-0.2c0.3-0.7,0.1-1.4-0.5-1.9l-2-1.7c-0.3,0.7-0.7,1.3-1.3,1.8L42.4,55.5z"/>
		</g>
		<g>
			<path class="st7" d="M41.9,51.8l0.1,0.1c0.5,0.6,1.2,1.1,2,1.3l0,0l-1.9,2.2c-0.5,0.6-1.4,0.8-2.1,0.5l-0.2-0.1
				c-0.3-0.1-0.5-0.3-0.6-0.5l-0.3-0.6c-0.1-0.2-0.2-0.5-0.1-0.7l0-0.1c0-0.2,0-0.4,0-0.5l0,0c-0.1-0.3-0.1-0.6,0-0.8l0.3-0.8
				c0.1-0.3,0.4-0.5,0.7-0.6l0,0C40.5,50.9,41.4,51.2,41.9,51.8z"/>
			<path class="st1" d="M40.6,56.3c-0.3,0-0.5,0-0.8-0.1l-0.2-0.1c-0.3-0.1-0.6-0.3-0.7-0.6l-0.3-0.6c-0.1-0.3-0.2-0.6-0.1-0.9
				l0-0.1c0-0.1,0-0.3,0-0.4c-0.1-0.3-0.1-0.7,0.1-1l0.3-0.8c0.1-0.3,0.4-0.6,0.8-0.7c0.8-0.3,1.8,0,2.4,0.6l0.1,0.1
				c0.5,0.6,1.1,1,1.9,1.2l0.3,0.1l-2.1,2.4C41.8,56,41.2,56.3,40.6,56.3z M40.4,51.3c-0.2,0-0.4,0-0.6,0.1
				c-0.2,0.1-0.4,0.3-0.6,0.5l-0.3,0.8c-0.1,0.2-0.1,0.5,0,0.7c0.1,0.2,0.1,0.4,0,0.6l0,0.1c0,0.2,0,0.4,0.1,0.6l0.3,0.6
				c0.1,0.2,0.3,0.4,0.5,0.4l0.2,0.1c0.7,0.3,1.4,0.1,1.9-0.5l1.7-2c-0.7-0.3-1.3-0.7-1.8-1.3l-0.1-0.1
				C41.4,51.5,40.9,51.3,40.4,51.3z"/>
		</g>
		<g>
			<path class="st7" d="M45.8,54.9l-0.1-0.1c-0.5-0.6-1.2-1.1-2-1.3l0,0l1.9-2.2c0.5-0.6,1.4-0.8,2.1-0.5l0.2,0.1
				c0.3,0.1,0.5,0.3,0.6,0.5l0.3,0.6c0.1,0.2,0.2,0.5,0.1,0.7l0,0.1c0,0.2,0,0.4,0,0.5v0c0.1,0.3,0.1,0.6,0,0.8l-0.3,0.8
				c-0.1,0.3-0.4,0.5-0.7,0.6v0C47.2,55.8,46.3,55.6,45.8,54.9z"/>
			<path class="st1" d="M47.3,55.8c-0.6,0-1.2-0.3-1.6-0.8l-0.1-0.1c-0.5-0.6-1.1-1-1.9-1.2l-0.3-0.1l2.1-2.4
				c0.6-0.7,1.5-0.9,2.3-0.6l0.2,0.1c0.3,0.1,0.6,0.3,0.7,0.6l0.3,0.6c0.1,0.3,0.2,0.6,0.1,0.9l0,0.1c0,0.1,0,0.3,0,0.4
				c0.1,0.3,0.1,0.7-0.1,1L48.8,55c-0.1,0.3-0.4,0.6-0.8,0.7C47.8,55.8,47.5,55.8,47.3,55.8z M44.1,53.4c0.7,0.3,1.3,0.7,1.8,1.3
				l0.1,0.1c0.5,0.6,1.2,0.8,1.9,0.5c0.2-0.1,0.4-0.3,0.5-0.5l0.3-0.8c0.1-0.2,0.1-0.5,0-0.7c-0.1-0.2-0.1-0.4,0-0.6l0-0.1
				c0-0.2,0-0.4-0.1-0.6l-0.3-0.6c-0.1-0.2-0.3-0.4-0.5-0.4l-0.2-0.1c-0.7-0.3-1.4-0.1-1.9,0.5L44.1,53.4z"/>
		</g>
		<g>
			<path class="st8" d="M44.9,53.4c0,0.3-0.2,0.3-0.4,0.4c-0.2,0.2-0.3,0.6-0.6,0.6c-0.3,0-0.3-0.2-0.5-0.4
				c-0.2-0.2-0.6-0.3-0.6-0.6c0-0.3,0.4-0.4,0.5-0.6c0.2-0.2,0.2-0.5,0.5-0.5c0.3,0,0.4,0.4,0.6,0.5C44.7,53.1,44.9,53.1,44.9,53.4z
				"/>
			<path class="st1" d="M43.9,54.7c-0.3,0-0.4-0.2-0.5-0.3c0-0.1-0.1-0.1-0.1-0.2c-0.1,0-0.1-0.1-0.2-0.1c-0.2-0.1-0.4-0.3-0.5-0.6
				c0-0.3,0.2-0.4,0.4-0.6c0.1-0.1,0.1-0.1,0.2-0.1c0-0.1,0.1-0.1,0.1-0.2c0.1-0.2,0.2-0.4,0.5-0.4c0.3,0,0.5,0.2,0.6,0.4
				c0,0.1,0.1,0.1,0.1,0.2c0,0,0.1,0.1,0.2,0.1c0.1,0.1,0.3,0.2,0.3,0.5l0,0c0,0.3-0.2,0.4-0.3,0.5c-0.1,0-0.1,0.1-0.1,0.1
				c0,0.1-0.1,0.1-0.1,0.2C44.4,54.4,44.3,54.6,43.9,54.7C43.9,54.7,43.9,54.7,43.9,54.7z M43.9,52.6C43.9,52.6,43.9,52.6,43.9,52.6
				c-0.1,0-0.1,0-0.2,0.2c0,0.1-0.1,0.2-0.2,0.2c-0.1,0.1-0.2,0.1-0.2,0.2c-0.1,0.1-0.2,0.2-0.2,0.3c0,0.1,0.1,0.2,0.3,0.3
				c0.1,0.1,0.2,0.1,0.2,0.2c0.1,0.1,0.1,0.2,0.2,0.2c0.1,0.1,0.1,0.1,0.2,0.1c0.1,0,0.2-0.1,0.3-0.3c0.1-0.1,0.1-0.2,0.2-0.2
				c0.1-0.1,0.2-0.1,0.2-0.2c0.1-0.1,0.1-0.1,0.1-0.1v0c0-0.1,0-0.1-0.1-0.2c-0.1,0-0.2-0.1-0.2-0.2c-0.1-0.1-0.1-0.2-0.2-0.2
				C44,52.7,44,52.6,43.9,52.6z"/>
		</g>
	</g>
</g>
</svg>
