<?xml version="1.0" encoding="utf-8"?>
<!-- Generator: Adobe Illustrator 24.2.3, SVG Export Plug-In . SVG Version: 6.00 Build 0)  -->
<svg version="1.1" id="Lag_1" xmlns="http://www.w3.org/2000/svg" xmlns:xlink="http://www.w3.org/1999/xlink" x="0px" y="0px"
	 viewBox="0 0 98 97.5" style="enable-background:new 0 0 98 97.5;" xml:space="preserve">
<style type="text/css">
	.st0{fill:#85AF75;}
	.st1{fill:#2D2521;}
	.st2{fill:#648463;}
	.st3{fill:#A6D39F;}
	.st4{fill:#7D9979;}
	.st5{fill:#B27570;}
	.st6{fill:#DD9C99;}
	.st7{fill:#F28879;}
	.st8{fill:#FFAEA6;}
</style>
<g>
	<g>
		<g>
			<g>
				<g>
					<g>
						<path class="st0" d="M38.9,62.2c0,0.7,0.8,1.9,2.4,3.1c2.4,1.8,5.4,2.5,8.4,1.9c3.1-0.7,5.8-2.7,7.4-5.5
							c3.2-5.8,7.9-8.7,13.3-8.3c2.2,0.2,4.3-0.1,6.1-0.7c3.1-1.1,7-3.2,8.2-6.7c0.4-1.3,0.4-2.8-0.1-4.3
							c-1.2-3.6-3.3-12.6,3.6-17.3c2.5-1.7,4.2-3.9,5-6.4c1.6-4.8,0.5-8.7-3.1-11.6c-0.7-0.6-0.8-1.6-0.2-2.3
							c0.6-0.7,1.6-0.8,2.3-0.2c4.7,3.8,6.1,9,4.1,15.1c-1.1,3.2-3.2,6-6.3,8.1c-5,3.4-3.3,10.6-2.3,13.6c0.7,2.2,0.8,4.4,0.1,6.3
							c-1.5,4.8-6.4,7.4-10.1,8.8c-2.3,0.8-4.8,1.1-7.5,0.9c-5.2-0.4-8.5,3.4-10.3,6.6c-2,3.7-5.5,6.2-9.6,7.1
							c-0.9,0.2-1.9,0.3-2.8,0.3c-2.9,0-5.8-0.9-8.2-2.7c-2.2-1.7-3.5-3.7-3.6-5.5"/>
						<path class="st1" d="M47.5,71c-3,0-6-1-8.4-2.8c-2.3-1.8-3.7-3.9-3.8-5.8c0-0.2,0.2-0.4,0.4-0.4c0.2,0,0.4,0.2,0.4,0.4
							c0.1,1.7,1.4,3.6,3.5,5.2c2.3,1.7,5.1,2.7,7.9,2.7c0.9,0,1.9-0.1,2.8-0.3c3.9-0.8,7.3-3.3,9.3-6.9c1.9-3.4,5.2-7.3,10.7-6.8
							c2.6,0.2,5.1-0.1,7.3-0.9c3.7-1.3,8.4-3.9,9.9-8.5c0.6-1.9,0.6-4-0.1-6.1c-1-3-2.8-10.5,2.5-14.1c3-2,5.1-4.7,6.1-7.9
							c1.9-5.9,0.6-11-4-14.6c-0.5-0.4-1.3-0.3-1.7,0.2c-0.2,0.3-0.3,0.6-0.3,0.9c0,0.3,0.2,0.6,0.4,0.8c3.8,3,4.8,7.1,3.2,12
							c-0.9,2.6-2.6,4.9-5.2,6.6c-6.6,4.5-4.6,13.3-3.4,16.8c0.5,1.6,0.6,3.2,0.1,4.6c-1.2,3.7-5.2,5.9-8.4,7
							c-1.9,0.7-4,0.9-6.3,0.8c-5.2-0.4-9.8,2.5-13,8.1c-1.6,2.9-4.4,5-7.7,5.7c-3.1,0.7-6.2,0-8.7-1.9c-1.5-1.1-2.5-2.5-2.5-3.4
							c0-0.2,0.2-0.4,0.4-0.4c0.2,0,0.4,0.2,0.4,0.4c0,0.5,0.6,1.6,2.2,2.8c2.3,1.8,5.2,2.4,8.1,1.8c3-0.6,5.6-2.6,7.1-5.3
							c3.3-5.9,8.2-9,13.7-8.5c2.1,0.2,4.2-0.1,6-0.7c3-1.1,6.8-3.1,7.9-6.5c0.4-1.2,0.3-2.6-0.1-4.1C83,38,80.8,28.8,87.9,23.9
							c2.4-1.6,4.1-3.8,4.9-6.2c1.5-4.6,0.5-8.3-2.9-11.1c-0.4-0.3-0.7-0.8-0.7-1.4c-0.1-0.5,0.1-1.1,0.4-1.5c0.7-0.9,2-1,2.8-0.3
							c4.8,3.9,6.3,9.3,4.3,15.5c-1.1,3.3-3.3,6.1-6.4,8.3c-4.8,3.3-3.1,10.3-2.2,13.1c0.7,2.2,0.8,4.5,0.1,6.6
							c-1.6,5-6.5,7.7-10.4,9.1c-2.3,0.8-4.9,1.1-7.6,0.9c-5-0.4-8.1,3.3-9.9,6.4c-2.1,3.8-5.7,6.4-9.8,7.3
							C49.5,70.9,48.5,71,47.5,71z"/>
					</g>
					<g>
						<path class="st2" d="M35.7,62.4c-0.3-5.2-5.6-8.2-14.7-8.2c-7,0-11.2-5.1-11.4-14c-0.1-2.1,0.2-4.2,0.7-6.6
							c0.6-2.6,1.2-9.3-5.2-15C2,15.8,0.6,12.9,0.9,9.9c0.5-5,5.6-8,5.8-8.2c0.8-0.5,1.8-0.2,2.2,0.6c0.5,0.8,0.2,1.8-0.6,2.2
							c-0.1,0-3.9,2.4-4.2,5.7c-0.2,1.9,0.9,3.9,3.1,5.9c7.7,6.8,6.9,15,6.2,18.1c-0.5,2.1-0.7,4-0.6,5.8c0.2,7.2,3,10.9,8.2,10.9
							c16,0,17.7,8.6,17.9,11.3"/>
						<path class="st1" d="M35.7,62.8c-0.2,0-0.4-0.2-0.4-0.4c-0.3-4.9-5.5-7.8-14.2-7.8c-7.2,0-11.6-5.3-11.8-14.4
							c-0.1-2.1,0.2-4.3,0.7-6.7c0.6-2.5,1.2-9.1-5-14.6C1.7,16,0.2,13,0.5,9.9c0.5-5.2,5.8-8.3,6-8.5C7,1.1,7.5,1,8,1.2
							c0.5,0.1,1,0.5,1.2,0.9c0.6,1,0.3,2.2-0.7,2.8c0,0-3.7,2.3-4,5.4c-0.2,1.8,0.8,3.6,3,5.6c7.8,7,7,15.3,6.3,18.5
							c-0.4,2-0.6,3.9-0.6,5.7c0.2,6.9,2.8,10.5,7.8,10.5c16.4,0,18.1,8.9,18.3,11.6c0,0.2-0.2,0.4-0.4,0.4c-0.2,0-0.4-0.2-0.4-0.4
							c-0.1-2.5-1.8-10.8-17.5-10.9c-5.5,0-8.4-3.8-8.6-11.3c-0.1-1.8,0.1-3.8,0.6-5.9c0.7-3.1,1.5-11-6-17.7
							c-2.4-2.1-3.5-4.2-3.3-6.3c0.3-3.5,4.4-6,4.4-6c0.6-0.3,0.8-1.1,0.4-1.7C8.4,2.2,8.1,2,7.8,2c-0.3-0.1-0.6,0-0.9,0.1
							C6.7,2.2,1.8,5.2,1.3,9.9c-0.3,2.9,1.1,5.6,4.1,8.3c6.5,5.9,5.9,12.7,5.3,15.4c-0.5,2.3-0.7,4.4-0.7,6.5
							c0.3,8.6,4.3,13.6,11,13.6c9.3,0,14.8,3.1,15.1,8.6C36.1,62.6,35.9,62.7,35.7,62.8C35.7,62.8,35.7,62.8,35.7,62.8z"/>
					</g>
				</g>
				<g>
					<g>
						<path class="st2" d="M8.7,17.5c0.4-0.6,0.7-1.2,1.2-1.8c1.9-2.6,2.6-5.1,1.9-7.5c-1.3-4.4-6.8-6.5-7-6.6
							c-0.8-0.3-1.8,0.1-2.1,1c-0.3,0.8,0.1,1.8,1,2.1c0,0,4.2,1.6,5.1,4.5c0.4,1.4,0,3-1.3,4.7c-0.3,0.5-0.7,0.9-1,1.4L8.7,17.5z"
							/>
						<path class="st1" d="M8.7,17.9c-0.1,0-0.2,0-0.3-0.1L6,15.5C5.9,15.4,5.9,15.1,6,15c0.3-0.5,0.6-1,1-1.4
							c1.2-1.6,1.6-3.1,1.3-4.3C7.4,6.6,3.4,5,3.4,5c-1-0.4-1.6-1.5-1.2-2.6c0.2-0.5,0.6-0.9,1.1-1.1C3.8,1,4.3,1,4.8,1.2
							c0.2,0.1,5.9,2.2,7.3,6.9c0.8,2.5,0.1,5.2-1.9,7.9c-0.4,0.6-0.8,1.1-1.2,1.7C9,17.8,8.9,17.9,8.7,17.9
							C8.7,17.9,8.7,17.9,8.7,17.9z M6.8,15.1l1.8,1.7c0.3-0.5,0.6-0.9,0.9-1.4c1.9-2.5,2.5-4.9,1.8-7.2C10.1,4,4.8,2.1,4.5,2
							C4.2,1.9,3.9,1.9,3.6,2C3.3,2.1,3.1,2.4,3,2.7C2.8,3.3,3.1,4,3.7,4.2C3.9,4.3,8.1,6,9,9c0.4,1.5,0,3.2-1.4,5.1
							C7.3,14.4,7.1,14.8,6.8,15.1z"/>
					</g>
					<g>
						<path class="st2" d="M22.9,51c0-0.3,0-0.6,0-0.9c0-6.6-4.8-11.1-7.7-13.2c-1.2-0.9-2.6-1.6-4.4-2.1c-4.3-1.3-4.7-6.7-4.3-10.9
							c0.1-1,0.3-2.1,0.7-3.1l-2.5-2.5c-0.7,1.7-1.2,3.5-1.4,5.3c-0.8,7.8,1.5,12.9,6.6,14.4c1.4,0.4,2.5,0.9,3.4,1.6
							c2.4,1.7,6.3,5.4,6.3,10.6c0,0.3,0,0.5,0,0.8L22.9,51z"/>
						<path class="st1" d="M22.9,51.4C22.9,51.4,22.9,51.4,22.9,51.4l-3.3-0.1c-0.2,0-0.4-0.2-0.4-0.4c0-0.3,0-0.5,0-0.8
							c0-5-3.9-8.6-6.2-10.3c-0.9-0.6-1.9-1.1-3.3-1.5c-5.2-1.6-7.7-6.8-6.9-14.8c0.2-1.8,0.7-3.6,1.4-5.4c0.1-0.1,0.2-0.2,0.3-0.2
							c0.1,0,0.3,0,0.4,0.1l2.5,2.5c0.1,0.1,0.1,0.3,0.1,0.4c-0.3,1-0.6,2-0.7,3c-0.4,4.1-0.1,9.3,4,10.5c1.8,0.5,3.3,1.2,4.5,2.1
							c2.9,2.1,7.8,6.7,7.8,13.5c0,0.3,0,0.6,0,0.9c0,0.1,0,0.2-0.1,0.3C23.1,51.3,23,51.4,22.9,51.4z M20.1,50.4l2.4,0.1
							c0-0.2,0-0.3,0-0.5c0-6.5-4.7-10.8-7.5-12.9c-1.2-0.9-2.6-1.5-4.3-2c-3.6-1.1-5.2-5-4.6-11.4c0.1-1,0.3-2,0.6-3L4.9,19
							c-0.6,1.5-1,3.1-1.1,4.6C3,31.1,5.2,36.1,10,37.5c1.4,0.4,2.6,1,3.5,1.7c2.4,1.8,6.5,5.5,6.5,10.9
							C20.1,50.2,20.1,50.3,20.1,50.4z"/>
					</g>
					<g>
						<path class="st0" d="M94.6,5.1c0.1-0.1,0.3-0.2,0.4-0.3c0.7-0.5,1-1.5,0.5-2.2c-0.5-0.7-1.5-1-2.2-0.5C92.8,2.4,92.4,2.7,92,3
							L94.6,5.1z"/>
						<path class="st1" d="M94.5,5.6l-3.2-2.6l0.4-0.3C92.1,2.3,92.5,2,93,1.8c0.5-0.3,1-0.4,1.5-0.3c0.5,0.1,1,0.4,1.3,0.9
							c0.3,0.5,0.4,1,0.3,1.5s-0.4,1-0.9,1.3c-0.1,0.1-0.2,0.2-0.4,0.3L94.5,5.6z M92.7,3l1.9,1.6c0,0,0.1-0.1,0.1-0.1
							C95,4.3,95.2,4,95.2,3.7c0.1-0.3,0-0.6-0.2-0.9c-0.2-0.3-0.4-0.5-0.8-0.5c-0.3-0.1-0.6,0-0.9,0.2C93.2,2.6,92.9,2.8,92.7,3z"
							/>
					</g>
					<g>
						<path class="st0" d="M91.2,8.4c-3.4,4.8-0.3,11,1.2,14c0.9,1.9,1.5,3.8,1.6,5.7c0.3,3.7-0.8,7-3.2,9.7c-0.9,1-2,1.9-3.3,2.6
							l-0.8-3.3c0.6-0.4,1.2-0.9,1.6-1.4c1.8-2.1,2.6-4.5,2.4-7.4c-0.1-1.5-0.6-3-1.3-4.5C88,20.9,83.7,12.4,89,5.9L91.2,8.4z"/>
						<path class="st1" d="M87.6,40.8c-0.1,0-0.1,0-0.2,0c-0.1-0.1-0.2-0.2-0.2-0.3l-0.8-3.3c0-0.2,0-0.3,0.2-0.4
							c0.6-0.4,1.1-0.8,1.5-1.3c1.7-2,2.5-4.4,2.3-7.1c-0.1-1.4-0.5-2.9-1.3-4.3l0-0.1c-1.4-2.9-5.8-11.7-0.4-18.3
							c0.1-0.1,0.2-0.1,0.3-0.1c0.1,0,0.2,0,0.3,0.1l2.2,2.5c0.1,0.1,0.1,0.4,0,0.5c-3.2,4.6-0.4,10.3,1.2,13.4l0.1,0.1
							c1,1.9,1.5,3.9,1.7,5.8c0.3,3.8-0.8,7.2-3.3,10c-0.9,1.1-2.1,2-3.4,2.7C87.7,40.8,87.6,40.8,87.6,40.8z M87.2,37.3l0.6,2.5
							c1-0.6,1.9-1.4,2.7-2.2c2.3-2.6,3.4-5.9,3.1-9.4c-0.1-1.8-0.7-3.7-1.6-5.5L92,22.4c-1.5-3-4.5-9.1-1.3-14L89,6.6
							c-4.6,6.1-0.7,14,0.8,17l0,0.1c0.8,1.6,1.2,3.1,1.4,4.6c0.2,2.9-0.6,5.5-2.5,7.7C88.3,36.4,87.8,36.9,87.2,37.3z"/>
					</g>
					<g>
						<path class="st0" d="M84.6,41.5c-0.2,0-0.3,0.1-0.5,0.1c-7.2,1.5-8.5,8.2-8.6,12c-0.1,2.6-0.9,5.1-2.2,7.1c-2,3-5.1,4.7-9,5
							c-0.4,0-0.7,0-1.1,0c-1.3,0-2.9-0.3-4.5-0.8l1.8-2.9c1.2,0.4,2.4,0.6,3.5,0.5c2.9-0.2,5.1-1.5,6.5-3.6c1-1.5,1.6-3.4,1.7-5.4
							c0.1-3.8,1.5-13,11.1-15.1c0.1,0,0.2-0.1,0.4-0.1L84.6,41.5z"/>
						<path class="st1" d="M63.2,66.3c-1.6,0-3.4-0.5-4.6-0.8c-0.1,0-0.2-0.1-0.3-0.2c0-0.1,0-0.3,0-0.4l1.8-2.9
							c0.1-0.2,0.3-0.2,0.5-0.2c1.3,0.4,2.4,0.5,3.3,0.5c2.7-0.2,4.8-1.4,6.2-3.5c1-1.4,1.5-3.2,1.6-5.2c0.1-3.9,1.5-13.3,11.5-15.5
							c0.1,0,0.2-0.1,0.3-0.1c0.2-0.1,0.4,0.1,0.5,0.3l0.8,3.1c0,0.1,0,0.2,0,0.3c-0.1,0.1-0.1,0.2-0.3,0.2c-0.2,0-0.3,0.1-0.5,0.1
							c-6.9,1.5-8.2,7.9-8.3,11.7c-0.1,2.7-0.9,5.3-2.3,7.3c-2.1,3.1-5.3,4.9-9.3,5.2C64,66.2,63.6,66.3,63.2,66.3z M59.3,64.8
							c1.5,0.4,2.8,0.6,3.9,0.6c0.4,0,0.7,0,1.1,0c3.7-0.3,6.7-2,8.7-4.9c1.3-1.9,2.1-4.3,2.1-6.9c0.1-4,1.5-10.8,8.9-12.4
							c0,0,0.1,0,0.1,0l-0.6-2.3c-9.4,2-10.7,11-10.8,14.7c-0.1,2.1-0.7,4-1.7,5.6c-1.6,2.3-3.9,3.6-6.9,3.8c-1,0.1-2.1-0.1-3.3-0.4
							L59.3,64.8z"/>
					</g>
					<g>
						<path class="st2" d="M55.5,63.8c-0.3-0.2-0.7-0.3-1-0.5c-6.4-3.5-12.3-0.2-15.1,1.1c-0.9,0.5-1.9,0.7-2.8,0.9
							c-7.7,1-12.2-3.2-14.7-6.9c-0.8-1.3-1.4-2.7-1.8-4.2l3.4,0.1c0.3,0.8,0.7,1.6,1.1,2.3c2.8,4.3,6.7,6.1,11.6,5.5
							c0.6-0.1,1.2-0.3,1.8-0.6c3.2-1.5,10.8-5.2,18.5-1c0.3,0.2,0.6,0.3,0.9,0.5L55.5,63.8z"/>
						<path class="st1" d="M34.4,65.8c-6.5,0-10.5-3.8-12.7-7.3c-0.8-1.3-1.5-2.8-1.9-4.3c0-0.1,0-0.3,0.1-0.4
							c0.1-0.1,0.2-0.2,0.3-0.2l3.4,0.1c0.2,0,0.3,0.1,0.4,0.3c0.3,0.8,0.6,1.6,1.1,2.2c2.7,4.2,6.5,5.9,11.2,5.3
							c0.5-0.1,1.1-0.3,1.7-0.5c3-1.4,11-5.3,18.9-1c0.3,0.2,0.6,0.3,0.9,0.4c0.1,0.1,0.2,0.1,0.2,0.3s0,0.2-0.1,0.3l-2,2.9
							c-0.1,0.2-0.3,0.2-0.5,0.1c-0.4-0.2-0.7-0.3-1-0.5C48.4,60.5,43,63.1,40,64.6l-0.4,0.2c-1,0.5-2,0.8-2.9,0.9
							C35.9,65.8,35.1,65.8,34.4,65.8z M20.7,54.6c0.4,1.3,0.9,2.5,1.6,3.6c2.4,3.6,6.8,7.7,14.3,6.7c0.9-0.1,1.8-0.4,2.7-0.8
							l0.4-0.2c2.8-1.4,8.8-4.3,15-0.9c0.2,0.1,0.4,0.2,0.7,0.3l1.5-2.2c-0.2-0.1-0.3-0.2-0.5-0.3c-7.6-4.1-15.3-0.4-18.2,1
							c-0.7,0.3-1.3,0.5-1.9,0.6c-5,0.7-9-1.2-12-5.7c-0.4-0.7-0.8-1.4-1.1-2.2L20.7,54.6z"/>
					</g>
				</g>
			</g>
			<g>
				<path class="st3" d="M94.7,18.4c-0.1,0-0.1,0-0.2-0.1c-0.2-0.1-0.3-0.4-0.1-0.6c0,0,0.9-1.5,0.9-3.8c0-2.3-0.9-4.2-0.9-4.3
					c-0.1-0.2,0-0.4,0.2-0.5c0.2-0.1,0.4,0,0.5,0.2c0,0.1,1.1,2.1,1,4.6c-0.1,2.5-1,4.1-1,4.2C95,18.3,94.8,18.4,94.7,18.4z"/>
			</g>
			<g>
				<path class="st3" d="M92.5,31.3C92.4,31.3,92.4,31.3,92.5,31.3c-0.3,0-0.4-0.2-0.4-0.5c0.5-3.9-1.4-6.6-1.4-6.7
					c-0.1-0.2-0.1-0.4,0.1-0.6c0.2-0.1,0.4-0.1,0.6,0.1c0.1,0.1,2.1,3,1.5,7.2C92.8,31.1,92.7,31.3,92.5,31.3z"/>
			</g>
			<g>
				<path class="st3" d="M91.1,34.6c-0.1,0-0.1,0-0.2-0.1c-0.2-0.1-0.3-0.4-0.1-0.6l0.9-1.6c0.1-0.2,0.4-0.3,0.6-0.1
					c0.2,0.1,0.3,0.4,0.1,0.6l-0.9,1.6C91.4,34.5,91.2,34.6,91.1,34.6z"/>
			</g>
			<g>
				<path class="st3" d="M85.8,39.5c-0.2,0-0.3-0.1-0.4-0.3l-0.7-2.5c-0.1-0.2,0.1-0.4,0.3-0.5c0.2-0.1,0.4,0.1,0.5,0.3l0.7,2.5
					c0.1,0.2-0.1,0.4-0.3,0.5C85.9,39.5,85.9,39.5,85.8,39.5z"/>
			</g>
			<g>
				<path class="st3" d="M86.6,45.3C86.6,45.3,86.6,45.3,86.6,45.3c-0.3,0-0.4-0.2-0.4-0.4c0.1-1.5-0.2-3.5-0.2-3.5
					c0-0.2,0.1-0.4,0.3-0.5c0.2,0,0.4,0.1,0.5,0.3c0,0.1,0.3,2.1,0.2,3.7C87,45.2,86.9,45.3,86.6,45.3z"/>
			</g>
			<g>
				<path class="st3" d="M74,54.5c-0.2,0-0.4-0.2-0.4-0.4c-0.2-2.7,0.5-5.9,0.5-6c0.1-0.2,0.3-0.4,0.5-0.3c0.2,0.1,0.4,0.3,0.3,0.5
					c0,0-0.7,3.1-0.5,5.7C74.4,54.3,74.3,54.5,74,54.5C74,54.5,74,54.5,74,54.5z"/>
			</g>
			<g>
				<path class="st3" d="M60.5,59.9c-0.1,0-0.2,0-0.3-0.1c-0.2-0.1-0.2-0.4-0.1-0.6l1.1-1.4c0.1-0.2,0.4-0.2,0.6-0.1
					c0.2,0.1,0.2,0.4,0.1,0.6l-1.1,1.4C60.8,59.9,60.7,59.9,60.5,59.9z"/>
			</g>
			<g>
				<path class="st3" d="M58.7,62.2c-0.1,0-0.2,0-0.2-0.1c-0.2-0.1-0.2-0.4-0.1-0.6l0.7-0.9c0.1-0.2,0.4-0.2,0.6-0.1
					c0.2,0.1,0.2,0.4,0.1,0.6L59,62C58.9,62.1,58.8,62.2,58.7,62.2z"/>
			</g>
			<g>
				<path class="st3" d="M54.4,67.2c-0.2,0-0.3-0.1-0.4-0.3c-0.1-0.2,0-0.4,0.3-0.5c2.3-0.8,3.1-3.2,3.1-3.2
					c0.1-0.2,0.3-0.3,0.5-0.3c0.2,0.1,0.3,0.3,0.3,0.5c0,0.1-0.9,2.9-3.6,3.7C54.5,67.2,54.4,67.2,54.4,67.2z"/>
			</g>
			<g>
				<path class="st4" d="M51,60.8c0,0-0.1,0-0.1,0c-2.6-0.8-5.4,0-5.4,0c-0.2,0.1-0.4-0.1-0.5-0.3c-0.1-0.2,0.1-0.4,0.3-0.5
					c0.1,0,3.1-0.9,5.9,0c0.2,0.1,0.3,0.3,0.3,0.5C51.3,60.7,51.2,60.8,51,60.8z"/>
			</g>
		</g>
		<g>
			<g>
				<path class="st0" d="M43.3,69.2c-0.3,0.4-3.3,1.2,0.4,4.6c0.5,0.4,0.5,1.2,0.1,1.6c-0.2,0.2-0.5,0.4-0.9,0.4
					c-0.3,0-0.6-0.1-0.8-0.3c-4.3-4-2.3-5.8-0.6-7.8"/>
				<path class="st1" d="M42.9,76.1c-0.4,0-0.8-0.1-1.1-0.4c-4.4-4.1-2.6-6.2-0.9-8l0.3-0.3c0.1-0.2,0.4-0.2,0.6,0
					c0.2,0.1,0.2,0.4,0,0.6l-0.3,0.3c-1.6,1.8-3,3.4,0.8,6.9c0.3,0.3,0.8,0.2,1.1,0c0.1-0.1,0.2-0.3,0.2-0.5c0-0.2-0.1-0.4-0.2-0.5
					c-1.4-1.3-2.1-2.4-2-3.3c0.1-0.9,0.9-1.4,1.3-1.7c0.1-0.1,0.2-0.1,0.2-0.1c0.1-0.2,0.4-0.2,0.6,0c0.2,0.1,0.2,0.4,0,0.6
					c-0.1,0.1-0.2,0.2-0.4,0.3c-0.4,0.2-0.9,0.5-0.9,1c0,0.4,0.2,1.3,1.7,2.6c0.3,0.3,0.5,0.7,0.5,1.1c0,0.4-0.1,0.8-0.4,1.1
					C43.8,76,43.4,76.1,42.9,76.1z"/>
			</g>
		</g>
		<g>
			<g>
				<path class="st0" d="M51.9,69c0.3,0.4,3.3,1.2-0.4,4.6c-0.5,0.4-0.5,1.2-0.1,1.6c0.2,0.2,0.5,0.4,0.9,0.4c0.3,0,0.6-0.1,0.8-0.3
					c4.3-4,2.3-5.8,0.6-7.8"/>
				<path class="st1" d="M52.2,76c-0.4,0-0.9-0.2-1.2-0.5c-0.3-0.3-0.4-0.7-0.4-1.1c0-0.4,0.2-0.8,0.5-1.1c1.5-1.4,1.8-2.2,1.7-2.6
					c0-0.5-0.5-0.8-0.9-1c-0.2-0.1-0.3-0.2-0.4-0.3c-0.1-0.2-0.1-0.4,0-0.6c0.2-0.1,0.4-0.1,0.6,0c0,0,0.1,0.1,0.2,0.1
					c0.4,0.3,1.2,0.7,1.3,1.7c0.1,0.9-0.6,2-2,3.3c-0.1,0.1-0.2,0.3-0.2,0.5s0.1,0.4,0.2,0.5c0.3,0.3,0.8,0.3,1.1,0
					c3.8-3.5,2.4-5.1,0.8-6.9l-0.3-0.3c-0.1-0.2-0.1-0.4,0-0.6c0.2-0.1,0.4-0.1,0.6,0l0.3,0.3c1.6,1.9,3.5,4-0.9,8
					C53,75.8,52.6,76,52.2,76z"/>
			</g>
		</g>
	</g>
	<g>
		<g>
			<g>
				<path class="st5" d="M59.6,85.1l-1.3-1.7c0,0,0-0.1,0-0.1c0-0.6,0-1.1-0.1-1.7l1.3-2.2l-1.1-1.2l-1.2,0.3
					c-0.1-0.2-0.1-0.3-0.2-0.5l0.8-4.2L56,71.7l-1.9,0.9l-1.3-1.1l-1.6,1.4c-0.3-0.1-0.4-0.3-0.7-0.4l-1-0.8l-0.7-1.2l-3.2-1.5
					l-0.6,2.5l-1,0.8c-0.4,0.1-0.7,0.2-1.1,0.4l-3.6-1.2l-0.5,4.1c-0.2,0.2-0.4,0.5-0.6,0.7L36,79.7l0.7,3.3l-1.2,0.3l-1.8,2.7
					l1.7,1.2l1.1-0.3c0.6,1.4,1.4,2.7,2.5,3.8l-0.5,0.5l1.3,2.3l2.1-0.8c0.2,0.1,0.4,0.2,0.6,0.3L42,93.6l0.4,2.1l3-0.7l0.1-1.1
					c0.3,0,0.6,0.1,0.9,0.1l1.6,1.5l2.4-2c1.9-0.6,3.5-1.6,4.8-2.9l2.9-0.3l0.3-2.5l-0.7-1.1c0.1-0.3,0.2-0.6,0.3-0.9L59.6,85.1z
					 M54.7,83.2c-0.1,1.1-0.3,2.4-0.8,3.3l-3.1,0.4l-1.5,2.8L47,87.8l-0.3,1.8c0,0-0.9,0.6-1,0.6c-1.6,0-3.3-0.9-4.2-2.2l0.6-0.2
					l0-2.2l-1.9-1.4c0,0-0.6-1.8-0.6-1.8c0.1-3.1,3-7.1,5.7-7.3l1.5,2.9h1.9l2.4-2.1C52.8,77,54.9,80.2,54.7,83.2z"/>
				<path class="st1" d="M42.1,96.2l-0.5-2.7l0.2-0.3c0,0,0,0,0,0L39.5,94l-1.6-2.9l0.4-0.4c-0.9-1-1.6-2.1-2.1-3.3l-0.9,0.3
					l-2.2-1.5l2.1-3.2l1-0.3l-0.6-3.1l2-3.5c0.2-0.2,0.3-0.4,0.6-0.7l0.6-4.4l4,1.3c0.3-0.1,0.6-0.2,0.9-0.3l0.8-0.7l0.7-2.9
					l3.8,1.7l0.8,1.3l0.9,0.7c0.2,0.1,0.3,0.1,0.4,0.2c0,0,0,0,0,0l1.7-1.4l1.4,1.1l2-0.9l2.1,2.4l-0.8,4.3c0,0,0,0.1,0,0.1l1.1-0.2
					l1.4,1.6l-1.4,2.3c0.1,0.6,0.1,1.1,0.1,1.6l1.5,1.9l-1.9,0.9c-0.1,0.2-0.1,0.4-0.2,0.6l0.7,1l-0.3,3L55.4,91
					c-1.3,1.3-3,2.3-4.8,2.9l-2.6,2.2l-1.7-1.6c-0.1,0-0.2,0-0.4,0l-0.1,0.9L42.1,96.2z M42.5,93.7l0.3,1.6l2.3-0.6l0.1-1.2l0.4,0.1
					c0.3,0,0.6,0.1,0.9,0.1l0.1,0L48,95l2.2-1.8l0.1,0c1.8-0.5,3.4-1.5,4.7-2.8l0.1-0.1l2.8-0.3l0.2-2l-0.8-1.1l0.1-0.2
					c0.1-0.3,0.2-0.6,0.3-0.9l0-0.2l1.3-0.6l-1.1-1.4l0-0.2c0-0.5,0-1-0.1-1.6l0-0.1l1.2-2l-0.7-0.8L57.1,79l-0.2-0.5
					c0-0.1-0.1-0.2-0.1-0.3l-0.1-0.1l0.8-4.2l-1.5-1.7L54,73.1l-1.3-1l-1.6,1.3l-0.2-0.1c-0.2-0.1-0.3-0.1-0.4-0.2
					c-0.1-0.1-0.2-0.1-0.3-0.1l-0.1,0l-1.1-0.8l-0.7-1.2l-2.6-1.2l-0.5,2.2l-1.1,1l-0.1,0c-0.3,0.1-0.7,0.2-1,0.4l-0.1,0.1l-3.3-1.1
					L39,75.9L38.9,76c-0.2,0.2-0.4,0.5-0.6,0.7l-1.8,3.1l0.7,3.5l-1.4,0.4L34.3,86l1.2,0.8l1.2-0.4l0.1,0.3c0.5,1.3,1.3,2.6,2.4,3.6
					l0.3,0.3l-0.6,0.6l1,1.7l1.9-0.7l0.2,0.1c0.2,0.1,0.4,0.2,0.5,0.2l0.4,0.2L42.5,93.7z M45.8,90.6C45.7,90.6,45.7,90.6,45.8,90.6
					c-1.8,0-3.5-1-4.6-2.4l-0.3-0.5l0.8-0.3l0-1.7l-1.9-1.4l0-0.2c0-0.1-0.2-0.5-0.3-0.8c-0.3-1-0.3-1-0.3-1.1
					c0.1-3.2,3-7.5,6.1-7.7l0.3,0l1.5,2.9h1.5l2.5-2.2l0.3,0.2c1.7,1.2,3.9,4.5,3.7,7.6l0,0c-0.1,1-0.3,2.5-0.9,3.5l-0.1,0.2
					L51,87.3l-1.6,3l-2.1-1.7L47.1,90l-0.2,0c-0.1,0-0.2,0.1-0.4,0.2C45.9,90.6,45.9,90.6,45.8,90.6z M42.2,88.2
					c0.9,0.9,2.2,1.5,3.4,1.6c0.1-0.1,0.2-0.1,0.4-0.2c0.1-0.1,0.2-0.2,0.3-0.2l0.4-2.3l2.4,2l1.3-2.5l3.1-0.4
					c0.4-0.9,0.6-2.1,0.7-3l0,0c0.2-2.5-1.6-5.4-3.1-6.7l-2.3,2h-2.3l-1.5-2.9c-2.4,0.4-5,3.8-5.1,6.8c0,0.1,0.2,0.5,0.3,0.9
					c0.1,0.4,0.2,0.6,0.2,0.8l1.9,1.4l0,2.7L42.2,88.2z M53.8,86.5L53.8,86.5L53.8,86.5z"/>
			</g>
			<g>
				<path class="st6" d="M55.4,79.4c-0.2,0-0.4-0.1-0.4-0.3c-0.3-1.5-2.1-2.8-2.1-2.8c-0.2-0.1-0.2-0.4-0.1-0.6
					c0.1-0.2,0.4-0.2,0.6-0.1c0.1,0.1,2,1.5,2.4,3.3C55.8,79.1,55.7,79.3,55.4,79.4C55.4,79.4,55.4,79.4,55.4,79.4z"/>
			</g>
			<g>
				<path class="st6" d="M56,83.5C56,83.5,56,83.5,56,83.5c-0.3-0.1-0.4-0.3-0.4-0.5c0.3-1.3-0.2-2.3-0.2-2.3
					c-0.1-0.2,0-0.4,0.2-0.5c0.2-0.1,0.4,0,0.5,0.2c0,0.1,0.6,1.2,0.3,2.8C56.4,83.4,56.2,83.5,56,83.5z"/>
			</g>
		</g>
		<g>
			<g>
				<path class="st7" d="M38.5,79c0.3,1.2,1.1,2,1.8,1.9c0.5-0.1,1.4-0.5,1.4-1.4c0-0.2-1-0.7-1.2-1c-0.2-0.2-0.3-0.6-0.4-1.3
					c-0.1-0.8,0-0.9-0.3-0.8C38.9,76.6,38.1,77.8,38.5,79z"/>
				<path class="st1" d="M40.1,81.3c-0.8,0-1.7-0.9-2-2.2c-0.2-0.6-0.1-1.3,0.2-2c0.3-0.6,0.7-1,1.2-1.1c0.2,0,0.4-0.1,0.6,0
					c0.2,0.1,0.2,0.3,0.2,0.6c0,0.1,0,0.3,0.1,0.5c0.1,0.6,0.2,1,0.3,1.1c0.1,0.1,0.3,0.2,0.5,0.3c0.6,0.4,0.9,0.6,0.9,0.9
					c0,0.9-0.6,1.5-1.7,1.8C40.2,81.3,40.2,81.3,40.1,81.3z M39.5,76.9c-0.2,0.1-0.3,0.3-0.5,0.6c-0.1,0.3-0.3,0.8-0.2,1.4l0,0
					c0.3,1,0.9,1.7,1.3,1.6c0.5-0.1,1.1-0.4,1.1-0.9c-0.1-0.1-0.4-0.3-0.5-0.4c-0.2-0.2-0.4-0.3-0.6-0.4c-0.3-0.3-0.4-0.8-0.6-1.5
					C39.5,77.1,39.5,77,39.5,76.9z"/>
			</g>
			<g>
				<path class="st8" d="M39.2,79.5c0.3,0.5,0.7,0.7,1,0.6c0.2-0.1,0.6-0.4,0.4-0.7c0-0.1-0.5-0.2-0.6-0.3c-0.1-0.1-0.2-0.2-0.3-0.5
					c-0.2-0.3-0.1-0.4-0.2-0.3C39.1,78.4,38.9,79,39.2,79.5z"/>
			</g>
		</g>
		<g>
			<g>
				<path class="st7" d="M53.9,76.7c-0.3-0.1-1.1,0.6-1.7,1.2c-0.4,0.4-1.1,0.2-1.3-0.4c-0.4-1.7-1.3-4.3-2.3-4.3
					c-1,0-1.8,2.4-2.2,4c-0.1,0.5-0.7,0.6-1.1,0.3c-0.4-0.4-0.8-0.6-1.3-0.5c-1.1,0.2-1.6,2-1.2,3.9l0,0c0.1,0.4-0.2,0.8-0.6,0.9
					c-0.2,0-0.4,0-0.7,0c-0.3-0.1-0.6,0-0.8,0.2c-0.5,0.5-0.4,1.6,0.4,2.5c0,0.1,0.1,0.1,0.1,0.1c0,0.2-0.1,0.4-0.1,0.6
					c0,1.5,0.8,2.4,2.9,2.9c0.7,0.2,2.2-0.1,2.9-0.1c0.7,0,2.1,0.3,2.7,0.2c2.3-0.5,3.2-1.4,3.2-3c0-0.1,0-0.1,0-0.2
					C52.9,84,53.2,83,53.6,82c0.1-0.1,0.1-0.3,0.2-0.4C54.8,79.4,54.9,77.2,53.9,76.7z"/>
				<path class="st1" d="M49.4,88.6c-0.4,0-0.9-0.1-1.3-0.1c-0.4,0-0.7-0.1-1-0.1c-0.3,0-0.6,0-1,0.1c-0.7,0.1-1.5,0.2-2,0
					c-2.2-0.6-3.2-1.6-3.2-3.3c0-0.1,0-0.3,0-0.4c0,0,0,0,0,0c-0.9-1.1-1-2.5-0.3-3.1c0.3-0.3,0.7-0.3,1.2-0.3c0.2,0,0.3,0,0.5,0
					c0.1,0,0.2-0.1,0.2-0.1c0.1-0.1,0.1-0.2,0.1-0.3c-0.4-2.2,0.2-4.1,1.5-4.4c0.5-0.1,1.1,0.1,1.6,0.6c0.1,0.1,0.2,0.1,0.3,0.1
					c0,0,0.1-0.1,0.2-0.2c0.8-2.8,1.7-4.3,2.6-4.3c1.3,0,2.1,2.5,2.7,4.7c0,0.2,0.2,0.2,0.2,0.3c0.1,0,0.2,0,0.3-0.1
					c1.3-1.3,1.8-1.5,2.2-1.3c1.2,0.6,1.2,2.9,0.1,5.4c-0.1,0.1-0.1,0.3-0.2,0.4c-0.5,1-0.7,2-0.6,2.9c0,0.1,0,0.1,0,0.2
					c0,1.8-1.1,2.8-3.5,3.4C49.8,88.6,49.6,88.6,49.4,88.6z M47.1,87.6c0.3,0,0.7,0,1.1,0.1c0.5,0.1,1.2,0.1,1.5,0.1
					c2.5-0.5,2.8-1.6,2.8-2.6c0,0,0-0.1,0-0.1c-0.1-1.1,0.2-2.2,0.7-3.3c0.1-0.1,0.1-0.3,0.2-0.4c1-2.2,0.8-3.9,0.3-4.3
					c-0.1,0.1-0.5,0.3-1.3,1.1c-0.3,0.3-0.7,0.4-1.1,0.3c-0.4-0.1-0.7-0.4-0.8-0.9c-0.6-2.6-1.4-4-1.9-4c-0.4,0-1.2,1.3-1.9,3.6
					c-0.1,0.4-0.4,0.6-0.7,0.7c-0.4,0.1-0.7,0-1-0.3c-0.2-0.2-0.6-0.4-0.9-0.4c-0.7,0.1-1.3,1.6-0.9,3.4c0.1,0.3,0,0.7-0.2,0.9
					c-0.2,0.3-0.4,0.4-0.7,0.5c-0.3,0-0.5,0-0.8,0c-0.1,0-0.3,0-0.5,0.1c-0.3,0.3-0.2,1.2,0.4,2c0,0,0,0,0.1,0.1l0.2,0.2l0,0.2
					c0,0.2-0.1,0.3-0.1,0.5c0,1.1,0.4,2,2.6,2.5c0.4,0.1,1.1,0,1.7,0C46.4,87.7,46.8,87.6,47.1,87.6z"/>
			</g>
			<g>
				<path class="st8" d="M51.8,79.7c-0.2-0.1-0.7,0.4-1.2,0.8c-0.3,0.3-0.8,0.1-0.9-0.3c-0.3-1.1-0.8-2.9-1.5-2.9
					c-0.7,0-1.2,1.6-1.5,2.7c-0.1,0.3-0.5,0.4-0.7,0.2c-0.3-0.3-0.6-0.4-0.9-0.3c-0.6,0.2,0.2,1.2-0.3,1.4c-0.9,0.6-1.3,0.9-1.3,1
					c-0.4,0.3-0.7,1.8-0.5,2.8c0.1,1,0.8,1.9,2.2,2.3c0.5,0.1,1.5-0.1,2-0.1c0.5,0,1.4,0.2,1.8,0.1c1.2-0.3,2.6-1.8,2.7-2.2
					c0.1-0.6,0.2-0.7,0.1-1.2c0-0.2-0.3-0.5-0.2-0.8c0-0.1,0.1-0.2,0.1-0.3C52.4,81.4,52.5,80,51.8,79.7z"/>
			</g>
		</g>
		<g>
			<g>
				<path class="st7" d="M51.6,73.5c0,0,0,0.1,0,0.1c0.2,0.6,0.5,1.2,1,1.6c0,0,0,0,0,0c0.3,0.3,0.8,0.3,1.1,0
					c0.1-0.1,0.2-0.3,0.1-0.4v0c-0.3-0.3-0.6-0.9-0.8-1.3l-0.4-1.1c-0.2-0.5-0.9-0.4-1,0.1L51.6,73.5z"/>
				<path class="st1" d="M53.3,75.8c-0.3,0-0.6-0.1-0.9-0.3l0,0c-0.6-0.5-1-1.1-1.2-1.8c0-0.1,0-0.2,0-0.2l0,0l0.1-1
					c0.1-0.4,0.4-0.8,0.8-0.8c0.4,0,0.8,0.2,1,0.6l0.4,1.1c0.1,0.3,0.5,0.9,0.7,1.2c0.2,0.2,0.2,0.4,0.2,0.5c0,0.2-0.1,0.4-0.3,0.5
					C53.9,75.7,53.6,75.8,53.3,75.8z M52,73.5C52,73.5,52,73.5,52,73.5c0.1,0.5,0.5,1,0.9,1.4l0.1,0c0.2,0.1,0.4,0.2,0.6,0.1
					c-0.3-0.4-0.6-0.9-0.8-1.3l-0.4-1.1c0,0,0-0.1-0.1-0.1c-0.1,0-0.1,0.1-0.1,0.1L52,73.5z"/>
			</g>
			<g>
				<path class="st8" d="M52.1,73.9C52.1,74,52.1,74,52.1,73.9c0.1,0.3,0.2,0.6,0.5,0.7c0,0,0,0,0,0c0.1,0.1,0.4,0.1,0.5,0
					c0.1-0.1,0.1-0.1,0-0.2l0,0c-0.1-0.1-0.3-0.4-0.3-0.6l-0.2-0.5c-0.1-0.2-0.4-0.2-0.4,0.1L52.1,73.9z"/>
			</g>
		</g>
		<g>
			<g>
				<path class="st7" d="M45.6,72.4c0.2,0.7,0.6,1.3,0.5,1.8c-0.2,0.9-1.4,1.5-1.8,1.5c-0.4,0-1.5-0.5-1.8-1.2
					c-0.2-0.6,0.2-1.3,0.4-2c0.5-1.6,0.6-3.2,1.3-3.2S45.1,70.7,45.6,72.4z"/>
				<path class="st1" d="M44.3,76c-0.6,0-1.8-0.6-2.1-1.5c-0.2-0.6,0-1.2,0.3-1.9c0-0.1,0.1-0.3,0.1-0.4c0.2-0.5,0.3-1,0.4-1.4
					c0.3-1.2,0.5-2.1,1.4-2.1c0.8,0,1.1,1,1.3,2.1c0.1,0.4,0.2,0.9,0.4,1.5l0,0c0.1,0.2,0.2,0.4,0.2,0.6c0.2,0.5,0.4,0.9,0.3,1.4
					C46.2,75.3,44.9,76,44.3,76z M44.3,69.5c-0.2,0-0.4,1-0.6,1.5c-0.1,0.4-0.2,0.9-0.4,1.4c0,0.1-0.1,0.3-0.2,0.4
					c-0.2,0.5-0.4,1-0.3,1.3c0.2,0.5,1.1,0.9,1.4,0.9c0.3,0,1.2-0.5,1.4-1.2c0.1-0.2-0.1-0.5-0.2-0.9c-0.1-0.2-0.2-0.4-0.3-0.7
					c-0.2-0.5-0.3-1.1-0.4-1.5C44.7,70.4,44.5,69.5,44.3,69.5z"/>
			</g>
			<g>
				<path class="st8" d="M44.9,73.3c0.1,0.3,0.3,0.5,0.2,0.8c-0.1,0.4-0.6,0.6-0.8,0.6c-0.2,0-0.6-0.2-0.7-0.5
					c-0.1-0.2,0.1-0.6,0.2-0.9C44,72.7,44,72,44.3,72S44.6,72.6,44.9,73.3z"/>
			</g>
		</g>
		<g>
			<g>
				<polyline class="st5" points="49.3,89.6 50.8,86.9 53.8,86.5 				"/>
				<path class="st1" d="M49.3,90c-0.1,0-0.1,0-0.2,0c-0.2-0.1-0.3-0.4-0.2-0.6l1.6-2.9l3.3-0.5c0.2,0,0.4,0.1,0.5,0.3
					c0,0.2-0.1,0.4-0.3,0.5L51,87.3l-1.4,2.6C49.6,90,49.4,90,49.3,90z"/>
			</g>
			<g>
				<path class="st6" d="M50.6,89.9c-0.1,0-0.1,0-0.2,0c-0.2-0.1-0.3-0.3-0.2-0.5l0.8-1.6c0.1-0.2,0.3-0.3,0.5-0.2
					c0.2,0.1,0.3,0.3,0.2,0.5L51,89.6C50.9,89.8,50.8,89.9,50.6,89.9z"/>
			</g>
		</g>
		<g>
			<polyline class="st5" points="40.2,84.2 42.1,85.6 42.1,87.8 41.5,88 			"/>
			<path class="st1" d="M41.5,88.4c-0.2,0-0.3-0.1-0.4-0.3c-0.1-0.2,0-0.4,0.3-0.5l0.3-0.1l0-1.7L40,84.5c-0.2-0.1-0.2-0.4-0.1-0.6
				c0.1-0.2,0.4-0.2,0.6-0.1l2,1.5l0,2.7l-0.9,0.3C41.6,88.4,41.5,88.4,41.5,88.4z"/>
		</g>
	</g>
</g>
</svg>
