<?xml version="1.0" encoding="utf-8"?>
<!-- Generator: Adobe Illustrator 24.2.3, SVG Export Plug-In . SVG Version: 6.00 Build 0)  -->
<svg version="1.1" id="Lag_1" xmlns="http://www.w3.org/2000/svg" xmlns:xlink="http://www.w3.org/1999/xlink" x="0px" y="0px"
	 viewBox="0 0 93.5 100.3" style="enable-background:new 0 0 93.5 100.3;" xml:space="preserve">
<style type="text/css">
	.st0{opacity:0.35;}
	.st1{fill:#C5CFD3;}
	.st2{fill:#F4F2DB;}
	.st3{fill:#2D2521;}
	.st4{fill:#DDDBCA;}
	.st5{fill:#281C15;}
	.st6{opacity:0.54;}
	.st7{fill:#EF9850;}
	.st8{fill:#DD7F28;}
	.st9{opacity:0.81;}
	.st10{fill:#E1EBEF;}
	.st11{fill:#C1C7C9;}
	.st12{opacity:0.56;}
	.st13{fill:#FFFFFF;}
	.st14{fill:#99714D;}
	.st15{fill:#7C5B40;}
	.st16{fill:#7F5F44;}
	.st17{fill:#E4EBED;}
</style>
<g>
	<g>
		<g class="st0">
			<path class="st1" d="M79.3,34.5L58.4,17.2L47.2,30.3c-3.9-1.1-8-1.4-12.3-0.9C19.5,31.1,7.3,43.8,6.2,59.2
				C4.8,78.9,20.9,95.2,40.4,94.1c16.5-0.9,29.9-14.3,30.7-30.9c0.3-5.6-0.9-10.9-3.1-15.5l11.2-13.1C79.2,34.6,79.3,34.5,79.3,34.5
				z"/>
		</g>
		<g>
			<g>
				<path class="st2" d="M71.1,63.3c-0.8,16.5-14.2,30-30.7,30.9C20.9,95.2,4.8,78.9,6.2,59.2c0-0.6,0.1-1.3,0.2-1.9
					c0.2-1.8,2-6.3,3.3-7.2c2.3-1.6,4.9,1.4,7.2,3.7l0,0c1.7,1.8,4.3,2.4,6.6,1.5l2.8-1.1c3.3-1.3,7.1-1.1,10.3,0.6l0,0
					c4.8,2.6,10.4,3.3,15.7,2.1l1.7-0.4c0.6-0.1,1.2-0.4,1.7-0.7l0,0c2.6-1.5,5.7-1.4,8.1,0.2c1.2,0.7,2.4,1.3,3.7,1.6l0.4,0.1
					c0.7,0.2,1.3,0.6,1.5,1.3L71.1,63.3z"/>
				<path class="st3" d="M38.7,94.7c-8.9,0-17.4-3.6-23.6-9.9C8.4,78,5,68.7,5.7,59.2c0-0.6,0.1-1.3,0.2-1.9c0.3-1.9,2-6.5,3.5-7.6
					c2.6-1.8,5.3,1.1,7.5,3.4l0.4,0.4c1.6,1.6,3.9,2.1,6,1.3l2.8-1.1c3.5-1.4,7.4-1.1,10.7,0.6c4.7,2.5,10.1,3.2,15.3,2.1l1.7-0.4
					c0.5-0.1,1.1-0.3,1.6-0.6c2.7-1.6,6-1.5,8.7,0.2c1.2,0.8,2.4,1.3,3.5,1.6l0.4,0.1c0.9,0.2,1.6,0.8,1.9,1.6l1.7,4.2l0,0.1
					C70.9,80,57.2,93.8,40.5,94.7C39.9,94.7,39.3,94.7,38.7,94.7z M11.1,50.2c-0.4,0-0.8,0.1-1.1,0.4c-1.1,0.8-2.8,5-3,6.8
					c-0.1,0.6-0.1,1.2-0.2,1.8C6.1,68.5,9.4,77.5,15.8,84c6.4,6.5,15.4,10,24.6,9.5c16.1-0.9,29.3-14.1,30.1-30.2l-1.6-4
					c-0.2-0.5-0.6-0.9-1.2-1l-0.4-0.1c-1.3-0.3-2.5-0.9-3.9-1.7c-2.3-1.5-5.2-1.5-7.5-0.2c-0.6,0.3-1.2,0.6-1.9,0.7l-1.7,0.4
					c-5.4,1.2-11.1,0.4-16-2.2c-3-1.6-6.6-1.8-9.8-0.6l-2.8,1.1c-2.5,1-5.4,0.4-7.2-1.6l-0.4-0.4C14.1,51.8,12.5,50.2,11.1,50.2z"/>
			</g>
			<g>
				<path class="st4" d="M67.9,57.9c0.7,0.2,1.3,0.6,1.5,1.3l1.7,4.1c-0.8,16.5-14.2,30-30.7,30.9C20.9,95.2,4.8,78.9,6.2,59.2
					c0-0.6,0.1-1.3,0.2-1.9c0.2-1.8,2-6.3,3.3-7.2l0,9.8c0,2.8,0.5,5.6,1.5,8.3l1.5,4.2c1.5,4.1,4.1,7.8,7.5,10.6l0.9,0.7
					c2.1,1.8,4.6,3.2,7.2,4.1l1,0.4c2.2,0.8,4.5,1.3,6.8,1.5l1.6,0.1c2.5,0.2,5.1-0.1,7.5-0.7l0.4-0.1c3.2-0.8,6.2-2.2,8.8-4.2
					l0.5-0.4c0.6-0.4,1.1-0.9,1.7-1.4l3.1-2.8c2-1.8,3.7-4,5.1-6.4l0,0c2-3.6,3.1-7.6,3.1-11.7L67.9,57.9z"/>
			</g>
			<g>
				<path class="st5" d="M38.7,94.7c-8.9,0-17.4-3.6-23.6-9.9C8.4,78,5,68.7,5.7,59.2c0-0.6,0.1-1.3,0.2-1.9c0.3-1.9,2-6.5,3.5-7.6
					c2.6-1.8,5.3,1.1,7.5,3.4l0.4,0.4c1.6,1.6,3.9,2.1,6,1.3l2.8-1.1c3.5-1.4,7.4-1.1,10.7,0.6c4.7,2.5,10.1,3.2,15.3,2.1l1.7-0.4
					c0.5-0.1,1.1-0.3,1.6-0.6c2.7-1.6,6-1.5,8.7,0.2c1.2,0.8,2.4,1.3,3.5,1.6l0.4,0.1c0.9,0.2,1.6,0.8,1.9,1.6l1.7,4.2l0,0.1
					C70.9,80,57.2,93.8,40.5,94.7C39.9,94.7,39.3,94.7,38.7,94.7z M11.1,50.2c-0.4,0-0.8,0.1-1.1,0.4c-1.1,0.8-2.8,5-3,6.8
					c-0.1,0.6-0.1,1.2-0.2,1.8C6.1,68.5,9.4,77.5,15.8,84c6.4,6.5,15.4,10,24.6,9.5c16.1-0.9,29.3-14.1,30.1-30.2l-1.6-4
					c-0.2-0.5-0.6-0.9-1.2-1l-0.4-0.1c-1.3-0.3-2.5-0.9-3.9-1.7c-2.3-1.5-5.2-1.5-7.5-0.2c-0.6,0.3-1.2,0.6-1.9,0.7l-1.7,0.4
					c-5.4,1.2-11.1,0.4-16-2.2c-3-1.6-6.6-1.8-9.8-0.6l-2.8,1.1c-2.5,1-5.4,0.4-7.2-1.6l-0.4-0.4C14.1,51.8,12.5,50.2,11.1,50.2z"/>
			</g>
			<g class="st6">
				<g>
					<circle class="st7" cx="21.9" cy="75.2" r="5.6"/>
				</g>
				<g>
					<circle class="st7" cx="20.8" cy="70.5" r="3.8"/>
				</g>
				<g>
					<circle class="st8" cx="21.9" cy="75.2" r="5.2"/>
				</g>
				<g>
					<circle class="st8" cx="20.8" cy="70.5" r="3.4"/>
				</g>
				<g>
					<circle class="st7" cx="55.8" cy="75.7" r="2.7"/>
				</g>
				<g>
					<circle class="st8" cx="55.8" cy="75.7" r="2.3"/>
				</g>
				<g>
					<circle class="st8" cx="45.8" cy="83.8" r="0.8"/>
				</g>
				<g>
					<circle class="st8" cx="29" cy="58.9" r="0.5"/>
				</g>
				<g>
					<circle class="st7" cx="52.7" cy="63.4" r="1.8"/>
				</g>
				<g>
					<circle class="st8" cx="52.7" cy="63.4" r="1.7"/>
				</g>
				<g>
					<circle class="st7" cx="19.8" cy="74.5" r="0.5"/>
				</g>
				<g>
					<circle class="st7" cx="22.4" cy="77.8" r="1"/>
				</g>
				<g>
					<circle class="st7" cx="21.6" cy="78.3" r="0.5"/>
				</g>
				<g>
					<circle class="st7" cx="55.5" cy="75.6" r="0.4"/>
				</g>
				<g>
					<circle class="st7" cx="14.5" cy="63" r="2.1"/>
				</g>
				<g>
					<circle class="st7" cx="15.4" cy="60.6" r="2.9"/>
				</g>
				<g>
					<circle class="st8" cx="14.5" cy="63" r="1.9"/>
				</g>
				<g>
					<circle class="st8" cx="15.4" cy="60.6" r="2.5"/>
				</g>
				<g>
					<circle class="st7" cx="15.2" cy="59.8" r="0.4"/>
				</g>
				<g>
					<circle class="st7" cx="60.7" cy="60.5" r="1"/>
				</g>
				<g>
					<circle class="st7" cx="52.9" cy="63.1" r="0.7"/>
				</g>
				<g>
					<circle class="st8" cx="61.4" cy="68.5" r="0.6"/>
				</g>
				<g>
					<circle class="st7" cx="21.4" cy="70.4" r="0.8"/>
				</g>
			</g>
			<g>
				<g class="st9">
					<circle class="st8" cx="39.5" cy="71.9" r="4.2"/>
				</g>
				<g class="st9">
					<path class="st3" d="M48.1,68.5c-0.3,0.4-0.8,0.6-1.3,0.7c0.3,0.9,0.5,1.8,0.5,2.8c0,4.3-3.5,7.8-7.8,7.8s-7.8-3.5-7.8-7.8
						s3.5-7.8,7.8-7.8c2.1,0,4,0.8,5.4,2.2c0.2-0.5,0.7-0.8,1.2-1c-1.7-1.7-4-2.7-6.5-2.7c-5.1,0-9.3,4.2-9.3,9.3
						c0,5.1,4.2,9.3,9.3,9.3c5.1,0,9.3-4.2,9.3-9.3C48.7,70.7,48.5,69.5,48.1,68.5z"/>
				</g>
				<g class="st9">
					<circle class="st8" cx="46.6" cy="67.2" r="2"/>
				</g>
			</g>
		</g>
		<g>
			<g>
				<g>
					<g>
						<path class="st10" d="M58.4,17.2l20.9,17.2c0,0.1-0.1,0.1-0.1,0.2L68,47.7c2.2,4.7,3.4,9.9,3.1,15.5
							c-0.8,16.5-14.2,30-30.7,30.9c-0.6,0-1.2,0-1.8,0c-18.8,0-33.8-15.9-32.4-34.9c1.1-15.5,13.3-28.1,28.7-29.9
							c1.3-0.1,2.5-0.2,3.7-0.2c3,0,5.9,0.4,8.6,1.2L58.4,17.2 M57.8,11L55,14.3l-9.4,11c-2.3-0.4-4.6-0.7-7-0.7
							c-1.4,0-2.8,0.1-4.2,0.2c-8.5,1-16.5,4.9-22.4,11.1C6,42.3,2.4,50.4,1.7,58.9C1,69.3,4.5,79.2,11.5,86.9
							c7,7.5,16.9,11.8,27.1,11.8c0.7,0,1.4,0,2-0.1c9.1-0.5,17.7-4.4,24.2-10.9c6.5-6.5,10.3-15.1,10.7-24.2
							c0.2-5.1-0.6-10.2-2.4-14.9l9.4-11c0.1-0.1,0.2-0.2,0.2-0.3l2.8-3.4L82.2,31L61.2,13.8L57.8,11L57.8,11z"/>
						<path class="st5" d="M38.6,99.2c-10.4,0-20.4-4.4-27.5-12C4,79.5,0.4,69.4,1.2,58.9C1.8,50.2,5.5,42,11.6,35.7
							c6.1-6.3,14.2-10.3,22.8-11.3c3.7-0.4,7.4-0.3,11,0.4l12.4-14.5l28.6,23.5l-3.1,3.8c-0.1,0.1-0.2,0.2-0.3,0.3l-9.2,10.7
							c1.7,4.7,2.5,9.8,2.3,14.8c-0.4,9.2-4.3,18-10.9,24.6c-6.6,6.6-15.3,10.6-24.5,11C40,99.2,39.3,99.2,38.6,99.2z M38.6,25.2
							c-1.4,0-2.8,0.1-4.2,0.2c-8.4,1-16.2,4.8-22.1,11C6.5,42.6,2.9,50.6,2.3,59C1.6,69.2,5,79,11.9,86.5
							c6.9,7.4,16.6,11.6,26.7,11.6c0.7,0,1.3,0,2-0.1c9-0.5,17.4-4.3,23.8-10.7c6.4-6.4,10.2-14.9,10.6-23.9
							c0.2-5-0.6-10.1-2.3-14.7l-0.1-0.3l9.6-11.2c0.1-0.1,0.2-0.2,0.2-0.3l2.4-3L57.9,11.8L45.8,25.9l-0.3-0.1
							C43.2,25.4,40.9,25.2,38.6,25.2z M38.6,94.7c-9.2,0-18-3.8-24.2-10.5c-6.3-6.8-9.4-15.7-8.8-25c1.1-15.8,13.4-28.6,29.2-30.4
							c4.1-0.5,8.2-0.2,12.2,0.9l11.3-13.2l21.8,17.9l-0.4,0.5c0,0-0.1,0.1-0.1,0.1L68.7,47.8c2.2,4.8,3.2,10.1,3,15.5
							C70.9,80,57.2,93.8,40.5,94.7C39.9,94.7,39.2,94.7,38.6,94.7z M38.6,29.7c-1.2,0-2.4,0.1-3.7,0.2C19.7,31.6,7.9,44,6.8,59.3
							c-0.7,9,2.4,17.6,8.5,24.1c6,6.5,14.6,10.2,23.4,10.2c0.6,0,1.2,0,1.8,0c16.1-0.9,29.4-14.2,30.2-30.3
							c0.3-5.3-0.8-10.5-3-15.3l-0.2-0.3l11.2-13.1L58.5,18l-11,12.9l-0.3-0.1C44.3,30.1,41.5,29.7,38.6,29.7z"/>
					</g>
					<g>
						<path class="st11" d="M58.4,17.2l20.9,17.2c0,0.1-0.1,0.1-0.1,0.2L68,47.7c2.2,4.7,3.4,9.9,3.1,15.5
							c-0.8,16.5-14.2,30-30.7,30.9c-0.6,0-1.2,0-1.8,0c-18.8,0-33.8-15.9-32.4-34.9c1.1-15.5,13.3-28.1,28.7-29.9
							c1.3-0.1,2.5-0.2,3.7-0.2c3,0,5.9,0.4,8.6,1.2L58.4,17.2 M58.2,14.9l-1.1,1.2L46.7,28.5c-2.6-0.6-5.3-1-8-1
							c-1.3,0-2.6,0.1-3.9,0.2C26.9,28.6,19.5,32.3,14,38c-5.5,5.7-8.9,13.2-9.5,21.1c-0.7,9.6,2.5,18.8,9,25.8
							c6.4,6.9,15.6,10.9,25,10.9c0.6,0,1.3,0,1.9-0.1c8.4-0.5,16.3-4,22.3-10.1c6-6,9.5-14,9.9-22.4C73,58.1,72,52.8,70,48
							l10.5-12.3c0-0.1,0.1-0.1,0.1-0.2l0,0l1-1.3l-1.2-1L59.5,16L58.2,14.9L58.2,14.9z"/>
					</g>
					<g>
						<path class="st5" d="M38.7,94.7c-8.9,0-17.4-3.6-23.6-9.9C8.4,78,5,68.7,5.7,59.2c1.1-15.8,13.4-28.6,29.2-30.4
							c4.1-0.5,8.2-0.2,12.2,0.9l11.3-13.2l21.8,17.9l-0.4,0.5c0,0-0.1,0.1-0.1,0.1L68.7,47.8c2.2,4.8,3.2,10.1,3,15.5
							C70.9,80,57.2,93.8,40.5,94.7C39.9,94.7,39.3,94.7,38.7,94.7z M38.6,29.7c-1.2,0-2.4,0.1-3.7,0.2C19.7,31.6,7.9,44,6.8,59.3
							C6.1,68.5,9.4,77.5,15.8,84c6.4,6.5,15.4,10,24.6,9.5c16.1-0.9,29.4-14.2,30.2-30.3c0.3-5.3-0.8-10.5-3-15.3l-0.2-0.3
							l11.2-13.1L58.5,18l-11,12.9l-0.3-0.1C44.3,30.1,41.5,29.7,38.6,29.7z"/>
					</g>
				</g>
				<g class="st12">
					<path class="st13" d="M60.9,76.7c-0.1,0-0.3,0-0.4-0.1c-0.7-0.2-1.1-1-0.9-1.8l0.1-0.4c2.7-7.9,2-16.7-1.9-24.2l2.4-1.3
						c4.3,8.1,5.1,17.7,2.1,26.3l-0.1,0.4C62,76.4,61.4,76.7,60.9,76.7z"/>
				</g>
				<g class="st12">
					<path class="st13" d="M56.1,71.5c-0.1,0-0.3,0-0.4-0.1c-0.7-0.2-1.2-1-0.9-1.7l0.2-0.6c1.1-4,0.4-8.4-2.1-11.7
						c-0.5-0.6-0.3-1.5,0.3-1.9c0.6-0.5,1.5-0.3,1.9,0.3c3,4,3.9,9.3,2.5,14.1l-0.2,0.6C57.3,71.1,56.7,71.5,56.1,71.5z"/>
				</g>
			</g>
			<g>
				<g>
					<path class="st14" d="M86.2,16.9l3.7-0.3c0.5-0.7,0.9-1.5,1.3-2.3l0.3-0.6l-0.6-1.2c-1-1.8-2.2-3.4-3.6-4.8l-1.5-0.4l-0.3-1.2
						c-2-1.6-4.2-2.8-6.7-3.6l-2.5-0.8c-3.8,3.2-6.9,7.1-9.1,11.6L66,16l14,11.1l1.8-1.5c2.3-1.8,4.3-3.9,6.1-6.2L86.2,16.9z"/>
					<path class="st5" d="M80.1,27.8L65.3,16.1l1.5-3c2.2-4.5,5.3-8.5,9.2-11.8l0.2-0.2L79.1,2c2.5,0.8,4.8,2.1,6.8,3.7l0.1,0.1
						L86.3,7l1.3,0.3l0.1,0.1c1.5,1.5,2.7,3.1,3.7,4.9l0.8,1.4l-0.5,0.8c-0.4,0.7-0.8,1.4-1.3,2.3l-0.1,0.2l-3.1,0.2l1.4,2.1
						l-0.2,0.3c-1.8,2.3-3.9,4.4-6.2,6.3L80.1,27.8z M66.7,15.8l13.3,10.6l1.5-1.2c2.1-1.7,4-3.6,5.7-5.8l-2.1-3l4.4-0.3
						c0.5-0.7,0.8-1.4,1.2-2l0.2-0.3l-0.5-0.9c-0.9-1.7-2-3.2-3.4-4.6l-1.7-0.4l-0.3-1.3C83.2,5,81,3.8,78.8,3.1l-2.2-0.7
						c-3.6,3.1-6.6,6.9-8.7,11.2L66.7,15.8z"/>
				</g>
				<g>
					<path class="st15" d="M86.9,20.8c-1.5,1.8-3.2,3.4-5,4.9l-1.8,1.5L66,16l1.3-2.6c0.8-1.7,1.8-3.3,2.9-4.8L86.9,20.8z"/>
				</g>
				<g>
					<path class="st5" d="M80.1,27.8L65.3,16.1l1.5-3c2.2-4.5,5.3-8.5,9.2-11.8l0.2-0.2L79.1,2c2.5,0.8,4.8,2.1,6.8,3.7l0.1,0.1
						L86.3,7l1.3,0.3l0.1,0.1c1.5,1.5,2.7,3.1,3.7,4.9l0.8,1.4l-0.5,0.8c-0.4,0.7-0.8,1.4-1.3,2.3l-0.1,0.2l-3.1,0.2l1.4,2.1
						l-0.2,0.3c-1.8,2.3-3.9,4.4-6.2,6.3L80.1,27.8z M66.7,15.8l13.3,10.6l1.5-1.2c2.1-1.7,4-3.6,5.7-5.8l-2.1-3l4.4-0.3
						c0.5-0.7,0.8-1.4,1.2-2l0.2-0.3l-0.5-0.9c-0.9-1.7-2-3.2-3.4-4.6l-1.7-0.4l-0.3-1.3C83.2,5,81,3.8,78.8,3.1l-2.2-0.7
						c-3.6,3.1-6.6,6.9-8.7,11.2L66.7,15.8z"/>
				</g>
				<g>
					<path class="st5" d="M79.1,5.9c-0.2,0-0.3-0.1-0.4-0.2L76,2.1c-0.2-0.2-0.1-0.6,0.1-0.8c0.2-0.2,0.6-0.1,0.8,0.1L79.6,5
						c0.2,0.2,0.1,0.6-0.1,0.8C79.4,5.8,79.2,5.9,79.1,5.9z"/>
				</g>
				<g>
					<path class="st5" d="M86.7,12.1c-0.1,0-0.2,0-0.2-0.1c-1.3-0.6-2.5-1.4-3.6-2.3c-0.2-0.2-0.3-0.5-0.1-0.8
						c0.2-0.2,0.5-0.3,0.8-0.1c1.1,0.8,2.2,1.5,3.4,2.1c0.3,0.1,0.4,0.5,0.2,0.7C87.1,12,86.9,12.1,86.7,12.1z"/>
				</g>
				<g>
					<path class="st5" d="M91.6,14.3c-0.1,0-0.2,0-0.2,0l-3-1.3c-0.3-0.1-0.4-0.5-0.3-0.7c0.1-0.3,0.5-0.4,0.7-0.3l3,1.3
						c0.3,0.1,0.4,0.5,0.3,0.7C92,14.2,91.8,14.3,91.6,14.3z"/>
				</g>
				<g>
					<ellipse transform="matrix(0.622 -0.783 0.783 0.622 18.2826 69.3839)" class="st16" cx="81" cy="15.8" rx="1.4" ry="1.6"/>
					<path class="st5" d="M81.2,17.7c-0.5,0-1-0.2-1.4-0.5c-0.9-0.7-1.1-2-0.5-2.8c0.7-0.8,1.9-0.9,2.8-0.2c0.4,0.3,0.7,0.8,0.8,1.3
						c0.1,0.5,0,1.1-0.4,1.5C82.3,17.5,81.8,17.7,81.2,17.7z M80.8,14.9c-0.2,0-0.5,0.1-0.6,0.3c-0.3,0.4-0.2,0.9,0.3,1.3
						c0.4,0.3,1,0.3,1.3,0h0c0.1-0.2,0.2-0.4,0.1-0.6c0-0.3-0.2-0.5-0.4-0.7C81.3,14.9,81,14.9,80.8,14.9z"/>
				</g>
				<g>
					<ellipse transform="matrix(0.622 -0.783 0.783 0.622 21.5891 63.803)" class="st16" cx="76.9" cy="9.5" rx="1.2" ry="1.4"/>
					<path class="st5" d="M77,11.4c-0.4,0-0.9-0.2-1.3-0.4c-0.8-0.7-1-1.8-0.4-2.6C76,7.6,77.1,7.5,78,8.2c0.4,0.3,0.7,0.7,0.7,1.2
						c0.1,0.5,0,1-0.3,1.4C78.1,11.1,77.6,11.3,77,11.4C77.1,11.4,77.1,11.4,77,11.4z M76.7,8.8c-0.2,0-0.4,0.1-0.5,0.2
						c-0.2,0.3-0.1,0.7,0.2,1c0.2,0.1,0.4,0.2,0.6,0.2c0.2,0,0.3-0.1,0.4-0.2h0c0.1-0.1,0.1-0.3,0.1-0.5c0-0.2-0.2-0.4-0.3-0.5
						C77.1,8.9,76.9,8.8,76.7,8.8z"/>
				</g>
				<g>
					<ellipse transform="matrix(0.622 -0.783 0.783 0.622 15.3241 63.812)" class="st16" cx="73.8" cy="16" rx="2.6" ry="3"/>
					<path class="st5" d="M74.1,19.3c-0.8,0-1.6-0.3-2.3-0.8c-0.7-0.6-1.2-1.4-1.4-2.2c-0.2-0.9,0-1.7,0.6-2.4
						c0.5-0.7,1.3-1.1,2.2-1.1c0.9,0,1.8,0.3,2.5,0.8c0.7,0.6,1.2,1.4,1.4,2.2c0.2,0.9,0,1.7-0.6,2.4l0,0c-0.5,0.7-1.3,1.1-2.2,1.1
						C74.2,19.3,74.2,19.3,74.1,19.3z M73.4,13.8c0,0-0.1,0-0.1,0c-0.6,0-1.1,0.3-1.4,0.7c-0.3,0.4-0.5,1-0.3,1.5
						c0.1,0.6,0.5,1.2,1,1.6c0.5,0.4,1.1,0.6,1.7,0.6c0.6,0,1.1-0.3,1.4-0.7l0,0c0.3-0.4,0.5-1,0.3-1.5c-0.1-0.6-0.5-1.2-1-1.6
						C74.5,14.1,74,13.8,73.4,13.8z"/>
				</g>
			</g>
			<g>
				<g>
					<path class="st17" d="M89.3,26.6l-25.5-21c-2.4-2-5.9-2.1-8.3,0C55.3,5.8,55,6,54.8,6.2c-0.7,0.9-1.1,1.7-1.2,2.8
						c-0.2,2.5,0.9,5,2.8,6.6l25.1,20.7c2.4,2,6,2.1,8.5,0.1c0.3-0.2,0.5-0.5,0.7-0.6c0.3-0.3,0.5-0.7,0.7-1.3
						C92.6,31.7,91.6,28.5,89.3,26.6z M89,34.4c-0.7,0.9-1.8,1.4-2.9,1.4c-0.8,0-1.7-0.3-2.4-0.9L57,12.9c-1.6-1.3-1.8-3.7-0.5-5.3
						c1.3-1.6,3.7-1.8,5.3-0.5l26.8,22C90.1,30.5,90.3,32.8,89,34.4z"/>
					<path class="st5" d="M85.9,38.4c-1.7,0-3.3-0.6-4.7-1.7L56.1,16.1c-2.2-1.8-3.3-4.4-3-7c0.1-1.2,0.5-2.2,1.3-3.1
						c0.2-0.3,0.5-0.5,0.8-0.8c2.5-2.2,6.3-2.1,9,0l25.5,21c2.6,2.1,3.5,5.6,2.3,8.6c-0.2,0.6-0.5,1-0.8,1.4
						c-0.2,0.2-0.4,0.5-0.7,0.7C89.1,37.9,87.5,38.4,85.9,38.4z M59.6,4.6c-1.3,0-2.6,0.4-3.7,1.3c-0.2,0.2-0.4,0.4-0.6,0.7
						c-0.7,0.8-1,1.5-1.1,2.5c-0.2,2.3,0.8,4.5,2.6,6.1l25.1,20.7c2.3,1.9,5.6,1.9,7.8,0.1c0.2-0.2,0.4-0.4,0.6-0.6
						c0.2-0.3,0.5-0.7,0.6-1.1c1-2.5,0.2-5.5-1.9-7.3L63.4,6C62.3,5.1,60.9,4.6,59.6,4.6z M86.1,36.3c-1,0-2-0.3-2.7-1l-26.8-22
						c-0.9-0.7-1.4-1.8-1.5-2.9c-0.1-1.1,0.2-2.3,1-3.1c0.7-0.9,1.8-1.4,2.9-1.5c1.1-0.1,2.3,0.2,3.1,1l26.8,22
						c0.9,0.7,1.4,1.8,1.5,2.9c0.1,1.1-0.2,2.3-1,3.1C88.6,35.7,87.4,36.3,86.1,36.3z M59.4,6.8c-0.1,0-0.2,0-0.3,0
						c-0.8,0.1-1.6,0.5-2.2,1.1c-0.5,0.7-0.8,1.5-0.7,2.3c0.1,0.8,0.5,1.6,1.1,2.2l26.8,22c0.6,0.5,1.3,0.7,2,0.7
						c1,0,1.9-0.4,2.5-1.2l0,0c0.5-0.7,0.8-1.5,0.7-2.3c-0.1-0.8-0.5-1.6-1.1-2.2l-26.8-22C60.8,7.1,60.1,6.8,59.4,6.8z"/>
				</g>
				<g>
					<path class="st1" d="M86.1,35.8c-0.8,0-1.7-0.3-2.4-0.9L57,12.9c-1.6-1.3-1.8-3.7-0.5-5.3c1.3-1.6,3.7-1.8,5.3-0.5l26.8,22
						c1.6,1.3,1.8,3.7,0.5,5.3C88.3,35.3,87.2,35.8,86.1,35.8z"/>
					<path class="st5" d="M86.1,36.3c-1,0-2-0.3-2.7-1l-26.8-22c-0.9-0.7-1.4-1.8-1.5-2.9c-0.1-1.1,0.2-2.3,1-3.1
						c0.7-0.9,1.8-1.4,2.9-1.5c1.1-0.1,2.3,0.2,3.1,1l26.8,22c0.9,0.7,1.4,1.8,1.5,2.9c0.1,1.1-0.2,2.3-1,3.1
						C88.6,35.7,87.4,36.3,86.1,36.3z M59.4,6.8c-0.1,0-0.2,0-0.3,0c-0.8,0.1-1.6,0.5-2.2,1.1c-0.5,0.7-0.8,1.5-0.7,2.3
						c0.1,0.8,0.5,1.6,1.1,2.2l26.8,22c0.6,0.5,1.3,0.7,2,0.7c1,0,1.9-0.4,2.5-1.2c0.5-0.7,0.8-1.5,0.7-2.3
						c-0.1-0.8-0.5-1.6-1.1-2.2l-26.8-22C60.8,7.1,60.1,6.8,59.4,6.8z"/>
				</g>
				<g>
					<path class="st13" d="M84,31.1c-0.1,0-0.2,0-0.3-0.1L82,29.6c-0.2-0.2-0.3-0.5-0.1-0.8s0.5-0.3,0.8-0.1l1.6,1.3
						c0.2,0.2,0.3,0.5,0.1,0.8C84.3,31,84.2,31.1,84,31.1z"/>
				</g>
				<g>
					<path class="st13" d="M80,27.8c-0.1,0-0.2,0-0.3-0.1l-3.8-3.1c-0.2-0.2-0.3-0.5-0.1-0.8c0.2-0.2,0.5-0.3,0.8-0.1l3.8,3.1
						c0.2,0.2,0.3,0.5,0.1,0.8C80.3,27.7,80.1,27.8,80,27.8z"/>
				</g>
			</g>
		</g>
	</g>
</g>
</svg>
