<?xml version="1.0" encoding="utf-8"?>
<!-- Generator: Adobe Illustrator 24.2.3, SVG Export Plug-In . SVG Version: 6.00 Build 0)  -->
<svg version="1.1" id="Lag_1" xmlns="http://www.w3.org/2000/svg" xmlns:xlink="http://www.w3.org/1999/xlink" x="0px" y="0px"
	 viewBox="0 0 70.9 115.1" style="enable-background:new 0 0 70.9 115.1;" xml:space="preserve">
<style type="text/css">
	.st0{fill:#8D4791;}
	.st1{fill:#281C15;}
	.st2{opacity:0.35;}
	.st3{fill:#C5CFD3;}
	.st4{fill:#E1EBEF;}
	.st5{fill:#C1C7C9;}
	.st6{fill:#E4EBED;}
	.st7{fill:#FFFFFF;}
	.st8{fill:#747889;}
	.st9{fill:#525563;}
	.st10{fill:#43464F;}
	.st11{fill:#AD59C1;}
	.st12{fill:#9E49B2;}
	.st13{fill:#8E47A0;}
	.st14{fill:#E8CEEF;}
	.st15{fill:#62667A;}
	.st16{fill:#585C68;}
	.st17{fill:#4E5260;}
	.st18{fill:#95969B;}
	.st19{fill:#A7ADC1;}
	.st20{fill:#B2ADA6;}
	.st21{fill:#D3CCC5;}
	.st22{fill:#E8E1DA;}
	.st23{opacity:0.51;}
	.st24{fill:#AF4691;}
	.st25{fill:#8E5DB2;}
	.st26{fill:#D1B5EA;}
</style>
<g>
	<g>
		<g>
			<g>
				<path class="st0" d="M30.3,14.1l0.4,0.2l0.3-0.2l0.6,0.2c0.1,0,0.2,0.1,0.3,0.2l0.3,0.2c0.1,0.1,0.2,0.2,0.3,0.4v0
					c0.1,0.2,0.3,0.4,0.5,0.5l0.4,0.2c0.1,0,0.1,0.1,0.2,0.1c0.2,0,0.6,0.1,0.5,0.2c0,0.1,0.2,0.6,0.2,0.7s0.3,1.2,0.3,1.2
					c0,0,0,0.1,0.1,0.2c0.1,0.4,0.2,0.9,0.3,1.3c0,0.2,0,0.3,0.1,0.4c0,0.1,0.2,1.3,0.2,1.9c0,0.2,0.1,0.4,0.1,0.7
					c0.1,0.3,0.1,0.7,0.1,0.7c0,0,0.8,6,0.8,6l0,0.2c0.3,1.7,0.1,3.4-0.6,4.9c0,0,0,0.1,0,0.1c0,0.1-0.4,2.3-0.4,2.4
					c0,0.1,0.5,1.3,0.5,1.5s1.4,1.1,1.4,1.1l-4.1,1.4l-1.6-0.9l0.9-1.5l0.9-0.5l0.2-1l0.5-1.9c0.1-0.3,0.2-0.7,0.2-1l0.2-1.4
					c0.2-0.9,0.2-1.8,0.1-2.6l-0.2-2c0-0.2,0-0.4-0.1-0.6l-0.1-1.5l-0.2-3.8c0-0.9-0.2-1.8-0.6-2.7v0c-0.2-0.5-0.3-0.9-0.4-1.4
					l0-0.3l-0.2-0.9l-0.1-0.2L32,16.3L31.5,16l-0.4-0.3l-0.5-0.5l-0.3-0.4L30.3,14.1z"/>
				<path class="st1" d="M33.1,40.9l-1.8-1.1l1-1.8l0.9-0.5l0.2-0.9l0.5-1.9c0.1-0.3,0.2-0.7,0.2-1l0.2-1.4c0.2-0.8,0.2-1.7,0.1-2.6
					l-0.2-2c0-0.2,0-0.4-0.1-0.6l-0.1-1.5l-0.2-3.8c0-0.9-0.2-1.8-0.6-2.6c-0.2-0.5-0.3-0.9-0.4-1.4l0-0.3l-0.2-0.9l-0.7-0.2
					l-0.5-0.3L31,15.9l-0.5-0.5l-0.3-0.5L30,13.7l0.7,0.3l0.3-0.2l0.7,0.3c0.1,0,0.2,0.1,0.3,0.2l0.3,0.2c0.2,0.1,0.3,0.3,0.3,0.5
					c0.1,0.2,0.2,0.3,0.3,0.4l0.4,0.2c0,0,0.1,0,0.1,0c0.6,0.1,0.6,0.2,0.7,0.3l0,0.1l0,0c0,0.1,0.1,0.3,0.1,0.3
					c0.1,0.2,0.1,0.2,0.1,0.3c0,0.1,0.3,1,0.3,1.1l0,0c0,0.1,0.1,0.1,0.1,0.2c0.1,0.4,0.2,0.9,0.3,1.4c0,0.3,0,0.3,0,0.3
					c0,0,0.1,0.1,0.3,2c0,0.2,0.1,0.4,0.1,0.6c0.1,0.6,0.1,0.7,0.1,0.7c0,0,0,0.1,0.8,6.1l0,0.2c0.3,1.7,0.1,3.4-0.6,5
					c0,0,0,0,0,0.1c0,0,0,0.3-0.1,0.7c-0.1,0.5-0.3,1.4-0.3,1.6c0.1,0.2,0.4,1.2,0.5,1.4c0.1,0.1,0.8,0.6,1.3,1l0.4,0.3L33.1,40.9z
					 M31.9,39.6l1.3,0.8l3.5-1.2c-1-0.7-1.1-0.9-1.1-0.9c0,0-0.5-1.4-0.5-1.5c0-0.1,0-0.1,0.3-1.8c0.1-0.3,0.1-0.6,0.1-0.7
					c0,0,0-0.1,0-0.2c0.6-1.5,0.8-3.2,0.6-4.8l0-0.2c-0.3-2.3-0.8-5.8-0.8-6c0,0,0,0-0.1-0.7c0-0.2-0.1-0.5-0.1-0.7
					c-0.1-1.3-0.2-1.8-0.2-1.9c0,0,0-0.1-0.1-0.4c0-0.4-0.1-0.8-0.3-1.3c0-0.1-0.1-0.2-0.1-0.2l0,0c-0.2-0.4-0.4-1.3-0.4-1.3
					c0,0,0-0.1-0.1-0.1c-0.1-0.2-0.1-0.3-0.1-0.4c-0.1,0-0.2-0.1-0.4-0.1c-0.1,0-0.2,0-0.2-0.1l-0.4-0.2c-0.3-0.1-0.5-0.4-0.6-0.7
					c0-0.1-0.1-0.2-0.2-0.3l-0.3-0.2c-0.1-0.1-0.1-0.1-0.2-0.1l-0.5-0.2l-0.3,0.2l-0.2-0.1l0,0.2l0.3,0.4l0.4,0.5l0.3,0.3l0.4,0.2
					l0.9,0.2l0.1,0.3l0.3,1.2c0.1,0.5,0.2,0.9,0.4,1.3c0.4,0.9,0.6,1.8,0.6,2.8l0.2,5.4c0,0.2,0,0.4,0.1,0.6l0.2,2
					c0.1,0.9,0.1,1.8-0.1,2.7l-0.2,1.4c-0.1,0.4-0.1,0.7-0.2,1.1l-0.5,1.9l-0.2,1.1l-0.9,0.6L31.9,39.6z"/>
			</g>
			<g>
				<g>
					<g class="st2">
						<g>
							<path class="st3" d="M33.3,18l2.6-0.7l-0.4-1.7c0.3-0.3,0.6-0.6,0.8-0.9c0.8-1.4,0.4-3.1-0.7-4.1c-1.5-1.3-3.8-0.9-4.8,0.7
								c-0.9,1.4-0.6,3.3,0.7,4.3c0.4,0.3,0.9,0.6,1.4,0.7L33.3,18C33.3,18,33.3,18,33.3,18z"/>
						</g>
					</g>
					<g>
						<g>
							<g>
								<g>
									<g>
										<path class="st4" d="M35.9,17.3L33.3,18c0,0,0,0,0,0l-0.4-1.7c-0.5-0.1-1-0.3-1.4-0.7c-1.3-1-1.6-2.9-0.7-4.3
											c0-0.1,0.1-0.1,0.1-0.1c1.1-1.5,3.3-1.8,4.7-0.6c1.2,1,1.5,2.7,0.7,4.1c-0.1,0.1-0.1,0.2-0.2,0.3
											c-0.2,0.2-0.4,0.5-0.6,0.6L35.9,17.3 M36.4,17.6l-0.1-0.4L36,15.8c0.2-0.2,0.3-0.3,0.5-0.5c0.1-0.1,0.2-0.2,0.2-0.4
											c0.4-0.7,0.6-1.6,0.4-2.5c-0.2-0.8-0.6-1.6-1.3-2.2C35,9.6,34,9.3,33,9.4c-1,0.1-1.9,0.7-2.5,1.5c0,0.1-0.1,0.1-0.1,0.2
											c-0.5,0.8-0.7,1.7-0.5,2.6c0.2,0.9,0.6,1.7,1.3,2.3c0.4,0.3,0.9,0.5,1.3,0.7l0.3,1.4c0,0,0,0,0,0l0.1,0.4l0.4-0.1l2.6-0.7
											L36.4,17.6L36.4,17.6z"/>
									</g>
									<g>
										<path class="st1" d="M32.9,18.6l-0.1-0.5c0,0,0,0,0,0l-0.3-1.4c-0.5-0.1-0.9-0.4-1.3-0.7c-0.7-0.6-1.2-1.4-1.4-2.3
											c-0.2-0.9,0-1.9,0.5-2.6c0-0.1,0.1-0.1,0.1-0.2c0.6-0.8,1.6-1.4,2.6-1.5c1-0.1,2.1,0.2,2.9,0.9c0.7,0.6,1.1,1.3,1.3,2.2
											c0.2,0.9,0,1.8-0.4,2.5c-0.1,0.1-0.1,0.2-0.2,0.4c-0.1,0.2-0.3,0.4-0.4,0.5l0.5,1.9L32.9,18.6z M32.6,16.6l0.4,1.4
											c0,0,0,0,0,0l0.1,0.4l3.3-0.9l-0.4-1.8l0,0c0.2-0.2,0.3-0.3,0.5-0.5c0.1-0.1,0.2-0.2,0.2-0.3c0.4-0.7,0.5-1.6,0.4-2.4
											c-0.2-0.8-0.6-1.6-1.2-2.1C35,9.7,34,9.4,33,9.5c-1,0.1-1.9,0.7-2.5,1.5c0,0.1-0.1,0.1-0.1,0.2c-0.5,0.8-0.7,1.7-0.5,2.5
											c0.1,0.9,0.6,1.7,1.3,2.2C31.6,16.2,32,16.5,32.6,16.6L32.6,16.6z M33.2,18.1L33.2,18.1C33.2,18,33.2,18,33.2,18.1
											l-0.4-1.7c-0.5-0.1-1-0.3-1.4-0.7c-1.3-1-1.6-3-0.7-4.4c0-0.1,0.1-0.1,0.1-0.2c0.5-0.7,1.4-1.2,2.3-1.4
											c0.9-0.1,1.8,0.2,2.6,0.8c1.2,1,1.5,2.8,0.8,4.2c-0.1,0.1-0.1,0.2-0.2,0.3c-0.2,0.2-0.4,0.4-0.6,0.6l0.4,1.7L33.2,18.1z
											 M32.9,16.2l0.4,1.7l2.5-0.7l-0.4-1.6l0,0c0.2-0.2,0.4-0.4,0.6-0.6c0.1-0.1,0.1-0.2,0.2-0.3c0.7-1.3,0.4-3-0.7-4
											c-0.7-0.6-1.6-0.8-2.4-0.7c-0.9,0.1-1.7,0.6-2.2,1.3c0,0-0.1,0.1-0.1,0.1c-0.9,1.3-0.6,3.2,0.7,4.2
											C31.9,15.9,32.4,16.1,32.9,16.2L32.9,16.2z"/>
									</g>
								</g>
								<g>
									<g>
										<path class="st5" d="M35.4,10.5c0.1,0,0.1,0.1,0.2,0.1c1.2,1,1.5,2.7,0.7,4.1c-0.2,0.4-0.5,0.7-0.8,0.9l0.4,1.7L33.3,18
											c0,0,0,0,0,0l-0.4-1.7c-0.5-0.1-0.9-0.3-1.4-0.6c0,0-0.1,0-0.1-0.1c-1.3-1-1.6-2.9-0.7-4.3C31.7,9.8,33.9,9.4,35.4,10.5
											 M35.5,10.3c-0.8-0.6-1.8-0.8-2.7-0.6c-1,0.2-1.8,0.7-2.3,1.5c-0.5,0.7-0.6,1.6-0.5,2.4c0.1,0.9,0.6,1.6,1.3,2.1
											c0,0,0.1,0,0.1,0.1c0.4,0.3,0.8,0.5,1.3,0.6l0.4,1.5c0,0,0,0,0,0l0.1,0.2l0.2-0.1l2.6-0.7l0.2-0.1l-0.1-0.2l-0.4-1.5
											c0.3-0.3,0.5-0.6,0.7-0.9c0.4-0.7,0.5-1.5,0.4-2.3c-0.1-0.8-0.6-1.5-1.2-2C35.6,10.4,35.6,10.4,35.5,10.3L35.5,10.3
											C35.5,10.3,35.5,10.3,35.5,10.3L35.5,10.3z"/>
									</g>
								</g>
								<g>
									<g>
										<path class="st1" d="M33.2,18.1L33.2,18.1C33.2,18,33.2,18,33.2,18.1l-0.4-1.7c-0.5-0.1-1-0.3-1.4-0.7
											c-1.3-1-1.6-3-0.7-4.4C31.2,10.5,32,10,33,9.8c0.9-0.1,1.9,0.1,2.6,0.7c1.2,1,1.5,2.8,0.8,4.2c-0.2,0.4-0.5,0.7-0.8,0.9
											l0.4,1.7L33.2,18.1z M32.9,16.2l0.4,1.7l2.5-0.7l-0.4-1.6l0,0c0.3-0.3,0.6-0.6,0.8-0.9c0.7-1.3,0.4-3-0.7-4
											c-0.7-0.6-1.6-0.8-2.5-0.7c-0.9,0.1-1.7,0.7-2.2,1.4c-0.9,1.3-0.6,3.2,0.7,4.2C31.9,15.9,32.4,16.1,32.9,16.2L32.9,16.2z"
											/>
									</g>
								</g>
							</g>
						</g>
						<g>
							<g>
								<g>
									<path class="st6" d="M33.3,19.3l3.2-0.8c0.3-0.1,0.5-0.4,0.5-0.7c0,0,0-0.1,0-0.1c0-0.1-0.1-0.2-0.2-0.3
										c-0.2-0.2-0.5-0.2-0.7-0.2L33,18.1c-0.3,0.1-0.5,0.4-0.5,0.7c0,0,0,0.1,0,0.1c0,0,0,0.1,0.1,0.1
										C32.7,19.2,33.1,19.3,33.3,19.3z M32.7,18.8c0-0.1,0-0.2,0.1-0.3c0-0.1,0.1-0.1,0.2-0.1l3.3-0.9c0.2-0.1,0.4,0.1,0.5,0.3
										c0.1,0.2-0.1,0.4-0.3,0.5L33.2,19C33,19.1,32.8,19,32.7,18.8z"/>
								</g>
								<g>
									<path class="st1" d="M32.7,19.2c-0.1-0.1-0.1-0.1-0.2-0.2c0-0.1-0.1-0.1-0.1-0.2c0,0,0-0.1,0-0.1c0-0.3,0.2-0.7,0.6-0.8
										l3.1-0.8c0.3-0.1,0.6,0,0.8,0.2c0.1,0.1,0.2,0.2,0.2,0.3c0,0,0,0.1,0,0.1c0,0.3-0.2,0.7-0.5,0.7l-3.2,0.8
										C33.1,19.4,32.9,19.3,32.7,19.2z M36.8,17.4c-0.2-0.1-0.4-0.2-0.6-0.1L33,18.1c-0.3,0.1-0.5,0.3-0.4,0.6c0,0,0,0.1,0,0.1
										c0,0,0,0.1,0.1,0.1c0.1,0.2,0.4,0.3,0.7,0.3l3.2-0.8c0.3-0.1,0.5-0.3,0.4-0.6c0,0,0-0.1,0-0.1
										C36.9,17.6,36.9,17.5,36.8,17.4C36.8,17.4,36.8,17.4,36.8,17.4z M32.8,19c-0.1-0.1-0.1-0.1-0.2-0.2l0,0
										c0-0.1,0-0.3,0.1-0.4c0.1-0.1,0.1-0.1,0.2-0.2l3.3-0.9c0.1,0,0.2,0,0.3,0c0.1,0.1,0.2,0.2,0.2,0.3c0.1,0.2-0.1,0.5-0.3,0.5
										l-3.3,0.9C33.1,19.1,33,19.1,32.8,19C32.8,19.1,32.8,19.1,32.8,19z M36.6,17.6C36.6,17.6,36.6,17.5,36.6,17.6
										c-0.1-0.1-0.2-0.1-0.3,0L33,18.4c-0.1,0-0.1,0.1-0.2,0.1c-0.1,0.1-0.1,0.2,0,0.3l0,0c0,0.1,0.1,0.1,0.1,0.2
										c0.1,0,0.1,0.1,0.2,0l3.3-0.9c0.2,0,0.3-0.2,0.2-0.4C36.7,17.7,36.7,17.6,36.6,17.6z"/>
								</g>
							</g>
							<g>
								<g>
									<path class="st3" d="M32.8,18.5c0-0.1,0.1-0.1,0.2-0.1l3.3-0.9c0.2-0.1,0.4,0.1,0.5,0.3c0.1,0.2-0.1,0.4-0.3,0.5L33.2,19
										c-0.2,0.1-0.4-0.1-0.5-0.3C32.7,18.7,32.7,18.6,32.8,18.5z"/>
								</g>
								<g>
									<path class="st1" d="M32.8,19c-0.1-0.1-0.1-0.1-0.2-0.2c0-0.1,0-0.3,0.1-0.4l0,0c0.1-0.1,0.1-0.1,0.2-0.2l3.3-0.9
										c0.1,0,0.2,0,0.3,0c0.1,0.1,0.2,0.2,0.2,0.3c0.1,0.2-0.1,0.5-0.3,0.5l-3.3,0.9C33.1,19.1,33,19.1,32.8,19
										C32.8,19.1,32.8,19.1,32.8,19z M36.6,17.6C36.6,17.6,36.6,17.5,36.6,17.6c-0.1-0.1-0.2-0.1-0.3,0L33,18.4
										c-0.1,0-0.1,0.1-0.2,0.1l0,0c-0.1,0.1-0.1,0.2,0,0.3c0,0.1,0.1,0.1,0.1,0.2c0.1,0,0.1,0.1,0.2,0l3.3-0.9
										c0.2,0,0.3-0.2,0.2-0.4C36.7,17.7,36.7,17.6,36.6,17.6z"/>
								</g>
							</g>
							<g>
								<g>
									<path class="st7" d="M33.3,18.7C33.3,18.6,33.3,18.6,33.3,18.7c0-0.1,0-0.1,0-0.1l0.2-0.1c0,0,0.1,0,0.1,0.1
										c0,0,0,0.1-0.1,0.1L33.3,18.7C33.3,18.7,33.3,18.7,33.3,18.7z"/>
								</g>
							</g>
							<g>
								<g>
									<path class="st7" d="M33.8,18.5C33.8,18.5,33.8,18.5,33.8,18.5c0-0.1,0-0.1,0-0.1l0.5-0.1c0,0,0.1,0,0.1,0.1
										c0,0,0,0.1-0.1,0.1L33.8,18.5C33.8,18.5,33.8,18.5,33.8,18.5z"/>
								</g>
							</g>
						</g>
					</g>
				</g>
			</g>
		</g>
		<g>
			<g>
				<path class="st8" d="M5.1,41c0-2.1,13.7-3.9,30.7-3.9s30.7,1.7,30.7,3.9"/>
				<path class="st1" d="M66.9,41H66c0,0-0.2-1.2-8.6-2.3C51.6,38,44,37.6,35.8,37.6c-8.2,0-15.9,0.4-21.6,1.1
					C5.8,39.8,5.6,41,5.6,41H4.6c0-0.6,0-2,9.4-3.2c5.8-0.7,13.5-1.1,21.7-1.1s15.9,0.4,21.7,1.1C66.9,39,66.9,40.5,66.9,41z"/>
			</g>
			<g>
				<ellipse class="st9" cx="35.8" cy="41" rx="25.5" ry="1.5"/>
			</g>
			<g>
				<ellipse class="st10" cx="35.8" cy="41" rx="22.4" ry="0.7"/>
			</g>
			<g>
				<g>
					<path class="st1" d="M23.8,40.2c-0.3,0-0.5-0.2-0.5-0.5c0-0.3,0.2-0.5,0.5-0.5c3.7-0.1,7.8-0.2,12-0.2c1.2,0,2.4,0,3.6,0
						c0.3,0,0.5,0.2,0.5,0.5c0,0.3-0.2,0.5-0.5,0.5c0,0,0,0,0,0c-1.2,0-2.4,0-3.6,0C31.6,40,27.5,40.1,23.8,40.2
						C23.8,40.2,23.8,40.2,23.8,40.2z"/>
				</g>
				<g>
					<path class="st1" d="M10.3,41.5c-0.3,0-0.5-0.2-0.5-0.5c0-0.5,0-1.2,10.9-1.7c0.3,0,0.5,0.2,0.5,0.5c0,0.3-0.2,0.5-0.5,0.5
						c-8.2,0.4-9.8,0.8-10.1,1C10.7,41.4,10.5,41.5,10.3,41.5z"/>
				</g>
				<g>
					<path class="st1" d="M61.2,41.5c-0.2,0-0.3-0.1-0.4-0.2c-0.7-0.4-5.6-0.9-16.7-1.2c-0.3,0-0.5-0.2-0.5-0.5
						c0-0.3,0.2-0.5,0.5-0.5c4.9,0.1,9.2,0.3,12.3,0.5c5.2,0.4,5.2,0.9,5.2,1.3C61.7,41.3,61.5,41.5,61.2,41.5z M60.9,41.3
						L60.9,41.3L60.9,41.3z"/>
				</g>
			</g>
			<g>
				<g>
					<path class="st11" d="M61,39.4L61,39.4c-0.9,0.8-2,0.9-3.1,0.4L56.3,39c-0.8-0.4-0.8-5.3-3.8-5.3c-1.7,0-3.8,3.2-5.7,3.7
						c-2.7,0.7-5.2-1.4-6-1.4c-0.3,0-1.6,1.6-3.6,1.3s-4.7-0.6-6.1-0.6c-1.4,0-4,1.4-6.6,1.8c-2.6,0.4-5.1-2-6.3-2
						c-2.3,0-4.2,5-5,5.5h0c-0.4,0.3-1,0.1-1.3-0.3l-0.8-1.1c-0.1-0.1-0.2,0-0.2,0.1v11.7h50.3V39.5C61.2,39.4,61.1,39.3,61,39.4z"
						/>
				</g>
				<g>
					<path class="st12" d="M10.9,45.1l1-1.2c0.4-0.4,0.9-0.6,1.4-0.4l0.3,0.2c0.6,0.3,1.3,0,1.6-0.8l0.7-1.4
						c0.7-1.5,1.9-2.4,3.2-2.4h0c0.4,0,0.8,0.1,1.2,0.3l1.2,0.6c0.7,0.3,1.5,0.4,2.2,0.1l1-0.4c1.1-0.4,2.3-0.1,3.2,0.9l0.1,0.1
						c0.9,0.9,2,1.2,3.1,0.9l3.3-1c0,0,2.1,0.2,3.3-0.2c0.7-0.3,1.1-0.7,1.4-1.1c0.4-0.6,0.9-1,1.4-1.1c0.4-0.1,0.7-0.1,1,0.3
						l1.2,1.5c0.3,0.4,0.8,0.6,1.2,0.5l2.3-0.7c0.4-0.1,0.8-0.3,1.1-0.6l1.4-1.1c0.8-0.7,1.7-0.9,2.6-0.6l0.3,0.1
						c0.8,0.2,1.6,0.8,2.1,1.7v0c0.6,1,1.4,1.6,2.3,1.8l0.8,0.2c0,0,0.1,0,0.1,0l4.3,1.5v9.8H10.9V45.1z"/>
				</g>
				<g>
					<path class="st13" d="M10.9,45.3l1.4,0.9c0.6-0.6,1.4-0.8,2.1-0.5l0,0c1,0.4,2-0.1,2.6-1.2l0,0c0.8-1.5,2-2.4,3.3-2.4h0.6
						c0.5,0,1.1,0.1,1.6,0.3l1.5,0.7c0.3,0.1,0.6,0.3,0.9,0.5l1.3,1c0.8,0.6,1.6,0.9,2.5,0.9h2.2c0.6,0,1.1-0.3,1.6-0.8l1.1-1.4
						c0.6-0.7,1.3-1,2.1-0.8L37,43c0.8,0.3,1.6-0.1,2.2-0.9l0,0c0.7-1,1.8-1.2,2.7-0.6l0.8,0.6c0.4,0.3,0.8,0.4,1.3,0.3l0.7-0.1
						c0.5-0.1,0.9-0.2,1.4-0.4h0c1.8-0.9,3.8-0.6,5.4,0.7l0.5,0.4c0.4,0.3,0.7,0.5,1.1,0.7l2.4,1.2c0.1,0,0.2,0.1,0.3,0.1l1.5,0.5
						c1.3,0.4,2.7,0.5,4,0.3h0v6.6H10.9V45.3z"/>
				</g>
				<g>
					<path class="st1" d="M61.7,52.8H10.4V40.6c0-0.3,0.2-0.5,0.4-0.6c0.2-0.1,0.5,0,0.7,0.2l0.8,1.1c0.2,0.2,0.4,0.3,0.7,0.2
						c0.2-0.1,0.6-0.8,0.9-1.4c1-1.8,2.5-4.1,4.3-4.1c0.6,0,1.2,0.3,2,0.8c1.2,0.6,2.7,1.4,4.2,1.2c1.2-0.2,2.5-0.6,3.6-1
						c1.2-0.4,2.3-0.8,3.1-0.8c1.5,0,4.3,0.3,6.2,0.6c1.2,0.2,2.2-0.5,2.8-0.9c0.3-0.2,0.5-0.4,0.8-0.4c0.4,0,0.8,0.2,1.4,0.5
						c1.1,0.5,2.8,1.3,4.6,0.9c0.8-0.2,1.7-1,2.6-1.8c1.1-1,2.1-1.9,3.2-1.9c2.4,0,3.1,2.5,3.6,4.1c0.1,0.5,0.3,1.1,0.4,1.2l1.7,0.8
						c0.8,0.4,1.8,0.3,2.5-0.4l0,0c0.2-0.2,0.4-0.2,0.6-0.1c0.2,0.1,0.4,0.3,0.4,0.6V52.8z M11.4,51.8h49.4V40.2
						c-0.9,0.5-2,0.6-3,0.1l-1.7-0.8c-0.4-0.2-0.6-0.8-0.9-1.8c-0.5-1.8-1.1-3.5-2.7-3.5c-0.7,0-1.6,0.8-2.6,1.7c-1,0.9-2,1.8-3,2
						c-2.1,0.5-3.9-0.4-5.2-1c-0.3-0.2-0.7-0.3-0.9-0.4c-0.1,0-0.2,0.1-0.3,0.2c-0.6,0.5-1.8,1.3-3.5,1.1c-1.9-0.3-4.6-0.6-6-0.6
						c-0.6,0-1.7,0.4-2.8,0.7c-1.1,0.4-2.4,0.8-3.7,1.1c-1.8,0.3-3.5-0.6-4.8-1.3c-0.6-0.3-1.2-0.7-1.6-0.7c-1.3,0-2.6,2.2-3.5,3.7
						c-0.6,1-0.9,1.5-1.2,1.7c-0.6,0.4-1.5,0.2-1.9-0.4l-0.2-0.2V51.8z"/>
				</g>
				<g>
					<path class="st11" d="M53.7,31.6L53.7,31.6c0.4,0.1,0.8,0,1-0.4l0.3-0.4c0.3-0.4,0.4-1.1,0.1-1.5l-0.2-0.4
						c-0.3-0.6-1-0.8-1.6-0.5l0,0c-0.5,0.3-0.8,0.9-0.6,1.5l0.2,0.9C53,31.2,53.3,31.5,53.7,31.6z"/>
					<path class="st1" d="M53.9,32.1c-0.1,0-0.2,0-0.4,0h0c-0.5-0.1-1-0.6-1.1-1.1L52.2,30c-0.2-0.8,0.1-1.7,0.8-2.1
						c0.4-0.2,0.8-0.3,1.2-0.2c0.4,0.1,0.8,0.4,1,0.8l0.2,0.4c0.3,0.6,0.3,1.5-0.1,2l-0.3,0.4C54.8,31.9,54.4,32.1,53.9,32.1z
						 M53.8,31.1c0.2,0.1,0.4,0,0.5-0.2l0.3-0.4c0.2-0.3,0.2-0.7,0.1-1l-0.2-0.4c-0.1-0.2-0.3-0.3-0.5-0.4c-0.2,0-0.3,0-0.5,0.1
						c-0.3,0.2-0.5,0.6-0.4,1l0.2,0.9C53.4,30.9,53.6,31.1,53.8,31.1L53.8,31.1z"/>
				</g>
				<g>
					<path class="st11" d="M17.9,34.5L17.9,34.5c0.5-0.1,1-0.5,1.1-1.1l0.3-1.3c0.2-0.9-0.2-1.9-1-2.3h0c-0.8-0.3-1.6-0.1-2.1,0.7
						L16,30.9c-0.4,0.6-0.4,1.5,0,2.2l0.5,0.8C16.8,34.4,17.4,34.6,17.9,34.5z"/>
					<path class="st1" d="M17.7,35c-0.6,0-1.2-0.3-1.5-0.9l-0.5-0.8c-0.5-0.8-0.5-1.8,0-2.7l0.2-0.3c0.6-0.9,1.7-1.3,2.7-0.9
						c1,0.5,1.5,1.7,1.3,2.8l-0.3,1.3c-0.2,0.7-0.8,1.3-1.5,1.4l0,0C17.9,35,17.8,35,17.7,35z M17.6,30.2c-0.4,0-0.8,0.2-1,0.6
						l-0.2,0.3c-0.3,0.5-0.3,1.2,0,1.7l0.5,0.8c0.2,0.3,0.5,0.5,0.9,0.4c0.3-0.1,0.6-0.4,0.7-0.7l0.3-1.3c0.2-0.7-0.1-1.4-0.7-1.7
						C18,30.3,17.8,30.2,17.6,30.2z"/>
				</g>
				<g>
					<ellipse class="st12" cx="34.2" cy="39.2" rx="0.7" ry="0.8"/>
				</g>
				<g>
					<ellipse class="st13" cx="40.6" cy="39.9" rx="0.3" ry="0.6"/>
				</g>
				<g>
					<ellipse class="st13" cx="50" cy="40.9" rx="1" ry="1.1"/>
				</g>
				<g>
					<ellipse class="st12" cx="42.5" cy="45" rx="1.5" ry="1.6"/>
				</g>
				<g>
					<ellipse class="st12" cx="43.7" cy="43.8" rx="0.5" ry="0.6"/>
				</g>
				<g>
					<ellipse class="st12" cx="36.1" cy="44.5" rx="0.5" ry="0.5"/>
				</g>
				<g>
					<ellipse class="st12" cx="35.8" cy="46.1" rx="0.2" ry="0.2"/>
				</g>
				<g>
					<ellipse class="st11" cx="42.5" cy="44.3" rx="0.2" ry="0.2"/>
				</g>
				<g>
					<ellipse class="st11" cx="42.3" cy="44.8" rx="0.4" ry="0.5"/>
				</g>
				<g>
					<ellipse class="st11" cx="52.5" cy="43.6" rx="0.7" ry="0.8"/>
				</g>
				<g>
					<ellipse class="st12" cx="20.7" cy="44.3" rx="0.9" ry="1"/>
				</g>
				<g>
					<ellipse class="st11" cx="20.6" cy="44.3" rx="0.2" ry="0.3"/>
				</g>
				<g>
					<ellipse class="st12" cx="20.5" cy="43.4" rx="0.3" ry="0.3"/>
				</g>
				<g>
					<ellipse class="st12" cx="31.4" cy="38.8" rx="0.2" ry="0.2"/>
				</g>
				<g>
					<ellipse class="st12" cx="30.1" cy="40" rx="0.4" ry="0.5"/>
				</g>
				<g>
					<ellipse class="st12" cx="34.7" cy="38.8" rx="0.4" ry="0.4"/>
				</g>
				<g>
					<ellipse class="st12" cx="18.4" cy="38.4" rx="0.3" ry="0.5"/>
				</g>
				<g>
					<ellipse class="st12" cx="53.3" cy="36.8" rx="0.6" ry="0.8"/>
				</g>
				<g>
					<ellipse class="st12" cx="52.5" cy="36.3" rx="0.5" ry="0.6"/>
				</g>
				<g>
					<ellipse class="st11" cx="53.5" cy="36.7" rx="0.1" ry="0.2"/>
				</g>
				<g>
					<ellipse class="st11" cx="53.4" cy="36.6" rx="0.1" ry="0.1"/>
				</g>
				<g>
					<ellipse class="st12" cx="25.1" cy="49.1" rx="1.7" ry="1.9"/>
				</g>
				<g>
					<ellipse class="st12" cx="24" cy="47.3" rx="0.6" ry="0.7"/>
				</g>
				<g>
					<ellipse class="st13" cx="48.7" cy="41.5" rx="0.4" ry="0.5"/>
				</g>
				<g>
					<ellipse class="st11" cx="27.1" cy="43" rx="0.8" ry="0.8"/>
				</g>
				<g>
					<ellipse class="st11" cx="25.9" cy="42.2" rx="0.3" ry="0.3"/>
				</g>
				<g>
					<path class="st14" d="M54.4,36.8c-0.1,0-0.2,0-0.2-0.1L54,36.4c-0.1-0.3-0.3-0.5-0.6-0.7c-0.1-0.1-0.1-0.2,0-0.3
						c0.1-0.1,0.2-0.1,0.3,0c0.2,0.3,0.5,0.5,0.6,0.9l0.2,0.4c0.1,0.1,0,0.3-0.1,0.3C54.5,36.8,54.5,36.8,54.4,36.8z"/>
				</g>
				<g>
					<path class="st14" d="M53,35.2c0,0-0.1,0-0.1,0c-0.2-0.1-0.3-0.2-0.5-0.3c-0.1-0.1-0.2-0.2-0.1-0.3c0.1-0.1,0.2-0.2,0.3-0.1
						c0.2,0.1,0.4,0.2,0.6,0.3c0.1,0.1,0.1,0.2,0.1,0.3C53.2,35.1,53.1,35.2,53,35.2z"/>
				</g>
				<g>
					<path class="st14" d="M41.6,37.9c0,0-0.1,0-0.1,0l-0.6-0.3c-0.1-0.1-0.2-0.2-0.1-0.3c0.1-0.1,0.2-0.2,0.3-0.1l0.6,0.3
						c0.1,0.1,0.2,0.2,0.1,0.3C41.7,37.8,41.6,37.9,41.6,37.9z"/>
				</g>
				<g>
					<path class="st14" d="M18.4,32.1c-0.1,0-0.2-0.1-0.2-0.2l0-0.1c0-0.1-0.1-0.2-0.1-0.3c-0.1-0.1,0-0.3,0.1-0.3
						c0.1-0.1,0.3,0,0.3,0.1c0.1,0.2,0.1,0.3,0.2,0.5l0,0.1C18.6,31.9,18.5,32,18.4,32.1C18.4,32.1,18.4,32.1,18.4,32.1z"/>
				</g>
				<g>
					<path class="st14" d="M17.8,31.1c0,0-0.1,0-0.1,0c-0.1-0.1-0.2-0.1-0.3-0.1c-0.1,0-0.2-0.2-0.2-0.3c0-0.1,0.2-0.2,0.3-0.2l0,0
						c0.1,0,0.3,0.1,0.4,0.2C18,30.7,18,30.9,18,31C17.9,31.1,17.8,31.1,17.8,31.1z"/>
				</g>
				<g>
					<path class="st14" d="M32.6,38C32.5,38,32.5,38,32.6,38l-0.6,0c-0.1,0-0.2-0.1-0.2-0.3c0-0.1,0.1-0.2,0.3-0.2l0.6,0
						c0.1,0,0.2,0.1,0.2,0.3C32.8,37.9,32.7,38,32.6,38z"/>
				</g>
				<g>
					<path class="st14" d="M30.4,38c-0.1,0-0.2-0.1-0.2-0.2c0-0.1,0.1-0.3,0.2-0.3c0.3,0,0.6-0.1,0.9-0.1c0.1,0,0.2,0.1,0.2,0.2
						c0,0.1-0.1,0.2-0.2,0.2C31,37.9,30.7,38,30.4,38C30.4,38,30.4,38,30.4,38z"/>
				</g>
				<g>
					<path class="st14" d="M28.8,38.4c-0.1,0-0.2-0.1-0.2-0.2c0-0.1,0-0.3,0.2-0.3l0.7-0.2c0.1,0,0.3,0,0.3,0.2c0,0.1,0,0.3-0.2,0.3
						L28.8,38.4C28.9,38.4,28.9,38.4,28.8,38.4z"/>
				</g>
			</g>
			<g>
				<g>
					<path class="st15" d="M63.4,45.6c0.9,2.1,1.7,4.2,2.3,6.5c0.8,3,2.2,6.1,2.2,9.4c0,9.5-1.4,18.1-7,24.5c-5.9,6.8-13,11-25,11
						c-11.6,0-19.9-4.6-25.9-12c-5.1-6.3-6.2-14.5-6.2-23.5c0-3.4,1.5-6.7,2.3-9.9c0.6-2.2,1.4-4.4,2.4-6.4"/>
					<path class="st1" d="M35.8,97.3c-10.9,0-19.7-4.1-26.3-12.1C4,78.4,3.2,69.4,3.2,61.4c0-2.6,0.8-5,1.5-7.4
						c0.3-0.9,0.6-1.7,0.8-2.6c0.6-2.2,1.4-4.4,2.4-6.5l0.9,0.4c-1,2-1.8,4.2-2.3,6.4c-0.2,0.9-0.5,1.8-0.8,2.6
						c-0.7,2.3-1.5,4.7-1.5,7.1c0,7.8,0.7,16.6,6,23.2c6.4,7.8,14.9,11.8,25.5,11.8c10.7,0,18-3.2,24.7-10.8
						c4.8-5.4,6.9-12.9,6.9-24.2c0-2.2-0.7-4.4-1.3-6.5c-0.3-0.9-0.6-1.8-0.8-2.7c-0.6-2.2-1.3-4.4-2.3-6.4l0.9-0.4
						c1,2.1,1.7,4.3,2.3,6.6c0.2,0.9,0.5,1.7,0.8,2.7c0.7,2.2,1.4,4.5,1.4,6.8c0,11.5-2.2,19.2-7.1,24.8
						C54.3,94,46.7,97.3,35.8,97.3z"/>
				</g>
				<g>
					<path class="st16" d="M6.9,80.3c0.8,1.6,1.7,3.2,2.9,4.6c6,7.3,14.3,12,25.9,12c12.1,0,19.1-4.2,25-11l-10,2.2
						c-15,3.4-22.7,2.8-39.1-5L6.9,80.3z"/>
				</g>
				<g>
					<path class="st17" d="M7,48.5c3.6,2.3,15.2,4,28.9,4c4.2,0,8.1-0.2,11.7-0.4l2.6-2.1l1.7,1.7c6.1-0.7,10.6-1.8,12.7-3.1
						l-1.8-4.1L8.6,44.1L7,48.5z"/>
				</g>
				<g>
					<path class="st1" d="M35.8,97.3c-10.9,0-19.7-4.1-26.3-12.1C4,78.4,3.2,69.4,3.2,61.4c0-2.6,0.8-5,1.5-7.4
						c0.3-0.9,0.6-1.7,0.8-2.6c0.6-2.2,1.4-4.4,2.4-6.5l0.9,0.4c-1,2-1.8,4.2-2.3,6.4c-0.2,0.9-0.5,1.8-0.8,2.6
						c-0.7,2.3-1.5,4.7-1.5,7.1c0,7.8,0.7,16.6,6,23.2c6.4,7.8,14.9,11.8,25.5,11.8c10.7,0,18-3.2,24.7-10.8
						c4.8-5.4,6.9-12.9,6.9-24.2c0-2.2-0.7-4.4-1.3-6.5c-0.3-0.9-0.6-1.8-0.8-2.7c-0.6-2.2-1.3-4.4-2.3-6.4l0.9-0.4
						c1,2.1,1.7,4.3,2.3,6.6c0.2,0.9,0.5,1.7,0.8,2.7c0.7,2.2,1.4,4.5,1.4,6.8c0,11.5-2.2,19.2-7.1,24.8
						C54.3,94,46.7,97.3,35.8,97.3z"/>
				</g>
			</g>
			<g>
				<path class="st15" d="M64.5,41.9c-5,2.1-14.6,3.1-28.7,3.1C21.3,45,12.1,44,7,42c-1.1-0.4-2.1-0.6-1.8,0.7l0.6,2.8
					c0,3,13.4,5.5,30,5.5c4.2,0,8.1-0.2,11.7-0.4l2.6-2.1l1.7,1.7c8.4-1,14-2.7,14-4.6l0.6-2.5C66.7,41.7,65.6,41.4,64.5,41.9z"/>
				<path class="st1" d="M35.8,51.5c-14.7,0-30.3-2.1-30.5-5.9l-0.6-2.8c-0.1-0.6,0-1.1,0.3-1.4c0.5-0.5,1.4-0.2,2.2,0.1
					c5.2,2,14.6,3,28.7,3c14.1,0,23.7-1,28.5-3.1l0,0c0.8-0.4,1.6-0.3,2.1,0.1c0.3,0.2,0.6,0.7,0.4,1.6l-0.6,2.5
					c-0.1,3-9.1,4.4-14.4,5.1l-0.2,0l-1.6-1.5l-2.4,1.9l-0.1,0C43.8,51.4,39.9,51.5,35.8,51.5z M5.6,42.2c0,0,0,0.1,0,0.4l0.7,2.9
					c0,2.4,12.1,5,29.6,5c4,0,7.9-0.1,11.5-0.4l2.8-2.2l1.9,1.8c9.2-1.1,13.4-2.9,13.4-4.1l0-0.1l0.6-2.5c0-0.2,0.1-0.6-0.1-0.7
					c-0.2-0.1-0.6-0.2-1.1,0.1c-5,2.1-14.7,3.2-28.9,3.2c-14.2,0-23.7-1-29-3C5.8,42,5.6,42.1,5.6,42.2z"/>
			</g>
			<g>
				<path class="st8" d="M66.5,41c0,2.1-13.7,3.9-30.7,3.9S5.1,43.2,5.1,41h5.2c0,0.8,11.4,1.5,25.5,1.5s25.5-0.7,25.5-1.5H66.5z"/>
			</g>
			<g>
				<path class="st1" d="M35.8,45.4c-8.2,0-15.9-0.4-21.7-1.1c-9.4-1.2-9.4-2.7-9.4-3.2h0.9c0,0,0.2,1.2,8.6,2.3
					c5.8,0.7,13.5,1.1,21.6,1.1s15.9-0.4,21.6-1.1C65.8,42.2,66,41,66,41h0.9c0,0.6,0,2-9.4,3.2C51.7,45,44,45.4,35.8,45.4z"/>
			</g>
			<g>
				<path class="st1" d="M35.8,43c-6.8,0-13.2-0.2-18-0.4c-7.9-0.5-7.9-1-7.9-1.5c0-0.3,0.2-0.5,0.5-0.5c0.2,0,0.3,0.1,0.4,0.2
					c1.1,0.5,10.2,1.3,25,1.3s24-0.7,25-1.3c0.1-0.1,0.2-0.2,0.4-0.2c0.3,0,0.5,0.2,0.5,0.5c0,0.5,0,1.1-7.9,1.5
					C49,42.8,42.6,43,35.8,43z"/>
			</g>
			<g>
				<g>
					<polygon class="st18" points="39.8,109.1 40.1,106.1 39.3,102.7 37.3,100.6 37.2,103.9 38,106.3 					"/>
					<path class="st1" d="M40.2,110.5l-2.6-4l-0.8-2.5l0.1-4.5l2.8,3l0.8,3.6L40.2,110.5z M38.5,106.1l1,1.5l0.1-1.5l-0.7-3.2
						l-1.1-1.2l-0.1,2.1L38.5,106.1z"/>
				</g>
				<g>
					<polygon class="st18" points="31.7,100.6 32,103.6 31.2,107 29.2,109.1 29.2,105.8 30,103.4 					"/>
					<path class="st1" d="M28.8,110.2l-0.1-4.5l0.9-2.6l2.5-3.9l0.4,4.4l-0.8,3.6L28.8,110.2z M29.6,105.8l0.1,2.1l1.1-1.2l0.7-3.2
						l-0.1-1.5l-1,1.5L29.6,105.8z"/>
				</g>
				<g>
					<path class="st18" d="M38.1,88.4C38.1,88.4,38,88.4,38.1,88.4c-2.2,0.4-4.5,0.4-6.6,0l-0.1,0c-1.1-0.2-2.1,0.7-2,1.8l0.2,7.3
						l2.3,7.8c0.3,1.2,1,2,1.9,2.2l0.1,0.9l0.5,2.3l0.4,2l0.4-1.9l0.6-2.4l0.1-0.9c0.9-0.2,1.6-1,1.9-2.2l2.3-7.8l0.2-7.3
						C40.2,89.1,39.2,88.2,38.1,88.4z"/>
					<path class="st1" d="M34.7,114.8l-1.4-6.4l0-0.6c-0.9-0.4-1.6-1.3-1.9-2.4l-2.3-7.9l-0.2-7.3c-0.1-0.7,0.2-1.3,0.7-1.8
						s1.2-0.6,1.9-0.5l0.1,0c2.1,0.4,4.3,0.4,6.4,0l0.1,0c0.7-0.1,1.4,0.1,1.9,0.5c0.5,0.5,0.8,1.1,0.7,1.8l-0.2,7.4l-2.3,7.8
						c-0.3,1.1-1,2-1.9,2.4l-0.1,0.7L34.7,114.8z M34.2,108.3l0.5,2.2l0.5-2.2l0.1-1.2l0.3-0.1c0.7-0.2,1.3-0.9,1.5-1.9l2.3-7.7
						l0.2-7.2c0-0.4-0.1-0.8-0.4-1c-0.3-0.3-0.7-0.4-1.1-0.3l-0.1,0c-2.3,0.5-4.5,0.5-6.8,0l-0.1,0c-0.4-0.1-0.8,0-1.1,0.3
						c-0.3,0.3-0.4,0.6-0.4,1l0.2,7.3l2.3,7.7c0.3,1,0.8,1.7,1.5,1.9l0.3,0.1L34.2,108.3z"/>
				</g>
			</g>
			<g>
				<g>
					<polygon class="st18" points="5.2,94.6 5.4,97 4.8,99.9 3.1,101.6 3.1,98.9 3.7,96.9 					"/>
					<path class="st1" d="M2.7,102.8l-0.1-4l0.8-2.2l2.2-3.4l0.3,3.9l-0.7,3L2.7,102.8z M3.5,98.9l0,1.5l0.8-0.8L5,97l-0.1-1
						l-0.7,1.1L3.5,98.9z"/>
				</g>
				<g>
					<path class="st18" d="M13.5,89l-0.4-6.9c-0.1-0.9-1-1.5-1.9-1.2L8,82l-3.2,6.6v10.1h1.9l0.1,1l0.4,1.9l0.4,1.7l0.4-1.5l0.5-2
						l0.2-2.1L13.5,89z"/>
					<path class="st1" d="M7.6,105.4l-1.2-5.7l0-0.6H4.4V88.5l3.3-6.9l3.3-1.2c0.6-0.2,1.2-0.1,1.7,0.2c0.5,0.3,0.8,0.9,0.8,1.5
						l0.5,7l-4.9,8.7l-0.2,2L7.6,105.4z M7.3,99.6l0.3,1.5L8,99.6l0.2-2.1l4.9-8.6l-0.4-6.7c0-0.3-0.2-0.6-0.4-0.7
						c-0.2-0.2-0.5-0.2-0.8-0.1l-3,1.1l-3,6.4v9.5h1.9L7.3,99.6z"/>
				</g>
			</g>
			<g>
				<g>
					<polygon class="st18" points="67,94.1 66.8,96.5 67.5,99.4 69.1,101.1 69.2,98.4 68.5,96.4 					"/>
					<path class="st1" d="M69.5,102.3L67,99.6l-0.7-3l0.3-3.9l2.3,3.5l0.7,2.1L69.5,102.3z M67.9,99.1l0.8,0.8l0-1.5l-0.6-1.9
						l-0.7-1.1l-0.1,1L67.9,99.1z"/>
				</g>
				<g>
					<path class="st18" d="M67.4,88.1l-3.2-6.6l-3.2-1.1c-0.9-0.3-1.8,0.3-1.9,1.2l-0.4,6.9l4.9,8.7l0.2,2.1l0.5,2l0.4,1.5l0.4-1.7
						l0.4-1.9l0.1-1h1.9V88.1z"/>
					<path class="st1" d="M64.6,104.9l-1.3-5.7l-0.2-2l-4.9-8.7l0.5-7c0-0.6,0.3-1.1,0.8-1.5c0.5-0.3,1.1-0.4,1.7-0.2l3.3,1.2
						l3.3,6.9v10.6h-1.9l-0.1,0.7L64.6,104.9z M64.3,99.1l0.3,1.5l0.3-1.5l0.1-1.4h1.9v-9.5l-3-6.4l-3-1.1c-0.3-0.1-0.6-0.1-0.8,0.1
						c-0.2,0.2-0.4,0.4-0.4,0.7l-0.4,6.7l4.9,8.6L64.3,99.1z"/>
				</g>
			</g>
			<g>
				<path class="st19" d="M63.7,59.3C63.7,59.3,63.7,59.3,63.7,59.3c-0.3,0-0.5-0.2-0.5-0.5c0-0.5,0-1,0-1.4c0-0.3,0.2-0.5,0.5-0.5
					c0.3,0,0.5,0.2,0.5,0.5c0,0.5,0,1,0,1.5C64.2,59.1,63.9,59.3,63.7,59.3z"/>
			</g>
			<g>
				<path class="st19" d="M63.3,55.1c-0.2,0-0.4-0.2-0.5-0.4c-0.1-1-0.2-2-0.4-3c-0.1-0.3,0.1-0.5,0.4-0.6c0.3-0.1,0.5,0.1,0.6,0.4
					c0.2,1,0.4,2.1,0.5,3.1C63.8,54.9,63.6,55.1,63.3,55.1C63.3,55.1,63.3,55.1,63.3,55.1z"/>
			</g>
			<g>
				<path class="st19" d="M56.1,48.3c-0.2,0-0.4-0.2-0.5-0.4c0-0.3,0.1-0.5,0.4-0.5l0.2,0c1.3-0.2,2.7-0.4,4-0.8
					c0.3-0.1,0.5,0.1,0.6,0.3c0.1,0.3-0.1,0.5-0.3,0.6c-1.3,0.3-2.7,0.6-4.1,0.8L56.1,48.3C56.2,48.3,56.2,48.3,56.1,48.3z"/>
			</g>
			<g>
				<path class="st19" d="M62.5,46.8c-0.2,0-0.4-0.1-0.5-0.3c-0.1-0.2,0.1-0.5,0.3-0.6c0.6-0.2,1.2-0.4,1.7-0.6
					c0.2-0.1,0.5,0,0.6,0.3c0.1,0.2,0,0.5-0.3,0.6c-0.6,0.2-1.2,0.4-1.8,0.6C62.6,46.8,62.5,46.8,62.5,46.8z"/>
			</g>
		</g>
		<g>
			<g>
				<polygon class="st20" points="2.9,60.7 2,65.6 2.9,69.8 35.8,73.7 68.3,69.2 69.2,65.5 68.8,61.4 35.6,62.1 				"/>
				<path class="st1" d="M35.8,74.2L2.5,70.2l-1-4.7l1-5.3l33.1,1.4l33.7-0.8l0.4,4.6l-0.9,4.1L35.8,74.2z M3.3,69.4l32.4,3.8
					l32.2-4.5l0.8-3.3l-0.3-3.6l-32.8,0.7L3.3,61.2l-0.8,4.3L3.3,69.4z"/>
			</g>
			<g>
				<g>
					<path class="st21" d="M41.1,78.1H30.5c-0.7,0-1.3-0.6-1.3-1.3V59.6c0-0.7,0.6-1.3,1.3-1.3h10.6c0.7,0,1.3,0.6,1.3,1.3v17.2
						C42.5,77.5,41.9,78.1,41.1,78.1z"/>
					<path class="st1" d="M41.1,78.6H30.5c-1,0-1.8-0.8-1.8-1.8V59.6c0-1,0.8-1.8,1.8-1.8h10.6c1,0,1.8,0.8,1.8,1.8v17.2
						C43,77.8,42.1,78.6,41.1,78.6z M30.5,58.7c-0.5,0-0.9,0.4-0.9,0.9v17.2c0,0.5,0.4,0.9,0.9,0.9h10.6c0.5,0,0.9-0.4,0.9-0.9V59.6
						c0-0.5-0.4-0.9-0.9-0.9H30.5z"/>
				</g>
				<g>
					<path class="st22" d="M40.7,68.5c-0.3,0-0.5-0.2-0.5-0.5v-1.5c0-0.3,0.2-0.5,0.5-0.5c0.3,0,0.5,0.2,0.5,0.5V68
						C41.2,68.3,41,68.5,40.7,68.5z"/>
				</g>
				<g>
					<path class="st22" d="M40.7,65.1c-0.3,0-0.5-0.2-0.5-0.5v-3.1c0-0.3,0.2-0.5,0.5-0.5c0.3,0,0.5,0.2,0.5,0.5v3.1
						C41.2,64.9,41,65.1,40.7,65.1z"/>
				</g>
				<g class="st23">
					<line class="st21" x1="30.9" y1="61.7" x2="35.6" y2="61.7"/>
					<path class="st1" d="M35.6,62.2h-4.7c-0.3,0-0.5-0.2-0.5-0.5c0-0.3,0.2-0.5,0.5-0.5h4.7c0.3,0,0.5,0.2,0.5,0.5
						C36.1,62,35.9,62.2,35.6,62.2z"/>
				</g>
				<g class="st23">
					<line class="st21" x1="30.9" y1="64.1" x2="34.2" y2="64.1"/>
					<path class="st1" d="M34.2,64.5h-3.3c-0.3,0-0.5-0.2-0.5-0.5c0-0.3,0.2-0.5,0.5-0.5h3.3c0.3,0,0.5,0.2,0.5,0.5
						C34.6,64.3,34.4,64.5,34.2,64.5z"/>
				</g>
				<g class="st23">
					<line class="st21" x1="30.9" y1="66.4" x2="36.1" y2="66.4"/>
					<path class="st1" d="M36.1,66.9h-5.2c-0.3,0-0.5-0.2-0.5-0.5c0-0.3,0.2-0.5,0.5-0.5h5.2c0.3,0,0.5,0.2,0.5,0.5
						C36.5,66.7,36.3,66.9,36.1,66.9z"/>
				</g>
				<g class="st23">
					<line class="st21" x1="30.9" y1="68.8" x2="35.6" y2="68.8"/>
					<path class="st1" d="M35.6,69.3h-4.7c-0.3,0-0.5-0.2-0.5-0.5c0-0.3,0.2-0.5,0.5-0.5h4.7c0.3,0,0.5,0.2,0.5,0.5
						C36.1,69.1,35.9,69.3,35.6,69.3z"/>
				</g>
				<g class="st23">
					<line class="st21" x1="30.9" y1="71.2" x2="35.6" y2="71.2"/>
					<path class="st1" d="M35.6,71.6h-4.7c-0.3,0-0.5-0.2-0.5-0.5s0.2-0.5,0.5-0.5h4.7c0.3,0,0.5,0.2,0.5,0.5S35.9,71.6,35.6,71.6z"
						/>
				</g>
				<g class="st23">
					<line class="st21" x1="30.9" y1="73.5" x2="33.2" y2="73.5"/>
					<path class="st1" d="M33.2,74h-2.3c-0.3,0-0.5-0.2-0.5-0.5s0.2-0.5,0.5-0.5h2.3c0.3,0,0.5,0.2,0.5,0.5S33.5,74,33.2,74z"/>
				</g>
			</g>
		</g>
		<g>
			<g>
				<path class="st24" d="M59.9,18.1l-0.7-0.4L58.4,18l-0.2,0.1c-0.5,0.2-1,0.3-1.5,0.4l-1,0.1c-0.4,0-0.7,0.2-0.9,0.5v0
					c-0.2,0.3-0.6,0.5-1,0.5h-0.1c-0.5,0-1,0.1-1.5,0.3L52,19.9l-1.3,0.5c-0.4,0.1-0.8,0.3-1.2,0.6l0,0c-0.3,0.2-0.6,0.5-0.9,0.7
					l-0.9,0.9c-0.2,0.2-0.4,0.4-0.5,0.6l-0.1,0.1c-0.3,0.4-0.6,0.9-0.8,1.4c-0.1,0.2-0.1,0.3-0.1,0.4c0,0.1,0,0.9,0,1.4
					c0,0.4,0,0.7-0.1,1.1l-0.7,5.1c0,0.4-0.1,0.7-0.2,1.1v0c-0.3,1-0.4,2-0.2,3l0.1,0.7c0,0.3-0.1,0.7-0.3,0.9l-0.5,0.5l1.4,0.2
					c0.5,0.1,1-0.1,1.3-0.4l0.3-0.4l0,0c-0.6-0.3-0.9-0.9-1-1.6l-0.1-1c0-0.2,0-0.4,0.1-0.6l0.4-1.6l0.5-1.8c0.1-0.3,0.1-0.7,0.2-1
					l0.3-2.3c0-0.2,0-0.4,0-0.6v-1c0-1.1,0.5-2.2,1.4-2.9l1-0.8l0.9-0.7l0.8-0.8l0.7-0.6l0.3-0.3l0.9,0.3l1.5,0.1l1.6-0.3l1.1-0.5
					l1-0.7L59.9,18.1z"/>
				<path class="st1" d="M45.8,39.2c-0.1,0-0.2,0-0.3,0l-1.9-0.3l0.9-0.8c0.2-0.2,0.3-0.4,0.3-0.7l-0.1-0.7c-0.1-1,0-2.1,0.2-3.1
					c0.1-0.3,0.2-0.7,0.2-1.1l0.7-5.1c0-0.3,0.1-0.7,0.1-1c0-0.9,0-1.3,0-1.5c0-0.1,0-0.2,0.1-0.4c0.2-0.5,0.5-1,0.8-1.5L47,23
					c0.2-0.2,0.3-0.4,0.5-0.6l0.9-0.9c0.3-0.3,0.6-0.5,1-0.8c0.4-0.2,0.8-0.4,1.2-0.6l1.5-0.5c0.5-0.2,1-0.3,1.5-0.3h0.1
					c0.3,0,0.6-0.2,0.9-0.4c0.3-0.3,0.6-0.6,1.1-0.6l1-0.1c0.5-0.1,1-0.2,1.4-0.4l0.2-0.1l0.9-0.2l1.1,0.5L59,19.8l-1.1,0.8L56.8,21
					l-1.6,0.3l-1.6-0.2l-0.7-0.3L52.7,21l-0.7,0.6l-0.8,0.8l-2,1.6c-0.8,0.7-1.3,1.7-1.3,2.7v1c0,0.2,0,0.4,0,0.6l-0.3,2.3
					c0,0.3-0.1,0.7-0.2,1L46.5,35c0,0.2-0.1,0.4,0,0.6l0.1,1c0,0.6,0.4,1.1,0.9,1.4l0.3,0.2l-0.5,0.6C46.7,39,46.3,39.2,45.8,39.2z
					 M44.7,38.6l0.9,0.1c0.4,0.1,0.8-0.1,1.1-0.4l0.2-0.2c-0.5-0.4-0.8-1-0.8-1.6l-0.1-1c0-0.2,0-0.5,0.1-0.7l0.9-3.4
					c0.1-0.3,0.1-0.6,0.2-1l0.3-2.3c0-0.2,0-0.4,0-0.6v-1c0-1.2,0.5-2.4,1.5-3.1l1.9-1.5l0.8-0.8l1.1-1l1,0.4l1.5,0.1l1.5-0.3l1-0.5
					l1-0.7l0.9-1.2L59.1,18l-0.7,0.2l-0.2,0.1c-0.5,0.2-1,0.4-1.5,0.4l-1,0.1c-0.3,0-0.6,0.2-0.7,0.4c-0.3,0.4-0.7,0.6-1.2,0.6h-0.1
					c-0.5,0-0.9,0.1-1.4,0.2l-0.2,0.1l-1.3,0.5c-0.4,0.1-0.8,0.3-1.1,0.5c-0.3,0.2-0.6,0.4-0.9,0.7l-0.9,0.9
					c-0.2,0.2-0.3,0.4-0.5,0.5l-0.1,0.1c-0.3,0.4-0.6,0.9-0.8,1.4C46.4,25,46.4,25,46.4,25c0,0.1,0,0.6,0,1.4c0,0.4,0,0.7-0.1,1.1
					l-0.7,5.1c0,0.4-0.1,0.8-0.2,1.1c-0.3,0.9-0.3,1.9-0.2,2.9l0.1,0.7c0,0.4-0.1,0.8-0.4,1.1L44.7,38.6z"/>
			</g>
			<g>
				<g>
					<g class="st2">
						<g>
							<path class="st3" d="M47.4,18.7l3,3.4l2.2-1.9c0.6,0.3,1.3,0.5,2,0.5c2.6,0.1,5-1.7,5.6-4.2c0.8-3.2-1.5-6.4-4.8-6.7
								c-2.8-0.3-5.4,1.6-5.9,4.3c-0.2,0.9-0.1,1.8,0.1,2.7L47.4,18.7C47.4,18.6,47.4,18.7,47.4,18.7z"/>
						</g>
					</g>
					<g>
						<g>
							<g>
								<g>
									<g>
										<path class="st4" d="M50.5,22.1l-3-3.4c0,0,0,0,0,0l2.2-1.9c-0.2-0.8-0.3-1.7-0.1-2.7c0.6-2.7,3.2-4.6,5.9-4.3
											c0.1,0,0.2,0,0.3,0c3.1,0.5,5.2,3.6,4.5,6.7c-0.6,2.6-3,4.3-5.6,4.2c-0.2,0-0.4,0-0.6-0.1c-0.5-0.1-1-0.2-1.4-0.4
											L50.5,22.1 M50.4,23.2l0.6-0.5l1.9-1.6c0.4,0.1,0.8,0.2,1.1,0.3c0.2,0,0.5,0.1,0.7,0.1c1.4,0.1,2.9-0.4,4-1.3
											c1.2-0.9,2-2.1,2.3-3.5c0.4-1.7,0.1-3.5-0.9-4.9c-1-1.4-2.5-2.4-4.2-2.7c-0.1,0-0.2,0-0.3,0c-1.5-0.2-3.1,0.3-4.3,1.2
											c-1.3,0.9-2.1,2.3-2.4,3.8c-0.2,0.8-0.2,1.7,0,2.6L47,18.1c0,0,0,0,0,0l-0.6,0.5l0.5,0.6l3,3.4L50.4,23.2L50.4,23.2z"/>
									</g>
									<g>
										<path class="st1" d="M46.2,18.6l0.6-0.6c0,0,0,0,0.1,0l1.8-1.5c-0.2-0.8-0.2-1.7,0-2.5c0.3-1.5,1.2-2.9,2.5-3.8
											c1.3-0.9,2.8-1.4,4.4-1.2c0.1,0,0.2,0,0.3,0c1.7,0.3,3.3,1.3,4.3,2.7c1,1.5,1.3,3.3,0.9,5c-0.3,1.4-1.2,2.7-2.4,3.6
											c-1.2,0.9-2.7,1.4-4.1,1.3c-0.2,0-0.5,0-0.7-0.1c-0.4-0.1-0.7-0.2-1.1-0.3l-2.5,2.1L46.2,18.6z M48.9,16.5L47,18.2
											c0,0,0,0,0,0l-0.5,0.4l3.9,4.4l2.4-2l0.1,0c0.4,0.1,0.7,0.2,1.1,0.3c0.2,0,0.5,0.1,0.7,0.1c1.4,0.1,2.8-0.4,4-1.2
											c1.1-0.9,1.9-2.1,2.3-3.5c0.4-1.7,0.1-3.4-0.9-4.8c-0.9-1.4-2.4-2.4-4.1-2.6c-0.1,0-0.2,0-0.3,0c-1.5-0.2-3,0.3-4.2,1.2
											c-1.2,0.9-2.1,2.2-2.4,3.7C48.8,14.8,48.8,15.6,48.9,16.5L48.9,16.5z M47.2,18.7L47.2,18.7c0.1-0.1,0.1-0.1,0.1-0.1
											l2.2-1.8c-0.2-0.9-0.3-1.8-0.1-2.7c0.6-2.8,3.3-4.7,6.1-4.4c0.1,0,0.2,0,0.3,0c1.5,0.2,2.9,1.1,3.8,2.4
											c0.9,1.3,1.2,2.9,0.8,4.4c-0.6,2.6-3,4.4-5.7,4.3c-0.2,0-0.4,0-0.6-0.1c-0.5-0.1-0.9-0.2-1.4-0.4l-2.2,1.9L47.2,18.7z
											 M49.8,16.8l-2.2,1.9l2.9,3.2l2.2-1.9l0.1,0c0.4,0.2,0.9,0.3,1.4,0.4c0.2,0,0.4,0.1,0.6,0.1c2.6,0.1,4.9-1.6,5.5-4.1
											c0.3-1.5,0.1-3-0.8-4.2c-0.8-1.2-2.1-2.1-3.6-2.3c-0.1,0-0.2,0-0.3,0c-2.7-0.3-5.2,1.6-5.8,4.2
											C49.5,15,49.5,15.9,49.8,16.8L49.8,16.8z"/>
									</g>
								</g>
								<g>
									<g>
										<path class="st5" d="M60.3,16.2c0,0.1,0,0.2-0.1,0.3c-0.6,2.6-3,4.3-5.6,4.2c-0.7,0-1.4-0.2-2-0.5l-2.2,1.9l-3-3.4
											c0,0,0,0,0,0l2.2-1.9c-0.2-0.8-0.3-1.6-0.1-2.5c0-0.1,0-0.1,0-0.2c0.6-2.7,3.2-4.6,5.9-4.3C58.7,10.1,60.9,13,60.3,16.2
											 M60.7,16.2c0.3-1.6-0.1-3.3-1.1-4.6c-1-1.3-2.4-2.1-4.1-2.3c-1.4-0.2-2.9,0.2-4.1,1.1c-1.2,0.9-2,2.1-2.3,3.5
											c0,0.1,0,0.1,0,0.2C49,15,49,15.8,49.2,16.6l-2,1.7c0,0,0,0,0,0l-0.3,0.3l0.2,0.3l3,3.4l0.2,0.3l0.3-0.2l2-1.7
											c0.6,0.3,1.3,0.4,1.9,0.4c1.4,0.1,2.7-0.4,3.8-1.2c1.1-0.8,1.9-2,2.2-3.3C60.7,16.4,60.7,16.3,60.7,16.2L60.7,16.2
											C60.7,16.2,60.7,16.2,60.7,16.2L60.7,16.2z"/>
									</g>
								</g>
								<g>
									<g>
										<path class="st1" d="M47.2,18.7l0.1-0.1c0,0,0,0,0,0l2.2-1.8c-0.2-0.9-0.3-1.8-0.1-2.7c0.6-2.8,3.3-4.7,6.1-4.4
											c1.6,0.2,3.1,1,4,2.3c0.9,1.3,1.3,3,0.9,4.6c-0.6,2.6-3,4.4-5.7,4.3c-0.7,0-1.4-0.2-2-0.5l-2.2,1.9L47.2,18.7z M49.8,16.8
											l-2.2,1.9l2.9,3.2l2.2-1.9l0.1,0c0.6,0.3,1.3,0.4,2,0.5c2.6,0.1,4.9-1.6,5.5-4.1c0.4-1.5,0-3.1-0.8-4.3
											c-0.9-1.3-2.3-2.1-3.8-2.2c-2.7-0.3-5.2,1.6-5.8,4.2C49.5,15,49.5,15.9,49.8,16.8L49.8,16.8z"/>
									</g>
								</g>
							</g>
						</g>
						<g>
							<g>
								<g>
									<path class="st6" d="M45.5,19.7l3.7,4.2c0.3,0.4,0.9,0.5,1.4,0.2c0,0,0.1-0.1,0.1-0.1c0.1-0.1,0.2-0.3,0.3-0.4
										c0.1-0.4,0-0.9-0.3-1.2l-3.6-4.1c-0.4-0.4-0.9-0.5-1.4-0.2c-0.1,0-0.1,0.1-0.1,0.1c-0.1,0-0.1,0.1-0.2,0.2
										C45.1,18.8,45.2,19.3,45.5,19.7z M45.8,18.4c0.1-0.1,0.3-0.2,0.5-0.2c0.1,0,0.3,0.1,0.4,0.2l3.9,4.4
										c0.2,0.3,0.2,0.7-0.1,0.9c-0.3,0.2-0.7,0.2-0.9-0.1l-3.9-4.4C45.5,19,45.5,18.6,45.8,18.4z"/>
								</g>
								<g>
									<path class="st1" d="M45.1,18.7c0-0.2,0.1-0.3,0.2-0.4c0.1-0.1,0.1-0.2,0.2-0.2c0,0,0.1-0.1,0.1-0.1
										c0.5-0.3,1.2-0.2,1.6,0.3l3.6,4.1c0.3,0.4,0.4,0.8,0.3,1.3c-0.1,0.2-0.2,0.4-0.3,0.5c0,0-0.1,0.1-0.2,0.1
										c-0.5,0.3-1.1,0.2-1.5-0.3l-3.7-4.2C45.2,19.5,45.1,19.1,45.1,18.7z M50.9,23.5c0.1-0.3,0-0.7-0.3-1L47,18.4
										c-0.3-0.4-0.8-0.5-1.3-0.2c0,0-0.1,0.1-0.1,0.1c0,0-0.1,0.1-0.1,0.2c-0.2,0.4-0.2,0.9,0.1,1.2l3.7,4.2
										c0.3,0.4,0.8,0.4,1.2,0.2c0,0,0.1-0.1,0.1-0.1C50.8,23.8,50.9,23.7,50.9,23.5C50.9,23.5,50.9,23.5,50.9,23.5z M45.5,18.8
										c0-0.2,0.1-0.3,0.2-0.4l0,0c0.2-0.2,0.4-0.2,0.6-0.2c0.2,0,0.3,0.1,0.4,0.2l3.9,4.4c0.1,0.2,0.2,0.3,0.2,0.5
										c0,0.2-0.1,0.4-0.3,0.5c-0.3,0.3-0.8,0.2-1.1-0.1l-3.9-4.4C45.5,19.2,45.4,19,45.5,18.8C45.5,18.8,45.5,18.8,45.5,18.8z
										 M50.6,23.4C50.6,23.3,50.6,23.3,50.6,23.4c0-0.2,0-0.3-0.1-0.4l-3.9-4.4c-0.1-0.1-0.2-0.1-0.3-0.2c-0.1,0-0.3,0-0.4,0.1
										l0,0c-0.1,0.1-0.2,0.2-0.2,0.3c0,0.1,0,0.3,0.1,0.4l3.9,4.4c0.2,0.2,0.5,0.2,0.7,0C50.5,23.6,50.6,23.5,50.6,23.4z"/>
								</g>
							</g>
							<g>
								<g>
									<path class="st3" d="M46.3,18.3c0.1,0,0.3,0.1,0.4,0.2l3.9,4.4c0.2,0.3,0.2,0.7-0.1,0.9c-0.3,0.2-0.7,0.2-0.9-0.1l-3.9-4.4
										c-0.2-0.3-0.2-0.7,0.1-0.9C45.9,18.3,46.1,18.2,46.3,18.3z"/>
								</g>
								<g>
									<path class="st1" d="M45.5,18.8c0-0.2,0.1-0.3,0.2-0.4c0.2-0.2,0.4-0.2,0.6-0.2l0,0c0.2,0,0.3,0.1,0.4,0.2l3.9,4.4
										c0.1,0.2,0.2,0.3,0.2,0.5c0,0.2-0.1,0.4-0.3,0.5c-0.3,0.3-0.8,0.2-1.1-0.1l-3.9-4.4C45.5,19.2,45.4,19,45.5,18.8
										C45.5,18.8,45.5,18.8,45.5,18.8z M50.6,23.4C50.6,23.3,50.6,23.3,50.6,23.4c0-0.2,0-0.3-0.1-0.4l-3.9-4.4
										c-0.1-0.1-0.2-0.1-0.3-0.2l0,0c-0.1,0-0.3,0-0.4,0.1c-0.1,0.1-0.2,0.2-0.2,0.3c0,0.1,0,0.3,0.1,0.4l3.9,4.4
										c0.2,0.2,0.5,0.2,0.7,0C50.5,23.6,50.6,23.5,50.6,23.4z"/>
								</g>
							</g>
							<g>
								<g>
									<path class="st7" d="M46.4,19.2C46.4,19.1,46.4,19.1,46.4,19.2c0.1-0.1,0.2-0.1,0.2-0.1l0.2,0.3c0,0.1,0,0.1,0,0.2
										c-0.1,0-0.1,0-0.2,0l-0.2-0.3C46.4,19.2,46.4,19.2,46.4,19.2z"/>
								</g>
							</g>
							<g>
								<g>
									<path class="st7" d="M47,19.8C47,19.8,47,19.8,47,19.8c0.1-0.1,0.2-0.1,0.2-0.1l0.5,0.6c0,0.1,0,0.1,0,0.2
										c-0.1,0-0.1,0-0.2,0L47,19.9C47,19.9,47,19.9,47,19.8z"/>
								</g>
							</g>
						</g>
					</g>
				</g>
			</g>
		</g>
		<g>
			<g>
				<g>
					<path class="st25" d="M2.8,12.4L3,12.9c0.2,0.3,0.5,0.4,0.8,0.2l0,0c0.2-0.2,0.5-0.1,0.7,0.1L5,13.6C5.2,13.8,5.5,14,5.7,14
						L7,14.4c0.5,0.1,0.8,0.5,1,0.9v0c0.1,0.3,0.4,0.6,0.7,0.8l1.5,0.9c0.3,0.1,0.6,0.2,0.8,0l0.6-0.3c0.1-0.1,0.3-0.1,0.5-0.1
						l1.5,0.1c0.5,0,0.8,0.4,0.8,0.9v0c0,0.3,0.1,0.5,0.3,0.7l0.2,0.1c0.4,0.3,0.9,0.4,1.4,0.3h0c0.3-0.1,0.5-0.1,0.8,0l1.2,0.3
						l1.3,0.3c0.3,0.1,0.6,0.3,0.9,0.6l1,1.3l2.6,3.1c0.3,0.4,0.6,0.9,0.8,1.3l0.2,0.5c0.3,0.7,0.4,1.4,0.3,2.1l-0.1,0.9l0.9,3.4
						c0.1,0.3,0.1,0.6,0.1,0.9l0,0.4c0,0.6-0.1,1.1-0.3,1.7v0c-0.3,0.6-0.4,1.4-0.3,2l0.2,1.1l0.9,1.2l-1.1,0.3
						c-1.1,0.3-2.3,0.3-3.3-0.1l-2.1-0.8l1.8-1.6l0.2-0.3c0.7-0.8,1-1.9,0.9-3l0,0l-0.2-1.4c0-0.2-0.1-0.5-0.1-0.7v-1.7
						c0-0.3,0-0.5,0.1-0.8l0.1-0.4c0.2-1.2,0-2.4-0.5-3.4l0,0c-0.4-0.6-0.9-1.2-1.5-1.6l-3.3-2.3l-1.9-1.2l-1.7,0.5l-3.2,0.3
						l-2.7-0.4l-2-1.4l-2-1.9l-1.6-2.8L2,12.2h0.3C2.5,12.2,2.7,12.3,2.8,12.4z"/>
					<path class="st1" d="M24.3,41.1c-0.7,0-1.4-0.1-2-0.4l-2.8-1.1l2.3-2l0.2-0.2c0.6-0.7,0.9-1.7,0.8-2.7l-0.2-1.4
						c0-0.3-0.1-0.5-0.1-0.8v-1.7c0-0.3,0-0.6,0.1-0.9l0.1-0.4c0.2-1,0-2.1-0.5-3c-0.3-0.6-0.8-1.1-1.3-1.4l-3.3-2.3l-1.7-1.1
						l-1.6,0.5l-3.3,0.3L8.1,22l-2.1-1.5l-2.1-2l-1.6-2.8l-0.8-4h0.9c0.4,0,0.7,0.2,0.9,0.5l0.2,0.4c0,0,0,0,0.1,0c0,0,0,0,0.1,0
						c0.4-0.3,1-0.2,1.3,0.1l0.5,0.5c0.1,0.1,0.3,0.2,0.5,0.3l1.3,0.4c0.6,0.2,1.1,0.6,1.3,1.2c0.1,0.2,0.3,0.4,0.5,0.5l1.5,0.9
						c0.1,0.1,0.3,0.1,0.4,0l0.6-0.3c0.2-0.1,0.5-0.2,0.7-0.1l1.5,0.1c0.7,0.1,1.3,0.7,1.3,1.4c0,0.1,0.1,0.2,0.2,0.3l0.2,0.1
						c0.3,0.2,0.6,0.3,0.9,0.2c0.3-0.1,0.7-0.1,1.1,0l1.2,0.3l1.3,0.3c0.4,0.1,0.8,0.4,1.1,0.7l1,1.3l2.6,3.1
						c0.4,0.4,0.7,0.9,0.9,1.5l0.2,0.5c0.3,0.7,0.4,1.5,0.4,2.3l-0.1,0.9l0.9,3.4c0.1,0.3,0.1,0.7,0.1,1l0,0.4
						c0,0.6-0.1,1.3-0.4,1.9c-0.2,0.6-0.3,1.2-0.2,1.8l0.1,0.9l1.3,1.7l-1.8,0.5C25.4,41,24.8,41.1,24.3,41.1z M21.2,39.3l1.4,0.6
						c1,0.4,2,0.4,3,0.1l0.5-0.1L25.5,39l-0.2-1.2c-0.1-0.8,0-1.6,0.3-2.3c0.2-0.5,0.3-1,0.3-1.5l0-0.4c0-0.3,0-0.6-0.1-0.8
						l-0.9-3.5l0.1-1c0-0.6-0.1-1.3-0.3-1.9l-0.2-0.5c-0.2-0.4-0.4-0.8-0.7-1.2l-2.6-3.1l-1-1.3c-0.1-0.2-0.4-0.3-0.6-0.4l-1.3-0.3
						L17,19.2c-0.2-0.1-0.4-0.1-0.6,0c-0.6,0.2-1.3,0-1.8-0.4l-0.2-0.1c-0.3-0.3-0.5-0.6-0.5-1.1c0-0.2-0.2-0.4-0.4-0.4l-1.5-0.1
						c-0.1,0-0.2,0-0.2,0l-0.6,0.3c-0.4,0.2-0.9,0.2-1.3,0l-1.5-0.9c-0.4-0.2-0.7-0.6-0.9-1c-0.1-0.3-0.4-0.6-0.7-0.6l-1.3-0.4
						c-0.3-0.1-0.7-0.3-0.9-0.5l-0.5-0.5c0,0-0.1,0-0.1,0c-0.2,0.2-0.5,0.2-0.8,0.2c-0.2-0.1-0.5-0.2-0.6-0.4l0.4,2.1L4.6,18l2,1.8
						l1.9,1.3l2.5,0.4l3.1-0.3l1.9-0.6l2.1,1.3l3.3,2.3c0.7,0.5,1.2,1.1,1.6,1.8c0.6,1.1,0.8,2.4,0.6,3.7L23.4,30
						c0,0.2-0.1,0.5-0.1,0.7v1.7c0,0.2,0,0.4,0.1,0.6l0.2,1.4c0.2,1.2-0.2,2.5-1,3.4l-0.3,0.3L21.2,39.3z"/>
				</g>
				<g>
					<path class="st26" d="M25.1,35C25.1,35,25.1,35,25.1,35c-0.2,0-0.3-0.2-0.2-0.3l0-0.2c0.1-0.3,0.1-0.7,0.1-1
						c0-0.1,0.1-0.2,0.2-0.2c0,0,0,0,0,0c0.1,0,0.2,0.1,0.2,0.2c0,0.4,0,0.7-0.1,1.1l0,0.2C25.3,35,25.2,35,25.1,35z"/>
				</g>
				<g>
					<path class="st26" d="M25.1,32.8c-0.1,0-0.2-0.1-0.2-0.2c-0.1-0.3-0.2-0.6-0.3-0.9c-0.1-0.1,0-0.3,0.1-0.3c0.1,0,0.3,0,0.3,0.1
						c0.1,0.3,0.2,0.6,0.3,0.9C25.4,32.6,25.3,32.7,25.1,32.8C25.2,32.8,25.1,32.8,25.1,32.8z"/>
				</g>
			</g>
			<g>
				<g>
					<g class="st2">
						<g>
							<path class="st3" d="M19.7,23.5l4.8-6l-3.8-3.1c0.3-1.1,0.4-2.3,0.2-3.5c-0.6-4.4-4.2-7.8-8.6-8C6.8,2.5,2.3,7.1,2.6,12.7
								c0.3,4.7,4.2,8.4,8.9,8.6c1.6,0.1,3.1-0.3,4.4-0.9L19.7,23.5C19.7,23.4,19.7,23.4,19.7,23.5z"/>
						</g>
					</g>
					<g>
						<g>
							<g>
								<g>
									<g>
										<path class="st4" d="M24.6,17.4l-4.8,6c0,0,0,0,0,0l-3.8-3.1c-1.3,0.6-2.8,1-4.4,0.9c-4.7-0.2-8.6-3.9-8.9-8.6
											c0-0.2,0-0.3,0-0.5C2.5,6.8,7,2.5,12.4,2.8c4.4,0.3,8,3.7,8.6,8c0,0.4,0.1,0.7,0.1,1.1c0,0.8-0.1,1.7-0.3,2.5L24.6,17.4
											 M26.3,17.2l-1-0.8l-3.2-2.6c0.1-0.7,0.2-1.3,0.2-2c0-0.4,0-0.8-0.1-1.2C22,8.2,20.8,6,19,4.3c-1.8-1.7-4.1-2.7-6.5-2.8
											c-3-0.2-5.8,0.9-7.9,2.9c-2.1,2-3.3,4.8-3.2,7.7c0,0.2,0,0.4,0,0.6c0.2,2.6,1.3,5,3.2,6.8c1.9,1.8,4.3,2.9,6.9,2.9
											c1.4,0,2.9-0.2,4.2-0.7l3.2,2.6c0,0,0.1,0,0.1,0.1l1,0.8l0.8-1l4.8-6L26.3,17.2L26.3,17.2z"/>
									</g>
									<g>
										<path class="st1" d="M20,25.5l-1.1-0.9c0,0-0.1,0-0.1-0.1L15.7,22c-1.3,0.5-2.8,0.7-4.2,0.7c-2.6-0.1-5.2-1.2-7.1-3
											c-1.9-1.9-3.1-4.3-3.3-7c0-0.2,0-0.4,0-0.6c0-3,1.2-5.8,3.3-7.9c2.2-2.1,5-3.1,8.1-3c2.5,0.1,4.8,1.2,6.7,2.9
											c1.8,1.7,3,4,3.3,6.5c0.1,0.4,0.1,0.8,0.1,1.2c0,0.6,0,1.3-0.1,1.9l4.2,3.5L20,25.5z M15.8,21.5l3.3,2.7
											c0,0,0.1,0,0.1,0.1l0.8,0.6l6.1-7.7L22,13.9l0-0.1c0.1-0.6,0.2-1.3,0.2-1.9c0-0.4,0-0.8-0.1-1.2c-0.3-2.4-1.4-4.6-3.2-6.2
											c-1.8-1.6-4-2.6-6.4-2.8C9.6,1.6,6.8,2.6,4.7,4.6c-2.1,2-3.2,4.7-3.2,7.6c0,0.2,0,0.4,0,0.6c0.2,2.5,1.3,4.9,3.1,6.7
											c1.8,1.8,4.3,2.8,6.8,2.9c1.4,0,2.8-0.2,4.1-0.7L15.8,21.5z M19.8,23.7l-0.2-0.1c0,0,0,0-0.1,0l-3.7-3
											c-1.4,0.6-2.9,1-4.4,0.9c-4.8-0.2-8.8-4-9.1-8.8c0-0.2,0-0.4,0-0.5c0-2.6,1-5.2,2.9-7c1.9-1.8,4.4-2.8,7.1-2.6
											c4.5,0.3,8.2,3.7,8.8,8.2c0,0.4,0.1,0.7,0.1,1.1c0,0.8-0.1,1.6-0.3,2.4l3.8,3.2L19.8,23.7z M16,20l3.8,3.1l4.5-5.7
											l-3.7-3.1l0-0.1c0.2-0.8,0.3-1.6,0.3-2.4c0-0.3,0-0.7-0.1-1c-0.6-4.3-4.1-7.6-8.4-7.8c-2.5-0.1-5,0.7-6.8,2.5
											c-1.8,1.7-2.8,4.2-2.8,6.7c0,0.2,0,0.3,0,0.5c0.3,4.6,4.1,8.2,8.7,8.4c1.5,0,3-0.3,4.3-0.9L16,20z"/>
									</g>
								</g>
								<g>
									<g>
										<path class="st5" d="M11.9,2.8c0.2,0,0.4,0,0.5,0c4.4,0.3,8,3.7,8.6,8c0.2,1.2,0.1,2.4-0.2,3.5l3.8,3.1l-4.8,6
											c0,0,0,0,0,0l-3.8-3.1c-1.2,0.6-2.6,0.9-4.1,0.9c-0.1,0-0.2,0-0.3,0c-4.7-0.2-8.6-3.9-8.9-8.6C2.3,7.3,6.5,2.8,11.9,2.8
											 M11.9,2.1c-2.7,0-5.4,1.1-7.2,3.1c-1.9,2-2.8,4.7-2.6,7.4c0.2,2.4,1.2,4.7,3,6.4c1.8,1.7,4.1,2.7,6.5,2.8
											c0.1,0,0.2,0,0.3,0c1.4,0,2.7-0.3,4-0.8l3.5,2.9c0,0,0,0,0.1,0l0.5,0.4l0.4-0.5l4.8-6l0.4-0.5L25,16.9l-3.5-2.9
											c0.2-1.1,0.3-2.2,0.1-3.3c-0.3-2.3-1.4-4.4-3.1-5.9c-1.7-1.6-3.9-2.5-6.1-2.6C12.2,2.1,12,2.1,11.9,2.1L11.9,2.1
											C11.9,2.1,11.9,2.1,11.9,2.1L11.9,2.1z"/>
									</g>
								</g>
								<g>
									<g>
										<path class="st1" d="M19.8,23.7l-0.2-0.1c0,0,0,0,0,0l-3.7-3c-1.4,0.6-2.9,1-4.4,0.9c-4.8-0.2-8.8-4-9.1-8.8
											C2.2,10,3.2,7.3,5.1,5.4C7,3.4,9.7,2.4,12.4,2.6c4.5,0.3,8.2,3.7,8.8,8.2c0.1,1.2,0.1,2.3-0.2,3.5l3.8,3.2L19.8,23.7z
											 M16,20l3.8,3.1l4.5-5.7l-3.7-3.1l0-0.1c0.3-1.1,0.4-2.3,0.2-3.4c-0.6-4.3-4.1-7.6-8.4-7.8c-2.6-0.2-5.1,0.8-7,2.7
											c-1.8,1.8-2.8,4.4-2.6,7c0.3,4.6,4.1,8.2,8.7,8.4c1.5,0,3-0.3,4.3-0.9L16,20z"/>
									</g>
								</g>
							</g>
						</g>
						<g>
							<g>
								<g>
									<path class="st6" d="M22,26.2l5.9-7.3c0.5-0.7,0.6-1.7,0-2.3c-0.1-0.1-0.1-0.1-0.2-0.2c-0.3-0.2-0.5-0.3-0.8-0.3
										c-0.7-0.1-1.4,0.3-1.9,0.8l-5.8,7.2c-0.6,0.7-0.6,1.7,0,2.4c0.1,0.1,0.1,0.1,0.2,0.2c0.1,0.1,0.2,0.1,0.4,0.2
										C20.6,27.2,21.5,26.9,22,26.2z M19.8,26.2c-0.3-0.2-0.4-0.5-0.4-0.8c0-0.2,0.1-0.5,0.2-0.7l6.1-7.7c0.4-0.5,1-0.5,1.5-0.2
										c0.5,0.4,0.5,1,0.2,1.5L21.3,26C20.9,26.5,20.3,26.6,19.8,26.2z"/>
								</g>
								<g>
									<path class="st1" d="M20.5,27.2c-0.3,0-0.5,0-0.8-0.1c-0.2-0.1-0.3-0.1-0.4-0.2c-0.1-0.1-0.1-0.1-0.2-0.2
										c-0.6-0.8-0.7-1.9,0-2.7l5.8-7.2c0.5-0.6,1.3-1,2-0.9c0.4,0,0.6,0.1,0.9,0.4c0.1,0.1,0.2,0.1,0.2,0.2
										c0.6,0.7,0.7,1.8,0,2.6l-5.9,7.3C21.8,26.9,21.1,27.2,20.5,27.2z M26.7,16.3c-0.6,0-1.1,0.3-1.5,0.8l-5.8,7.2
										c-0.5,0.6-0.5,1.5,0,2.1c0.1,0.1,0.1,0.1,0.2,0.2c0.1,0.1,0.2,0.1,0.3,0.2c0.7,0.3,1.5,0,2-0.6l5.9-7.3
										c0.5-0.6,0.5-1.5,0-2.1c-0.1-0.1-0.1-0.1-0.2-0.2c-0.2-0.2-0.4-0.3-0.7-0.3C26.8,16.3,26.7,16.3,26.7,16.3z M20.5,26.6
										c-0.3,0-0.6-0.1-0.8-0.3l0,0c-0.3-0.2-0.5-0.6-0.5-1c0-0.3,0.1-0.6,0.3-0.8l6.1-7.7c0.2-0.3,0.5-0.4,0.9-0.5
										c0.3,0,0.7,0.1,0.9,0.3c0.5,0.4,0.6,1.2,0.2,1.8l-6.1,7.7c-0.2,0.3-0.5,0.4-0.9,0.5C20.6,26.6,20.5,26.6,20.5,26.6z
										 M26.6,16.8C26.6,16.8,26.6,16.8,26.6,16.8c-0.3,0-0.5,0.1-0.7,0.3l-6.1,7.7c-0.1,0.2-0.2,0.3-0.2,0.5
										c0,0.3,0.1,0.5,0.3,0.7v0c0.2,0.1,0.4,0.2,0.6,0.2c0.2,0,0.4-0.1,0.6-0.3l6.1-7.7c0.3-0.4,0.2-0.9-0.1-1.2
										C27,16.9,26.8,16.8,26.6,16.8z"/>
								</g>
							</g>
							<g>
								<g>
									<path class="st3" d="M19.4,25.4c0-0.2,0.1-0.5,0.2-0.7l6.1-7.7c0.4-0.5,1-0.5,1.5-0.2c0.5,0.4,0.5,1,0.2,1.5L21.3,26
										c-0.4,0.5-1,0.5-1.5,0.2C19.6,26,19.4,25.7,19.4,25.4z"/>
								</g>
								<g>
									<path class="st1" d="M20.5,26.6c-0.3,0-0.6-0.1-0.8-0.3c-0.3-0.2-0.5-0.6-0.5-1l0,0c0-0.3,0.1-0.6,0.3-0.8l6.1-7.7
										c0.2-0.3,0.5-0.4,0.9-0.5c0.3,0,0.7,0.1,0.9,0.3c0.5,0.4,0.6,1.2,0.2,1.8l-6.1,7.7c-0.2,0.3-0.5,0.4-0.9,0.5
										C20.6,26.6,20.5,26.6,20.5,26.6z M26.6,16.8C26.6,16.8,26.6,16.8,26.6,16.8c-0.3,0-0.5,0.1-0.7,0.3l-6.1,7.7
										c-0.1,0.2-0.2,0.3-0.2,0.5v0c0,0.3,0.1,0.5,0.3,0.7c0.2,0.1,0.4,0.2,0.6,0.2c0.2,0,0.4-0.1,0.6-0.3l6.1-7.7
										c0.3-0.4,0.2-0.9-0.1-1.2C27,16.9,26.8,16.8,26.6,16.8z"/>
								</g>
							</g>
							<g>
								<g>
									<path class="st7" d="M20.9,25c0,0-0.1,0-0.1,0c-0.1-0.1-0.1-0.2,0-0.3l0.4-0.5c0.1-0.1,0.2-0.1,0.3,0
										c0.1,0.1,0.1,0.2,0,0.3l-0.4,0.5C21,24.9,21,25,20.9,25z"/>
								</g>
							</g>
							<g>
								<g>
									<path class="st7" d="M21.8,23.8c0,0-0.1,0-0.1,0c-0.1-0.1-0.1-0.2,0-0.3l0.9-1.1c0.1-0.1,0.2-0.1,0.3,0
										c0.1,0.1,0.1,0.2,0,0.3L22,23.7C21.9,23.8,21.9,23.8,21.8,23.8z"/>
								</g>
							</g>
						</g>
					</g>
				</g>
			</g>
		</g>
	</g>
</g>
</svg>
