<?xml version="1.0" encoding="utf-8"?>
<!-- Generator: Adobe Illustrator 24.2.3, SVG Export Plug-In . SVG Version: 6.00 Build 0)  -->
<svg version="1.1" id="Lag_1" xmlns="http://www.w3.org/2000/svg" xmlns:xlink="http://www.w3.org/1999/xlink" x="0px" y="0px"
	 viewBox="0 0 104.7 91.7" style="enable-background:new 0 0 104.7 91.7;" xml:space="preserve">
<style type="text/css">
	.st0{fill:#9E9C8D;}
	.st1{fill:#2D2521;}
	.st2{opacity:0.43;}
	.st3{fill:#605E55;}
	.st4{fill:#F2E7DA;}
	.st5{opacity:0.51;}
	.st6{fill:#CE7549;}
	.st7{fill:#BDE9F4;}
	.st8{fill:#99C4CE;}
	.st9{opacity:0.8;}
	.st10{fill:#D36033;}
	.st11{fill:#FFFFFD;}
	.st12{fill:#7F7F7F;}
	.st13{fill:#6BC2DD;}
	.st14{fill:#CECECE;}
</style>
<g>
	<g>
		<g>
			<polygon class="st0" points="93.8,68.4 93.9,44.1 12.3,44.1 8.4,69.4 25.4,80.8 52.1,86.1 79.1,80.9 			"/>
			<path class="st1" d="M52.1,86.8l-0.1,0l-26.8-5.3L7.7,69.8l4.1-26.4h82.9l-0.1,25.3L79.4,81.6L52.1,86.8z M25.7,80.1l26.4,5.2
				l26.6-5.2l14.4-12.2l0.1-23.2H12.9L9.2,69.1L25.7,80.1z M93.8,68.4L93.8,68.4L93.8,68.4z"/>
		</g>
	</g>
	<g>
		<g class="st2">
			<path class="st3" d="M75.8,72.4c-1.2,0.1-2.3-0.8-3.6-0.4c-6,2-13,3.2-20.4,3.2c-5.9,0-11.5-0.7-16.6-2c-1.7-0.4-3.2,1.2-4.8,0.9
				c-13.7-2.6-17.5-12.7-18.3-20.7c-0.8-7.8,3.1-15.3,9.7-19.4c7.6-4.6,18.2-7.5,30-7.5c12.3,0,23.4,3.1,31,8.2
				c5.4,3.6,8.7,9.7,8.9,16.2C91.8,59,89.5,70.7,75.8,72.4z"/>
		</g>
		<g>
			<path class="st3" d="M75.8,66.7c-1.2,0.1-2.3-0.8-3.6-0.4c-6,2-13,3.2-20.4,3.2c-5.9,0-11.5-0.7-16.6-2c-1.7-0.4-3.2,1.2-4.8,0.9
				c-13.7-2.6-17.5-12.7-18.3-20.7c-0.8-7.8,3.1-15.3,9.7-19.4c7.6-4.6,18.2-7.5,30-7.5c12.3,0,23.4,3.1,31,8.2
				c5.4,3.6,8.7,9.7,8.9,16.2C91.8,53.3,89.5,65,75.8,66.7z"/>
		</g>
		<g>
			<path class="st4" d="M75.8,58.9c-1.2,0.1-2.3-0.8-3.6-0.4c-6,2-13,3.2-20.4,3.2c-5.9,0-11.5-0.7-16.6-2c-1.7-0.4-3.2,1.2-4.8,0.9
				c-13.7-2.6-17.5-12.7-18.3-20.7c-0.8-7.8,3.1-15.3,9.7-19.4c7.6-4.6,18.2-7.5,30-7.5c12.3,0,23.4,3.1,31,8.2
				c5.4,3.6,8.7,9.7,8.9,16.2C91.8,45.5,89.5,57.1,75.8,58.9z"/>
			<path class="st1" d="M51.8,62.3c-5.8,0-11.5-0.7-16.8-2.1c-0.7-0.2-1.3,0.1-2.1,0.4c-0.8,0.3-1.7,0.7-2.6,0.5
				C16.1,58.4,12.2,48,11.4,39.8c-0.8-8,3.2-15.8,10.1-20.1c8-4.9,18.8-7.6,30.4-7.6c11.9,0,23.4,3,31.4,8.3
				c5.6,3.7,9.1,10,9.2,16.8c0.3,13.1-5.6,21.1-16.5,22.5h0c-0.7,0.1-1.3-0.1-1.8-0.3c-0.6-0.2-1.1-0.3-1.6-0.2
				C66.2,61.2,59,62.3,51.8,62.3z M34.5,58.8c0.3,0,0.5,0,0.8,0.1c5.2,1.3,10.7,2,16.4,2c7.1,0,14.1-1.1,20.2-3.1
				c0.9-0.3,1.7-0.1,2.5,0.2c0.5,0.1,0.9,0.3,1.2,0.2c12.9-1.6,15.4-12.3,15.2-21c-0.1-6.3-3.3-12.2-8.6-15.6
				c-7.8-5.1-18.9-8-30.6-8c-11.3,0-21.8,2.6-29.6,7.4c-6.5,4-10.2,11.3-9.4,18.7c0.8,7.8,4.5,17.5,17.8,20.1
				c0.6,0.1,1.2-0.1,1.8-0.4C33,59.1,33.7,58.8,34.5,58.8z M75.8,58.9L75.8,58.9L75.8,58.9z"/>
		</g>
		<g>
			<g class="st5">
				<ellipse class="st6" cx="28.7" cy="54.8" rx="2.2" ry="2.6"/>
			</g>
			<g class="st5">
				<ellipse transform="matrix(0.5 -0.866 0.866 0.5 -7.1403 86.0686)" class="st6" cx="71" cy="49.2" rx="5.2" ry="2.9"/>
			</g>
			<g class="st5">
				<circle class="st6" cx="39.4" cy="51.8" r="1.1"/>
			</g>
			<g class="st5">
				<circle class="st6" cx="72.5" cy="44" r="3.3"/>
			</g>
			<g class="st5">
				<circle class="st6" cx="55.6" cy="57.8" r="1.7"/>
			</g>
			<g class="st5">
				<circle class="st6" cx="72.5" cy="52.9" r="1.7"/>
			</g>
			<g class="st5">
				<circle class="st6" cx="64.2" cy="54.9" r="0.8"/>
			</g>
			<g class="st5">
				<circle class="st6" cx="30.4" cy="35.9" r="0.8"/>
			</g>
			<g class="st5">
				<circle class="st6" cx="43.7" cy="56.6" r="0.8"/>
			</g>
			<g class="st5">
				<circle class="st6" cx="87.1" cy="33.8" r="0.8"/>
			</g>
			<g class="st5">
				<ellipse transform="matrix(0.884 -0.4675 0.4675 0.884 -14.5639 16.9372)" class="st6" cx="26.8" cy="37.8" rx="1.9" ry="3.3"/>
			</g>
			<g class="st5">
				
					<ellipse transform="matrix(0.9596 -0.2813 0.2813 0.9596 -14.3757 14.0443)" class="st6" cx="41.7" cy="57.1" rx="1.9" ry="1.9"/>
			</g>
			<g class="st5">
				
					<ellipse transform="matrix(0.9596 -0.2813 0.2813 0.9596 -7.2874 20.8745)" class="st6" cx="69.1" cy="35.8" rx="1.9" ry="1.9"/>
			</g>
			<g class="st5">
				<circle class="st6" cx="30" cy="45.9" r="1.9"/>
			</g>
			<g class="st5">
				
					<ellipse transform="matrix(0.9953 -9.679659e-02 9.679659e-02 0.9953 -4.5115 3.3669)" class="st6" cx="32.4" cy="48.2" rx="2.6" ry="3.5"/>
			</g>
			<g class="st5">
				
					<ellipse transform="matrix(0.9953 -9.679659e-02 9.679659e-02 0.9953 -3.0807 7.331)" class="st6" cx="74" cy="35.4" rx="0.7" ry="1"/>
			</g>
		</g>
		<g>
			<g>
				<path class="st7" d="M83.3,56.2c-1.9,0-3.4-1.5-3.4-3.4c0-1.1,0.5-2.1,1.4-2.7c-0.5-0.7-0.7-1.5-0.7-2.4c0-1.8,1.1-3.4,2.7-4.1
					c-0.2-0.5-0.3-1.1-0.3-1.7c0-0.2,0-0.3,0-0.5C81.3,40.8,80,39,80,37c0-1.3,0.5-2.5,1.4-3.4c-0.2-0.6-0.4-1.2-0.4-1.8
					c0-2.7,2.2-4.8,4.8-4.8c2.7,0,4.8,2.2,4.8,4.8c0,1.3-0.5,2.6-1.5,3.5c0.2,0.5,0.3,1.1,0.3,1.7c0,0.4,0,0.7-0.1,1.1
					c1.5,0.7,2.4,2.2,2.4,3.9c0,1.8-1.1,3.3-2.7,4c0.2,0.5,0.4,1.1,0.4,1.7c0,1.9-1.2,3.5-2.9,4.1c0.1,0.3,0.2,0.7,0.2,1
					C86.7,54.7,85.2,56.2,83.3,56.2z M85.8,28.4c-1.9,0-3.4,1.5-3.4,3.4c0,0.6,0.1,1.1,0.4,1.6l0.3,0.5l-0.5,0.4
					C81.9,35,81.4,36,81.4,37c0,1.6,1.1,2.9,2.7,3.3l0.8,0.1l-0.2,0.7c-0.1,0.3-0.1,0.5-0.1,0.8c0,0.6,0.2,1.2,0.6,1.7l0.7,0.9
					l-1.1,0.2c-1.4,0.2-2.5,1.5-2.5,2.9c0,0.8,0.3,1.6,0.9,2.1l0.8,0.8L82.7,51c-0.8,0.3-1.3,1-1.3,1.8c0,1.1,0.9,1.9,1.9,1.9
					c1.1,0,1.9-0.9,1.9-1.9c0-0.4-0.1-0.8-0.3-1.1l-0.7-1l1.2-0.1c1.5-0.2,2.6-1.4,2.6-2.9c0-0.6-0.2-1.2-0.6-1.7L86.8,45l1.1-0.2
					c1.4-0.2,2.4-1.4,2.4-2.9c0-1.3-0.8-2.4-2.1-2.8l-0.7-0.2l0.3-0.7C88,37.8,88,37.4,88,37c0-0.5-0.1-1.1-0.4-1.6l-0.3-0.5
					l0.5-0.4c0.9-0.6,1.4-1.6,1.4-2.7C89.2,30,87.7,28.4,85.8,28.4z"/>
			</g>
			<g>
				<path class="st8" d="M83.3,55.8c-1.7,0-3-1.3-3-3c0-1.1,0.6-2.1,1.6-2.6c-0.6-0.7-0.9-1.6-0.9-2.5c0-1.8,1.2-3.4,2.9-3.9
					c-0.3-0.6-0.5-1.2-0.5-1.9c0-0.2,0-0.5,0.1-0.7c-1.9-0.5-3.2-2.3-3.2-4.2c0-1.3,0.5-2.4,1.5-3.3c-0.3-0.6-0.4-1.2-0.4-1.9
					c0-2.5,2-4.5,4.5-4.5c2.5,0,4.5,2,4.5,4.5c0,1.3-0.6,2.5-1.6,3.4c0.3,0.6,0.4,1.2,0.4,1.8c0,0.4-0.1,0.8-0.2,1.3
					c1.5,0.6,2.5,2,2.5,3.7c0,1.8-1.1,3.3-2.8,3.8c0.3,0.6,0.5,1.3,0.5,1.9c0,1.9-1.3,3.5-3.1,3.9c0.2,0.4,0.3,0.8,0.3,1.2
					C86.3,54.5,85,55.8,83.3,55.8z M85.8,28.1c-2.1,0-3.7,1.7-3.7,3.7c0,0.6,0.2,1.3,0.5,1.8l0.1,0.3l-0.2,0.2
					C81.6,34.8,81,35.9,81,37c0,1.7,1.2,3.3,3,3.6l0.4,0.1l-0.1,0.4c-0.1,0.3-0.1,0.6-0.1,0.9c0,0.7,0.2,1.3,0.6,1.9l0.3,0.5
					l-0.6,0.1c-1.6,0.3-2.8,1.6-2.8,3.3c0,0.9,0.4,1.7,1,2.4l0.4,0.4l-0.6,0.2C81.7,51,81,51.8,81,52.8c0,1.3,1,2.3,2.3,2.3
					c1.3,0,2.3-1,2.3-2.3c0-0.5-0.1-0.9-0.4-1.3L84.9,51l0.6-0.1c1.7-0.2,2.9-1.6,2.9-3.3c0-0.7-0.2-1.4-0.6-2l-0.3-0.5l0.6-0.1
					c1.6-0.3,2.7-1.6,2.7-3.2c0-1.4-0.9-2.7-2.3-3.1L88,38.7l0.1-0.4c0.2-0.4,0.3-0.9,0.3-1.3c0-0.6-0.1-1.2-0.4-1.7L87.8,35
					l0.2-0.2c1-0.7,1.5-1.8,1.5-3C89.6,29.8,87.9,28.1,85.8,28.1z"/>
			</g>
			<g class="st9">
				<circle class="st10" cx="83.3" cy="52.8" r="0.9"/>
			</g>
			<g class="st9">
				<circle class="st10" cx="85.1" cy="47.7" r="1.3"/>
			</g>
			<g class="st9">
				<circle class="st10" cx="87.4" cy="41.9" r="1.6"/>
			</g>
			<g class="st9">
				<circle class="st10" cx="84.7" cy="37" r="1.9"/>
			</g>
			<g class="st9">
				<circle class="st10" cx="85.8" cy="31.8" r="2"/>
			</g>
		</g>
		<g>
			<g>
				<path class="st7" d="M19.4,56.9c-1.9,0-3.4-1.5-3.4-3.4c0-0.3,0.1-0.7,0.2-1c-1.7-0.6-2.9-2.2-2.9-4.1c0-0.6,0.1-1.2,0.4-1.7
					c-1.6-0.7-2.7-2.2-2.7-4c0-1.7,0.9-3.2,2.4-3.9c-0.1-0.3-0.1-0.7-0.1-1.1c0-0.6,0.1-1.2,0.3-1.7c-0.9-0.9-1.5-2.1-1.5-3.5
					c0-2.7,2.2-4.8,4.8-4.8s4.8,2.2,4.8,4.8c0,0.6-0.1,1.2-0.4,1.8c0.9,0.9,1.4,2.1,1.4,3.4c0,2-1.3,3.8-3.1,4.5c0,0.2,0,0.3,0,0.5
					c0,0.6-0.1,1.1-0.3,1.7c1.6,0.7,2.7,2.2,2.7,4.1c0,0.9-0.2,1.7-0.7,2.4c0.9,0.6,1.4,1.6,1.4,2.7C22.8,55.4,21.3,56.9,19.4,56.9z
					 M16.9,29.1c-1.9,0-3.4,1.5-3.4,3.4c0,1.1,0.5,2.1,1.4,2.7l0.5,0.4l-0.3,0.5c-0.3,0.5-0.4,1-0.4,1.6c0,0.4,0.1,0.8,0.2,1.2
					l0.3,0.7l-0.7,0.2c-1.2,0.4-2.1,1.5-2.1,2.8c0,1.4,1,2.6,2.4,2.9l1.1,0.2l-0.7,0.9c-0.4,0.5-0.6,1.1-0.6,1.7
					c0,1.5,1.1,2.8,2.6,2.9l1.2,0.1l-0.7,1c-0.2,0.3-0.3,0.7-0.3,1.1c0,1.1,0.9,1.9,1.9,1.9c1.1,0,1.9-0.9,1.9-1.9
					c0-0.8-0.5-1.6-1.3-1.8l-1.1-0.4l0.8-0.8c0.6-0.6,0.9-1.3,0.9-2.1c0-1.5-1-2.7-2.5-2.9L17,45.3l0.7-0.9c0.4-0.5,0.6-1.1,0.6-1.7
					c0-0.2,0-0.5-0.1-0.8l-0.2-0.7l0.8-0.1c1.5-0.3,2.7-1.7,2.7-3.3c0-1-0.5-2-1.3-2.6l-0.5-0.4l0.3-0.5c0.3-0.5,0.4-1.1,0.4-1.6
					C20.3,30.7,18.8,29.1,16.9,29.1z"/>
			</g>
			<g>
				<path class="st8" d="M19.4,56.5c-1.7,0-3-1.3-3-3c0-0.4,0.1-0.8,0.3-1.2c-1.8-0.4-3.1-2-3.1-3.9c0-0.7,0.2-1.3,0.5-1.9
					c-1.6-0.5-2.8-2-2.8-3.8c0-1.6,1-3.1,2.5-3.7c-0.1-0.4-0.2-0.8-0.2-1.3c0-0.6,0.1-1.2,0.4-1.8c-1-0.9-1.6-2.1-1.6-3.4
					c0-2.5,2-4.5,4.5-4.5c2.5,0,4.5,2,4.5,4.5c0,0.7-0.1,1.3-0.4,1.9c0.9,0.8,1.5,2,1.5,3.3c0,2-1.3,3.7-3.2,4.2
					c0.1,0.3,0.1,0.5,0.1,0.7c0,0.7-0.2,1.3-0.5,1.9c1.7,0.5,2.9,2.1,2.9,3.9c0,0.9-0.3,1.8-0.9,2.5c1,0.5,1.6,1.5,1.6,2.6
					C22.4,55.2,21.1,56.5,19.4,56.5z M16.9,28.8c-2.1,0-3.7,1.7-3.7,3.7c0,1.2,0.5,2.3,1.5,3l0.2,0.2L14.8,36
					c-0.3,0.5-0.4,1.1-0.4,1.7c0,0.5,0.1,0.9,0.3,1.3l0.1,0.4l-0.4,0.1c-1.4,0.4-2.3,1.7-2.3,3.1c0,1.6,1.1,2.9,2.7,3.2l0.6,0.1
					L15,46.4c-0.4,0.6-0.6,1.3-0.6,2c0,1.7,1.3,3.1,2.9,3.3l0.6,0.1l-0.3,0.5c-0.3,0.4-0.4,0.8-0.4,1.3c0,1.3,1,2.3,2.3,2.3
					c1.3,0,2.3-1,2.3-2.3c0-1-0.6-1.8-1.6-2.2l-0.6-0.2l0.4-0.4c0.6-0.6,1-1.5,1-2.4c0-1.6-1.2-3-2.8-3.3L17.7,45l0.3-0.5
					c0.4-0.6,0.6-1.2,0.6-1.9c0-0.3,0-0.5-0.1-0.9l-0.1-0.4l0.4-0.1c1.7-0.3,3-1.9,3-3.6c0-1.1-0.5-2.2-1.4-2.9l-0.2-0.2l0.1-0.3
					c0.3-0.6,0.5-1.2,0.5-1.8C20.7,30.5,19,28.8,16.9,28.8z"/>
			</g>
			<g class="st9">
				<circle class="st10" cx="19.4" cy="53.5" r="0.9"/>
			</g>
			<g class="st9">
				<circle class="st10" cx="17.7" cy="48.4" r="1.3"/>
			</g>
			<g class="st9">
				<circle class="st10" cx="15.3" cy="42.6" r="1.6"/>
			</g>
			<g class="st9">
				<circle class="st10" cx="18" cy="37.7" r="1.9"/>
			</g>
			<g class="st9">
				<circle class="st10" cx="16.9" cy="32.5" r="2"/>
			</g>
		</g>
		<g>
			<g>
				<path class="st7" d="M33.4,34.7c-2,0-3.8-1.1-4.7-2.8c-0.7,0.4-1.4,0.6-2.2,0.6c-2.4,0-4.4-2-4.4-4.4c0-0.7,0.2-1.4,0.5-2
					c-0.8-0.5-1.4-1.4-1.4-2.4c0-1.6,1.3-2.9,2.9-2.9c1.6,0,2.9,1.3,2.9,2.9c0,0,0,0,0,0c1.1,0.1,2.1,0.6,2.8,1.4
					c0.7-0.7,1.7-1.2,2.7-1.4c-0.1-0.4-0.1-0.8-0.1-1.2c0-2.6,2.1-4.6,4.6-4.6c0.7,0,1.4,0.2,2.1,0.5c0.6-1.3,1.9-2.2,3.3-2.2
					c0.6,0,1.2,0.1,1.7,0.4c0.6-0.9,1.5-1.5,2.6-1.5c0.4,0,0.9,0.1,1.2,0.3c0.9-1.1,2.2-1.7,3.5-1.7c1.4,0,2.6,0.6,3.5,1.6
					c1.1-0.4,2.4-0.2,3.3,0.5c0.9-0.7,2-1,3.1-1c2.4,0,4.4,1.6,5.1,3.8c0.3-0.1,0.5-0.1,0.8-0.1c2.1,0,3.9,1.7,3.9,3.9
					c0,0.2,0,0.3,0,0.5c1.5,0.2,2.6,1.5,2.6,3.1c0.2,0,0.4,0.1,0.5,0.2c0.4-0.5,1-0.8,1.6-1c0.1-2.1,1.8-3.7,3.9-3.7
					c2.1,0,3.9,1.7,3.9,3.9c0,1.6-1,3.1-2.5,3.6c0,2.1-1.8,3.9-3.9,3.9c-0.5,0-1-0.1-1.4-0.3c-0.7,0.8-1.8,1.2-2.9,1.2
					c-2.2,0-3.9-1.8-3.9-3.9c0-0.3,0-0.7,0.1-1c-0.9-0.5-1.5-1.4-1.6-2.5c-1.3,0.1-2.5-0.5-3.3-1.5c-0.8,0.5-1.8,0.8-2.8,0.8
					c-2.4,0-4.4-1.5-5.1-3.7c-0.6,0-1.1-0.1-1.6-0.3c-0.9,0.9-2,1.4-3.2,1.4c-1.4,0-2.7-0.6-3.5-1.7c-0.7,0.3-1.5,0.3-2.2,0.1
					c-0.5,1.4-1.9,2.3-3.4,2.3c-0.3,0-0.6,0-0.9-0.1c-0.3,1.6-1.4,2.9-3,3.4c0.3,0.7,0.5,1.4,0.5,2.2C38.9,32.2,36.5,34.7,33.4,34.7
					z M29.3,29.6l0.4,1c0.6,1.6,2.1,2.7,3.8,2.7c2.2,0,4-1.8,4-4c0-0.8-0.2-1.6-0.7-2.3l-0.6-1l1.1-0.1c1.6-0.2,2.8-1.6,2.8-3.2
					l0-0.1l0-1.3l1.1,0.7c0.4,0.2,0.7,0.3,1.1,0.3c1.1,0,2.1-0.9,2.2-2l0.1-1.1l-0.8-0.8c-0.4-0.4-1-0.6-1.5-0.6
					c-1.1,0-2.1,0.8-2.2,2L39.9,21l-1-0.8c-0.6-0.5-1.3-0.7-2-0.7c-1.8,0-3.2,1.4-3.2,3.2c0,0.5,0.1,1,0.4,1.5l0.5,1l-1.2,0
					c-1.2,0-2.4,0.6-3.2,1.6l-0.7,0.9L29,26.6c-0.5-0.9-1.5-1.5-2.6-1.5c-0.1,0-0.1,0-0.2,0L25,25.3l0.4-1.1
					c0.1-0.2,0.1-0.3,0.1-0.5c0-0.8-0.7-1.5-1.5-1.5s-1.5,0.7-1.5,1.5c0,0.7,0.5,1.3,1.1,1.4l1.1,0.2l-0.7,0.9
					c-0.4,0.5-0.7,1.2-0.7,1.9c0,1.7,1.3,3,3,3c0.7,0,1.5-0.3,2-0.8L29.3,29.6z M69.1,24.6l-0.3,1.1c0,0.2-0.1,0.3-0.1,0.4
					c0,0.8,0.5,1.5,1.3,1.7L71,28l-0.4,0.8c-0.2,0.4-0.3,0.7-0.3,1.1c0,1.4,1.1,2.5,2.5,2.5c0.8,0,1.6-0.4,2.1-1.1l0.4-0.6l0.6,0.3
					c0.4,0.2,0.8,0.4,1.3,0.4c1.4,0,2.5-1.1,2.5-2.5c0-0.1,0-0.2,0-0.3l-0.1-0.7l0.7-0.2c1.1-0.2,2-1.2,2-2.4c0-1.3-1.1-2.4-2.4-2.4
					c-1.3,0-2.4,1.1-2.4,2.4c0,0.1,0,0.1,0,0.2l0.1,0.8l-0.7,0.1c-0.7,0.1-1.3,0.5-1.7,1.1l-0.4,0.6l-0.6-0.3
					c-0.4-0.2-0.8-0.3-1.2-0.3l-0.9,0l0.2-0.9c0-0.2,0.1-0.3,0.1-0.4c0-0.9-0.8-1.7-1.7-1.7c-0.1,0-0.2,0-0.3,0L69.1,24.6z
					 M64.6,22.7l0.4,0.9c0.4,0.9,1.3,1.4,2.2,1.4c0.2,0,0.5,0,0.7-0.1l1.1-0.4l0.4-1c0.1-0.3,0.2-0.6,0.2-0.9c0-1.3-1.1-2.4-2.4-2.4
					c-0.3,0-0.7,0.1-1,0.2l-0.9,0.4l-0.1-0.9c-0.3-1.9-1.9-3.4-3.9-3.4c-1,0-1.9,0.4-2.7,1.1L58.1,18l-0.5-0.6
					c-0.6-0.8-1.7-0.9-2.5-0.4l-0.6,0.4l-0.4-0.6c-0.6-0.9-1.6-1.5-2.6-1.5c-1.1,0-2.1,0.6-2.7,1.6l-0.4,0.7l-0.6-0.5
					c-0.3-0.2-0.7-0.4-1-0.4c-0.8,0-1.5,0.5-1.6,1.3l-0.2,1.1l0.9,0.7c0.6,0.5,1.4,0.4,2,0l0.6-0.5l0.4,0.7c0.6,1,1.6,1.6,2.7,1.6
					c1,0,1.9-0.5,2.5-1.3l0.4-0.6l0.6,0.5c0.3,0.3,0.8,0.4,1.2,0.4c0.1,0,0.3,0,0.5-0.1l0.8-0.2l0.1,0.8c0.3,1.9,1.9,3.2,3.8,3.2
					c0.9,0,1.8-0.3,2.5-0.9L64.6,22.7z"/>
			</g>
			<g>
				<path class="st8" d="M33.4,34.3c-2,0-3.8-1.2-4.6-2.9c-0.7,0.5-1.5,0.8-2.4,0.8c-2.2,0-4.1-1.8-4.1-4.1c0-0.8,0.2-1.5,0.6-2.1
					c-0.9-0.4-1.5-1.3-1.5-2.3c0-1.4,1.1-2.5,2.5-2.5s2.5,1.1,2.5,2.5c0,0.1,0,0.2,0,0.4c1.3,0,2.4,0.6,3.2,1.6
					c0.8-0.9,1.9-1.5,3.2-1.6c-0.2-0.5-0.3-1-0.3-1.5c0-2.4,1.9-4.3,4.3-4.3c0.8,0,1.6,0.2,2.3,0.6c0.4-1.4,1.7-2.3,3.2-2.3
					c0.7,0,1.3,0.2,1.9,0.6c0.4-1,1.4-1.6,2.5-1.6c0.5,0,0.9,0.1,1.4,0.4c0.8-1.1,2.1-1.8,3.4-1.8c1.3,0,2.6,0.6,3.4,1.7
					c1.1-0.6,2.5-0.3,3.4,0.5c0.9-0.7,2-1.1,3.1-1.1c2.3,0,4.3,1.6,4.8,3.8c0.3-0.1,0.7-0.2,1-0.2c1.9,0,3.5,1.6,3.5,3.5
					c0,0.3,0,0.5-0.1,0.8c1.5,0.1,2.7,1.3,2.7,2.8c0,0.1,0,0.2,0,0.2c0.3,0.1,0.7,0.2,1,0.3c0.5-0.6,1.1-1,1.8-1.2c0,0,0-0.1,0-0.1
					c0-1.9,1.6-3.5,3.5-3.5c1.9,0,3.5,1.6,3.5,3.5c0,1.6-1,2.9-2.5,3.4c0,0.1,0,0.1,0,0.2c0,2-1.6,3.6-3.6,3.6c-0.5,0-1-0.1-1.5-0.4
					c-0.7,0.8-1.7,1.3-2.8,1.3c-2,0-3.6-1.6-3.6-3.6c0-0.4,0.1-0.8,0.2-1.2c-1-0.4-1.7-1.4-1.7-2.6c0,0,0-0.1,0-0.1
					c-0.2,0-0.4,0-0.5,0c-1.2,0-2.4-0.6-3-1.7c-0.8,0.6-1.9,0.9-2.9,0.9c-2.3,0-4.3-1.6-4.8-3.8c-0.7,0.1-1.4-0.1-1.9-0.4
					c-0.8,0.9-1.9,1.5-3.2,1.5c-1.4,0-2.6-0.7-3.4-1.8c-0.8,0.4-1.7,0.5-2.5,0.1c-0.4,1.4-1.7,2.4-3.2,2.4c-0.4,0-0.8-0.1-1.2-0.2
					c-0.2,1.8-1.5,3.2-3.2,3.7c0.4,0.7,0.6,1.6,0.6,2.4C38.6,32,36.3,34.3,33.4,34.3z M29.1,30.2l0.2,0.5c0.6,1.7,2.3,2.9,4.1,2.9
					c2.4,0,4.4-2,4.4-4.4c0-0.9-0.3-1.7-0.7-2.5l-0.3-0.5l0.6-0.1c1.8-0.2,3.1-1.7,3.1-3.5l0-0.6l0.5,0.2c0.4,0.2,0.9,0.4,1.3,0.4
					c1.3,0,2.4-1,2.6-2.3l0.1-0.6l0.5,0.4c0.7,0.5,1.7,0.5,2.4,0l0.3-0.2l0.2,0.4c0.6,1.1,1.8,1.8,3,1.8c1.1,0,2.1-0.5,2.8-1.4
					l0.2-0.3l0.3,0.2c0.4,0.3,0.9,0.5,1.4,0.5c0.2,0,0.4,0,0.6-0.1l0.4-0.1l0.1,0.4c0.4,2,2.1,3.5,4.2,3.5c1,0,2-0.4,2.8-1l0.4-0.3
					l0.2,0.4c0.5,1,1.5,1.7,2.5,1.7c0.3,0,0.5,0,0.9-0.1l0.6-0.2l-0.2,0.6c-0.1,0.2-0.1,0.4-0.1,0.5c0,1,0.6,1.8,1.6,2l0.4,0.1
					l-0.2,0.4C70.1,29,70,29.5,70,29.9c0,1.6,1.3,2.8,2.8,2.8c1,0,1.8-0.5,2.4-1.3l0.2-0.3l0.3,0.2c0.5,0.3,0.9,0.4,1.4,0.4
					c1.6,0,2.9-1.3,2.9-2.9c0-0.1,0-0.2,0-0.3l0-0.3l0.3-0.1c1.3-0.3,2.3-1.4,2.3-2.7c0-1.5-1.3-2.8-2.8-2.8c-1.5,0-2.8,1.3-2.8,2.8
					c0,0.1,0,0.2,0,0.2l0.1,0.4l-0.3,0.1c-0.8,0.1-1.5,0.6-1.9,1.2l-0.2,0.3l-0.3-0.2c-0.4-0.2-0.9-0.4-1.4-0.4l-0.4,0l0.1-0.4
					c0-0.2,0.1-0.3,0.1-0.5c0-1.1-0.9-2.1-2.1-2.1c-0.1,0-0.2,0-0.3,0l-0.6,0.1l0.2-0.6c0.1-0.3,0.2-0.7,0.2-1.1
					c0-1.5-1.3-2.8-2.8-2.8c-0.4,0-0.8,0.1-1.2,0.3l-0.4,0.2l-0.1-0.5c-0.3-2.1-2.1-3.7-4.2-3.7c-1.1,0-2.1,0.4-2.9,1.2l-0.3,0.3
					l-0.2-0.3c-0.7-0.9-2.1-1.1-3-0.5l-0.3,0.2l-0.2-0.3c-0.6-1-1.7-1.7-3-1.7c-1.2,0-2.4,0.7-3,1.8L48.2,17l-0.3-0.3
					c-0.4-0.3-0.8-0.4-1.2-0.4c-1,0-1.8,0.6-2,1.6l-0.1,0.6l-0.5-0.4c-0.5-0.5-1.1-0.7-1.8-0.7c-1.3,0-2.4,1-2.6,2.3l-0.1,0.6
					l-0.5-0.4c-0.6-0.5-1.4-0.8-2.3-0.8c-2,0-3.6,1.6-3.6,3.6c0,0.6,0.1,1.1,0.4,1.6l0.3,0.5l-0.6,0c-1.4,0-2.6,0.6-3.4,1.7
					l-0.3,0.4l-0.3-0.5c-0.6-1.1-1.7-1.7-2.9-1.7c-0.1,0-0.1,0-0.2,0l-0.7,0.1l0.2-0.5c0.1-0.2,0.1-0.4,0.1-0.6c0-1-0.8-1.8-1.8-1.8
					s-1.8,0.8-1.8,1.8c0,0.8,0.6,1.6,1.4,1.8l0.6,0.1L23.8,26c-0.5,0.6-0.8,1.3-0.8,2.1c0,1.8,1.5,3.4,3.4,3.4
					c0.8,0,1.6-0.3,2.3-0.9L29.1,30.2z"/>
			</g>
			<g class="st9">
				<circle class="st10" cx="24" cy="23.7" r="0.8"/>
			</g>
			<g class="st9">
				<circle class="st10" cx="26.4" cy="28.1" r="1.8"/>
			</g>
			<g class="st9">
				<circle class="st10" cx="33.4" cy="29.2" r="2.4"/>
			</g>
			<g class="st9">
				<circle class="st10" cx="36.9" cy="22.6" r="1.6"/>
			</g>
			<g class="st9">
				<circle class="st10" cx="42.3" cy="20" r="1.2"/>
			</g>
			<g class="st9">
				<circle class="st10" cx="46.6" cy="18.4" r="0.6"/>
			</g>
			<g class="st9">
				<circle class="st10" cx="51.4" cy="18.4" r="1.7"/>
			</g>
			<g class="st9">
				<circle class="st10" cx="56.1" cy="18.6" r="0.6"/>
			</g>
			<g class="st9">
				<circle class="st10" cx="61.3" cy="20.3" r="2.4"/>
			</g>
			<g class="st9">
				<circle class="st10" cx="67.2" cy="22.5" r="1.1"/>
			</g>
			<g class="st9">
				<circle class="st10" cx="70.5" cy="26.1" r="0.7"/>
			</g>
			<g class="st9">
				<circle class="st10" cx="72.8" cy="29.9" r="1.7"/>
			</g>
			<g class="st9">
				<circle class="st10" cx="77.1" cy="28.9" r="1.3"/>
			</g>
			<g class="st9">
				<circle class="st10" cx="79.7" cy="25.4" r="1.4"/>
			</g>
		</g>
		<g class="st9">
			<polygon class="st10" points="50.9,51.8 45.5,42.5 40.2,33.2 50.9,33.2 61.6,33.2 56.2,42.5 			"/>
		</g>
		<g class="st9">
			<polygon class="st10" points="50.9,48.7 43.7,34.9 50.9,34.9 58,34.9 			"/>
		</g>
		<g>
			<path class="st11" d="M64.7,55.5c-0.7,0-1.3-0.5-1.4-1.2c-0.1-0.8,0.4-1.5,1.2-1.6c2.1-0.4,5.3-1.2,8.3-3.1
				c0.7-0.4,1.5-0.2,2,0.4c0.4,0.7,0.2,1.5-0.4,2c-3.4,2.2-7,3.1-9.4,3.6C64.8,55.5,64.7,55.5,64.7,55.5z"/>
		</g>
		<g>
			<path class="st11" d="M60.7,55.8c-0.6,0-1.8-0.1-1.9-1.4c0-0.2,0-1.4,1.6-1.5c0.1,0,0.3,0,0.4,0c0,0,0,0,0,0v0
				c0.6,0.1,1.1,0.7,1.1,1.3c0,0.7-0.4,1.3-1.1,1.5l0,0.1C60.8,55.8,60.7,55.8,60.7,55.8z"/>
		</g>
		<g>
			<path class="st1" d="M51.8,62.3c-5.8,0-11.5-0.7-16.8-2.1c-0.7-0.2-1.3,0.1-2.1,0.4c-0.8,0.3-1.7,0.7-2.6,0.5
				C16.1,58.4,12.2,48,11.4,39.8c-0.8-8,3.2-15.8,10.1-20.1c8-4.9,18.8-7.6,30.4-7.6c11.9,0,23.4,3,31.4,8.3
				c5.6,3.7,9.1,10,9.2,16.8c0.3,13.1-5.6,21.1-16.5,22.5h0c-0.7,0.1-1.3-0.1-1.8-0.3c-0.6-0.2-1.1-0.3-1.6-0.2
				C66.2,61.2,59,62.3,51.8,62.3z M34.5,58.8c0.3,0,0.5,0,0.8,0.1c5.2,1.3,10.7,2,16.4,2c7.1,0,14.1-1.1,20.2-3.1
				c0.9-0.3,1.7-0.1,2.5,0.2c0.5,0.1,0.9,0.3,1.2,0.2c12.9-1.6,15.4-12.3,15.2-21c-0.1-6.3-3.3-12.2-8.6-15.6
				c-7.8-5.1-18.9-8-30.6-8c-11.3,0-21.8,2.6-29.6,7.4c-6.5,4-10.2,11.3-9.4,18.7c0.8,7.8,4.5,17.5,17.8,20.1
				c0.6,0.1,1.2-0.1,1.8-0.4C33,59.1,33.7,58.8,34.5,58.8z M75.8,58.9L75.8,58.9L75.8,58.9z"/>
		</g>
	</g>
	<g>
		<g>
			<polygon class="st12" points="79.2,9.6 52.3,3.9 25.4,9.6 22.9,15.1 25.4,29.4 32.4,29.4 35.6,21.1 51.8,17 68.1,21.1 72.2,29.4 
				79.2,29.4 81.6,15.1 			"/>
			<path class="st1" d="M79.8,30.1h-8l-4.1-8.4l-15.8-4l-15.6,4l-3.3,8.4h-8.1L22.2,15l2.7-6l27.4-5.8l0.1,0L79.7,9l2.7,6L79.8,30.1
				z M72.7,28.7h5.9l2.3-13.5l-2.2-5L52.3,4.6l-26.4,5.6l-2.2,5L26,28.7h5.9l3.2-8.2l16.7-4.2l16.8,4.2L72.7,28.7z"/>
		</g>
		<g>
			<polygon class="st12" points="70.9,5.5 52.3,2.5 33.6,5.5 31.9,8.3 33.6,15.6 38.5,15.6 40.7,11.3 51.9,9.2 63.3,11.3 66.1,15.6 
				70.9,15.6 72.6,8.3 			"/>
			<path class="st1" d="M71.5,16.3h-5.8L62.8,12l-10.9-2l-10.7,2l-2.3,4.3h-5.8l-1.9-8.2l2-3.3l19.1-3l19.1,3l2,3.3L71.5,16.3z
				 M66.5,14.9h3.9l1.5-6.5l-1.4-2.3L52.3,3.2L34,6.1l-1.4,2.3l1.5,6.5H38l2.2-4.2l11.7-2.2l11.8,2.2L66.5,14.9z"/>
		</g>
		<g>
			<path class="st13" d="M44.1,7.7c-0.3,0-0.6-0.2-0.7-0.6c-0.1-0.4,0.2-0.8,0.6-0.8l7.8-1.3l7.8,1.3c0.4,0.1,0.6,0.4,0.6,0.8
				c-0.1,0.4-0.4,0.6-0.8,0.6l-7.5-1.3l-7.6,1.3C44.1,7.7,44.1,7.7,44.1,7.7z"/>
		</g>
		<g>
			<path class="st7" d="M59.4,7.3C59.4,7.3,59.4,7.3,59.4,7.3l-7.7-1.3l-7.7,1.3c-0.1,0-0.3-0.1-0.3-0.2c0-0.1,0.1-0.3,0.2-0.3
				l7.8-1.3l0,0l7.7,1.3c0.1,0,0.2,0.2,0.2,0.3C59.7,7.2,59.6,7.3,59.4,7.3z"/>
		</g>
		<g>
			<path class="st13" d="M27.7,24c-0.4,0-0.7-0.3-0.7-0.6l-0.8-6c-0.1-0.4,0.2-0.8,0.6-0.8c0.4,0,0.8,0.2,0.8,0.6l0.8,6
				C28.5,23.6,28.2,23.9,27.7,24C27.8,24,27.7,24,27.7,24z"/>
		</g>
		<g>
			<path class="st7" d="M27.7,23.5c-0.1,0-0.2-0.1-0.3-0.2l-0.8-6c0-0.1,0.1-0.3,0.2-0.3c0.1,0,0.3,0.1,0.3,0.2l0.8,6
				C28,23.4,27.9,23.5,27.7,23.5C27.7,23.5,27.7,23.5,27.7,23.5z"/>
		</g>
		<g>
			<path class="st13" d="M77.1,24c-0.1,0-0.1,0-0.2,0c-0.4-0.1-0.6-0.5-0.5-0.9l1.2-5c0.1-0.4,0.5-0.6,0.9-0.5
				c0.4,0.1,0.6,0.5,0.5,0.9l-1.2,5C77.7,23.8,77.4,24,77.1,24z"/>
		</g>
		<g>
			<path class="st7" d="M77.1,23.5C77.1,23.5,77.1,23.5,77.1,23.5c-0.2,0-0.3-0.2-0.3-0.3l1.2-5c0-0.1,0.2-0.2,0.3-0.2
				c0.1,0,0.2,0.2,0.2,0.3l-1.2,5C77.4,23.5,77.2,23.5,77.1,23.5z"/>
		</g>
		<g>
			<path class="st14" d="M68.8,12.8c-0.1,0-0.1,0-0.2,0c-0.4-0.1-0.6-0.5-0.5-0.9l0.7-3c0.1-0.4,0.5-0.6,0.9-0.5
				c0.4,0.1,0.6,0.5,0.5,0.9l-0.7,3C69.4,12.6,69.1,12.8,68.8,12.8z"/>
		</g>
		<g>
			<path class="st14" d="M66.2,7.9c-0.2,0-0.3,0-0.4-0.1l-0.2-0.2c-0.3-0.2-0.4-0.7-0.1-1c0.2-0.3,0.7-0.4,1-0.1l0.2,0.2
				c0.3,0.2,0.4,0.7,0.1,1C66.6,7.8,66.4,7.9,66.2,7.9z"/>
		</g>
	</g>
	<g>
		<g>
			<polygon class="st12" points="17.8,88.2 5.9,77.7 4.1,48.4 5.9,35.4 10.3,28.4 17.8,33.6 16.8,48.4 22.6,61 14.2,66.2 14.2,73.4 
				17.8,79.4 			"/>
			<path class="st1" d="M18.5,89.8L5.2,78.1L3.4,48.4l1.9-13.2l4.8-7.7l8.5,5.9l-1,15l6,13.1l-8.5,5.3v6.5l3.6,6V89.8z M6.6,77.4
				l10.5,9.2v-7l-3.6-6v-7.7l8.2-5l-5.6-12.3l1-14.5l-6.6-4.6l-3.9,6.2L4.8,48.4L6.6,77.4z"/>
		</g>
		<g>
			<polygon class="st12" points="10.4,65.3 2.9,63.6 2.1,49.4 3.5,37.2 6.7,32.2 11.3,34.6 11.1,42.1 7.6,48.7 7.5,54.2 10.6,60.8 
							"/>
			<path class="st1" d="M11.1,66.2l-8.9-1.9L1.4,49.3l1.5-12.4l3.6-5.7l5.5,3l-0.2,8l-3.4,6.7l-0.1,5.1l3.1,6.6L11.1,66.2z
				 M3.6,63.1l6.2,1.3l0.1-3.5l-3.1-6.6l0.2-5.8l3.4-6.7l0.2-6.8L7,33.1l-2.8,4.3l-1.4,12L3.6,63.1z"/>
		</g>
		<g>
			<path class="st13" d="M17.9,59.8c-0.3,0-0.5-0.1-0.6-0.4l-2.9-6c-0.2-0.4,0-0.8,0.3-1c0.4-0.2,0.8,0,1,0.3l2.9,6
				c0.2,0.4,0,0.8-0.3,1C18.1,59.7,18,59.8,17.9,59.8z"/>
		</g>
		<g>
			<path class="st7" d="M17.9,59.3c-0.1,0-0.2-0.1-0.2-0.2l-2.9-6c-0.1-0.1,0-0.3,0.1-0.4c0.1-0.1,0.3,0,0.4,0.1l2.9,6
				c0.1,0.1,0,0.3-0.1,0.4C18,59.3,18,59.3,17.9,59.3z"/>
		</g>
		<g>
			<path class="st13" d="M6.7,44.8c-0.1,0-0.2,0-0.2,0c-0.4-0.1-0.6-0.5-0.4-0.9L7.3,40l-0.1-2c0-0.4,0.3-0.7,0.7-0.8
				c0.4,0,0.7,0.3,0.8,0.7l0.1,2.3l-1.4,4.2C7.2,44.6,7,44.8,6.7,44.8z"/>
		</g>
		<g>
			<path class="st7" d="M6.7,44.4C6.6,44.4,6.6,44.4,6.7,44.4c-0.2-0.1-0.3-0.2-0.3-0.4l1.4-4l-0.1-2.1c0-0.1,0.1-0.3,0.3-0.3
				c0.1,0,0.3,0.1,0.3,0.3l0.1,2.2l-1.4,4.1C6.9,44.3,6.8,44.4,6.7,44.4z"/>
		</g>
		<g>
			<path class="st13" d="M14.2,81.6c-0.2,0-0.4-0.1-0.5-0.2L9.6,77c-0.3-0.3-0.3-0.7,0-1c0.3-0.3,0.7-0.3,1,0l4.2,4.4
				c0.3,0.3,0.3,0.7,0,1C14.6,81.5,14.4,81.6,14.2,81.6z"/>
		</g>
		<g>
			<path class="st7" d="M14.2,81.2c-0.1,0-0.1,0-0.2-0.1l-4.2-4.4c-0.1-0.1-0.1-0.3,0-0.4c0.1-0.1,0.3-0.1,0.4,0l4.2,4.4
				c0.1,0.1,0.1,0.3,0,0.4C14.4,81.1,14.3,81.2,14.2,81.2z"/>
		</g>
	</g>
	<g>
		<g>
			<polygon class="st12" points="86,88.1 97.9,77.7 99.7,48.3 97.9,35.3 93.5,28.3 86,33.6 87,48.3 81.2,61 89.6,66.1 89.6,73.3 
				86,79.3 			"/>
			<path class="st1" d="M85.3,89.7V79.1l3.6-6v-6.5l-8.5-5.3l6-13.1l-1-15l8.5-5.9l4.8,7.7l1.9,13.2L98.6,78L85.3,89.7z M86.7,79.5
				v7l10.5-9.2l1.8-29l-1.8-12.8l-3.9-6.2l-6.6,4.6l1,14.5l-5.6,12.3l8.2,5v7.7L86.7,79.5z"/>
		</g>
		<g>
			<polygon class="st12" points="93.4,65.2 100.9,63.6 101.7,49.3 100.3,37.1 97.1,32.1 92.6,34.6 92.7,42 96.2,48.7 96.3,54.1 
				93.2,60.7 			"/>
			<path class="st1" d="M92.7,66.1l-0.1-5.5l3.1-6.6l-0.1-5.1L92,42.2l-0.2-8l5.5-3l3.6,5.7l1.5,12.4l-0.9,14.9L92.7,66.1z M94,60.9
				l0.1,3.5l6.2-1.3l0.8-13.7l-1.4-12l-2.8-4.3L93.3,35l0.2,6.8l3.4,6.7l0.2,5.8L94,60.9z"/>
		</g>
		<g>
			<path class="st13" d="M85.9,59.7c-0.1,0-0.2,0-0.3-0.1c-0.4-0.2-0.5-0.6-0.3-1l2.9-6c0.2-0.4,0.6-0.5,1-0.3
				c0.4,0.2,0.5,0.6,0.3,1l-2.9,6C86.4,59.5,86.2,59.7,85.9,59.7z"/>
		</g>
		<g>
			<path class="st7" d="M85.9,59.2c0,0-0.1,0-0.1,0c-0.1-0.1-0.2-0.2-0.1-0.4l2.9-6c0.1-0.1,0.2-0.2,0.4-0.1
				c0.1,0.1,0.2,0.2,0.1,0.4l-2.9,6C86.1,59.2,86,59.2,85.9,59.2z"/>
		</g>
		<g>
			<path class="st13" d="M97.1,44.8c-0.3,0-0.6-0.2-0.7-0.5L95,40.1l0.1-2.3c0-0.4,0.4-0.7,0.8-0.7c0.4,0,0.7,0.4,0.7,0.8l-0.1,2
				l1.3,3.9c0.1,0.4-0.1,0.8-0.4,0.9C97.3,44.8,97.2,44.8,97.1,44.8z"/>
		</g>
		<g>
			<path class="st7" d="M97.1,44.3c-0.1,0-0.2-0.1-0.3-0.2L95.5,40l0.1-2.2c0-0.1,0.1-0.3,0.3-0.3c0.1,0,0.3,0.1,0.3,0.3L96,40
				l1.4,4C97.4,44.1,97.4,44.3,97.1,44.3C97.2,44.3,97.2,44.3,97.1,44.3z"/>
		</g>
		<g>
			<path class="st13" d="M89.6,81.5c-0.2,0-0.4-0.1-0.5-0.2c-0.3-0.3-0.3-0.7,0-1l4.2-4.4c0.3-0.3,0.7-0.3,1,0c0.3,0.3,0.3,0.7,0,1
				l-4.2,4.4C90,81.5,89.8,81.5,89.6,81.5z"/>
		</g>
		<g>
			<path class="st7" d="M89.6,81.1c-0.1,0-0.1,0-0.2-0.1c-0.1-0.1-0.1-0.3,0-0.4l4.2-4.4c0.1-0.1,0.3-0.1,0.4,0
				c0.1,0.1,0.1,0.3,0,0.4L89.8,81C89.7,81.1,89.6,81.1,89.6,81.1z"/>
		</g>
	</g>
</g>
</svg>
