<?xml version="1.0" encoding="utf-8"?>
<!-- Generator: Adobe Illustrator 24.2.3, SVG Export Plug-In . SVG Version: 6.00 Build 0)  -->
<svg version="1.1" id="Lag_1" xmlns="http://www.w3.org/2000/svg" xmlns:xlink="http://www.w3.org/1999/xlink" x="0px" y="0px"
	 viewBox="0 0 74 74" style="enable-background:new 0 0 74 74;" xml:space="preserve">
<style type="text/css">
	.st0{fill:#C6A877;}
	.st1{fill:#110B09;}
	.st2{fill:#EADCC7;}
	.st3{fill:#AA926F;}
	.st4{fill:#203F30;}
	.st5{fill:#2F5441;}
	.st6{fill:#416D55;}
	.st7{opacity:0.82;clip-path:url(#SVGID_2_);}
	.st8{fill:#69D6A2;}
	.st9{fill:#455D6D;}
</style>
<g>
	<g>
		<polygon class="st0" points="62.3,62 36.7,72.1 11.7,62 1.7,37 11.7,11.5 37,1.9 62.3,11.5 72.3,37 		"/>
		<path class="st1" d="M36.7,72.6l-0.2-0.1L11.4,62.4L1.1,37l10.2-25.9L37,1.4l25.6,9.7L72.9,37L62.6,62.4L36.7,72.6z M12.1,61.6
			l24.6,9.9l25.2-9.9L71.8,37l-9.9-25.1L37,2.5l-24.9,9.4L2.2,37L12.1,61.6z M62.3,62L62.3,62L62.3,62z"/>
	</g>
	<g>
		<path class="st2" d="M66.6,27.4c-0.2,0-0.4-0.1-0.5-0.3l-0.9-2.4c-0.1-0.3,0-0.6,0.3-0.7s0.6,0,0.7,0.3l0.9,2.4
			c0.1,0.3,0,0.6-0.3,0.7C66.7,27.4,66.6,27.4,66.6,27.4z"/>
	</g>
	<g>
		<path class="st2" d="M63.8,20.5c-0.2,0-0.4-0.1-0.5-0.3L62,17c-0.1-0.3,0-0.6,0.3-0.7s0.6,0,0.7,0.3l1.3,3.2
			c0.1,0.3,0,0.6-0.3,0.7C63.9,20.4,63.9,20.5,63.8,20.5z"/>
	</g>
	<g>
		<path class="st2" d="M57.2,11.8c-0.1,0-0.1,0-0.2,0l-7.9-3c-0.3-0.1-0.4-0.4-0.3-0.6c0.1-0.3,0.4-0.4,0.6-0.3l7.9,3
			c0.3,0.1,0.4,0.4,0.3,0.6C57.6,11.7,57.4,11.8,57.2,11.8z"/>
	</g>
	<g>
		<path class="st2" d="M45.7,7.5c-0.1,0-0.1,0-0.2,0l-4.7-1.8c-0.3-0.1-0.4-0.4-0.3-0.6c0.1-0.3,0.4-0.4,0.6-0.3l4.7,1.8
			c0.3,0.1,0.4,0.4,0.3,0.6C46.1,7.4,45.9,7.5,45.7,7.5z"/>
	</g>
	<g>
		<polygon class="st3" points="59.8,59.6 36.7,68.7 14.2,59.6 5,37 14.2,13.9 37,5.3 59.8,13.9 69,37 		"/>
	</g>
	<g>
		<polygon class="st4" points="58.1,57.9 36.7,66.3 15.9,57.9 7.4,37 15.9,15.7 37,7.7 58.1,15.7 66.6,37 		"/>
	</g>
	<g>
		<polygon class="st5" points="56.7,56.5 36.8,64.4 17.3,56.5 9.4,37 17.3,17.1 37,9.6 56.7,17.1 64.6,37 		"/>
	</g>
	<g>
		<polygon class="st6" points="55.1,54.9 36.8,62.1 18.9,54.9 11.7,37 18.9,18.8 37,11.9 55.1,18.8 62.3,37 		"/>
	</g>
	<g>
		<defs>
			<polygon id="SVGID_1_" points="58.1,57.9 36.7,66.3 15.9,57.9 7.4,37 15.9,15.7 37,7.7 58.1,15.7 66.6,37 			"/>
		</defs>
		<clipPath id="SVGID_2_">
			<use xlink:href="#SVGID_1_"  style="overflow:visible;"/>
		</clipPath>
		<g class="st7">
			<path class="st8" d="M51.2,26.7c0,0.1-0.1,0.2-0.1,0.2c-4.7,8.1-9.3,16.2-14,24.3c-0.1,0.1-0.1,0.2-0.2,0.2
				c-0.4-0.6-0.8-1.3-1.1-1.9c-4.4-7.5-8.7-15-13-22.5c-0.1-0.1-0.1-0.2-0.2-0.2c0.1-0.1,0.2-0.1,0.2-0.1c1.9,0,3.7,0,5.5,0
				c0.4,0.7,0.8,1.3,1.2,2c1.1,1.9,2.1,3.7,3.2,5.5c1.1,1.9,2.3,3.9,3.3,5.8c0.2,0.5,0.5,0.9,0.9,1.4c0.1-0.1,0.1-0.1,0.1-0.1
				c0.7-1.2,1.4-2.4,2.1-3.7c1.1-1.9,2.1-3.7,3.2-5.5c1.1-1.9,2.1-3.7,3.2-5.5C47.5,26.7,49.4,26.7,51.2,26.7z"/>
			<path class="st9" d="M45.6,26.7c-1.1,1.9-2.1,3.7-3.2,5.5c-1.1,1.9-2.1,3.7-3.2,5.5c-0.7,1.2-1.4,2.4-2.1,3.7l-0.1,0.1
				c-0.3-0.5-0.5-0.9-0.9-1.4c-1.1-1.9-2.3-3.9-3.3-5.8c-1.1-1.9-2.1-3.7-3.2-5.5c-0.4-0.7-0.8-1.3-1.2-2c1.8,0,3.5,0,5.3,0
				c0,0.1,0,0.1,0.1,0.2c1,1.8,2.1,3.6,3.1,5.4c0,0.1,0.1,0.2,0.2,0.2c0.7-1.2,1.4-2.5,2.1-3.7c0.4-0.6,0.8-1.3,1.1-1.9
				C42.1,26.7,43.8,26.7,45.6,26.7z"/>
		</g>
	</g>
	<path class="st1" d="M36.7,66.9l-0.2-0.1l-21.1-8.5L6.9,37l8.6-21.7L37,7.1l21.5,8.1L67.1,37l-8.6,21.3L36.7,66.9z M16.3,57.5
		l20.5,8.3l21-8.3L66,37l-8.3-20.9L37,8.2l-20.7,7.9L8,37L16.3,57.5z M58.1,57.9L58.1,57.9L58.1,57.9z"/>
</g>
</svg>
