<?xml version="1.0" encoding="utf-8"?>
<!-- Generator: Adobe Illustrator 25.4.1, SVG Export Plug-In . SVG Version: 6.00 Build 0)  -->
<svg version="1.1" id="Lag_1" xmlns="http://www.w3.org/2000/svg" xmlns:xlink="http://www.w3.org/1999/xlink" x="0px" y="0px"
	 viewBox="0 0 74 74" style="enable-background:new 0 0 74 74;" xml:space="preserve">
<style type="text/css">
	.st0{fill:#C6A877;}
	.st1{fill:#110B09;}
	.st2{fill:#EADCC7;}
	.st3{fill:#AA926F;}
	.st4{fill:#563C38;}
	.st5{fill:#6D504D;}
	.st6{fill:#826260;}
	.st7{opacity:0.83;clip-path:url(#SVGID_00000177466871165597580080000008373040909356349590_);}
	.st8{fill:#EAE9E8;}
	.st9{fill:#FEFEFD;}
	.st10{fill:#EAE9E9;}
	.st11{opacity:0.83;clip-path:url(#SVGID_00000163055925891344689510000001792236897936884151_);}
	.st12{fill:#FDFEFE;}
	.st13{fill:#CDCECE;}
	.st14{enable-background:new    ;}
</style>
<g>
	<g>
		<polygon class="st0" points="62.3,62 36.7,72.1 11.7,62 1.7,37 11.7,11.5 37,1.9 62.3,11.5 72.3,37 		"/>
		<path class="st1" d="M36.7,72.6l-0.2-0.1L11.4,62.4L1.1,37l10.2-25.9L37,1.4l25.6,9.7L72.9,37L62.6,62.4L36.7,72.6z M12.1,61.6
			l24.6,9.9l25.2-9.9L71.8,37l-9.9-25.1L37,2.5l-24.9,9.4L2.2,37L12.1,61.6z M62.3,62L62.3,62L62.3,62z"/>
	</g>
	<g>
		<path class="st2" d="M66.6,27.4c-0.2,0-0.4-0.1-0.5-0.3l-0.9-2.4c-0.1-0.3,0-0.6,0.3-0.7s0.6,0,0.7,0.3l0.9,2.4
			c0.1,0.3,0,0.6-0.3,0.7C66.7,27.4,66.6,27.4,66.6,27.4z"/>
	</g>
	<g>
		<path class="st2" d="M63.8,20.5c-0.2,0-0.4-0.1-0.5-0.3L62,17c-0.1-0.3,0-0.6,0.3-0.7s0.6,0,0.7,0.3l1.3,3.2
			c0.1,0.3,0,0.6-0.3,0.7C63.9,20.4,63.9,20.5,63.8,20.5z"/>
	</g>
	<g>
		<path class="st2" d="M57.2,11.8c-0.1,0-0.1,0-0.2,0l-7.9-3c-0.3-0.1-0.4-0.4-0.3-0.6c0.1-0.3,0.4-0.4,0.6-0.3l7.9,3
			c0.3,0.1,0.4,0.4,0.3,0.6C57.6,11.7,57.4,11.8,57.2,11.8z"/>
	</g>
	<g>
		<path class="st2" d="M45.7,7.5c-0.1,0-0.1,0-0.2,0l-4.7-1.8c-0.3-0.1-0.4-0.4-0.3-0.6c0.1-0.3,0.4-0.4,0.6-0.3l4.7,1.8
			c0.3,0.1,0.4,0.4,0.3,0.6C46.1,7.4,45.9,7.5,45.7,7.5z"/>
	</g>
	<g>
		<polygon class="st3" points="59.8,59.6 36.7,68.7 14.2,59.6 5,37 14.2,13.9 37,5.3 59.8,13.9 69,37 		"/>
	</g>
	<g>
		<polygon class="st4" points="58.1,57.9 36.7,66.3 15.9,57.9 7.4,37 15.9,15.7 37,7.7 58.1,15.7 66.6,37 		"/>
	</g>
	<g>
		<polygon class="st5" points="56.7,56.5 36.8,64.4 17.3,56.5 9.4,37 17.3,17.1 37,9.6 56.7,17.1 64.6,37 		"/>
	</g>
	<g>
		<polygon class="st6" points="55.1,54.9 36.8,62.1 18.9,54.9 11.7,37 18.9,18.8 37,11.9 55.1,18.8 62.3,37 		"/>
	</g>
	<g>
		<g>
			<g>
				<defs>
					<polygon id="SVGID_1_" points="37.3,48.5 25.5,53.1 14.1,48.5 9.4,37 14.1,25.3 25.7,20.9 37.3,25.3 41.9,37 					"/>
				</defs>
				<clipPath id="SVGID_00000127023196338093368980000008242107185305268890_">
					<use xlink:href="#SVGID_1_"  style="overflow:visible;"/>
				</clipPath>
				<g style="opacity:0.83;clip-path:url(#SVGID_00000127023196338093368980000008242107185305268890_);">
					<path class="st8" d="M25.7,38c-1.8,0-3.5,0-5.2,0c-0.1,0-0.2-0.1-0.2-0.2c-0.2-1.9-0.3-3.8-0.5-5.7c-0.1-0.4-0.1-0.9-0.1-1.3
						c0-0.1,0.1-0.2,0.2-0.2c2,0,3.9,0,5.9,0c0,0.8,0,1.6,0,2.4c-0.1,0-0.1,0-0.2,0c-1,0-2,0-3,0c-0.1,0-0.2-0.1-0.2,0.1
						c0.1,0.7,0.1,1.4,0.2,2.1c0,0.2,0.1,0.2,0.2,0.2c1,0,2,0,3,0C25.7,36.4,25.7,37.2,25.7,38z"/>
					<path class="st9" d="M25.7,35.4c0,0,0,0,0.1,0s0.2,0,0.2,0c1.7,0,3.5,0,5.2,0c0.2,0,0.2,0.1,0.2,0.2c-0.2,1.2-0.2,2.3-0.3,3.4
						c-0.1,1.2-0.2,2.4-0.3,3.7c0,0.1-0.1,0.1-0.2,0.2c-1.5,0.4-3.1,0.8-4.6,1.3c-0.1,0-0.1,0.1-0.1,0.1s0,0-0.1,0
						c0-0.8,0-1.6,0-2.5h0.1c0,0,0,0,0.1,0c0.8-0.2,1.6-0.4,2.5-0.7c0.1,0,0.1-0.1,0.1-0.2c0.1-0.9,0.2-1.9,0.3-2.8
						c0-0.2,0-0.2-0.2-0.2c-0.7,0-2.8,0.1-3,0.1C25.7,38,25.7,36.2,25.7,35.4z"/>
					<path class="st10" d="M25.7,41.8c0,0.8,0,1.6,0,2.5c-0.8-0.2-1.7-0.4-2.5-0.7c-0.8-0.2-1.5-0.4-2.3-0.6
						c-0.1-0.1-0.2-0.1-0.2-0.2c-0.1-1-0.2-2-0.2-3c0-0.2,0-0.3-0.1-0.5c0-0.1,0-0.1,0.1-0.1c0.7,0,1.4,0,2.1,0
						c0.1,0,0.1,0.1,0.1,0.2c0.1,0.4,0.1,0.9,0.1,1.4c0.1,0.4,0,0.4,0.4,0.5C24.1,41.5,24.9,41.7,25.7,41.8z"/>
					<path class="st9" d="M25.7,33c0-0.8,0-1.5,0-2.3c0,0,0,0,0.1,0c0.2,0,0.4,0,0.7,0c1.7,0,3.4,0,5.1,0c0.2,0,0.2,0.1,0.2,0.2
						c-0.1,0.7-0.1,1.4-0.2,2c0,0.2-0.1,0.1-0.2,0.1C30,32.9,25.7,33,25.7,33z"/>
				</g>
			</g>
		</g>
	</g>
	<path class="st1" d="M36.7,66.9l-0.2-0.1l-21.1-8.5L6.9,37l8.6-21.7L37,7.1l21.5,8.1L67.1,37l-8.6,21.3L36.7,66.9z M16.3,57.5
		l20.5,8.3l21-8.3L66,37l-8.3-20.9L37,8.2l-20.7,7.9L8,37L16.3,57.5z M58.1,57.9L58.1,57.9L58.1,57.9z"/>
</g>
<g>
	<g>
		<g>
			<defs>
				<polygon id="SVGID_00000127002485822019693180000017868105677745245060_" points="60.4,48.1 48.6,52.7 37.2,48.1 32.5,36.6 
					37.2,24.9 48.8,20.5 60.4,24.9 65,36.6 				"/>
			</defs>
			<clipPath id="SVGID_00000008835851348620545990000010108345217619274116_">
				<use xlink:href="#SVGID_00000127002485822019693180000017868105677745245060_"  style="overflow:visible;"/>
			</clipPath>
			<g style="opacity:0.83;clip-path:url(#SVGID_00000008835851348620545990000010108345217619274116_);">
				<path class="st12" d="M48.8,41.6C48.8,41.5,48.8,41.5,48.8,41.6c0.8-0.3,1.5-0.5,2.3-0.7c0.2-0.1,0.3-0.1,0.3-0.3
					c0.1-0.8,0.1-1.5,0.2-2.3c0-0.2-0.1-0.3-0.2-0.3c-0.8,0-1.6,0-2.5,0c0-2.1,0-4.3,0-6.5l0,0c0.2,0,0.3,0,0.5,0c1.6,0,3.3,0,4.9,0
					c0.2,0,0.3,0,0.3,0.2c-0.1,0.6-0.1,1.2-0.2,1.8c0,0.2-0.1,0.3-0.3,0.4c-1.4,0.6-2.9,1.3-4.3,1.9c-0.1,0.1-0.2,0.1-0.2,0.1
					c1.4,0,2.8,0,4.2,0c0.4,0,0.4,0,0.3,0.4c-0.1,1.3-0.2,2.6-0.3,3.8c-0.1,0.7-0.1,1.5-0.2,2.2c0,0.2-0.1,0.2-0.2,0.3
					c-0.6,0.2-1.2,0.3-1.8,0.4c-0.9,0.2-1.8,0.5-2.7,0.7C48.8,43,48.8,42.3,48.8,41.6z"/>
				<path class="st13" d="M48.8,31.4c0,2.1,0,4.3,0,6.5V38c-1.1,0-2.3,0-3.4,0c-0.5,0-1.1,0-1.7,0c-0.2,0-0.2-0.1-0.2-0.2
					c-0.1-0.6-0.1-1.2-0.2-1.8c0-0.2,0.1-0.3,0.2-0.3c1.6-0.7,3.2-1.4,4.8-2.1c0.1,0,0.1-0.1,0.1-0.1c-0.2,0-0.4,0-0.5,0
					c-1.5,0-3.1,0-4.6,0c-0.2,0-0.3-0.1-0.3-0.2c-0.1-0.5-0.1-1.1-0.2-1.6c0-0.1,0.1-0.2,0.2-0.2C44.9,31.4,46.8,31.4,48.8,31.4z"/>
				<path class="st13" d="M48.8,43.7C48.8,43.8,48.8,43.8,48.8,43.7c-1.3-0.2-2.5-0.5-3.7-0.9c-0.3-0.1-0.7-0.2-1-0.3
					c-0.1,0-0.2-0.1-0.2-0.2c-0.2-1-0.2-2-0.3-3c0-0.2,0.1-0.2,0.2-0.2c0.5,0,1.1,0,1.6,0c0.2,0,0.2,0.1,0.3,0.2
					c0,0.4,0.1,0.9,0.1,1.4c0,0.1,0.1,0.2,0.2,0.2c0.9,0.2,1.8,0.3,2.7,0.5C48.8,42.3,48.8,43,48.8,43.7z"/>
			</g>
		</g>
	</g>
</g>
<g class="st14">
	<path class="st9" d="M40,38.5h-2.1v2.1h-1.4v-2.1h-2.1v-1.3h2.1V35h1.4v2.1H40V38.5z"/>
</g>
</svg>
