<?xml version="1.0" encoding="utf-8"?>
<!-- Generator: Adobe Illustrator 24.2.3, SVG Export Plug-In . SVG Version: 6.00 Build 0)  -->
<svg version="1.1" id="Lag_1" xmlns="http://www.w3.org/2000/svg" xmlns:xlink="http://www.w3.org/1999/xlink" x="0px" y="0px"
	 viewBox="0 0 98 72" style="enable-background:new 0 0 98 72;" xml:space="preserve">
<style type="text/css">
	.st0{fill:#593927;}
	.st1{fill:#2D2521;}
	.st2{fill:#442C20;}
	.st3{fill:#6D4632;}
	.st4{fill:#C4C0B8;}
	.st5{fill:#DBD6CA;}
	.st6{opacity:0.63;}
	.st7{fill:#CCC2B4;}
	.st8{fill:#DDD4CA;}
	.st9{fill:#EDE6DF;}
	.st10{opacity:0.28;}
	.st11{fill:#BA6450;}
	.st12{fill:#5D4260;}
	.st13{fill:#49384C;}
	.st14{fill:#963F35;}
	.st15{fill:#E59791;}
	.st16{fill:#AD4D45;}
	.st17{fill:#B7544F;}
</style>
<g>
	<g>
		<g>
			<g>
				<g>
					<path class="st0" d="M43.9,69L43.9,69c3.2,1.3,6.8,1.4,10.2,0.4l0.4-0.1c0.1,0,0.2-0.1,0.2-0.3l-0.9-28.8l-8.5,0l-1.5,28.6
						C43.7,68.8,43.8,68.9,43.9,69z"/>
					<path class="st1" d="M49.6,70.4c-2,0-3.9-0.4-5.8-1.1c-0.2-0.1-0.4-0.3-0.4-0.6l1.5-28.9l9.2,0L55,69c0,0.3-0.2,0.5-0.4,0.6
						l-0.4,0.1C52.7,70.2,51.1,70.4,49.6,70.4z M44.1,68.7c3.1,1.3,6.7,1.4,9.9,0.4l0.3-0.1l-0.8-28.4l-7.9,0L44.1,68.7z"/>
				</g>
				<g>
					<path class="st2" d="M43.7,67.5l0.2,0.1c3.2,1.3,6.8,1.4,10.2,0.4l0.6-0.2l-0.9-29l-8.5,0L43.7,67.5z"/>
				</g>
				<g>
					<g>
						<path class="st3" d="M43.7,68.7L3.1,52.6c-0.9-0.4-1.5-1.3-1.5-2.2l0.9-30.1c0-1.5,1.5-2.6,3-2.2l42.2,12.5L43.7,68.7z"/>
						<path class="st1" d="M44.1,69.2L3,52.9c-1.1-0.4-1.7-1.5-1.7-2.6l0.9-30.1c0-0.8,0.4-1.6,1.1-2.1c0.7-0.5,1.5-0.6,2.3-0.4
							l42.5,12.6L44.1,69.2z M4.9,18.4c-0.4,0-0.8,0.1-1.2,0.4c-0.5,0.4-0.8,0.9-0.8,1.5L2,50.4c0,0.8,0.5,1.6,1.3,1.9l40.2,15.9
							l3.9-37.3L5.4,18.5C5.3,18.4,5.1,18.4,4.9,18.4z"/>
					</g>
					<g>
						<path class="st0" d="M43.9,66.4L5.1,51.1c-0.9-0.3-1.4-1.2-1.4-2.1l0.9-28.7c0-1.5,1.5-2.5,2.9-2.1L47.7,30L43.9,66.4z"/>
					</g>
				</g>
				<g>
					<g>
						<path class="st3" d="M54.3,69l40.6-16.1c0.9-0.4,1.5-1.3,1.5-2.2l-0.9-30.1c0-1.5-1.5-2.6-3-2.2L50.3,30.9L54.3,69z"/>
						<path class="st1" d="M53.9,69.5l-4.1-38.9l42.5-12.6c0.8-0.2,1.7-0.1,2.3,0.4c0.7,0.5,1.1,1.3,1.1,2.1l0.9,30.1
							c0,1.1-0.6,2.2-1.7,2.6L53.9,69.5z M50.6,31.2l3.9,37.3l40.2-15.9c0.8-0.3,1.3-1.1,1.3-1.9l-0.9-30.1c0-0.6-0.3-1.2-0.8-1.5
							c-0.5-0.4-1.1-0.5-1.7-0.3L50.6,31.2z"/>
					</g>
					<g>
						<path class="st0" d="M54.1,66.8l38.8-15.4c0.9-0.3,1.4-1.2,1.4-2.1l-0.9-28.7c0-1.5-1.5-2.5-2.9-2.1L50.3,30.4L54.1,66.8z"/>
					</g>
				</g>
			</g>
			<g>
				<g>
					<path class="st4" d="M54.3,50l0-14.7l5.5-5.1c2.5-2.3,5.5-3.9,8.9-4.7l0,0c1.6-0.4,3.2-0.5,4.8-0.5l3.1,0.1
						c2,0.1,3.9-0.2,5.8-0.6l0.7-6.4l5-2.5l1.2,0.3l0.8,0.4l0.7,1.1l1.1-0.1l0.4,1.2l1-0.4l-0.5,4.8l0,0L92,29.3
						c-0.4,3.9-0.4,7.9,0,11.8l1.1,9.4l-5,3c-1.2,0.7-2.5,1.3-3.8,1.8h0c-2.5,0.9-5.1,1.3-7.8,1.2l-3.1-0.1c-1.6,0-3.2,0.1-4.8,0.5
						c-3.3,0.7-6.4,2.4-8.9,4.7l-5.5,5.1l-5.1-4l0-12.6L54.3,50z"/>
					<path class="st1" d="M54.3,67.3L48.8,63l0-13.1l5.1-0.3l0-14.5l5.7-5.2c2.5-2.3,5.6-4,9-4.7c1.6-0.4,3.2-0.5,4.9-0.5l3.1,0.1
						c1.8,0.1,3.7-0.1,5.5-0.6l0.6-6.3l5.3-2.7l1.4,0.4l0.8,0.4l0.6,1l1.2-0.1l0.4,1.1l1.2-0.4l-0.5,5.4l-0.7,6.4
						c-0.4,3.9-0.4,7.9,0,11.8l1.1,9.7l-5.2,3.1c-1.2,0.7-2.5,1.3-3.9,1.8c-2.5,0.9-5.2,1.3-7.9,1.3l-3.1-0.1
						c-1.6,0-3.2,0.1-4.7,0.5c-3.2,0.7-6.2,2.3-8.7,4.6L54.3,67.3z M49.5,62.7l4.8,3.7l5.3-4.9c2.5-2.3,5.6-4,9-4.7
						c1.6-0.4,3.2-0.5,4.9-0.5l3.1,0.1c2.6,0.1,5.2-0.3,7.7-1.2c1.3-0.5,2.5-1.1,3.7-1.8l4.8-2.9l-1-9.2c-0.4-4-0.4-8,0-11.9
						l0.7-6.4l0.4-4.3L92,18.9l-0.5-1.3l-1,0.1l-0.8-1.2l-0.6-0.3l-1-0.3l-4.7,2.4l-0.7,6.4l-0.2,0.1c-1.9,0.5-3.9,0.7-5.9,0.6
						l-3.1-0.1c-1.6,0-3.2,0.1-4.7,0.5c-3.2,0.7-6.2,2.3-8.7,4.6l-5.4,5l0,14.9l-5.1,0.3L49.5,62.7z M54.3,50L54.3,50L54.3,50z"/>
				</g>
				<g>
					<polyline class="st5" points="88,46.6 89.1,47.6 89.4,48.3 90.8,48.3 91,49.5 92.3,50 93.1,50.6 					"/>
					<path class="st1" d="M93.1,51c-0.1,0-0.2,0-0.2-0.1l-0.8-0.6l-1.5-0.6l-0.2-1.1l-1.4,0l-0.3-0.8l-1.1-0.9
						c-0.2-0.1-0.2-0.3,0-0.5c0.1-0.2,0.3-0.2,0.5,0l1.2,1l0.2,0.5l1.5,0l0.2,1.3l1.2,0.5l0.8,0.6c0.2,0.1,0.2,0.3,0.1,0.5
						C93.3,50.9,93.2,51,93.1,51z"/>
				</g>
				<g>
					<path class="st5" d="M49.3,62.7l5.4-4.9c2.5-2.3,5.5-3.9,8.9-4.7l0,0c1.6-0.4,3.2-0.5,4.8-0.5l3.1,0.1c2.6,0.1,5.3-0.3,7.8-1.2
						l0,0c1.3-0.5,2.6-1.1,3.8-1.8l5-3l-1.1-9.4c-0.4-3.9-0.4-7.9,0-11.8l1.1-9.8l-5,2.5c-1.2,0.7-2.5,1.3-3.8,1.8l0,0
						c-2.5,0.9-5.1,1.3-7.8,1.2L68.4,21c-1.6,0-3.2,0.1-4.8,0.5l0,0c-3.3,0.7-6.4,2.4-8.9,4.7l-5.5,5.1l-0.1,31.3
						C49.1,62.7,49.2,62.7,49.3,62.7z"/>
					<path class="st1" d="M49.2,63c-0.1,0-0.1,0-0.2,0c-0.2-0.1-0.3-0.2-0.3-0.4l0.1-31.5l5.7-5.2c2.5-2.3,5.6-4,9-4.7
						c1.6-0.4,3.2-0.5,4.9-0.5l3.1,0.1c2.6,0.1,5.2-0.3,7.7-1.2c1.3-0.5,2.5-1.1,3.7-1.8l5.6-2.8l-1.2,10.5c-0.4,3.9-0.4,7.9,0,11.8
						l1.1,9.7l-5.2,3.1c-1.2,0.7-2.5,1.3-3.9,1.8c-2.5,0.9-5.2,1.3-7.9,1.3l-3.1-0.1c-1.6,0-3.2,0.1-4.7,0.5
						c-3.2,0.7-6.2,2.3-8.7,4.6l-5.4,4.9C49.5,63,49.3,63,49.2,63z M49.3,62.7L49.3,62.7L49.3,62.7z M49.5,31.4L49.5,62l5-4.6
						c2.5-2.3,5.6-4,9-4.7c1.6-0.4,3.2-0.5,4.9-0.5l3.1,0.1c2.6,0.1,5.2-0.3,7.7-1.2c1.3-0.5,2.5-1.1,3.7-1.8l4.8-2.9l-1-9.2
						c-0.4-4-0.4-8,0-11.9l1-9.2l-4.4,2.2c-1.2,0.7-2.5,1.3-3.8,1.8c-2.5,0.9-5.2,1.3-7.9,1.3l-3.1-0.1c-1.6,0-3.2,0.1-4.7,0.5
						c-3.2,0.7-6.2,2.3-8.7,4.6L49.5,31.4z"/>
				</g>
				<g class="st6">
					<path class="st7" d="M81.3,22.7l-7.5,1.6c-0.3,0.1-0.6,0.1-0.9,0.2l-8.3,1.2c-2.4,0.4-4.8,1.3-6.8,2.7L55.4,30
						c-1.7,1.1-2.7,3-2.7,5l-0.3,9l-0.3,9c0,0.9,0.7,1.7,1.6,1.7h0c0.3,0,0.6-0.1,0.9-0.2l4.8-3c1.7-1.1,3.7-1.5,5.6-1.4l3.6,0.2
						c1.6,0.1,3.2-0.1,4.7-0.6l5.4-1.7l2.6-0.9c1.8-0.6,3-2.3,3.1-4.2l0.1-2.5c0.1-3.7-0.1-7.4-0.6-11.1L83.2,24
						C83.1,23.1,82.2,22.5,81.3,22.7z"/>
				</g>
				<g class="st6">
					<path class="st8" d="M79.2,25.3L73,26.6c-0.3,0.1-0.5,0.1-0.8,0.1l-6.9,1c-2.1,0.3-4,1.1-5.7,2.2l-2,1.4
						c-1.4,0.9-2.2,2.5-2.3,4.2L55,43.1l-0.2,7.5c0,0.8,0.6,1.4,1.3,1.4l0,0c0.3,0,0.5-0.1,0.8-0.2l4-2.5c1.4-0.9,3.1-1.3,4.7-1.2
						l3,0.2c1.3,0.1,2.7-0.1,3.9-0.5l4.5-1.4l2.2-0.8c1.5-0.5,2.5-1.9,2.6-3.5L82,40c0.1-3.1-0.1-6.2-0.5-9.3l-0.6-4.3
						C80.8,25.6,80,25.1,79.2,25.3z"/>
				</g>
				<g class="st6">
					<path class="st9" d="M77,28.1L72,29.2c-0.2,0-0.4,0.1-0.6,0.1l-5.5,0.8c-1.6,0.2-3.2,0.8-4.5,1.8l-1.6,1.1
						c-1.1,0.7-1.8,2-1.8,3.3l-0.2,5.9l-0.2,5.9c0,0.6,0.5,1.1,1.1,1.1l0,0c0.2,0,0.4-0.1,0.6-0.2l3.2-2c1.1-0.7,2.4-1,3.7-0.9
						l2.4,0.2c1,0.1,2.1-0.1,3.1-0.4l3.5-1.1l1.7-0.6c1.2-0.4,2-1.5,2-2.8l0-1.6c0.1-2.5-0.1-4.9-0.4-7.3L78.3,29
						C78.2,28.4,77.6,28,77,28.1z"/>
				</g>
				<g class="st10">
					<g>
						<g>
							<path class="st1" d="M79.2,25.1c-0.3-0.1-0.5-0.3-0.6-0.5c-0.2-0.5,0.2-1,0.9-1.3c0.3-0.1,0.6-0.1,0.9-0.1
								c0.3,0.1,0.5,0.3,0.6,0.5s0,0.5-0.1,0.7c-0.2,0.2-0.4,0.4-0.7,0.5c-0.2,0.1-0.3,0.1-0.5,0.1C79.5,25.1,79.3,25.1,79.2,25.1z
								 M79.6,23.6c-0.5,0.2-0.8,0.6-0.7,0.9c0.1,0.2,0.2,0.3,0.4,0.3c0.2,0.1,0.5,0,0.7,0c0.3-0.1,0.5-0.2,0.6-0.4
								c0.1-0.2,0.2-0.4,0.1-0.5c-0.1-0.2-0.2-0.3-0.4-0.3c-0.1,0-0.2,0-0.3,0C79.9,23.5,79.7,23.5,79.6,23.6z"/>
						</g>
					</g>
					<g>
						<g>
							<path class="st1" d="M75,26.7c-0.4-0.1-0.6-0.3-0.7-0.6l0,0c-0.2-0.6,0.3-1.3,1.1-1.6c0.8-0.3,1.6,0,1.8,0.5
								c0.1,0.3,0,0.6-0.2,0.9c-0.2,0.3-0.5,0.5-0.9,0.7c-0.2,0.1-0.4,0.1-0.6,0.1C75.3,26.8,75.2,26.8,75,26.7z M75.5,24.8
								c-0.7,0.2-1.1,0.8-0.9,1.2l0,0c0.1,0.2,0.3,0.4,0.5,0.4c0.3,0.1,0.6,0.1,1-0.1c0.3-0.1,0.6-0.3,0.8-0.6
								c0.2-0.2,0.2-0.5,0.1-0.7c-0.1-0.3-0.5-0.5-0.9-0.5C75.9,24.7,75.7,24.7,75.5,24.8z M74.4,26.1L74.4,26.1L74.4,26.1z"/>
						</g>
					</g>
					<g>
						<g>
							<path class="st1" d="M79.8,27.7c-0.1-0.3,0-0.7,0.2-1.1c0.2-0.3,0.6-0.6,1.1-0.8c1-0.3,2-0.1,2.2,0.6
								c0.1,0.3,0.1,0.7-0.2,1.1c-0.2,0.3-0.6,0.6-1.1,0.8c-0.3,0.1-0.5,0.1-0.8,0.1C80.5,28.5,80,28.3,79.8,27.7z M81.2,26.1
								c-0.4,0.1-0.8,0.4-1,0.7c-0.2,0.3-0.3,0.6-0.2,0.9c0.2,0.6,1,0.8,1.9,0.5c0.4-0.1,0.8-0.4,1-0.7c0.2-0.3,0.3-0.6,0.2-0.9
								c-0.1-0.4-0.6-0.6-1.2-0.6C81.7,26,81.4,26,81.2,26.1z"/>
						</g>
					</g>
					<g>
						<g>
							<path class="st1" d="M76.1,29.7c-0.3-0.1-0.6-0.3-0.7-0.6l0,0c-0.2-0.6,0.3-1.2,1-1.5c0.8-0.3,1.5,0,1.7,0.5
								c0.2,0.6-0.3,1.2-1,1.5c-0.2,0.1-0.4,0.1-0.6,0.1C76.4,29.7,76.3,29.7,76.1,29.7z M76.6,27.8c-0.6,0.2-1,0.7-0.9,1.2
								c0.1,0.2,0.2,0.3,0.5,0.4c0.3,0.1,0.6,0.1,0.9-0.1c0.6-0.2,1-0.7,0.9-1.2c-0.1-0.3-0.5-0.5-0.9-0.5
								C76.9,27.7,76.7,27.8,76.6,27.8z M75.6,29L75.6,29L75.6,29z"/>
						</g>
					</g>
					<g>
						<g>
							<path class="st1" d="M79.3,28.8C79.4,28.8,79.4,28.8,79.3,28.8c0.1,0,0.1-0.1,0.1-0.2l-1.8-5c0-0.1-0.1-0.1-0.2-0.1
								c-0.1,0-0.1,0.1-0.1,0.2l1.8,5C79.2,28.8,79.3,28.8,79.3,28.8z"/>
						</g>
					</g>
					<g>
						<g>
							<path class="st1" d="M74.9,27.6C74.9,27.6,74.9,27.6,74.9,27.6l7.2-2.6c0.1,0,0.1-0.1,0.1-0.2c0-0.1-0.1-0.1-0.2-0.1
								l-7.1,2.5c-0.1,0-0.1,0.1-0.1,0.2C74.8,27.6,74.8,27.6,74.9,27.6z"/>
						</g>
					</g>
				</g>
				<g class="st10">
					<g>
						<g>
							<path class="st1" d="M77,39.7c-0.2-0.1-0.4-0.2-0.5-0.4c-0.1-0.4,0.2-0.8,0.7-1c0.2-0.1,0.5-0.1,0.7,0
								c0.2,0.1,0.4,0.2,0.5,0.4s0,0.4-0.1,0.6c-0.1,0.2-0.3,0.3-0.6,0.4c-0.1,0-0.3,0.1-0.4,0.1C77.2,39.7,77.1,39.7,77,39.7z
								 M77.3,38.5c-0.4,0.1-0.6,0.5-0.6,0.7c0,0.1,0.2,0.2,0.3,0.3c0.2,0,0.4,0,0.6,0c0.2-0.1,0.4-0.2,0.5-0.3
								c0.1-0.1,0.1-0.3,0.1-0.4c0-0.1-0.2-0.2-0.3-0.3c-0.1,0-0.2,0-0.2,0C77.6,38.4,77.4,38.5,77.3,38.5z"/>
						</g>
					</g>
					<g>
						<g>
							<path class="st1" d="M73.8,41c-0.3-0.1-0.5-0.2-0.6-0.5l0,0c-0.2-0.5,0.2-1,0.8-1.2c0.6-0.2,1.3,0,1.4,0.4
								c0.1,0.2,0,0.5-0.1,0.7c-0.2,0.2-0.4,0.4-0.7,0.5C74.5,41,74.3,41,74.1,41C74,41,73.9,41,73.8,41z M74.1,39.5
								c-0.5,0.2-0.8,0.6-0.7,1l0,0c0.1,0.2,0.2,0.3,0.4,0.3c0.2,0.1,0.5,0,0.7,0s0.5-0.2,0.6-0.4c0.1-0.2,0.2-0.4,0.1-0.5
								c-0.1-0.2-0.4-0.4-0.7-0.4C74.4,39.4,74.3,39.4,74.1,39.5z M73.3,40.5L73.3,40.5L73.3,40.5z"/>
						</g>
					</g>
					<g>
						<g>
							<path class="st1" d="M77.5,41.8c-0.1-0.3,0-0.6,0.2-0.9c0.2-0.3,0.5-0.5,0.9-0.6c0.8-0.3,1.5,0,1.7,0.5
								c0.1,0.3,0,0.6-0.2,0.9c-0.2,0.3-0.5,0.5-0.9,0.6c-0.2,0.1-0.4,0.1-0.6,0.1C78.1,42.4,77.6,42.2,77.5,41.8z M78.6,40.5
								c-0.3,0.1-0.6,0.3-0.8,0.5c-0.2,0.2-0.2,0.5-0.1,0.7c0.2,0.4,0.8,0.6,1.5,0.4c0.3-0.1,0.6-0.3,0.8-0.5
								c0.2-0.2,0.2-0.5,0.1-0.7c-0.1-0.3-0.5-0.5-0.9-0.5C78.9,40.4,78.8,40.4,78.6,40.5z"/>
						</g>
					</g>
					<g>
						<g>
							<path class="st1" d="M74.6,43.3c-0.3-0.1-0.5-0.2-0.5-0.5l0,0c-0.2-0.4,0.2-1,0.8-1.2c0.6-0.2,1.2,0,1.4,0.4
								c0.2,0.4-0.2,1-0.8,1.2c-0.2,0.1-0.3,0.1-0.5,0.1C74.9,43.3,74.7,43.3,74.6,43.3z M75,41.8c-0.5,0.2-0.8,0.6-0.7,0.9
								c0.1,0.2,0.2,0.3,0.4,0.3c0.2,0.1,0.5,0,0.7,0c0.5-0.2,0.8-0.6,0.7-0.9c-0.1-0.2-0.4-0.4-0.7-0.4
								C75.2,41.8,75.1,41.8,75,41.8z M74.2,42.8L74.2,42.8L74.2,42.8z"/>
						</g>
					</g>
					<g>
						<g>
							<path class="st1" d="M77.1,42.6C77.1,42.6,77.2,42.6,77.1,42.6c0.1,0,0.1-0.1,0.1-0.1l-1.4-3.9c0-0.1-0.1-0.1-0.1-0.1
								c-0.1,0-0.1,0.1-0.1,0.1l1.4,3.9C77.1,42.6,77.1,42.6,77.1,42.6z"/>
						</g>
					</g>
					<g>
						<g>
							<path class="st1" d="M73.6,41.7C73.7,41.7,73.7,41.7,73.6,41.7l5.6-2c0.1,0,0.1-0.1,0.1-0.1c0-0.1-0.1-0.1-0.1-0.1l-5.6,2
								c-0.1,0-0.1,0.1-0.1,0.1C73.6,41.6,73.6,41.7,73.6,41.7z"/>
						</g>
					</g>
				</g>
				<g class="st10">
					<g>
						<g>
							<path class="st1" d="M63.4,25.1c-0.2,0-0.3-0.2-0.4-0.3c-0.1-0.3,0.1-0.6,0.5-0.8c0.2-0.1,0.4-0.1,0.5,0
								c0.2,0,0.3,0.2,0.4,0.3s0,0.3-0.1,0.5c-0.1,0.1-0.3,0.3-0.4,0.3c-0.1,0-0.2,0.1-0.3,0.1C63.5,25.1,63.5,25.1,63.4,25.1z
								 M63.6,24.2c-0.3,0.1-0.5,0.4-0.4,0.6c0,0.1,0.1,0.2,0.2,0.2c0.1,0,0.3,0,0.4,0c0.2-0.1,0.3-0.1,0.4-0.3
								c0.1-0.1,0.1-0.2,0.1-0.3c0-0.1-0.1-0.2-0.2-0.2c-0.1,0-0.1,0-0.2,0C63.8,24.1,63.7,24.1,63.6,24.2z"/>
						</g>
					</g>
					<g>
						<g>
							<path class="st1" d="M60.9,26.1c-0.2-0.1-0.4-0.2-0.4-0.4l0,0c-0.1-0.4,0.2-0.8,0.7-1c0.5-0.2,1,0,1.1,0.3
								c0.1,0.2,0,0.4-0.1,0.6c-0.1,0.2-0.3,0.3-0.5,0.4c-0.1,0-0.3,0.1-0.4,0.1C61.1,26.1,61,26.1,60.9,26.1z M61.1,24.9
								c-0.4,0.1-0.6,0.5-0.6,0.7l0,0c0,0.1,0.2,0.2,0.3,0.3c0.2,0,0.4,0,0.6,0c0.2-0.1,0.4-0.2,0.5-0.3c0.1-0.1,0.1-0.3,0.1-0.4
								c-0.1-0.2-0.3-0.3-0.6-0.3C61.4,24.8,61.3,24.9,61.1,24.9z M60.5,25.7L60.5,25.7L60.5,25.7z"/>
						</g>
					</g>
					<g>
						<g>
							<path class="st1" d="M63.7,26.7c-0.1-0.2,0-0.4,0.1-0.7c0.1-0.2,0.4-0.4,0.7-0.5c0.6-0.2,1.2,0,1.3,0.4
								c0.1,0.2,0,0.4-0.1,0.7c-0.1,0.2-0.4,0.4-0.7,0.5c-0.2,0.1-0.3,0.1-0.5,0.1C64.2,27.2,63.8,27,63.7,26.7z M64.6,25.7
								c-0.2,0.1-0.5,0.2-0.6,0.4c-0.1,0.2-0.2,0.4-0.1,0.5c0.1,0.3,0.6,0.5,1.1,0.3c0.2-0.1,0.5-0.2,0.6-0.4
								c0.1-0.2,0.2-0.4,0.1-0.5c-0.1-0.2-0.4-0.4-0.7-0.4C64.9,25.6,64.7,25.6,64.6,25.7z"/>
						</g>
					</g>
					<g>
						<g>
							<path class="st1" d="M61.5,27.8c-0.2-0.1-0.4-0.2-0.4-0.3l0,0c-0.1-0.3,0.2-0.7,0.6-0.9c0.5-0.2,0.9,0,1.1,0.3
								c0.1,0.3-0.2,0.7-0.6,0.9c-0.1,0-0.2,0.1-0.4,0.1C61.7,27.9,61.6,27.8,61.5,27.8z M61.8,26.7c-0.4,0.1-0.6,0.4-0.5,0.7
								c0,0.1,0.1,0.2,0.3,0.2c0.2,0,0.4,0,0.5,0c0.4-0.1,0.6-0.4,0.5-0.7c-0.1-0.2-0.3-0.3-0.5-0.3C62,26.7,61.9,26.7,61.8,26.7z
								 M61.2,27.5L61.2,27.5L61.2,27.5z"/>
						</g>
					</g>
					<g>
						<g>
							<path class="st1" d="M63.5,27.3C63.5,27.3,63.5,27.3,63.5,27.3c0.1,0,0.1-0.1,0.1-0.1l-1.1-3c0,0-0.1-0.1-0.1,0
								c0,0-0.1,0.1,0,0.1L63.5,27.3C63.4,27.3,63.4,27.3,63.5,27.3z"/>
						</g>
					</g>
					<g>
						<g>
							<path class="st1" d="M60.8,26.6C60.8,26.6,60.8,26.6,60.8,26.6l4.3-1.5c0,0,0.1-0.1,0-0.1c0,0-0.1-0.1-0.1,0l-4.3,1.5
								C60.7,26.5,60.7,26.5,60.8,26.6C60.7,26.6,60.7,26.6,60.8,26.6z"/>
						</g>
					</g>
				</g>
				<g class="st10">
					<g>
						<g>
							<path class="st1" d="M62.2,39.4c-0.2-0.1-0.3-0.2-0.4-0.3c-0.1-0.3,0.1-0.7,0.6-0.8c0.2-0.1,0.4-0.1,0.6,0
								c0.2,0.1,0.3,0.2,0.4,0.3s0,0.3-0.1,0.5c-0.1,0.2-0.3,0.3-0.5,0.4c-0.1,0-0.2,0.1-0.3,0.1C62.4,39.4,62.3,39.4,62.2,39.4z
								 M62.5,38.3c-0.3,0.1-0.5,0.4-0.5,0.6c0,0.1,0.1,0.2,0.3,0.2c0.1,0,0.3,0,0.5,0c0.2-0.1,0.3-0.2,0.4-0.3
								c0.1-0.1,0.1-0.2,0.1-0.3s-0.1-0.2-0.3-0.2c-0.1,0-0.1,0-0.2,0C62.7,38.3,62.6,38.3,62.5,38.3z"/>
						</g>
					</g>
					<g>
						<g>
							<path class="st1" d="M59.5,40.5c-0.2-0.1-0.4-0.2-0.5-0.4l0,0c-0.1-0.4,0.2-0.9,0.7-1c0.5-0.2,1.1,0,1.2,0.4
								c0.1,0.2,0,0.4-0.1,0.6c-0.1,0.2-0.4,0.3-0.6,0.4c-0.1,0.1-0.3,0.1-0.4,0.1C59.7,40.5,59.6,40.5,59.5,40.5z M59.8,39.2
								c-0.4,0.2-0.7,0.5-0.6,0.8l0,0c0,0.1,0.2,0.2,0.4,0.3c0.2,0.1,0.4,0,0.6,0s0.4-0.2,0.5-0.4c0.1-0.2,0.1-0.3,0.1-0.4
								c-0.1-0.2-0.3-0.3-0.6-0.3C60,39.1,59.9,39.1,59.8,39.2z M59.1,40L59.1,40L59.1,40z"/>
						</g>
					</g>
					<g>
						<g>
							<path class="st1" d="M62.6,41.1c-0.1-0.2,0-0.5,0.1-0.7c0.2-0.2,0.4-0.4,0.7-0.5c0.6-0.2,1.3,0,1.5,0.4
								c0.1,0.2,0,0.5-0.1,0.7c-0.2,0.2-0.4,0.4-0.7,0.5c-0.2,0.1-0.4,0.1-0.5,0.1C63.1,41.7,62.7,41.5,62.6,41.1z M63.6,40
								c-0.3,0.1-0.5,0.3-0.6,0.5c-0.1,0.2-0.2,0.4-0.1,0.6c0.1,0.4,0.7,0.5,1.2,0.3c0.3-0.1,0.5-0.3,0.6-0.5
								c0.1-0.2,0.2-0.4,0.1-0.6c-0.1-0.3-0.4-0.4-0.8-0.4C63.9,39.9,63.7,40,63.6,40z"/>
						</g>
					</g>
					<g>
						<g>
							<path class="st1" d="M60.2,42.4c-0.2-0.1-0.4-0.2-0.5-0.4l0,0c-0.1-0.4,0.2-0.8,0.7-1c0.5-0.2,1,0,1.2,0.3
								c0.1,0.4-0.2,0.8-0.7,1c-0.1,0-0.3,0.1-0.4,0.1C60.4,42.4,60.3,42.4,60.2,42.4z M60.5,41.2c-0.4,0.1-0.7,0.5-0.6,0.8
								c0,0.1,0.2,0.2,0.3,0.3c0.2,0,0.4,0,0.6,0c0.4-0.1,0.7-0.5,0.6-0.8c-0.1-0.2-0.3-0.3-0.6-0.3C60.7,41.1,60.6,41.1,60.5,41.2z
								 M59.8,42L59.8,42L59.8,42z"/>
						</g>
					</g>
					<g>
						<g>
							<path class="st1" d="M62.3,41.9C62.3,41.9,62.3,41.9,62.3,41.9c0.1,0,0.1-0.1,0.1-0.1l-1.2-3.3c0,0-0.1-0.1-0.1-0.1
								c0,0-0.1,0.1-0.1,0.1L62.3,41.9C62.3,41.8,62.3,41.9,62.3,41.9z"/>
						</g>
					</g>
					<g>
						<g>
							<path class="st1" d="M59.4,41C59.4,41,59.4,41,59.4,41l4.8-1.7c0,0,0.1-0.1,0.1-0.1c0,0-0.1-0.1-0.1-0.1l-4.8,1.7
								C59.3,40.9,59.3,40.9,59.4,41C59.3,41,59.3,41,59.4,41z"/>
						</g>
					</g>
				</g>
				<g class="st10">
					<g>
						<g>
							<path class="st1" d="M52.9,32.9c-0.1,0-0.2-0.1-0.2-0.2c-0.1-0.2,0.1-0.4,0.3-0.5c0.1,0,0.2,0,0.3,0c0.1,0,0.2,0.1,0.2,0.2
								s0,0.2-0.1,0.3c-0.1,0.1-0.2,0.2-0.3,0.2c-0.1,0-0.1,0-0.2,0C53,32.9,53,32.9,52.9,32.9z M53.1,32.4
								c-0.2,0.1-0.3,0.2-0.3,0.4c0,0.1,0.1,0.1,0.2,0.1c0.1,0,0.2,0,0.3,0c0.1,0,0.2-0.1,0.2-0.2c0-0.1,0.1-0.1,0-0.2
								c0-0.1-0.1-0.1-0.2-0.1c0,0-0.1,0-0.1,0C53.2,32.3,53.1,32.3,53.1,32.4z"/>
						</g>
					</g>
					<g>
						<g>
							<path class="st1" d="M51.4,33.5c-0.1,0-0.2-0.1-0.3-0.2l0,0c-0.1-0.2,0.1-0.5,0.4-0.6c0.3-0.1,0.6,0,0.7,0.2
								c0,0.1,0,0.2-0.1,0.3c-0.1,0.1-0.2,0.2-0.3,0.2c-0.1,0-0.2,0-0.2,0C51.5,33.6,51.4,33.6,51.4,33.5z M51.5,32.8
								c-0.2,0.1-0.4,0.3-0.3,0.5l0,0c0,0.1,0.1,0.1,0.2,0.2c0.1,0,0.2,0,0.4,0c0.1,0,0.2-0.1,0.3-0.2c0.1-0.1,0.1-0.2,0.1-0.3
								c0-0.1-0.2-0.2-0.3-0.2C51.7,32.8,51.6,32.8,51.5,32.8z M51.1,33.3L51.1,33.3L51.1,33.3z"/>
						</g>
					</g>
					<g>
						<g>
							<path class="st1" d="M53.2,33.9c0-0.1,0-0.3,0.1-0.4c0.1-0.1,0.2-0.2,0.4-0.3c0.4-0.1,0.7,0,0.8,0.2c0,0.1,0,0.3-0.1,0.4
								c-0.1,0.1-0.2,0.2-0.4,0.3c-0.1,0-0.2,0.1-0.3,0.1C53.4,34.2,53.2,34.1,53.2,33.9z M53.7,33.3c-0.2,0.1-0.3,0.1-0.4,0.3
								c-0.1,0.1-0.1,0.2-0.1,0.3c0.1,0.2,0.4,0.3,0.7,0.2c0.2-0.1,0.3-0.1,0.4-0.3c0.1-0.1,0.1-0.2,0.1-0.3
								c-0.1-0.2-0.2-0.2-0.4-0.2C53.9,33.3,53.8,33.3,53.7,33.3z"/>
						</g>
					</g>
					<g>
						<g>
							<path class="st1" d="M51.8,34.6c-0.1,0-0.2-0.1-0.3-0.2l0,0c-0.1-0.2,0.1-0.5,0.4-0.6c0.3-0.1,0.6,0,0.7,0.2
								c0.1,0.2-0.1,0.5-0.4,0.6c-0.1,0-0.2,0-0.2,0C51.9,34.7,51.8,34.7,51.8,34.6z M51.9,34c-0.2,0.1-0.4,0.3-0.3,0.4
								c0,0.1,0.1,0.1,0.2,0.2c0.1,0,0.2,0,0.3,0c0.2-0.1,0.4-0.3,0.3-0.4c0-0.1-0.2-0.2-0.3-0.2C52.1,33.9,52,33.9,51.9,34z
								 M51.6,34.4L51.6,34.4L51.6,34.4z"/>
						</g>
					</g>
					<g>
						<g>
							<path class="st1" d="M53,34.3C53,34.3,53,34.3,53,34.3C53,34.3,53,34.3,53,34.3l-0.6-1.9c0,0,0,0-0.1,0c0,0,0,0,0,0.1
								L53,34.3C52.9,34.3,53,34.3,53,34.3z"/>
						</g>
					</g>
					<g>
						<g>
							<path class="st1" d="M51.3,33.9C51.3,33.9,51.3,33.9,51.3,33.9l2.7-1c0,0,0,0,0-0.1s0,0-0.1,0L51.3,33.9
								C51.3,33.8,51.3,33.8,51.3,33.9C51.3,33.9,51.3,33.9,51.3,33.9z"/>
						</g>
					</g>
				</g>
			</g>
			<g>
				<g>
					<path class="st4" d="M44,49.8l0-14.7L38.5,30c-2.5-2.3-5.5-3.9-8.9-4.7l0,0c-1.6-0.4-3.2-0.5-4.8-0.5l-3.1,0.1
						c-2,0.1-3.9-0.2-5.8-0.6l-0.7-6.4l-5-2.5l-1.2,0.3l-0.8,0.4l-0.7,1.1l-1.1-0.1l-0.4,1.2l-1-0.4l0.5,4.8l0,0l0.7,6.4
						c0.4,3.9,0.4,7.9,0,11.8l-1.1,9.4l5,3c1.2,0.7,2.5,1.3,3.8,1.8h0c2.5,0.9,5.1,1.3,7.8,1.2l3.1-0.1c1.6,0,3.2,0.1,4.8,0.5
						c3.3,0.7,6.4,2.4,8.9,4.7l5.5,5.1l5.1-4l0-12.6L44,49.8z"/>
					<path class="st1" d="M44.1,67.1l-5.8-5.3c-2.4-2.3-5.4-3.8-8.7-4.6c-1.5-0.3-3.1-0.5-4.7-0.5l-3.1,0.1
						c-2.7,0.1-5.4-0.3-7.9-1.3c-1.3-0.5-2.6-1.1-3.9-1.8l-5.2-3.1L5.9,41c0.4-3.9,0.4-7.9,0-11.8l-0.7-6.4l-0.5-5.4l1.2,0.4
						l0.4-1.1l1.2,0.1l0.6-1L9,15.4l1.3-0.3l5.3,2.7l0.6,6.3c1.8,0.4,3.6,0.6,5.5,0.6l3.1-0.1c1.6,0,3.3,0.1,4.9,0.5
						c3.4,0.8,6.5,2.4,9,4.7l5.7,5.2l0,14.5l5.1,0.3l0,13.1L44.1,67.1z M25.4,56c1.5,0,2.9,0.2,4.3,0.5c3.4,0.8,6.5,2.4,9,4.7
						l5.3,4.9l4.8-3.7l0-12.1l-5.1-0.3l0-14.9l-5.4-5c-2.4-2.3-5.4-3.8-8.7-4.6c-1.5-0.3-3.1-0.5-4.7-0.5l-3.1,0.1
						c-2,0.1-4-0.2-5.9-0.6l-0.2-0.1L15,18.2l-4.7-2.4l-1,0.3l-0.6,0.3l-0.8,1.2l-1-0.1l-0.5,1.3l-0.8-0.3l0.4,4.3l0.7,6.4
						c0.4,4,0.4,8,0,11.9l-1,9.2l4.8,2.9c1.2,0.7,2.4,1.3,3.7,1.8c2.5,0.9,5,1.3,7.7,1.2l3.1-0.1C25.1,56,25.3,56,25.4,56z"/>
				</g>
				<g>
					<polyline class="st5" points="10.4,46.5 9.2,47.4 8.9,48.1 7.5,48.1 7.4,49.3 6,49.8 5.2,50.4 					"/>
					<path class="st1" d="M5.2,50.8c-0.1,0-0.2,0-0.3-0.1c-0.1-0.2-0.1-0.4,0.1-0.5l0.9-0.7L7,49l0.2-1.3l1.5,0l0.2-0.5l1.2-1
						c0.2-0.1,0.4-0.1,0.5,0c0.1,0.2,0.1,0.4,0,0.5l-1.1,0.9l-0.3,0.8l-1.4,0l-0.2,1.1l-1.5,0.6l-0.8,0.6
						C5.4,50.8,5.3,50.8,5.2,50.8z"/>
				</g>
				<g>
					<path class="st5" d="M49,62.5l-5.4-4.9c-2.5-2.3-5.5-3.9-8.9-4.7h0c-1.6-0.4-3.2-0.5-4.8-0.5l-3.1,0.1
						c-2.6,0.1-5.3-0.3-7.8-1.2l0,0c-1.3-0.5-2.6-1.1-3.8-1.8l-5-3l1.1-9.4c0.4-3.9,0.4-7.9,0-11.8l-1.1-9.8l5,2.5
						c1.2,0.7,2.5,1.3,3.8,1.8l0,0c2.5,0.9,5.1,1.3,7.8,1.2l3.1-0.1c1.6,0,3.2,0.1,4.8,0.5l0,0c3.3,0.7,6.4,2.4,8.9,4.7l5.5,5.1
						l0.1,31.3C49.2,62.5,49.1,62.6,49,62.5z"/>
					<path class="st1" d="M49.1,62.9c-0.1,0-0.2,0-0.3-0.1l0,0l-5.4-4.9C41,55.6,38,54,34.7,53.2c-1.5-0.3-3.1-0.5-4.7-0.5l-3.1,0.1
						c-2.7,0.1-5.4-0.3-7.9-1.3c-1.3-0.5-2.6-1.1-3.9-1.8L10,46.7l1.1-9.7c0.4-3.9,0.4-7.9,0-11.8L9.9,14.8l5.6,2.8
						c1.2,0.7,2.5,1.3,3.7,1.8c2.5,0.9,5,1.3,7.7,1.2l3.1-0.1c1.6,0,3.3,0.1,4.9,0.5c3.4,0.8,6.5,2.4,9,4.7l5.7,5.2l0.1,31.5
						c0,0.2-0.1,0.4-0.3,0.4C49.2,62.9,49.2,62.9,49.1,62.9z M30.6,52.1c1.5,0,2.9,0.2,4.3,0.5c3.4,0.8,6.5,2.4,9,4.7l5,4.6
						l-0.1-30.6l-5.4-5c-2.4-2.3-5.4-3.8-8.7-4.6c-1.5-0.3-3.1-0.5-4.7-0.5l-3.1,0.1c-2.7,0.1-5.4-0.3-7.9-1.3
						c-1.3-0.5-2.6-1.1-3.9-1.8L10.7,16l1,9.2c0.4,4,0.4,8,0,11.9l-1,9.2l4.8,2.9c1.2,0.7,2.4,1.3,3.7,1.8c2.5,0.9,5,1.3,7.7,1.2
						l3.1-0.1C30.2,52.1,30.4,52.1,30.6,52.1z"/>
				</g>
				<g class="st6">
					<path class="st7" d="M17.1,22.5l7.5,1.6c0.3,0.1,0.6,0.1,0.9,0.2l8.3,1.2c2.4,0.4,4.8,1.3,6.8,2.7l2.4,1.6c1.7,1.1,2.7,3,2.7,5
						l0.3,9l0.3,9c0,0.9-0.7,1.7-1.6,1.7l0,0c-0.3,0-0.6-0.1-0.9-0.2l-4.8-3c-1.7-1.1-3.7-1.5-5.6-1.4L29.6,50
						c-1.6,0.1-3.2-0.1-4.7-0.6l-5.4-1.7l-2.6-0.9c-1.8-0.6-3-2.3-3.1-4.2l-0.1-2.5c-0.1-3.7,0.1-7.4,0.6-11.1l0.7-5.1
						C15.2,22.9,16.1,22.3,17.1,22.5z"/>
				</g>
				<g class="st6">
					<path class="st8" d="M19.1,25.1l6.3,1.4c0.3,0.1,0.5,0.1,0.8,0.1l6.9,1c2.1,0.3,4,1.1,5.7,2.2l2,1.4c1.4,0.9,2.2,2.5,2.3,4.2
						l0.2,7.5l0.2,7.5c0,0.8-0.6,1.4-1.3,1.4l0,0c-0.3,0-0.5-0.1-0.8-0.2l-4-2.5c-1.4-0.9-3.1-1.3-4.7-1.2l-3,0.2
						c-1.3,0.1-2.7-0.1-3.9-0.5l-4.5-1.4L19,45.4c-1.5-0.5-2.5-1.9-2.6-3.5l-0.1-2.1c-0.1-3.1,0.1-6.2,0.5-9.3l0.6-4.3
						C17.6,25.5,18.3,24.9,19.1,25.1z"/>
				</g>
				<g class="st6">
					<path class="st9" d="M21.4,27.9l4.9,1.1c0.2,0,0.4,0.1,0.6,0.1l5.5,0.8c1.6,0.2,3.2,0.8,4.5,1.8l1.6,1.1c1.1,0.7,1.8,2,1.8,3.3
						l0.2,5.9l0.2,5.9c0,0.6-0.5,1.1-1.1,1.1l0,0c-0.2,0-0.4-0.1-0.6-0.2l-3.2-2c-1.1-0.7-2.4-1-3.7-0.9l-2.4,0.2
						c-1,0.1-2.1-0.1-3.1-0.4L23,44.6L21.3,44c-1.2-0.4-2-1.5-2-2.8l0-1.6c-0.1-2.5,0.1-4.9,0.4-7.3l0.5-3.4
						C20.1,28.2,20.7,27.8,21.4,27.9z"/>
				</g>
				<g class="st10">
					<g>
						<g>
							<path class="st1" d="M18.7,25c-0.2,0-0.3,0-0.5-0.1c-0.3-0.1-0.6-0.3-0.7-0.5c-0.2-0.2-0.2-0.5-0.1-0.7
								c0.1-0.2,0.3-0.4,0.6-0.5c0.3-0.1,0.6-0.1,0.9,0.1c0.6,0.2,1,0.8,0.9,1.3c-0.1,0.2-0.3,0.4-0.6,0.5C19,25,18.9,25,18.7,25z
								 M18.3,23.3c-0.1,0-0.2,0-0.3,0c-0.2,0.1-0.3,0.2-0.4,0.3c-0.1,0.2,0,0.3,0.1,0.5c0.1,0.2,0.3,0.3,0.6,0.4
								c0.3,0.1,0.5,0.1,0.7,0c0.2-0.1,0.3-0.2,0.4-0.3c0.1-0.3-0.2-0.8-0.7-0.9C18.6,23.4,18.4,23.4,18.3,23.3z"/>
						</g>
					</g>
					<g>
						<g>
							<path class="st1" d="M22.8,26.6c-0.2,0-0.4,0-0.6-0.1c-0.4-0.1-0.7-0.4-0.9-0.7C21,25.6,21,25.2,21.1,25
								c0.2-0.6,1-0.8,1.8-0.5c0.8,0.3,1.3,1,1.1,1.6l0,0c-0.1,0.3-0.4,0.5-0.7,0.6C23.1,26.6,23,26.7,22.8,26.6z M22.3,24.6
								c-0.4,0-0.8,0.2-0.9,0.5c-0.1,0.2,0,0.4,0.1,0.7c0.2,0.2,0.4,0.4,0.8,0.6c0.3,0.1,0.7,0.1,1,0.1c0.3-0.1,0.5-0.2,0.5-0.4l0,0
								c0.2-0.4-0.3-1-0.9-1.2C22.6,24.6,22.4,24.6,22.3,24.6z M23.9,25.9L23.9,25.9L23.9,25.9z"/>
						</g>
					</g>
					<g>
						<g>
							<path class="st1" d="M17.1,28.4c-0.3,0-0.5-0.1-0.8-0.1c-0.5-0.2-0.9-0.4-1.1-0.8c-0.3-0.4-0.3-0.8-0.2-1.1
								c0.2-0.7,1.2-1,2.2-0.6c0.5,0.2,0.9,0.4,1.1,0.8c0.3,0.4,0.3,0.8,0.2,1.1C18.4,28.1,17.8,28.4,17.1,28.4z M16.4,25.8
								c-0.6,0-1,0.2-1.2,0.6c-0.1,0.3,0,0.6,0.2,0.9c0.2,0.3,0.6,0.6,1,0.7c0.8,0.3,1.7,0.1,1.9-0.5c0.1-0.3,0-0.6-0.2-0.9
								c-0.2-0.3-0.6-0.6-1-0.7C16.9,25.9,16.7,25.8,16.4,25.8z"/>
						</g>
					</g>
					<g>
						<g>
							<path class="st1" d="M21.7,29.6c-0.2,0-0.4,0-0.6-0.1c-0.8-0.3-1.2-0.9-1-1.5c0.2-0.6,1-0.8,1.7-0.5c0.8,0.3,1.2,0.9,1,1.5
								l0,0c-0.1,0.3-0.3,0.5-0.7,0.6C22,29.5,21.9,29.6,21.7,29.6z M21.2,27.6c-0.4,0-0.8,0.2-0.9,0.5c-0.1,0.4,0.2,0.9,0.9,1.2
								c0.3,0.1,0.6,0.1,0.9,0.1c0.3-0.1,0.4-0.2,0.5-0.4c0.1-0.4-0.2-0.9-0.9-1.2C21.6,27.6,21.4,27.6,21.2,27.6z M22.7,28.9
								L22.7,28.9L22.7,28.9z"/>
						</g>
					</g>
					<g>
						<g>
							<path class="st1" d="M19,28.7C19,28.7,19,28.7,19,28.7c-0.1,0-0.1-0.1-0.1-0.2l1.8-5c0-0.1,0.1-0.1,0.2-0.1
								c0.1,0,0.1,0.1,0.1,0.2l-1.8,5C19.1,28.7,19,28.7,19,28.7z"/>
						</g>
					</g>
					<g>
						<g>
							<path class="st1" d="M23.4,27.5C23.4,27.5,23.4,27.5,23.4,27.5l-7.2-2.6c-0.1,0-0.1-0.1-0.1-0.2s0.1-0.1,0.2-0.1l7.1,2.5
								c0.1,0,0.1,0.1,0.1,0.2C23.6,27.4,23.5,27.5,23.4,27.5z"/>
						</g>
					</g>
				</g>
				<g class="st10">
					<g>
						<g>
							<path class="st1" d="M21,39.6c-0.1,0-0.3,0-0.4-0.1c-0.2-0.1-0.4-0.2-0.6-0.4c-0.1-0.2-0.2-0.4-0.1-0.6
								c0.1-0.2,0.2-0.3,0.5-0.4c0.2-0.1,0.5,0,0.7,0c0.5,0.2,0.8,0.6,0.7,1c-0.1,0.2-0.2,0.3-0.5,0.4C21.2,39.6,21.1,39.6,21,39.6z
								 M20.6,38.3c-0.1,0-0.2,0-0.2,0c-0.2,0-0.3,0.1-0.3,0.3c0,0.1,0,0.3,0.1,0.4c0.1,0.1,0.3,0.3,0.5,0.3c0.2,0.1,0.4,0.1,0.6,0
								c0.2,0,0.3-0.1,0.3-0.3c0.1-0.3-0.2-0.6-0.6-0.7C20.9,38.3,20.8,38.3,20.6,38.3z"/>
						</g>
					</g>
					<g>
						<g>
							<path class="st1" d="M24.2,40.9c-0.2,0-0.3,0-0.5-0.1c-0.3-0.1-0.5-0.3-0.7-0.5c-0.2-0.2-0.2-0.5-0.1-0.7
								c0.2-0.5,0.8-0.6,1.4-0.4c0.6,0.2,1,0.8,0.8,1.2l0,0c-0.1,0.2-0.3,0.4-0.6,0.5C24.4,40.9,24.3,40.9,24.2,40.9z M23.8,39.2
								c-0.3,0-0.6,0.1-0.7,0.4c-0.1,0.2,0,0.3,0.1,0.5c0.1,0.2,0.4,0.3,0.6,0.4c0.3,0.1,0.5,0.1,0.7,0c0.2-0.1,0.4-0.2,0.4-0.3l0,0
								c0.1-0.3-0.2-0.8-0.7-1C24,39.3,23.9,39.2,23.8,39.2z M25,40.3L25,40.3L25,40.3z"/>
						</g>
					</g>
					<g>
						<g>
							<path class="st1" d="M19.7,42.2c-0.2,0-0.4,0-0.6-0.1c-0.4-0.1-0.7-0.4-0.9-0.6c-0.2-0.3-0.3-0.6-0.2-0.9
								c0.2-0.5,1-0.8,1.7-0.5c0.4,0.1,0.7,0.4,0.9,0.6c0.2,0.3,0.3,0.6,0.2,0.9C20.7,42,20.2,42.2,19.7,42.2z M19.2,40.2
								c-0.4,0-0.8,0.2-0.9,0.5c-0.1,0.2,0,0.4,0.1,0.7c0.2,0.2,0.4,0.4,0.8,0.5c0.7,0.2,1.3,0.1,1.5-0.4c0.1-0.2,0-0.4-0.1-0.7
								c-0.2-0.2-0.4-0.4-0.8-0.5C19.6,40.2,19.4,40.2,19.2,40.2z"/>
						</g>
					</g>
					<g>
						<g>
							<path class="st1" d="M23.3,43.1c-0.2,0-0.3,0-0.5-0.1c-0.6-0.2-1-0.7-0.8-1.2c0.2-0.4,0.8-0.6,1.4-0.4c0.6,0.2,1,0.7,0.8,1.2
								l0,0c-0.1,0.2-0.3,0.4-0.5,0.5C23.6,43.1,23.5,43.1,23.3,43.1z M22.9,41.6c-0.3,0-0.6,0.1-0.7,0.4c-0.1,0.3,0.2,0.7,0.7,0.9
								c0.2,0.1,0.5,0.1,0.7,0c0.2-0.1,0.3-0.2,0.4-0.3c0.1-0.3-0.2-0.7-0.7-0.9C23.2,41.6,23.1,41.6,22.9,41.6z M24.1,42.6
								L24.1,42.6L24.1,42.6z"/>
						</g>
					</g>
					<g>
						<g>
							<path class="st1" d="M21.2,42.5C21.2,42.5,21.2,42.5,21.2,42.5c-0.1,0-0.1-0.1-0.1-0.1l1.4-3.9c0-0.1,0.1-0.1,0.1-0.1
								c0.1,0,0.1,0.1,0.1,0.1l-1.4,3.9C21.3,42.4,21.2,42.5,21.2,42.5z"/>
						</g>
					</g>
					<g>
						<g>
							<path class="st1" d="M24.7,41.5C24.7,41.5,24.6,41.5,24.7,41.5l-5.6-2c-0.1,0-0.1-0.1-0.1-0.1s0.1-0.1,0.1-0.1l5.6,2
								c0.1,0,0.1,0.1,0.1,0.1C24.8,41.5,24.7,41.5,24.7,41.5z"/>
						</g>
					</g>
				</g>
				<g class="st10">
					<g>
						<g>
							<path class="st1" d="M34.7,25c-0.1,0-0.2,0-0.3-0.1c-0.2-0.1-0.3-0.2-0.4-0.3c-0.1-0.1-0.1-0.3-0.1-0.5
								c0.1-0.1,0.2-0.2,0.4-0.3c0.2,0,0.4,0,0.5,0c0.4,0.1,0.6,0.5,0.5,0.8c-0.1,0.1-0.2,0.2-0.4,0.3C34.9,24.9,34.8,25,34.7,25z
								 M34.4,24c-0.1,0-0.1,0-0.2,0c-0.1,0-0.2,0.1-0.2,0.2c0,0.1,0,0.2,0.1,0.3c0.1,0.1,0.2,0.2,0.4,0.3c0.2,0.1,0.3,0.1,0.4,0
								c0.1,0,0.2-0.1,0.2-0.2c0.1-0.2-0.1-0.5-0.4-0.6C34.6,24,34.5,24,34.4,24z"/>
						</g>
					</g>
					<g>
						<g>
							<path class="st1" d="M37.2,26c-0.1,0-0.3,0-0.4-0.1c-0.2-0.1-0.4-0.2-0.5-0.4c-0.1-0.2-0.2-0.4-0.1-0.6
								c0.1-0.4,0.6-0.5,1.1-0.3c0.5,0.2,0.8,0.6,0.7,1l0,0c-0.1,0.2-0.2,0.3-0.4,0.4C37.4,25.9,37.3,26,37.2,26z M36.8,24.7
								c-0.3,0-0.5,0.1-0.6,0.3c0,0.1,0,0.3,0.1,0.4c0.1,0.1,0.3,0.3,0.5,0.3s0.4,0.1,0.6,0c0.2,0,0.3-0.1,0.3-0.3l0,0
								c0.1-0.3-0.2-0.6-0.6-0.7C37.1,24.7,36.9,24.7,36.8,24.7z M37.8,25.5L37.8,25.5L37.8,25.5z"/>
						</g>
					</g>
					<g>
						<g>
							<path class="st1" d="M33.7,27c-0.2,0-0.3,0-0.5-0.1c-0.3-0.1-0.5-0.3-0.7-0.5c-0.2-0.2-0.2-0.5-0.1-0.7
								c0.2-0.4,0.8-0.6,1.3-0.4c0.3,0.1,0.5,0.3,0.7,0.5c0.2,0.2,0.2,0.5,0.1,0.7C34.5,26.8,34.1,27,33.7,27z M33.3,25.4
								c-0.3,0-0.6,0.1-0.7,0.4c-0.1,0.2,0,0.3,0.1,0.5c0.1,0.2,0.3,0.3,0.6,0.4c0.5,0.2,1,0,1.1-0.3c0.1-0.2,0-0.3-0.1-0.5
								c-0.1-0.2-0.3-0.3-0.6-0.4C33.6,25.5,33.5,25.4,33.3,25.4z"/>
						</g>
					</g>
					<g>
						<g>
							<path class="st1" d="M36.5,27.7c-0.1,0-0.2,0-0.4-0.1c-0.5-0.2-0.7-0.6-0.6-0.9c0.1-0.3,0.6-0.5,1.1-0.3
								c0.5,0.2,0.7,0.6,0.6,0.9l0,0c-0.1,0.2-0.2,0.3-0.4,0.3C36.7,27.7,36.6,27.7,36.5,27.7z M36.2,26.5c-0.3,0-0.5,0.1-0.5,0.3
								c-0.1,0.3,0.1,0.6,0.5,0.7c0.2,0.1,0.4,0.1,0.5,0c0.2,0,0.3-0.1,0.3-0.2c0.1-0.3-0.1-0.6-0.5-0.7
								C36.4,26.5,36.3,26.5,36.2,26.5z M37.1,27.3L37.1,27.3L37.1,27.3z"/>
						</g>
					</g>
					<g>
						<g>
							<path class="st1" d="M34.9,27.2C34.8,27.2,34.8,27.2,34.9,27.2c-0.1,0-0.1-0.1-0.1-0.1l1.1-3c0,0,0.1-0.1,0.1,0
								c0,0,0.1,0.1,0,0.1L34.9,27.2C34.9,27.2,34.9,27.2,34.9,27.2z"/>
						</g>
					</g>
					<g>
						<g>
							<path class="st1" d="M37.5,26.4C37.5,26.4,37.5,26.4,37.5,26.4l-4.3-1.5c0,0-0.1-0.1,0-0.1c0,0,0.1-0.1,0.1,0l4.3,1.5
								C37.6,26.3,37.6,26.3,37.5,26.4C37.6,26.4,37.6,26.4,37.5,26.4z"/>
						</g>
					</g>
				</g>
				<g class="st10">
					<g>
						<g>
							<path class="st1" d="M35.8,39.2c-0.1,0-0.2,0-0.3-0.1c-0.2-0.1-0.4-0.2-0.5-0.4c-0.1-0.2-0.1-0.3-0.1-0.5s0.2-0.3,0.4-0.3
								c0.2-0.1,0.4,0,0.6,0c0.4,0.2,0.7,0.5,0.6,0.8c-0.1,0.2-0.2,0.3-0.4,0.3C36,39.2,35.9,39.2,35.8,39.2z M35.5,38.1
								c-0.1,0-0.1,0-0.2,0c-0.1,0-0.2,0.1-0.3,0.2s0,0.2,0.1,0.3c0.1,0.1,0.2,0.2,0.4,0.3c0.2,0.1,0.3,0.1,0.5,0
								c0.1,0,0.2-0.1,0.3-0.2c0.1-0.2-0.1-0.5-0.5-0.6C35.7,38.2,35.6,38.1,35.5,38.1z"/>
						</g>
					</g>
					<g>
						<g>
							<path class="st1" d="M38.5,40.3c-0.1,0-0.3,0-0.4-0.1c-0.3-0.1-0.5-0.2-0.6-0.4c-0.1-0.2-0.2-0.4-0.1-0.6
								c0.1-0.4,0.7-0.5,1.2-0.4c0.5,0.2,0.9,0.7,0.7,1l0,0c-0.1,0.2-0.2,0.3-0.5,0.4C38.8,40.3,38.6,40.3,38.5,40.3z M38.2,39
								c-0.3,0-0.5,0.1-0.6,0.3c0,0.1,0,0.3,0.1,0.4c0.1,0.2,0.3,0.3,0.5,0.4s0.4,0.1,0.6,0c0.2,0,0.3-0.2,0.4-0.3l0,0
								c0.1-0.3-0.2-0.7-0.6-0.8C38.4,39,38.3,39,38.2,39z M39.2,39.9L39.2,39.9L39.2,39.9z"/>
						</g>
					</g>
					<g>
						<g>
							<path class="st1" d="M34.7,41.5c-0.2,0-0.3,0-0.5-0.1c-0.3-0.1-0.6-0.3-0.7-0.5c-0.2-0.2-0.2-0.5-0.1-0.7
								c0.2-0.5,0.8-0.7,1.5-0.4c0.3,0.1,0.6,0.3,0.7,0.5c0.2,0.2,0.2,0.5,0.1,0.7C35.6,41.3,35.2,41.5,34.7,41.5z M34.3,39.8
								c-0.4,0-0.7,0.1-0.8,0.4c-0.1,0.2,0,0.4,0.1,0.6c0.1,0.2,0.4,0.4,0.6,0.5c0.6,0.2,1.1,0.1,1.2-0.3c0.1-0.2,0-0.4-0.1-0.6
								c-0.1-0.2-0.4-0.4-0.6-0.5C34.6,39.8,34.4,39.8,34.3,39.8z"/>
						</g>
					</g>
					<g>
						<g>
							<path class="st1" d="M37.8,42.3c-0.1,0-0.3,0-0.4-0.1c-0.5-0.2-0.8-0.6-0.7-1c0.1-0.4,0.7-0.5,1.2-0.3c0.5,0.2,0.8,0.6,0.7,1
								l0,0c-0.1,0.2-0.2,0.3-0.5,0.4C38,42.3,37.9,42.3,37.8,42.3z M37.5,41c-0.3,0-0.5,0.1-0.6,0.3c-0.1,0.3,0.2,0.6,0.6,0.8
								c0.2,0.1,0.4,0.1,0.6,0c0.2,0,0.3-0.1,0.3-0.3c0.1-0.3-0.2-0.6-0.6-0.8C37.7,41,37.6,41,37.5,41z M38.5,41.8L38.5,41.8
								L38.5,41.8z"/>
						</g>
					</g>
					<g>
						<g>
							<path class="st1" d="M36,41.7C36,41.7,36,41.7,36,41.7c-0.1,0-0.1-0.1-0.1-0.1l1.2-3.3c0,0,0.1-0.1,0.1-0.1
								c0,0,0.1,0.1,0.1,0.1L36,41.7C36.1,41.7,36,41.7,36,41.7z"/>
						</g>
					</g>
					<g>
						<g>
							<path class="st1" d="M39,40.9C39,40.9,38.9,40.9,39,40.9l-4.8-1.7c0,0-0.1-0.1-0.1-0.1c0,0,0.1-0.1,0.1-0.1l4.8,1.7
								C39,40.7,39.1,40.8,39,40.9C39,40.9,39,40.9,39,40.9z"/>
						</g>
					</g>
				</g>
				<g class="st10">
					<g>
						<g>
							<path class="st1" d="M45.2,32.8c-0.1,0-0.1,0-0.2,0c-0.1,0-0.2-0.1-0.3-0.2c-0.1-0.1-0.1-0.2-0.1-0.3c0-0.1,0.1-0.2,0.2-0.2
								c0.1,0,0.2,0,0.3,0c0.2,0.1,0.4,0.3,0.3,0.5c0,0.1-0.1,0.2-0.2,0.2C45.3,32.8,45.3,32.8,45.2,32.8z M45.1,32.2
								c0,0-0.1,0-0.1,0c-0.1,0-0.1,0.1-0.2,0.1c0,0.1,0,0.1,0,0.2c0,0.1,0.1,0.1,0.2,0.2c0.1,0,0.2,0,0.3,0c0.1,0,0.1-0.1,0.2-0.1
								c0-0.1-0.1-0.3-0.3-0.4C45.2,32.2,45.1,32.2,45.1,32.2z"/>
						</g>
					</g>
					<g>
						<g>
							<path class="st1" d="M46.8,33.4c-0.1,0-0.2,0-0.2,0c-0.1-0.1-0.3-0.1-0.3-0.2c-0.1-0.1-0.1-0.2-0.1-0.3
								c0.1-0.2,0.4-0.3,0.7-0.2c0.3,0.1,0.5,0.4,0.4,0.6l0,0c0,0.1-0.1,0.2-0.3,0.2C46.9,33.4,46.8,33.4,46.8,33.4z M46.6,32.6
								c-0.2,0-0.3,0.1-0.3,0.2c0,0.1,0,0.2,0.1,0.3c0.1,0.1,0.2,0.2,0.3,0.2c0.1,0,0.3,0.1,0.4,0c0.1,0,0.2-0.1,0.2-0.2l0,0
								c0.1-0.2-0.1-0.4-0.3-0.5C46.7,32.6,46.6,32.6,46.6,32.6z M47.2,33.2L47.2,33.2L47.2,33.2z"/>
						</g>
					</g>
					<g>
						<g>
							<path class="st1" d="M44.6,34.1c-0.1,0-0.2,0-0.3-0.1c-0.2-0.1-0.3-0.2-0.4-0.3c-0.1-0.1-0.1-0.3-0.1-0.4
								c0.1-0.3,0.5-0.4,0.8-0.2c0.2,0.1,0.3,0.2,0.4,0.3c0.1,0.1,0.1,0.3,0.1,0.4C45.1,34,44.9,34.1,44.6,34.1z M44.4,33.1
								c-0.2,0-0.4,0.1-0.4,0.2c0,0.1,0,0.2,0.1,0.3c0.1,0.1,0.2,0.2,0.4,0.3c0.3,0.1,0.6,0,0.7-0.2c0-0.1,0-0.2-0.1-0.3
								c-0.1-0.1-0.2-0.2-0.4-0.3C44.5,33.1,44.5,33.1,44.4,33.1z"/>
						</g>
					</g>
					<g>
						<g>
							<path class="st1" d="M46.4,34.5c-0.1,0-0.2,0-0.2,0c-0.3-0.1-0.5-0.4-0.4-0.6c0.1-0.2,0.4-0.3,0.7-0.2
								c0.3,0.1,0.5,0.4,0.4,0.6l0,0c0,0.1-0.1,0.2-0.3,0.2C46.5,34.5,46.4,34.5,46.4,34.5z M46.2,33.8c-0.2,0-0.3,0.1-0.3,0.2
								c-0.1,0.2,0.1,0.4,0.3,0.4c0.1,0,0.2,0,0.3,0c0.1,0,0.2-0.1,0.2-0.2c0.1-0.2-0.1-0.4-0.3-0.4C46.3,33.8,46.2,33.8,46.2,33.8z
								 M46.7,34.3L46.7,34.3L46.7,34.3z"/>
						</g>
					</g>
					<g>
						<g>
							<path class="st1" d="M45.3,34.2C45.3,34.2,45.3,34.2,45.3,34.2C45.3,34.2,45.3,34.1,45.3,34.2l0.6-1.9c0,0,0,0,0.1,0
								c0,0,0,0,0,0.1L45.3,34.2C45.4,34.2,45.3,34.2,45.3,34.2z"/>
						</g>
					</g>
					<g>
						<g>
							<path class="st1" d="M47,33.7C47,33.7,47,33.7,47,33.7l-2.7-1c0,0,0,0,0-0.1c0,0,0,0,0.1,0L47,33.7
								C47.1,33.6,47.1,33.7,47,33.7C47,33.7,47,33.7,47,33.7z"/>
						</g>
					</g>
				</g>
			</g>
			<g>
				<g>
					<path class="st11" d="M54.5,69c-0.2,0-0.4-0.1-0.6-0.2l-4.2-3.3c-0.3-0.2-0.7-0.2-1,0l-4,3.1c-0.4,0.3-1,0.3-1.3-0.2
						c-0.3-0.4-0.3-1,0.2-1.3l4-3.1c1-0.8,2.4-0.8,3.4,0l4.2,3.3c0.4,0.3,0.5,0.9,0.2,1.3C55,68.9,54.7,69,54.5,69z"/>
					<path class="st1" d="M54.5,69.4c-0.3,0-0.6-0.1-0.8-0.3l-4.2-3.3c-0.2-0.1-0.4-0.1-0.6,0l-4,3.1c-0.3,0.2-0.6,0.3-1,0.3
						c-0.3,0-0.7-0.2-0.9-0.5c-0.2-0.3-0.3-0.6-0.3-1c0-0.3,0.2-0.7,0.5-0.9l4-3.1c1.1-0.9,2.7-0.9,3.8,0l4.2,3.3
						c0.6,0.4,0.7,1.3,0.2,1.8C55.2,69.2,54.9,69.4,54.5,69.4z M49.1,65c0.3,0,0.5,0.1,0.7,0.3l4.2,3.3c0.3,0.2,0.6,0.1,0.8-0.1
						c0.2-0.3,0.2-0.6-0.1-0.8l-4.2-3.3c-0.9-0.7-2.1-0.7-2.9,0l-4,3.1c-0.1,0.1-0.2,0.2-0.2,0.4s0,0.3,0.1,0.4
						c0.1,0.1,0.2,0.2,0.4,0.2c0.2,0,0.3,0,0.4-0.1l4-3.1C48.6,65.1,48.9,65,49.1,65z"/>
				</g>
			</g>
		</g>
		<g>
			<g>
				<g>
					<path class="st12" d="M66.3,34.8c0.1-0.3,0.1-0.5,0.1-0.8c0-1.8-1.5-3.3-3.4-3.3c-0.9,0-1.7,0.3-2.3,0.9c0-1.2-0.5-2.3-1.2-3.1
						c2.1-0.2,3.8-1.9,3.8-4c0-2.2-1.9-4-4.2-4c-1.2,0-2.4,0.5-3.1,1.3c-0.4-1.2-1.4-2-2.6-2c-1.6,0-2.8,1.5-2.8,3.3
						c0,0.4,0.1,0.8,0.2,1.1c-1.5,0.3-2.5,1.3-2.5,2.5c-0.1,0.1-0.2,0.2-0.3,0.3c-0.2-0.2-0.4-0.3-0.6-0.4c0.4-0.6,0.6-1.2,0.6-2
						c0-1.9-1.6-3.5-3.7-3.5c-2,0-3.7,1.6-3.7,3.5c0,1,0.4,1.9,1.1,2.5c-0.2,0.2-0.3,0.3-0.5,0.5c-0.4-0.1-0.8-0.2-1.3-0.2
						c-2.2,0-4.1,1.4-4.1,3c0,1.6,1.7,2.9,3.8,3c-0.4,0.6-0.7,1.4-0.7,2.2c0,1.9,1.4,3.5,3.2,4c0,0,0,0.1,0,0.1
						c-0.7-0.1-1.5-0.2-2.3-0.2c-0.9,0-1.7,0.1-2.5,0.3c-0.6-0.2-1.2-0.4-1.9-0.5c0.4-0.4,0.6-1,0.6-1.6c0-1.3-1.1-2.4-2.5-2.4
						c-0.4,0-0.7,0.1-1,0.2c-0.6-1.3-1.7-2.2-2.9-2.2c-1.9,0-3.4,2.1-3.4,4.7c0,2,0.9,3.7,2.2,4.4c-0.1,0.3-0.1,0.6-0.1,0.8
						c0,2.3,2.7,4.1,6,4.1c0.3,0,0.6,0,0.9,0c1.2,0.6,2.6,1,4.3,1.1c0.1,0.2,0.2,0.4,0.4,0.6c-0.5,0.6-0.8,1.3-0.8,2.1
						c0,1.9,1.6,3.4,3.6,3.4c0.2,0,0.4,0,0.6-0.1c0,1.8,1.3,3.3,2.8,3.3c0.9,0,1.7-0.5,2.2-1.2c0.4,0.3,0.8,0.5,1.3,0.6
						c0.6,0.4,1.4,0.6,2.2,0.6c2.1,0,3.7-1.3,3.7-2.8c0-0.5-0.2-0.9-0.4-1.2c0.1-0.1,0.3-0.2,0.4-0.3c0.9,0.7,2.1,1.1,3.4,1.1
						c2.6,0,4.7-1.5,4.7-3.5c0-1.2-0.9-2.3-2.2-2.9c0.8-1,1.3-2.3,1.3-3.8c0-0.7-0.1-1.3-0.3-1.9c0.7,0.2,1.4,0.3,2.2,0.3
						c3.1,0,5.7-1.8,5.7-4.1C70.2,36.8,68.6,35.3,66.3,34.8z"/>
					<path class="st1" d="M45.9,58.3c-1.6,0-3-1.4-3.2-3.2c-0.1,0-0.2,0-0.2,0c-2.2,0-4-1.7-4-3.8c0-0.8,0.2-1.5,0.7-2.1
						c0-0.1-0.1-0.2-0.1-0.2c-1.5-0.1-2.9-0.5-4.1-1.1c-0.3,0-0.5,0-0.8,0c-3.5,0-6.3-2-6.3-4.5c0-0.2,0-0.5,0.1-0.7
						c-1.3-0.9-2.1-2.6-2.1-4.6c0-2.8,1.7-5.1,3.8-5.1c1.2,0,2.4,0.8,3.1,2.1C33,35,33.2,35,33.5,35c1.6,0,2.9,1.2,2.9,2.8
						c0,0.5-0.1,0.9-0.4,1.3c0.4,0.1,0.9,0.2,1.3,0.4c1-0.2,2-0.3,3-0.3c-1.1-0.8-1.8-2.1-1.8-3.5c0-0.7,0.2-1.3,0.5-1.9
						c-2.1-0.3-3.6-1.7-3.6-3.3c0-1.9,2-3.4,4.4-3.4c0.4,0,0.8,0,1.2,0.1c0,0,0.1-0.1,0.1-0.1c-0.6-0.7-1-1.6-1-2.5
						c0-2.1,1.8-3.8,4-3.8c2.2,0,4,1.7,4,3.8c0,0.4-0.1,0.7-0.2,1.1c0.4-0.8,1.2-1.4,2.2-1.7c-0.1-0.3-0.1-0.6-0.1-0.8
						c0-2,1.4-3.7,3.2-3.7c1.1,0,2.2,0.7,2.7,1.8c0.8-0.7,1.9-1.1,3-1.1c2.5,0,4.6,2,4.6,4.4c0,2.1-1.5,3.8-3.5,4.2
						c0.5,0.7,0.8,1.4,0.9,2.2c0.6-0.4,1.3-0.6,2-0.6c2.1,0,3.8,1.6,3.8,3.6c0,0.2,0,0.4-0.1,0.6c2.3,0.7,3.8,2.3,3.8,4.2
						c0,2.5-2.7,4.5-6.1,4.5c-0.6,0-1.2-0.1-1.7-0.2c0.1,0.5,0.2,1,0.2,1.4c0,1.3-0.4,2.6-1.1,3.7c1.3,0.7,2,1.8,2,3
						c0,2.1-2.2,3.8-5,3.8c-1.2,0-2.4-0.3-3.3-0.9c0.1,0.3,0.2,0.7,0.2,1c0,1.8-1.8,3.2-4.1,3.2c-0.8,0-1.7-0.2-2.4-0.6
						c-0.4-0.1-0.8-0.2-1.1-0.4C47.6,57.9,46.8,58.3,45.9,58.3z M43.4,54.2l0,0.4c0,1.6,1.1,2.9,2.5,2.9c0.7,0,1.4-0.4,1.9-1.1
						l0.2-0.3l0.3,0.2c0.4,0.2,0.8,0.4,1.2,0.5l0.1,0c0.6,0.3,1.3,0.5,2,0.5c1.9,0,3.4-1.1,3.4-2.5c0-0.4-0.1-0.7-0.3-1.1l-0.2-0.3
						l0.3-0.2c0.1-0.1,0.2-0.2,0.3-0.3l0.2-0.2l0.2,0.2c0.8,0.7,2,1.1,3.2,1.1c2.4,0,4.3-1.4,4.3-3.1c0-1-0.7-2-2-2.6l-0.4-0.2
						L61,48c0.8-1,1.2-2.3,1.2-3.6c0-0.6-0.1-1.2-0.3-1.8l-0.2-0.6l0.6,0.2c0.7,0.2,1.4,0.3,2.1,0.3c2.9,0,5.3-1.7,5.3-3.8
						c0-1.6-1.5-3-3.6-3.6L65.9,35l0.1-0.4c0.1-0.3,0.1-0.5,0.1-0.7c0-1.6-1.4-2.9-3.1-2.9c-0.8,0-1.5,0.3-2.1,0.8l-0.6,0.5l0-0.7
						c0-1-0.4-2.1-1.2-2.9l-0.5-0.5l0.7-0.1c2-0.2,3.5-1.7,3.5-3.6c0-2-1.7-3.7-3.9-3.7c-1.1,0-2.1,0.4-2.9,1.2l-0.4,0.4l-0.2-0.5
						c-0.4-1.1-1.3-1.8-2.3-1.8c-1.4,0-2.5,1.3-2.5,3c0,0.3,0.1,0.6,0.2,1l0.1,0.4l-0.4,0.1c-1.3,0.3-2.3,1.1-2.3,2.1l0,0.2
						l-0.1,0.1c-0.1,0.1-0.2,0.2-0.3,0.3l-0.2,0.3l-0.3-0.2c-0.2-0.2-0.4-0.3-0.6-0.4l-0.3-0.2l0.2-0.3c0.4-0.5,0.6-1.1,0.6-1.8
						c0-1.7-1.5-3.1-3.3-3.1s-3.3,1.4-3.3,3.1c0,0.9,0.4,1.6,1,2.2l0.3,0.3l-0.3,0.3c-0.2,0.1-0.3,0.3-0.4,0.4l-0.1,0.2L41,27.9
						c-0.4-0.1-0.8-0.2-1.2-0.2c-2,0-3.7,1.2-3.7,2.7c0,1.4,1.5,2.6,3.5,2.7l0.6,0l-0.4,0.5c-0.4,0.6-0.6,1.3-0.6,2
						c0,1.7,1.2,3.2,3,3.6l0.3,0.1l-0.1,0.3c0,0,0,0,0,0.1l-0.1,0.4L42,40.1c-1.5-0.3-3.1-0.3-4.7,0.1l-0.1,0l-0.1,0
						c-0.6-0.2-1.2-0.4-1.8-0.5l-0.7-0.1l0.5-0.5c0.3-0.4,0.5-0.8,0.5-1.3c0-1.1-1-2-2.2-2c-0.3,0-0.6,0.1-0.9,0.2L32.3,36l-0.1-0.3
						c-0.6-1.2-1.5-2-2.6-2c-1.7,0-3.1,2-3.1,4.4c0,1.8,0.8,3.4,2,4.1l0.3,0.1l-0.1,0.3c-0.1,0.2-0.1,0.5-0.1,0.7
						c0,2.1,2.5,3.8,5.6,3.8c0.2,0,0.5,0,0.8,0l0.1,0l0.1,0.1c1.2,0.6,2.6,1,4.1,1.1l0.2,0l0.1,0.2c0.1,0.2,0.2,0.4,0.3,0.5l0.2,0.2
						l-0.2,0.2c-0.5,0.6-0.7,1.2-0.7,1.9c0,1.7,1.5,3.1,3.3,3.1c0.2,0,0.3,0,0.5-0.1L43.4,54.2z M47.6,26.4c0,0,0.1,0,0.1,0.1
						c0,0,0,0,0,0c0-0.1,0-0.3,0.1-0.4C47.7,26.1,47.7,26.3,47.6,26.4z"/>
				</g>
				<g>
					<path class="st13" d="M56,41.3c0-0.9-0.4-1.7-1-2.3c0.2-0.3,0.4-0.6,0.4-0.9c0-0.6-0.4-1.1-1.1-1.4c1-0.3,1.6-0.8,1.6-1.4
						c0-1-1.7-1.7-3.9-1.7c0,0-0.1,0-0.1,0c0.3-0.4,0.5-0.9,0.5-1.4c0-1.3-1.1-2.4-2.5-2.4c-0.5,0-1,0.1-1.4,0.4
						c-0.4-0.2-0.8-0.4-1.3-0.4c-1.2,0-2.2,0.9-2.2,2.1c0,0.6,0.3,1.2,0.7,1.6c-0.2,0.4-0.3,0.9-0.3,1.4c0,0.9,0.4,1.6,0.9,2.1
						c0,0.1-0.1,0.2-0.1,0.3C44.9,37.7,44,39,44,40.4c0,0.9,0.3,1.7,0.9,2.3c-0.2,0.4-0.2,0.9-0.2,1.3c0,1,0.4,2,1,2.6
						c-0.4,0.5-0.6,1.2-0.6,2c0,1.8,1.3,3.3,2.8,3.3c1.6,0,2.8-1.5,2.8-3.3c0-0.1,0-0.2,0-0.3c0.3,0.3,0.6,0.5,1,0.5
						c1.1,0,2-1.5,2-3.4c0-0.4,0-0.7-0.1-1C55,44,56,42.8,56,41.3z"/>
				</g>
			</g>
			<g>
				<path class="st12" d="M42.4,23.6c-0.2-0.4-0.4-0.7-0.8-0.9c-1.5-1.2-4.1-0.4-5.7,1.8c-1.6,2.1-1.7,4.7-0.2,5.9
					c-1,1.9-0.5,4.3,1.3,5.6c2,1.5,4.8,1.1,6.3-0.9c0,0,0,0,0,0c0,0,0,0,0.1,0.1c1.6,1.2,3.9,0.7,5.3-1.1c1.3-1.8,1.1-4.2-0.4-5.4
					c-0.3-0.3-0.7-0.4-1.1-0.5c0.1-0.2,0.3-0.3,0.4-0.5c1.8-2.4,2.1-5.3,0.7-6.3C46.7,20.3,44.2,21.3,42.4,23.6z"/>
				<path class="st1" d="M39.7,37.2c-1,0-2-0.3-2.9-1c-1.8-1.4-2.4-3.8-1.5-5.8c-1.4-1.4-1.2-4.1,0.4-6.2c0.8-1.1,1.9-1.9,3.1-2.2
					c1.2-0.4,2.3-0.2,3.2,0.4c0.2,0.2,0.4,0.4,0.6,0.6c1.9-2.2,4.4-3,5.9-1.9c1.6,1.2,1.3,4.2-0.6,6.8c0,0,0,0.1-0.1,0.1
					c0.3,0.1,0.5,0.3,0.7,0.4c0.8,0.6,1.4,1.6,1.4,2.7c0.1,1.1-0.2,2.2-0.9,3.1c-1.4,1.9-3.8,2.4-5.6,1.3
					C42.4,36.6,41,37.2,39.7,37.2z M39.9,22.5c-0.3,0-0.7,0.1-1,0.2c-1,0.3-2,1-2.7,2c-1.4,1.9-1.6,4.3-0.3,5.4l0.2,0.2L36,30.5
					c-0.9,1.8-0.4,4,1.2,5.2c1.8,1.4,4.4,1,5.8-0.8l0.2-0.3l0.3,0.3c1.4,1.1,3.6,0.6,4.8-1c0.6-0.8,0.9-1.7,0.8-2.7
					c-0.1-0.9-0.5-1.7-1.2-2.2c-0.3-0.2-0.6-0.4-1-0.5l-0.5-0.1l0.4-0.4c0.1-0.1,0.2-0.3,0.4-0.5c1.7-2.2,2-4.9,0.8-5.8
					c-1.2-0.9-3.6,0.1-5.3,2.2l-0.3,0.4l-0.3-0.5c-0.2-0.3-0.4-0.6-0.6-0.8C41,22.6,40.5,22.5,39.9,22.5z"/>
			</g>
			<g>
				<g>
					<g>
						<path class="st14" d="M61.9,25.6c-0.6,0.5-1.1,1.1-1.7,2c0,0-0.9-0.1-1.3-1.6c0,0,1.6-0.9,2.8-3c0.9-1.7,1.2-3.7,0.8-5.7
							c-0.1-0.6-0.2-1.3-0.4-2c-0.3-1.7,0.1-3.4,0.1-3.4l0.9-1.7c0,0-1.5,0.5-2.1,0.4c-0.6,0-1.5-0.1-1.5-0.1S59,13.5,59.3,16
							c0.2,2.5-2.4,2.8-2.4,2.8l-0.7-9l-3.8-0.2c-2.2-0.1-4.4,0-6.6,0.3l-2.4,0.4L42.8,20c-0.1,2.1-0.8,4.2-2,6c0,0,0,0.1-0.1,0.1
							c-0.3,0.5-0.7,1-1.1,1.4c-1.1,1.2-4.1,4.7-3.6,8.6c0.6,4.7,4.2,6.9,4.2,6.9s3.2,2.5,8.7,2.7c5.5,0.3,10-2.2,10-2.2l3.2-1.8
							c2.7-1.5,5-3.5,6.8-6.1c0.7-1.1,1.4-2.3,1.9-3.6c0.6-1.5,0.5-2.8,0.2-3.8C69.8,24.4,65,23,61.9,25.6z M65.9,35.9
							c-0.6,0.6-1.3,1.1-2,1.5c-0.4,0.2-0.9-0.2-0.8-0.7c0.2-1,0.3-2.5-0.3-4l-0.6-1.7c-0.3-0.9-0.3-1.9,0.1-2.7
							c0.5-0.9,1.5-1.9,3.8-1.9c2.2,0,2.7,1.7,2.7,3.4C68.7,32.1,67.6,34.2,65.9,35.9z"/>
						<path class="st1" d="M49.7,46c-0.3,0-0.6,0-0.8,0c-5.4-0.2-8.6-2.6-8.9-2.8c-0.3-0.2-3.7-2.4-4.3-7.1
							c-0.5-3.9,2.4-7.5,3.7-8.9c0.4-0.5,0.8-0.9,1.1-1.4l0.1-0.1c1.1-1.7,1.8-3.7,1.9-5.8l0.6-9.9l2.7-0.4c2.2-0.3,4.4-0.5,6.7-0.3
							l4.1,0.2l0.7,8.9c0.6-0.2,1.9-0.7,1.7-2.4c-0.2-2.5,0.3-5.4,0.3-5.6l0.1-0.3l0.3,0c0,0,0.9,0,1.5,0.1c0.4,0,1.4-0.2,2-0.4
							l0.8-0.2L62.6,12c-0.1,0.3-0.4,1.7-0.1,3.2c0.1,0.7,0.3,1.4,0.4,2c0.4,2.1,0,4.2-0.9,5.9c-0.9,1.7-2.1,2.7-2.7,3
							c0.2,0.7,0.6,0.9,0.8,1.1c0.5-0.7,1-1.3,1.6-1.8h0c1.5-1.3,3.6-1.8,5.6-1.2c1.9,0.6,3.4,2,4,3.9c0.4,1.2,0.3,2.6-0.3,4
							c-0.5,1.2-1.1,2.5-1.9,3.7c-1.7,2.5-4.1,4.6-6.9,6.2L59,43.8C58.9,43.9,54.8,46,49.7,46z M43.7,10.7L43.1,20
							c-0.1,2.3-0.9,4.4-2.1,6.2L41,26.3c-0.3,0.5-0.7,1-1.2,1.5c-0.9,1-4,4.6-3.5,8.3c0.6,4.4,4,6.6,4,6.6l0,0c0,0,3.2,2.4,8.5,2.7
							c5.4,0.2,9.8-2.1,9.8-2.1l3.2-1.8c2.7-1.5,5-3.6,6.6-6c0.8-1.1,1.4-2.3,1.8-3.5c0.5-1.3,0.6-2.5,0.2-3.6
							c-0.5-1.7-1.8-3-3.5-3.5c-1.7-0.5-3.6-0.1-5,1c-0.6,0.5-1.1,1.1-1.6,1.9L60.5,28l-0.2,0c0,0-1.1-0.1-1.6-1.9l-0.1-0.3l0.3-0.1
							c0,0,1.5-0.8,2.6-2.9c0.9-1.6,1.1-3.5,0.8-5.4c-0.1-0.6-0.2-1.3-0.4-2c-0.4-1.8,0.1-3.5,0.1-3.6l0-0.1l0.5-0.9
							C62,10.9,61.4,11,61.1,11c-0.4,0-0.9,0-1.2-0.1c-0.1,0.8-0.4,3.1-0.3,5.1c0.2,2.3-1.7,3.1-2.7,3.2l-0.4,0l-0.7-9.1L52.4,10
							c-2.2-0.1-4.4,0-6.5,0.3L43.7,10.7z M63.7,37.7c-0.2,0-0.4-0.1-0.6-0.2c-0.3-0.2-0.4-0.6-0.4-0.9c0.2-1,0.3-2.4-0.2-3.8
							L61.9,31c-0.4-1-0.3-2.1,0.1-3c0.5-0.9,1.6-2.1,4.1-2.1c0,0,0,0,0,0c0.9,0,1.6,0.3,2.2,0.8c0.6,0.6,0.9,1.7,0.8,3
							c-0.1,2.3-1.1,4.6-3,6.3c-0.7,0.7-1.4,1.2-2.1,1.5C63.9,37.7,63.8,37.7,63.7,37.7z M66.1,26.7C66.1,26.7,66.1,26.7,66.1,26.7
							c-1.7,0-2.9,0.6-3.5,1.7c-0.4,0.7-0.4,1.6-0.1,2.4l0.6,1.7c0.6,1.6,0.5,3.2,0.3,4.2c0,0.1,0.1,0.2,0.1,0.3c0,0,0.1,0.1,0.2,0
							c0.6-0.3,1.2-0.7,1.9-1.4l0.2,0.3l-0.2-0.3c1.7-1.6,2.6-3.7,2.7-5.9c0-1.1-0.2-2-0.6-2.5C67.4,26.9,66.8,26.7,66.1,26.7z"/>
					</g>
					<g>
						<g>
							<path class="st14" d="M51.9,4.8c0,0,2.4,0.7,3.4,1.1c1.2,0.6,1.8,0.8,1.8,3.5c0,0,0.9,1.4-0.4,1.8c0,0-6.8-1.1-13.3,0
								c0,0-1.8-0.1-0.8-1.5c0,0,0.3-3.2,2.1-4c0,0,2.4-0.9,3.3-0.9l0.2-0.8c0,0-1.6-1.6,0.6-2.1c2.2-0.4,4,0.4,2.8,1.7L51.9,4.8z"
								/>
							<path class="st1" d="M56.7,11.6L56.7,11.6c-0.1,0-6.9-1.1-13.3,0l0,0l0,0c-0.1,0-1-0.1-1.3-0.7c-0.2-0.4-0.1-0.8,0.2-1.3
								c0.1-0.6,0.5-3.4,2.3-4.2c0.2-0.1,2.1-0.8,3.1-0.9l0.1-0.3c-0.2-0.3-0.7-0.9-0.5-1.6c0.2-0.5,0.6-0.8,1.4-1
								c1.6-0.3,3.1,0,3.5,0.8c0.1,0.2,0.3,0.7-0.2,1.3l0.2,0.8c0.6,0.2,2.4,0.7,3.3,1.1l0,0c1.3,0.6,1.9,1,1.9,3.7
								c0.1,0.2,0.5,0.9,0.3,1.4C57.6,11.1,57.4,11.4,56.7,11.6L56.7,11.6z M48.1,5.2c-0.7,0-2.5,0.6-3.2,0.9
								C43.3,6.8,43,9.7,43,9.8l0,0.1l-0.1,0.1c-0.2,0.3-0.3,0.5-0.2,0.7c0.1,0.2,0.4,0.3,0.7,0.3c6.1-1.1,12.5-0.1,13.3,0
								c0.3-0.1,0.3-0.2,0.4-0.3c0.1-0.3-0.1-0.8-0.2-0.9l-0.1-0.1l0-0.1c0-2.5-0.4-2.7-1.5-3.2l0,0c-1-0.4-3.3-1.1-3.3-1.1
								l-0.2-0.1l-0.4-1.5l0.1-0.1c0.2-0.2,0.4-0.5,0.2-0.7c-0.2-0.4-1.3-0.7-2.7-0.4c-0.5,0.1-0.8,0.3-0.9,0.5
								c-0.1,0.3,0.3,0.8,0.4,1L48.6,4l-0.2,1.2H48.1z"/>
						</g>
						<g>
							<path class="st14" d="M54.4,9.1c0.9,0.1,1.8,0.2,2.7,0.4"/>
							<path class="st1" d="M57.1,9.8C57.1,9.8,57.1,9.8,57.1,9.8c-1-0.2-1.9-0.3-2.8-0.4C54.2,9.4,54,9.2,54,9
								c0-0.2,0.2-0.3,0.4-0.3c0.9,0.1,1.8,0.2,2.7,0.4c0.2,0,0.3,0.2,0.3,0.4C57.4,9.7,57.3,9.8,57.1,9.8z"/>
						</g>
						<g>
							<path class="st14" d="M48.8,8.8c0.9,0,2,0,3.1,0.1"/>
							<path class="st1" d="M51.9,9.2C51.9,9.2,51.9,9.2,51.9,9.2c-1.1-0.1-2.1-0.1-3.1-0.1c-0.2,0-0.4-0.1-0.4-0.3
								c0-0.2,0.1-0.4,0.3-0.4c1,0,2.1,0,3.1,0.1c0.2,0,0.3,0.2,0.3,0.4C52.3,9.1,52.1,9.2,51.9,9.2z"/>
						</g>
						<g>
							<path class="st14" d="M42.6,9.7c0,0,0.6-0.2,1.7-0.5"/>
							<path class="st1" d="M42.6,10.1c-0.1,0-0.3-0.1-0.3-0.2c-0.1-0.2,0-0.4,0.2-0.5c0,0,0.6-0.2,1.8-0.5c0.2,0,0.4,0.1,0.4,0.3
								c0,0.2-0.1,0.4-0.3,0.4c-1.1,0.2-1.6,0.4-1.6,0.4C42.7,10.1,42.7,10.1,42.6,10.1z"/>
						</g>
					</g>
				</g>
				<g>
					<path class="st15" d="M51.1,6.9C51.1,6.9,51,6.9,51.1,6.9c-1.3-0.4-2.4,0-2.4,0c-0.2,0.1-0.4,0-0.4-0.2c-0.1-0.2,0-0.4,0.2-0.4
						c0.1,0,1.3-0.4,2.7,0c0.2,0.1,0.3,0.2,0.2,0.4C51.4,6.8,51.2,6.9,51.1,6.9z"/>
				</g>
				<g>
					<path class="st15" d="M46.6,20.6C46.6,20.6,46.5,20.6,46.6,20.6c-0.2,0-0.4-0.2-0.4-0.4l0.1-2.3c0-0.2,0.2-0.3,0.4-0.3
						c0.2,0,0.3,0.2,0.3,0.4l-0.1,2.3C46.9,20.5,46.7,20.6,46.6,20.6z"/>
				</g>
				<g>
					<path class="st15" d="M46.8,16.5C46.8,16.5,46.8,16.5,46.8,16.5c-0.2,0-0.4-0.2-0.4-0.4l0.1-1.7c0-0.2,0.2-0.3,0.4-0.3
						c0.2,0,0.3,0.2,0.3,0.4l-0.1,1.7C47.2,16.3,47,16.5,46.8,16.5z"/>
				</g>
				<g>
					<path class="st15" d="M60.8,14.8c-0.2,0-0.3-0.1-0.4-0.3c-0.1-0.8,0-1.5,0.1-2.1c0-0.2,0.2-0.3,0.4-0.3c0.2,0,0.3,0.2,0.3,0.4
						c-0.1,0.4-0.1,1.1-0.1,1.8C61.2,14.6,61,14.8,60.8,14.8C60.8,14.8,60.8,14.8,60.8,14.8z"/>
				</g>
				<g>
					<path class="st15" d="M58.6,23.9c-0.1,0-0.2-0.1-0.3-0.2c-0.1-0.2-0.1-0.4,0.1-0.5l0,0c0,0,1-0.7,1.7-2.2
						c0.1-0.2,0.3-0.2,0.5-0.2c0.2,0.1,0.2,0.3,0.2,0.5c-0.8,1.6-1.9,2.4-2,2.4C58.7,23.9,58.6,23.9,58.6,23.9z"/>
				</g>
				<g>
					<ellipse transform="matrix(0.2499 -0.9683 0.9683 0.2499 0.8977 69.1382)" class="st16" cx="45.1" cy="34" rx="5.3" ry="3.8"/>
				</g>
				<g>
					<ellipse transform="matrix(0.2499 -0.9683 0.9683 0.2499 0.8977 69.1382)" class="st17" cx="45.1" cy="34" rx="3.9" ry="2.7"/>
				</g>
			</g>
			<g>
				<path class="st12" d="M75.3,33.8c0.5-0.9,0.6-1.9,0.3-2.8c0.5-0.3,0.9-0.8,1.2-1.3c1-1.8,0.3-4-1.5-5c-1.6-0.9-3.5-0.4-4.6,0.9
					c-0.3-0.3-0.6-0.6-1-0.9c-1.6-0.9-3.7-0.3-4.6,1.3c-0.9,1.6-0.3,3.7,1.3,4.6c0.3,0.2,0.6,0.3,1,0.4c-0.4,0.3-0.8,0.7-1.1,1.2
					c-0.9,1.6-0.3,3.5,1.3,4.4c1.4,0.8,3.1,0.4,4.1-0.8C73.1,35.8,74.6,35.1,75.3,33.8z"/>
				<path class="st1" d="M69.2,37.3c-0.6,0-1.2-0.1-1.7-0.4c-1.7-1-2.4-3.1-1.4-4.9c0.2-0.3,0.4-0.6,0.7-0.9
					c-0.1-0.1-0.3-0.1-0.4-0.2c-1.8-1-2.5-3.3-1.5-5.1c0.5-0.9,1.3-1.5,2.2-1.8c1-0.3,2-0.2,2.9,0.3c0.3,0.2,0.6,0.4,0.9,0.6
					c1.3-1.3,3.2-1.6,4.8-0.7c0.9,0.5,1.6,1.4,1.9,2.4c0.3,1,0.2,2.1-0.3,3.1c-0.3,0.5-0.7,1-1.2,1.3c0.2,1,0.1,2-0.4,2.9l0,0
					c-0.7,1.4-2.2,2.2-3.7,2.1C71.2,36.9,70.2,37.3,69.2,37.3z M68.1,24.6c-0.3,0-0.6,0-0.9,0.1c-0.8,0.2-1.4,0.7-1.8,1.5
					c-0.8,1.5-0.3,3.3,1.2,4.1c0.3,0.1,0.6,0.3,0.9,0.3l0.9,0.2l-0.7,0.5c-0.4,0.3-0.7,0.6-1,1c-0.8,1.4-0.3,3.1,1.1,3.9
					c1.2,0.7,2.8,0.4,3.6-0.7l0.1-0.2l0.2,0c1.3,0.1,2.6-0.6,3.2-1.7c0.4-0.8,0.5-1.7,0.3-2.6l-0.1-0.3l0.2-0.1
					c0.5-0.3,0.9-0.7,1.1-1.2c0.4-0.8,0.5-1.7,0.3-2.5c-0.2-0.9-0.8-1.6-1.6-2c-1.4-0.8-3.2-0.4-4.2,0.8l-0.3,0.3l-0.3-0.3
					c-0.3-0.3-0.6-0.6-0.9-0.8C69.1,24.7,68.6,24.6,68.1,24.6z M75.3,33.8L75.3,33.8L75.3,33.8z"/>
			</g>
			<g>
				<path class="st12" d="M30,25.3c0.8-1.3,0-3.3-1.8-4.3c-1.8-1-3.9-0.8-4.6,0.5c-0.1,0.1-0.1,0.2-0.2,0.4c-0.3-0.3-0.6-0.6-1-0.8
					c-1.6-1-3.5-0.8-4.2,0.4c-0.6,1.1-0.1,2.6,1.2,3.6c-0.9,1.7-0.6,3.7,0.7,4.5c1.4,0.8,3.3,0,4.4-1.8c0.4-0.7,0.6-1.4,0.6-2
					c0.1,0,0.1,0.1,0.2,0.1C27.2,26.8,29.3,26.6,30,25.3z"/>
				<path class="st1" d="M21.3,30.1c-0.5,0-1-0.1-1.4-0.4c-1.4-0.8-1.8-2.8-1-4.7c-1.3-1.1-1.8-2.7-1.1-3.8c0.4-0.7,1.1-1.1,2-1.2
					c0.9-0.1,1.8,0.1,2.7,0.6c0.3,0.2,0.5,0.3,0.7,0.5c0.4-0.7,1.2-1.2,2.2-1.3c1-0.1,2,0.1,2.9,0.7c1.9,1.1,2.8,3.3,1.9,4.8l0,0
					c-0.4,0.7-1.2,1.2-2.2,1.3c-0.9,0.1-1.8-0.1-2.7-0.5c-0.1,0.6-0.3,1.1-0.6,1.6c-0.6,0.9-1.4,1.7-2.3,2
					C22.2,30,21.8,30.1,21.3,30.1z M20.3,20.8c-0.1,0-0.2,0-0.3,0c-0.7,0.1-1.2,0.4-1.5,0.8c-0.5,0.9,0,2.2,1.1,3.1l0.2,0.2
					l-0.1,0.3c-0.8,1.6-0.6,3.3,0.6,4c0.6,0.3,1.3,0.4,2,0.1c0.8-0.3,1.4-0.9,1.9-1.7c0.3-0.6,0.6-1.2,0.6-1.9l0-0.6l0.5,0.4
					c0,0,0.1,0.1,0.1,0.1c0.8,0.5,1.7,0.7,2.5,0.6c0.8-0.1,1.4-0.4,1.7-1l0,0c0.7-1.2-0.1-2.9-1.7-3.8c-0.8-0.5-1.7-0.7-2.5-0.6
					c-0.8,0.1-1.4,0.4-1.7,1c0,0.1-0.1,0.2-0.1,0.3l-0.2,0.5l-0.4-0.4c-0.3-0.3-0.6-0.5-0.9-0.8C21.6,21,21,20.8,20.3,20.8z"/>
			</g>
			<g>
				<path class="st12" d="M73.2,12.7c0-1.1-0.9-1.9-1.9-1.9c-0.1,0-0.2,0-0.2,0c-0.1-0.6-0.4-1.1-0.7-1.1c-0.4,0-0.7,0.7-0.7,1.6
					c0,0.1,0,0.2,0,0.4c-0.1,0.1-0.1,0.3-0.2,0.4c-0.2-0.1-0.3-0.1-0.5-0.1c-0.9,0-1.5,0.7-1.5,1.5c0,0.9,0.7,1.5,1.5,1.5
					c0.6,0,1.1-0.3,1.4-0.8c0.2,0.6,0.8,1,1.4,1c0.8,0,1.5-0.7,1.5-1.5c0-0.2,0-0.4-0.1-0.5C73.1,13.1,73.2,12.9,73.2,12.7z"/>
				<path class="st1" d="M71.7,15.7c-0.6,0-1.1-0.3-1.4-0.7c-0.3,0.3-0.8,0.5-1.3,0.5c-1,0-1.9-0.9-1.9-1.9c0-1,0.8-1.9,1.9-1.9
					c0.1,0,0.2,0,0.3,0c0,0,0-0.1,0-0.1c0-0.1,0-0.2,0-0.3c0-1,0.4-2,1.1-2c0.4,0,0.8,0.4,1,1.1c1.2,0,2.2,1,2.2,2.3
					c0,0.2,0,0.4-0.1,0.6c0.1,0.2,0.1,0.4,0.1,0.5C73.5,14.8,72.7,15.7,71.7,15.7z M70.3,13.4l0.3,0.8c0.2,0.5,0.6,0.8,1.1,0.8
					c0.6,0,1.1-0.5,1.1-1.1c0-0.1,0-0.3-0.1-0.4l0-0.1l0-0.1c0.1-0.2,0.1-0.3,0.1-0.5c0-0.9-0.7-1.5-1.5-1.5c0,0-0.1,0-0.1,0
					l-0.4,0.1l-0.1-0.3c-0.1-0.5-0.3-0.8-0.3-0.8c-0.1,0-0.4,0.5-0.4,1.3c0,0.1,0,0.2,0,0.3l0,0.2l-0.1,0.1
					c-0.1,0.1-0.1,0.2-0.2,0.4l-0.1,0.4l-0.4-0.1c-0.8-0.3-1.6,0.3-1.6,1.1c0,0.7,0.5,1.2,1.2,1.2c0.4,0,0.8-0.2,1-0.6L70.3,13.4z"
					/>
			</g>
			<g>
				<path class="st12" d="M40.3,16.2c0-1.2-1-2.3-2.3-2.3c-1.2,0-2.3,1-2.3,2.3c0,0.4,0.1,0.8,0.3,1.2c-0.5,0.3-0.8,0.8-0.8,1.3
					c0,0.9,0.9,1.7,2.1,1.7c1.1,0,2.1-0.7,2.1-1.7c0-0.2-0.1-0.4-0.2-0.6C39.8,17.7,40.3,17,40.3,16.2z"/>
				<path class="st1" d="M37.3,20.8c-1.3,0-2.4-0.9-2.4-2c0-0.5,0.3-1.1,0.7-1.4c-0.2-0.3-0.2-0.7-0.2-1.1c0-1.4,1.2-2.6,2.6-2.6
					c1.4,0,2.6,1.2,2.6,2.6c0,0.8-0.3,1.5-0.9,2c0.1,0.2,0.1,0.3,0.1,0.5C39.7,19.8,38.7,20.8,37.3,20.8z M38,14.3
					c-1,0-1.9,0.9-1.9,1.9c0,0.3,0.1,0.7,0.3,1l0.2,0.3l-0.3,0.2c-0.4,0.3-0.7,0.6-0.7,1c0,0.7,0.8,1.3,1.7,1.3
					c0.9,0,1.7-0.6,1.7-1.3c0-0.2,0-0.3-0.1-0.5L38.8,18l0.3-0.2c0.5-0.4,0.9-0.9,0.9-1.6C39.9,15.2,39,14.3,38,14.3z"/>
			</g>
			<g>
				<path class="st12" d="M31,57.4c-0.3,0-0.6,0.1-0.8,0.3c-0.1-1.6-1.4-2.8-3-2.8C25.4,55,24,56.3,24,58c0,0.2,0,0.3,0,0.5
					c-2.2,0.3-3.7,1.3-3.7,2.4c0,1.4,2.4,2.5,5.4,2.5c1.3,0,2.4-0.2,3.4-0.5c0.4,1.1,1.1,1.9,1.9,1.9c1.2,0,2.2-1.6,2.2-3.7
					C33.1,59.1,32.2,57.4,31,57.4z"/>
				<path class="st1" d="M31,65.1c-0.9,0-1.6-0.7-2.1-1.8c-0.9,0.3-2,0.5-3.1,0.5c-3.2,0-5.7-1.3-5.7-2.9c0-1.2,1.4-2.3,3.7-2.7
					c0-0.1,0-0.2,0-0.2c0-1.9,1.5-3.4,3.4-3.4c1.6,0,2.9,1.1,3.3,2.6c0.2-0.1,0.4-0.1,0.6-0.1c1.4,0,2.5,1.8,2.5,4
					C33.5,63.3,32.4,65.1,31,65.1z M29.3,62.4l0.1,0.3c0.3,1,0.9,1.6,1.6,1.6c1,0,1.8-1.5,1.8-3.3c0-1.8-0.8-3.3-1.8-3.3
					c-0.2,0-0.4,0.1-0.6,0.2l-0.5,0.4l-0.1-0.6c-0.1-1.4-1.3-2.4-2.7-2.4c-1.5,0-2.7,1.2-2.7,2.7c0,0.1,0,0.3,0,0.5l0.1,0.4
					l-0.4,0.1c-2,0.3-3.4,1.2-3.4,2c0,1,2.1,2.2,5,2.2c1.2,0,2.3-0.2,3.2-0.5L29.3,62.4z"/>
			</g>
			<g>
				<path class="st12" d="M75.7,51.8c-0.9,0-1.7,0.7-1.8,1.5c-0.6,0-1.2,0.3-1.5,0.9c-0.4,0.8-0.1,1.8,0.8,2.2
					c0.8,0.4,1.8,0.1,2.2-0.8c0.1-0.2,0.2-0.5,0.2-0.7c0,0,0.1,0,0.1,0c1,0,1.8-0.7,1.8-1.6C77.5,52.5,76.7,51.8,75.7,51.8z"/>
				<path class="st1" d="M73.9,57c-0.3,0-0.6-0.1-0.9-0.2c-1-0.5-1.4-1.7-0.9-2.7c0.3-0.6,0.9-1,1.5-1.1c0.2-0.9,1.1-1.5,2.1-1.5
					c1.2,0,2.1,0.9,2.1,1.9c0,1-0.8,1.8-1.9,1.9c0,0.2-0.1,0.4-0.2,0.5C75.4,56.6,74.7,57,73.9,57z M73.9,53.7c-0.5,0-1,0.3-1.2,0.7
					c-0.3,0.6,0,1.4,0.6,1.7c0.6,0.3,1.4,0,1.7-0.6c0.1-0.2,0.1-0.4,0.1-0.6l0-0.4l0.4,0c0,0,0,0,0.1,0c0,0,0,0,0,0
					c0.8,0,1.4-0.5,1.4-1.2c0-0.7-0.6-1.2-1.4-1.2c-0.8,0-1.4,0.5-1.4,1.2l0,0.3L73.9,53.7C73.9,53.7,73.9,53.7,73.9,53.7z"/>
			</g>
			<g>
				<path class="st12" d="M45.8,42.4c0-0.2,0.1-0.3,0.1-0.5c0-1.5-1.6-2.7-3.6-2.7c-0.8,0-1.6,0.2-2.2,0.6c-0.5-0.2-1-0.4-1.6-0.4
					c-1.6,0-2.9,1-2.9,2.3c0,1,0.8,1.9,2,2.2c0,0.1,0,0.2,0,0.2c0,1.5,0.7,2.8,1.6,2.9c0.4,0.7,1,1.2,1.7,1.2c0.8,0,1.4-0.6,1.8-1.4
					c0.7,0.6,1.8,1,3,1c2.1,0,3.8-1.2,3.8-2.7C49.5,43.7,47.8,42.5,45.8,42.4z"/>
				<path class="st1" d="M40.9,48.6c-0.8,0-1.5-0.5-1.9-1.3c-1-0.3-1.7-1.6-1.7-3.2c-1.2-0.4-2-1.3-2-2.4c0-1.4,1.4-2.6,3.2-2.6
					c0.5,0,1.1,0.1,1.6,0.3c0.7-0.3,1.4-0.5,2.2-0.5c2.2,0,3.9,1.3,3.9,3c0,0,0,0.1,0,0.1c2.1,0.2,3.7,1.5,3.7,3
					c0,1.7-1.9,3.1-4.2,3.1c-1.1,0-2.1-0.3-2.8-0.8C42.4,48.1,41.7,48.6,40.9,48.6z M38.5,39.9c-1.4,0-2.5,0.9-2.5,1.9
					c0,0.8,0.7,1.6,1.7,1.8l0.3,0.1l0,0.3c0,0.1,0,0.1,0,0.2c0,1.3,0.6,2.4,1.3,2.5l0.2,0l0.1,0.2c0.3,0.6,0.8,1,1.4,1
					c0.6,0,1.1-0.4,1.5-1.2l0.2-0.4l0.4,0.3c0.7,0.6,1.7,0.9,2.7,0.9c1.9,0,3.5-1.1,3.5-2.4c0-1.3-1.5-2.3-3.4-2.3l-0.4,0l0.1-0.4
					c0-0.1,0-0.3,0-0.4c0-1.3-1.4-2.3-3.2-2.3c-0.7,0-1.4,0.2-2,0.5l-0.2,0.1l-0.2-0.1C39.5,40,39,39.9,38.5,39.9z"/>
			</g>
			<g>
				<path class="st12" d="M65.7,39.2c0-1.5-2.4-2.7-5.3-2.7c-1,0-1.9,0.1-2.6,0.4c-0.7-1.4-2.1-2.4-3.8-2.4c-2.3,0-4.2,1.9-4.2,4.2
					c0,1.3,0.6,2.5,1.6,3.3c-0.1,0.4-0.2,0.8-0.2,1.2c0,2.3,2.2,4.2,5,4.2c2.7,0,5-1.9,5-4.2c0-0.5-0.1-1-0.3-1.4
					C63.5,41.7,65.7,40.6,65.7,39.2z"/>
				<path class="st1" d="M56.1,47.8c-2.9,0-5.3-2.1-5.3-4.6c0-0.4,0.1-0.7,0.2-1.1c-1-0.9-1.5-2.1-1.5-3.4c0-2.5,2.1-4.6,4.6-4.6
					c1.7,0,3.2,0.9,4,2.3c0.8-0.2,1.6-0.3,2.5-0.3c3.2,0,5.7,1.3,5.7,3c0,1.5-2,2.8-4.8,3c0.1,0.4,0.2,0.7,0.2,1.1
					C61.4,45.8,59,47.8,56.1,47.8z M53.9,34.8c-2.1,0-3.9,1.7-3.9,3.9c0,1.2,0.5,2.3,1.5,3l0.2,0.2l-0.1,0.2
					c-0.1,0.4-0.2,0.7-0.2,1.1c0,2.1,2.1,3.9,4.6,3.9c2.5,0,4.6-1.7,4.6-3.9c0-0.4-0.1-0.9-0.3-1.3l-0.2-0.5l0.5,0
					c2.5-0.1,4.6-1.1,4.6-2.3c0-1.2-2.3-2.3-5-2.3c-0.9,0-1.8,0.1-2.5,0.3l-0.3,0.1L57.4,37C56.8,35.7,55.4,34.8,53.9,34.8z"/>
			</g>
		</g>
	</g>
</g>
</svg>
