<?xml version="1.0" encoding="utf-8"?>
<!-- Generator: Adobe Illustrator 24.2.3, SVG Export Plug-In . SVG Version: 6.00 Build 0)  -->
<svg version="1.1" id="Lag_1" xmlns="http://www.w3.org/2000/svg" xmlns:xlink="http://www.w3.org/1999/xlink" x="0px" y="0px"
	 viewBox="0 0 124 174" style="enable-background:new 0 0 124 174;" xml:space="preserve">
<style type="text/css">
	.st0{fill:#664536;}
	.st1{fill:#110B09;}
	.st2{fill:#DBC2B9;}
	.st3{fill:#473129;}
	.st4{fill:#D6B78A;}
	.st5{fill:#E5C9A3;}
	.st6{fill:#EDD7BC;}
	.st7{clip-path:url(#SVGID_2_);}
	.st8{fill:#C5BDBA;}
	.st9{fill:#A89B95;}
	.st10{fill:#BFADAA;}
	.st11{fill:#D3CCC9;}
	.st12{fill:#CBC8DB;}
	.st13{fill:#EEEDF4;}
	.st14{fill:#E8E8ED;}
	.st15{fill:#AF8D84;}
	.st16{fill:#D4CAC8;}
	.st17{fill:#846D6A;}
	.st18{fill:#BFBBBA;}
	.st19{fill:#E0D8D7;}
	.st20{fill:#C9C2C1;}
	.st21{fill:#C15BB9;}
	.st22{fill:#F2E2E9;}
	.st23{fill:#CC667E;}
	.st24{fill:#BC647B;}
	.st25{fill:#CC7590;}
	.st26{fill:#E27D98;}
	.st27{fill:#E5D8D2;}
	.st28{fill:#E0DBDA;}
	.st29{fill:#895C3B;}
	.st30{fill:#C68A5D;}
	.st31{fill:#493328;}
	.st32{fill:#B28B6B;}
	.st33{fill:#A36B4D;}
	.st34{fill:#35251E;}
	.st35{opacity:0.44;}
</style>
<g>
	<g>
		
			<ellipse transform="matrix(0.1967 -0.9805 0.9805 0.1967 -75.9799 163.8453)" class="st0" cx="62" cy="128.3" rx="42.5" ry="59.9"/>
		<path class="st1" d="M69.9,172.2c-5.3,0-10.8-0.5-16.4-1.7C20.8,164-2.1,139.7,2.6,116.4S37.7,79.5,70.5,86
			c32.7,6.6,55.6,30.9,50.9,54.2C117.5,159.5,95.9,172.2,69.9,172.2z M54,85.6c-25.4,0-46.4,12.3-50.2,31
			c-4.5,22.6,17.9,46.3,49.9,52.7c32.1,6.4,61.9-6.7,66.4-29.4l0.6,0.1l-0.6-0.1c4.5-22.6-17.9-46.3-49.9-52.7
			C64.7,86.1,59.3,85.6,54,85.6z"/>
	</g>
	<g>
		<path class="st2" d="M111,114.8c-0.2,0-0.4-0.1-0.5-0.3c-1.2-1.7-2.5-3.4-4-5c-0.2-0.3-0.2-0.6,0-0.9c0.3-0.2,0.6-0.2,0.9,0
			c1.5,1.6,2.9,3.4,4.1,5.1c0.2,0.3,0.1,0.7-0.2,0.9C111.2,114.8,111.1,114.8,111,114.8z"/>
	</g>
	<g>
		<path class="st2" d="M103.6,106.4c-0.1,0-0.3-0.1-0.4-0.2c-3.5-3.2-7.4-6-11.8-8.5c-0.3-0.2-0.4-0.5-0.2-0.8
			c0.2-0.3,0.5-0.4,0.8-0.2c4.5,2.5,8.6,5.4,12.1,8.6c0.3,0.2,0.3,0.6,0,0.9C103.9,106.3,103.8,106.4,103.6,106.4z"/>
	</g>
	<g>
		<path class="st2" d="M83.5,94c-0.1,0-0.2,0-0.2,0c-2.9-1.2-5.9-2.2-9-3c-0.3-0.1-0.5-0.4-0.4-0.8c0.1-0.3,0.4-0.5,0.8-0.4
			c3.1,0.8,6.2,1.8,9.1,3c0.3,0.1,0.5,0.5,0.3,0.8C84,93.9,83.8,94,83.5,94z"/>
	</g>
	<g>
		<ellipse transform="matrix(0.1967 -0.9805 0.9805 0.1967 -75.9799 163.8453)" class="st3" cx="62" cy="128.3" rx="38" ry="53.6"/>
	</g>
	<g>
		
			<ellipse transform="matrix(0.1967 -0.9805 0.9805 0.1967 -75.9799 163.8453)" class="st4" cx="62" cy="128.3" rx="35.5" ry="50.1"/>
		<path class="st1" d="M68.6,165.1c-4.5,0-9.1-0.4-13.7-1.4c-13.2-2.7-25-8.8-33-17.3c-8.1-8.6-11.5-18.5-9.6-28
			c3.9-19.5,29.4-30.9,56.8-25.4c27.4,5.5,46.5,25.8,42.6,45.4C108.4,154.5,90.3,165.1,68.6,165.1z M55.3,92.7
			c-21.1,0-38.7,10.2-41.8,25.8c-1.8,9.1,1.5,18.7,9.3,26.9c7.9,8.3,19.3,14.4,32.3,17c26.7,5.4,51.6-5.6,55.3-24.5l0.6,0.1
			l-0.6-0.1c3.8-18.8-14.9-38.5-41.6-43.9C64.3,93.2,59.7,92.7,55.3,92.7z"/>
	</g>
	<g>
		<ellipse transform="matrix(0.1967 -0.9805 0.9805 0.1967 -75.9799 163.8453)" class="st5" cx="62" cy="128.3" rx="31" ry="43.8"/>
	</g>
	<g>
		
			<ellipse transform="matrix(0.1967 -0.9805 0.9805 0.1967 -75.9799 163.8453)" class="st6" cx="62" cy="128.3" rx="25.8" ry="36.4"/>
	</g>
	<g>
		<defs>
			<path id="SVGID_1_" d="M110.8,121.7V-8.2H19.6l-1.2,112.1c-3.3,3.7-5.5,8-6.5,12.8c-3.9,19.6,15.3,40,43,45.6
				c27.7,5.6,53.3-5.9,57.3-25.5C113.2,131.7,112.6,126.6,110.8,121.7z"/>
		</defs>
		<clipPath id="SVGID_2_">
			<use xlink:href="#SVGID_1_"  style="overflow:visible;"/>
		</clipPath>
		<g class="st7">
			<g>
				<g>
					<g>
						<rect x="48" y="55.9" class="st8" width="33.3" height="71.5"/>
						<path class="st1" d="M81.9,128.1H47.4V55.3h34.6V128.1z M48.6,126.8h32.1V56.5H48.6V126.8z"/>
					</g>
					<g>
						<path class="st9" d="M64.5,127.5H48V55.9h33.3v4.6c0,0-15.4-3.1-18.1,12.8l0.3,8.6c-0.3,6.8-0.3,13.7,0,20.5L64.5,127.5z"/>
					</g>
					<g>
						<path class="st1" d="M81.9,128.1H47.4V55.3h34.6V128.1z M48.6,126.8h32.1V56.5H48.6V126.8z"/>
					</g>
					<g>
						<rect x="54.6" y="110.8" class="st10" width="7.2" height="3"/>
						<path class="st1" d="M62.4,114.4H54v-4.3h8.5V114.4z M55.2,113.2h6v-1.8h-6V113.2z"/>
					</g>
					<g>
						<rect x="70.4" y="121.3" class="st11" width="7.2" height="3"/>
						<path class="st1" d="M78.3,124.9h-8.5v-4.3h8.5V124.9z M71,123.7h6v-1.8h-6V123.7z"/>
					</g>
					<g>
						<rect x="67.9" y="102" class="st11" width="7.2" height="3"/>
						<path class="st1" d="M75.8,105.6h-8.5v-4.3h8.5V105.6z M68.6,104.4h6v-1.8h-6V104.4z"/>
					</g>
					<g>
						<rect x="49.8" y="121.6" class="st10" width="7.2" height="3"/>
						<path class="st1" d="M57.7,125.3h-8.5V121h8.5V125.3z M50.4,124h6v-1.8h-6V124z"/>
					</g>
				</g>
				<g>
					<g>
						<path class="st12" d="M76.4,96.2h-7v-9c0-1,0.5-2,1.2-2.7v0c0.6-0.5,2.2-1.9,2.2-1.9s1.6,1.3,2.2,1.8l0,0
							c0.8,0.7,1.3,1.6,1.3,2.7V96.2z"/>
						<path class="st1" d="M77,96.8h-8.2v-9.6c0-1.2,0.5-2.4,1.5-3.1c0.6-0.5,2.2-1.9,2.2-1.9l0.4-0.3l0.4,0.3c0,0,1.6,1.3,2.2,1.8
							c1,0.8,1.5,2,1.5,3.2V96.8z M70,95.6h5.7v-8.4c0-0.9-0.4-1.7-1-2.2c-0.5-0.4-1.3-1.1-1.9-1.5c-0.5,0.4-1.4,1.2-1.8,1.5
							c-0.6,0.5-1,1.3-1,2.2V95.6z"/>
					</g>
					<g>
						<polygon class="st13" points="75.6,85.1 76.1,86 76.4,87.2 69.3,95.2 						"/>
					</g>
					<g>
						<polygon class="st13" points="74,83.7 74.7,84.2 69.4,89.4 						"/>
					</g>
					<g>
						<polygon class="st13" points="76.4,93 73.4,96.2 76.4,93.6 						"/>
					</g>
					<g>
						<path class="st1" d="M77,96.8h-8.2v-9.6c0-1.2,0.5-2.4,1.5-3.1c0.6-0.5,2.2-1.9,2.2-1.9l0.4-0.3l0.4,0.3c0,0,1.6,1.3,2.2,1.8
							c1,0.8,1.5,2,1.5,3.2V96.8z M70,95.6h5.7v-8.4c0-0.9-0.4-1.7-1-2.2c-0.5-0.4-1.3-1.1-1.9-1.5c-0.5,0.4-1.4,1.2-1.8,1.5
							c-0.6,0.5-1,1.3-1,2.2V95.6z"/>
					</g>
					<g>
						<line class="st12" x1="72.8" y1="82.7" x2="72.8" y2="96.2"/>
						<rect x="72.2" y="82.7" class="st1" width="1.2" height="13.5"/>
					</g>
					<g>
						<line class="st12" x1="69.4" y1="92.6" x2="76.4" y2="92.6"/>
						<rect x="69.4" y="92" class="st1" width="7" height="1.2"/>
					</g>
					<g>
						<line class="st12" x1="69.4" y1="88.8" x2="76.4" y2="88.8"/>
						<rect x="69.4" y="88.1" class="st1" width="7" height="1.2"/>
					</g>
				</g>
				<g>
					<g>
						<path class="st12" d="M60.8,96.2h-7v-9c0-1,0.5-2,1.2-2.7l0,0c0.6-0.5,2.2-1.9,2.2-1.9s1.6,1.3,2.2,1.8l0,0
							c0.8,0.7,1.3,1.6,1.3,2.7V96.2z"/>
						<path class="st1" d="M61.4,96.8h-8.2v-9.6c0-1.2,0.5-2.4,1.5-3.1c0.6-0.5,2.2-1.9,2.2-1.9l0.4-0.3l0.4,0.3
							c0,0,1.6,1.3,2.2,1.8c1,0.8,1.5,2,1.5,3.2V96.8z M54.4,95.6h5.7v-8.4c0-0.9-0.4-1.7-1-2.2c-0.5-0.4-1.3-1.1-1.9-1.5
							c-0.5,0.4-1.4,1.2-1.8,1.5c-0.6,0.5-1,1.3-1,2.2V95.6z"/>
					</g>
					<g>
						<polygon class="st14" points="60,85.1 60.5,86 60.8,86.8 53.8,91.7 						"/>
					</g>
					<g>
						<polygon class="st14" points="60.8,91.1 60.8,91.9 53.8,95 						"/>
					</g>
					<g>
						<path class="st1" d="M61.4,96.8h-8.2v-9.6c0-1.2,0.5-2.4,1.5-3.1c0.6-0.5,2.2-1.9,2.2-1.9l0.4-0.3l0.4,0.3
							c0,0,1.6,1.3,2.2,1.8c1,0.8,1.5,2,1.5,3.2V96.8z M54.4,95.6h5.7v-8.4c0-0.9-0.4-1.7-1-2.2c-0.5-0.4-1.3-1.1-1.9-1.5
							c-0.5,0.4-1.4,1.2-1.8,1.5c-0.6,0.5-1,1.3-1,2.2V95.6z"/>
					</g>
					<g>
						<line class="st12" x1="57.3" y1="82.7" x2="57.3" y2="96.2"/>
						<rect x="56.6" y="82.7" class="st1" width="1.2" height="13.5"/>
					</g>
					<g>
						<line class="st12" x1="53.8" y1="92.6" x2="60.8" y2="92.6"/>
						<rect x="53.8" y="92" class="st1" width="7" height="1.2"/>
					</g>
					<g>
						<line class="st12" x1="53.8" y1="88.8" x2="60.8" y2="88.8"/>
						<rect x="53.8" y="88.1" class="st1" width="7" height="1.2"/>
					</g>
				</g>
				<g>
					<g>
						<rect x="62.6" y="70.8" class="st15" width="3.2" height="7.3"/>
					</g>
					<g>
						<rect x="63.1" y="70.1" class="st16" width="3.2" height="7.3"/>
						<path class="st1" d="M66.9,78.1h-4.4v-8.6h4.4V78.1z M63.7,76.8h1.9v-6.1h-1.9V76.8z"/>
					</g>
					<g>
						<rect x="72" y="70.6" class="st15" width="3.2" height="7.3"/>
					</g>
					<g>
						<rect x="72.4" y="70.1" class="st16" width="3.2" height="7.3"/>
						<path class="st1" d="M76.2,78.1h-4.4v-8.6h4.4V78.1z M73.1,76.8H75v-6.1h-1.9V76.8z"/>
					</g>
					<g>
						<rect x="53.3" y="70.5" class="st17" width="3.2" height="7.3"/>
					</g>
					<g>
						<rect x="53.7" y="70.1" class="st16" width="3.2" height="7.3"/>
						<path class="st1" d="M57.5,78h-4.4v-8.6h4.4V78z M54.3,76.8h1.9v-6.1h-1.9V76.8z"/>
					</g>
					<g>
						<path class="st16" d="M79.8,73.4H49.2c-2.2,0-4-1.7-4.3-4l-0.4-3.3h40l-0.4,3.3C83.9,71.7,82,73.4,79.8,73.4z"/>
						<path class="st1" d="M79.8,74.1H49.2c-2.5,0-4.6-2-4.9-4.6l-0.5-4h41.4l-0.5,4C84.4,72.1,82.3,74.1,79.8,74.1z M45.2,66.8
							l0.3,2.6c0.2,2,1.8,3.5,3.7,3.5h30.6c1.9,0,3.4-1.5,3.7-3.5l0.3-2.6H45.2z"/>
					</g>
					<g>
						<path class="st18" d="M59.8,73.4H49.2c-2.2,0-4-1.7-4.3-4l-0.4-3.3h15.3l-4.3,2.1c-0.3,0.1-0.6,0.3-0.8,0.6h0
							c-0.9,1.2-0.4,3,1.1,3.4L59.8,73.4z"/>
					</g>
					<g>
						<path class="st1" d="M79.8,74.1H49.2c-2.5,0-4.6-2-4.9-4.6l-0.5-4h41.4l-0.5,4C84.4,72.1,82.3,74.1,79.8,74.1z M45.2,66.8
							l0.3,2.6c0.2,2,1.8,3.5,3.7,3.5h30.6c1.9,0,3.4-1.5,3.7-3.5l0.3-2.6H45.2z"/>
					</g>
					<g>
						<g>
							<rect x="43.8" y="65" class="st19" width="41.4" height="3.1"/>
							<path class="st1" d="M85.8,68.8H43.2v-4.4h42.6V68.8z M44.4,67.5h40.2v-1.9H44.4V67.5z"/>
						</g>
						<g>
							<polyline class="st20" points="56.3,68.2 43.8,68.2 43.8,65 56.3,65 							"/>
							<polygon class="st1" points="56.3,68.8 43.2,68.8 43.2,64.4 56.3,64.4 56.3,65.7 44.4,65.7 44.4,67.5 56.3,67.5 							"/>
						</g>
						<g>
							<path class="st1" d="M85.8,68.8H43.2v-4.4h42.6V68.8z M44.4,67.5h40.2v-1.9H44.4V67.5z"/>
						</g>
					</g>
				</g>
				<g>
					<g>
						<path class="st21" d="M64.7,19V2l3.4,0.5c4,0.5,8,0.5,12,0L83.5,2v12.2l-0.4,0.1c-5.9,1.4-12,1.5-18,0.4l0,0"/>
					</g>
					<g>
						<g>
							<path class="st22" d="M77.1,12.6C76.8,12.8,76.4,13,76,13c-0.1,0-0.3,0-0.4,0c-0.9,0-1.8,0-2.8,0c-0.1,0-0.2,0-0.4,0
								c-0.2,0-0.3,0-0.5-0.1c-0.2-0.1-0.4-0.1-0.6-0.2c-0.1-0.1-0.2-0.2-0.4-0.3c-0.1-0.1-0.2-0.2-0.3-0.3
								c-0.1-0.2-0.2-0.5-0.3-0.8c0-0.2-0.1-0.4-0.1-0.6c0-0.3,0-0.7,0-1c0-0.5,0-1.1,0-1.6c0-0.2,0-0.3,0-0.5c0-0.1,0-0.2,0-0.3
								c0-0.4,0.2-0.7,0.4-1C71,6,71.4,5.7,71.8,5.6c0.3-0.1,0.5-0.1,0.8-0.1c0.9,0,1.9,0,2.8,0c0.3,0,0.6,0,0.9,0.1
								c0.6,0.1,1,0.4,1.3,0.9c0.2,0.3,0.3,0.6,0.3,1c0.1,1,0,2,0,3.1c0,0.3,0,0.6-0.1,0.9C77.7,11.9,77.5,12.2,77.1,12.6
								C77.2,12.5,77.1,12.6,77.1,12.6z M71,9.6c0,0.4,0,0.9,0,1.3c0,0.2,0,0.4,0.1,0.7c0.1,0.3,0.3,0.5,0.6,0.7
								c0.2,0.1,0.5,0.2,0.7,0.2c0.3,0,0.7,0,1,0c0.8,0,1.5,0,2.3,0c0.2,0,0.5-0.1,0.7-0.2c0.1-0.1,0.3-0.2,0.4-0.3
								c0.1-0.1,0.2-0.3,0.3-0.5c0.1-0.2,0.1-0.4,0.1-0.7c0-0.2,0-0.3,0-0.5c0-0.5,0-1,0-1.6c0-0.4,0-0.8,0-1.2
								c0-0.3-0.1-0.5-0.3-0.8c-0.3-0.3-0.6-0.5-1-0.5c-0.3,0-0.6,0-0.9,0c-0.7,0-1.5,0-2.2,0c-0.3,0-0.6,0-0.8,0.1
								c-0.4,0.1-0.7,0.3-0.9,0.7c-0.1,0.2-0.1,0.4-0.1,0.6c0,0.3,0,0.6,0,0.9C71,8.9,71,9.2,71,9.6z"/>
						</g>
						<g>
							<path class="st22" d="M75.7,10.4c-0.2,0.3-0.5,0.5-0.8,0.7c-0.2,0.1-0.4,0.1-0.6,0.2c-0.9,0.1-1.7-0.4-2.1-1.2
								c-0.1-0.2-0.1-0.4-0.2-0.6c0-0.3,0-0.6,0.2-0.9c0.1-0.2,0.2-0.3,0.3-0.5c0.5-0.6,1.1-0.8,1.8-0.7C75.3,7.5,75.9,8.2,76,9
								C76.1,9.5,76,9.9,75.7,10.4C75.7,10.4,75.7,10.4,75.7,10.4z M72.9,9.4c0,0.1,0.1,0.3,0.1,0.4c0.2,0.5,0.8,0.8,1.3,0.7
								c0.3,0,0.5-0.1,0.7-0.3c0.3-0.3,0.4-0.6,0.4-1c0-0.4-0.2-0.7-0.5-0.9C74.2,7.8,73.3,8,73,8.8C72.9,9,72.8,9.2,72.9,9.4z"/>
						</g>
						<g>
							<path class="st22" d="M75.7,7.3c0-0.2,0.2-0.4,0.5-0.4c0.3,0,0.5,0.2,0.5,0.5c0,0.3-0.2,0.5-0.5,0.5
								C75.9,7.7,75.7,7.5,75.7,7.3z"/>
						</g>
					</g>
					<g>
						<path class="st1" d="M64.7,19.6c-0.3,0-0.6-0.3-0.6-0.6V1.3l4.1,0.6c3.9,0.5,7.9,0.5,11.8,0l4.1-0.6v13.4l-0.9,0.2
							c-5.9,1.4-11.9,1.5-17.9,0.5V19C65.3,19.3,65.1,19.6,64.7,19.6z M65.3,14.1c5.9,1.1,11.8,0.9,17.6-0.4v-11l-2.7,0.4
							c-4,0.5-8.1,0.5-12.1,0l-2.7-0.4V14.1z"/>
					</g>
				</g>
				<g>
					<g>
						<g>
							<path class="st23" d="M75.9,33.9L64.7,17.4L53.7,33c-1.9,2.7-3.5,5.5-4.9,8.5l-7.7,16.7L51,59c9.6,0.7,19.2,0.7,28.7-0.1
								l8.6-0.7l-8.4-17.5C78.7,38.4,77.4,36.1,75.9,33.9z"/>
							<path class="st1" d="M65,60.2c-4.7,0-9.4-0.2-14-0.5l-10.7-0.8l8-17.5c1.4-3,3.1-5.9,5-8.6l11.5-16.3l11.7,17.2v0
								c1.5,2.2,2.8,4.5,4,6.9l8.8,18.3l-9.5,0.8C74.8,60,69.9,60.2,65,60.2z M42.1,57.7l8.9,0.7c9.5,0.7,19.1,0.7,28.6-0.1l7.7-0.6
								l-8-16.7c-1.1-2.3-2.4-4.6-3.9-6.8v0L64.7,18.5L54.3,33.3c-1.9,2.7-3.5,5.5-4.9,8.4L42.1,57.7z"/>
						</g>
						<g>
							<path class="st24" d="M64.7,17.4L53.7,33c-1.9,2.7-3.5,5.5-4.9,8.5l-7.7,16.7L51,59c4.5,0.3,8.9,0.5,13.4,0.5"/>
							<path class="st1" d="M64.4,60.2c-4.5,0-9-0.2-13.5-0.5l-10.7-0.8l8-17.5c1.4-3,3.1-5.9,5-8.6l11-15.5l1,0.7l-11,15.5
								c-1.9,2.7-3.5,5.5-4.9,8.4l-7.3,15.9l8.9,0.7c4.4,0.3,8.9,0.5,13.4,0.5L64.4,60.2z"/>
						</g>
						<g>
							<path class="st1" d="M65,60.2c-4.7,0-9.4-0.2-14-0.5l-10.7-0.8l8-17.5c1.4-3,3.1-5.9,5-8.6l11.5-16.3l11.7,17.2v0
								c1.5,2.2,2.8,4.5,4,6.9l8.8,18.3l-9.5,0.8C74.8,60,69.9,60.2,65,60.2z M42.1,57.7l8.9,0.7c9.5,0.7,19.1,0.7,28.6-0.1l7.7-0.6
								l-8-16.7c-1.1-2.3-2.4-4.6-3.9-6.8v0L64.7,18.5L54.3,33.3c-1.9,2.7-3.5,5.5-4.9,8.4L42.1,57.7z"/>
						</g>
					</g>
					<g>
						
							<rect x="59.4" y="28.6" transform="matrix(0.9843 0.1766 -0.1766 0.9843 6.5709 -10.2137)" class="st25" width="2.6" height="6.3"/>
						<path class="st1" d="M61.9,35.9l-3.8-0.7l1.3-7.5l3.8,0.7L61.9,35.9z M59.5,34.2l1.3,0.2l0.9-5l-1.3-0.2L59.5,34.2z"/>
					</g>
					<g>
						
							<rect x="67.8" y="31.7" transform="matrix(0.9978 -6.598387e-02 6.598387e-02 0.9978 -2.1531 4.6334)" class="st26" width="2.6" height="6.3"/>
						<path class="st1" d="M67.4,38.8l-0.5-7.6l3.8-0.3l0.5,7.6L67.4,38.8z M68.2,32.4l0.3,5.1l1.3-0.1l-0.3-5.1L68.2,32.4z"/>
					</g>
					<g>
						
							<rect x="75.4" y="48" transform="matrix(0.9978 -6.598387e-02 6.598387e-02 0.9978 -3.2084 5.1718)" class="st26" width="2.6" height="6.3"/>
						<path class="st1" d="M75,55.1l-0.5-7.6l3.8-0.3l0.5,7.6L75,55.1z M75.9,48.7l0.3,5.1l1.3-0.1l-0.3-5.1L75.9,48.7z"/>
					</g>
					<g>
						
							<rect x="54" y="39.1" transform="matrix(0.9843 0.1766 -0.1766 0.9843 8.3268 -9.1002)" class="st25" width="2.6" height="6.3"/>
						<path class="st1" d="M56.5,46.3l-3.8-0.7l1.3-7.5l3.8,0.7L56.5,46.3z M54.2,44.6l1.3,0.2l0.9-5l-1.3-0.2L54.2,44.6z"/>
					</g>
					<g>
						
							<rect x="55.4" y="49.5" transform="matrix(0.9843 0.1766 -0.1766 0.9843 10.2001 -9.179)" class="st25" width="2.6" height="6.3"/>
						<path class="st1" d="M57.9,56.8l-3.8-0.7l1.3-7.5l3.8,0.7L57.9,56.8z M55.6,55.1l1.3,0.2l0.9-5l-1.3-0.2L55.6,55.1z"/>
					</g>
				</g>
			</g>
			<g>
				<g>
					<g>
						<polygon class="st16" points="96.5,103.1 96.5,114.1 89.3,114.1 89.3,103.1 77.4,103.1 77.4,114.1 70.4,114.1 70.4,103.1 
							58.5,103.1 58.5,114.1 51.3,114.1 51.3,103.1 39.4,103.1 39.4,114.1 32.3,114.1 32.3,103.3 20.4,103.3 20.5,167.5 
							108.3,167.5 108.3,103.1 						"/>
						<path class="st1" d="M108.9,168.1h-89l-0.1-65.4h13.1v10.8h5.9v-11h13.1v11h6v-11.1H71v11.1h5.8v-11.1h13.1v11.1h5.9v-11.1
							h13.1V168.1z M21.2,166.9h86.5v-63.2H97.1v11.1h-8.4v-11.1H78v11.1h-8.2v-11.1H59.2v11.1h-8.5v-11H40v11h-8.3v-10.8H21
							L21.2,166.9z"/>
					</g>
					<g>
						<g>
							<rect x="37.2" y="120.8" class="st27" width="8.3" height="3.8"/>
							<path class="st1" d="M46.1,125.3h-9.5v-5.1h9.5V125.3z M37.8,124h7.1v-2.6h-7.1V124z"/>
						</g>
						<g>
							<rect x="23.6" y="131.3" class="st27" width="8.3" height="3.8"/>
							<path class="st1" d="M32.5,135.7H23v-5.1h9.5V135.7z M24.2,134.5h7.1v-2.6h-7.1V134.5z"/>
						</g>
						<g>
							<rect x="25.8" y="150.3" class="st27" width="8.3" height="3.8"/>
							<path class="st1" d="M34.7,154.8h-9.5v-5.1h9.5V154.8z M26.4,153.6h7.1V151h-7.1V153.6z"/>
						</g>
						<g>
							<rect x="79.4" y="119.7" class="st27" width="8.3" height="3.8"/>
							<path class="st1" d="M88.3,124.1h-9.5v-5.1h9.5V124.1z M80,122.9h7.1v-2.6H80V122.9z"/>
						</g>
						<g>
							<rect x="95" y="127.5" class="st27" width="8.3" height="3.8"/>
							<path class="st1" d="M104,131.9h-9.5v-5.1h9.5V131.9z M95.7,130.7h7.1v-2.6h-7.1V130.7z"/>
						</g>
						<g>
							<rect x="90.6" y="137.8" class="st27" width="8.3" height="3.8"/>
							<path class="st1" d="M99.5,142.2h-9.5v-5.1h9.5V142.2z M91.2,141h7.1v-2.6h-7.1V141z"/>
						</g>
						<g>
							<rect x="90.5" y="158.4" class="st27" width="8.3" height="3.8"/>
							<path class="st1" d="M99.5,162.9h-9.5v-5.1h9.5V162.9z M91.2,161.6h7.1V159h-7.1V161.6z"/>
						</g>
					</g>
					<g>
						<g>
							<path class="st1" d="M79.2,114.8h-1.8c-0.3,0-0.6-0.3-0.6-0.6c0-0.3,0.3-0.6,0.6-0.6h1.8c0.3,0,0.6,0.3,0.6,0.6
								C79.8,114.5,79.5,114.8,79.2,114.8z"/>
						</g>
						<g>
							<path class="st1" d="M51.3,114.8h-2.4c-0.3,0-0.6-0.3-0.6-0.6c0-0.3,0.3-0.6,0.6-0.6h2.4c0.3,0,0.6,0.3,0.6,0.6
								C51.9,114.5,51.6,114.8,51.3,114.8z"/>
						</g>
						<g>
							<path class="st1" d="M32.3,114.8h-2.4c-0.3,0-0.6-0.3-0.6-0.6c0-0.3,0.3-0.6,0.6-0.6h2.4c0.3,0,0.6,0.3,0.6,0.6
								C32.9,114.5,32.6,114.8,32.3,114.8z"/>
						</g>
						<g>
							<path class="st1" d="M41,114.8h-1.6c-0.3,0-0.6-0.3-0.6-0.6c0-0.3,0.3-0.6,0.6-0.6H41c0.3,0,0.6,0.3,0.6,0.6
								C41.6,114.5,41.3,114.8,41,114.8z"/>
						</g>
						<g>
							<path class="st1" d="M65.5,114.8h-2.8c-0.3,0-0.6-0.3-0.6-0.6c0-0.3,0.3-0.6,0.6-0.6h2.8c0.3,0,0.6,0.3,0.6,0.6
								C66.1,114.5,65.8,114.8,65.5,114.8z"/>
						</g>
						<g>
							<path class="st1" d="M59.5,114.8h-1c-0.3,0-0.6-0.3-0.6-0.6c0-0.3,0.3-0.6,0.6-0.6h1c0.3,0,0.6,0.3,0.6,0.6
								C60.2,114.5,59.9,114.8,59.5,114.8z"/>
						</g>
						<g>
							<path class="st1" d="M87.4,114.8h-1.9c-0.3,0-0.6-0.3-0.6-0.6c0-0.3,0.3-0.6,0.6-0.6h1.9c0.3,0,0.6,0.3,0.6,0.6
								C88,114.5,87.8,114.8,87.4,114.8z"/>
						</g>
						<g>
							<path class="st1" d="M101.1,114.8h-1.9c-0.3,0-0.6-0.3-0.6-0.6c0-0.3,0.3-0.6,0.6-0.6h1.9c0.3,0,0.6,0.3,0.6,0.6
								C101.7,114.5,101.4,114.8,101.1,114.8z"/>
						</g>
					</g>
					<g>
						<g>
							<g>
								<polygon class="st28" points="87.3,105.4 79.4,105.4 77.4,103.1 89.3,103.1 								"/>
							</g>
							<g>
								<polygon class="st28" points="68.3,105.4 60.4,105.4 58.5,103.1 70.4,103.1 								"/>
							</g>
							<g>
								<polygon class="st28" points="49.5,105.4 41.6,105.4 39.4,103.1 51.3,103.1 								"/>
							</g>
							<g>
								<polygon class="st28" points="30.3,105.4 22.4,105.4 20.4,103.3 32.3,103.3 								"/>
							</g>
							<g>
								<polygon class="st28" points="106.4,105.4 98.5,105.4 96.5,103.1 108.3,103.1 								"/>
							</g>
						</g>
						<g>
							<g>
								<path class="st1" d="M87.3,106h-7.9c-0.3,0-0.6-0.3-0.6-0.6c0-0.3,0.3-0.6,0.6-0.6h7.9c0.3,0,0.6,0.3,0.6,0.6
									C87.9,105.7,87.6,106,87.3,106z"/>
							</g>
							<g>
								<path class="st1" d="M68.3,106h-7.9c-0.3,0-0.6-0.3-0.6-0.6c0-0.3,0.3-0.6,0.6-0.6h7.9c0.3,0,0.6,0.3,0.6,0.6
									C68.9,105.7,68.7,106,68.3,106z"/>
							</g>
							<g>
								<path class="st1" d="M49.5,106h-7.9c-0.3,0-0.6-0.3-0.6-0.6c0-0.3,0.3-0.6,0.6-0.6h7.9c0.3,0,0.6,0.3,0.6,0.6
									C50.1,105.7,49.9,106,49.5,106z"/>
							</g>
							<g>
								<path class="st1" d="M30.3,106h-7.9c-0.3,0-0.6-0.3-0.6-0.6c0-0.3,0.3-0.6,0.6-0.6h7.9c0.3,0,0.6,0.3,0.6,0.6
									C31,105.7,30.7,106,30.3,106z"/>
							</g>
							<g>
								<path class="st1" d="M106.4,106h-7.9c-0.3,0-0.6-0.3-0.6-0.6c0-0.3,0.3-0.6,0.6-0.6h7.9c0.3,0,0.6,0.3,0.6,0.6
									C107,105.7,106.7,106,106.4,106z"/>
							</g>
						</g>
					</g>
					<g>
						<path class="st1" d="M108.9,168.1h-89l-0.1-65.4h13.1v10.8h5.9v-11h13.1v11h6v-11.1H71v11.1h5.8v-11.1h13.1v11.1h5.9v-11.1
							h13.1V168.1z M21.2,166.9h86.5v-63.2H97.1v11.1h-8.4v-11.1H78v11.1h-8.2v-11.1H59.2v11.1h-8.5v-11H40v11h-8.3v-10.8H21
							L21.2,166.9z"/>
					</g>
				</g>
				<g>
					<g>
						<path class="st29" d="M84.9,167.5h-21h-21v-24.4c0-10.9,9.4-19.7,21-19.7h0c11.6,0,21,8.8,21,19.7V167.5z"/>
						<path class="st1" d="M85.5,168.1H42.3v-25c0-11.2,9.7-20.3,21.6-20.3s21.6,9.1,21.6,20.3V168.1z M43.5,166.9h40.8v-23.8
							c0-10.5-9.1-19.1-20.4-19.1s-20.4,8.6-20.4,19.1V166.9z"/>
					</g>
					<g>
						<g>
							<g>
								<g>
									<path class="st30" d="M63.9,167.5h17.9v-22.2c0-9.9-8-17.9-17.9-17.9h0L63.9,167.5z"/>
								</g>
								<g>
									<g>
										
											<rect x="68.2" y="128.3" transform="matrix(1 -2.031436e-03 2.031436e-03 1 -0.2998 0.1395)" class="st31" width="0.6" height="38.7"/>
									</g>
									<g>
										
											<rect x="73.7" y="130.4" transform="matrix(1 -3.062610e-03 3.062610e-03 1 -0.4559 0.2274)" class="st31" width="0.6" height="37.1"/>
									</g>
									<g>
										
											<rect x="79" y="135.8" transform="matrix(1 -5.607227e-03 5.607227e-03 1 -0.8489 0.447)" class="st31" width="0.6" height="31.6"/>
									</g>
								</g>
								<g>
									<path class="st1" d="M82.4,168.1H63.3v-41.3h0.6c10.2,0,18.5,8.3,18.5,18.5V168.1z M64.6,166.9h16.6v-21.5
										c0-9.3-7.4-16.9-16.6-17.2V166.9z"/>
								</g>
							</g>
							<g>
								<circle class="st32" cx="67.5" cy="149.1" r="1.5"/>
								<path class="st1" d="M67.5,151.2c-1.2,0-2.2-1-2.2-2.2c0-1.2,1-2.2,2.2-2.2s2.2,1,2.2,2.2C69.6,150.2,68.7,151.2,67.5,151.2
									z M67.5,148.1c-0.5,0-0.9,0.4-0.9,0.9c0,0.5,0.4,0.9,0.9,0.9s0.9-0.4,0.9-0.9C68.4,148.6,68,148.1,67.5,148.1z"/>
							</g>
						</g>
						<g>
							<g>
								<g>
									<path class="st33" d="M63.9,167.5H46.1v-22.2c0-9.9,8-17.9,17.9-17.9L63.9,167.5z"/>
								</g>
								<g>
									<g>
										
											<rect x="40.1" y="147.4" transform="matrix(1.953121e-03 -1 1 1.953121e-03 -88.2783 206.879)" class="st34" width="38.7" height="0.6"/>
									</g>
									<g>
										
											<rect x="35.5" y="148.7" transform="matrix(2.929675e-03 -1 1 2.929675e-03 -95.1216 202.5196)" class="st34" width="37.1" height="0.6"/>
									</g>
									<g>
										
											<rect x="32.9" y="151.3" transform="matrix(5.859274e-03 -1 1 5.859274e-03 -103.1674 199.4583)" class="st34" width="31.6" height="0.6"/>
									</g>
								</g>
								<g>
									<path class="st1" d="M64.6,168.1H45.5v-22.8c0-10.2,8.3-18.5,18.5-18.5h0.6V168.1z M46.7,166.9h16.6v-38.8
										c-9.2,0.3-16.6,7.9-16.6,17.2V166.9z"/>
								</g>
							</g>
							<g>
								<circle class="st32" cx="60.1" cy="149.1" r="1.5"/>
								<path class="st1" d="M60.1,151.2c-1.2,0-2.2-1-2.2-2.2c0-1.2,1-2.2,2.2-2.2s2.2,1,2.2,2.2C62.3,150.2,61.3,151.2,60.1,151.2
									z M60.1,148.1c-0.5,0-0.9,0.4-0.9,0.9c0,0.5,0.4,0.9,0.9,0.9s0.9-0.4,0.9-0.9C61,148.6,60.6,148.1,60.1,148.1z"/>
							</g>
						</g>
						<g class="st35">
							<g>
								<path class="st1" d="M63.9,129.3c8.9,0,16.1,7.2,16.1,16.1v20.3H63.9H47.8v-20.3C47.8,136.5,55,129.3,63.9,129.3 M63.9,128
									L63.9,128c-9.6,0-17.4,7.8-17.4,17.4V167h17.4h17.4v-21.6C81.3,135.8,73.5,128,63.9,128L63.9,128z"/>
							</g>
						</g>
					</g>
				</g>
			</g>
		</g>
	</g>
	<g>
		<path class="st1" d="M68.6,165.1c-4.5,0-9.1-0.4-13.7-1.4c-13.2-2.7-25-8.8-33-17.3c-8.1-8.6-11.5-18.5-9.6-28
			c0.9-4.4,2.9-8.5,5.9-12.1l1,0.8c-2.9,3.5-4.8,7.4-5.6,11.6c-1.8,9.1,1.5,18.7,9.3,26.9c7.9,8.3,19.3,14.4,32.3,17
			c26.7,5.4,51.6-5.6,55.3-24.5c1-5.2,0.4-10.4-1.8-15.7l1.1-0.5c2.3,5.5,2.9,11,1.9,16.4C108.4,154.5,90.3,165.1,68.6,165.1z"/>
	</g>
</g>
</svg>
