<?xml version="1.0" encoding="utf-8"?>
<!-- Generator: Adobe Illustrator 25.4.1, SVG Export Plug-In . SVG Version: 6.00 Build 0)  -->
<svg version="1.1" id="Lag_1" xmlns="http://www.w3.org/2000/svg" xmlns:xlink="http://www.w3.org/1999/xlink" x="0px" y="0px"
	 viewBox="0 0 74 74" style="enable-background:new 0 0 74 74;" xml:space="preserve">
<style type="text/css">
	.st0{fill:#C6A877;}
	.st1{fill:#110B09;}
	.st2{fill:#EADCC7;}
	.st3{fill:#AA926F;}
	.st4{fill:#161616;}
	.st5{fill:#232323;}
	.st6{fill:#333333;}
	.st7{fill:#FCFCFC;}
	.st8{fill:#A5A5A5;}
	.st9{fill:#CACACA;}
	.st10{fill:#DADADA;}
	.st11{fill:#B2B2B2;}
</style>
<g>
	<g>
		<polygon class="st0" points="62.3,62 36.7,72.1 11.7,62 1.7,37 11.7,11.5 37,1.9 62.3,11.5 72.3,37 		"/>
		<path class="st1" d="M36.7,72.6l-0.2-0.1L11.4,62.4L1.1,37l10.2-25.9L37,1.4l25.6,9.7L72.9,37L62.6,62.4L36.7,72.6z M12.1,61.6
			l24.6,9.9l25.2-9.9L71.8,37l-9.9-25.1L37,2.5l-24.9,9.4L2.2,37L12.1,61.6z M62.3,62L62.3,62L62.3,62z"/>
	</g>
	<g>
		<path class="st2" d="M66.6,27.4c-0.2,0-0.4-0.1-0.5-0.3l-0.9-2.4c-0.1-0.3,0-0.6,0.3-0.7s0.6,0,0.7,0.3l0.9,2.4
			c0.1,0.3,0,0.6-0.3,0.7C66.7,27.4,66.6,27.4,66.6,27.4z"/>
	</g>
	<g>
		<path class="st2" d="M63.8,20.5c-0.2,0-0.4-0.1-0.5-0.3L62,17c-0.1-0.3,0-0.6,0.3-0.7s0.6,0,0.7,0.3l1.3,3.2
			c0.1,0.3,0,0.6-0.3,0.7C63.9,20.4,63.9,20.5,63.8,20.5z"/>
	</g>
	<g>
		<path class="st2" d="M57.2,11.8c-0.1,0-0.1,0-0.2,0l-7.9-3c-0.3-0.1-0.4-0.4-0.3-0.6c0.1-0.3,0.4-0.4,0.6-0.3l7.9,3
			c0.3,0.1,0.4,0.4,0.3,0.6C57.6,11.7,57.4,11.8,57.2,11.8z"/>
	</g>
	<g>
		<path class="st2" d="M45.7,7.5c-0.1,0-0.1,0-0.2,0l-4.7-1.8c-0.3-0.1-0.4-0.4-0.3-0.6c0.1-0.3,0.4-0.4,0.6-0.3l4.7,1.8
			c0.3,0.1,0.4,0.4,0.3,0.6C46.1,7.4,45.9,7.5,45.7,7.5z"/>
	</g>
	<g>
		<polygon class="st3" points="59.8,59.6 36.7,68.7 14.2,59.6 5,37 14.2,13.9 37,5.3 59.8,13.9 69,37 		"/>
	</g>
	<g>
		<polygon class="st4" points="58.1,57.9 36.7,66.3 15.9,57.9 7.4,37 15.9,15.7 37,7.7 58.1,15.7 66.6,37 		"/>
	</g>
	<g>
		<polygon class="st5" points="56.7,56.5 36.8,64.4 17.3,56.5 9.4,37 17.3,17.1 37,9.6 56.7,17.1 64.6,37 		"/>
	</g>
	<g>
		<polygon class="st6" points="55.1,54.9 36.8,62.1 18.9,54.9 11.7,37 18.9,18.8 37,11.9 55.1,18.8 62.3,37 		"/>
	</g>
	<path class="st1" d="M36.7,66.9l-0.2-0.1l-21.1-8.5L6.9,37l8.6-21.7L37,7.1l21.5,8.1L67.1,37l-8.6,21.3L36.7,66.9z M16.3,57.5
		l20.5,8.3l21-8.3L66,37l-8.3-20.9L37,8.2l-20.7,7.9L8,37L16.3,57.5z M58.1,57.9L58.1,57.9L58.1,57.9z"/>
	<g>
		<path class="st7" d="M22.8,28.5c0-0.2,0.1-0.2,0.2-0.3c4.2-2.4,8.3-4.8,12.5-7.2c0.1,0,0.1-0.1,0.2-0.1c0,1.2,0,2.4,0,3.6
			c0,0.7,0.2,1.6-0.1,2.2c-0.3,0.5-1.2,0.8-1.8,1.1c-1,0.6-2,1.2-3,1.7c-0.5,0.3-0.5,0.5,0,0.7c1.9,1.1,3.8,2.2,5.7,3.3
			c0.3,0.2,0.6,0.2,0.9,0c1.9-1.1,3.8-2.2,5.7-3.3c0.5-0.3,0.5-0.5,0-0.7c-1.5-0.9-3-1.8-4.6-2.6c-0.2-0.1-0.3-0.3-0.3-0.5
			c0-1.8,0-3.5,0-5.3c0.2-0.1,0.3,0,0.4,0.1c4.1,2.4,8.2,4.7,12.3,7.1c0.1,0.1,0.4,0.1,0.3,0.3c-0.2,0-0.3,0.1-0.4,0.2
			c-1,0.6-1.9,1.1-2.9,1.7c-3.6,2.1-7.3,4.2-10.9,6.3c-2.5-1.5-5.1-2.9-7.6-4.4c-2.2-1.2-4.3-2.5-6.5-3.7
			C22.8,28.5,22.8,28.5,22.8,28.5z"/>
		<path class="st8" d="M37,36.6c3.6-2.1,7.3-4.2,10.9-6.3c1-0.6,1.9-1.1,2.9-1.7c0.1-0.1,0.3-0.2,0.4-0.2c0,0.1,0,0.3,0,0.4
			c0,4.6,0,9.3,0,13.9c0,0.1,0,0.2,0,0.4c-0.1,0-0.2,0-0.2,0.1c-1.5-0.9-3-1.7-4.5-2.6c-0.2-0.1-0.2-0.3-0.2-0.5c0-1.7,0-3.4,0-5.2
			c0-0.7-0.1-0.7-0.7-0.4c-1.8,1.1-3.7,2.1-5.5,3.2c-0.4,0.2-0.6,0.5-0.6,1c0,2.1,0,4.2,0,6.3c0,0.7,0.1,0.7,0.7,0.4
			c1.5-0.9,3-1.7,4.4-2.6c0.3-0.2,0.5-0.2,0.8,0c1.5,0.9,3,1.8,4.6,2.6c0,0.2-0.2,0.2-0.3,0.2c-4.1,2.4-8.2,4.7-12.3,7.1
			C37.3,53,37.2,53,37,53.1c0-0.1,0-0.2,0-0.3C37,47.4,37,42,37,36.6z"/>
		<path class="st9" d="M37,36.6c0,5.4,0,10.8,0,16.2c0,0.1,0,0.2,0,0.3c-0.2,0-0.3-0.1-0.4-0.1c-4.1-2.4-8.2-4.7-12.4-7.1
			c-0.1-0.1-0.2-0.1-0.3-0.2c1.6-0.9,3.1-1.8,4.7-2.7c0.2-0.1,0.4,0,0.6,0.1c1.5,0.9,3,1.7,4.5,2.6c0.6,0.3,0.7,0.2,0.7-0.4
			c0-2.1,0-4.3,0-6.4c0-0.4-0.1-0.7-0.5-0.9c-1.9-1.1-3.8-2.2-5.6-3.2c-0.5-0.3-0.7-0.2-0.7,0.4c0,1.7,0,3.5,0,5.2
			c0,0.2,0,0.4-0.2,0.5c-1.5,0.8-3,1.7-4.5,2.6c-0.1-0.2-0.1-0.4-0.1-0.6c0-4.7,0-9.4,0-14.1c2.2,1.2,4.3,2.5,6.5,3.7
			C31.9,33.7,34.5,35.2,37,36.6z"/>
		<path class="st10" d="M22.9,28.5c0,4.7,0,9.4,0,14.1c0,0.2,0,0.4,0.1,0.6c-0.1,0.1-0.2,0.2-0.2,0c0-0.1,0-0.2,0-0.3
			c0-4.7,0-9.5,0-14.2c0-0.1,0-0.2,0-0.3C22.8,28.5,22.8,28.5,22.9,28.5z"/>
		<path class="st11" d="M51,43.3c0-0.1,0.1-0.1,0.2-0.1c0,0.1,0,0.1,0,0.2C51.1,43.4,51.1,43.3,51,43.3z"/>
	</g>
</g>
</svg>
