<?xml version="1.0" encoding="utf-8"?>
<!-- Generator: Adobe Illustrator 24.2.3, SVG Export Plug-In . SVG Version: 6.00 Build 0)  -->
<svg version="1.1" id="Lag_1" xmlns="http://www.w3.org/2000/svg" xmlns:xlink="http://www.w3.org/1999/xlink" x="0px" y="0px"
	 viewBox="0 0 75 102" style="enable-background:new 0 0 75 102;" xml:space="preserve">
<style type="text/css">
	.st0{fill:#88B252;}
	.st1{fill:#2D2521;}
	.st2{opacity:0.44;}
	.st3{fill:#607F34;}
	.st4{opacity:0.45;}
	.st5{opacity:0.38;}
	.st6{fill:#C0DD92;}
	.st7{fill:#619293;}
	.st8{fill:#D9DDB1;}
	.st9{fill:#A55249;}
	.st10{fill:#7C403C;}
	.st11{fill:#BC9550;}
	.st12{fill:#8E7042;}
	.st13{fill:#B5B4B4;}
	.st14{fill:#914539;}
	.st15{fill:#74A5A5;}
	.st16{fill:#A3814B;}
	.st17{fill:#7C3B35;}
	.st18{fill:#BA7650;}
	.st19{fill:#A56444;}
	.st20{fill:#CC8866;}
</style>
<g>
	<g>
		<g>
			<g>
				<g>
					<path class="st0" d="M57.8,16c0.4-0.8,0.6-1.7,0.5-2.7c-0.1-0.6-0.2-1.2-0.5-1.7c-0.3-0.5-0.1-1.2,0.4-1.6
						c1.1-0.8,1.7-2.2,1.4-3.8c-0.2-1.5-1.4-2.7-2.8-3.1c-2.5-0.7-4.9,1.1-5,3.6c0,0.4,0,0.8,0.1,1.1C52,8.4,51.7,9,51.1,9.2
						c-0.6,0.3-1.1,0.7-1.6,1.1c-1.3-1.1-3-1.7-4.8-1.5c-2.6,0.3-4.8,2.1-5.4,4.6c-0.2,0.8-0.3,1.6-0.2,2.3c0.2,1.6-0.3,3.2-1.1,4.6
						c-0.7,1.2-1.1,2.5-1.2,3.9c-0.2,3.9,2.3,7.5,6,9.1l0.1-2.6c0-0.4,0-0.7,0.1-1.1l0.8-3.7c0.3-1.2,1.1-2.2,2.2-2.6c0,0,0,0,0,0
						c0.5-0.2,0.9-0.6,1.1-1.1l0.6-1.7l0.4,1.8c0.1,0.5,0.4,0.9,0.9,1.1c0.1,0,0.1,0.1,0.2,0.1l0,0c1,0.6,1.7,1.7,1.8,2.9l0.3,3.8
						c0,0.4,0,0.7-0.1,1.1l-0.2,2.5c4-1.2,6.9-4.5,7.1-8.5c0.1-1.2-0.1-2.4-0.5-3.5C56.9,20,56.9,17.8,57.8,16z"/>
					<path class="st1" d="M50.6,34.5l0.3-3.3c0.1-0.3,0.1-0.6,0.1-0.9l-0.3-3.8c-0.1-1.1-0.7-2-1.6-2.5c-0.1,0-0.1-0.1-0.2-0.1
						c-0.6-0.3-1-0.8-1.1-1.4l-0.1-0.4l-0.1,0.3c-0.2,0.6-0.7,1.1-1.3,1.3c-1,0.4-1.7,1.3-1.9,2.3l-0.8,3.7
						c-0.1,0.3-0.1,0.6-0.1,0.9l0,0l-0.2,3.3l-0.6-0.3c-4-1.8-6.5-5.6-6.3-9.6c0.1-1.5,0.5-2.8,1.2-4.1c0.8-1.4,1.2-2.9,1.1-4.3
						c-0.1-0.8,0-1.7,0.2-2.5c0.7-2.7,3.1-4.6,5.8-4.9c1.8-0.2,3.5,0.3,4.8,1.4C50,9.4,50.4,9.1,51,8.8c0.4-0.2,0.6-0.5,0.5-0.9
						c-0.1-0.4-0.1-0.8-0.1-1.3c0.1-1.3,0.7-2.5,1.8-3.3c1.1-0.8,2.4-1,3.8-0.7c1.6,0.4,2.9,1.8,3.1,3.5c0.3,1.6-0.3,3.2-1.6,4.2
						c-0.3,0.3-0.4,0.7-0.2,1c0.3,0.6,0.5,1.2,0.5,1.9c0.1,1-0.1,2-0.5,2.9c-0.8,1.6-0.8,3.6-0.1,5.6c0.4,1.2,0.6,2.4,0.6,3.6
						c-0.2,4.1-3.1,7.6-7.4,8.9L50.6,34.5z M51.8,31.4l-0.2,1.8c3.6-1.3,5.9-4.4,6.1-7.9c0.1-1.1-0.1-2.2-0.5-3.3
						c-0.8-2.2-0.8-4.4,0.1-6.3l0,0c0.4-0.8,0.5-1.6,0.4-2.5c0-0.5-0.2-1.1-0.5-1.6c-0.4-0.7-0.2-1.6,0.5-2.1c1-0.8,1.5-2.1,1.3-3.3
						c-0.2-1.3-1.2-2.4-2.5-2.7c-1-0.3-2.1-0.1-3,0.5c-0.9,0.6-1.4,1.6-1.4,2.6c0,0.3,0,0.7,0.1,1c0.2,0.8-0.2,1.6-1,1.9
						c-0.5,0.3-1,0.6-1.4,1L49.6,11l-0.3-0.3c-1.2-1.1-2.8-1.6-4.5-1.4c-2.4,0.2-4.4,2-5,4.3c-0.2,0.7-0.3,1.4-0.2,2.2
						c0.2,1.6-0.3,3.2-1.2,4.9c-0.7,1.2-1.1,2.4-1.1,3.7c-0.2,3.4,1.8,6.7,5.1,8.4l0.1-1.9c0-0.4,0-0.8,0.1-1.2l0.8-3.7
						c0.3-1.3,1.2-2.4,2.5-2.9c0.4-0.2,0.7-0.4,0.8-0.8l1.1-3.1l0.8,3.2c0.1,0.4,0.3,0.7,0.7,0.8c0.1,0,0.1,0.1,0.2,0.1
						c1.2,0.7,1.9,1.9,2.1,3.2l0.3,3.8C51.9,30.6,51.9,31,51.8,31.4z"/>
				</g>
				<g class="st2">
					<circle class="st3" cx="53" cy="14.7" r="2.6"/>
				</g>
				<g>
					<circle class="st3" cx="53" cy="14.7" r="2.1"/>
				</g>
				<g>
					<circle class="st3" cx="52.8" cy="19.7" r="0.7"/>
				</g>
				<g>
					<path class="st3" d="M45.7,11.7c0.1-0.1,0.2-0.3,0.2-0.5c0-0.5-0.3-0.9-0.8-0.9c-0.5,0-0.9,0.3-0.9,0.8c0,0.2,0.1,0.4,0.2,0.6
						c-1.3,0.3-2.3,1.4-2.3,2.8c-0.1,1.7,1.2,3.2,3,3.3s3.2-1.2,3.3-3C48.3,13.3,47.2,12,45.7,11.7z"/>
				</g>
				<g class="st2">
					<circle class="st3" cx="55.6" cy="6.8" r="1.3"/>
				</g>
				<g>
					<circle class="st3" cx="55.6" cy="6.8" r="0.9"/>
				</g>
				<g>
					<circle class="st3" cx="56" cy="12.2" r="0.5"/>
				</g>
				<g>
					<circle class="st3" cx="55.4" cy="9.3" r="0.1"/>
				</g>
				<g class="st4">
					<path class="st3" d="M42.2,30.2c0-0.3,0-0.7,0.1-1l0.8-3.9c0.3-1.2,1.1-2.2,2.3-2.7c0,0,0,0,0,0c0.5-0.2,0.9-0.6,1.1-1.1
						l0.6-1.4c-1.9-0.1-3.7,0.5-5.1,1.5c-0.4-0.3-0.8-0.6-1.4-0.6c-2,0.1-2.4,1.6-2.4,2.9c-0.1,1,0.5,1.9,1.4,2.2
						c0,0.2-0.1,0.4-0.1,0.6c-0.1,2,0.9,3.2,2.5,4.4l0-0.1C42.1,30.8,42.1,30.5,42.2,30.2z"/>
				</g>
				<g class="st5">
					<path class="st3" d="M56,23.7c0-0.5-0.3-2-1.6-1.8c-0.4,0.1-0.7,0.2-0.9,0.5c-1.2-1.3-3-2.3-5.1-2.4l0.4,1.5
						c0.1,0.5,0.5,0.9,0.9,1.2c0.1,0,0.1,0.1,0.2,0.1l0,0c1.1,0.6,1.8,1.8,1.9,3l0.3,4c0,0.3,0,0.6,0,0.9c0,0.3,0,1.4-0.1,1.7
						c1.8-1.1,3.7-2.8,3.8-4.9c0.1-1.1-0.2-2.1-0.6-3C55.6,24.5,55.9,24.1,56,23.7z"/>
				</g>
				<g>
					<path class="st3" d="M42.3,30.2c0-0.3,0-0.7,0.1-1l0.8-3.7c0.3-1.2,1.1-2.2,2.2-2.6c0,0,0,0,0,0c0.5-0.2,0.9-0.6,1.1-1.1
						l0.5-1.4c-1.8-0.1-3.5,0.5-4.8,1.5c-0.4-0.3-0.8-0.5-1.3-0.6c-1.2-0.1-2.2,0.9-2.3,2.1c-0.1,1,0.5,1.8,1.4,2.1
						c0,0.2-0.1,0.4-0.1,0.6c-0.1,2,0.8,3.8,2.4,5l0-0.1C42.2,30.8,42.3,30.5,42.3,30.2z"/>
				</g>
				<g>
					<path class="st3" d="M55.1,23.3c0-0.5-0.4-0.9-0.9-1c-0.4,0-0.7,0.2-0.9,0.5c-1.2-1.3-2.9-2.2-4.8-2.3L49,22
						c0.1,0.5,0.4,0.9,0.9,1.1c0.1,0,0.1,0.1,0.2,0.1l0,0c1,0.6,1.7,1.7,1.8,2.9l0.3,3.8c0,0.3,0,0.5,0,0.8c0,0.3,0,0.6-0.1,1
						c1.7-1,2.8-2.7,2.9-4.7c0.1-1-0.2-2-0.6-2.8C54.8,24.1,55.1,23.8,55.1,23.3z"/>
				</g>
				<g>
					<path class="st0" d="M42.4,29.3l0.8-3.7c0-0.1,0.1-0.2,0.1-0.3c-1.2,0.1-2.2,1-2.2,2.1c0,0.9,0.5,1.7,1.3,2.1
						C42.4,29.4,42.4,29.3,42.4,29.3z"/>
				</g>
				<g>
					<circle class="st0" cx="51.2" cy="23.2" r="0.6"/>
				</g>
				<g>
					<circle class="st0" cx="45.8" cy="16" r="0.3"/>
				</g>
				<g>
					<circle class="st0" cx="44.9" cy="14.4" r="0.7"/>
				</g>
				<g>
					<circle class="st0" cx="54.3" cy="14.6" r="0.2"/>
				</g>
				<g>
					<circle class="st0" cx="45.8" cy="4" r="1.9"/>
					<path class="st1" d="M45.8,6.3c0,0-0.1,0-0.1,0c-1.3-0.1-2.3-1.2-2.2-2.5c0.1-1.3,1.2-2.3,2.5-2.2c1.3,0.1,2.3,1.2,2.2,2.5
						C48.1,5.3,47,6.3,45.8,6.3z M45.8,2.5c-0.8,0-1.4,0.6-1.4,1.4c0,0.8,0.6,1.5,1.4,1.5c0.8,0,1.5-0.6,1.5-1.4
						C47.3,3.2,46.7,2.6,45.8,2.5C45.9,2.5,45.8,2.5,45.8,2.5z"/>
				</g>
				<g>
					<circle class="st3" cx="45.6" cy="4.5" r="0.3"/>
				</g>
				<g>
					<path class="st6" d="M55.8,26.1C55.8,26.1,55.8,26.1,55.8,26.1c-0.1,0-0.2-0.1-0.2-0.2c0-0.5,0-1-0.1-1.5
						c0-0.1,0.1-0.2,0.2-0.3c0.1,0,0.2,0.1,0.3,0.2c0.1,0.5,0.1,1,0.1,1.6C56,26,55.9,26.1,55.8,26.1z"/>
				</g>
				<g>
					<path class="st6" d="M54.7,21.8c-0.1,0-0.2,0-0.2-0.1c-1.2-2.1-3.1-3.2-3.1-3.2c-0.1-0.1-0.1-0.2-0.1-0.3
						c0.1-0.1,0.2-0.1,0.3-0.1c0.1,0,2,1.1,3.3,3.3c0.1,0.1,0,0.2-0.1,0.3C54.7,21.8,54.7,21.8,54.7,21.8z"/>
				</g>
				<g>
					<path class="st1" d="M50.6,34.5l0.3-3.3c0.1-0.3,0.1-0.6,0.1-0.9l-0.3-3.8c-0.1-1.1-0.7-2-1.6-2.5c-0.1,0-0.1-0.1-0.2-0.1
						c-0.6-0.3-1-0.8-1.1-1.4l-0.1-0.4l-0.1,0.3c-0.2,0.6-0.7,1.1-1.3,1.3c-1,0.4-1.7,1.3-1.9,2.3l-0.8,3.7
						c-0.1,0.3-0.1,0.6-0.1,0.9l0,0l-0.2,3.3l-0.6-0.3c-4-1.8-6.5-5.6-6.3-9.6c0.1-1.5,0.5-2.8,1.2-4.1c0.8-1.4,1.2-2.9,1.1-4.3
						c-0.1-0.8,0-1.7,0.2-2.5c0.7-2.7,3.1-4.6,5.8-4.9c1.8-0.2,3.5,0.3,4.8,1.4C50,9.4,50.4,9.1,51,8.8c0.4-0.2,0.6-0.5,0.5-0.9
						c-0.1-0.4-0.1-0.8-0.1-1.3c0.1-1.3,0.7-2.5,1.8-3.3c1.1-0.8,2.4-1,3.8-0.7c1.6,0.4,2.9,1.8,3.1,3.5c0.3,1.6-0.3,3.2-1.6,4.2
						c-0.3,0.3-0.4,0.7-0.2,1c0.3,0.6,0.5,1.2,0.5,1.9c0.1,1-0.1,2-0.5,2.9c-0.8,1.6-0.8,3.6-0.1,5.6c0.4,1.2,0.6,2.4,0.6,3.6
						c-0.2,4.1-3.1,7.6-7.4,8.9L50.6,34.5z M51.8,31.4l-0.2,1.8c3.6-1.3,5.9-4.4,6.1-7.9c0.1-1.1-0.1-2.2-0.5-3.3
						c-0.8-2.2-0.8-4.4,0.1-6.3l0,0c0.4-0.8,0.5-1.6,0.4-2.5c0-0.5-0.2-1.1-0.5-1.6c-0.4-0.7-0.2-1.6,0.5-2.1c1-0.8,1.5-2.1,1.3-3.3
						c-0.2-1.3-1.2-2.4-2.5-2.7c-1-0.3-2.1-0.1-3,0.5c-0.9,0.6-1.4,1.6-1.4,2.6c0,0.3,0,0.7,0.1,1c0.2,0.8-0.2,1.6-1,1.9
						c-0.5,0.3-1,0.6-1.4,1L49.6,11l-0.3-0.3c-1.2-1.1-2.8-1.6-4.5-1.4c-2.4,0.2-4.4,2-5,4.3c-0.2,0.7-0.3,1.4-0.2,2.2
						c0.2,1.6-0.3,3.2-1.2,4.9c-0.7,1.2-1.1,2.4-1.1,3.7c-0.2,3.4,1.8,6.7,5.1,8.4l0.1-1.9c0-0.4,0-0.8,0.1-1.2l0.8-3.7
						c0.3-1.3,1.2-2.4,2.5-2.9c0.4-0.2,0.7-0.4,0.8-0.8l1.1-3.1l0.8,3.2c0.1,0.4,0.3,0.7,0.7,0.8c0.1,0,0.1,0.1,0.2,0.1
						c1.2,0.7,1.9,1.9,2.1,3.2l0.3,3.8C51.9,30.6,51.9,31,51.8,31.4z"/>
				</g>
			</g>
			<g>
				<g>
					<g>
						<path class="st0" d="M59.5,37.5c-1.2,0-2.1,0.6-2.5,1.5c-0.9-0.7-2.3-1.1-3.8-1.1c-0.5,0-1,0.1-1.4,0.1l-1.3,6.9l0,0.1
							c0.1-0.2,0.3-0.4,0.4-0.6c0.7,0.2,1.4,0.4,2.3,0.4c2.7,0,4.9-1.4,5.1-3.1c0.4,0.2,0.8,0.2,1.2,0.2c1.4,0,2.6-1,2.6-2.2
							S60.9,37.5,59.5,37.5z"/>
						<path class="st1" d="M50,46.2l0-1.4l1.3-7.2l0.3-0.1c0.5-0.1,1-0.2,1.5-0.2c1.4,0,2.7,0.3,3.7,1c0.5-0.8,1.5-1.3,2.6-1.3
							c1.7,0,3.1,1.2,3.1,2.6s-1.4,2.6-3.1,2.6c-0.3,0-0.6,0-0.9-0.1c-0.6,1.7-2.8,3-5.5,3c-0.7,0-1.4-0.1-2.1-0.3
							c-0.1,0.1-0.2,0.2-0.2,0.3L50,46.2z M51.1,43.9c0.6,0.2,1.3,0.3,2,0.3c2.4,0,4.5-1.2,4.7-2.7l0.1-0.6l0.5,0.2
							c0.3,0.1,0.7,0.2,1,0.2c1.2,0,2.2-0.8,2.2-1.7s-1-1.7-2.2-1.7c-0.9,0-1.8,0.5-2.1,1.2l-0.2,0.5l-0.5-0.3
							c-0.9-0.7-2.2-1.1-3.6-1.1c-0.3,0-0.7,0-1,0.1L51.1,43.9z"/>
					</g>
					<g>
						<path class="st0" d="M40.7,45.6l0.4-1.9l0.2-6.9c-0.3-0.1-0.7-0.2-1-0.2c-1.6,0-3,1.3-3,3c0,1.2,0.7,2.2,1.7,2.7
							C39.1,43.5,39.7,44.7,40.7,45.6z"/>
						<path class="st1" d="M41,46.5l-0.6-0.5c-1.1-0.9-1.7-2.2-1.8-3.5c-1.1-0.6-1.7-1.7-1.7-3c0-1.9,1.5-3.4,3.4-3.4
							c0.4,0,0.8,0.1,1.2,0.2l0.3,0.1l-0.2,7.3L41,46.5z M40.3,37c-1.4,0-2.5,1.1-2.5,2.5c0,1,0.6,1.9,1.5,2.3l0.3,0.1l0,0.3
							c0,0.9,0.3,1.8,0.9,2.5l0.2-1.1l0.2-6.5C40.7,37,40.5,37,40.3,37z"/>
					</g>
				</g>
				<g class="st5">
					<path class="st3" d="M55.7,40.1c0-0.6-0.5-1.1-1.1-1.1c-0.4,0-0.7,0.2-0.9,0.5c-0.2,0-0.4,0-0.6,0c-0.7,0-1.3,0.2-1.8,0.5
						L51,42.2c0.5,0.5,1.3,0.8,2.2,0.8c1.4,0,2.6-0.8,2.6-1.7c0-0.2-0.1-0.4-0.2-0.6C55.7,40.5,55.7,40.3,55.7,40.1z"/>
				</g>
				<g>
					<path class="st3" d="M55.4,40.1c0-0.4-0.3-0.7-0.7-0.7c-0.4,0-0.7,0.3-0.7,0.7c-0.2-0.1-0.5-0.1-0.8-0.1c-0.9,0-1.7,0.4-1.9,1
						l-0.1,0.4c0,0.7,0.9,1.3,2,1.3c1.1,0,2-0.6,2-1.3c0-0.2-0.1-0.3-0.1-0.5C55.2,40.6,55.4,40.4,55.4,40.1z"/>
				</g>
				<g class="st5">
					<path class="st3" d="M41.2,39.8l0-0.5c-0.1-0.4-0.5-0.8-1-0.8c-0.6,0-1,0.4-1,1c0,0.6,0.4,1,1,1C40.8,40.5,41.1,40.2,41.2,39.8
						z"/>
				</g>
				<g>
					<path class="st3" d="M40.3,40.3c0.4,0,0.7-0.3,0.7-0.7s-0.3-0.7-0.7-0.7s-0.7,0.3-0.7,0.7S39.9,40.3,40.3,40.3z"/>
				</g>
				<g>
					<path class="st3" d="M40.7,38.2c0.2,0,0.4-0.1,0.4-0.3c0-0.2-0.2-0.3-0.4-0.3c-0.2,0-0.4,0.1-0.4,0.3
						C40.3,38.1,40.5,38.2,40.7,38.2z"/>
				</g>
				<g>
					<ellipse class="st3" cx="41.1" cy="38.2" rx="0.1" ry="0.1"/>
				</g>
				<g>
					<circle class="st0" cx="52.3" cy="41.3" r="0.3"/>
				</g>
				<g>
					<path class="st0" d="M52.9,40.5c-0.1,0-0.1,0.1-0.1,0.1c0,0.1,0.1,0.1,0.1,0.1c0.1,0,0.1-0.1,0.1-0.1
						C53,40.6,52.9,40.5,52.9,40.5z"/>
				</g>
				<g>
					<circle class="st3" cx="59.6" cy="39.5" r="0.5"/>
				</g>
				<g>
					<path class="st0" d="M40.5,39.3C40.6,39.3,40.6,39.3,40.5,39.3c0.1-0.1,0-0.1,0-0.1C40.5,39.2,40.5,39.2,40.5,39.3
						C40.5,39.3,40.5,39.3,40.5,39.3z"/>
				</g>
				<g>
					<g>
						<path class="st1" d="M50,46.2l0-1.4l1.3-7.2l0.3-0.1c0.5-0.1,1-0.2,1.5-0.2c1.4,0,2.7,0.3,3.7,1c0.5-0.8,1.5-1.3,2.6-1.3
							c1.7,0,3.1,1.2,3.1,2.6s-1.4,2.6-3.1,2.6c-0.3,0-0.6,0-0.9-0.1c-0.6,1.7-2.8,3-5.5,3c-0.7,0-1.4-0.1-2.1-0.3
							c-0.1,0.1-0.2,0.2-0.2,0.3L50,46.2z M51.1,43.9c0.6,0.2,1.3,0.3,2,0.3c2.4,0,4.5-1.2,4.7-2.7l0.1-0.6l0.5,0.2
							c0.3,0.1,0.7,0.2,1,0.2c1.2,0,2.2-0.8,2.2-1.7s-1-1.7-2.2-1.7c-0.9,0-1.8,0.5-2.1,1.2l-0.2,0.5l-0.5-0.3
							c-0.9-0.7-2.2-1.1-3.6-1.1c-0.3,0-0.7,0-1,0.1L51.1,43.9z"/>
					</g>
					<g>
						<path class="st1" d="M41,46.5l-0.6-0.5c-1.1-0.9-1.7-2.2-1.8-3.5c-1.1-0.6-1.7-1.7-1.7-3c0-1.9,1.5-3.4,3.4-3.4
							c0.4,0,0.8,0.1,1.2,0.2l0.3,0.1l-0.2,7.3L41,46.5z M40.3,37c-1.4,0-2.5,1.1-2.5,2.5c0,1,0.6,1.9,1.5,2.3l0.3,0.1l0,0.3
							c0,0.9,0.3,1.8,0.9,2.5l0.2-1.1l0.2-6.5C40.7,37,40.5,37,40.3,37z"/>
					</g>
				</g>
			</g>
		</g>
		<g>
			<g>
				<g>
					<path class="st7" d="M71.9,64.9l-1.3-1.8c-0.7-1-1.8-1.7-3-1.9h0c-1.7-0.4-3.5,0.1-4.7,1.3l-1,1c-0.4,0.4-0.7,0.8-1,1.3
						l-1.8,3.5l2.4,3.9l3.1,2.3l3.7-4.2l0.2-0.3c0.2,0.4,0.7,0.5,1.2,0.3c0.3-0.1,0.5-0.3,0.7-0.6l1.1-1.9l1.7-4L71.9,64.9z"/>
					<path class="st1" d="M64.8,74.9l-3.5-2.5l-2.6-4.2l2-3.7c0.3-0.5,0.6-1,1-1.4l1-1c1.4-1.3,3.3-1.9,5.1-1.4
						c1.3,0.3,2.4,1.1,3.2,2.1l1,1.4l2.5-2.5l-2.6,6.2l-1.1,1.9c-0.2,0.4-0.5,0.6-0.9,0.8c-0.4,0.2-0.9,0.2-1.3,0L64.8,74.9z
						 M62,71.7l2.7,2l3.4-3.9l0.6-0.8l0.3,0.6c0.1,0.2,0.3,0.2,0.6,0.1c0.2-0.1,0.3-0.2,0.5-0.4l1.1-1.8l0.8-1.9l0,0l-1.6-2.2
						c-0.7-0.9-1.6-1.5-2.7-1.8c-1.6-0.4-3.2,0.1-4.3,1.2l-1,1c-0.4,0.3-0.6,0.7-0.9,1.2l-1.7,3.2L62,71.7z"/>
				</g>
				<g>
					<path class="st8" d="M69.8,64l-2.7,2.8v1.7l-2.6,3.2l0.8,2.2l0.6-0.7l-0.5-1.3l2.5-3.1v-1.6l2.9-3l-1.1-1.8l0.1-0.1
						c-0.2-0.2-0.4-0.3-0.7-0.5L68.6,62L69.8,64z"/>
				</g>
				<g>
					<path class="st8" d="M64.9,64.5l-0.4,3.1l-1.1,0.8l-1,4.2l0.7,0.5l1-4.2l1.2-0.8l0.4-3.1L68,63v-1.8c-0.1,0-0.2-0.1-0.3-0.1h0
						c-0.2,0-0.3-0.1-0.5-0.1v1.6L64.9,64.5z"/>
				</g>
				<g>
					<path class="st8" d="M63.3,64.3l-2.7,2.7l1.4,4.5c0.1,0.2,0.2,0.3,0.4,0.3c0,0,0.1,0,0.1,0c0.2-0.1,0.3-0.3,0.3-0.5l-1.2-4
						l2.4-2.4l3.1-3.5L66.9,61c-0.3,0-0.5,0-0.8,0l0,0.1L63.3,64.3z"/>
				</g>
				<g>
					<path class="st1" d="M64.8,74.9l-3.5-2.5l-2.6-4.2l2-3.7c0.3-0.5,0.6-1,1-1.4l1-1c1.4-1.3,3.3-1.9,5.1-1.4
						c1.3,0.3,2.4,1.1,3.2,2.1l1,1.4l2.5-2.5l-2.6,6.2l-1.1,1.9c-0.2,0.4-0.5,0.6-0.9,0.8c-0.4,0.2-0.9,0.2-1.3,0L64.8,74.9z
						 M62,71.7l2.7,2l3.4-3.9l0.6-0.8l0.3,0.6c0.1,0.2,0.3,0.2,0.6,0.1c0.2-0.1,0.3-0.2,0.5-0.4l1.1-1.8l0.8-1.9l0,0l-1.6-2.2
						c-0.7-0.9-1.6-1.5-2.7-1.8c-1.6-0.4-3.2,0.1-4.3,1.2l-1,1c-0.4,0.3-0.6,0.7-0.9,1.2l-1.7,3.2L62,71.7z"/>
				</g>
				<g>
					<path class="st8" d="M60.3,61.9c0,0-0.1,0-0.1,0c-0.1-0.1-0.1-0.2-0.1-0.3c1.4-2.4,4.2-2.8,4.3-2.8c0.1,0,0.2,0.1,0.3,0.2
						c0,0.1-0.1,0.2-0.2,0.3c0,0-2.7,0.4-4,2.6C60.5,61.9,60.4,61.9,60.3,61.9z"/>
				</g>
				<g>
					<path class="st8" d="M69.9,59.8c-0.1,0-0.1,0-0.1-0.1c-0.9-0.8-3.5-0.8-3.6-0.8c-0.1,0-0.2-0.1-0.2-0.2c0-0.1,0.1-0.2,0.2-0.2
						c0.1,0,2.8,0.1,3.8,1c0.1,0.1,0.1,0.2,0,0.3C70,59.8,69.9,59.8,69.9,59.8z"/>
				</g>
			</g>
			<g>
				<polygon class="st9" points="57.5,80.2 54.6,77 53.5,71.7 55.7,69.3 59.2,66.2 62.7,70 67.1,73.2 61.2,78.6 				"/>
				<path class="st1" d="M57.3,80.7l-3.2-3.5L53,71.6l2.4-2.6l3.8-3.3l3.7,4.1l4.8,3.4L61.4,79L57.3,80.7z M55,76.8l2.6,2.9l3.4-1.4
					l5.4-5l-4.1-2.9l-3.1-3.5L56,69.6l-2,2.2L55,76.8z"/>
			</g>
			<g>
				<polygon class="st10" points="58.7,79.6 57.5,80.2 54.6,77 53.5,71.7 55.7,69.3 55.7,72.8 				"/>
			</g>
			<g>
				<path class="st1" d="M57.3,80.7l-3.2-3.5L53,71.6l2.4-2.6l3.8-3.3l3.7,4.1l4.8,3.4L61.4,79L57.3,80.7z M55,76.8l2.6,2.9l3.4-1.4
					l5.4-5l-4.1-2.9l-3.1-3.5L56,69.6l-2,2.2L55,76.8z"/>
			</g>
			<g>
				<g>
					<polygon class="st11" points="58.4,82.2 52.8,83.7 44.7,82.9 44.7,68.5 51.6,68.5 55.3,66.9 54.5,73 					"/>
					<path class="st1" d="M52.8,84.2l-8.5-0.8V68h7.2l4.3-1.8l-0.9,6.7l4.1,9.6L52.8,84.2z M45.2,82.5l7.5,0.7l5.1-1.4L54,73
						l0.7-5.4l-3,1.3h-6.5V82.5z"/>
				</g>
				<g>
					<polygon class="st12" points="49.8,68.5 44.7,68.5 44.7,82.9 50.3,83.5 47.9,76.5 					"/>
				</g>
				<g>
					<path class="st1" d="M52.8,84.2l-8.5-0.8V68h7.2l4.3-1.8l-0.9,6.7l4.1,9.6L52.8,84.2z M45.2,82.5l7.5,0.7l5.1-1.4L54,73
						l0.7-5.4l-3,1.3h-6.5V82.5z"/>
				</g>
				<g>
					<line class="st9" x1="50.1" y1="75.3" x2="46.8" y2="77.1"/>
					<path class="st1" d="M46.8,77.5c-0.2,0-0.3-0.1-0.4-0.2c-0.1-0.2,0-0.5,0.2-0.6l3.3-1.8c0.2-0.1,0.5,0,0.6,0.2
						c0.1,0.2,0,0.5-0.2,0.6L47,77.5C46.9,77.5,46.8,77.5,46.8,77.5z"/>
				</g>
				<g>
					<line class="st9" x1="54.5" y1="73" x2="52.7" y2="73.9"/>
					<path class="st1" d="M52.7,74.3c-0.2,0-0.3-0.1-0.4-0.2c-0.1-0.2,0-0.5,0.2-0.6l1.7-0.9c0.2-0.1,0.5,0,0.6,0.2
						c0.1,0.2,0,0.5-0.2,0.6L53,74.3C52.9,74.3,52.8,74.3,52.7,74.3z"/>
				</g>
			</g>
		</g>
		<g>
			<g>
				<path class="st13" d="M36,44.7c0.4-1.5-0.2-3-1.4-3.3c-0.1,0-0.1,0-0.2,0c0.1-0.3,0.1-0.7,0.1-1.1c-0.2-1.5-1.3-2.7-2.6-2.5
					c-1.3,0.1-2.1,1.5-2,3c0.1,1.2,0.9,2.2,1.8,2.5c0,0.1-0.1,0.2-0.1,0.2c-0.1,0.4-0.1,0.7-0.1,1.1c-0.9,0.4-1.6,1.4-1.6,2.7
					c0,0.9,0.4,1.7,0.9,2.2c-0.3,0.5-0.4,1-0.4,1.7c0,1.5,1.1,2.8,2.3,2.8c1.3,0,2.3-1.3,2.2-2.8c0-0.9-0.4-1.7-0.9-2.2
					c0.3-0.5,0.4-1,0.4-1.7c0-0.2,0-0.3,0-0.5C35.1,46.3,35.7,45.6,36,44.7z M32.3,42.1c-0.6,0.1-1.2-0.6-1.3-1.5
					c-0.1-0.9,0.3-1.7,0.9-1.7c0.6-0.1,1.2,0.6,1.3,1.5c0,0.4,0,0.9-0.2,1.2C32.8,41.7,32.5,41.9,32.3,42.1
					C32.3,42.1,32.3,42.1,32.3,42.1z M31.7,45.7c0.3,0.5,0.7,0.9,1.3,1.1c0.1,0,0.2,0,0.2,0c0,0.1,0,0.2,0,0.4
					c0,0.4-0.1,0.8-0.3,1.1c-0.1,0-0.3,0-0.4,0c-0.4,0-0.7,0.1-1,0.3c-0.3-0.3-0.5-0.8-0.5-1.3C31,46.5,31.3,45.9,31.7,45.7z
					 M32.7,52.6c-0.6,0-1.1-0.7-1.1-1.6c0-0.4,0.1-0.8,0.3-1.1c0.1,0,0.3,0,0.4,0c0.4,0,0.7-0.1,1-0.3c0.3,0.3,0.5,0.8,0.5,1.3
					C33.8,51.9,33.3,52.6,32.7,52.6z M34.8,44.4c-0.1,0.5-0.5,0.9-0.8,1.1c-0.3-0.5-0.8-0.9-1.4-1.1c0-0.2,0-0.4,0.1-0.7
					c0.1-0.2,0.2-0.5,0.3-0.7c0.3-0.1,0.5-0.3,0.8-0.6c0.1,0,0.3,0,0.4,0C34.8,42.7,35.1,43.5,34.8,44.4z"/>
				<path class="st1" d="M32.6,54c-1.4,0-2.5-1.3-2.5-3c0-0.6,0.1-1.1,0.4-1.6c-0.5-0.6-0.8-1.4-0.9-2.2c0-1.2,0.6-2.4,1.6-2.8
					c0-0.3,0-0.7,0.1-1c0,0,0,0,0-0.1c-0.9-0.4-1.6-1.4-1.7-2.6c-0.2-1.7,0.8-3.1,2.2-3.3c0.7-0.1,1.3,0.2,1.9,0.7
					c0.5,0.5,0.9,1.2,0.9,2c0,0.3,0,0.6,0,0.9c1.3,0.4,2,2,1.6,3.6l0,0c-0.2,0.9-0.8,1.6-1.5,2c0,0.1,0,0.3,0,0.4
					c0,0.6-0.1,1.1-0.4,1.6c0.5,0.6,0.8,1.4,0.9,2.2C35.2,52.6,34.1,54,32.6,54C32.7,54,32.7,54,32.6,54z M32,38c-0.1,0-0.1,0-0.2,0
					c-1.1,0.1-1.9,1.4-1.8,2.8c0.1,1.1,0.8,2,1.6,2.3l0.2,0.1l-0.1,0.3c0,0,0,0.1,0,0.1c-0.1,0.3-0.1,0.7-0.1,1l0,0.2l-0.1,0.1
					c-0.9,0.4-1.4,1.3-1.4,2.5c0,0.8,0.3,1.5,0.8,2l0.1,0.1L31,49.5c-0.3,0.5-0.4,1-0.4,1.6c0,1.4,1,2.6,2.1,2.5c1.1,0,2-1.2,2-2.6
					c0-0.8-0.3-1.5-0.8-2l-0.1-0.1l0.1-0.2c0.3-0.5,0.4-1,0.4-1.6c0-0.1,0-0.3,0-0.5l0-0.2l0.2-0.1c0.7-0.3,1.2-1,1.4-1.8
					c0.4-1.4-0.2-2.7-1.3-3c0,0-0.1,0-0.1,0c0,0-0.1,0-0.1,0l-0.2,0l0.1-0.2c0.1-0.3,0.1-0.7,0.1-1c-0.1-0.7-0.4-1.3-0.8-1.8
					C33,38.2,32.5,38,32,38z M36,44.7L36,44.7L36,44.7z M32.6,52.9c-0.7,0-1.3-0.8-1.3-1.8c0-0.4,0.1-0.9,0.3-1.2l0.1-0.1l0.2,0
					c0.1,0,0.2,0,0.3,0c0.3,0,0.6-0.1,0.9-0.3l0.1-0.1l0.1,0.1c0.4,0.3,0.6,0.9,0.6,1.5C34,52,33.4,52.8,32.6,52.9
					C32.7,52.9,32.7,52.9,32.6,52.9z M31.9,50.2c-0.1,0.3-0.2,0.5-0.2,0.9c0,0.7,0.4,1.4,0.9,1.4c0,0,0,0,0,0c0.5,0,0.9-0.7,0.9-1.4
					c0-0.4-0.1-0.8-0.4-1.1c-0.3,0.2-0.6,0.3-1,0.3C32.1,50.2,32,50.2,31.9,50.2z M31.6,48.8l-0.1-0.1c-0.4-0.3-0.6-0.9-0.6-1.5
					c0-0.7,0.3-1.4,0.8-1.7l0.2-0.1l0.1,0.2c0.2,0.4,0.5,0.8,1.1,1c0,0,0.1,0,0.1,0l0.2,0l0,0.2c0,0.1,0,0.3,0,0.4
					c0,0.4-0.1,0.9-0.3,1.2l-0.1,0.1l-0.2,0c-0.1,0-0.2,0-0.3,0c-0.3,0-0.6,0.1-0.9,0.3L31.6,48.8z M31.7,46
					c-0.3,0.3-0.4,0.7-0.4,1.2c0,0.4,0.1,0.8,0.4,1.1c0.3-0.2,0.6-0.3,1-0.3c0.1,0,0.2,0,0.3,0c0.1-0.3,0.2-0.5,0.2-0.9
					c0-0.1,0-0.1,0-0.2c0,0-0.1,0-0.1,0C32.4,46.8,32,46.5,31.7,46z M33.9,45.8l-0.1-0.2c-0.3-0.5-0.8-0.9-1.2-1l-0.2,0l0-0.2
					c0-0.3,0-0.5,0.1-0.7c0.1-0.3,0.2-0.5,0.3-0.7l0,0l0.1,0c0.3-0.1,0.5-0.3,0.7-0.5l0-0.1l0.1,0c0.2-0.1,0.4-0.1,0.6,0
					c0.7,0.2,1.1,1.2,0.8,2.1c-0.2,0.6-0.5,1-0.9,1.3L33.9,45.8z M32.8,44.3c0.5,0.2,0.9,0.5,1.2,0.9c0.3-0.2,0.5-0.5,0.6-0.9l0,0
					c0.2-0.7,0-1.5-0.5-1.6c-0.1,0-0.2,0-0.3,0c-0.2,0.2-0.5,0.4-0.7,0.6c-0.1,0.2-0.2,0.3-0.3,0.5C32.9,44,32.8,44.1,32.8,44.3z
					 M32.2,42.4c-0.7,0-1.3-0.7-1.4-1.7c-0.1-1,0.4-1.9,1.1-2c0.4,0,0.7,0.1,1,0.5c0.3,0.3,0.4,0.8,0.5,1.2c0,0.5,0,0.9-0.3,1.3
					l0,0.1l-0.1,0c-0.2,0.1-0.5,0.3-0.6,0.5l-0.1,0.1L32.2,42.4C32.3,42.4,32.3,42.4,32.2,42.4z M32.3,42.1L32.3,42.1L32.3,42.1z
					 M32.3,42.1L32.3,42.1L32.3,42.1z M32,39.1C32,39.1,32,39.1,32,39.1c-0.5,0.1-0.9,0.7-0.8,1.5c0.1,0.7,0.5,1.3,1,1.3
					c0.2-0.2,0.4-0.3,0.6-0.5c0.1-0.3,0.2-0.6,0.2-1c0-0.4-0.2-0.7-0.4-1C32.4,39.2,32.2,39.1,32,39.1z"/>
			</g>
			<g>
				<g>
					<path class="st14" d="M37.1,25.3l-0.5-4.1c-0.2-1.3-1-2.4-2.1-3l0,0c-0.1,0-0.1-0.1-0.2-0.1c-0.5-0.2-0.9-0.6-1-1.2L32.7,15
						l-0.6,1.9c-0.2,0.5-0.6,1-1.1,1.2c0,0,0,0,0,0c-1.2,0.5-2,1.6-2.2,2.9l-0.7,4c-0.1,0.4-0.1,0.8,0,1.1l0,6.1l4.5,4.3l4.3-4.2
						l0.2-6.1C37.1,26,37.1,25.7,37.1,25.3z"/>
					<path class="st1" d="M32.6,37.3l-4.9-4.7l0-6.3c-0.1-0.4,0-0.8,0-1.2l0.7-4c0.2-1.4,1.2-2.6,2.5-3.3c0.4-0.2,0.7-0.5,0.9-0.9
						l1-3.3l1,3.3c0.1,0.4,0.4,0.7,0.8,0.9c0.1,0,0.1,0.1,0.2,0.1c1.3,0.7,2.2,1.9,2.4,3.3l0.5,4.1c0.1,0.4,0,0.8,0,1.2l-0.2,6.2
						L32.6,37.3z M28.6,32.2l4,3.9l3.8-3.7l0.2-6c0.1-0.3,0.1-0.7,0-1v0l-0.5-4.1c-0.1-1.1-0.8-2.1-1.9-2.6c-0.1,0-0.1-0.1-0.2-0.1
						c-0.6-0.3-1.1-0.8-1.3-1.4l-0.1-0.5l-0.1,0.5c-0.2,0.6-0.7,1.2-1.3,1.5c-1,0.5-1.8,1.5-2,2.6l-0.7,4c-0.1,0.3-0.1,0.7,0,1
						l0,0.1L28.6,32.2z M36.9,32.5L36.9,32.5L36.9,32.5z"/>
				</g>
				<g>
					<path class="st9" d="M37.1,25.3l-0.5-4.1c-0.2-1.3-1-2.4-2.1-3l0,0c-0.1,0-0.1-0.1-0.2-0.1c-0.5-0.2-0.9-0.6-1-1.2L32.7,15
						l-0.6,1.9c-0.2,0.5-0.6,1-1.1,1.2c0,0,0,0,0,0c-1.2,0.5-2,1.6-2.2,2.9l-0.7,4"/>
					<path class="st1" d="M37.1,25.7c-0.2,0-0.4-0.2-0.4-0.4l-0.5-4.1c-0.1-1.1-0.8-2.1-1.9-2.6c-0.1,0-0.1-0.1-0.2-0.1
						c-0.6-0.3-1.1-0.8-1.3-1.4l-0.1-0.5l-0.1,0.5c-0.2,0.6-0.7,1.2-1.3,1.5c-1,0.5-1.8,1.5-2,2.6l-0.7,4c0,0.2-0.3,0.4-0.5,0.4
						c-0.2,0-0.4-0.3-0.4-0.5l0.7-4c0.2-1.4,1.2-2.6,2.5-3.3c0.4-0.2,0.7-0.5,0.9-0.9l1-3.3l1,3.3c0.1,0.4,0.4,0.7,0.8,0.9
						c0.1,0,0.1,0.1,0.2,0.1c1.3,0.7,2.2,1.9,2.4,3.3l0.5,4.1C37.6,25.5,37.4,25.7,37.1,25.7C37.1,25.7,37.1,25.7,37.1,25.7z"/>
				</g>
				<g>
					<g>
						<polygon class="st11" points="34.8,39.3 32.6,40.9 30.4,39.3 30.4,24.8 32.6,21.7 34.8,24.8 						"/>
						<path class="st1" d="M32.6,41.4L30,39.5V24.7l2.6-3.8l2.6,3.8v14.8L32.6,41.4z M30.8,39.1l1.7,1.2l1.7-1.2V25l-1.7-2.5
							L30.8,25V39.1z M34.8,39.3L34.8,39.3L34.8,39.3z"/>
					</g>
					<g>
						<line class="st14" x1="32.6" y1="38.7" x2="32.6" y2="40.9"/>
						<path class="st1" d="M32.6,41.3c-0.2,0-0.4-0.2-0.4-0.4v-2.2c0-0.2,0.2-0.4,0.4-0.4c0.2,0,0.4,0.2,0.4,0.4v2.2
							C33,41.1,32.8,41.3,32.6,41.3z"/>
					</g>
					<g>
						<line class="st14" x1="32.6" y1="31.3" x2="32.6" y2="35.4"/>
						<path class="st1" d="M32.6,35.8c-0.2,0-0.4-0.2-0.4-0.4v-4.1c0-0.2,0.2-0.4,0.4-0.4c0.2,0,0.4,0.2,0.4,0.4v4.1
							C33,35.6,32.8,35.8,32.6,35.8z"/>
					</g>
					<g>
						<line class="st14" x1="32.6" y1="21.7" x2="32.6" y2="28.2"/>
						<path class="st1" d="M32.6,28.6c-0.2,0-0.4-0.2-0.4-0.4v-6.5c0-0.2,0.2-0.4,0.4-0.4c0.2,0,0.4,0.2,0.4,0.4v6.5
							C33,28.4,32.8,28.6,32.6,28.6z"/>
					</g>
				</g>
			</g>
		</g>
		<g>
			<g>
				<g>
					<polygon class="st9" points="25.3,54.4 19.8,56.2 14.3,54.4 15.1,47.5 14.3,37 16.5,39.2 19.9,34.6 23.1,39.2 25.3,37 
						24.5,47.7 					"/>
				</g>
				<g>
					<polygon class="st14" points="24.5,47.7 25.3,54.4 19.8,56.2 14.3,54.4 15.1,47.5 19.8,49.1 					"/>
				</g>
				<g>
					<path class="st1" d="M19.8,56.7l-6-2l0.8-7.2l-0.9-11.6l2.7,2.6l3.5-4.7l3.2,4.7l2.7-2.6l-0.9,11.7l0.8,7L19.8,56.7z
						 M14.8,54.1l5,1.7l5-1.7L24,47.7l0,0l0.7-9.5L23,39.9l-3.1-4.5l-3.3,4.5l-1.7-1.7l0.7,9.3L14.8,54.1z"/>
				</g>
				<g>
					<line class="st14" x1="19.8" y1="48.8" x2="19.8" y2="47.1"/>
					<path class="st1" d="M19.8,49.3c-0.2,0-0.4-0.2-0.4-0.4v-1.7c0-0.2,0.2-0.4,0.4-0.4s0.4,0.2,0.4,0.4v1.7
						C20.2,49.1,20,49.3,19.8,49.3z"/>
				</g>
			</g>
			<g>
				<g>
					<path class="st7" d="M24.4,29.8l-0.5-4.1c-0.2-1.3-1-2.4-2.1-3l0,0c-0.1,0-0.1-0.1-0.2-0.1c-0.5-0.2-0.9-0.6-1-1.2L20,19.5
						l-0.6,1.9c-0.2,0.5-0.6,1-1.1,1.2c0,0,0,0,0,0c-1.2,0.5-2,1.6-2.2,2.9l-0.7,4c-0.1,0.4-0.1,0.8,0,1.1l0,6.1l4.5,4.3l4.3-4.2
						l0.2-6.1C24.4,30.5,24.5,30.1,24.4,29.8z"/>
					<path class="st1" d="M19.9,41.8L15,37.1l0-6.3c-0.1-0.4,0-0.8,0-1.2l0.7-4c0.2-1.4,1.2-2.6,2.5-3.3c0.4-0.2,0.7-0.5,0.9-0.9
						l1-3.3l1,3.3c0.1,0.4,0.4,0.7,0.8,0.9c0.1,0,0.1,0.1,0.2,0.1c1.3,0.7,2.2,1.9,2.4,3.3l0.5,4.1c0.1,0.4,0,0.8,0,1.2l-0.2,6.2
						L19.9,41.8z M15.9,36.7l4,3.9l3.8-3.7l0.2-6c0.1-0.3,0.1-0.7,0-1l-0.5-4.1c-0.1-1.1-0.8-2.1-1.9-2.6c-0.1,0-0.1-0.1-0.2-0.1
						c-0.6-0.3-1.1-0.8-1.3-1.4L20,21.1l-0.1,0.5c-0.2,0.6-0.7,1.2-1.3,1.5c-1,0.5-1.8,1.5-2,2.6l-0.7,4c-0.1,0.3-0.1,0.7,0,1l0,0.1
						L15.9,36.7z"/>
				</g>
				<g>
					<path class="st15" d="M24.4,29.8l-0.5-4.1c-0.2-1.3-1-2.4-2.1-3l0,0c-0.1,0-0.1-0.1-0.2-0.1c-0.5-0.2-0.9-0.6-1-1.2L20,19.5
						l-0.6,1.9c-0.2,0.5-0.6,1-1.1,1.2c0,0,0,0,0,0c-1.2,0.5-2,1.6-2.2,2.9l-0.7,4"/>
					<path class="st1" d="M24.4,30.2c-0.2,0-0.4-0.2-0.4-0.4l-0.5-4.1c-0.1-1.1-0.8-2.1-1.9-2.6c-0.1,0-0.1-0.1-0.2-0.1
						c-0.6-0.3-1.1-0.8-1.3-1.4L20,21.1l-0.1,0.5c-0.2,0.6-0.7,1.2-1.3,1.5c-1,0.5-1.8,1.5-2,2.6l-0.7,4c0,0.2-0.3,0.4-0.5,0.4
						c-0.2,0-0.4-0.3-0.4-0.5l0.7-4c0.2-1.4,1.2-2.6,2.5-3.3c0.4-0.2,0.7-0.5,0.9-0.9l1-3.3l1,3.3c0.1,0.4,0.4,0.7,0.8,0.9
						c0.1,0,0.1,0.1,0.2,0.1c1.3,0.7,2.2,1.9,2.4,3.3l0.5,4.1C24.9,29.9,24.7,30.2,24.4,30.2C24.4,30.2,24.4,30.2,24.4,30.2z"/>
				</g>
				<g>
					<path class="st8" d="M16.1,30.9l1.4,3.5L16,37.4l0.6,0.6l1.8-3.5l-1.4-3.6l1.4-5.2l-0.8-2.6c-0.2,0.2-0.4,0.4-0.6,0.6l0.6,2
						L16.1,30.9z"/>
				</g>
				<g>
					<path class="st8" d="M18.8,22.3l1.7,3.4v1.9L19,30.8l2.3,4.3l-3,4.5l0.6,0.5c0,0,0,0,0.1,0l3.3-4.9l-2.3-4.4l1.4-3l0-2.4
						l-2-3.9C19.2,21.8,19.1,22.1,18.8,22.3z"/>
				</g>
				<g>
					<path class="st8" d="M24,33.4l0,3.7l0.2-0.2l0.2-5l-1.8-5.2l1-2.3c-0.1-0.3-0.3-0.5-0.5-0.8l-1.3,3.1L24,33.4z"/>
				</g>
				<g>
					<path class="st1" d="M19.9,41.8L15,37.1l0-6.3c-0.1-0.4,0-0.8,0-1.2l0.7-4c0.2-1.4,1.2-2.6,2.5-3.3c0.4-0.2,0.7-0.5,0.9-0.9
						l1-3.3l1,3.3c0.1,0.4,0.4,0.7,0.8,0.9c0.1,0,0.1,0.1,0.2,0.1c1.3,0.7,2.2,1.9,2.4,3.3l0.5,4.1c0.1,0.4,0,0.8,0,1.2l-0.2,6.2
						L19.9,41.8z M15.9,36.7l4,3.9l3.8-3.7l0.2-6c0.1-0.3,0.1-0.7,0-1l-0.5-4.1c-0.1-1.1-0.8-2.1-1.9-2.6c-0.1,0-0.1-0.1-0.2-0.1
						c-0.6-0.3-1.1-0.8-1.3-1.4L20,21.1l-0.1,0.5c-0.2,0.6-0.7,1.2-1.3,1.5c-1,0.5-1.8,1.5-2,2.6l-0.7,4c-0.1,0.3-0.1,0.7,0,1l0,0.1
						L15.9,36.7z"/>
				</g>
				<g>
					<g>
						<polygon class="st11" points="22.1,43.8 19.9,45.3 17.7,43.8 17.7,29.3 19.9,26.2 22.1,29.3 						"/>
						<path class="st1" d="M19.9,45.9L17.3,44V29.2l2.6-3.8l2.6,3.8V44L19.9,45.9z M18.2,43.5l1.7,1.2l1.7-1.2V29.5L19.9,27
							l-1.7,2.5V43.5z M22.1,43.8L22.1,43.8L22.1,43.8z"/>
					</g>
					<g>
						<line class="st14" x1="19.9" y1="43.2" x2="19.9" y2="45.3"/>
						<path class="st1" d="M19.9,45.8c-0.2,0-0.4-0.2-0.4-0.4v-2.2c0-0.2,0.2-0.4,0.4-0.4s0.4,0.2,0.4,0.4v2.2
							C20.4,45.6,20.2,45.8,19.9,45.8z"/>
					</g>
					<g>
						<line class="st14" x1="19.9" y1="39.9" x2="19.9" y2="35.8"/>
						<path class="st1" d="M19.9,40.3c-0.2,0-0.4-0.2-0.4-0.4v-4.1c0-0.2,0.2-0.4,0.4-0.4s0.4,0.2,0.4,0.4v4.1
							C20.4,40.1,20.2,40.3,19.9,40.3z"/>
					</g>
					<g>
						<line class="st14" x1="19.9" y1="26.2" x2="19.9" y2="32.7"/>
						<path class="st1" d="M19.9,33.1c-0.2,0-0.4-0.2-0.4-0.4v-6.5c0-0.2,0.2-0.4,0.4-0.4s0.4,0.2,0.4,0.4v6.5
							C20.4,32.9,20.2,33.1,19.9,33.1z"/>
					</g>
				</g>
				<g>
					<path class="st8" d="M13.9,25.2C13.9,25.2,13.8,25.2,13.9,25.2c-0.1,0-0.2-0.1-0.2-0.2c0.1-3.2,2.8-4.1,2.8-4.1
						c0.1,0,0.2,0,0.3,0.1c0,0.1,0,0.2-0.1,0.3c-0.1,0-2.4,0.8-2.5,3.7C14.1,25.1,14,25.2,13.9,25.2z"/>
				</g>
				<g>
					<path class="st8" d="M24.8,22.5c-0.1,0-0.2-0.1-0.2-0.1C24,21.1,23,21,23,21c-0.1,0-0.2-0.1-0.2-0.2c0-0.1,0.1-0.2,0.2-0.2
						c0.1,0,1.3,0.1,1.9,1.7C25,22.3,25,22.5,24.8,22.5C24.8,22.5,24.8,22.5,24.8,22.5z"/>
				</g>
			</g>
		</g>
		<g>
			<g>
				<g>
					<path class="st14" d="M10.4,32.5l0.1-2.2c0.1-0.3,0.1-0.6,0-0.9L10,26.1c-0.1-1-0.8-2-1.7-2.4l0,0c-0.1,0-0.1-0.1-0.2-0.1
						c-0.4-0.2-0.7-0.5-0.8-0.9l-0.5-1.6l-0.5,1.5c-0.1,0.4-0.5,0.8-0.9,1c0,0,0,0,0,0c-1,0.4-1.6,1.3-1.8,2.4l-0.5,3.3
						c-0.1,0.3-0.1,0.6,0,0.9l0,2l3.7-0.5L10.4,32.5z"/>
					<path class="st1" d="M10.8,33.1l-4-0.9l-4.1,0.5l0-2.4c0-0.3,0-0.7,0-1l0.5-3.3c0.2-1.2,1-2.2,2.1-2.7c0.3-0.2,0.6-0.4,0.7-0.7
						l0.9-3l0.9,3C7.8,22.8,8,23,8.3,23.1c0.1,0,0.1,0.1,0.2,0.1c1.1,0.6,1.8,1.6,2,2.8l0.4,3.3c0,0.3,0,0.7,0,1L10.8,33.1z
						 M6.8,31.3L9.9,32l0.1-1.7c0-0.3,0-0.5,0-0.8l-0.4-3.3c-0.1-0.9-0.7-1.7-1.5-2.1C8,24,8,24,7.9,24c-0.5-0.2-0.9-0.7-1.1-1.2
						l0-0.1l0,0.1c-0.2,0.5-0.6,1-1.1,1.2c-0.8,0.4-1.4,1.2-1.6,2.1l-0.5,3.3c0,0.3,0,0.5,0,0.8l0,0.1l0,1.5L6.8,31.3z"/>
				</g>
				<g>
					<path class="st9" d="M10.4,29.4L10,26.1c-0.1-1-0.8-2-1.7-2.4l0,0c-0.1,0-0.1-0.1-0.2-0.1c-0.4-0.2-0.7-0.5-0.8-0.9l-0.5-1.6
						l-0.5,1.5c-0.1,0.4-0.5,0.8-0.9,1c0,0,0,0,0,0c-1,0.4-1.6,1.3-1.8,2.4l-0.5,3.3"/>
					<path class="st1" d="M10.4,29.9c-0.2,0-0.4-0.2-0.4-0.4l-0.4-3.3c-0.1-0.9-0.7-1.7-1.5-2.1C8,24,8,24,7.9,24
						c-0.5-0.2-0.9-0.7-1.1-1.2l0-0.1l0,0.1c-0.2,0.5-0.6,1-1.1,1.2c-0.8,0.4-1.4,1.2-1.6,2.1l-0.5,3.3c0,0.2-0.3,0.4-0.5,0.4
						c-0.2,0-0.4-0.3-0.4-0.5l0.5-3.3c0.2-1.2,1-2.2,2.1-2.7c0.3-0.2,0.6-0.4,0.7-0.7l0.9-3l0.9,3C7.8,22.8,8,23,8.3,23.1
						c0.1,0,0.1,0.1,0.2,0.1c1.1,0.6,1.8,1.6,2,2.8l0.4,3.3C10.9,29.6,10.8,29.8,10.4,29.9C10.5,29.9,10.5,29.9,10.4,29.9z"/>
				</g>
			</g>
			<g>
				<g>
					<polygon class="st14" points="3.1,35.2 6.6,34.6 9.9,35.2 9.7,37.8 10.4,40.7 6.5,39.6 2.6,40.8 3.4,37.8 					"/>
					<path class="st1" d="M2,41.5l1-3.7l-0.3-3l3.9-0.6l3.8,0.6l-0.3,3l1,3.5l-4.5-1.2L2,41.5z M3.6,35.5l0.2,2.3l-0.6,2.3l3.3-1
						l3.3,0.9l-0.6-2.2l0.2-2.3l-2.8-0.5L3.6,35.5z"/>
				</g>
				<g>
					<polygon class="st9" points="9.7,37.8 9.9,35.2 6.6,34.6 6.6,37.3 					"/>
				</g>
				<g>
					<path class="st1" d="M2,41.5l1-3.7l-0.3-3l3.9-0.6l3.8,0.6l-0.3,3l1,3.5l-4.5-1.2L2,41.5z M3.6,35.5l0.2,2.3l-0.6,2.3l3.3-1
						l3.3,0.9l-0.6-2.2l0.2-2.3l-2.8-0.5L3.6,35.5z"/>
				</g>
			</g>
			<g>
				<g>
					<polygon class="st14" points="10.8,42.9 11.9,47.5 12.1,55 7.8,57.8 3.7,53.8 3.7,47.1 2.6,42.9 6.5,41.8 					"/>
					<path class="st1" d="M7.7,58.4L3.3,54v-6.8l-1.1-4.6l4.4-1.3l4.6,1.3l1.2,4.9l0.2,7.8L7.7,58.4z M4.1,53.6l3.7,3.6l3.8-2.4
						l-0.2-7.2l-1.1-4.3l-3.8-1.1l-3.4,1l1,3.9V53.6z"/>
				</g>
				<g>
					<line class="st14" x1="7.4" y1="45.4" x2="7.8" y2="47.1"/>
					<path class="st1" d="M7.8,47.6c-0.2,0-0.4-0.1-0.4-0.3l-0.4-1.7C6.9,45.3,7,45,7.3,45c0.2-0.1,0.5,0.1,0.5,0.3L8.2,47
						C8.3,47.3,8.1,47.5,7.8,47.6C7.8,47.6,7.8,47.6,7.8,47.6z"/>
				</g>
				<g>
					<line class="st14" x1="6.5" y1="41.8" x2="7" y2="43.6"/>
					<path class="st1" d="M7,44.1c-0.2,0-0.4-0.1-0.4-0.3l-0.4-1.9c-0.1-0.2,0.1-0.5,0.3-0.5c0.2-0.1,0.5,0.1,0.5,0.3l0.4,1.9
						C7.5,43.8,7.3,44,7,44.1C7,44.1,7,44.1,7,44.1z"/>
				</g>
				<g>
					<line class="st14" x1="8.3" y1="51.1" x2="8" y2="56.4"/>
					<path class="st1" d="M8,56.8C8,56.8,8,56.8,8,56.8c-0.3,0-0.5-0.2-0.4-0.5l0.2-5.2c0-0.2,0.2-0.4,0.5-0.4
						c0.2,0,0.4,0.2,0.4,0.5l-0.2,5.2C8.4,56.6,8.2,56.8,8,56.8z"/>
				</g>
			</g>
		</g>
		<g>
			<g>
				<g>
					<polygon class="st11" points="46.8,96 40.4,99.9 24.8,96 11.9,99.9 4.7,96 6.4,88.1 4.7,79.6 25.6,79.6 46.8,79.6 45.1,87.3 
											"/>
					<path class="st1" d="M11.8,100.4l-7.6-4.2l1.7-8.1l-1.7-8.9h43.1l-1.7,8.1l1.7,8.9l-6.8,4.2l-15.6-3.9L11.8,100.4z M24.8,95.5
						l15.5,3.9l5.9-3.7l-1.6-8.4l1.6-7.2H5.3l1.6,8l-1.6,7.6l6.7,3.7L24.8,95.5z"/>
				</g>
				<g>
					<polygon class="st16" points="45.1,87.3 46.8,79.6 25.6,79.6 4.7,79.6 6.4,88.1 26.6,93 					"/>
				</g>
				<g>
					<path class="st1" d="M11.8,100.4l-7.6-4.2l1.7-8.1l-1.7-8.9h43.1l-1.7,8.1l1.7,8.9l-6.8,4.2l-15.6-3.9L11.8,100.4z M24.8,95.5
						l15.5,3.9l5.9-3.7l-1.6-8.4l1.6-7.2H5.3l1.6,8l-1.6,7.6l6.7,3.7L24.8,95.5z"/>
				</g>
				<g>
					<line class="st11" x1="11.9" y1="99.9" x2="11.8" y2="95.1"/>
					<path class="st1" d="M11.9,100.3c-0.2,0-0.4-0.2-0.4-0.4l-0.1-4.8c0-0.2,0.2-0.4,0.4-0.5c0,0,0,0,0,0c0.2,0,0.4,0.2,0.4,0.4
						l0.1,4.8C12.3,100.1,12.1,100.3,11.9,100.3C11.9,100.3,11.9,100.3,11.9,100.3z"/>
				</g>
				<g>
					<line class="st11" x1="40.4" y1="99.9" x2="40.3" y2="95.1"/>
					<path class="st1" d="M40.4,100.3c-0.2,0-0.4-0.2-0.4-0.4l-0.1-4.8c0-0.2,0.2-0.5,0.4-0.5c0.2,0,0.5,0.2,0.5,0.4l0.1,4.8
						C40.8,100.1,40.6,100.3,40.4,100.3C40.4,100.3,40.4,100.3,40.4,100.3z"/>
				</g>
			</g>
			<g>
				<g>
					<g>
						<path class="st14" d="M49.1,85l-22.5,5.5c0,0-16.8-2.8-21.9-5.2c-1.1-0.5-0.4-14.6-0.4-14.6l-0.5-9.6
							c-0.1-2.5,1.7-4.6,4.2-4.7l18.3-1.3l18.3,1.3c2.5,0.2,4.3,2.3,4.2,4.7L48.6,68l-1.8,9.1L49.1,85z"/>
						<path class="st1" d="M26.6,90.9L26.6,90.9c-0.8-0.1-17-2.9-22.1-5.2c-0.4-0.2-1-0.4-0.9-7.9c0-3.4,0.2-6.8,0.2-7.1l-0.5-9.5
							c-0.2-2.7,1.9-5,4.6-5.2l18.4-1.3l0,0l18.3,1.3c2.7,0.2,4.8,2.5,4.6,5.2l-0.3,7l-1.8,9l2.5,8.2L26.6,90.9z M5,84.9
							c4.9,2.2,20.3,4.8,21.6,5.1l22-5.4l-2.2-7.5l1.9-9.1l0.3-6.9c0.1-2.2-1.6-4.1-3.8-4.3l-18.3-1.3L8,56.8
							c-2.2,0.2-3.9,2.1-3.8,4.3l0.5,9.6l0,0C4.5,77.1,4.4,84.1,5,84.9z"/>
					</g>
					<g>
						<path class="st17" d="M48.7,65.8l0.2-4.7c0.1-2.5-1.7-4.6-4.2-4.7l-18.3-1.3L8,56.4c-2.5,0.2-4.3,2.3-4.2,4.7l0.3,5.3l7.7,0.3
							L26.3,63l12.4,3.8L48.7,65.8z"/>
					</g>
					<g>
						<path class="st1" d="M26.6,90.9L26.6,90.9c-0.8-0.1-17-2.9-22.1-5.2c-0.4-0.2-1-0.4-0.9-7.9c0-3.4,0.2-6.8,0.2-7.1l-0.5-9.5
							c-0.2-2.7,1.9-5,4.6-5.2l18.4-1.3l0,0l18.3,1.3c2.7,0.2,4.8,2.5,4.6,5.2l-0.3,7l-1.8,9l2.5,8.2L26.6,90.9z M5,84.9
							c4.9,2.2,20.3,4.8,21.6,5.1l22-5.4l-2.2-7.5l1.9-9.1l0.3-6.9c0.1-2.2-1.6-4.1-3.8-4.3l-18.3-1.3L8,56.8
							c-2.2,0.2-3.9,2.1-3.8,4.3l0.5,9.6l0,0C4.5,77.1,4.4,84.1,5,84.9z"/>
					</g>
					<g>
						<line class="st14" x1="26.6" y1="67.2" x2="26.6" y2="64.4"/>
						<path class="st1" d="M26.6,67.7c-0.2,0-0.4-0.2-0.4-0.4v-2.9c0-0.2,0.2-0.4,0.4-0.4s0.4,0.2,0.4,0.4v2.9
							C27,67.5,26.8,67.7,26.6,67.7z"/>
					</g>
					<g>
						<line class="st14" x1="26.6" y1="79.4" x2="26.6" y2="71.2"/>
						<path class="st1" d="M26.6,79.8c-0.2,0-0.4-0.2-0.4-0.4v-8.1c0-0.2,0.2-0.4,0.4-0.4S27,71,27,71.2v8.1
							C27,79.6,26.8,79.8,26.6,79.8z"/>
					</g>
					<g>
						<line class="st14" x1="26.6" y1="90.5" x2="26.6" y2="84.1"/>
						<path class="st1" d="M26.6,90.9c-0.2,0-0.4-0.2-0.4-0.4v-6.3c0-0.2,0.2-0.4,0.4-0.4s0.4,0.2,0.4,0.4v6.3
							C27,90.7,26.8,90.9,26.6,90.9z"/>
					</g>
				</g>
				<g>
					<g>
						<polygon class="st11" points="50,64.4 39,64.4 26.4,60.4 11.6,64.4 2.8,64.4 2,59.4 2.8,53 9.3,56.2 26.4,53 42.8,56.2 50,53 
							50.8,59.4 						"/>
						<path class="st1" d="M50.4,64.8l-11.5,0l-12.5-3.9l-14.8,3.9H2.4l-0.9-5.4l0.9-7l7,3.3l17-3.1l16.3,3.1l7.7-3.3l0.9,7
							L50.4,64.8z M39.1,63.9h10.6l0.7-4.5l-0.7-5.7l-6.8,3l-16.4-3.1L9.2,56.6l-6.1-2.9l-0.7,5.7l0.7,4.5h8.4L26.4,60L39.1,63.9z"
							/>
					</g>
					<g>
						<line class="st11" x1="26.4" y1="59" x2="26.4" y2="60.4"/>
						<path class="st1" d="M26.4,60.9c-0.2,0-0.4-0.2-0.4-0.4V59c0-0.2,0.2-0.4,0.4-0.4s0.4,0.2,0.4,0.4v1.5
							C26.8,60.7,26.6,60.9,26.4,60.9z"/>
					</g>
					<g>
						<line class="st11" x1="26.4" y1="53" x2="26.4" y2="57"/>
						<path class="st1" d="M26.4,57.5c-0.2,0-0.4-0.2-0.4-0.4v-4c0-0.2,0.2-0.4,0.4-0.4s0.4,0.2,0.4,0.4v4
							C26.8,57.3,26.6,57.5,26.4,57.5z"/>
					</g>
					<g>
						<line class="st11" x1="40.3" y1="61.5" x2="39" y2="64.4"/>
						<path class="st1" d="M39,64.8c-0.1,0-0.1,0-0.2,0c-0.2-0.1-0.3-0.4-0.2-0.6l1.3-2.8c0.1-0.2,0.4-0.3,0.6-0.2
							c0.2,0.1,0.3,0.4,0.2,0.6l-1.3,2.8C39.3,64.7,39.2,64.8,39,64.8z"/>
					</g>
					<g>
						<line class="st11" x1="42.8" y1="56.2" x2="41.5" y2="59"/>
						<path class="st1" d="M41.5,59.4c-0.1,0-0.1,0-0.2,0c-0.2-0.1-0.3-0.4-0.2-0.6l1.3-2.8c0.1-0.2,0.4-0.3,0.6-0.2
							c0.2,0.1,0.3,0.4,0.2,0.6l-1.3,2.8C41.8,59.3,41.7,59.4,41.5,59.4z"/>
					</g>
					<g>
						<line class="st11" x1="10.5" y1="60.4" x2="11.6" y2="64.4"/>
						<path class="st1" d="M11.6,64.8c-0.2,0-0.4-0.1-0.4-0.3L10,60.6c-0.1-0.2,0.1-0.5,0.3-0.5c0.2-0.1,0.5,0.1,0.5,0.3l1.1,3.9
							c0.1,0.2-0.1,0.5-0.3,0.5C11.6,64.8,11.6,64.8,11.6,64.8z"/>
					</g>
					<g>
						<line class="st11" x1="9.3" y1="56.2" x2="9.7" y2="57.8"/>
						<path class="st1" d="M9.7,58.3c-0.2,0-0.4-0.1-0.4-0.3l-0.5-1.6c-0.1-0.2,0.1-0.5,0.3-0.5c0.2-0.1,0.5,0.1,0.5,0.3l0.5,1.6
							c0.1,0.2-0.1,0.5-0.3,0.5C9.8,58.2,9.8,58.3,9.7,58.3z"/>
					</g>
				</g>
				<g>
					<g>
						<polygon class="st18" points="36.3,55.8 32.4,63.4 28.6,55.8 32.4,51.9 						"/>
					</g>
					<g>
						<polygon class="st19" points="28.6,55.8 32.4,63.4 32.5,55.9 						"/>
					</g>
					<g>
						<polygon class="st20" points="32.4,51.9 36.3,55.8 32.5,55.9 						"/>
					</g>
					<g>
						<path class="st1" d="M32.4,64.4L28,55.7l4.4-4.4l4.4,4.4L32.4,64.4z M29.1,55.9l3.3,6.6l3.3-6.6l-3.3-3.3L29.1,55.9z"/>
					</g>
				</g>
				<g>
					<g>
						<polygon class="st18" points="47.6,57.5 43.8,65.2 39.9,57.5 43.8,53.7 						"/>
					</g>
					<g>
						<polygon class="st19" points="39.9,57.5 43.8,65.2 43.9,57.7 						"/>
					</g>
					<g>
						<polygon class="st20" points="43.8,53.7 47.6,57.5 43.9,57.7 						"/>
					</g>
					<g>
						<path class="st1" d="M43.8,66.2l-4.4-8.7l4.4-4.4l4.4,4.4L43.8,66.2z M40.5,57.6l3.3,6.6l3.3-6.6l-3.3-3.3L40.5,57.6z"/>
					</g>
				</g>
				<g>
					<g>
						<polygon class="st18" points="23.6,55.8 19.8,63.4 15.9,55.8 19.8,52 						"/>
					</g>
					<g>
						<polygon class="st19" points="15.9,55.8 19.8,63.4 19.9,56 						"/>
					</g>
					<g>
						<polygon class="st20" points="19.8,52 23.6,55.8 19.9,56 						"/>
					</g>
					<g>
						<path class="st1" d="M19.8,64.4l-4.4-8.7l4.4-4.4l4.4,4.4L19.8,64.4z M16.5,55.9l3.3,6.6l3.3-6.6l-3.3-3.3L16.5,55.9z"/>
					</g>
				</g>
				<g>
					<g>
						<polygon class="st18" points="12.7,57.6 8.8,65.3 5,57.6 8.8,53.8 						"/>
					</g>
					<g>
						<polygon class="st19" points="5,57.6 8.8,65.3 9,57.8 						"/>
					</g>
					<g>
						<polygon class="st20" points="8.8,53.8 12.7,57.6 9,57.8 						"/>
					</g>
					<g>
						<path class="st1" d="M8.8,66.3l-4.4-8.7l4.4-4.4l4.4,4.4L8.8,66.3z M5.5,57.7l3.3,6.6l3.3-6.6l-3.3-3.3L5.5,57.7z"/>
					</g>
				</g>
			</g>
		</g>
	</g>
</g>
</svg>
