<?xml version="1.0" encoding="utf-8"?>
<!-- Generator: Adobe Illustrator 24.2.3, SVG Export Plug-In . SVG Version: 6.00 Build 0)  -->
<svg version="1.1" id="Lag_1" xmlns="http://www.w3.org/2000/svg" xmlns:xlink="http://www.w3.org/1999/xlink" x="0px" y="0px"
	 viewBox="0 0 124 191" style="enable-background:new 0 0 124 191;" xml:space="preserve">
<style type="text/css">
	.st0{fill:#664536;}
	.st1{fill:#110B09;}
	.st2{fill:#DBC2B9;}
	.st3{fill:#473129;}
	.st4{fill:#D6B78A;}
	.st5{fill:#E5C9A3;}
	.st6{fill:#EDD7BC;}
	.st7{clip-path:url(#SVGID_2_);}
	.st8{fill:#BFB19D;}
	.st9{fill:#E8DECA;}
	.st10{fill:#725B4C;}
	.st11{fill:#A0785A;}
	.st12{fill:#B2876B;}
	.st13{fill:#9AD8C2;}
	.st14{fill:#A6AF9C;}
	.st15{opacity:0.66;}
	.st16{fill:#7F6B55;}
	.st17{fill:#705F4F;}
	.st18{fill:#CCBD72;}
	.st19{fill:#F2EBCE;}
	.st20{opacity:0.87;}
	.st21{fill:#FFFFFF;}
	.st22{opacity:0.56;}
	.st23{fill:#CCC6B8;}
	.st24{fill:#D8D4CA;}
	.st25{fill:#E8E4DA;}
	.st26{fill:#B6BDBF;}
	.st27{fill:#E8ECED;}
	.st28{opacity:0.53;}
	.st29{fill:#95C6C1;}
	.st30{fill:#8BB2AD;}
	.st31{fill:#93BAB4;}
	.st32{fill:#84A5A0;}
	.st33{fill:#91B7B1;}
	.st34{fill:#A9D3CE;}
	.st35{fill:#E2DED3;}
	.st36{fill:#B2AFA6;}
</style>
<g>
	<g>
		
			<ellipse transform="matrix(0.1967 -0.9805 0.9805 0.1967 -93.149 177.9187)" class="st0" cx="62" cy="145.8" rx="42.5" ry="59.9"/>
		<path class="st1" d="M70.1,189.7c-5.4,0-11-0.6-16.5-1.7c-15.8-3.2-29.8-10.5-39.4-20.7c-9.7-10.2-13.7-22.1-11.5-33.5
			c4.7-23.3,35.1-36.9,67.9-30.4c32.7,6.6,55.6,30.9,50.9,54.2c-2.3,11.3-10.6,20.7-23.5,26.5C89.6,187.9,80.1,189.7,70.1,189.7z
			 M54,103.1c-25.4,0-46.4,12.3-50.2,31c-2.2,10.9,1.8,22.4,11.1,32.4c9.4,10,23.2,17.2,38.8,20.4c15.6,3.1,31.1,1.8,43.6-3.8
			c12.5-5.6,20.6-14.6,22.8-25.6l0,0c4.5-22.6-17.9-46.3-49.9-52.7C64.7,103.6,59.3,103.1,54,103.1z"/>
	</g>
	<g>
		<path class="st2" d="M111,132.3c-0.2,0-0.4-0.1-0.5-0.3c-1.2-1.7-2.5-3.4-4-5c-0.2-0.3-0.2-0.6,0-0.9c0.3-0.2,0.6-0.2,0.9,0
			c1.5,1.6,2.9,3.4,4.1,5.1c0.2,0.3,0.1,0.7-0.2,0.9C111.2,132.3,111.1,132.3,111,132.3z"/>
	</g>
	<g>
		<path class="st2" d="M103.6,123.9c-0.1,0-0.3-0.1-0.4-0.2c-3.5-3.2-7.4-6-11.8-8.5c-0.3-0.2-0.4-0.5-0.2-0.8
			c0.2-0.3,0.5-0.4,0.8-0.2c4.5,2.5,8.6,5.4,12.1,8.6c0.3,0.2,0.3,0.6,0,0.9C103.9,123.8,103.8,123.9,103.6,123.9z"/>
	</g>
	<g>
		<path class="st2" d="M83.5,111.5c-0.1,0-0.2,0-0.2,0c-2.9-1.2-5.9-2.2-9-3c-0.3-0.1-0.5-0.4-0.4-0.8c0.1-0.3,0.4-0.5,0.8-0.4
			c3.1,0.8,6.2,1.8,9.1,3c0.3,0.1,0.5,0.5,0.3,0.8C84,111.4,83.8,111.5,83.5,111.5z"/>
	</g>
	<g>
		<ellipse transform="matrix(0.1967 -0.9805 0.9805 0.1967 -93.149 177.9187)" class="st3" cx="62" cy="145.8" rx="38" ry="53.6"/>
	</g>
	<g>
		
			<ellipse transform="matrix(0.1967 -0.9805 0.9805 0.1967 -93.149 177.9187)" class="st4" cx="62" cy="145.8" rx="35.5" ry="50.1"/>
		<path class="st1" d="M68.6,182.6c-4.5,0-9.1-0.4-13.7-1.4c-27.4-5.5-46.5-25.8-42.6-45.4c3.9-19.5,29.4-30.9,56.8-25.4
			c27.4,5.5,46.5,25.8,42.6,45.4l0,0C108.4,172,90.3,182.6,68.6,182.6z M55.4,110.3c-21.1,0-38.7,10.2-41.8,25.8
			c-3.8,18.8,14.9,38.5,41.6,43.9c26.7,5.4,51.6-5.6,55.3-24.5l0,0c3.8-18.8-14.9-38.5-41.6-43.9C64.3,110.7,59.7,110.3,55.4,110.3z
			"/>
	</g>
	<g>
		<ellipse transform="matrix(0.1967 -0.9805 0.9805 0.1967 -93.149 177.9187)" class="st5" cx="62" cy="145.8" rx="31" ry="43.8"/>
	</g>
	<g>
		
			<ellipse transform="matrix(0.1967 -0.9805 0.9805 0.1967 -93.149 177.9187)" class="st6" cx="62" cy="145.8" rx="25.8" ry="36.4"/>
	</g>
	<g>
		<defs>
			<path id="SVGID_1_" d="M98.2,124.9L114.7,2.4l-62-8.3L36.8,112.5C24.3,116.6,15.1,125,12.9,136c-3.9,19.2,15,39.2,42.1,44.6
				c27.1,5.4,52.2-5.7,56.1-24.9C113.3,144.7,108.1,133.5,98.2,124.9z"/>
		</defs>
		<clipPath id="SVGID_2_">
			<use xlink:href="#SVGID_1_"  style="overflow:visible;"/>
		</clipPath>
		<g class="st7">
			<g>
				<g>
					<g>
						
							<rect x="40.3" y="79.5" transform="matrix(0.9911 0.1329 -0.1329 0.9911 20.3058 -7.1231)" class="st8" width="46.4" height="138"/>
						<path class="st1" d="M77.8,220.7l-47.2-6.3L49.2,76.3l47.2,6.3L77.8,220.7z M32,213.3l44.7,6L95,83.7l-44.7-6L32,213.3z"/>
					</g>
					<g>
						
							<rect x="45.3" y="79.5" transform="matrix(0.9911 0.1329 -0.1329 0.9911 20.3058 -7.1231)" class="st9" width="36.4" height="138"/>
					</g>
					<g>
						<path class="st1" d="M77.8,220.7l-47.2-6.3L49.2,76.3l47.2,6.3L77.8,220.7z M32,213.3l44.7,6L95,83.7l-44.7-6L32,213.3z"/>
					</g>
				</g>
				<g>
					<g>
						<path class="st10" d="M65.7,218.5l-22.7-3l1.1-7.9c0.9-7.1,4-13.7,8.7-19.1l0.6-0.7c1.2-1.4,2.3-2.8,3.2-4.3l2.8-4.4l2,6.1
							c0.5,1.6,1.2,3.2,1.9,4.7l0,0c3.2,6.5,4.4,13.8,3.4,20.9L65.7,218.5z"/>
						<path class="st1" d="M66.2,219.2L42.3,216l1.1-8.5c1-7.2,4-13.9,8.8-19.4l0.6-0.7c1.2-1.3,2.2-2.7,3.2-4.2l3.5-5.5l2.4,7.3
							c0.5,1.6,1.2,3.2,1.9,4.7c3.3,6.6,4.5,14,3.5,21.3L66.2,219.2z M43.7,214.9l21.5,2.9l1-7.2c0.9-7.1-0.2-14.2-3.4-20.6
							c-0.8-1.5-1.4-3.2-2-4.8l-1.6-4.8l-2.1,3.3c-1,1.5-2.1,3-3.3,4.4l-0.6,0.7c-4.6,5.3-7.6,11.8-8.5,18.8L43.7,214.9z"/>
					</g>
					<g>
						<path class="st11" d="M62.7,218L46,215.8l1.3-10.1c0.7-5.2,2.9-10.1,6.4-14l0.5-0.5c0.9-1,1.7-2,2.4-3.2l2.1-3.3l1.5,4.5
							c0.4,1.2,0.9,2.4,1.4,3.5h0c2.3,4.8,3.2,10.1,2.5,15.4L62.7,218z"/>
						<path class="st1" d="M63.2,218.7l-17.9-2.4l1.4-10.7c0.7-5.3,3-10.3,6.5-14.4l0.5-0.5c0.8-1,1.6-2,2.3-3.1l2.8-4.4l1.9,5.7
							c0.4,1.2,0.8,2.3,1.4,3.4c2.4,4.9,3.3,10.3,2.6,15.7L63.2,218.7z M46.7,215.3l15.4,2.1l1.3-9.3c0.7-5.2-0.2-10.3-2.5-15
							c-0.6-1.1-1.1-2.3-1.4-3.6l-1.1-3.2l-1.4,2.2c-0.7,1.1-1.5,2.2-2.4,3.2l-0.5,0.5c-3.4,3.9-5.5,8.6-6.2,13.7L46.7,215.3z"/>
					</g>
					<g>
						<path class="st12" d="M58.6,184.8l1.5,4.5c0.4,1.2,0.9,2.4,1.4,3.5h0c2.3,4.8,3.2,10.1,2.5,15.4l-1.3,10l-8.4-1.1"/>
						<path class="st1" d="M63.2,218.7l-9-1.2l0.2-1.2l7.7,1l1.3-9.3c0.7-5.2-0.2-10.3-2.5-15c-0.6-1.1-1.1-2.3-1.4-3.6L58,185
							l1.2-0.4l1.5,4.5c0.4,1.2,0.8,2.3,1.4,3.4c2.4,4.9,3.3,10.3,2.6,15.7L63.2,218.7z"/>
					</g>
					<g>
						<path class="st1" d="M63.2,218.7l-17.9-2.4l1.4-10.7c0.7-5.3,3-10.3,6.5-14.4l0.5-0.5c0.8-1,1.6-2,2.3-3.1l2.8-4.4l1.9,5.7
							c0.4,1.2,0.8,2.3,1.4,3.4c2.4,4.9,3.3,10.3,2.6,15.7L63.2,218.7z M46.7,215.3l15.4,2.1l1.3-9.3c0.7-5.2-0.2-10.3-2.5-15
							c-0.6-1.1-1.1-2.3-1.4-3.6l-1.1-3.2l-1.4,2.2c-0.7,1.1-1.5,2.2-2.4,3.2l-0.5,0.5c-3.4,3.9-5.5,8.6-6.2,13.7L46.7,215.3z"/>
					</g>
				</g>
				<g>
					<g>
						<g>
							<polygon class="st13" points="75.1,158.1 59.9,171 48.7,154.6 53,122.7 79.3,126.2 							"/>
							<path class="st1" d="M59.8,171.9l-11.7-17.2l4.4-32.7l27.5,3.7l-4.4,32.7L59.8,171.9z M49.4,154.4l10.7,15.7l14.4-12.3
								l4.2-31l-25.1-3.4L49.4,154.4z"/>
						</g>
						<g>
							<polygon class="st14" points="72.2,154.9 60.8,164.7 52.3,152.3 56.2,123.7 76,126.4 							"/>
							<path class="st1" d="M60.7,165.6l-9-13.2l3.9-29.4l21.1,2.8l-3.9,29.4L60.7,165.6z M53,152.1l7.9,11.6l10.7-9.1l3.7-27.7
								l-18.6-2.5L53,152.1z"/>
						</g>
						<g>
							<g class="st15">
								
									<rect x="52.7" y="124.6" transform="matrix(0.9911 0.1329 -0.1329 0.9911 17.2499 -7.6634)" class="st1" width="26.6" height="1.4"/>
							</g>
							<g>
								<g>
									
										<rect x="48.7" y="121.8" transform="matrix(0.9911 0.1329 -0.1329 0.9911 16.9855 -7.6372)" class="st16" width="34.1" height="3.2"/>
									<path class="st1" d="M82.9,127.9l-35-4.7l0.6-4.4l35,4.7L82.9,127.9z M49.3,122.2l32.5,4.4l0.3-1.9l-32.5-4.4L49.3,122.2z"
										/>
								</g>
								<g>
									<polyline class="st17" points="48.8,121.1 49,119.5 82.8,124.1 82.6,125.7 									"/>
									<polygon class="st1" points="83.2,125.7 82,125.6 82.1,124.6 49.6,120.2 49.4,121.2 48.2,121 48.5,118.8 83.5,123.5 
																			"/>
								</g>
								<g>
									<path class="st1" d="M82.9,127.9l-35-4.7l0.6-4.4l35,4.7L82.9,127.9z M49.3,122.2l32.5,4.4l0.3-1.9l-32.5-4.4L49.3,122.2z"
										/>
								</g>
							</g>
							<g>
								<g>
									<circle class="st18" cx="83.2" cy="125.9" r="2.6"/>
									<path class="st1" d="M83.2,129.2c-0.1,0-0.3,0-0.4,0c-0.9-0.1-1.6-0.6-2.1-1.2c-0.5-0.7-0.8-1.5-0.6-2.4
										c0.1-0.9,0.6-1.6,1.2-2.1c0.7-0.5,1.5-0.7,2.4-0.6c0.9,0.1,1.6,0.6,2.1,1.2c0.5,0.7,0.8,1.5,0.6,2.4l0,0
										C86.2,128,84.8,129.2,83.2,129.2z M83.2,123.9c-0.4,0-0.9,0.1-1.2,0.4c-0.4,0.3-0.7,0.8-0.8,1.3c-0.1,0.5,0.1,1.1,0.4,1.5
										c0.3,0.4,0.8,0.7,1.3,0.8c1.1,0.1,2.1-0.6,2.2-1.7l0,0c0.1-0.5-0.1-1.1-0.4-1.5c-0.3-0.4-0.8-0.7-1.3-0.8
										C83.4,123.9,83.3,123.9,83.2,123.9z"/>
								</g>
								<g>
									<path class="st19" d="M84.1,127.2C84.1,127.2,84,127.2,84.1,127.2c-0.4-0.1-0.7-0.4-0.6-0.7c0-0.3-0.1-0.7-0.3-0.9
										l-0.2-0.2c-0.3-0.2-0.3-0.6-0.1-0.9c0.2-0.3,0.6-0.3,0.9-0.1l0.2,0.2c0.6,0.5,0.9,1.2,0.8,2
										C84.7,126.9,84.4,127.2,84.1,127.2z"/>
								</g>
							</g>
							<g>
								<g>
									<circle class="st18" cx="49.4" cy="121.2" r="2.6"/>
									<path class="st1" d="M49.5,124.5c-0.1,0-0.3,0-0.4,0c-0.9-0.1-1.6-0.6-2.1-1.2c-0.5-0.7-0.8-1.5-0.6-2.4
										c0.2-1.8,1.9-3,3.6-2.8c1.8,0.2,3,1.9,2.8,3.6l0,0C52.4,123.3,51,124.5,49.5,124.5z M49.4,119.2c-1,0-1.8,0.7-2,1.7
										c-0.1,0.5,0.1,1.1,0.4,1.5c0.3,0.4,0.8,0.7,1.3,0.8c1.1,0.1,2.1-0.6,2.2-1.7l0,0c0.1-1.1-0.6-2.1-1.7-2.2
										C49.6,119.2,49.5,119.2,49.4,119.2z"/>
								</g>
								<g>
									<path class="st19" d="M50.4,122.3C50.3,122.3,50.3,122.3,50.4,122.3c-0.4-0.1-0.7-0.4-0.6-0.7c0-0.3-0.1-0.6-0.3-0.9
										l-0.2-0.2c-0.3-0.2-0.3-0.6-0.1-0.9c0.2-0.3,0.6-0.3,0.9-0.1l0.2,0.2c0.6,0.5,0.9,1.2,0.8,2
										C50.9,122,50.7,122.3,50.4,122.3z"/>
								</g>
							</g>
						</g>
					</g>
					<g class="st20">
						<g>
							<path class="st21" d="M70.4,135.5L70.4,135.5c-0.6-0.5-1.3-0.6-2-0.3c0,0,0,0,0,0c-0.4,0.2-0.8,0.2-1.2,0.1
								c-1.4-0.3-2.8-0.5-4.2-0.5c-0.4,0-0.8-0.2-1.1-0.5c0,0,0,0,0,0h0c-0.6-0.4-1.3-0.5-1.9-0.2l-0.1,0c-0.7,0.3-1.2,1.1-1.1,1.9
								l0.1,1.1c0,0.4,0.4,0.7,0.8,0.6l0.3-0.1c0.5-0.1,1.1-0.1,1.6,0.1l0.2,0.1c0.4,0.1,0.8-0.1,0.9-0.6l0-0.4
								c1.6,0,3.2,0.2,4.7,0.6l-0.1,0.4c-0.1,0.4,0.2,0.8,0.7,0.8l0.2,0c0.5,0,1.1,0.1,1.5,0.3l0.3,0.1c0.3,0.2,0.8,0,0.9-0.3l0.4-1
								C71.2,136.9,71,136,70.4,135.5z"/>
						</g>
						<g>
							<g>
								<path class="st21" d="M69.2,144.1c0.1-1-0.2-1.9-0.6-2.7l0,0c-0.4-0.7-1.1-1.3-1.8-1.6c0-0.1,0.1-0.3,0.1-0.4l0-0.5
									c0-0.3-0.2-0.5-0.4-0.6l-0.3-0.1c-0.1,0-0.2-0.1-0.4-0.1l-0.3,0c-0.3,0-0.6,0.3-0.7,0.7l-0.1,0.4c-0.1,0-0.3-0.1-0.4-0.1
									l0.1-0.4c0-0.3-0.1-0.7-0.5-0.8l-0.2-0.1c-0.1,0-0.2-0.1-0.4,0l-0.3,0c-0.3,0-0.5,0.2-0.6,0.5l-0.2,0.5c0,0.1-0.1,0.2,0,0.3
									c-0.9,0-1.7,0.4-2.4,1.1h0c-0.7,0.6-1.1,1.5-1.3,2.4l-0.5,2.5l11.1,1.5L69.2,144.1z M63.6,144.7c-1.2-0.2-2.1-1.3-1.9-2.5
									c0.2-1.2,1.3-2.1,2.5-1.9c1.2,0.2,2.1,1.3,1.9,2.5C65.9,144,64.8,144.9,63.6,144.7z"/>
							</g>
							<g>
								<path class="st21" d="M64.1,140.9c-0.9-0.1-1.7,0.5-1.8,1.4c-0.1,0.9,0.5,1.7,1.4,1.8c0.9,0.1,1.7-0.5,1.8-1.4
									C65.7,141.8,65,141,64.1,140.9z"/>
							</g>
						</g>
					</g>
				</g>
			</g>
			<g>
				<g>
					<g class="st22">
						<polygon class="st1" points="96.4,60.7 95.9,64.6 54.3,59 54.8,55.2 45.6,53.9 44.3,117.1 43.8,121 45.9,121.2 46.1,120.1 
							87.7,125.7 87.6,126.8 89.8,127.1 90.4,122 105.6,62 						"/>
					</g>
					<g>
						<g>
							<g>
								<polygon class="st23" points="96.7,58.8 96.2,62.7 54.6,57.1 55.1,53.2 45.9,52 37,118.1 46.2,119.3 46.4,118.2 88,123.7 
									87.8,124.9 97,126.1 105.9,60 								"/>
								<path class="st1" d="M97.5,126.8l-10.4-1.4l0.2-1.2l-40.4-5.4l-0.2,1.2l-10.4-1.4l9-67.3l10.4,1.4l-0.5,3.9L95.6,62l0.5-3.9
									l10.4,1.4L97.5,126.8z M88.5,124.4l7.9,1.1l8.7-64.9l-7.9-1.1l-0.5,3.9l-42.8-5.7l0.5-3.9l-7.9-1.1l-8.7,64.9l7.9,1.1
									l0.2-1.2l42.8,5.7L88.5,124.4z"/>
							</g>
							<g>
								
									<rect x="50.1" y="61.2" transform="matrix(0.9911 0.1329 -0.1329 0.9911 9.1861 -9.3061)" class="st24" width="48.4" height="5.8"/>
							</g>
							<g>
								<line class="st23" x1="64" y1="65.7" x2="56.4" y2="64.7"/>
								<path class="st1" d="M64,66.3C64,66.3,64,66.3,64,66.3l-7.7-1c-0.3,0-0.6-0.4-0.5-0.7c0-0.3,0.4-0.6,0.7-0.5l7.6,1
									c0.3,0,0.6,0.4,0.5,0.7C64.6,66.1,64.3,66.3,64,66.3z"/>
							</g>
							<g>
								<line class="st23" x1="75.7" y1="67.3" x2="69.7" y2="66.5"/>
								<path class="st1" d="M75.7,67.9C75.6,67.9,75.6,67.9,75.7,67.9l-6-0.8c-0.3,0-0.6-0.4-0.5-0.7s0.4-0.6,0.7-0.5l5.9,0.8
									c0.3,0,0.6,0.4,0.5,0.7C76.2,67.7,76,67.9,75.7,67.9z"/>
							</g>
							<g>
								
									<rect x="42.9" y="114.8" transform="matrix(0.9911 0.1329 -0.1329 0.9911 16.2402 -7.8763)" class="st24" width="48.4" height="5.8"/>
							</g>
							<g>
								<path class="st1" d="M81.1,117.2C81,117.2,81,117.2,81.1,117.2l-7.5-1c-0.3,0-0.6-0.4-0.5-0.7s0.4-0.6,0.7-0.5l7.4,1
									c0.3,0,0.6,0.4,0.5,0.7C81.6,117,81.4,117.2,81.1,117.2z"/>
							</g>
							<g>
								<path class="st1" d="M68.7,115.6C68.6,115.6,68.6,115.6,68.7,115.6l-10-1.3c-0.3,0-0.6-0.4-0.5-0.7c0-0.3,0.4-0.6,0.7-0.5
									l10,1.3c0.3,0,0.6,0.4,0.5,0.7C69.2,115.3,69,115.6,68.7,115.6z"/>
							</g>
							<g>
								
									<rect x="41.4" y="52.3" transform="matrix(0.9911 0.1329 -0.1329 0.9911 11.796 -5.3611)" class="st25" width="9.3" height="66.7"/>
							</g>
							<g>
								<path class="st1" d="M47.6,109.9C47.5,109.9,47.5,109.9,47.6,109.9c-0.4-0.1-0.7-0.4-0.6-0.7l1.4-10.4
									c0-0.3,0.4-0.6,0.7-0.5s0.6,0.4,0.5,0.7l-1.4,10.4C48.1,109.7,47.9,109.9,47.6,109.9z"/>
							</g>
							<g>
								<path class="st1" d="M49.6,94.9C49.5,94.9,49.5,94.9,49.6,94.9c-0.4-0.1-0.7-0.4-0.6-0.7l0.7-5.5c0-0.3,0.4-0.6,0.7-0.5
									c0.3,0,0.6,0.4,0.5,0.7l-0.7,5.5C50.1,94.6,49.9,94.9,49.6,94.9z"/>
							</g>
							<g>
								
									<rect x="92.2" y="59.1" transform="matrix(0.9911 0.1329 -0.1329 0.9911 13.1522 -12.0521)" class="st25" width="9.3" height="66.7"/>
							</g>
							<g>
								<path class="st1" d="M94.5,76.1C94.4,76.1,94.4,76.1,94.5,76.1c-0.4-0.1-0.7-0.4-0.6-0.7l0.7-5.6c0-0.3,0.4-0.6,0.7-0.5
									c0.3,0,0.6,0.4,0.5,0.7l-0.7,5.6C95,75.8,94.8,76.1,94.5,76.1z"/>
							</g>
							<g>
								<path class="st1" d="M92.3,92.5C92.2,92.5,92.2,92.5,92.3,92.5c-0.4-0.1-0.7-0.4-0.6-0.7l1.5-10.9c0-0.3,0.4-0.6,0.7-0.5
									c0.3,0,0.6,0.4,0.5,0.7l-1.5,10.9C92.8,92.3,92.6,92.5,92.3,92.5z"/>
							</g>
						</g>
						<g>
							<path class="st1" d="M97.5,126.8l-10.4-1.4l0.2-1.2l-40.4-5.4l-0.2,1.2l-10.4-1.4l9-67.3l10.4,1.4l-0.5,3.9L95.6,62l0.5-3.9
								l10.4,1.4L97.5,126.8z M88.5,124.4l7.9,1.1l8.7-64.9l-7.9-1.1l-0.5,3.9l-42.8-5.7l0.5-3.9l-7.9-1.1l-8.7,64.9l7.9,1.1
								l0.2-1.2l42.8,5.7L88.5,124.4z"/>
						</g>
					</g>
					<g>
						<g>
							<g>
								<polygon class="st26" points="60,103.6 55.7,106.2 52.1,102.5 55.4,78.4 59.9,74.9 63.3,79.5 								"/>
								<path class="st1" d="M55.6,107l-4.1-4.3l3.3-24.6L60,74l3.9,5.3l-3.3,24.6L55.6,107z M52.8,102.3l3,3.1l3.7-2.2l3.2-23.5
									l-2.9-3.9l-3.8,3L52.8,102.3z"/>
							</g>
							<g>
								<polygon class="st27" points="63.2,80.2 54.3,86.5 54.1,87.8 62.4,86.1 								"/>
							</g>
							<g>
								<polygon class="st27" points="53.3,94.1 61.8,90.2 61.3,93.8 53.2,94.7 								"/>
							</g>
							<g>
								<polygon class="st27" points="52.5,99.7 60.9,97.2 60.6,99.4 52.4,100.4 								"/>
							</g>
							<g>
								<path class="st1" d="M55.6,107l-4.1-4.3l3.3-24.6L60,74l3.9,5.3l-3.3,24.6L55.6,107z M52.8,102.3l3,3.1l3.7-2.2l3.2-23.5
									l-2.9-3.9l-3.8,3L52.8,102.3z"/>
							</g>
						</g>
						<g>
							<g>
								<polygon class="st26" points="73.7,105.4 69.4,108 65.9,104.3 69.1,80.3 73.6,76.7 77,81.3 								"/>
								<path class="st1" d="M69.3,108.8l-4.1-4.3L68.5,80l5.2-4.1l3.9,5.3l-3.3,24.6L69.3,108.8z M66.5,104.1l3,3.1l3.7-2.2
									l3.2-23.5l-2.9-3.9l-3.8,3L66.5,104.1z"/>
							</g>
							<g>
								<polygon class="st27" points="76.9,82.1 68,88.3 67.8,89.7 76.1,87.9 								"/>
							</g>
							<g>
								<polygon class="st27" points="67,95.9 75.5,92.1 75.1,95.6 66.9,96.6 								"/>
							</g>
							<g>
								<polygon class="st27" points="66.2,101.5 74.6,99 74.3,101.2 66.1,102.2 								"/>
							</g>
							<g>
								<path class="st1" d="M69.3,108.8l-4.1-4.3L68.5,80l5.2-4.1l3.9,5.3l-3.3,24.6L69.3,108.8z M66.5,104.1l3,3.1l3.7-2.2
									l3.2-23.5l-2.9-3.9l-3.8,3L66.5,104.1z"/>
							</g>
						</g>
						<g>
							<g>
								<polygon class="st26" points="87.4,107.2 83,109.9 79.5,106.2 82.7,82.1 87.2,78.6 90.6,83.2 								"/>
								<path class="st1" d="M82.9,110.7l-4.1-4.3l3.3-24.6l5.2-4.1l3.9,5.3L88,107.6L82.9,110.7z M80.1,106l3,3.1l3.7-2.2L90,83.3
									l-2.9-3.9l-3.8,3L80.1,106z"/>
							</g>
							<g>
								<polygon class="st27" points="90.5,83.9 81.6,90.1 81.5,91.5 89.7,89.8 								"/>
							</g>
							<g>
								<polygon class="st27" points="80.6,97.8 89.2,93.9 88.7,97.5 80.5,98.4 								"/>
							</g>
							<g>
								<polygon class="st27" points="79.9,103.4 88.2,100.9 87.9,103.1 79.8,104 								"/>
							</g>
							<g>
								<path class="st1" d="M82.9,110.7l-4.1-4.3l3.3-24.6l5.2-4.1l3.9,5.3L88,107.6L82.9,110.7z M80.1,106l3,3.1l3.7-2.2L90,83.3
									l-2.9-3.9l-3.8,3L80.1,106z"/>
							</g>
						</g>
					</g>
				</g>
				<g>
					<g class="st28">
						<path class="st1" d="M105.1,66l-1.5-4.5l-6.9-1.2l-0.7,4.5l-41.6-5.6l0.8-4.5l-7.5-0.6L45.2,58l0.1-2.8
							c0.1-2.4,0.6-4.8,1.5-7.1l0,0c1-2.4,1.5-5,1.5-7.7l0-5.5l0.2,0c20.3-3.2,41-0.4,59.7,8.1l0,0l-1.6,4.5c-1,2.9-1.3,6-0.8,9v0
							c0.4,2.1,0.3,4.3-0.1,6.5L105.1,66z"/>
					</g>
					<g>
						<g>
							<g>
								<path class="st29" d="M105.3,64.1l-1.5-4.5l-6.9-1.2l-0.7,4.5l-41.6-5.6l0.8-4.5l-7.5-0.6L45.4,56l0.1-2.8
									c0.1-2.4,0.6-4.8,1.5-7.1l0,0c1-2.4,1.5-5,1.5-7.7l0-5.5l0.2,0c20.3-3.2,41-0.4,59.7,8.1l0,0l-1.6,4.5c-1,2.9-1.3,6-0.8,9v0
									c0.4,2.1,0.3,4.3-0.1,6.5L105.3,64.1z"/>
								<path class="st1" d="M105.5,66.5l-2.2-6.4l-5.9-1l-0.7,4.5l-42.9-5.7l0.8-4.4l-6.5-0.5l-3.4,5.4l0.1-5.1
									c0.1-2.5,0.6-5,1.6-7.3c1-2.4,1.5-4.9,1.5-7.4l0-6.1l0.7-0.1c20.4-3.2,41.2-0.4,60.1,8.1l0.5,0.2l-1.8,5.1
									c-1,2.8-1.2,5.8-0.8,8.7c0.4,2.2,0.3,4.5-0.1,6.7L105.5,66.5z M55.3,56.7l40.4,5.4l0.7-4.5l7.9,1.3l0.9,2.7l0.2-0.9
									c0.4-2.1,0.4-4.2,0.1-6.3c-0.5-3.1-0.2-6.3,0.8-9.3l1.4-4C89.3,33,69,30.3,49.1,33.4l0,5c0,2.7-0.5,5.4-1.6,7.9
									c-0.9,2.2-1.4,4.5-1.5,6.9l0,0.5l1.4-2.2l8.6,0.7L55.3,56.7z"/>
							</g>
							<g>
								<g>
									<path class="st29" d="M94,35.6c4.9,1.4,9.7,3.2,14.4,5.3l0,0l-1.6,4.5c-1,2.9-1.3,6-0.8,9v0c0.4,2.1,0.3,4.3-0.1,6.5
										l-0.6,3.1l-1.5-4.5l-6.9-1.2"/>
									<path class="st1" d="M105.5,66.5l-2.2-6.4L96.7,59l0.2-1.2l7.3,1.2l0.9,2.7l0.2-0.9c0.4-2.1,0.4-4.2,0.1-6.3
										c-0.5-3.1-0.2-6.3,0.8-9.3l1.4-4c-4.5-2-9.1-3.7-13.8-5l0.3-1.2c4.9,1.4,9.8,3.2,14.5,5.3l0.5,0.2l-1.8,5.1
										c-1,2.8-1.2,5.8-0.8,8.7c0.4,2.2,0.3,4.5-0.1,6.7L105.5,66.5z"/>
								</g>
								<g>
									<path class="st30" d="M96.8,58.4l-0.7,4.5l-41.6-5.6l0.8-4.5l7.6-21.2c10.5-0.2,21,1.1,31.1,4L96.8,58.4z"/>
								</g>
								<g>
									<path class="st31" d="M55.3,52.8l-7.5-0.6L45.4,56l0.1-2.8c0.1-2.4,0.6-4.8,1.5-7.1l0,0c1-2.4,1.5-5,1.5-7.7l0-5.5l0.2,0
										c4.7-0.7,9.4-1.2,14.2-1.3"/>
									<path class="st1" d="M44.7,58.3l0.1-5.1c0.1-2.5,0.6-5,1.6-7.3c1-2.4,1.5-4.9,1.5-7.4l0-6.1l0.7-0.1
										c4.7-0.7,9.5-1.2,14.3-1.3l0,1.2c-4.6,0.1-9.2,0.5-13.8,1.2l0,5c0,2.7-0.5,5.4-1.6,7.9c-0.9,2.2-1.4,4.5-1.5,6.9l0,0.5
										l1.4-2.2l7.9,0.6l-0.1,1.2l-7.2-0.6L44.7,58.3z"/>
								</g>
								<g>
									<path class="st32" d="M69.9,46.2l-4.3-14.7c0,0,10.8-0.7,14,1.9l6,14.9L69.9,46.2z"/>
								</g>
								<g>
									<path class="st1" d="M105.5,66.5l-2.2-6.4l-5.9-1l-0.7,4.5l-42.9-5.7l0.8-4.4l-6.5-0.5l-3.4,5.4l0.1-5.1
										c0.1-2.5,0.6-5,1.6-7.3c1-2.4,1.5-4.9,1.5-7.4l0-6.1l0.7-0.1c20.4-3.2,41.2-0.4,60.1,8.1l0.5,0.2l-1.8,5.1
										c-1,2.8-1.2,5.8-0.8,8.7c0.4,2.2,0.3,4.5-0.1,6.7L105.5,66.5z M55.3,56.7l40.4,5.4l0.7-4.5l7.9,1.3l0.9,2.7l0.2-0.9
										c0.4-2.1,0.4-4.2,0.1-6.3c-0.5-3.1-0.2-6.3,0.8-9.3l1.4-4C89.3,33,69,30.3,49.1,33.4l0,5c0,2.7-0.5,5.4-1.6,7.9
										c-0.9,2.2-1.4,4.5-1.5,6.9l0,0.5l1.4-2.2l8.6,0.7L55.3,56.7z"/>
								</g>
							</g>
						</g>
						<g>
							<g>
								<g>
									<polygon class="st33" points="85.5,48.3 69.9,46.2 72.3,28.1 83.5,4.1 88,30.2 									"/>
									<path class="st1" d="M86.1,49l-16.9-2.3l2.6-18.9l12-25.8l4.8,28.1L86.1,49z M70.6,45.7L85,47.6l2.3-17.4l-4.1-24L73,28.3
										L70.6,45.7z"/>
								</g>
								<g>
									<polyline class="st34" points="83.5,4.1 88,30.2 85.5,48.3 77.7,47.3 									"/>
								</g>
								<g>
									<path class="st1" d="M86.1,49l-16.9-2.3l2.6-18.9l12-25.8l4.8,28.1L86.1,49z M70.6,45.7L85,47.6l2.3-17.4l-4.1-24L73,28.3
										L70.6,45.7z"/>
								</g>
								<g>
									<polygon class="st35" points="81.7,44 74.8,43.1 75.9,35.1 80.8,24.5 82.7,36 									"/>
									<path class="st1" d="M82.2,44.7l-8.1-1.1l1.2-8.8l5.8-12.4L83.4,36L82.2,44.7z M75.5,42.6l5.7,0.8l1-7.3l-1.6-9.4l-4,8.7
										L75.5,42.6z"/>
								</g>
								<g>
									<polygon class="st36" points="80,42.6 76.8,42.1 77.3,38.4 79.6,33.4 80.5,38.8 									"/>
								</g>
							</g>
						</g>
					</g>
				</g>
			</g>
		</g>
	</g>
	<g>
		<path class="st1" d="M68.6,182.6c-4.5,0-9.1-0.4-13.7-1.4c-27.4-5.5-46.5-25.8-42.6-45.4c0.9-4.4,2.9-8.5,5.9-12.1l1,0.8
			c-2.9,3.5-4.8,7.4-5.6,11.6c-3.8,18.8,14.9,38.5,41.6,43.9c26.7,5.4,51.6-5.6,55.3-24.5c1-5.2,0.4-10.4-1.8-15.7l1.1-0.5
			c2.3,5.5,2.9,11,1.9,16.4C108.4,172,90.3,182.6,68.6,182.6z"/>
	</g>
</g>
</svg>
