<?xml version="1.0" encoding="utf-8"?>
<!-- Generator: Adobe Illustrator 24.2.3, SVG Export Plug-In . SVG Version: 6.00 Build 0)  -->
<svg version="1.1" id="Lag_1" xmlns="http://www.w3.org/2000/svg" xmlns:xlink="http://www.w3.org/1999/xlink" x="0px" y="0px"
	 viewBox="0 0 124 92" style="enable-background:new 0 0 124 92;" xml:space="preserve">
<style type="text/css">
	.st0{fill:#724D3B;}
	.st1{fill:#110B09;}
	.st2{opacity:0.58;}
	.st3{fill:#747757;}
	.st4{opacity:0.76;}
	.st5{fill:#7F5238;}
	.st6{fill:#BFB4AF;}
	.st7{opacity:0.65;}
	.st8{fill:#6C6D56;}
	.st9{opacity:0.46;}
	.st10{fill:#DBAC4D;}
	.st11{fill:#F9E2B9;}
	.st12{fill:#C49749;}
	.st13{opacity:0.38;}
</style>
<g>
	<g>
		<g>
			<path class="st0" d="M81.1,87.8l-4.4-0.5c-9.8-1.1-19.6-1.1-29.4,0L43,87.8c-15.8,1.9-29.2-11.4-27.5-27.2l1.3-12.2
				c0.5-5.1,0.5-10.3-0.2-15.4l-2.9-22.6h96.8l-2.1,28.4c-0.5,7.3-0.4,14.6,0.3,21.8v0C110.3,76.3,96.9,89.6,81.1,87.8z"/>
			<path class="st1" d="M84.1,88.5c-1,0-2-0.1-3-0.2l-4.4-0.5c-9.7-1.1-19.5-1.1-29.2,0l-4.4,0.5c-7.7,0.9-15.3-1.7-20.8-7.2
				c-5.5-5.5-8.2-13-7.4-20.7l1.3-12.2c0.5-5.1,0.5-10.2-0.2-15.2L13,9.8h98.1l-2.2,29c-0.5,7.2-0.4,14.5,0.3,21.7
				c0.8,7.7-1.9,15.3-7.4,20.7C97.1,85.9,90.7,88.5,84.1,88.5z M81.2,87.2c7.3,0.9,14.6-1.6,19.8-6.8c5.3-5.2,7.8-12.4,7.1-19.8
				c-0.8-7.3-0.9-14.7-0.3-21.9l2.1-27.7H14.3l2.8,21.9c0.7,5.1,0.7,10.4,0.2,15.5l-1.3,12.2c-0.8,7.4,1.8,14.6,7.1,19.8
				S35.6,88,43,87.2l4.4-0.5c9.8-1.2,19.7-1.2,29.5,0L81.2,87.2L81.2,87.2z"/>
		</g>
		<g>
			<g class="st2">
				<path class="st1" d="M44.4,88.4c-16.6,1.5-30.6-12.4-29-29.1c0-0.1,0.2-0.2,0.3-0.2l10.8,4.2l11.2-1.6l1.1,13.9l6,12.1
					C44.9,88,44.7,88.3,44.4,88.4z"/>
			</g>
			<g>
				<path class="st3" d="M43.4,88.9c-16.6,1.5-30.6-12.4-29-29.1c0-0.1,0.2-0.2,0.3-0.2l10.8,4.2l11.2-1.6l1.1,13.9l6,12.1
					C43.9,88.5,43.7,88.8,43.4,88.9z"/>
				<path class="st1" d="M40.9,89.5c-7.2,0-14.1-2.9-19.3-8c-5.7-5.8-8.6-13.7-7.8-21.8c0-0.2,0.2-0.5,0.4-0.6
					c0.2-0.1,0.5-0.2,0.7-0.1l10.7,4.1l11.7-1.6l1.1,14.4l5.9,12c0.2,0.3,0.1,0.7,0,1c-0.2,0.3-0.5,0.5-0.8,0.5h0
					C42.6,89.5,41.8,89.5,40.9,89.5z M14.9,60.3c-0.6,7.6,2.1,15,7.5,20.4c5.5,5.5,13,8.3,20.7,7.6l-6-12l-1-13.4l-10.8,1.5
					L14.9,60.3z M43.3,88.3L43.3,88.3C43.3,88.3,43.3,88.3,43.3,88.3L43.3,88.3z"/>
			</g>
			<g>
				<g>
					<path class="st3" d="M17.2,63.2l8.5,3.3l8.8-1.2l0.8,10.9l4.7,9.5"/>
				</g>
				<g>
					<g>
						
							<rect x="18.3" y="62.1" transform="matrix(0.3613 -0.9325 0.9325 0.3613 -47.4448 58.3442)" class="st1" width="1.2" height="3.5"/>
					</g>
					<g>
						<polygon class="st1" points="25.7,67.1 23.7,66.3 24.1,65.2 25.8,65.9 27.4,65.7 27.6,66.8 						"/>
					</g>
					<g>
						<polygon class="st1" points="34.3,68.8 34.1,65.9 31.3,66.3 31.1,65.2 35.1,64.6 35.5,68.7 						"/>
					</g>
					<g>
						<polygon class="st1" points="35.9,78.5 34.9,76.4 34.7,73.6 35.8,73.5 36,76 37,78 						"/>
					</g>
					<g>
						
							<rect x="38.8" y="82.4" transform="matrix(0.8954 -0.4453 0.4453 0.8954 -33.3552 26.3512)" class="st1" width="1.2" height="3.5"/>
					</g>
				</g>
			</g>
		</g>
		<g>
			<g class="st4">
				<path class="st1" d="M79.9,86.9c-0.2,0.5,0.1,1.1,0.7,1.1c15.9,1.2,29.2-12.1,27.9-28.1c0-0.3-0.4-0.5-0.6-0.3l-9.7,5.1
					c-0.1,0-0.1,0.1-0.2,0l-10.9-0.2c-0.2,0-0.4,0.1-0.4,0.3l-2.1,11.1c0,0,0,0.1,0,0.1L79.9,86.9z"/>
			</g>
			<g>
				<path class="st3" d="M80.9,87.4c-0.2,0.5,0.1,1.1,0.7,1.1c15.9,1.2,29.2-12.1,27.9-28.1c0-0.3-0.4-0.5-0.6-0.3l-9.7,5.1
					c-0.1,0-0.1,0.1-0.2,0l-10.9-0.2c-0.2,0-0.4,0.1-0.4,0.3l-2.1,11.1c0,0,0,0.1,0,0.1L80.9,87.4z"/>
				<path class="st1" d="M83.5,89.2c-0.7,0-1.3,0-2-0.1c-0.4,0-0.9-0.3-1.1-0.7c-0.2-0.4-0.3-0.9-0.1-1.3v0L85,76.5l2-11.1
					c0.1-0.5,0.5-0.8,1-0.8c0,0,0,0,0,0l10.8,0.2l9.7-5.1c0.3-0.2,0.7-0.2,1,0c0.3,0.2,0.5,0.5,0.5,0.8c0.6,7.8-2.2,15.4-7.6,20.9
					C97.3,86.4,90.6,89.2,83.5,89.2z M81.4,87.7c0,0.1,0,0.2,0,0.2c0,0,0.1,0.1,0.2,0.1c7.4,0.5,14.7-2.2,19.9-7.5
					c5.2-5.2,7.9-12.4,7.3-19.8l-9.5,5c-0.1,0.1-0.3,0.1-0.5,0.1l-10.7-0.2l-2,11c0,0.1,0,0.1-0.1,0.2L81.4,87.7L81.4,87.7z
					 M98.9,64.7C98.9,64.7,98.9,64.7,98.9,64.7L98.9,64.7z"/>
			</g>
			<g>
				<g>
					<path class="st3" d="M106.5,63.5l-7.7,4.1c-0.1,0-0.1,0-0.2,0L90,67.5c-0.2,0-0.3,0.1-0.3,0.3L88,76.6c0,0,0,0.1,0,0.1
						l-3.7,8.6"/>
				</g>
				<g>
					<g>
						<path class="st1" d="M103.5,65.7c-0.2,0-0.4-0.1-0.5-0.3c-0.1-0.3,0-0.6,0.2-0.8l3.1-1.6c0.3-0.1,0.6,0,0.8,0.2
							c0.1,0.3,0,0.6-0.2,0.8l-3.1,1.6C103.7,65.7,103.6,65.7,103.5,65.7z"/>
					</g>
					<g>
						<path class="st1" d="M88,77.3c-0.1,0-0.1,0-0.2,0c-0.3-0.1-0.5-0.4-0.4-0.7l1.1-5.7c0.1-0.3,0.4-0.5,0.7-0.5
							c0.3,0.1,0.5,0.4,0.5,0.7l-1.1,5.9C88.5,77.1,88.3,77.3,88,77.3z M98.2,68.2C98.2,68.2,98.2,68.2,98.2,68.2l-5.9-0.1
							c-0.3,0-0.6-0.3-0.6-0.6c0-0.3,0.3-0.6,0.6-0.6c0,0,0,0,0,0l5.9,0.1c0.3,0,0.6,0.3,0.6,0.6C98.8,67.9,98.5,68.2,98.2,68.2z"/>
					</g>
					<g>
						<path class="st1" d="M84.3,85.8c-0.1,0-0.2,0-0.2,0c-0.3-0.1-0.4-0.5-0.3-0.8l1.4-3.2c0.1-0.3,0.5-0.4,0.8-0.3
							c0.3,0.1,0.4,0.5,0.3,0.8l-1.4,3.2C84.7,85.7,84.5,85.8,84.3,85.8z"/>
					</g>
				</g>
			</g>
		</g>
	</g>
	<g>
		<g>
			<path class="st5" d="M104,38.2h4.5c0.2,0,0.4-0.2,0.4-0.4l0.7-6.6c0.1-1.2,0.2-2.4,0.2-3.6l0.2-6.6c0-0.2-0.2-0.4-0.4-0.4H104
				V38.2z"/>
			<path class="st1" d="M108.6,38.8h-5.1V20.1h6.2c0.3,0,0.5,0.1,0.7,0.3c0.2,0.2,0.3,0.4,0.3,0.7l-0.2,6.6c0,1.2-0.1,2.4-0.2,3.6
				l-0.7,6.6C109.5,38.4,109.1,38.8,108.6,38.8z M104.6,37.6h3.8l0.6-6.5c0.1-1.2,0.2-2.4,0.2-3.5l0.2-6.4h-4.9V37.6z"/>
		</g>
		<g>
			<g>
				<g>
					<path class="st6" d="M112.7,38.6c-2.2,0.8-4.7-2.6-6-6.2c-1.3-3.6-1.7-7.8,0.5-8.6c2.2-0.8,4.7,2.6,6,6.2
						C114.5,33.5,115,37.7,112.7,38.6z M109.1,26.8c-0.5-0.6-1.4-0.3-1.3,0.5c0,1,0.2,2.5,0.9,4.3c0.7,1.9,1.5,3.2,2.2,3.9
						c0.5,0.5,1.3,0.2,1.3-0.5c0-1-0.2-2.5-0.9-4.4C110.5,28.8,109.7,27.6,109.1,26.8z"/>
					<path class="st1" d="M112,39.3c-0.8,0-1.9-0.4-3.1-1.8c-1.1-1.2-2-2.9-2.8-4.9c-1.5-3.9-1.8-8.4,0.8-9.3c2.6-1,5.3,2.6,6.8,6.5
						c0.7,2,1.1,3.9,1.1,5.5c0,2.6-1.1,3.5-2,3.8C112.7,39.2,112.4,39.3,112,39.3z M107.9,24.2c-0.2,0-0.3,0-0.5,0.1
						c-1.8,0.7-1.4,4.5-0.2,7.9c0.7,1.8,1.6,3.5,2.6,4.6c0.7,0.8,1.7,1.6,2.7,1.3l0,0c1-0.4,1.2-1.7,1.2-2.7c0-1.4-0.4-3.3-1.1-5.1
						C111.5,27.1,109.6,24.2,107.9,24.2z M111.4,36.4c-0.4,0-0.7-0.2-1-0.5c-0.5-0.6-1.4-1.9-2.3-4.1c-0.8-2.1-1-3.6-1-4.5
						c0-0.6,0.3-1.1,0.9-1.3c0.5-0.2,1.1,0,1.5,0.4l0,0c0.6,0.7,1.5,2,2.2,4c0.8,2.2,1,3.8,1,4.6c0,0.6-0.3,1.1-0.9,1.3
						C111.7,36.4,111.6,36.4,111.4,36.4z M108.5,27.1C108.5,27.1,108.4,27.1,108.5,27.1c-0.1,0-0.2,0.1-0.2,0.2
						c0,0.7,0.1,2.1,0.9,4.1c0.8,2.1,1.6,3.2,2.1,3.7c0.1,0.1,0.1,0.1,0.2,0.1c0,0,0.1-0.1,0.1-0.2c0-0.7-0.1-2.1-0.9-4.2
						c-0.8-2-1.6-3.2-2-3.7C108.6,27.1,108.5,27.1,108.5,27.1z"/>
				</g>
			</g>
			<g>
				<path class="st5" d="M109.6,27.4c-0.7-0.8-1.9-0.4-1.9,0.7l-2.7-2.7c0.3-1.1,1-2,1.9-2.3c1-0.4,2-0.2,3,0.5L109.6,27.4z"/>
				<path class="st1" d="M108.3,29.5l-4-3.9l0.1-0.3c0.4-1.4,1.2-2.3,2.3-2.7c1.1-0.4,2.3-0.2,3.5,0.5l0.3,0.2l-0.4,5.6l-0.9-1.1
					c-0.2-0.2-0.4-0.3-0.6-0.2c-0.2,0.1-0.3,0.3-0.3,0.5L108.3,29.5z M105.7,25.3l1.8,1.8c0.2-0.3,0.4-0.4,0.7-0.6
					c0.3-0.1,0.6-0.1,0.9-0.1l0.2-2.5c-0.8-0.4-1.5-0.5-2.2-0.2C106.5,23.9,106,24.4,105.7,25.3z"/>
			</g>
		</g>
		<g>
			<path class="st5" d="M109.5,61.7l6.2-3.3c7.2-3.8,8.4-13.5,2.5-18.9l-6-5.6l-0.5,1.2l-0.8,0.4l2.5,3c8,9.3,5.6,14.4-4.4,18.2
				l-0.6,0.3l0.3,2.9l0.7-0.4L109.5,61.7z"/>
			<path class="st1" d="M109,62.7l-0.1-2.1l-0.7,0.3l-0.5-4.2l1-0.4c5.1-1.9,8-4.2,8.6-6.8c0.7-2.7-0.8-6.2-4.5-10.5l-3-3.6l1.3-0.6
				l0.7-1.8l6.7,6.1c3,2.7,4.4,6.6,3.9,10.6c-0.5,4-2.9,7.4-6.5,9.3L109,62.7z M109.9,58.7l0.1,2.1l5.4-2.8c3.2-1.7,5.4-4.8,5.9-8.4
				c0.5-3.6-0.8-7.1-3.5-9.6l-5.4-5l-0.3,0.6l-0.4,0.2l2,2.4c4,4.6,5.5,8.4,4.7,11.5c-0.8,3.1-3.8,5.5-9.3,7.6l-0.2,0.1l0.2,1.6
				L109.9,58.7z"/>
		</g>
	</g>
	<g>
		<g>
			<path class="st5" d="M20,37.8h-4.5c-0.2,0-0.4-0.2-0.4-0.4l-0.7-6.6c-0.1-1.2-0.2-2.4-0.2-3.6l-0.2-6.6c0-0.2,0.2-0.4,0.4-0.4H20
				V37.8z"/>
			<path class="st1" d="M20.6,38.3h-5.1c-0.5,0-0.9-0.4-1-0.9l-0.7-6.6c-0.1-1.2-0.2-2.4-0.2-3.6l-0.2-6.6c0-0.3,0.1-0.5,0.3-0.7
				c0.2-0.2,0.4-0.3,0.7-0.3h6.2V38.3z M15.6,37.3L15.6,37.3L15.6,37.3z M15.6,37.2h3.8V20.8h-4.9l0.2,6.4c0,1.2,0.1,2.4,0.2,3.5
				L15.6,37.2z M14.5,20.6L14.5,20.6L14.5,20.6z"/>
		</g>
		<g>
			<g>
				<g>
					<path class="st6" d="M10.8,29.5c1.3-3.6,3.8-7,6-6.2c2.2,0.8,1.8,5,0.5,8.6s-3.8,7-6,6.2C9,37.3,9.5,33.1,10.8,29.5z
						 M12.8,30.3c-0.7,1.9-0.9,3.4-0.9,4.4c0,0.7,0.8,1,1.3,0.5c0.6-0.7,1.5-2,2.2-3.9c0.7-1.9,0.9-3.3,0.9-4.3
						c0-0.8-0.8-1.1-1.3-0.5C14.3,27.1,13.5,28.4,12.8,30.3z"/>
					<path class="st1" d="M12,38.8c-0.3,0-0.6-0.1-0.9-0.2c-2.6-1-2.3-5.4-0.8-9.3l0,0c1.5-3.9,4.1-7.5,6.8-6.5
						c2.6,1,2.3,5.4,0.8,9.3C16.5,35.7,14.3,38.8,12,38.8z M11.3,29.7c-1.2,3.3-1.6,7.2,0.2,7.9c1.8,0.7,4-2.5,5.3-5.8
						c1.2-3.3,1.6-7.2-0.2-7.9C14.8,23.2,12.6,26.4,11.3,29.7L11.3,29.7z M12.6,36c-0.2,0-0.3,0-0.5-0.1c-0.5-0.2-0.9-0.7-0.9-1.3
						c0-0.8,0.1-2.3,1-4.6l0,0c0.8-2.1,1.7-3.4,2.2-4c0.4-0.5,1-0.6,1.5-0.4c0.5,0.2,0.9,0.7,0.9,1.3c0,0.9-0.2,2.4-1,4.5
						c-0.8,2.2-1.8,3.5-2.3,4.1C13.3,35.8,13,36,12.6,36z M13.3,30.5c-0.8,2-0.9,3.5-0.9,4.2c0,0.1,0.1,0.2,0.1,0.2
						c0,0,0.1,0,0.2-0.1c0.4-0.5,1.3-1.7,2.1-3.7c0.8-2,0.9-3.5,0.9-4.1c0-0.1,0-0.2-0.1-0.2c-0.1,0-0.1,0-0.2,0.1
						C14.9,27.3,14.1,28.4,13.3,30.5L13.3,30.5z"/>
				</g>
			</g>
			<g>
				<path class="st5" d="M14.1,23.1c1-0.6,2-0.8,3-0.5c1,0.4,1.6,1.2,1.9,2.3l-2.7,2.7c0-1.1-1.2-1.5-1.9-0.7L14.1,23.1z"/>
				<path class="st1" d="M15.7,29.1l0-1.4c0-0.3-0.1-0.5-0.3-0.5c-0.2-0.1-0.4,0-0.6,0.2l-0.9,1.1l-0.4-5.6l0.3-0.2
					c1.2-0.8,2.4-0.9,3.5-0.5c1.1,0.4,1.9,1.3,2.3,2.7l0.1,0.3L15.7,29.1z M15.2,26c0.2,0,0.4,0,0.6,0.1c0.3,0.1,0.5,0.3,0.7,0.6
					l1.8-1.8c-0.3-0.8-0.8-1.4-1.5-1.6c-0.7-0.2-1.4-0.2-2.2,0.2l0.2,2.5C15,26,15.1,26,15.2,26z"/>
			</g>
		</g>
		<g>
			<path class="st5" d="M13.9,61.3L8.3,58c-7.2-3.8-8.4-13.5-2.5-18.9l6-5.6l0.5,1.2l0.8,0.4l-2.5,3C2.7,47.4,5,52.6,15,56.4
				l0.6,0.3l-0.3,2.9l-0.7-0.4L13.9,61.3z"/>
			<path class="st1" d="M14.2,62.2L8,58.5c-3.6-1.9-5.9-5.2-6.4-9.3c-0.5-4,0.9-7.9,3.9-10.6l6.7-6.1l0.7,1.8l1.3,0.6l-3,3.6
				C7.4,42.8,5.9,46.3,6.6,49c0.7,2.7,3.5,4.9,8.6,6.8l1,0.4l-0.5,4.2L15,60L14.2,62.2z M11.6,34.5l-5.4,5c-2.7,2.5-4,6-3.5,9.6
				c0.5,3.6,2.6,6.7,5.9,8.4l5,2.9l0.7-2.1l0.5,0.3L15,57l-0.2-0.1c-5.6-2.1-8.5-4.5-9.3-7.6c-0.8-3.1,0.7-6.9,4.7-11.5l2-2.4
				l-0.4-0.2L11.6,34.5z"/>
		</g>
	</g>
	<g>
		<g class="st7">
			<path class="st1" d="M110.6,14.9l-2.4,13.2C106.1,38.5,98.1,46.6,87.8,49l-5.2,2.2c-12.7,5.4-27,5.4-39.6-0.1l-5-2.2
				c-10.1-2.4-18-10.3-20.3-20.5l-3.2-14.2"/>
		</g>
		<g>
			<path class="st8" d="M87.8,45.6l-5.2,2.2c-12.7,5.4-27,5.4-39.6-0.1l-5-2.2c-10.1-2.4-18-10.3-20.3-20.5l-3.2-14.2
				c-0.1-0.4-0.4-0.7-0.8-0.8l-1.7-0.3c-0.9-0.2-1.1-1.3-0.4-1.8l1.1-0.9C15.7,4.5,19.9,3,24.1,3l3.7,0.8C50.5,8.4,74,8.4,96.6,3.6
				L99.5,3c5.2,0,10.2,2.2,13.7,6v0c0.7,0.7,0,1.9-0.9,1.7l0,0c-0.5-0.1-1.1,0.2-1.2,0.8l-2.8,13.2C106.1,35.1,98.1,43.2,87.8,45.6z
				"/>
			<path class="st1" d="M62.8,52.4c-6.9,0-13.7-1.4-20.1-4.1l-5-2.2C27.5,43.7,19.3,35.5,17,25.2L13.8,11c0-0.2-0.2-0.3-0.3-0.3
				l-1.7-0.3c-0.6-0.1-1.1-0.6-1.3-1.2c-0.2-0.6,0.1-1.2,0.6-1.6l1.1-0.9c3.4-2.7,7.7-4.2,12.1-4.2l0.1,0L28,3.2
				c22.8,4.7,45.8,4.6,68.5-0.2l3-0.6c5.4,0,10.5,2.3,14.2,6.2c0.5,0.5,0.6,1.2,0.2,1.9c-0.3,0.6-1,0.9-1.7,0.8
				c-0.2,0-0.5,0.1-0.5,0.3l-2.8,13.2C106.6,35.4,98.4,43.7,88,46.2l-5.2,2.2C76.5,51.1,69.7,52.4,62.8,52.4z M24.1,3.6
				C20,3.6,16,5,12.8,7.6l-1.1,0.9c-0.2,0.2-0.2,0.4-0.2,0.5c0,0.1,0.1,0.3,0.3,0.3l1.7,0.3c0.6,0.1,1.1,0.6,1.3,1.2l3.2,14.2
				C20.4,34.8,28.2,42.7,38,45l0.1,0l5,2.2c12.4,5.4,26.7,5.4,39.2,0.1l5.3-2.3c10-2.3,17.9-10.3,20.1-20.4l2.8-13.2
				c0.2-0.8,1-1.4,1.9-1.2c0.3,0.1,0.4-0.2,0.5-0.2c0-0.1,0.1-0.3-0.1-0.5c-3.4-3.7-8.2-5.8-13.3-5.8l-2.8,0.6
				C73.9,9,50.6,9.1,27.7,4.4L24.1,3.6z"/>
		</g>
		<g>
			<path class="st5" d="M14.2,6.4l1.6,0.3c0.4,0.1,0.7,0.4,0.8,0.8l3.1,14.2c2.2,10.2,9.7,18.1,19.4,20.5l4.8,2.2
				c12,5.5,25.7,5.5,37.8,0.1l5-2.2c9.8-2.4,17.4-10.5,19.5-20.8l2.7-13.2c0.1-0.5,1.9-0.9,2.1-1.2C107.7,4.4,103.7,3,99.5,3
				l-2.9,0.6C74,8.4,50.5,8.4,27.8,3.8L24.1,3C20.5,3,17,4.1,14,6C14,6,14,6.3,14.2,6.4z"/>
			<path class="st1" d="M62.8,49c-6.6,0-13.1-1.4-19.2-4.1l-4.8-2.2c-9.8-2.4-17.5-10.7-19.8-20.9L16,7.6c0-0.2-0.2-0.3-0.3-0.3
				l-1.6-0.3c-0.4-0.1-0.6-0.5-0.7-0.8l-0.1-0.4l0.3-0.2c3.1-2,6.7-3.1,10.5-3.1l0.1,0L28,3.2c22.8,4.7,45.8,4.6,68.5-0.2l3-0.6
				c4.2,0,8.4,1.4,11.8,4l0.4,0.3l-0.3,0.5c-0.2,0.3-0.5,0.4-1.1,0.6c-0.3,0.1-0.8,0.3-1,0.4l-2.7,13.2c-2.1,10.5-10,18.8-19.9,21.3
				l-4.9,2.2C75.8,47.7,69.3,49,62.8,49z M15.2,6l0.8,0.2c0.6,0.1,1.1,0.6,1.2,1.2l3.1,14.2c2.1,9.9,9.6,17.8,19,20.1l0.1,0l4.8,2.2
				c11.8,5.4,25.4,5.4,37.3,0.1l5.1-2.3c9.5-2.3,17-10.3,19.1-20.4L108.3,8c0.1-0.6,0.8-0.9,1.5-1.2c-3-2.1-6.6-3.2-10.2-3.2
				l-2.8,0.6C73.9,9,50.6,9.1,27.7,4.4l-3.7-0.8C20.9,3.6,17.9,4.4,15.2,6z"/>
		</g>
	</g>
	<g>
		<g>
			<g class="st7">
				<path class="st1" d="M69,6.4l-1.1,14.4c-1.2,16.2-1.3,32.4-0.1,48.6L69,85.7l-14.9,0.5l-1.2-17.7c-1.1-16.2-1.1-32.5,0.2-48.7
					l1-12.9C54.1,6.9,62.7,7.9,69,6.4z"/>
			</g>
			<g>
				<path class="st5" d="M65.9,88.7l-0.4-0.2c-1.5-0.7-3.3-0.7-4.8,0l-0.4,0.2c-2.2,1-4.6-0.6-4.6-3l-1.2-17.2
					c-1.1-16.2-1.1-32.5,0.2-48.7l1-13.4c0-2.4,2.6-4,4.8-2.9l0,0c1.7,0.9,3.7,0.9,5.4,0l0,0c2.2-1.1,4.8,0.4,4.8,2.9l-1.1,14.4
					c-1.2,16.2-1.3,32.4-0.1,48.6l1.2,16.4C70.5,88.1,68,89.7,65.9,88.7z"/>
				<path class="st1" d="M58.8,89.5c-0.7,0-1.4-0.2-2.1-0.6C55.7,88.2,55,87,55,85.7l-1.2-17.2c-1.1-16.2-1.1-32.6,0.2-48.8l1-13.4
					c0-1.3,0.7-2.5,1.8-3.2C58,2.4,59.4,2.4,60.6,3c1.5,0.8,3.3,0.8,4.8,0c1.2-0.6,2.6-0.6,3.8,0.1C70.4,3.8,71,5,71,6.4L70,20.8
					c-1.2,16.1-1.3,32.4-0.1,48.5L71,85.7c0,1.4-0.7,2.6-1.8,3.3c-1.1,0.7-2.5,0.8-3.7,0.3L65.2,89c-1.4-0.6-3-0.6-4.4,0l-0.4,0.2
					C59.9,89.4,59.4,89.5,58.8,89.5z M66.1,88.1c0.8,0.4,1.8,0.3,2.6-0.2c0.8-0.5,1.2-1.3,1.2-2.2l-1.2-16.3
					c-1.2-16.2-1.1-32.6,0.1-48.7l1.1-14.4c0-0.9-0.5-1.8-1.3-2.2C67.8,3.6,66.8,3.6,66,4c-1.9,1-4.1,1-5.9,0
					c-0.8-0.4-1.8-0.4-2.6,0.1c-0.8,0.5-1.3,1.3-1.3,2.3l-1,13.4c-1.3,16.1-1.3,32.5-0.2,48.6l1.2,17.2c0,1,0.5,1.8,1.2,2.3
					c0.8,0.5,1.7,0.6,2.6,0.2l0.4-0.2c1.7-0.8,3.6-0.8,5.3,0L66.1,88.1z"/>
			</g>
			<g>
				
					<ellipse transform="matrix(0.2082 -0.9781 0.9781 0.2082 19.4592 83.4869)" class="st1" cx="61.3" cy="29.7" rx="2.3" ry="1.5"/>
			</g>
		</g>
		<g>
			<g>
				<g class="st9">
					<path class="st1" d="M67.5,35.3H53.2c-4.2,0-7.6,3.4-7.6,7.6v11.4c0,4.2,3.4,7.6,7.6,7.6h14.3c4.2,0,7.6-3.4,7.6-7.6V42.9
						C75.1,38.7,71.7,35.3,67.5,35.3z M68.6,51.8c0,2.4-1.9,4.3-4.3,4.3h-8c-2.4,0-4.3-1.9-4.3-4.3v-6.4c0-2.4,1.9-4.3,4.3-4.3h8
						c2.4,0,4.3,1.9,4.3,4.3V51.8z"/>
				</g>
				<g>
					<path class="st10" d="M68.4,34.3H54.2c-4.2,0-7.6,3.4-7.6,7.6v11.4c0,4.2,3.4,7.6,7.6,7.6h14.3c4.2,0,7.6-3.4,7.6-7.6V41.9
						C76,37.7,72.6,34.3,68.4,34.3z M69.6,50.9c0,2.4-1.9,4.3-4.3,4.3h-8c-2.4,0-4.3-1.9-4.3-4.3v-6.4c0-2.4,1.9-4.3,4.3-4.3h8
						c2.4,0,4.3,1.9,4.3,4.3V50.9z"/>
					<path class="st1" d="M68.4,61.5H54.2c-4.5,0-8.2-3.7-8.2-8.2V41.9c0-4.5,3.7-8.2,8.2-8.2h14.3c4.5,0,8.2,3.7,8.2,8.2v11.4
						C76.6,57.9,73,61.5,68.4,61.5z M54.2,34.9c-3.9,0-7,3.2-7,7v11.4c0,3.9,3.2,7,7,7h14.3c3.9,0,7-3.2,7-7V41.9c0-3.9-3.2-7-7-7
						H54.2z M65.3,55.7h-8c-2.7,0-4.9-2.2-4.9-4.9v-6.4c0-2.7,2.2-4.9,4.9-4.9h8c2.7,0,4.9,2.2,4.9,4.9v6.4
						C70.2,53.5,68,55.7,65.3,55.7z M57.3,40.7c-2,0-3.7,1.7-3.7,3.7v6.4c0,2,1.7,3.7,3.7,3.7h8c2,0,3.7-1.7,3.7-3.7v-6.4
						c0-2-1.7-3.7-3.7-3.7H57.3z"/>
				</g>
				<g>
					<path class="st11" d="M72.7,40c-0.2,0-0.4-0.1-0.5-0.3c-0.2-0.3-0.5-0.7-0.8-1c-0.2-0.2-0.2-0.6,0-0.8c0.2-0.2,0.6-0.2,0.8,0
						c0.3,0.4,0.7,0.7,0.9,1.2c0.2,0.3,0.1,0.6-0.2,0.8C72.9,40,72.8,40,72.7,40z"/>
				</g>
				<g>
					<path class="st11" d="M73.7,46c-0.3,0-0.6-0.3-0.6-0.6v-2.6c0-0.3,0-0.5-0.1-0.8c0-0.3,0.2-0.6,0.5-0.6c0.3,0,0.6,0.2,0.6,0.5
						c0,0.3,0.1,0.6,0.1,0.9v2.6C74.3,45.8,74,46,73.7,46z"/>
				</g>
				<g>
					<path class="st11" d="M70.5,37.9c-0.1,0-0.2,0-0.3-0.1c-0.9-0.5-1.9-0.8-2.9-0.8c-0.3,0-0.6-0.3-0.6-0.6c0-0.3,0.3-0.6,0.6-0.6
						c1.2,0,2.4,0.3,3.5,0.9c0.3,0.2,0.4,0.5,0.2,0.8C70.9,37.8,70.7,37.9,70.5,37.9z"/>
				</g>
				<g>
					<path class="st12" d="M66.5,37.9H56.1c-3.1,0-5.5,2.5-5.5,5.5v8.3c0,3.1,2.5,5.5,5.5,5.5h10.4c3.1,0,5.5-2.5,5.5-5.5v-8.3
						C72,40.4,69.6,37.9,66.5,37.9z M69.6,50.9c0,2.4-1.9,4.3-4.3,4.3h-8c-2.4,0-4.3-1.9-4.3-4.3v-6.4c0-2.4,1.9-4.3,4.3-4.3h8
						c2.4,0,4.3,1.9,4.3,4.3V50.9z"/>
				</g>
				<g>
					<path class="st1" d="M68.4,61.5H54.2c-4.5,0-8.2-3.7-8.2-8.2V41.9c0-4.5,3.7-8.2,8.2-8.2h14.3c4.5,0,8.2,3.7,8.2,8.2v11.4
						C76.6,57.9,73,61.5,68.4,61.5z M54.2,34.9c-3.9,0-7,3.2-7,7v11.4c0,3.9,3.2,7,7,7h14.3c3.9,0,7-3.2,7-7V41.9c0-3.9-3.2-7-7-7
						H54.2z M65.3,55.7h-8c-2.7,0-4.9-2.2-4.9-4.9v-6.4c0-2.7,2.2-4.9,4.9-4.9h8c2.7,0,4.9,2.2,4.9,4.9v6.4
						C70.2,53.5,68,55.7,65.3,55.7z M57.3,40.7c-2,0-3.7,1.7-3.7,3.7v6.4c0,2,1.7,3.7,3.7,3.7h8c2,0,3.7-1.7,3.7-3.7v-6.4
						c0-2-1.7-3.7-3.7-3.7H57.3z"/>
				</g>
			</g>
			<g>
				<g class="st13">
					<path class="st1" d="M54.3,43l0.2-1.4c0.8-0.9,0.5,0,1.8,0h8c1.1,0,2,0.4,2.8,1l0,0.3c-0.3,8,0.6,15.9,2.4,23.2
						c0.5,2.2-0.6,4.3-2.8,4.6l-5,0.5c-2.8,0.3-5.3-1.5-6-4.2C54.1,61,53.3,49.2,54.3,43z"/>
				</g>
				<g>
					<path class="st5" d="M53.8,43l0.2-1.4c0.8-0.9,1.9-1.5,3.2-1.5h8c1.1,0,2,0.4,2.8,1l0,0.3c-0.3,8,0.6,15.9,2.4,23.2
						c0.5,2.2-0.6,4.3-2.8,4.6l-5,0.5c-2.8,0.3-5.3-1.5-6-4.2C55.1,59.5,52.8,49.2,53.8,43z"/>
					<path class="st1" d="M62.1,70.4c-2.8,0-5.3-1.9-6-4.7c-1.5-5.8-3.8-16.4-2.8-22.7l0.3-1.6l0.1-0.1c0.9-1.1,2.3-1.7,3.7-1.7h8
						c1.1,0,2.3,0.4,3.1,1.2l0.2,0.2l-0.1,0.6c-0.3,7.6,0.5,15.4,2.4,23c0.3,1.3,0.1,2.7-0.6,3.7c-0.6,0.9-1.6,1.4-2.7,1.6l-5.1,0.5
						C62.5,70.3,62.3,70.4,62.1,70.4z M54.4,43.1c-1,6.2,1.3,16.6,2.8,22.3c0.6,2.4,2.9,4,5.4,3.8l5-0.5c0.8-0.1,1.4-0.5,1.8-1.1
						c0.5-0.8,0.7-1.8,0.4-2.8c-1.9-7.7-2.7-15.6-2.4-23.3l0,0c-0.6-0.4-1.4-0.7-2.1-0.7h-8c-1,0-2,0.4-2.7,1.2L54.4,43.1z"/>
				</g>
				<g>
					<ellipse class="st1" cx="60.7" cy="44.3" rx="1.5" ry="2.3"/>
				</g>
				<g>
					<ellipse transform="matrix(0.9899 -0.1417 0.1417 0.9899 -7.1615 9.3504)" class="st1" cx="62.1" cy="55" rx="1.5" ry="2.3"/>
				</g>
				<g>
					<path class="st10" d="M61.7,44.2l-0.5,0.4c-0.3,0.3-0.8,0.3-1.1,0l-0.4-0.4v-5.5c0-0.5,0.4-0.9,0.9-0.9l0,0
						c0.5,0,0.9,0.4,0.9,0.9V44.2z"/>
					<path class="st1" d="M60.8,45.4C60.7,45.4,60.7,45.4,60.8,45.4c-0.4,0-0.7-0.2-1-0.4l-0.5-0.6v-5.7c0-0.8,0.7-1.5,1.5-1.5
						s1.5,0.7,1.5,1.5v5.7l-0.6,0.6C61.4,45.3,61.1,45.4,60.8,45.4z M60.4,44l0.2,0.2c0,0,0.1,0.1,0.1,0.1c0,0,0.1,0,0.1,0l0.3-0.3
						v-5.2c0-0.2-0.2-0.4-0.4-0.4s-0.4,0.2-0.4,0.4V44z"/>
				</g>
			</g>
		</g>
	</g>
</g>
</svg>
