<?xml version="1.0" encoding="utf-8"?>
<!-- Generator: Adobe Illustrator 24.2.3, SVG Export Plug-In . SVG Version: 6.00 Build 0)  -->
<svg version="1.1" id="Lag_1" xmlns="http://www.w3.org/2000/svg" xmlns:xlink="http://www.w3.org/1999/xlink" x="0px" y="0px"
	 viewBox="0 0 108.7 79.5" style="enable-background:new 0 0 108.7 79.5;" xml:space="preserve">
<style type="text/css">
	.st0{fill:#FFFCF5;}
	.st1{fill:#E9EEF4;}
	.st2{fill:#29549B;}
	.st3{fill:#2D2521;}
	.st4{opacity:0.69;}
	.st5{opacity:0.66;}
	.st6{opacity:0.66;fill:#E9EEF4;}
</style>
<g>
	<g>
		<g>
			<g>
				<path class="st0" d="M49.5,10.1c-0.3,0-0.6-0.3-0.6-0.6V1.4c0-0.3,0.3-0.6,0.6-0.6c0.3,0,0.6,0.3,0.6,0.6v8.1
					C50.1,9.8,49.8,10.1,49.5,10.1z"/>
			</g>
			<g>
				<path class="st0" d="M38.7,9.1c-0.1,0-0.3-0.1-0.3-0.2c-0.1-0.2,0-0.4,0.2-0.5l5.6-2.7c0.2-0.1,0.4,0,0.5,0.2
					c0.1,0.2,0,0.4-0.2,0.5l-5.6,2.7C38.9,9.1,38.8,9.1,38.7,9.1z"/>
			</g>
			<g>
				<path class="st0" d="M27.2,10.6c-0.1,0-0.2-0.1-0.2-0.2c0-0.1,0.1-0.2,0.2-0.2l8.9-0.9c0.1,0,0.2,0.1,0.2,0.2
					c0,0.1-0.1,0.2-0.2,0.2L27.2,10.6C27.2,10.6,27.2,10.6,27.2,10.6z"/>
			</g>
			<g>
				<path class="st0" d="M52.8,7.5c-0.2,0-0.4-0.2-0.4-0.4v-3c0-0.2,0.2-0.4,0.4-0.4c0.2,0,0.4,0.2,0.4,0.4v3
					C53.2,7.3,53,7.5,52.8,7.5z"/>
			</g>
			<g>
				<path class="st0" d="M59.3,8.5c-0.2,0-0.4-0.2-0.4-0.4V1.4C59,1.2,59.1,1,59.3,1s0.4,0.2,0.4,0.4v6.7
					C59.7,8.3,59.6,8.5,59.3,8.5z"/>
			</g>
			<g>
				<path class="st0" d="M69.6,8.7c0,0-0.1,0-0.1,0l-6.7-2.4c-0.2-0.1-0.3-0.3-0.2-0.5c0.1-0.2,0.3-0.3,0.5-0.2L69.8,8
					C70,8,70.1,8.3,70,8.5C69.9,8.6,69.8,8.7,69.6,8.7z"/>
			</g>
			<g>
				<path class="st0" d="M82.7,10.5C82.6,10.5,82.6,10.5,82.7,10.5L72.2,9.1c-0.2,0-0.4-0.2-0.3-0.4c0-0.2,0.2-0.4,0.4-0.3l10.5,1.4
					c0.2,0,0.4,0.2,0.3,0.4C83,10.3,82.9,10.5,82.7,10.5z"/>
			</g>
			<g>
				<path class="st0" d="M40.8,10.3c-0.1,0-0.1,0-0.2-0.1c0-0.1,0-0.2,0.1-0.3l2.9-1.3c0.1,0,0.2,0,0.3,0.1c0,0.1,0,0.2-0.1,0.3
					L40.8,10.3C40.9,10.3,40.8,10.3,40.8,10.3z"/>
			</g>
			<g>
				<path class="st0" d="M31.7,12.9c-0.2,0-0.4-0.1-0.4-0.3c0-0.2,0.1-0.4,0.3-0.4l6.2-0.9c0.2,0,0.4,0.1,0.4,0.3
					c0,0.2-0.1,0.4-0.3,0.4L31.7,12.9C31.7,12.9,31.7,12.9,31.7,12.9z"/>
			</g>
			<g>
				<path class="st0" d="M40.2,14.3c-0.1,0-0.2,0-0.3-0.1c-0.1-0.2-0.1-0.4,0.1-0.5l2.8-2.2c0.2-0.1,0.4-0.1,0.5,0.1
					c0.1,0.2,0.1,0.4-0.1,0.5l-2.8,2.2C40.3,14.3,40.3,14.3,40.2,14.3z"/>
			</g>
			<g>
				<path class="st0" d="M46.1,12.1C46.1,12.1,46.1,12.1,46.1,12.1c-0.3,0-0.4-0.2-0.4-0.4l0.4-2.9c0-0.2,0.2-0.4,0.4-0.3
					c0.2,0,0.4,0.2,0.3,0.4l-0.4,2.9C46.5,11.9,46.3,12.1,46.1,12.1z"/>
			</g>
			<g>
				<path class="st0" d="M52.8,14.1c-0.1,0-0.2-0.1-0.2-0.2V9.4c0-0.1,0.1-0.2,0.2-0.2c0.1,0,0.2,0.1,0.2,0.2v4.5
					C53,14,52.9,14.1,52.8,14.1z"/>
			</g>
			<g>
				<path class="st0" d="M50.4,17.7c-0.1,0-0.2-0.1-0.2-0.1L49,12.9c0-0.1,0-0.2,0.1-0.2c0.1,0,0.2,0,0.2,0.1l1.2,4.6
					C50.6,17.5,50.5,17.6,50.4,17.7C50.4,17.7,50.4,17.7,50.4,17.7z"/>
			</g>
			<g>
				<path class="st0" d="M55.6,15.3c-0.2,0-0.4-0.2-0.4-0.4v-4.1c0-0.2,0.2-0.4,0.4-0.4c0.2,0,0.4,0.2,0.4,0.4v4.1
					C56,15.1,55.9,15.3,55.6,15.3z"/>
			</g>
			<g>
				<path class="st0" d="M53,20.1c-0.2,0-0.4-0.2-0.4-0.4v-3c0-0.2,0.2-0.4,0.4-0.4c0.2,0,0.4,0.2,0.4,0.4v3
					C53.3,20,53.2,20.1,53,20.1z"/>
			</g>
			<g>
				<path class="st0" d="M56.6,20.3C56.6,20.3,56.5,20.3,56.6,20.3c-0.2-0.1-0.2-0.2-0.2-0.3l1-1.8c0.1-0.1,0.2-0.1,0.3-0.1
					c0.1,0.1,0.1,0.2,0.1,0.3l-1,1.8C56.7,20.3,56.7,20.3,56.6,20.3z"/>
			</g>
			<g>
				<path class="st0" d="M58.6,15.3C58.6,15.3,58.6,15.3,58.6,15.3c-0.1,0-0.2-0.1-0.2-0.2l0.6-4.4c0-0.1,0.1-0.2,0.2-0.2
					c0.1,0,0.2,0.1,0.2,0.2l-0.6,4.4C58.8,15.3,58.7,15.3,58.6,15.3z"/>
			</g>
			<g>
				<path class="st0" d="M62.2,9.6c0,0-0.1,0-0.1,0l-0.9-0.7c-0.1-0.1-0.1-0.2,0-0.3c0.1-0.1,0.2-0.1,0.3,0l0.9,0.7
					c0.1,0.1,0.1,0.2,0,0.3C62.4,9.6,62.3,9.6,62.2,9.6z"/>
			</g>
			<g>
				<path class="st0" d="M61.2,13.3c-0.1,0-0.3-0.1-0.3-0.2c-0.1-0.2-0.1-0.4,0.1-0.5l1.4-0.9c0.2-0.1,0.4-0.1,0.5,0.1
					c0.1,0.2,0.1,0.4-0.1,0.5l-1.4,0.9C61.4,13.3,61.3,13.3,61.2,13.3z"/>
			</g>
			<g>
				<path class="st0" d="M70.2,12.3c-0.1,0-0.1,0-0.2,0l-5.6-2.4c-0.2-0.1-0.3-0.3-0.2-0.5c0.1-0.2,0.3-0.3,0.5-0.2l5.6,2.4
					c0.2,0.1,0.3,0.3,0.2,0.5C70.5,12.2,70.3,12.3,70.2,12.3z"/>
			</g>
			<g>
				<path class="st0" d="M66.7,14.1C66.7,14.1,66.6,14.1,66.7,14.1l-2.2-1c-0.1,0-0.1-0.1-0.1-0.2c0-0.1,0.1-0.1,0.2-0.1l2.1,1
					c0.1,0,0.1,0.1,0.1,0.2C66.8,14,66.7,14.1,66.7,14.1z"/>
			</g>
			<g>
				<path class="st0" d="M78.7,12.7C78.7,12.7,78.7,12.7,78.7,12.7l-5.1-0.9c-0.1,0-0.1-0.1-0.1-0.2c0-0.1,0.1-0.1,0.2-0.1l5.1,0.9
					c0.1,0,0.1,0.1,0.1,0.2C78.8,12.6,78.8,12.7,78.7,12.7z"/>
			</g>
		</g>
		<g>
			<path class="st0" d="M52.8,28.8c-0.1,0-0.2-0.1-0.2-0.2v-6.3c0-0.1,0.1-0.2,0.2-0.2c0.1,0,0.2,0.1,0.2,0.2v6.3
				C53,28.7,52.9,28.8,52.8,28.8z"/>
		</g>
		<g>
			<path class="st0" d="M42.3,17.2c-0.1,0-0.2,0-0.2-0.1c-0.2-0.1-0.2-0.4-0.1-0.5l2-2.9c0.1-0.2,0.4-0.2,0.5-0.1
				c0.2,0.1,0.2,0.4,0.1,0.5l-2,2.9C42.5,17.1,42.4,17.2,42.3,17.2z"/>
		</g>
		<g>
			<path class="st0" d="M48.1,20.1c-0.2,0-0.3-0.1-0.4-0.3L46.3,14c0-0.2,0.1-0.4,0.3-0.5c0.2-0.1,0.4,0.1,0.5,0.3l1.4,5.8
				C48.5,19.8,48.4,20,48.1,20.1C48.1,20.1,48.1,20.1,48.1,20.1z"/>
		</g>
		<g>
			<path class="st0" d="M34.2,16.1c-0.1,0-0.3-0.1-0.3-0.2c-0.1-0.2,0-0.4,0.2-0.5l2.5-1.2c0.2-0.1,0.4,0,0.5,0.2
				c0.1,0.2,0,0.4-0.2,0.5l-2.5,1.2C34.4,16.1,34.3,16.1,34.2,16.1z"/>
		</g>
		<g>
			<path class="st0" d="M21.3,12c-0.1,0-0.3-0.1-0.3-0.2c-0.1-0.2-0.1-0.4,0.1-0.5l2.8-1.7c0.2-0.1,0.4-0.1,0.5,0.1
				c0.1,0.2,0.1,0.4-0.1,0.5L21.5,12C21.4,12,21.3,12,21.3,12z"/>
		</g>
		<g>
			<path class="st0" d="M24.8,14.1c-0.1,0-0.2-0.1-0.2-0.1c0-0.1,0-0.2,0.1-0.2l4.3-1.4c0.1,0,0.2,0,0.2,0.1c0,0.1,0,0.2-0.1,0.2
				L24.8,14.1C24.9,14.1,24.8,14.1,24.8,14.1z"/>
		</g>
		<g>
			<path class="st0" d="M31.7,19c-0.1,0-0.2,0-0.3-0.1l-3.2-1.6c-0.3-0.1-0.4-0.5-0.3-0.8c0.1-0.3,0.5-0.4,0.8-0.3l3.2,1.6
				c0.3,0.1,0.4,0.5,0.3,0.8C32.1,18.9,31.9,19,31.7,19z"/>
		</g>
		<g>
			<path class="st0" d="M34.2,22.8C34.2,22.8,34.2,22.8,34.2,22.8l-5.1-1.8C29,21,29,20.9,29,20.8c0-0.1,0.1-0.2,0.2-0.1l5,1.8
				c0.1,0,0.2,0.1,0.1,0.2C34.4,22.8,34.3,22.8,34.2,22.8z"/>
		</g>
		<g>
			<path class="st0" d="M27,25.8c-0.1,0-0.2,0-0.2-0.1l-3.3-2.5c-0.2-0.1-0.2-0.4-0.1-0.5c0.1-0.2,0.4-0.2,0.5-0.1l3.3,2.5
				c0.2,0.1,0.2,0.4,0.1,0.5C27.2,25.7,27.1,25.8,27,25.8z"/>
		</g>
		<g>
			<path class="st0" d="M28.5,29.6C28.5,29.6,28.4,29.6,28.5,29.6l-5.4-1.5c-0.1,0-0.2-0.1-0.1-0.2c0-0.1,0.1-0.2,0.2-0.1l5.4,1.5
				c0.1,0,0.2,0.1,0.1,0.2C28.6,29.6,28.6,29.6,28.5,29.6z"/>
		</g>
		<g>
			<path class="st0" d="M30.6,24.5c-0.1,0-0.1,0-0.2,0l-5.8-3.3c-0.2-0.1-0.3-0.3-0.1-0.5s0.3-0.3,0.5-0.1l5.8,3.3
				c0.2,0.1,0.3,0.3,0.1,0.5C30.9,24.5,30.8,24.5,30.6,24.5z"/>
		</g>
		<g>
			<path class="st0" d="M27.9,34.8c-0.1,0-0.1,0-0.2-0.1l-5.1-3.1c-0.2-0.1-0.2-0.3-0.1-0.5c0.1-0.2,0.3-0.2,0.5-0.1l5.1,3.1
				c0.2,0.1,0.2,0.3,0.1,0.5C28.1,34.7,28,34.8,27.9,34.8z"/>
		</g>
		<g>
			<path class="st0" d="M6.5,36.6c-0.1,0-0.3-0.1-0.3-0.2l-2.9-5.9c-0.1-0.2,0-0.4,0.2-0.5c0.2-0.1,0.4,0,0.5,0.2L6.9,36
				c0.1,0.2,0,0.4-0.2,0.5C6.6,36.6,6.6,36.6,6.5,36.6z"/>
		</g>
		<g>
			<path class="st0" d="M10,35.6c-0.2,0-0.3-0.1-0.4-0.3l-1-4.9c0-0.2,0.1-0.4,0.3-0.5c0.2,0,0.4,0.1,0.5,0.3l1,4.9
				C10.4,35.4,10.3,35.6,10,35.6C10,35.6,10,35.6,10,35.6z"/>
		</g>
		<g>
			<path class="st0" d="M12.7,32.1c-0.1,0-0.2-0.1-0.2-0.2v-5.2c0-0.1,0.1-0.2,0.2-0.2c0.1,0,0.2,0.1,0.2,0.2v5.2
				C12.9,32,12.8,32.1,12.7,32.1z"/>
		</g>
		<g>
			<path class="st1" d="M16,35.3C15.9,35.3,15.9,35.3,16,35.3c-0.3-0.1-0.4-0.3-0.4-0.5l0.7-3c0-0.2,0.3-0.3,0.5-0.3
				c0.2,0,0.3,0.3,0.3,0.5l-0.7,3C16.3,35.2,16.1,35.3,16,35.3z"/>
		</g>
		<g>
			<path class="st1" d="M18.7,36.2C18.7,36.2,18.6,36.2,18.7,36.2c-0.2,0-0.2-0.1-0.2-0.2l2.4-8.1c0-0.1,0.1-0.2,0.2-0.1
				c0.1,0,0.2,0.1,0.1,0.2l-2.4,8.1C18.8,36.2,18.8,36.2,18.7,36.2z"/>
		</g>
		<g>
			<path class="st1" d="M42.3,63.5c-0.1,0-0.1,0-0.2-0.1l-6.9-8.8c-0.1-0.1-0.1-0.2,0-0.3c0.1-0.1,0.2-0.1,0.3,0l6.9,8.8
				c0.1,0.1,0.1,0.2,0,0.3C42.3,63.5,42.3,63.5,42.3,63.5z"/>
		</g>
		<g>
			<path class="st1" d="M42.9,59.8c-0.1,0-0.1,0-0.1-0.1l-1.4-3.8c0-0.1,0-0.2,0.1-0.2c0.1,0,0.2,0,0.2,0.1l1.4,3.8
				C43.1,59.7,43.1,59.8,42.9,59.8C43,59.8,43,59.8,42.9,59.8z"/>
		</g>
		<g>
			<path class="st1" d="M45.6,58.5c-0.2,0-0.3-0.1-0.4-0.2l-2.3-6.1c-0.1-0.2,0-0.4,0.2-0.5c0.2-0.1,0.4,0,0.5,0.2l2.3,6.1
				c0.1,0.2,0,0.4-0.2,0.5C45.7,58.5,45.6,58.5,45.6,58.5z"/>
		</g>
		<g>
			<path class="st1" d="M49.2,61.5c-0.1,0-0.2-0.1-0.2-0.1l-2.5-7.6c0-0.1,0-0.2,0.1-0.2c0.1,0,0.2,0,0.2,0.1l2.5,7.6
				C49.4,61.4,49.4,61.5,49.2,61.5C49.2,61.5,49.2,61.5,49.2,61.5z"/>
		</g>
		<g>
			<path class="st1" d="M52.5,61.3c-0.2,0-0.3-0.1-0.4-0.3l-1.5-7.2c0-0.2,0.1-0.4,0.3-0.5c0.2,0,0.4,0.1,0.5,0.3l1.5,7.2
				C52.9,61,52.7,61.2,52.5,61.3C52.5,61.3,52.5,61.3,52.5,61.3z"/>
		</g>
		<g>
			<path class="st1" d="M54.9,30.5c-0.1,0-0.2-0.1-0.2-0.2v-4.9c0-0.1,0.1-0.2,0.2-0.2s0.2,0.1,0.2,0.2v4.9
				C55.1,30.4,55,30.5,54.9,30.5z"/>
		</g>
		<g>
			<path class="st1" d="M54,39.6c-0.2,0-0.4-0.2-0.4-0.4v-4.3c0-0.2,0.2-0.4,0.4-0.4c0.2,0,0.4,0.2,0.4,0.4v4.3
				C54.4,39.5,54.2,39.6,54,39.6z"/>
		</g>
		<g>
			<path class="st1" d="M54.9,47.1c-0.1,0-0.1-0.1-0.1-0.1v-4.3c0-0.1,0.1-0.1,0.1-0.1s0.1,0.1,0.1,0.1V47
				C55,47.1,54.9,47.1,54.9,47.1z"/>
		</g>
		<g>
			<path class="st1" d="M75.9,16.1c0,0-0.1,0-0.1,0l-5.5-1.8c-0.2-0.1-0.3-0.3-0.2-0.5c0.1-0.2,0.3-0.3,0.5-0.2l5.5,1.8
				c0.2,0.1,0.3,0.3,0.2,0.5C76.3,16,76.1,16.1,75.9,16.1z"/>
		</g>
		<g>
			<path class="st1" d="M78.7,18.8c-0.1,0-0.3-0.1-0.3-0.2c-0.1-0.2,0-0.4,0.1-0.5l4-2.2c0.2-0.1,0.4,0,0.5,0.1
				c0.1,0.2,0,0.4-0.1,0.5l-4,2.2C78.8,18.8,78.7,18.8,78.7,18.8z"/>
		</g>
		<g>
			<path class="st1" d="M75.7,22.7c-0.1,0-0.2,0-0.2-0.1c0-0.1,0-0.2,0.1-0.2l8.1-2.8c0.1,0,0.2,0,0.2,0.1c0,0.1,0,0.2-0.1,0.2
				L75.7,22.7C75.8,22.7,75.7,22.7,75.7,22.7z"/>
		</g>
		<g>
			<path class="st1" d="M78,27.1c-0.1,0-0.3-0.1-0.4-0.2c-0.1-0.2,0-0.4,0.2-0.5l7.6-3.2c0.2-0.1,0.4,0,0.5,0.2
				c0.1,0.2,0,0.4-0.2,0.5l-7.6,3.2C78.1,27.1,78.1,27.1,78,27.1z"/>
		</g>
		<g>
			<path class="st1" d="M83.2,28.3c-0.1,0-0.3-0.1-0.3-0.2c-0.1-0.2,0-0.4,0.1-0.5l3.4-2c0.2-0.1,0.4,0,0.5,0.1
				c0.1,0.2,0,0.4-0.1,0.5l-3.4,2C83.4,28.3,83.3,28.3,83.2,28.3z"/>
		</g>
		<g>
			<path class="st1" d="M80.3,33.7c-0.1,0-0.1,0-0.2-0.1c0-0.1,0-0.2,0.1-0.3l3.5-1.6c0.1,0,0.2,0,0.3,0.1c0,0.1,0,0.2-0.1,0.3
				L80.3,33.7C80.3,33.7,80.3,33.7,80.3,33.7z"/>
		</g>
		<g>
			<path class="st1" d="M92.7,37.5c-0.2,0-0.3-0.1-0.4-0.3l-2.1-7c-0.1-0.2,0.1-0.4,0.3-0.5c0.2-0.1,0.4,0.1,0.5,0.3l2.1,7
				c0.1,0.2-0.1,0.4-0.3,0.5C92.8,37.5,92.7,37.5,92.7,37.5z"/>
		</g>
		<g>
			<path class="st1" d="M95.5,31.7c-0.1,0-0.2-0.1-0.2-0.2l-0.6-3c0-0.1,0-0.2,0.2-0.2c0.1,0,0.2,0,0.2,0.2l0.6,3
				C95.7,31.6,95.6,31.7,95.5,31.7C95.5,31.7,95.5,31.7,95.5,31.7z"/>
		</g>
		<g>
			<path class="st1" d="M99.4,35.3c-0.2,0-0.3-0.1-0.4-0.3l-1.3-7c0-0.2,0.1-0.4,0.3-0.4c0.2,0,0.4,0.1,0.4,0.3l1.3,7
				C99.8,35.1,99.7,35.3,99.4,35.3C99.4,35.3,99.4,35.3,99.4,35.3z"/>
		</g>
		<g>
			<path class="st1" d="M103,35.8c-0.1,0-0.1-0.1-0.1-0.1l-0.5-3c0-0.1,0-0.2,0.1-0.2c0.1,0,0.2,0,0.2,0.1l0.5,3
				C103.1,35.7,103.1,35.8,103,35.8C103,35.8,103,35.8,103,35.8z"/>
		</g>
		<g>
			<path class="st1" d="M104.9,36c-0.2,0-0.4-0.2-0.4-0.4l-0.6-7c0-0.2,0.1-0.4,0.3-0.4c0.2,0,0.4,0.1,0.4,0.3l0.6,7
				C105.3,35.8,105.2,36,104.9,36C104.9,36,104.9,36,104.9,36z"/>
		</g>
		<g>
			<path class="st1" d="M57.2,61.1C57.2,61.1,57.2,61.1,57.2,61.1c-0.3,0-0.4-0.2-0.4-0.4l0.6-5.7c0-0.2,0.2-0.4,0.4-0.3
				c0.2,0,0.4,0.2,0.3,0.4l-0.6,5.7C57.6,61,57.4,61.1,57.2,61.1z"/>
		</g>
		<g>
			<path class="st1" d="M59.5,62.1C59.5,62.1,59.5,62.1,59.5,62.1c-0.1,0-0.2-0.1-0.2-0.2l0.7-3.4c0-0.1,0.1-0.2,0.2-0.1
				c0.1,0,0.2,0.1,0.1,0.2l-0.7,3.4C59.7,62,59.6,62.1,59.5,62.1z"/>
		</g>
		<g>
			<path class="st1" d="M62.6,59.1C62.6,59.1,62.6,59.1,62.6,59.1c-0.1,0-0.2-0.1-0.2-0.2l0.5-2.6c0-0.1,0.1-0.2,0.2-0.2
				c0.1,0,0.2,0.1,0.2,0.2L62.8,59C62.8,59.1,62.7,59.1,62.6,59.1z"/>
		</g>
		<g>
			<path class="st1" d="M63.9,62c0,0-0.1,0-0.1,0c-0.2-0.1-0.3-0.3-0.2-0.5l0.7-2c0.1-0.2,0.3-0.3,0.5-0.2c0.2,0.1,0.3,0.3,0.2,0.5
				l-0.7,2C64.2,61.9,64.1,62,63.9,62z"/>
		</g>
		<g>
			<path class="st1" d="M66.1,63.7c0,0-0.1,0-0.1,0c-0.2-0.1-0.3-0.3-0.2-0.5l2.4-7c0.1-0.2,0.3-0.3,0.5-0.2
				c0.2,0.1,0.3,0.3,0.2,0.5l-2.4,7C66.4,63.6,66.3,63.7,66.1,63.7z"/>
		</g>
		<g>
			<path class="st1" d="M68.5,64.1C68.4,64.1,68.4,64.1,68.5,64.1c-0.1-0.1-0.2-0.2-0.1-0.2l4.1-6c0-0.1,0.1-0.1,0.2,0
				c0.1,0,0.1,0.1,0,0.2l-4.1,6C68.6,64.1,68.5,64.1,68.5,64.1z"/>
		</g>
		<g>
			<path class="st1" d="M53.4,52.5C53.3,52.5,53.3,52.5,53.4,52.5c-0.2,0-0.4-0.2-0.4-0.4l0.2-1.9c0-0.2,0.2-0.4,0.4-0.3
				c0.2,0,0.4,0.2,0.3,0.4l-0.2,1.9C53.7,52.3,53.6,52.5,53.4,52.5z"/>
		</g>
		<g>
			<g>
				<path class="st1" d="M30.7,59.1C30.7,59.1,30.7,59.1,30.7,59.1c-0.1,0-0.2-0.1-0.1-0.2l1.5-5.2c0-0.1,0.1-0.1,0.2-0.1
					c0.1,0,0.1,0.1,0.1,0.2L30.8,59C30.8,59,30.8,59.1,30.7,59.1z"/>
			</g>
			<g>
				<path class="st1" d="M33.2,58.5c0,0-0.1,0-0.1,0c-0.2-0.1-0.3-0.3-0.3-0.5l1-3.1c0.1-0.2,0.3-0.3,0.5-0.3
					c0.2,0.1,0.3,0.3,0.3,0.5l-1,3.1C33.5,58.4,33.3,58.5,33.2,58.5z"/>
			</g>
			<g>
				<path class="st1" d="M33.7,62.5c-0.1,0-0.2,0-0.3-0.1c-0.3-0.2-0.4-0.5-0.2-0.8l1-1.7c0.2-0.3,0.5-0.4,0.8-0.2
					c0.3,0.2,0.4,0.5,0.2,0.8l-1,1.7C34.1,62.4,33.9,62.5,33.7,62.5z"/>
			</g>
			<g>
				<path class="st1" d="M36.2,64.7c-0.2,0-0.3-0.1-0.4-0.3c-0.1-0.2,0-0.4,0.2-0.5l4.7-1.5c0.2-0.1,0.4,0,0.5,0.2
					c0.1,0.2,0,0.4-0.2,0.5l-4.7,1.5C36.3,64.7,36.2,64.7,36.2,64.7z"/>
			</g>
			<g>
				<path class="st1" d="M37.4,67c-0.1,0-0.1,0-0.2-0.1c0-0.1,0-0.2,0.1-0.3l4.8-2.5c0.1,0,0.2,0,0.3,0.1c0,0.1,0,0.2-0.1,0.3
					L37.4,67C37.5,66.9,37.5,67,37.4,67z"/>
			</g>
			<g>
				<path class="st1" d="M41.5,67.7c-0.1,0-0.1,0-0.1-0.1c0-0.1,0-0.2,0.1-0.2l2.9-1.2c0.1,0,0.2,0,0.2,0.1c0,0.1,0,0.2-0.1,0.2
					L41.5,67.7C41.5,67.7,41.5,67.7,41.5,67.7z"/>
			</g>
			<g>
				<path class="st1" d="M78.7,61c-0.2,0-0.4-0.1-0.4-0.3l-0.9-8.5c0-0.2,0.1-0.4,0.3-0.4c0.2,0,0.4,0.1,0.4,0.3l0.9,8.5
					C79.1,60.8,78.9,60.9,78.7,61C78.7,61,78.7,61,78.7,61z"/>
			</g>
			<g>
				<path class="st1" d="M75.7,63.6c-0.1,0-0.2-0.1-0.2-0.1l-1.8-7.8c0-0.1,0-0.2,0.1-0.2c0.1,0,0.2,0,0.2,0.1l1.8,7.8
					C75.9,63.5,75.9,63.6,75.7,63.6C75.7,63.6,75.7,63.6,75.7,63.6z"/>
			</g>
			<g>
				<path class="st1" d="M73.9,64c-0.1,0-0.2,0-0.2-0.1l-1.2-3.3c0-0.1,0-0.2,0.1-0.2c0.1,0,0.2,0,0.2,0.1l1.2,3.3
					C74.1,63.9,74.1,64,73.9,64C74,64,73.9,64,73.9,64z"/>
			</g>
			<g>
				<path class="st1" d="M72,65.4c-0.1,0-0.1,0-0.2-0.1l-3.6-2.2c-0.2-0.1-0.2-0.3-0.1-0.5c0.1-0.2,0.3-0.2,0.5-0.1l3.6,2.2
					c0.2,0.1,0.2,0.3,0.1,0.5C72.3,65.3,72.2,65.4,72,65.4z"/>
			</g>
			<g>
				<path class="st1" d="M68.5,65.9c0,0-0.1,0-0.1,0L66,64.4c-0.1-0.1-0.1-0.2-0.1-0.3C66,64,66.1,64,66.2,64l2.4,1.5
					c0.1,0.1,0.1,0.2,0.1,0.3C68.6,65.9,68.5,65.9,68.5,65.9z"/>
			</g>
			<g>
				<path class="st1" d="M69.6,69.1c0,0-0.1,0-0.1,0l-2.3-0.9c-0.2-0.1-0.3-0.3-0.2-0.5c0.1-0.2,0.3-0.3,0.5-0.2l2.3,0.9
					c0.2,0.1,0.3,0.3,0.2,0.5C69.9,69,69.8,69.1,69.6,69.1z"/>
			</g>
		</g>
	</g>
	<g>
		<g>
			<path class="st2" d="M78.5,53.5l-6.8,6.2l-15.8-4.7V26l6.2-10.2h13.9l6.5,16.9C85.3,40,83.6,48.9,78.5,53.5z"/>
			<path class="st3" d="M71.7,60.1l-16.3-4.9V25.9l6.4-10.5h14.4l6.6,17.2c2.9,7.4,1.1,16.5-4.1,21.2L71.7,60.1z M56.2,54.7
				l15.3,4.6l6.7-6c5-4.5,6.7-13.3,3.9-20.4l-6.4-16.7H62.3l-6,10V54.7z M78.5,53.5L78.5,53.5L78.5,53.5z"/>
		</g>
		<g class="st4">
			<path class="st1" d="M71.4,56.1l-13.3-4V27.9l5.2-8.6H75l5.5,14.1c2.3,6.1,0.9,13.6-3.4,17.4L77,50.8l0.1,0.1L71.4,56.1z
				 M58.5,51.8l12.8,3.8l5.6-5c4.2-3.8,5.6-11.1,3.3-17l-5.4-13.9H63.5L58.5,28V51.8z"/>
		</g>
		<g class="st5">
			<path class="st1" d="M59.2,50.5h0.3v-0.7h-0.2v-0.2c0.1,0,0.2-0.1,0.3-0.1h0.2v1h0.2v0.3h-0.7V50.5z"/>
		</g>
		<g class="st5">
			<path class="st1" d="M73.7,22.3H74v-0.7h-0.2v-0.2c0.1,0,0.2-0.1,0.3-0.1h0.2v1h0.2v0.3h-0.7V22.3z"/>
		</g>
		<g>
			<path class="st1" d="M77.8,35.3c-0.2,0-0.3-0.1-0.4-0.2l-1.8-4.6c-0.1-0.2,0-0.4,0.2-0.5c0.2-0.1,0.4,0,0.5,0.2l1.8,4.6
				c0.1,0.2,0,0.4-0.2,0.5C77.9,35.3,77.9,35.3,77.8,35.3z"/>
		</g>
		<g>
			<path class="st1" d="M75.2,28.9c-0.2,0-0.3-0.1-0.4-0.3l-0.4-1.2c-0.1-0.2,0.1-0.4,0.3-0.5c0.2-0.1,0.4,0.1,0.5,0.3l0.4,1.2
				c0.1,0.2-0.1,0.4-0.3,0.5C75.3,28.9,75.2,28.9,75.2,28.9z"/>
		</g>
	</g>
	<g>
		<g>
			<path class="st2" d="M30.2,53.5l6.8,6.2l15.8-4.7V26l-6.2-10.2H32.7l-6.5,16.9C23.4,40,25.1,48.9,30.2,53.5z"/>
			<path class="st3" d="M36.9,60.1l-7-6.3c-5.2-4.7-7-13.8-4.1-21.2l6.6-17.2h14.4l6.4,10.5v29.4L36.9,60.1z M30.4,53.2l6.7,6
				l15.3-4.6V26.1l-6-10H33l-6.4,16.7C23.8,39.9,25.5,48.7,30.4,53.2z"/>
		</g>
		<g class="st4">
			<path class="st1" d="M37.3,56.1l-5.7-5.2c-4.3-3.9-5.7-11.3-3.4-17.4l5.5-14.1h11.7l5.2,8.6v24.2L37.3,56.1z M33.9,19.7
				l-5.4,13.9c-2.3,5.9-0.9,13.3,3.3,17l5.6,5l12.8-3.8V28l-5.1-8.3H33.9z"/>
		</g>
		<g class="st5">
			<g>
				<path class="st1" d="M48.4,50.5h0.3v-0.7h-0.2v-0.2c0.1,0,0.2-0.1,0.3-0.1H49v1h0.2v0.3h-0.7V50.5z"/>
			</g>
		</g>
		<g class="st5">
			<path class="st1" d="M34.4,22.3h0.3v-0.7h-0.2v-0.2c0.1,0,0.2-0.1,0.3-0.1h0.2v1h0.2v0.3h-0.7V22.3z"/>
		</g>
		<g>
			<path class="st1" d="M48.4,36.2c-0.2,0-0.4-0.2-0.4-0.4v-4.3c0-0.2,0.2-0.4,0.4-0.4c0.2,0,0.4,0.2,0.4,0.4v4.3
				C48.7,36,48.6,36.2,48.4,36.2z"/>
		</g>
		<g>
			<path class="st1" d="M48.4,40.3c-0.2,0-0.4-0.2-0.4-0.4v-1.4c0-0.2,0.2-0.4,0.4-0.4c0.2,0,0.4,0.2,0.4,0.4v1.4
				C48.7,40.1,48.6,40.3,48.4,40.3z"/>
		</g>
	</g>
	<g>
		<g>
			<path class="st2" d="M22.8,31.9l-4.1-1.5L3.5,31.9l-1.4-5.6c-0.6-2.5-0.4-5.2,0.5-7.6l2-5l11.2-5.2c1.2-0.6,2.7-0.5,3.8,0.3
				l9.5,6.4L22.8,31.9z"/>
			<path class="st3" d="M23,32.4l-4.4-1.6L3.2,32.3l-1.4-6c-0.6-2.6-0.4-5.3,0.5-7.8l2-5.2l11.4-5.3c1.3-0.6,2.9-0.5,4.1,0.3
				l9.7,6.6L23,32.4z M4.9,14L3,18.8c-0.9,2.3-1.1,4.9-0.5,7.3l1.3,5.3l15-1.5l3.9,1.4l6-16.1l-9.2-6.2c-1-0.7-2.3-0.8-3.4-0.3
				L4.9,14z"/>
		</g>
		<g class="st4">
			<path class="st1" d="M21.3,29.6L18,28.4L5.9,29.6L4.8,25c-0.5-2-0.3-4.1,0.4-6l1.6-4l8.9-4.1c1-0.5,2.2-0.4,3.1,0.3l7.6,5.1
				L21.3,29.6z M7.1,15.3l-1.5,3.9C4.9,21,4.7,23,5.2,25l1,4.3L18,28l3.1,1.1l4.8-12.8l-7.3-4.9c-0.8-0.5-1.9-0.6-2.8-0.2L7.1,15.3z
				"/>
		</g>
		<g>
			<path class="st6" d="M7.8,17.3c0.3-0.3,0.6-0.6,0.6-0.8c0-0.1-0.1-0.2-0.2-0.2c-0.1,0-0.2,0.1-0.2,0.2l-0.2-0.2
				C7.8,16.2,8,16.1,8.2,16c0.3,0,0.5,0.1,0.5,0.4c0,0.2-0.2,0.5-0.4,0.7c0.1,0,0.2,0,0.2,0l0.3,0l0,0.3l-1.1,0.1L7.8,17.3z"/>
		</g>
		<g>
			<path class="st6" d="M19.3,27.2c0.4-0.2,0.7-0.4,0.8-0.6c0-0.1,0-0.2-0.2-0.2c-0.1,0-0.2,0-0.3,0.1l-0.1-0.2
				c0.2-0.1,0.3-0.2,0.5-0.1c0.3,0.1,0.4,0.3,0.4,0.6c-0.1,0.2-0.3,0.4-0.6,0.6c0.1,0,0.2,0,0.2,0l0.3,0.1l-0.1,0.3l-1-0.2
				L19.3,27.2z"/>
		</g>
		<g>
			<path class="st1" d="M22.3,19.8c0,0-0.1,0-0.1,0c-0.2-0.1-0.3-0.3-0.2-0.5l0.8-1.9c0.1-0.2,0.3-0.3,0.5-0.2
				c0.2,0.1,0.3,0.3,0.2,0.5l-0.8,1.9C22.6,19.7,22.4,19.8,22.3,19.8z"/>
		</g>
		<g>
			<path class="st1" d="M21.1,23.3c0,0-0.1,0-0.1,0c-0.2-0.1-0.3-0.3-0.2-0.5l0.4-1.3c0.1-0.2,0.3-0.3,0.5-0.2
				c0.2,0.1,0.3,0.3,0.2,0.5L21.4,23C21.4,23.2,21.2,23.3,21.1,23.3z"/>
		</g>
	</g>
	<g>
		<g>
			<path class="st2" d="M86.5,31.7l4.1-1.6l15.3,1l1.2-5.7c0.5-2.5,0.3-5.2-0.8-7.5l-2.1-5L92.7,8.1c-1.2-0.5-2.7-0.4-3.8,0.4
				l-9.3,6.7L86.5,31.7z"/>
			<path class="st3" d="M86.3,32.2L79.2,15l9.5-6.9c1.2-0.9,2.8-1,4.1-0.5l11.5,4.9l2.2,5.1c1.1,2.5,1.3,5.2,0.8,7.8l-1.3,6
				l-15.5-1.1L86.3,32.2z M80.1,15.3l6.5,15.9l3.8-1.5l15,1l1.1-5.4c0.5-2.5,0.3-5-0.7-7.3l-2.1-4.8L92.6,8.4
				c-1.1-0.5-2.4-0.3-3.4,0.4L80.1,15.3z"/>
		</g>
		<g class="st4">
			<path class="st1" d="M87.9,29.4l-5.5-13.3l7.4-5.3c0.9-0.7,2.1-0.8,3.1-0.3l9,3.8l1.7,4c0.8,1.9,1,4,0.6,6l-1,4.6l-12.1-0.8
				L87.9,29.4z M82.9,16.3l5.2,12.6l3.1-1.2l0,0l11.8,0.8l0.9-4.3c0.4-2,0.2-4-0.6-5.8l-1.6-3.8l-8.9-3.8c-0.9-0.4-2-0.3-2.8,0.3
				L82.9,16.3z"/>
		</g>
		<g>
			<path class="st6" d="M99.5,16.6c0.4-0.3,0.7-0.5,0.7-0.7c0-0.1-0.1-0.2-0.2-0.2c-0.1,0-0.2,0.1-0.3,0.1l-0.2-0.2
				c0.2-0.2,0.3-0.2,0.5-0.2c0.3,0,0.5,0.2,0.5,0.5c0,0.2-0.3,0.5-0.5,0.7c0.1,0,0.2,0,0.2,0l0.3,0l0,0.3l-1.1-0.1L99.5,16.6z"/>
		</g>
		<g>
			<path class="st6" d="M88.4,27.2c0.2-0.4,0.4-0.8,0.3-0.9c-0.1-0.1-0.1-0.1-0.3-0.1c-0.1,0-0.1,0.1-0.2,0.2L88,26.3
				c0.1-0.2,0.2-0.3,0.4-0.4c0.3-0.1,0.5,0,0.7,0.2c0.1,0.2,0,0.5-0.1,0.8c0.1,0,0.2-0.1,0.2-0.1l0.3-0.1l0.1,0.3l-1,0.4L88.4,27.2z
				"/>
		</g>
		<g>
			<path class="st1" d="M92.7,13.2c-0.1,0-0.1,0-0.2,0l-1.2-0.6c-0.2-0.1-0.3-0.3-0.2-0.5c0.1-0.2,0.3-0.3,0.5-0.2l1.2,0.6
				c0.2,0.1,0.3,0.3,0.2,0.5C93,13.1,92.8,13.2,92.7,13.2z"/>
		</g>
		<g>
			<path class="st1" d="M97.1,15.3c-0.1,0-0.1,0-0.2,0l-2.2-0.9c-0.2-0.1-0.3-0.3-0.2-0.5c0.1-0.2,0.3-0.3,0.5-0.2l2.2,0.9
				c0.2,0.1,0.3,0.3,0.2,0.5C97.4,15.2,97.2,15.3,97.1,15.3z"/>
		</g>
	</g>
	<g>
		<g>
			<path class="st2" d="M12.7,51.4l-6.1,3.6l-2.9-8.6c-0.3-1-0.4-2-0.3-3.1l1.3-8.9l14-1.2l1.8,1l-0.9,15.6L12.7,51.4z"/>
			<path class="st3" d="M6.4,55.7l-3-9.1c-0.3-1-0.4-2.2-0.3-3.2l1.4-9.2l14.4-1.2l2.1,1.2l-0.9,16.2l-7.2,1.5L6.4,55.7z M5.2,34.9
				l-1.3,8.6c-0.1,1-0.1,2,0.2,2.9l2.7,8.2l5.8-3.4l6.8-1.5l0.8-15.1l-1.5-0.8L5.2,34.9z"/>
		</g>
		<g class="st4">
			<path class="st1" d="M7.8,52.3l-2.3-6.9c-0.3-0.8-0.3-1.6-0.2-2.4l1.1-7l11-1l1.5,0.8l-0.7,12.3l-5.5,1.2L7.8,52.3z M6.7,36.4
				l-1,6.7c-0.1,0.8,0,1.5,0.2,2.3L8,51.7l4.6-2.7l5.3-1.1l0.6-11.8l-1.2-0.7L6.7,36.4z"/>
		</g>
		<g>
			<path class="st6" d="M7.2,38.9l0.1-0.3c0.1,0.1,0.2,0.1,0.3,0.1c0.1,0,0.2-0.1,0.2-0.2c0-0.1-0.1-0.2-0.4-0.1l0-0.3
				c0.2,0,0.3-0.1,0.3-0.2c0-0.1-0.1-0.1-0.2-0.1c-0.1,0-0.2,0.1-0.3,0.1l-0.2-0.2c0.1-0.1,0.3-0.2,0.5-0.2c0.3,0,0.5,0.1,0.6,0.4
				c0,0.1-0.1,0.3-0.2,0.3l0,0c0.2,0,0.3,0.1,0.3,0.3c0,0.3-0.2,0.4-0.5,0.5C7.5,39.1,7.4,39,7.2,38.9z"/>
		</g>
		<g>
			<path class="st6" d="M15.9,47.1l0.1-0.3c0.1,0.1,0.2,0.1,0.3,0.1c0.1,0,0.2-0.1,0.2-0.2c0-0.1-0.1-0.2-0.4-0.1l0-0.3
				c0.2,0,0.3-0.1,0.3-0.2c0-0.1-0.1-0.1-0.2-0.1c-0.1,0-0.2,0.1-0.3,0.1L15.9,46c0.1-0.1,0.3-0.2,0.5-0.2c0.3,0,0.5,0.1,0.6,0.4
				c0,0.1-0.1,0.3-0.2,0.3l0,0c0.2,0,0.3,0.1,0.3,0.3c0,0.3-0.2,0.4-0.5,0.5C16.2,47.3,16,47.2,15.9,47.1z"/>
		</g>
		<g>
			<path class="st1" d="M16.3,40.9C16.3,40.9,16.2,40.9,16.3,40.9c-0.3,0-0.4-0.2-0.4-0.4l0.4-2.6c0-0.2,0.2-0.4,0.4-0.3
				c0.2,0,0.4,0.2,0.3,0.4l-0.4,2.6C16.6,40.8,16.5,40.9,16.3,40.9z"/>
		</g>
		<g>
			<path class="st1" d="M15.9,43.7C15.9,43.7,15.8,43.7,15.9,43.7c-0.3,0-0.4-0.2-0.4-0.4l0.1-0.6c0-0.2,0.2-0.3,0.4-0.3
				c0.2,0,0.3,0.2,0.3,0.4l-0.1,0.6C16.2,43.5,16.1,43.7,15.9,43.7z"/>
		</g>
	</g>
	<g>
		<g>
			<path class="st2" d="M97.8,51.1l6.2,3.4l2.6-8.7c0.3-1,0.4-2,0.2-3.1l-1.6-8.8l-14-0.8l-1.8,1l1.3,15.6L97.8,51.1z"/>
			<path class="st3" d="M104.2,55.1l-6.6-3.6l-7.3-1.3L89,34l2.1-1.2l14.4,0.8l1.7,9.1c0.2,1.1,0.1,2.2-0.2,3.2L104.2,55.1z
				 M91.1,49.5l6.8,1.2l5.9,3.2l2.5-8.2c0.3-0.9,0.3-1.9,0.2-2.9l-1.6-8.5l-13.6-0.8l-1.5,0.9L91.1,49.5z"/>
		</g>
		<g class="st4">
			<path class="st1" d="M102.8,51.8l-5-2.8l-5.6-1l-1.1-12.3l1.5-0.9l0.1,0l10.9,0.6l1.3,7c0.1,0.8,0.1,1.7-0.1,2.5L102.8,51.8z
				 M92.6,47.7l5.4,1l4.6,2.5l1.9-6.5c0.2-0.7,0.3-1.5,0.1-2.3l-1.2-6.7l-10.6-0.6L91.6,36L92.6,47.7z"/>
		</g>
		<g>
			<path class="st6" d="M101.3,38.3l0.2-0.2c0.1,0.1,0.2,0.1,0.3,0.2c0.1,0,0.2,0,0.2-0.1c0-0.1-0.1-0.2-0.4-0.2l0-0.3
				c0.2,0,0.3,0,0.3-0.1c0-0.1-0.1-0.1-0.2-0.1c-0.1,0-0.2,0-0.3,0.1l-0.2-0.2c0.1-0.1,0.3-0.2,0.5-0.2c0.3,0,0.5,0.2,0.5,0.4
				c0,0.1-0.1,0.2-0.3,0.3l0,0c0.2,0.1,0.3,0.2,0.3,0.4c0,0.3-0.3,0.4-0.6,0.4C101.6,38.5,101.4,38.4,101.3,38.3z"/>
		</g>
		<g>
			<path class="st6" d="M93.5,46.8l0.2-0.2c0.1,0.1,0.2,0.1,0.3,0.2c0.1,0,0.2,0,0.2-0.1c0-0.1-0.1-0.2-0.4-0.2l0-0.3
				c0.2,0,0.3,0,0.3-0.1c0-0.1-0.1-0.1-0.2-0.1c-0.1,0-0.2,0-0.3,0.1l-0.2-0.2c0.1-0.1,0.3-0.2,0.5-0.2c0.3,0,0.5,0.2,0.5,0.4
				c0,0.1-0.1,0.2-0.3,0.3l0,0c0.2,0.1,0.3,0.2,0.3,0.4c0,0.3-0.3,0.4-0.6,0.4C93.8,47.1,93.6,47,93.5,46.8z"/>
		</g>
		<g>
			<path class="st1" d="M102.9,42.4c-0.2,0-0.4-0.1-0.4-0.3l-0.2-1.8c0-0.2,0.1-0.4,0.3-0.4c0.2,0,0.4,0.1,0.4,0.3l0.2,1.8
				C103.3,42.2,103.1,42.4,102.9,42.4C102.9,42.4,102.9,42.4,102.9,42.4z"/>
		</g>
		<g>
			<path class="st1" d="M102.8,46C102.7,46,102.7,46,102.8,46c-0.3-0.1-0.4-0.3-0.4-0.5l0.3-1c0.1-0.2,0.3-0.3,0.5-0.3
				c0.2,0.1,0.3,0.3,0.3,0.5l-0.3,1C103.1,45.8,103,46,102.8,46z"/>
		</g>
	</g>
	<g>
		<g>
			<polygon class="st2" points="44.3,68.8 52.7,71.6 53,58.5 39.3,62.5 			"/>
			<path class="st3" d="M53.1,72.1l-9.1-2.9l-5.4-6.9L53.4,58L53.1,72.1z M44.5,68.5l7.9,2.5l0.2-12L40,62.7L44.5,68.5z"/>
		</g>
		<g class="st4">
			<path class="st1" d="M51.2,69.5l-5.8-1.9l-3.5-4.4l9.4-2.7L51.2,69.5z M45.6,67.3l5.2,1.7l0.1-8l-8.4,2.4L45.6,67.3z"/>
		</g>
		<g>
			<path class="st6" d="M49.8,62.9c0-0.1,0-0.2,0-0.3l0,0c0,0.1-0.1,0.1-0.1,0.2L49.6,63l0.6,0l0,0.2l-0.9,0l0-0.2l0.4-0.6l0.3,0
				L50,63.5l-0.3,0L49.8,62.9z"/>
		</g>
		<g>
			<path class="st6" d="M46.1,66.4c0-0.1,0-0.2,0-0.3l0,0c0,0.1-0.1,0.1-0.1,0.2l-0.1,0.2l0.6,0l0,0.2l-0.9,0l0-0.2l0.4-0.6l0.3,0
				L46.4,67l-0.3,0L46.1,66.4z"/>
		</g>
	</g>
	<g>
		<g>
			<polygon class="st2" points="64.7,68.8 56.2,71.6 56,58.5 69.6,62.5 			"/>
			<path class="st3" d="M55.8,72.1L55.6,58l14.7,4.3l-5.4,6.9L55.8,72.1z M56.4,59l0.2,12l7.9-2.5l4.6-5.9L56.4,59z M64.7,68.8
				L64.7,68.8L64.7,68.8z"/>
		</g>
		<g class="st4">
			<path class="st1" d="M57.7,69.5l-0.1-9l9.4,2.7l-3.5,4.4L57.7,69.5z M58,61l0.1,8l5.2-1.7l3-3.9L58,61z M63.4,67.5L63.4,67.5
				L63.4,67.5z"/>
		</g>
		<g>
			<path class="st6" d="M59.2,62.9c0-0.1,0-0.2,0-0.3l0,0c0,0.1-0.1,0.1-0.1,0.2L59,63l0.6,0l0,0.2l-0.9,0l0-0.2l0.4-0.6l0.3,0
				l-0.1,1.1l-0.3,0L59.2,62.9z"/>
		</g>
		<g>
			<path class="st6" d="M62.8,66.4c0-0.1,0-0.2,0-0.3l0,0c0,0.1-0.1,0.1-0.1,0.2l-0.1,0.2l0.6,0l0,0.2l-0.9,0l0-0.2l0.4-0.6l0.3,0
				L63.1,67l-0.3,0L62.8,66.4z"/>
		</g>
	</g>
	<g>
		<g>
			<polygon class="st2" points="29.8,57.5 35.3,62.8 41.5,69.8 35.3,75.6 30.2,77.5 28.3,69 			"/>
			<path class="st3" d="M30,78L27.9,69l1.6-12.2l6.1,5.8l6.5,7.4l-6.5,6L30,78z M28.7,69l1.8,8.1l4.6-1.8l5.9-5.4L35,63l-5-4.7
				L28.7,69z"/>
		</g>
		<g class="st4">
			<path class="st1" d="M31.8,74.7L30.5,69l1-7.7l3.8,3.6l4.1,4.6l-4.1,3.8L31.8,74.7z M30.9,69l1.2,5.2l3-1.1l3.8-3.5L35,65.2
				l-3.2-3.1L30.9,69z"/>
		</g>
		<g>
			<path class="st6" d="M36.3,69.6l0.1-0.2c0.1,0.1,0.1,0.1,0.2,0.1c0.1,0,0.2,0,0.2-0.1c0-0.1-0.1-0.1-0.2-0.1c-0.1,0-0.1,0-0.2,0
				l-0.1-0.1l0.1-0.6l0.7,0l0,0.2l-0.4,0l0,0.2c0,0,0.1,0,0.1,0c0.2,0,0.4,0.1,0.3,0.4c0,0.2-0.2,0.4-0.4,0.4
				C36.5,69.8,36.3,69.7,36.3,69.6z"/>
		</g>
		<g>
			<path class="st6" d="M32.3,73l0.1-0.2c0.1,0.1,0.1,0.1,0.2,0.1c0.1,0,0.2,0,0.2-0.1c0-0.1-0.1-0.1-0.2-0.1c-0.1,0-0.1,0-0.2,0
				l-0.1-0.1l0.1-0.6l0.7,0l0,0.2l-0.4,0l0,0.2c0,0,0.1,0,0.1,0c0.2,0,0.4,0.1,0.3,0.4c0,0.2-0.2,0.4-0.4,0.4
				C32.5,73.1,32.3,73.1,32.3,73z"/>
		</g>
	</g>
	<g>
		<g>
			<polygon class="st2" points="79,57.5 73.5,62.8 67.3,69.8 73.5,75.6 78.6,77.5 80.5,69 			"/>
			<path class="st3" d="M78.9,78l-5.6-2.1l-6.5-6l6.4-7.3l6.1-5.8L80.9,69L78.9,78z M73.7,75.2l4.6,1.8l1.8-8.1l-1.4-10.6l-5,4.7
				l-5.9,6.7L73.7,75.2z"/>
		</g>
		<g class="st4">
			<path class="st1" d="M77,74.7l-3.5-1.4l-4.1-3.8l4.1-4.6l3.8-3.6l1,7.7L77,74.7z M73.7,73.1l3,1.1l1.2-5.2L77,62.1l-3.3,3.1
				L70,69.6L73.7,73.1z"/>
		</g>
		<g>
			<path class="st6" d="M71.6,69.6l0.1-0.2c0.1,0.1,0.1,0.1,0.2,0.1c0.1,0,0.2,0,0.2-0.1c0-0.1-0.1-0.1-0.2-0.1c-0.1,0-0.1,0-0.2,0
				l-0.1-0.1l0.1-0.6l0.7,0l0,0.2L72,69l0,0.2c0,0,0.1,0,0.1,0c0.2,0,0.4,0.1,0.3,0.4c0,0.2-0.2,0.4-0.4,0.4
				C71.8,69.8,71.7,69.7,71.6,69.6z"/>
		</g>
		<g>
			<path class="st6" d="M75.6,73l0.1-0.2c0.1,0.1,0.1,0.1,0.2,0.1c0.1,0,0.2,0,0.2-0.1c0-0.1-0.1-0.1-0.2-0.1c-0.1,0-0.1,0-0.2,0
				l-0.1-0.1l0.1-0.6l0.7,0l0,0.2l-0.4,0l0,0.2c0,0,0.1,0,0.1,0c0.2,0,0.4,0.1,0.3,0.4c0,0.2-0.2,0.4-0.4,0.4
				C75.8,73.1,75.7,73.1,75.6,73z"/>
		</g>
	</g>
</g>
</svg>
