<?xml version="1.0" encoding="utf-8"?>
<!-- Generator: Adobe Illustrator 24.2.3, SVG Export Plug-In . SVG Version: 6.00 Build 0)  -->
<svg version="1.1" id="Lag_1" xmlns="http://www.w3.org/2000/svg" xmlns:xlink="http://www.w3.org/1999/xlink" x="0px" y="0px"
	 viewBox="0 0 124 167" style="enable-background:new 0 0 124 167;" xml:space="preserve">
<style type="text/css">
	.st0{fill:#664536;}
	.st1{fill:#110B09;}
	.st2{fill:#DBC2B9;}
	.st3{fill:#473129;}
	.st4{fill:#D6B78A;}
	.st5{fill:#E5C9A3;}
	.st6{fill:#EDD7BC;}
	.st7{clip-path:url(#SVGID_2_);}
	.st8{fill:#B8C2D3;}
	.st9{fill:#95A0B5;}
	.st10{fill:#86909E;}
	.st11{fill:#A9BBBF;}
	.st12{fill:#B2CCD3;}
	.st13{fill:#D6DDE5;}
	.st14{fill:#EDF1F7;}
	.st15{fill:#E2EAED;}
	.st16{fill:#FAFEFF;}
	.st17{fill:#72A5D3;}
	.st18{fill:#FFFFFF;}
</style>
<g>
	<g>
		
			<ellipse transform="matrix(0.1967 -0.9805 0.9805 0.1967 -68.136 157.4187)" class="st0" cx="62" cy="120.3" rx="42.5" ry="59.9"/>
		<path class="st1" d="M69.9,164.2c-5.3,0-10.8-0.5-16.4-1.7C20.8,156-2.1,131.7,2.6,108.4C7.3,85.1,37.7,71.5,70.5,78
			c32.7,6.6,55.6,30.9,50.9,54.2l0,0C117.5,151.5,95.9,164.2,69.9,164.2z M54,77.6c-25.4,0-46.4,12.3-50.2,31
			c-4.5,22.6,17.9,46.3,49.9,52.7c32.1,6.4,61.9-6.7,66.4-29.4l0,0c4.5-22.6-17.9-46.3-49.9-52.7C64.7,78.1,59.3,77.6,54,77.6z"/>
	</g>
	<g>
		<path class="st2" d="M111,106.8c-0.2,0-0.4-0.1-0.5-0.3c-1.2-1.7-2.5-3.4-4-5c-0.2-0.3-0.2-0.6,0-0.9c0.3-0.2,0.6-0.2,0.9,0
			c1.5,1.6,2.9,3.4,4.1,5.1c0.2,0.3,0.1,0.7-0.2,0.9C111.2,106.8,111.1,106.8,111,106.8z"/>
	</g>
	<g>
		<path class="st2" d="M103.6,98.4c-0.1,0-0.3-0.1-0.4-0.2c-3.5-3.2-7.4-6-11.8-8.5c-0.3-0.2-0.4-0.5-0.2-0.8
			c0.2-0.3,0.5-0.4,0.8-0.2c4.5,2.5,8.6,5.4,12.1,8.6c0.3,0.2,0.3,0.6,0,0.9C103.9,98.3,103.8,98.4,103.6,98.4z"/>
	</g>
	<g>
		<path class="st2" d="M83.5,86c-0.1,0-0.2,0-0.2,0c-2.9-1.2-5.9-2.2-9-3c-0.3-0.1-0.5-0.4-0.4-0.8c0.1-0.3,0.4-0.5,0.8-0.4
			c3.1,0.8,6.2,1.8,9.1,3c0.3,0.1,0.5,0.5,0.3,0.8C84,85.9,83.8,86,83.5,86z"/>
	</g>
	<g>
		<ellipse transform="matrix(0.1967 -0.9805 0.9805 0.1967 -68.136 157.4187)" class="st3" cx="62" cy="120.3" rx="38" ry="53.6"/>
	</g>
	<g>
		
			<ellipse transform="matrix(0.1967 -0.9805 0.9805 0.1967 -68.136 157.4187)" class="st4" cx="62" cy="120.3" rx="35.5" ry="50.1"/>
		<path class="st1" d="M68.6,157.1c-4.5,0-9.1-0.4-13.7-1.4c-13.2-2.7-25-8.8-33-17.3c-8.1-8.6-11.5-18.5-9.6-28S21.2,93,32,88.2
			c10.7-4.8,23.9-5.9,37.1-3.3c13.2,2.7,25,8.8,33,17.3c8.1,8.6,11.5,18.5,9.6,28l-0.6-0.1l0.6,0.1
			C108.4,146.5,90.3,157.1,68.6,157.1z M55.3,84.7c-8.2,0-16,1.5-22.8,4.6c-10.4,4.6-17.1,12.2-19,21.3s1.5,18.7,9.3,26.9
			c7.9,8.3,19.3,14.4,32.3,17c26.7,5.4,51.6-5.6,55.3-24.5c1.8-9.1-1.5-18.7-9.3-26.9c-7.9-8.3-19.3-14.4-32.3-17
			C64.3,85.2,59.7,84.7,55.3,84.7z"/>
	</g>
	<g>
		<ellipse transform="matrix(0.1967 -0.9805 0.9805 0.1967 -68.136 157.4187)" class="st5" cx="62" cy="120.3" rx="31" ry="43.8"/>
	</g>
	<g>
		
			<ellipse transform="matrix(0.1967 -0.9805 0.9805 0.1967 -68.136 157.4187)" class="st6" cx="62" cy="120.3" rx="25.8" ry="36.4"/>
	</g>
	<g>
		<defs>
			<path id="SVGID_1_" d="M110.8,113.7V-16.2H19.6L18.4,95.9c-3.3,3.7-5.5,8-6.5,12.8c-3.9,19.6,15.3,40,43,45.6s53.3-5.9,57.3-25.5
				C113.2,123.7,112.6,118.6,110.8,113.7z"/>
		</defs>
		<clipPath id="SVGID_2_">
			<use xlink:href="#SVGID_1_"  style="overflow:visible;"/>
		</clipPath>
		<g class="st7">
			<g>
				<polygon class="st8" points="108.2,157.1 80.3,157.1 80.3,86.3 108.2,104.7 				"/>
				<path class="st1" d="M108.9,157.7H79.7V85.2l29.1,19.2V157.7z M81,156.5h26.7V105L81,87.5V156.5z"/>
			</g>
			<g>
				<g>
					<polygon class="st9" points="81.9,157.2 21.1,157.2 21.1,3.1 81.9,43 					"/>
					<path class="st1" d="M82.5,157.8h-62V1.9l62,40.8V157.8z M21.7,156.5h59.5V43.4L21.7,4.2V156.5z"/>
				</g>
				<g>
					<polyline class="st10" points="51.5,157.2 21.1,157.2 21.1,3.1 51.6,23.1 					"/>
					<polygon class="st1" points="51.5,157.8 20.5,157.8 20.5,1.9 51.9,22.6 51.2,23.6 21.7,4.2 21.7,156.5 51.5,156.5 					"/>
				</g>
				<g>
					<polyline class="st9" points="51.6,23.1 81.9,43 81.9,157.2 51.5,157.2 					"/>
					<polygon class="st1" points="82.5,157.8 51.5,157.8 51.5,156.5 81.2,156.5 81.2,43.4 51.2,23.6 51.9,22.6 82.5,42.7 					"/>
				</g>
				<g>
					<path class="st1" d="M82.5,157.8h-62V1.9l62,40.8V157.8z M21.7,156.5h59.5V43.4L21.7,4.2V156.5z"/>
				</g>
			</g>
			<g>
				<line class="st4" x1="96.8" y1="100.5" x2="101.5" y2="103.6"/>
				<path class="st1" d="M101.5,104.3c-0.1,0-0.2,0-0.3-0.1l-4.7-3.1c-0.3-0.2-0.4-0.6-0.2-0.9c0.2-0.3,0.6-0.4,0.9-0.2l4.7,3.1
					c0.3,0.2,0.4,0.6,0.2,0.9C101.9,104.2,101.7,104.3,101.5,104.3z"/>
			</g>
			<g>
				<line class="st4" x1="91.3" y1="96.9" x2="95.1" y2="99.4"/>
				<path class="st1" d="M95.1,100.1c-0.1,0-0.2,0-0.3-0.1L91,97.4c-0.3-0.2-0.4-0.6-0.2-0.9c0.2-0.3,0.6-0.4,0.9-0.2l3.8,2.5
					c0.3,0.2,0.4,0.6,0.2,0.9C95.5,100,95.3,100.1,95.1,100.1z"/>
			</g>
			<g>
				<line class="st4" x1="87.7" y1="94.5" x2="89.1" y2="95.5"/>
				<path class="st1" d="M89.1,96.1c-0.1,0-0.2,0-0.3-0.1L87.4,95c-0.3-0.2-0.4-0.6-0.2-0.9c0.2-0.3,0.6-0.4,0.9-0.2l1.4,0.9
					c0.3,0.2,0.4,0.6,0.2,0.9C89.5,96,89.3,96.1,89.1,96.1z"/>
			</g>
			<g>
				<line class="st4" x1="29.6" y1="12" x2="34.3" y2="15.2"/>
				<path class="st1" d="M34.3,15.9c-0.1,0-0.2,0-0.4-0.1l-4.7-3.2c-0.3-0.2-0.4-0.6-0.2-0.9c0.2-0.3,0.6-0.4,0.9-0.2l4.7,3.2
					c0.3,0.2,0.4,0.6,0.2,0.9C34.7,15.8,34.5,15.9,34.3,15.9z"/>
			</g>
			<g>
				<line class="st4" x1="25.5" y1="9.2" x2="27.4" y2="10.5"/>
				<path class="st1" d="M27.4,11.1c-0.1,0-0.2,0-0.4-0.1l-1.9-1.3c-0.3-0.2-0.4-0.6-0.2-0.9c0.2-0.3,0.6-0.4,0.9-0.2l1.9,1.3
					c0.3,0.2,0.4,0.6,0.2,0.9C27.8,11,27.6,11.1,27.4,11.1z"/>
			</g>
			<g>
				<g>
					<rect x="41.1" y="123.3" class="st10" width="21" height="33.5"/>
					<path class="st1" d="M62.7,157.5H40.5v-34.8h22.2V157.5z M41.7,156.2h19.7v-32.3H41.7V156.2z"/>
				</g>
				<g>
					<rect x="43.4" y="125.9" class="st11" width="8.3" height="31.2"/>
					<path class="st1" d="M52.3,157.7h-9.5v-32.4h9.5V157.7z M44,156.5h7.1v-29.9H44V156.5z"/>
				</g>
				<g>
					<rect x="51.7" y="125.9" class="st12" width="8.3" height="31.2"/>
					<path class="st1" d="M60.6,157.7h-9.5v-32.4h9.5V157.7z M52.3,156.5h7.1v-29.9h-7.1V156.5z"/>
				</g>
				<g>
					<polyline class="st11" points="54.1,141.6 55.8,141.6 55.8,143 					"/>
					<path class="st1" d="M55.8,143.6c-0.3,0-0.6-0.3-0.6-0.6v-0.8h-1.1c-0.3,0-0.6-0.3-0.6-0.6c0-0.3,0.3-0.6,0.6-0.6h2.4v2
						C56.4,143.3,56.2,143.6,55.8,143.6z"/>
				</g>
				<g>
					<polyline class="st11" points="48.8,141.6 47.1,141.6 47.1,143 					"/>
					<path class="st1" d="M47.1,143.6c-0.3,0-0.6-0.3-0.6-0.6v-2h2.4c0.3,0,0.6,0.3,0.6,0.6c0,0.3-0.3,0.6-0.6,0.6h-1.1v0.8
						C47.7,143.3,47.4,143.6,47.1,143.6z"/>
				</g>
			</g>
			<g>
				<g>
					<g>
						<rect x="28.3" y="23.9" class="st13" width="8.7" height="14.2"/>
						<path class="st1" d="M37.6,38.6h-9.9V23.2h9.9V38.6z M28.9,37.4h7.4V24.5h-7.4V37.4z"/>
					</g>
					<g>
						<polygon class="st14" points="37,25.2 37,28.4 28.3,30.9 						"/>
					</g>
					<g>
						<polygon class="st14" points="37,32.3 37,34.2 28.3,36.4 						"/>
					</g>
					<g>
						<path class="st1" d="M37.6,38.6h-9.9V23.2h9.9V38.6z M28.9,37.4h7.4V24.5h-7.4V37.4z"/>
					</g>
				</g>
				<g>
					<g>
						<rect x="28.3" y="48.4" class="st13" width="8.7" height="14.2"/>
						<path class="st1" d="M37.6,63.1h-9.9V47.7h9.9V63.1z M28.9,61.9h7.4V49h-7.4V61.9z"/>
					</g>
					<g>
						<polygon class="st14" points="37,49.7 37,52.9 28.3,55.4 						"/>
					</g>
					<g>
						<polygon class="st14" points="37,56.8 37,58.7 28.3,60.9 						"/>
					</g>
					<g>
						<path class="st1" d="M37.6,63.1h-9.9V47.7h9.9V63.1z M28.9,61.9h7.4V49h-7.4V61.9z"/>
					</g>
				</g>
				<g>
					<g>
						<rect x="47.4" y="48.4" class="st13" width="8.7" height="14.2"/>
						<path class="st1" d="M56.7,63.1h-9.9V47.7h9.9V63.1z M48,61.9h7.4V49H48V61.9z"/>
					</g>
					<g>
						<polygon class="st14" points="56,49.7 56,52.9 47.4,55.4 						"/>
					</g>
					<g>
						<polygon class="st14" points="56,56.8 56,58.7 47.4,60.9 						"/>
					</g>
					<g>
						<path class="st1" d="M56.7,63.1h-9.9V47.7h9.9V63.1z M48,61.9h7.4V49H48V61.9z"/>
					</g>
				</g>
				<g>
					<g>
						<rect x="66.1" y="48.4" class="st13" width="8.7" height="14.2"/>
						<path class="st1" d="M75.4,63.1h-9.9V47.7h9.9V63.1z M66.7,61.9h7.4V49h-7.4V61.9z"/>
					</g>
					<g>
						<polygon class="st14" points="74.8,49.7 74.8,52.9 66.1,55.4 						"/>
					</g>
					<g>
						<polygon class="st14" points="74.8,56.8 74.8,58.7 66.1,60.9 						"/>
					</g>
					<g>
						<path class="st1" d="M75.4,63.1h-9.9V47.7h9.9V63.1z M66.7,61.9h7.4V49h-7.4V61.9z"/>
					</g>
				</g>
				<g>
					<g>
						<rect x="28.3" y="73.6" class="st13" width="8.7" height="14.2"/>
						<path class="st1" d="M37.6,88.4h-9.9V73h9.9V88.4z M28.9,87.1h7.4V74.2h-7.4V87.1z"/>
					</g>
					<g>
						<polygon class="st14" points="37,74.9 37,78.1 28.3,80.7 						"/>
					</g>
					<g>
						<polygon class="st14" points="37,82.1 37,84 28.3,86.1 						"/>
					</g>
					<g>
						<path class="st1" d="M37.6,88.4h-9.9V73h9.9V88.4z M28.9,87.1h7.4V74.2h-7.4V87.1z"/>
					</g>
				</g>
				<g>
					<g>
						<rect x="47.4" y="73.6" class="st13" width="8.7" height="14.2"/>
						<path class="st1" d="M56.7,88.4h-9.9V73h9.9V88.4z M48,87.1h7.4V74.2H48V87.1z"/>
					</g>
					<g>
						<polygon class="st14" points="56,74.9 56,78.1 47.4,80.7 						"/>
					</g>
					<g>
						<polygon class="st14" points="56,82.1 56,84 47.4,86.1 						"/>
					</g>
					<g>
						<path class="st1" d="M56.7,88.4h-9.9V73h9.9V88.4z M48,87.1h7.4V74.2H48V87.1z"/>
					</g>
				</g>
				<g>
					<g>
						<rect x="66.1" y="73.6" class="st13" width="8.7" height="14.2"/>
						<path class="st1" d="M75.4,88.4h-9.9V73h9.9V88.4z M66.7,87.1h7.4V74.2h-7.4V87.1z"/>
					</g>
					<g>
						<polygon class="st14" points="74.8,74.9 74.8,78.1 66.1,80.7 						"/>
					</g>
					<g>
						<polygon class="st14" points="74.8,82.1 74.8,84 66.1,86.1 						"/>
					</g>
					<g>
						<path class="st1" d="M75.4,88.4h-9.9V73h9.9V88.4z M66.7,87.1h7.4V74.2h-7.4V87.1z"/>
					</g>
				</g>
				<g>
					<g>
						<rect x="28.3" y="99.7" class="st13" width="8.7" height="14.2"/>
						<path class="st1" d="M37.6,114.5h-9.9V99.1h9.9V114.5z M28.9,113.3h7.4v-12.9h-7.4V113.3z"/>
					</g>
					<g>
						<polygon class="st14" points="37,101.1 37,104.3 28.3,106.8 						"/>
					</g>
					<g>
						<polygon class="st14" points="37,108.2 37,110.1 28.3,112.2 						"/>
					</g>
					<g>
						<path class="st1" d="M37.6,114.5h-9.9V99.1h9.9V114.5z M28.9,113.3h7.4v-12.9h-7.4V113.3z"/>
					</g>
				</g>
				<g>
					<g>
						<rect x="47.4" y="99.7" class="st13" width="8.7" height="14.2"/>
						<path class="st1" d="M56.7,114.5h-9.9V99.1h9.9V114.5z M48,113.3h7.4v-12.9H48V113.3z"/>
					</g>
					<g>
						<polygon class="st14" points="56,101.1 56,104.3 47.4,106.8 						"/>
					</g>
					<g>
						<polygon class="st14" points="56,108.2 56,110.1 47.4,112.2 						"/>
					</g>
					<g>
						<path class="st1" d="M56.7,114.5h-9.9V99.1h9.9V114.5z M48,113.3h7.4v-12.9H48V113.3z"/>
					</g>
				</g>
				<g>
					<g>
						<rect x="66.1" y="99.7" class="st13" width="8.7" height="14.2"/>
						<path class="st1" d="M75.4,114.5h-9.9V99.1h9.9V114.5z M66.7,113.3h7.4v-12.9h-7.4V113.3z"/>
					</g>
					<g>
						<polygon class="st14" points="74.8,101.1 74.8,104.3 66.1,106.8 						"/>
					</g>
					<g>
						<polygon class="st14" points="74.8,108.2 74.8,110.1 66.1,112.2 						"/>
					</g>
					<g>
						<path class="st1" d="M75.4,114.5h-9.9V99.1h9.9V114.5z M66.7,113.3h7.4v-12.9h-7.4V113.3z"/>
					</g>
				</g>
			</g>
			<g>
				<g>
					<rect x="44.5" y="16.4" class="st15" width="36.2" height="18.5"/>
					<path class="st1" d="M81.3,35.6H43.9V15.8h37.4V35.6z M45.2,34.3h34.9V17H45.2V34.3z"/>
				</g>
				<g>
					<path class="st16" d="M79.2,33.7H46V17.9h33.3V33.7z M47.2,32.4H78V19.1H47.2V32.4z"/>
				</g>
				<g>
					<rect x="48.9" y="20.3" class="st17" width="27.3" height="10.9"/>
					<path class="st1" d="M76.9,31.8H48.3V19.7h28.5V31.8z M49.6,30.5h26.1v-9.6H49.6V30.5z"/>
				</g>
				<g>
					<g>
						<path class="st18" d="M63,25.3c0.1-0.1,0.1-0.1,0.2-0.2c0.3-0.2,0.6-0.4,0.9-0.4c0.4-0.1,0.8,0,1.1,0.1
							c0.4,0.1,0.6,0.4,0.7,0.8c0.1,0.3,0.1,0.6,0.1,0.9c0,0.8,0,1.7,0,2.5c0,0.1,0,0.1-0.1,0.1c-0.4,0-0.8,0-1.2,0
							c-0.1,0-0.1,0-0.1-0.1c0-0.7,0-1.4,0-2.1c0-0.2,0-0.4-0.1-0.6c-0.1-0.2-0.3-0.4-0.5-0.5c-0.4-0.1-0.8,0.1-1,0.6
							c-0.1,0.2-0.1,0.3-0.1,0.5c0,0.7,0,1.3,0,2c0,0,0,0.1,0,0.1c0,0.1,0,0.1-0.1,0.1c-0.4,0-0.8,0-1.2,0c-0.1,0-0.1,0-0.1-0.1
							c0-1.4,0-2.8,0-4.2c0-0.1,0-0.1,0.1-0.1c0.4,0,0.7,0,1.1,0c0.1,0,0.1,0,0.1,0.1C63,24.9,63,25.1,63,25.3
							C63,25.3,63,25.3,63,25.3z"/>
					</g>
					<g>
						<path class="st18" d="M60.9,26.9c0,0.7,0,1.4,0,2.1c0,0.1,0,0.1-0.1,0.1c-0.4,0-0.8,0-1.2,0c-0.1,0-0.1,0-0.1-0.1
							c0-1.4,0-2.8,0-4.2c0-0.1,0-0.1,0.1-0.1c0.4,0,0.8,0,1.2,0c0.1,0,0.1,0,0.1,0.1C60.9,25.5,60.9,26.2,60.9,26.9z"/>
					</g>
					<g>
						<path class="st18" d="M61.1,23.2c0,0.5-0.4,0.8-0.8,0.8c-0.5,0-0.8-0.4-0.8-0.8c0-0.4,0.4-0.8,0.8-0.8
							C60.7,22.4,61.1,22.7,61.1,23.2z"/>
					</g>
				</g>
			</g>
		</g>
	</g>
	<g>
		<path class="st1" d="M68.6,157.1c-4.5,0-9.1-0.4-13.7-1.4c-13.2-2.7-25-8.8-33-17.3c-8.1-8.6-11.5-18.5-9.6-28
			c0.9-4.4,2.9-8.5,5.9-12.1l1,0.8c-2.9,3.5-4.8,7.4-5.6,11.6c-1.8,9.1,1.5,18.7,9.3,26.9c7.9,8.3,19.3,14.4,32.3,17
			c26.7,5.4,51.6-5.6,55.3-24.5c1-5.2,0.4-10.4-1.8-15.7l1.1-0.5c2.3,5.5,2.9,11,1.9,16.4C108.4,146.5,90.3,157.1,68.6,157.1z"/>
	</g>
</g>
</svg>
