<?xml version="1.0" encoding="utf-8"?>
<!-- Generator: Adobe Illustrator 24.2.3, SVG Export Plug-In . SVG Version: 6.00 Build 0)  -->
<svg version="1.1" id="Lag_1" xmlns="http://www.w3.org/2000/svg" xmlns:xlink="http://www.w3.org/1999/xlink" x="0px" y="0px"
	 viewBox="0 0 29 123" style="enable-background:new 0 0 29 123;" xml:space="preserve">
<style type="text/css">
	.st0{fill:#D3B25F;}
	.st1{fill:#110B09;}
	.st2{fill:#9AA2A5;}
	.st3{fill:#8A8F91;}
	.st4{fill:#B4BEC1;}
	.st5{fill:#564A42;}
	.st6{opacity:0.6;}
	.st7{fill:#020202;}
	.st8{fill:#7A6658;}
	.st9{fill:#5B4D45;}
	.st10{fill:#8E796B;}
	.st11{fill:#B29B8E;}
	.st12{fill:#605D57;}
	.st13{fill:#474541;}
	.st14{fill:#68615E;}
	.st15{fill:#56514F;}
	.st16{fill:#827873;}
	.st17{fill:#9E9590;}
	.st18{fill:#C1B9B4;}
	.st19{fill:#937E70;}
	.st20{fill:#827267;}
	.st21{fill:#6D615A;}
	.st22{fill:#A39082;}
	.st23{fill:#D8C4B6;}
</style>
<g>
	<g>
		<g>
			<g>
				<path class="st0" d="M10.1,87.5C10.1,87.5,10.1,87.5,10.1,87.5c-0.6,0-1-0.5-1-1.1l0.3-3.6l0.7-5.3c0-0.3,0.1-0.5,0.1-0.8
					l0.7-3.6l1.3-5.2l0.9-3.2c0.1-0.4,0.2-0.7,0.3-1.1l1.9-5.1c0.2-0.4,0.3-0.8,0.5-1.2l0.7-1.4c0.2-0.5,0.4-1,0.6-1.5l1.5-4.8
					c0.2-0.7,0.5-1.3,0.8-2l0.2-0.4c0.5-1,0.8-2,1-3.1l0.8-4.4c0.1-0.4,0.2-0.9,0.3-1.3l0.4-1.6c0.3-1.1,0.4-2.2,0.4-3.3l-0.1-3.1
					c0-0.7,0-1.5,0.1-2.2c0.3-1.9,0-3.8-0.7-5.6l-1.2-2.9l-1.6-4.4l-1.9-5.8C17.2,9,17.4,8.4,18,8.2c0.5-0.2,1.1,0.1,1.3,0.6
					l1.9,5.8l1.6,4.4l1.1,2.9c0.8,2.1,1.1,4.4,0.8,6.6c-0.1,0.6-0.1,1.2-0.1,1.8l0.1,3.1c0,1.3-0.1,2.7-0.5,4l-0.4,1.6
					c-0.1,0.4-0.2,0.7-0.3,1.1l-0.8,4.4c-0.2,1.3-0.6,2.5-1.2,3.7l-0.2,0.4c-0.3,0.5-0.5,1.1-0.7,1.7L19.1,55
					c-0.2,0.6-0.4,1.2-0.7,1.8l-0.7,1.4c-0.2,0.3-0.3,0.7-0.4,1l-1.9,5.1c-0.1,0.3-0.2,0.6-0.3,0.9l-0.9,3.2l-1.3,5.2l-0.7,3.5
					c0,0.2-0.1,0.5-0.1,0.7L11.4,83l-0.3,3.6C11.1,87.1,10.7,87.5,10.1,87.5z"/>
				<path class="st1" d="M10.1,87.8l-0.1,0c-0.8-0.1-1.3-0.7-1.3-1.5l0.3-3.6l0.7-5.3c0-0.3,0.1-0.6,0.1-0.8l0.7-3.6l1.3-5.3
					l0.9-3.2c0.1-0.4,0.2-0.7,0.4-1.1l1.9-5.1c0.2-0.4,0.3-0.9,0.5-1.3l0.7-1.4c0.2-0.5,0.4-1,0.6-1.5l1.5-4.8
					c0.2-0.7,0.5-1.4,0.8-2l0.2-0.4c0.5-0.9,0.8-1.9,1-3l0.8-4.4c0.1-0.5,0.2-0.9,0.3-1.4l0.4-1.6c0.3-1.1,0.4-2.1,0.4-3.2l-0.1-3.1
					c0-0.7,0-1.5,0.1-2.2c0.2-1.8,0-3.7-0.7-5.4l-1.2-2.9l-1.6-4.5L17,9.6c-0.1-0.3-0.1-0.7,0.1-1c0.2-0.3,0.4-0.6,0.8-0.7
					c0.3-0.1,0.7-0.1,1,0.1c0.3,0.2,0.6,0.4,0.7,0.8l1.9,5.7l1.6,4.4l1.1,2.9c0.8,2.1,1.1,4.5,0.8,6.8c-0.1,0.6-0.1,1.2-0.1,1.8
					l0.1,3.1c0,1.4-0.1,2.7-0.5,4.1L24.1,39c-0.1,0.4-0.2,0.7-0.2,1.1L23,44.5c-0.2,1.3-0.7,2.6-1.3,3.8l-0.2,0.4
					c-0.3,0.5-0.5,1.1-0.7,1.6l-1.5,4.8c-0.2,0.6-0.5,1.3-0.7,1.9L18,58.3c-0.2,0.3-0.3,0.7-0.4,1l-1.9,5.1
					c-0.1,0.3-0.2,0.6-0.3,0.9l-0.9,3.2l-1.3,5.2l-0.7,3.5c0,0.2-0.1,0.4-0.1,0.7L11.8,83l-0.3,3.5C11.5,87.3,10.9,87.8,10.1,87.8z
					 M18.3,8.5c-0.1,0-0.1,0-0.2,0c-0.2,0.1-0.3,0.2-0.4,0.3s-0.1,0.3,0,0.5l1.9,5.8l1.6,4.4l1.1,2.9c0.7,1.8,1,3.8,0.7,5.8
					c-0.1,0.7-0.1,1.4-0.1,2.1l0.1,3.1c0,1.2-0.1,2.3-0.4,3.5l-0.4,1.6c-0.1,0.4-0.2,0.9-0.3,1.3l-0.8,4.4c-0.2,1.1-0.6,2.2-1.1,3.2
					l-0.2,0.4c-0.3,0.6-0.6,1.3-0.8,1.9l-1.5,4.8c-0.2,0.5-0.4,1.1-0.6,1.6l-0.7,1.4c-0.2,0.4-0.4,0.8-0.5,1.2l-1.9,5.1
					c-0.1,0.3-0.2,0.7-0.3,1L12.6,68l-1.3,5.2l-0.7,3.5c-0.1,0.3-0.1,0.5-0.1,0.8l-0.7,5.3l-0.3,3.6c0,0.3,0.2,0.6,0.6,0.7l0,0.4
					v-0.4c0.3,0,0.6-0.3,0.6-0.6l0.3-3.6l0.7-5.3c0-0.2,0.1-0.5,0.1-0.7l0.7-3.5l1.3-5.2l0.9-3.2c0.1-0.3,0.2-0.6,0.3-0.9l1.9-5.1
					c0.1-0.4,0.3-0.7,0.5-1.1l0.7-1.4c0.3-0.6,0.5-1.2,0.7-1.8l1.5-4.8c0.2-0.6,0.4-1.2,0.7-1.7l0.2-0.4c0.6-1.1,1-2.3,1.2-3.6
					l0.8-4.4c0.1-0.4,0.2-0.8,0.3-1.2l0.4-1.6c0.4-1.3,0.5-2.5,0.5-3.8l-0.1-3.1c0-0.6,0-1.3,0.1-1.9c0.3-2.2,0-4.4-0.8-6.4
					l-1.1-2.9l-1.6-4.4L18.9,9c-0.1-0.2-0.2-0.3-0.3-0.4C18.5,8.6,18.4,8.5,18.3,8.5z"/>
			</g>
		</g>
		<g>
			<g>
				<polygon class="st2" points="10.2,86.1 6.2,82.7 6.2,90.3 14.6,90.3 14.6,82.7 				"/>
				<path class="st1" d="M14.9,90.6h-9v-8.5l4.3,3.6l4.7-3.6V90.6z M6.5,90h7.7v-6.7l-4.1,3.2l-3.6-3.1V90z"/>
			</g>
			<g>
				<polygon class="st2" points="10.3,85.9 10.2,90.3 14.6,90.3 14.6,82.7 				"/>
			</g>
			<g>
				<polygon class="st3" points="10.2,86.1 6.2,82.7 6.2,90.3 10.2,90.3 10.2,86 				"/>
			</g>
			<g>
				<polygon class="st4" points="10.2,86.1 8.3,84.5 8.3,90.3 12.5,90.3 12.5,84.2 				"/>
			</g>
			<g>
				<path class="st1" d="M14.9,90.6h-9v-8.5l4.3,3.6l4.7-3.6V90.6z M6.5,90h7.7v-6.7l-4.1,3.2l-3.6-3.1V90z"/>
			</g>
		</g>
		<g>
			<g>
				<polygon class="st2" points="11.2,76.8 7.8,73 6.9,79.4 10.4,83.2 15.2,80.5 16.1,74.1 				"/>
				<path class="st1" d="M10.3,83.6l-3.7-4.2l1-7.2l3.7,4.2l5.2-2.9l-1,7.2L10.3,83.6z M7.2,79.3l3.2,3.6l4.5-2.5l0.8-5.7l-4.5,2.6
					L8,73.7L7.2,79.3z"/>
			</g>
			<g>
				<polygon class="st2" points="11.5,76.7 10.5,83.2 15.2,80.5 16.1,74.1 				"/>
			</g>
			<g>
				<polygon class="st3" points="11.2,76.8 7.8,73 6.9,79.4 10.4,83.2 10.4,83.2 11.3,76.8 				"/>
			</g>
			<g>
				<polygon class="st4" points="11.2,76.8 9.6,75 8.7,81.4 10.4,83.2 12.9,81.8 13.8,75.4 				"/>
			</g>
			<g>
				<path class="st1" d="M10.3,83.6l-3.7-4.2l1-7.2l3.7,4.2l5.2-2.9l-1,7.2L10.3,83.6z M7.2,79.3l3.2,3.6l4.5-2.5l0.8-5.7l-4.5,2.6
					L8,73.7L7.2,79.3z"/>
			</g>
		</g>
		<g>
			<g>
				<polygon class="st2" points="13.3,67.7 10.3,63.5 8.8,69.5 11.8,73.7 16.9,71.5 18.4,65.5 				"/>
				<path class="st1" d="M11.7,74.1l-3.3-4.6l1.7-6.7l3.2,4.5l5.5-2.4l-1.7,6.8L11.7,74.1z M9.1,69.4l2.8,3.9l4.7-2l1.3-5.2
					l-4.8,2.1l-2.7-3.9L9.1,69.4z"/>
			</g>
			<g>
				<polygon class="st2" points="13.8,67.5 12.1,73.6 16.9,71.5 18.4,65.5 				"/>
			</g>
			<g>
				<polygon class="st3" points="13.3,67.7 10.3,63.5 8.8,69.5 11.8,73.7 13.3,67.7 				"/>
			</g>
			<g>
				<polygon class="st4" points="13.3,67.7 11.9,65.7 10.4,71.7 11.8,73.7 14.5,72.5 16,66.6 				"/>
			</g>
			<g>
				<path class="st1" d="M11.7,74.1l-3.3-4.6l1.7-6.7l3.2,4.5l5.5-2.4l-1.7,6.8L11.7,74.1z M9.1,69.4l2.8,3.9l4.7-2l1.3-5.2
					l-4.8,2.1l-2.7-3.9L9.1,69.4z"/>
			</g>
		</g>
		<g>
			<g>
				<polygon class="st2" points="16.6,57.9 14.1,53.4 11.5,60.3 14,64.8 19.3,63.2 22,56.3 				"/>
				<path class="st1" d="M13.9,65.2l-2.7-4.9l2.9-7.7l2.7,4.9l5.7-1.7l-2.9,7.7L13.9,65.2z M11.9,60.3l2.3,4.2l4.9-1.5l2.4-6.2
					l-5,1.5l-2.3-4.1L11.9,60.3z"/>
			</g>
			<g>
				<polygon class="st2" points="17.3,57.7 14.5,64.7 19.3,63.2 22,56.3 				"/>
			</g>
			<g>
				<polygon class="st3" points="14.1,53.4 11.5,60.3 14,64.8 16.6,57.9 				"/>
			</g>
			<g>
				<polygon class="st4" points="16.6,57.9 15.4,55.8 12.8,62.6 14,64.8 16.8,64 19.5,57 				"/>
			</g>
			<g>
				<path class="st1" d="M13.9,65.2l-2.7-4.9l2.9-7.7l2.7,4.9l5.7-1.7l-2.9,7.7L13.9,65.2z M11.9,60.3l2.3,4.2l4.9-1.5l2.4-6.2
					l-5,1.5l-2.3-4.1L11.9,60.3z"/>
			</g>
		</g>
		<g>
			<g>
				<polygon class="st2" points="20.1,48.5 17.4,44.2 15,51.5 17.7,55.9 22.9,54.1 25.3,46.7 				"/>
				<path class="st1" d="M17.6,56.3l-2.9-4.8l2.6-8.1l2.9,4.7l5.6-2l-2.7,8.1L17.6,56.3z M15.3,51.4l2.5,4.1l4.8-1.7l2.2-6.6
					l-4.9,1.7l-2.5-4L15.3,51.4z"/>
			</g>
			<g>
				<polygon class="st2" points="20.9,48.3 18.3,55.7 22.9,54.1 25.3,46.7 				"/>
			</g>
			<g>
				<polygon class="st3" points="17.4,44.2 15,51.5 17.7,55.8 20,48.5 				"/>
			</g>
			<g>
				<polygon class="st4" points="20.1,48.5 18.8,46.5 16.4,53.8 17.7,55.9 20.5,54.9 22.9,47.5 				"/>
			</g>
			<g>
				<path class="st1" d="M17.6,56.3l-2.9-4.8l2.6-8.1l2.9,4.7l5.6-2l-2.7,8.1L17.6,56.3z M15.3,51.4l2.5,4.1l4.8-1.7l2.2-6.6
					l-4.9,1.7l-2.5-4L15.3,51.4z"/>
			</g>
		</g>
		<g>
			<g>
				<polygon class="st2" points="22.6,38.9 19.4,34.9 18,42.4 21.3,46.5 26.2,43.9 27.6,36.3 				"/>
				<path class="st1" d="M21.2,46.9l-3.6-4.3l1.5-8.4l3.5,4.3l5.3-2.7l-1.5,8.4L21.2,46.9z M18.3,42.4l3.1,3.7l4.5-2.3l1.3-6.8
					l-4.6,2.4l-3-3.7L18.3,42.4z"/>
			</g>
			<g>
				<polygon class="st2" points="23.6,38.4 22,46.1 26.2,43.9 27.6,36.3 				"/>
			</g>
			<g>
				<polygon class="st3" points="19.4,34.9 18,42.4 21.2,46.4 22.6,38.8 				"/>
			</g>
			<g>
				<polygon class="st4" points="22.6,38.9 21.1,37 19.7,44.5 21.3,46.5 23.9,45.1 25.3,37.5 				"/>
			</g>
			<g>
				<path class="st1" d="M21.2,46.9l-3.6-4.3l1.5-8.4l3.5,4.3l5.3-2.7l-1.5,8.4L21.2,46.9z M18.3,42.4l3.1,3.7l4.5-2.3l1.3-6.8
					l-4.6,2.4l-3-3.7L18.3,42.4z"/>
			</g>
		</g>
		<g>
			<g>
				<polygon class="st2" points="23.5,28.9 19.5,25.7 19.6,32.4 23.7,35.7 28,32.2 27.9,25.4 				"/>
				<path class="st1" d="M28.3,32.4l-4.6,3.7l-4.4-3.5L19.2,25l4.3,3.5l4.7-3.7L28.3,32.4z M23.7,35.3l4-3.2l-0.1-6l-4.1,3.3l-3.7-3
					l0.1,5.9L23.7,35.3z"/>
			</g>
			<g>
				<polygon class="st2" points="24.4,28.2 24.5,35.1 28,32.2 27.9,25.4 				"/>
			</g>
			<g>
				<polygon class="st3" points="19.5,25.7 19.6,32.4 23.5,35.6 23.4,28.8 				"/>
			</g>
			<g>
				<polygon class="st4" points="23.5,28.9 21.6,27.4 21.7,34.1 23.7,35.7 26,33.9 25.8,27.1 				"/>
			</g>
			<g>
				<path class="st1" d="M28.3,32.4l-4.6,3.7l-4.4-3.5L19.2,25l4.3,3.5l4.7-3.7L28.3,32.4z M23.7,35.3l4-3.2l-0.1-6l-4.1,3.3l-3.7-3
					l0.1,5.9L23.7,35.3z"/>
			</g>
		</g>
		<g>
			<g>
				<path class="st2" d="M21.6,19l-4.9-1.4l0.6,2.1c0.2,0.5,0.4,1,0.6,1.5l1.3,2.9l5,1.5l2.6-4.9l-2.8-6.3L21.6,19z"/>
				<path class="st1" d="M27.2,20.7l-2.8,5.2L19,24.4l-1.3-3c-0.2-0.5-0.4-1-0.6-1.6l-0.8-2.7l5.2,1.5l2.7-4.9L27.2,20.7z
					 M24.1,25.2l2.4-4.5L24,15.1l-2.3,4.2L17.2,18l0.5,1.6c0.2,0.5,0.3,1,0.6,1.5l1.2,2.8L24.1,25.2z"/>
			</g>
			<g>
				<polygon class="st2" points="22.1,18.1 24.8,24.5 26.9,20.7 24.1,14.4 				"/>
			</g>
			<g>
				<path class="st3" d="M16.7,17.5l0.6,2.1c0.2,0.5,0.4,1,0.6,1.5l1.3,2.9l4.8,1.4l-3-6.7L16.7,17.5z"/>
			</g>
			<g>
				<path class="st4" d="M21.6,19l-2.4-0.7c0.1,0.2,0.1,0.3,0.2,0.5l1,2.9c0.2,0.5,0.3,0.9,0.5,1.4l0.8,1.8l2.4,0.7l1.4-2.6
					l-2.8-6.3L21.6,19z"/>
			</g>
			<g>
				<path class="st1" d="M27.2,20.7l-2.8,5.2L19,24.4l-1.3-3c-0.2-0.5-0.4-1-0.6-1.6l-0.8-2.7l5.2,1.5l2.7-4.9L27.2,20.7z
					 M24.1,25.2l2.4-4.5L24,15.1l-2.3,4.2L17.2,18l0.5,1.6c0.2,0.5,0.3,1,0.6,1.5l1.2,2.8L24.1,25.2z"/>
			</g>
		</g>
		<g>
			<g>
				<path class="st2" d="M20.4,15.3l1.7-4.8L16.6,2L16,3.1c-1.2,2.3-1.7,4.8-1.5,7.4c0.1,1.4,0.5,2.9,1.1,4.2L20.4,15.3z"/>
				<path class="st1" d="M22.4,10.4l-1.8,5.2L15.4,15l-0.1-0.2c-0.6-1.4-1-2.8-1.1-4.3C14,7.9,14.5,5.3,15.7,3l0.8-1.6L22.4,10.4z
					 M20.2,14.9l1.6-4.5l-5.1-7.8l-0.3,0.6c-1.2,2.2-1.7,4.7-1.4,7.2c0.1,1.4,0.4,2.7,1,3.9L20.2,14.9z"/>
			</g>
			<g>
				<polygon class="st2" points="22.1,10.4 16.6,2 18.3,9.2 20.1,13.4 20.7,14.4 				"/>
			</g>
			<g>
				<path class="st3" d="M19.7,15.2l-1-1.6l-1.1-4l-1-7.6L16,3.1c-1.2,2.3-1.7,4.8-1.5,7.4c0.1,1.4,0.5,2.9,1.1,4.2L19.7,15.2z"/>
			</g>
			<g>
				<path class="st4" d="M20.4,15.3l0.8-2.4l-3.8-5.8l-0.2,0.7c-0.3,1.5-0.2,3.4,0.4,5.5c0.2,0.6,0.4,1.1,0.6,1.7L20.4,15.3z"/>
			</g>
			<g>
				<path class="st1" d="M22.4,10.4l-1.8,5.2L15.4,15l-0.1-0.2c-0.6-1.4-1-2.8-1.1-4.3C14,7.9,14.5,5.3,15.7,3l0.8-1.6L22.4,10.4z
					 M20.2,14.9l1.6-4.5l-5.1-7.8l-0.3,0.6c-1.2,2.2-1.7,4.7-1.4,7.2c0.1,1.4,0.4,2.7,1,3.9L20.2,14.9z"/>
			</g>
		</g>
	</g>
	<g>
		<g>
			<g>
				<g>
					<g>
						<g>
							<rect x="8.1" y="119" class="st5" width="4.8" height="2.8"/>
							<path class="st1" d="M13.3,122.1H7.8v-3.4h5.5V122.1z M8.5,121.5h4.2v-2.2H8.5V121.5z"/>
						</g>
						<g class="st6">
							<polygon class="st7" points="8.3,118.8 12.7,118.8 12.9,119.4 8.1,119.4 							"/>
						</g>
						<g class="st6">
							<polygon class="st7" points="8.3,120.3 12.7,120.3 12.9,119.7 8.1,119.7 							"/>
						</g>
					</g>
					<g>
						<g>
							<rect x="8.1" y="95.7" class="st5" width="4.8" height="4.6"/>
							<path class="st1" d="M13.3,100.6H7.8v-5.2h5.5V100.6z M8.5,99.9h4.2V96H8.5V99.9z"/>
						</g>
						<g class="st6">
							<polygon class="st7" points="8.3,98.8 12.7,98.8 12.9,99.4 8.1,99.4 							"/>
						</g>
						<g class="st6">
							<polygon class="st7" points="8.3,100.4 12.7,100.4 12.9,99.7 8.1,99.7 							"/>
						</g>
					</g>
					<g>
						<g>
							<g>
								<rect x="8.1" y="100.3" class="st8" width="4.8" height="18.7"/>
								<path class="st1" d="M13.3,119.3H7.8V99.9h5.5V119.3z M8.5,118.6h4.2v-18.1H8.5V118.6z"/>
							</g>
							<g>
								<polygon class="st9" points="9.3,119 8.1,119 8.1,100.3 9.4,100.3 								"/>
							</g>
							<g>
								<polygon class="st10" points="11.2,119 13,119 13,100.3 11.4,100.3 								"/>
							</g>
							<g>
								<polygon class="st8" points="11.2,119 9.3,119 9.4,100.3 11.4,100.3 								"/>
							</g>
							<g>
								<polygon class="st11" points="12.1,100.3 12.6,100.3 12.6,119 12.2,119 								"/>
							</g>
							<g class="st6">
								<polygon class="st7" points="8.1,101.6 8.1,102.4 13,102.4 13,101.4 								"/>
							</g>
							<g>
								<path class="st1" d="M13.3,119.3H7.8V99.9h5.5V119.3z M8.5,118.6h4.2v-18.1H8.5V118.6z"/>
							</g>
						</g>
						<g>
							<g>
								<path class="st1" d="M7.9,117.7l-0.3-0.5l4.9-2.8L7.6,112c-0.1-0.1-0.2-0.2-0.2-0.3c0-0.1,0.1-0.2,0.2-0.3l5-2.7l-5-3.2
									c-0.1-0.1-0.2-0.2-0.1-0.3c0-0.1,0.1-0.2,0.2-0.3l4.8-1.9l-4.8-1.7l0.2-0.6l5.6,2c0.1,0,0.2,0.2,0.2,0.3
									c0,0.1-0.1,0.2-0.2,0.3l-5,2l4.9,3.1c0.1,0.1,0.1,0.2,0.1,0.3c0,0.1-0.1,0.2-0.2,0.3l-4.9,2.7l4.9,2.3
									c0.1,0.1,0.2,0.2,0.2,0.3c0,0.1-0.1,0.2-0.2,0.3L7.9,117.7z"/>
							</g>
							<g>
								<path class="st1" d="M13.2,117.7l-5.4-3.1c-0.1-0.1-0.2-0.2-0.2-0.3c0-0.1,0.1-0.2,0.2-0.3l4.9-2.3L7.8,109
									c-0.1-0.1-0.2-0.2-0.2-0.3c0-0.1,0.1-0.2,0.1-0.3l4.9-3.1l-5-2c-0.1,0-0.2-0.2-0.2-0.3c0-0.1,0.1-0.2,0.2-0.3l5.6-2l0.2,0.6
									l-4.8,1.7l4.8,1.9c0.1,0,0.2,0.1,0.2,0.3c0,0.1,0,0.2-0.1,0.3l-5,3.2l5,2.7c0.1,0.1,0.2,0.2,0.2,0.3c0,0.1-0.1,0.2-0.2,0.3
									l-4.9,2.3l4.9,2.8L13.2,117.7z"/>
							</g>
						</g>
					</g>
				</g>
				<g>
					<g>
						<path class="st12" d="M17.4,92.3l-1,0.6c-1.5,1-2.4,2.7-2.4,4.6l0,0H7.1l0,0c0-1.8-0.9-3.5-2.4-4.6l-1-0.6H17.4z"/>
						<path class="st1" d="M14.3,97.9H6.8v-0.3c0-1.7-0.9-3.3-2.3-4.3L2.7,92h15.7l-1.8,1.2c-1.4,1-2.3,2.6-2.3,4.3V97.9z M7.5,97.2
							h6.3c0.1-1.8,1-3.5,2.6-4.5l0.1-0.1H4.8l0.1,0.1C6.4,93.7,7.4,95.4,7.5,97.2z"/>
					</g>
					<g>
						<path class="st12" d="M16.5,93c-1.5,1-2.4,2.7-2.4,4.6l0,0h-3.9"/>
						<path class="st1" d="M14.3,97.9h-4.2v-0.6h3.6c0.1-1.8,1-3.5,2.6-4.5l0.3,0.5c-1.4,1-2.3,2.6-2.3,4.3V97.9z"/>
					</g>
					<g>
						<path class="st13" d="M10.1,97.5h-3l0,0c0-1.8-0.9-3.5-2.4-4.6l-1-0.6h13.7l-1,0.6l-2.3,0.7C12.3,94.2,10.8,95.7,10.1,97.5
							L10.1,97.5z"/>
					</g>
					<g>
						<path class="st1" d="M14.3,97.9H6.8v-0.3c0-1.7-0.9-3.3-2.3-4.3L2.7,92h15.7l-1.8,1.2c-1.4,1-2.3,2.6-2.3,4.3V97.9z M7.5,97.2
							h6.3c0.1-1.8,1-3.5,2.6-4.5l0.1-0.1H4.8l0.1,0.1C6.4,93.7,7.4,95.4,7.5,97.2z"/>
					</g>
				</g>
			</g>
			<g>
				<g>
					<polygon class="st14" points="7.6,98.8 5.7,98.8 5.7,97.3 7.9,97.3 					"/>
				</g>
				<g>
					<polygon class="st15" points="7.6,98.8 10.3,98.8 10.4,97.3 7.9,97.3 					"/>
				</g>
				<g>
					<polygon class="st16" points="10.3,98.8 13.1,98.8 13.1,97.3 10.4,97.3 					"/>
				</g>
				<g>
					<polygon class="st17" points="13.1,98.8 15.4,98.8 15.4,97.3 13.1,97.3 					"/>
				</g>
				<g>
					<polygon class="st18" points="14.2,97.3 14.3,98.8 14.7,98.8 14.5,97.3 					"/>
				</g>
				<g>
					<path class="st1" d="M15.7,99.1H5.4v-2.2h10.4V99.1z M6,98.5h9.1v-0.9H6V98.5z"/>
				</g>
			</g>
			<g>
				<g>
					<polygon class="st14" points="8.1,101.8 6.5,101.8 6.5,100.3 8.3,100.3 					"/>
				</g>
				<g>
					<polygon class="st15" points="8.1,101.8 10.3,101.8 10.4,100.3 8.3,100.3 					"/>
				</g>
				<g>
					<polygon class="st16" points="10.3,101.8 12.7,101.8 12.7,100.3 10.4,100.3 					"/>
				</g>
				<g>
					<polygon class="st17" points="12.7,101.8 14.7,101.8 14.7,100.3 12.7,100.3 					"/>
				</g>
				<g>
					<polygon class="st18" points="13.6,100.3 13.7,101.8 14,101.8 13.9,100.3 					"/>
				</g>
				<g>
					<path class="st1" d="M15,102.1H6.2v-2.2H15V102.1z M6.8,101.5h7.5v-0.9H6.8V101.5z"/>
				</g>
			</g>
			<g>
				<g>
					<polygon class="st14" points="7.6,120.2 5.7,120.2 5.7,121.8 7.9,121.8 					"/>
				</g>
				<g>
					<polygon class="st15" points="7.6,120.2 10.3,120.2 10.4,121.8 7.9,121.8 					"/>
				</g>
				<g>
					<polygon class="st16" points="10.3,120.2 13.1,120.2 13.1,121.8 10.4,121.8 					"/>
				</g>
				<g>
					<polygon class="st17" points="13.1,120.2 15.4,120.2 15.4,121.8 13.1,121.8 					"/>
				</g>
				<g>
					<polygon class="st18" points="14.2,121.8 14.3,120.2 14.7,120.2 14.5,121.8 					"/>
				</g>
				<g>
					<path class="st1" d="M15.7,122.1H5.4v-2.2h10.4V122.1z M6,121.4h9.1v-0.9H6V121.4z"/>
				</g>
			</g>
			<g>
				<g>
					<polygon class="st14" points="8.1,117.2 6.5,117.2 6.5,118.8 8.3,118.8 					"/>
				</g>
				<g>
					<polygon class="st15" points="8.1,117.2 10.3,117.2 10.4,118.8 8.3,118.8 					"/>
				</g>
				<g>
					<polygon class="st16" points="10.3,117.2 12.7,117.2 12.7,118.8 10.4,118.8 					"/>
				</g>
				<g>
					<polygon class="st17" points="12.7,117.2 14.7,117.2 14.7,118.8 12.7,118.8 					"/>
				</g>
				<g>
					<polygon class="st18" points="13.6,118.8 13.7,117.2 14,117.2 13.9,118.8 					"/>
				</g>
				<g>
					<path class="st1" d="M15,119.1H6.2v-2.2H15V119.1z M6.8,118.4h7.5v-0.9H6.8V118.4z"/>
				</g>
			</g>
		</g>
		<g>
			<g>
				<polygon class="st19" points="19.7,92.9 1.1,92.9 1.6,89.4 19.2,89.4 				"/>
				<path class="st1" d="M20.1,93.2H0.7L1.3,89h18.1L20.1,93.2z M1.4,92.6h17.9l-0.4-2.9H1.9L1.4,92.6z"/>
			</g>
			<g>
				<polygon class="st20" points="3.8,92.9 1.1,92.9 1.6,89.4 5.4,89.4 				"/>
			</g>
			<g>
				<polygon class="st21" points="3.8,92.9 8.1,92.9 9,89.4 5.4,89.4 				"/>
			</g>
			<g>
				<polygon class="st20" points="8.1,92.9 11.8,92.9 11.8,89.4 9,89.4 				"/>
			</g>
			<g>
				<polygon class="st19" points="11.8,92.9 16.5,92.9 15.4,89.4 11.8,89.4 				"/>
			</g>
			<g>
				<polygon class="st22" points="16.5,92.9 19.7,92.9 19.2,89.4 15.4,89.4 				"/>
			</g>
			<g>
				<polygon class="st23" points="16.7,89.4 17.8,89.4 18.9,92.9 18,92.9 				"/>
			</g>
			<g>
				<path class="st1" d="M20.1,93.2H0.7L1.3,89h18.1L20.1,93.2z M1.4,92.6h17.9l-0.4-2.9H1.9L1.4,92.6z"/>
			</g>
		</g>
	</g>
</g>
</svg>
