<?xml version="1.0" encoding="utf-8"?>
<!-- Generator: Adobe Illustrator 24.2.3, SVG Export Plug-In . SVG Version: 6.00 Build 0)  -->
<svg version="1.1" id="Lag_1" xmlns="http://www.w3.org/2000/svg" xmlns:xlink="http://www.w3.org/1999/xlink" x="0px" y="0px"
	 viewBox="0 0 106 136" style="enable-background:new 0 0 106 136;" xml:space="preserve">
<style type="text/css">
	.st0{fill:#D8934E;}
	.st1{fill:#110B09;}
	.st2{fill:#E0A769;}
	.st3{fill:#E8BE80;}
	.st4{fill:#F4D1A2;}
	.st5{fill:#7F5238;}
	.st6{fill:#A8765D;}
	.st7{fill:#664331;}
	.st8{fill:#A37D61;}
	.st9{fill:#6A7254;}
	.st10{fill:#5A5E49;}
	.st11{fill:#6C6D56;}
	.st12{fill:#8C8C72;}
</style>
<g>
	<g>
		<g>
			<path class="st0" d="M102.7,42.9c0,0-6.3-7.9-9.8-17C88.3,14,76.7,7.8,76.7,7.8l0,0c-2.6,3-5.9,5.2-9.5,6.4l-0.3,0.1L64.8,13
				c-1.7-1-10.2-10.2-13-10.2c0,0-2.3,2.7-4.3,5.1c-2.5,3-5.5,5.6-8.8,7.5c-0.5,0.3-0.9,0.5-1.2,0.6l-3.7,1.5l-0.3-0.3
				c-1.9-2.6-4.6-4.5-7.6-5.3l-1.6-0.4c0,0-2.2,7.5-5.2,14.4c-2.9,6.9-9,14.4-8.9,16.2l0,0.1c0,0.4,0,0.8,0,1.1l-0.4,4.2
				c-0.3,2.9-1.4,5.6-3.2,7.7c-0.9,1-1.7,2.2-2.2,3.6L3.9,60c-1.8,4.2-2,9-0.6,13.4C4.4,77,6.5,80,9.2,82.1l2.9,2.3
				c0.5,0.4,1,0.7,1.6,1l7.6,3.5c0.3,0.1,0.5,0.2,0.8,0.3c0,0,0,0,0,0c5.1,1.5,9.1,5.7,10.4,10.9c0.2,0.7,0.3,1.2,0.3,1.2
				c0.1,0.3,0.2,0.6,0.3,0.9l2.4,6.2c1.3,3.5,0.5,7.4-2.1,10.1l-1.7,1.8c-0.9,0.9-1.9,1.6-3.1,2.1L49,115l22.8,11.6
				c0,0,7.1,0.5,5.5-1.9l-5.2-7.8c-0.6-0.9-1.1-1.8-1.4-2.7l-2.5-6.7c-0.7-1.8-1.7-3.4-3.1-4.7l-1.2-1.2c-2.2-2.2-1.5-5.9,1.2-7.2
				c0,0,0,0,0,0c0.5-0.2,1-0.5,1.4-0.8l7.9-5c2-1.3,3.7-3.1,4.9-5.3l2.3-4.2c1.1-1.9,2.5-3.6,4.2-4.8c1.4-1,2.6-2.3,3.6-3.8l0.6-0.9
				c1.3-2,3-3.6,5-4.7l2.5-1.4c2.5-1.4,4.4-3.8,5.2-6.8c0.2-0.7,0.3-1.5,0.4-2.2l0.5-6C103.7,46.6,103.4,44.7,102.7,42.9z"/>
			<path class="st1" d="M73.2,127.2c-0.6,0-1.2,0-1.5,0l-0.1,0l-0.1-0.1l-22.5-11.4l-20.2,7.4l-0.4-1.1c1.1-0.5,2.1-1.2,2.9-2
				l1.7-1.8c2.4-2.5,3.2-6.2,1.9-9.5l-2.4-6.2c-0.1-0.3-0.2-0.7-0.3-1l-0.3-1.2c-1.2-4.9-5-8.9-9.9-10.4h-0.1l-0.1-0.1
				c-0.3-0.1-0.5-0.2-0.8-0.3l-7.6-3.5c-0.6-0.3-1.2-0.6-1.7-1l-2.9-2.3c-2.8-2.2-4.9-5.3-6.1-9c-1.4-4.5-1.2-9.5,0.6-13.8l0.5-1.1
				C4.4,57.3,5.2,56,6.2,55c1.7-2,2.8-4.6,3.1-7.4l0.4-4.2c0-0.4,0-0.7,0-1.1l0-0.1c0-1,1.1-2.8,3.2-6.2c1.9-3,4.3-6.7,5.8-10.3
				c2.9-6.8,5.1-14.3,5.1-14.3l0.2-0.5l2.1,0.6c3.1,0.8,5.9,2.8,7.9,5.5l3.3-1.4c0.3-0.1,0.7-0.3,1.2-0.6c3.2-1.8,6.1-4.2,8.7-7.3
				c2-2.4,4.3-5.1,4.3-5.1l0.2-0.2h0.3c2,0,5.7,3.3,10,7.4c1.4,1.3,2.8,2.6,3.3,2.9l1.9,1.1l0.1,0c3.5-1.2,6.7-3.4,9.2-6.2l0,0
				l0.3-0.3L77,7.3c0.5,0.3,11.9,6.5,16.5,18.5c3.4,8.9,9.6,16.8,9.7,16.9l0.1,0.1c0.7,1.8,1,3.9,0.8,5.8l-0.5,6
				c-0.1,0.8-0.2,1.6-0.4,2.3c-0.9,3.1-2.8,5.7-5.5,7.1l-2.5,1.4c-1.9,1-3.5,2.6-4.8,4.5l-0.6,0.9c-1,1.6-2.3,2.9-3.7,3.9
				c-1.6,1.2-3,2.8-4,4.6l-2.3,4.2c-1.3,2.3-3,4.2-5.1,5.5l-7.9,5c-0.5,0.3-1,0.6-1.5,0.8l0,0c-1.1,0.6-1.9,1.6-2.1,2.8
				c-0.2,1.3,0.2,2.5,1.1,3.4l1.2,1.2c1.4,1.4,2.5,3.1,3.2,4.9l2.5,6.7c0.3,0.9,0.8,1.8,1.4,2.6l5.2,7.8c0.5,0.7,0.4,1.3,0.2,1.6
				C77.2,127,74.9,127.2,73.2,127.2z M71.9,126c2.1,0.1,4.6-0.1,5-0.7c0.1-0.1-0.1-0.3-0.1-0.4l-5.2-7.8c-0.6-0.9-1.1-1.9-1.5-2.9
				l-2.5-6.7c-0.6-1.7-1.6-3.2-2.9-4.5l-1.2-1.2c-1.2-1.2-1.7-2.8-1.4-4.4c0.3-1.6,1.3-3,2.8-3.7l0.1,0c0.4-0.2,0.9-0.4,1.3-0.7
				l7.9-5c1.9-1.2,3.6-3,4.7-5.1l2.3-4.2c1.1-2,2.6-3.7,4.4-5c1.3-1,2.5-2.2,3.5-3.6l0.6-0.9c1.3-2,3.1-3.7,5.2-4.8l2.5-1.4
				c2.3-1.3,4.1-3.7,4.9-6.4c0.2-0.7,0.3-1.4,0.4-2.1l0.5-6c0.2-1.8-0.1-3.6-0.7-5.2c-0.6-0.8-6.5-8.4-9.8-17.1
				c-4-10.4-13.5-16.4-15.6-17.6c-2.6,2.9-5.9,5-9.4,6.2l-0.6,0.2l-2.4-1.4c-0.6-0.4-1.8-1.5-3.5-3c-2.7-2.5-7.1-6.6-8.9-7
				c-0.6,0.7-2.4,2.9-4.1,4.9c-2.7,3.2-5.7,5.7-9,7.6c-0.5,0.3-0.9,0.5-1.3,0.6l-4.1,1.7l-0.5-0.7c-1.9-2.5-4.5-4.3-7.3-5.1l-1-0.3
				c-0.6,1.8-2.6,8.1-5,13.9c-1.5,3.7-3.9,7.4-5.9,10.5c-1.5,2.4-3.1,4.8-3,5.5l0,0.1c0,0.4,0,0.8,0,1.2l-0.4,4.2
				c-0.3,3-1.5,5.9-3.4,8c-0.9,1-1.6,2.1-2.1,3.4l-0.5,1.1c-1.7,4.1-1.9,8.7-0.6,13c1.1,3.4,3,6.3,5.7,8.4l2.9,2.3
				c0.4,0.4,0.9,0.7,1.4,0.9l7.6,3.5c0.2,0.1,0.5,0.2,0.7,0.3c5.3,1.6,9.4,5.9,10.8,11.3l0.3,1.2c0.1,0.3,0.2,0.6,0.3,0.9l2.4,6.2
				c1.4,3.7,0.5,7.9-2.2,10.7l-1.5,1.5l16.7-6.2L71.9,126z"/>
		</g>
		<g>
			<path class="st2" d="M78.9,27.1c0.5,1.1,1.4,2,2.4,2.6l1.2,0.7c0.8,0.5,1.6,1.2,2.1,2.1l0,0.1c0.9,1.4,2.2,2.4,3.7,2.7l0,0
				c1.2,0.3,2.2,0.9,3,1.8l1.5,1.7c0.7,0.8,1.3,1.8,1.7,2.8l0.5,1.4c0.6,1.5,0.8,3.1,0.7,4.7l-0.4,5.1c-0.1,0.6-0.2,1.3-0.3,1.9l0,0
				c-0.7,2.5-2.3,4.6-4.4,5.8l-2.1,1.2c-1.7,0.9-3.1,2.3-4.2,3.9l-0.5,0.8c-0.8,1.3-1.9,2.3-3,3.2v0c-1.4,1-2.7,2.4-3.6,4.1l-2,3.5
				c-1,1.9-2.5,3.4-4.2,4.5l-6.7,4.2c-0.4,0.2-0.8,0.5-1.2,0.7l-4.5,2.1c-1.2,0.6-2.4,1.4-3.4,2.4L49.6,97l-2-3.8
				c-0.3-0.6-0.5-1.2-0.7-1.8l0,0c-0.7-3-2.6-5.4-5.1-6.7l-0.3-0.1c-2-1-4.3-1.3-6.5-0.6h0c-1.2,0.3-2.4,0.3-3.5-0.1l-4.8-1.6
				c-0.2-0.1-0.4-0.2-0.7-0.3l-6.4-2.9c-0.5-0.2-0.9-0.5-1.3-0.8l-2.5-2c-2.3-1.8-4-4.4-5-7.4l0,0c-1.2-3.7-1-7.8,0.5-11.4l0.4-1
				c0.5-1.1,1.1-2.1,1.9-3l0,0c1.6-1.8,2.5-4.1,2.7-6.5l0.3-3.6c0-0.3,0-0.6,0-1l0-0.1c-0.1-3.2,1.7-6.1,4.4-7.1l0,0
				c0.7-0.3,1.4-0.7,2-1.2l2.1-1.9c1.3-1.2,2.2-2.9,2.4-4.8v0c0-0.5,0.2-0.9,0.4-1.3c0.8-1.4,1.1-3,0.8-4.6l-0.7-3l8.6,3.2l3.1-1.3
				c1-0.4,13.4-12,13.4-12c3.7-0.4,4.9,9.8,4.9,9.8c0.5,0.1,5.7,2.9,9.8,2.1c4-0.7,6.9-4.9,6.9-4.9C80.2,17,78.9,27.1,78.9,27.1z"/>
		</g>
		<g>
			<path class="st3" d="M75.3,31.3c0.5,1,1.2,1.7,2,2.3l1.1,0.6c0.7,0.4,1.4,1.1,1.8,1.8l0,0.1c0.7,1.2,1.9,2.1,3.2,2.4h0
				c1,0.2,1.9,0.8,2.6,1.6l1.3,1.5c0.6,0.7,1.1,1.5,1.5,2.4l0.5,1.2c0.5,1.3,0.7,2.7,0.6,4.1l-0.4,4.4c0,0.6-0.1,1.1-0.3,1.6v0
				c-0.6,2.2-2,3.9-3.8,5l-1.8,1c-1.4,0.8-2.7,2-3.6,3.4l-0.4,0.6c-0.7,1.1-1.6,2-2.6,2.8l0,0c-1.2,0.9-2.3,2.1-3.1,3.5l-1.7,3
				c-0.9,1.6-2.1,2.9-3.6,3.9L62.8,82c-0.3,0.2-0.7,0.4-1,0.6l-3.9,1.8c-1.1,0.5-2,1.2-2.9,2.1l-4.9,5.1l-1.7-3.3
				c-0.2-0.5-0.4-1-0.6-1.5l0,0c-0.6-2.5-2.2-4.7-4.4-5.7l-0.2-0.1c-1.8-0.9-3.7-1.1-5.6-0.5h0c-1,0.3-2,0.3-3-0.1l-4.2-1.4
				c-0.2-0.1-0.4-0.1-0.6-0.2l-5.5-2.5c-0.4-0.2-0.8-0.4-1.1-0.7L21,73.7c-2-1.6-3.5-3.8-4.3-6.3l0,0c-1-3.2-0.9-6.7,0.4-9.8
				l0.3-0.8c0.4-1,0.9-1.8,1.6-2.6l0,0c1.3-1.5,2.2-3.5,2.3-5.6l0.3-3.1c0-0.3,0-0.6,0-0.8l0-0.1c-0.1-2.7,1.4-5.2,3.8-6.2h0
				c0.6-0.2,1.2-0.6,1.7-1.1l1.8-1.6c1.1-1,1.9-2.5,2-4.2v0c0.1-1,0.7-1.9,1.6-2.3l6.3-2.6l2.7-1.1c1.5-0.6,15.7-1.9,15.7-1.9
				c0.8,0.1,5.8-0.2,9.8,1.6C71.7,27.2,75.3,31.3,75.3,31.3z"/>
		</g>
		<g>
			<path class="st4" d="M71.4,35.9c0.4,0.8,1,1.4,1.7,1.9l0.9,0.5c0.6,0.4,1.1,0.9,1.5,1.5l0,0.1c0.6,1,1.5,1.7,2.6,2v0
				c0.8,0.2,1.6,0.6,2.2,1.3l1,1.2c0.5,0.6,0.9,1.3,1.2,2l0.4,1c0.4,1.1,0.6,2.2,0.5,3.4l-0.3,3.6c0,0.5-0.1,0.9-0.2,1.3v0
				c-0.5,1.8-1.6,3.3-3.1,4.1l-1.5,0.8c-1.2,0.7-2.2,1.6-3,2.8l-0.4,0.5c-0.6,0.9-1.3,1.7-2.2,2.3h0c-1,0.7-1.9,1.7-2.5,2.9
				l-1.4,2.5c-0.7,1.3-1.8,2.4-3,3.2l-4.7,3c-0.3,0.2-0.6,0.3-0.9,0.5l-3.2,1.5c-0.9,0.4-1.7,1-2.4,1.7l-4.1,4.2l-1.4-2.7
				c-0.2-0.4-0.4-0.8-0.5-1.3h0c-0.5-2.1-1.8-3.8-3.6-4.7l-0.2-0.1c-1.5-0.7-3.1-0.9-4.6-0.4h0c-0.8,0.2-1.7,0.2-2.5,0l-3.4-1.1
				C34.2,75.1,34,75,33.9,75l-4.5-2.1c-0.3-0.2-0.6-0.3-0.9-0.6l-1.8-1.4c-1.6-1.3-2.9-3.1-3.5-5.2l0,0c-0.8-2.6-0.7-5.5,0.4-8.1
				l0.3-0.7c0.3-0.8,0.8-1.5,1.3-2.1l0,0c1.1-1.3,1.8-2.9,1.9-4.6l0.2-2.5c0-0.2,0-0.5,0-0.7l0-0.1c-0.1-2.3,1.2-4.3,3.1-5.1l0,0
				c0.5-0.2,1-0.5,1.4-0.9l1.5-1.3c0.9-0.9,1.5-2.1,1.7-3.4v0c0.1-0.8,0.6-1.6,1.3-1.9l5.2-2.2l2.2-0.9c1.2-0.5,12.9-1.6,12.9-1.6
				c0.7,0.1,4.8-0.2,8.1,1.3C68.4,32.5,71.4,35.9,71.4,35.9z"/>
		</g>
	</g>
	<g>
		<g>
			<g>
				<path class="st5" d="M84.1,57.8l-0.3,1.4c-0.5,2.2-1.6,4.2-3,5.8c-0.9,1-1.9,1.9-3.1,2.6l-0.8,0.5c-0.1-0.3-0.2-0.6-0.4-0.9
					l-2.3-4.8c-0.6-1.5-0.8-3.2-0.5-4.8l0.5-2.9h-3L70,60.5c-0.2,1.3-0.2,2.6,0,3.9l0.3,1.2c0.5,2.5,0.1,5.1-1.3,7.2
					c-1.2,1.8-2.9,3.2-4.9,3.9l-0.5,0.2c-1.1,0.4-2.2,0.6-3.3,0.6h-2.4l0.9-3.9c0.4-1.8,0.3-3.7-0.3-5.5l-0.3-0.9
					c-0.3-0.9-0.8-1.8-1.4-2.6l1-2.6c0.5-1.2,0.5-2.6,0-3.8c-0.4-1.3-0.4-2.7,0.1-3.9l0.1-0.2H56l-0.7,1.6c-0.3,0.7-0.4,1.5-0.4,2.2
					c0,1.4-0.5,2.7-1.4,3.8c-1.7-1.4-2.9-3.3-3.3-5.4l-0.3-1.5h-2.6L47,57.2c-0.2,1.9,0.4,3.7,1.5,5.2l2.2,2.7
					c1,1.3,1.6,2.8,1.6,4.4c0,1.8-0.7,3.6-2,4.9l-4.8,5c-0.1,0.1-0.2,0.2-0.4,0.4l-1.8,1.6L41,77.8c-0.8-1.2-1.4-2.6-1.7-4.1
					L39,72.3c-0.4-1.7-0.4-3.4,0-5.1c0.7-3.1,0.1-6.3-1.6-8.9l-0.3-0.5h-3.9l0.7,1.3c1.1,2,1,4.5-0.3,6.5c-0.3,0.4-0.5,0.9-0.7,1.4
					l-1.2,3.4c-0.4,1.1-0.4,2.3-0.2,3.5l0.6,2.7l0,0c-2.2-0.5-4.2-1.6-5.7-3.2c-0.8-0.8-1.4-1.8-1.9-2.8l-1.2-2.5h-1.9l1.1,4L23,73
					c0.5,1.9,1.4,3.7,2.6,5.2c0.6,0.7,1.3,1.4,2,1.9l0.6,0.5c1.5,1.2,3.3,2,5.2,2.4l0.8,0.2l2.2,5.9c0,0.1-0.1,0.2-0.1,0.2l-0.9,2.9
					c-0.4,1.3-0.4,2.7-0.1,4l1.5,5.7c0.1,0.2,0.1,0.5,0.2,0.7l1.7,4.6c1,2.6,0.4,5.5-1.5,7.5l-1.3,1.3c-0.6,0.7-1.4,1.2-2.3,1.6
					l-4,1.8c-1.3,0.6-2.5,1.6-3.2,2.9l-3.7,6.1l10.4,1l0.6-0.9c0.8-1.3,2-2.4,3.4-2.9l2.9-1.1c0.2-0.1,0.4-0.2,0.6-0.3l5.6-2.8
					c2.2,1,3.8,3.1,4.1,5.5l0.1,1.1c0.1,0.6,0.1,1.1,0,1.7l-0.5,3.6h8.4c0.8-3.2,0.6-6.6-0.6-9.8l-0.6-1.7l4.2,3.8
					c0.5,0.5,1.1,0.9,1.6,1.3c2.8,2,6.2,3,9.6,3h10.4l-4.2-4.4c-1.1-1.1-2.4-2-3.9-2.5l-0.4-0.1c-2-0.7-3.8-2-5-3.8l-3.9-5.7
					c-0.4-0.6-0.8-1.3-1-2l-1.9-4.9c-0.5-1.3-1.3-2.5-2.3-3.5l-4.5-4.5c-1.4-1.4-2.3-3.1-2.7-4.9l-0.2-0.9c-0.2-1.1-0.3-2.1-0.1-3.2
					l10.6-4.1c0.4-0.2,0.8-0.3,1.1-0.5l7.8-4.4c1-0.6,1.9-1.4,2.6-2.4l0.4-0.6c0.8-1.1,1.3-2.3,1.5-3.6l3.4-2.3
					c1.6-1.1,2.8-2.6,3.6-4.3l1.2-2.5c0.7-1.4,1-2.9,1-4.5v-2.3H84.1z"/>
				<path class="st1" d="M58.7,133.7h-9.5l0.6-4.3c0.1-0.5,0.1-1,0-1.6l-0.1-1.2c-0.2-2.1-1.6-4-3.5-4.9l-5.4,2.7
					c-0.2,0.1-0.4,0.2-0.6,0.3l-2.9,1.1c-1.3,0.5-2.4,1.5-3.1,2.7l-0.7,1.3l-11.7-1.1l4.1-6.9c0.8-1.4,2-2.4,3.5-3.1l4-1.8
					c0.8-0.3,1.5-0.8,2.1-1.5l1.3-1.3c1.7-1.8,2.3-4.5,1.4-6.8l-1.7-4.6c-0.1-0.2-0.2-0.5-0.2-0.8l-1.5-5.7
					c-0.4-1.4-0.3-2.9,0.1-4.3l0.9-2.9c0,0,0-0.1,0-0.1l-2-5.4l-0.5-0.1c-1.9-0.4-3.8-1.3-5.4-2.5l-0.6-0.5c-0.8-0.6-1.5-1.3-2.1-2
					c-1.3-1.6-2.3-3.4-2.7-5.4l-0.2-0.9L21,67.6h3l1.3,2.8c0.4,1,1,1.8,1.8,2.6c1.2,1.3,2.8,2.3,4.5,2.8l-0.4-1.7
					c-0.3-1.3-0.2-2.6,0.2-3.8l1.2-3.4c0.2-0.6,0.5-1.1,0.8-1.6c1.2-1.8,1.3-4,0.3-5.9l-1.2-2.2h5.2l0.5,0.8
					c1.8,2.8,2.3,6.1,1.6,9.3c-0.4,1.6-0.4,3.2,0,4.8l0.3,1.4c0.3,1.4,0.9,2.7,1.6,3.9l2.1,3.1l1.3-1.1c0.1-0.1,0.2-0.2,0.3-0.3
					l4.8-5c1.2-1.2,1.8-2.8,1.8-4.5c0-1.5-0.5-2.9-1.4-4.1l-2.2-2.7c-1.3-1.6-1.9-3.6-1.7-5.6l0.3-3h3.6l0.4,1.9
					c0.4,1.8,1.3,3.5,2.7,4.7c0.6-0.9,0.9-1.9,0.9-2.9c0-0.8,0.2-1.7,0.5-2.4l0.8-2h3.1l-0.4,1c-0.4,1.1-0.5,2.4-0.1,3.5
					c0.5,1.4,0.5,2.9,0,4.2l-0.9,2.3c0.5,0.8,1,1.6,1.3,2.5l0.3,0.9c0.7,1.9,0.8,3.9,0.3,5.8l-0.7,3.2h1.7c1.1,0,2.1-0.2,3.1-0.5
					l0.5-0.2c1.9-0.7,3.5-2,4.6-3.7c1.3-2,1.7-4.4,1.2-6.8l-0.3-1.2c-0.3-1.4-0.3-2.7,0-4.1l1.2-6.2h4.2l-0.7,3.5
					c-0.3,1.5-0.1,3.1,0.5,4.5L77,67c0,0.1,0.1,0.2,0.1,0.3l0.2-0.1c1.1-0.7,2.1-1.5,3-2.5c1.4-1.6,2.4-3.5,2.9-5.6l0.4-1.8h3.3v2.9
					c0,1.6-0.4,3.2-1.1,4.7l-1.2,2.5c-0.8,1.8-2.1,3.4-3.8,4.6l-3.2,2.2c-0.3,1.3-0.8,2.5-1.5,3.6l-0.4,0.6c-0.8,1-1.7,1.9-2.8,2.5
					l-7.8,4.4c-0.4,0.2-0.8,0.4-1.2,0.6l-10.3,3.9c-0.1,0.9,0,1.8,0.2,2.7l0.2,0.9c0.4,1.8,1.2,3.4,2.5,4.6l4.5,4.5
					c1.1,1.1,1.9,2.3,2.4,3.7l1.9,4.9c0.3,0.7,0.6,1.3,1,1.9l3.9,5.7c1.1,1.7,2.8,2.9,4.7,3.6l0.4,0.1c1.6,0.5,3,1.5,4.1,2.7
					l5.1,5.3H72.5c-3.6,0-7-1.1-9.9-3.1c-0.6-0.4-1.2-0.9-1.7-1.3l-2.5-2.2c1,3.1,1.2,6.4,0.4,9.6L58.7,133.7z M50.5,132.5h7.2
					c0.6-3,0.4-6.1-0.7-9l-1.4-3.9l6,5.3c0.5,0.4,1,0.9,1.6,1.2c2.7,1.9,5.9,2.9,9.3,2.9h9.1l-3.2-3.4c-1-1.1-2.3-1.9-3.7-2.4
					l-0.4-0.1c-2.1-0.7-4-2.2-5.3-4l-3.9-5.7c-0.4-0.7-0.8-1.4-1.1-2.1l-1.9-4.9c-0.5-1.2-1.2-2.3-2.1-3.3l-4.5-4.5
					c-1.4-1.4-2.4-3.2-2.8-5.2l-0.2-0.9c-0.2-1.1-0.3-2.2-0.1-3.4l0-0.3l10.9-4.2c0.4-0.1,0.7-0.3,1.1-0.5l7.8-4.4
					c1-0.6,1.8-1.3,2.5-2.2l0.4-0.6c0.7-1,1.2-2.1,1.4-3.3l0-0.2l3.6-2.5c1.5-1,2.7-2.4,3.4-4.1l1.2-2.5c0.6-1.3,0.9-2.8,0.9-4.2
					v-1.7h-1.2l-0.2,0.9c-0.6,2.2-1.6,4.3-3.2,6.1c-0.9,1.1-2,2-3.2,2.8L76.5,69l-0.2-0.7c-0.1-0.3-0.2-0.6-0.3-0.8l-2.3-4.8
					c-0.7-1.7-0.9-3.4-0.6-5.2l0.4-2.2h-1.9l-1,5.3c-0.2,1.2-0.2,2.4,0,3.6l0.3,1.2c0.6,2.6,0.1,5.4-1.4,7.7
					c-1.2,1.9-3.1,3.4-5.2,4.2l-0.5,0.2c-1.1,0.4-2.3,0.6-3.5,0.6h-3.2l1-4.6c0.4-1.7,0.3-3.5-0.3-5.2l-0.3-0.9
					c-0.3-0.9-0.7-1.7-1.3-2.4l-0.2-0.3l1.1-2.9c0.4-1.1,0.4-2.3,0-3.4c-0.4-1.2-0.5-2.5-0.1-3.7h-0.6l-0.5,1.3
					c-0.3,0.6-0.4,1.3-0.4,2c0,1.5-0.6,3-1.5,4.2l-0.4,0.4l-0.4-0.4c-1.8-1.5-3-3.5-3.5-5.8l-0.2-1h-1.6l-0.2,1.9
					C47.5,59,48,60.7,49,62l2.2,2.7c1.1,1.4,1.7,3.1,1.7,4.8c0,2-0.8,3.9-2.1,5.3l-4.8,5c-0.1,0.1-0.3,0.3-0.4,0.4l-2.3,2l-2.8-4.2
					c-0.9-1.3-1.5-2.7-1.8-4.3l-0.3-1.4c-0.4-1.8-0.4-3.6,0-5.3c0.6-2.9,0.1-5.9-1.5-8.5l-0.2-0.3h-2.6l0.3,0.5
					c1.2,2.2,1.1,5-0.3,7.1c-0.3,0.4-0.5,0.8-0.6,1.3l-1.2,3.4c-0.3,1-0.4,2.1-0.1,3.2l0.9,3.6l-0.9-0.2c-2.3-0.5-4.4-1.7-6-3.4
					c-0.8-0.9-1.5-1.9-2-2.9l-1-2.1h-0.7l1.1,4.2c0.4,1.8,1.3,3.5,2.5,4.9c0.6,0.7,1.2,1.3,1.9,1.8l0.6,0.5c1.4,1.1,3.1,1.9,4.9,2.3
					l1.1,0.2L37,89l-0.1,0.2c0,0,0,0.1-0.1,0.1c0,0,0,0.1,0,0.1l-0.9,2.9c-0.4,1.2-0.4,2.5-0.1,3.7l1.5,5.7c0.1,0.2,0.1,0.4,0.2,0.6
					l1.7,4.6c1.1,2.8,0.4,5.9-1.6,8.1l-1.3,1.3c-0.7,0.7-1.5,1.3-2.4,1.7l-4,1.8c-1.2,0.5-2.3,1.5-3,2.6l-3.2,5.3l9.1,0.9l0.4-0.6
					c0.8-1.4,2.1-2.6,3.7-3.2l2.9-1.1c0.2-0.1,0.3-0.1,0.5-0.2l5.8-2.9l0.2,0.1c2.4,1,4.1,3.3,4.4,6l0.1,1.2c0.1,0.6,0.1,1.2,0,1.9
					L50.5,132.5z"/>
			</g>
			<g>
				<path class="st6" d="M50.5,98.8c-0.2,0-0.4-0.1-0.5-0.3c-0.5-0.9-0.9-2-1.1-3l-0.2-0.9c-0.1-0.3,0.1-0.6,0.4-0.7
					c0.3-0.1,0.6,0.1,0.7,0.4l0.2,0.9c0.2,0.9,0.5,1.8,1,2.7c0.2,0.3,0.1,0.6-0.2,0.8C50.7,98.8,50.6,98.8,50.5,98.8z"/>
			</g>
			<g>
				<path class="st6" d="M56.5,105.3c-0.1,0-0.3-0.1-0.4-0.2l-4.5-4.5c-0.2-0.2-0.2-0.6,0-0.8c0.2-0.2,0.6-0.2,0.8,0l4.5,4.5
					c0.2,0.2,0.2,0.6,0,0.8C56.8,105.3,56.7,105.3,56.5,105.3z"/>
			</g>
			<g>
				<path class="st6" d="M60.7,113.8c-0.2,0-0.5-0.1-0.5-0.4l-1.9-4.9c-0.1-0.3,0-0.6,0.3-0.7c0.3-0.1,0.6,0,0.7,0.3l1.9,4.9
					c0.1,0.3,0,0.6-0.3,0.7C60.8,113.8,60.7,113.8,60.7,113.8z"/>
			</g>
			<g>
				<path class="st7" d="M39,67.2c0.7-3.1,0.1-6.3-1.6-8.9l-0.3-0.5h-3.9l0.7,1.3c1.1,2,1,4.5-0.3,6.5c-0.3,0.4-0.5,0.9-0.7,1.4"/>
			</g>
			<g>
				<path class="st7" d="M24,75.8c-0.4-0.9-0.8-1.8-1-2.7l-0.2-0.9l-1.1-4h1.9l1.2,2.5c0.5,1,1.1,2,1.9,2.8"/>
			</g>
			<g>
				<path class="st7" d="M80.7,65c1.5-1.7,2.5-3.7,3-5.8l0.3-1.4h2.2v2.3c0,1.5-0.3,3.1-1,4.5l-1.2,2.5"/>
			</g>
			<g>
				<path class="st7" d="M70,64.4c-0.3-1.3-0.3-2.6,0-3.9l1.1-5.7h3l-0.5,2.9c-0.3,1.6-0.1,3.3,0.5,4.8"/>
			</g>
			<g>
				<path class="st7" d="M50.8,65.1l-2.2-2.7c-1.2-1.5-1.7-3.3-1.5-5.2l0.2-2.5h2.6l0.3,1.5c0.5,2.1,1.7,4.1,3.3,5.4
					c0.9-1.1,1.4-2.4,1.4-3.8c0-0.8,0.2-1.5,0.4-2.2l0.7-1.6h1.8l-0.1,0.2c-0.5,1.3-0.5,2.6-0.1,3.9c0.4,1.2,0.4,2.6,0,3.8l-1,2.6"
					/>
			</g>
			<g>
				<path class="st1" d="M58.7,133.7h-9.5l0.6-4.3c0.1-0.5,0.1-1,0-1.6l-0.1-1.2c-0.2-2.1-1.6-4-3.5-4.9l-5.4,2.7
					c-0.2,0.1-0.4,0.2-0.6,0.3l-2.9,1.1c-1.3,0.5-2.4,1.5-3.1,2.7l-0.7,1.3l-11.7-1.1l4.1-6.9c0.8-1.4,2-2.4,3.5-3.1l4-1.8
					c0.8-0.3,1.5-0.8,2.1-1.5l1.3-1.3c1.7-1.8,2.3-4.5,1.4-6.8l-1.7-4.6c-0.1-0.2-0.2-0.5-0.2-0.8l-1.5-5.7
					c-0.4-1.4-0.3-2.9,0.1-4.3l0.9-2.9c0,0,0-0.1,0-0.1l-2-5.4l-0.5-0.1c-1.9-0.4-3.8-1.3-5.4-2.5l-0.6-0.5c-0.8-0.6-1.5-1.3-2.1-2
					c-1.3-1.6-2.3-3.4-2.7-5.4l-0.2-0.9L21,67.6h3l1.3,2.8c0.4,1,1,1.8,1.8,2.6c1.2,1.3,2.8,2.3,4.5,2.8l-0.4-1.7
					c-0.3-1.3-0.2-2.6,0.2-3.8l1.2-3.4c0.2-0.6,0.5-1.1,0.8-1.6c1.2-1.8,1.3-4,0.3-5.9l-1.2-2.2h5.2l0.5,0.8
					c1.8,2.8,2.3,6.1,1.6,9.3c-0.4,1.6-0.4,3.2,0,4.8l0.3,1.4c0.3,1.4,0.9,2.7,1.6,3.9l2.1,3.1l1.3-1.1c0.1-0.1,0.2-0.2,0.3-0.3
					l4.8-5c1.2-1.2,1.8-2.8,1.8-4.5c0-1.5-0.5-2.9-1.4-4.1l-2.2-2.7c-1.3-1.6-1.9-3.6-1.7-5.6l0.3-3h3.6l0.4,1.9
					c0.4,1.8,1.3,3.5,2.7,4.7c0.6-0.9,0.9-1.9,0.9-2.9c0-0.8,0.2-1.7,0.5-2.4l0.8-2h3.1l-0.4,1c-0.4,1.1-0.5,2.4-0.1,3.5
					c0.5,1.4,0.5,2.9,0,4.2l-0.9,2.3c0.5,0.8,1,1.6,1.3,2.5l0.3,0.9c0.7,1.9,0.8,3.9,0.3,5.8l-0.7,3.2h1.7c1.1,0,2.1-0.2,3.1-0.5
					l0.5-0.2c1.9-0.7,3.5-2,4.6-3.7c1.3-2,1.7-4.4,1.2-6.8l-0.3-1.2c-0.3-1.4-0.3-2.7,0-4.1l1.2-6.2h4.2l-0.7,3.5
					c-0.3,1.5-0.1,3.1,0.5,4.5L77,67c0,0.1,0.1,0.2,0.1,0.3l0.2-0.1c1.1-0.7,2.1-1.5,3-2.5c1.4-1.6,2.4-3.5,2.9-5.6l0.4-1.8h3.3v2.9
					c0,1.6-0.4,3.2-1.1,4.7l-1.2,2.5c-0.8,1.8-2.1,3.4-3.8,4.6l-3.2,2.2c-0.3,1.3-0.8,2.5-1.5,3.6l-0.4,0.6c-0.8,1-1.7,1.9-2.8,2.5
					l-7.8,4.4c-0.4,0.2-0.8,0.4-1.2,0.6l-10.3,3.9c-0.1,0.9,0,1.8,0.2,2.7l0.2,0.9c0.4,1.8,1.2,3.4,2.5,4.6l4.5,4.5
					c1.1,1.1,1.9,2.3,2.4,3.7l1.9,4.9c0.3,0.7,0.6,1.3,1,1.9l3.9,5.7c1.1,1.7,2.8,2.9,4.7,3.6l0.4,0.1c1.6,0.5,3,1.5,4.1,2.7
					l5.1,5.3H72.5c-3.6,0-7-1.1-9.9-3.1c-0.6-0.4-1.2-0.9-1.7-1.3l-2.5-2.2c1,3.1,1.2,6.4,0.4,9.6L58.7,133.7z M50.5,132.5h7.2
					c0.6-3,0.4-6.1-0.7-9l-1.4-3.9l6,5.3c0.5,0.4,1,0.9,1.6,1.2c2.7,1.9,5.9,2.9,9.3,2.9h9.1l-3.2-3.4c-1-1.1-2.3-1.9-3.7-2.4
					l-0.4-0.1c-2.1-0.7-4-2.2-5.3-4l-3.9-5.7c-0.4-0.7-0.8-1.4-1.1-2.1l-1.9-4.9c-0.5-1.2-1.2-2.3-2.1-3.3l-4.5-4.5
					c-1.4-1.4-2.4-3.2-2.8-5.2l-0.2-0.9c-0.2-1.1-0.3-2.2-0.1-3.4l0-0.3l10.9-4.2c0.4-0.1,0.7-0.3,1.1-0.5l7.8-4.4
					c1-0.6,1.8-1.3,2.5-2.2l0.4-0.6c0.7-1,1.2-2.1,1.4-3.3l0-0.2l3.6-2.5c1.5-1,2.7-2.4,3.4-4.1l1.2-2.5c0.6-1.3,0.9-2.8,0.9-4.2
					v-1.7h-1.2l-0.2,0.9c-0.6,2.2-1.6,4.3-3.2,6.1c-0.9,1.1-2,2-3.2,2.8L76.5,69l-0.2-0.7c-0.1-0.3-0.2-0.6-0.3-0.8l-2.3-4.8
					c-0.7-1.7-0.9-3.4-0.6-5.2l0.4-2.2h-1.9l-1,5.3c-0.2,1.2-0.2,2.4,0,3.6l0.3,1.2c0.6,2.6,0.1,5.4-1.4,7.7
					c-1.2,1.9-3.1,3.4-5.2,4.2l-0.5,0.2c-1.1,0.4-2.3,0.6-3.5,0.6h-3.2l1-4.6c0.4-1.7,0.3-3.5-0.3-5.2l-0.3-0.9
					c-0.3-0.9-0.7-1.7-1.3-2.4l-0.2-0.3l1.1-2.9c0.4-1.1,0.4-2.3,0-3.4c-0.4-1.2-0.5-2.5-0.1-3.7h-0.6l-0.5,1.3
					c-0.3,0.6-0.4,1.3-0.4,2c0,1.5-0.6,3-1.5,4.2l-0.4,0.4l-0.4-0.4c-1.8-1.5-3-3.5-3.5-5.8l-0.2-1h-1.6l-0.2,1.9
					C47.5,59,48,60.7,49,62l2.2,2.7c1.1,1.4,1.7,3.1,1.7,4.8c0,2-0.8,3.9-2.1,5.3l-4.8,5c-0.1,0.1-0.3,0.3-0.4,0.4l-2.3,2l-2.8-4.2
					c-0.9-1.3-1.5-2.7-1.8-4.3l-0.3-1.4c-0.4-1.8-0.4-3.6,0-5.3c0.6-2.9,0.1-5.9-1.5-8.5l-0.2-0.3h-2.6l0.3,0.5
					c1.2,2.2,1.1,5-0.3,7.1c-0.3,0.4-0.5,0.8-0.6,1.3l-1.2,3.4c-0.3,1-0.4,2.1-0.1,3.2l0.9,3.6l-0.9-0.2c-2.3-0.5-4.4-1.7-6-3.4
					c-0.8-0.9-1.5-1.9-2-2.9l-1-2.1h-0.7l1.1,4.2c0.4,1.8,1.3,3.5,2.5,4.9c0.6,0.7,1.2,1.3,1.9,1.8l0.6,0.5c1.4,1.1,3.1,1.9,4.9,2.3
					l1.1,0.2L37,89l-0.1,0.2c0,0,0,0.1-0.1,0.1c0,0,0,0.1,0,0.1l-0.9,2.9c-0.4,1.2-0.4,2.5-0.1,3.7l1.5,5.7c0.1,0.2,0.1,0.4,0.2,0.6
					l1.7,4.6c1.1,2.8,0.4,5.9-1.6,8.1l-1.3,1.3c-0.7,0.7-1.5,1.3-2.4,1.7l-4,1.8c-1.2,0.5-2.3,1.5-3,2.6l-3.2,5.3l9.1,0.9l0.4-0.6
					c0.8-1.4,2.1-2.6,3.7-3.2l2.9-1.1c0.2-0.1,0.3-0.1,0.5-0.2l5.8-2.9l0.2,0.1c2.4,1,4.1,3.3,4.4,6l0.1,1.2c0.1,0.6,0.1,1.2,0,1.9
					L50.5,132.5z"/>
			</g>
			<g>
				<line class="st8" x1="76.8" y1="68.1" x2="76.8" y2="70.4"/>
				<path class="st1" d="M76.8,71c-0.3,0-0.6-0.3-0.6-0.6v-2.3c0-0.3,0.3-0.6,0.6-0.6s0.6,0.3,0.6,0.6v2.3
					C77.4,70.8,77.1,71,76.8,71z"/>
			</g>
			<g>
				<line class="st8" x1="43.5" y1="81.4" x2="41.9" y2="84.1"/>
				<path class="st1" d="M41.9,84.7c-0.1,0-0.2,0-0.3-0.1c-0.3-0.2-0.4-0.5-0.2-0.8l1.5-2.7c0.2-0.3,0.5-0.4,0.8-0.2
					c0.3,0.2,0.4,0.5,0.2,0.8l-1.5,2.7C42.3,84.6,42.1,84.7,41.9,84.7z"/>
			</g>
			<g>
				<line class="st8" x1="46.2" y1="121.1" x2="44.2" y2="118.5"/>
				<path class="st1" d="M46.2,121.7c-0.2,0-0.4-0.1-0.5-0.2l-2-2.7c-0.2-0.3-0.1-0.6,0.1-0.8c0.3-0.2,0.6-0.1,0.8,0.1l2,2.7
					c0.2,0.3,0.1,0.6-0.1,0.8C46.5,121.7,46.3,121.7,46.2,121.7z"/>
			</g>
		</g>
		<g>
			<g>
				<g>
					<path class="st9" d="M26.7,63.7c0.8-0.3,1.4-1.1,1.4-2c0-1.2-1-2.2-2.2-2.2c-0.2,0-0.4,0-0.6,0.1c0-1-1-1.8-2.3-1.8
						c-0.3,0-0.5,0-0.7,0.1c-0.5-1-1.6-1.6-2.9-1.6c-1.5,0-2.7,0.8-3,2c-0.4-0.1-0.7-0.2-1.1-0.2c-2.4,0-4.4,2-4.4,4.4
						c0,0.4,0.1,0.9,0.2,1.3c-0.1,0.3-0.2,0.7-0.2,1c0,1.5,1.2,2.7,2.7,2.7c0.6,0,1.2-0.2,1.7-0.6c0.1,0,0.2,0,0.3,0
						c-0.2,0.5-0.3,1-0.3,1.6c0,2.1,1.5,3.9,3.3,3.9c1.5,0,2.7-1.1,3.1-2.6c0.4,0.3,0.8,0.4,1.4,0.4c1.3,0,2.3-1,2.3-2.3
						c0-0.1,0-0.1,0-0.2c0,0,0,0,0,0c1.6,0,2.8-1,2.8-2.1C28,64.7,27.5,64,26.7,63.7z"/>
					<path class="st1" d="M18.4,72.9c-2.2,0-3.9-2-3.9-4.5c0-0.2,0-0.4,0-0.6C14.2,68,13.8,68,13.4,68c-1.8,0-3.3-1.5-3.3-3.3
						c0-0.4,0.1-0.7,0.2-1.1c-0.1-0.4-0.2-0.8-0.2-1.2c0-2.7,2.2-5,5-5c0.2,0,0.5,0,0.8,0.1c0.6-1.1,1.9-1.9,3.4-1.9
						c1.3,0,2.5,0.6,3.2,1.6c1.5-0.2,2.8,0.6,3.2,1.6c1.6-0.1,2.9,1.2,2.9,2.7c0,0.8-0.3,1.5-0.9,2c0.6,0.5,0.9,1.1,0.9,1.8
						c0,1.3-1.2,2.5-2.8,2.7c-0.2,1.4-1.4,2.5-2.9,2.5c-0.4,0-0.7-0.1-1-0.2C21.2,72,19.9,72.9,18.4,72.9z M16.3,66.1L15.9,67
						c-0.2,0.5-0.3,0.9-0.3,1.4c0,1.8,1.2,3.3,2.7,3.3c1.2,0,2.2-0.9,2.6-2.2l0.2-0.8l0.7,0.5c0.3,0.2,0.7,0.3,1,0.3
						c1,0,1.7-0.8,1.7-1.7c0-0.1,0-0.1,0-0.1l0-0.6l0.7,0c1.2,0,2.2-0.7,2.2-1.6c0-0.5-0.4-1-1-1.3l-1.2-0.6l1.3-0.5
						c0.6-0.2,1-0.8,1-1.5c0-0.9-0.7-1.6-1.6-1.6c-0.1,0-0.3,0-0.5,0.1l-0.7,0.2l0-0.8c0-0.6-0.8-1.2-1.7-1.2c-0.2,0-0.4,0-0.6,0.1
						l-0.5,0.1l-0.2-0.4c-0.4-0.8-1.3-1.3-2.4-1.3c-1.2,0-2.2,0.7-2.5,1.6l-0.2,0.5L16,58.8c-0.4-0.1-0.7-0.1-1-0.1
						c-2.1,0-3.8,1.7-3.8,3.8c0,0.3,0.1,0.7,0.2,1.1l0.1,0.2l-0.1,0.2c-0.1,0.3-0.2,0.5-0.2,0.8c0,1.2,0.9,2.1,2.1,2.1
						c0.5,0,0.9-0.2,1.3-0.5l0.2-0.1h0.2c0,0,0.1,0,0.1,0c0.1,0,0.1,0,0.2,0L16.3,66.1z"/>
				</g>
				<g>
					<path class="st10" d="M17,58.1c-0.6,0.7-1,1.6-1,2.6c0,2.2,1.9,4.1,4.3,4.1c0.3,0,0.6,0,0.9-0.1c0.8,1.6,2.2,2.6,3.7,2.6
						c2.2,0,4.1-2.1,4.6-5"/>
				</g>
				<g>
					<path class="st1" d="M18.4,72.9c-2.2,0-3.9-2-3.9-4.5c0-0.2,0-0.4,0-0.6C14.2,68,13.8,68,13.4,68c-1.8,0-3.3-1.5-3.3-3.3
						c0-0.4,0.1-0.7,0.2-1.1c-0.1-0.4-0.2-0.8-0.2-1.2c0-2.7,2.2-5,5-5c0.2,0,0.5,0,0.8,0.1c0.6-1.1,1.9-1.9,3.4-1.9
						c1.3,0,2.5,0.6,3.2,1.6c1.5-0.2,2.8,0.6,3.2,1.6c1.6-0.1,2.9,1.2,2.9,2.7c0,0.8-0.3,1.5-0.9,2c0.6,0.5,0.9,1.1,0.9,1.8
						c0,1.3-1.2,2.5-2.8,2.7c-0.2,1.4-1.4,2.5-2.9,2.5c-0.4,0-0.7-0.1-1-0.2C21.2,72,19.9,72.9,18.4,72.9z M16.3,66.1L15.9,67
						c-0.2,0.5-0.3,0.9-0.3,1.4c0,1.8,1.2,3.3,2.7,3.3c1.2,0,2.2-0.9,2.6-2.2l0.2-0.8l0.7,0.5c0.3,0.2,0.7,0.3,1,0.3
						c1,0,1.7-0.8,1.7-1.7c0-0.1,0-0.1,0-0.1l0-0.6l0.7,0c1.2,0,2.2-0.7,2.2-1.6c0-0.5-0.4-1-1-1.3l-1.2-0.6l1.3-0.5
						c0.6-0.2,1-0.8,1-1.5c0-0.9-0.7-1.6-1.6-1.6c-0.1,0-0.3,0-0.5,0.1l-0.7,0.2l0-0.8c0-0.6-0.8-1.2-1.7-1.2c-0.2,0-0.4,0-0.6,0.1
						l-0.5,0.1l-0.2-0.4c-0.4-0.8-1.3-1.3-2.4-1.3c-1.2,0-2.2,0.7-2.5,1.6l-0.2,0.5L16,58.8c-0.4-0.1-0.7-0.1-1-0.1
						c-2.1,0-3.8,1.7-3.8,3.8c0,0.3,0.1,0.7,0.2,1.1l0.1,0.2l-0.1,0.2c-0.1,0.3-0.2,0.5-0.2,0.8c0,1.2,0.9,2.1,2.1,2.1
						c0.5,0,0.9-0.2,1.3-0.5l0.2-0.1h0.2c0,0,0.1,0,0.1,0c0.1,0,0.1,0,0.2,0L16.3,66.1z"/>
				</g>
			</g>
			<g>
				<g>
					<path class="st9" d="M97.7,52.3c0-1.6-1.2-2.9-2.9-3.2c0.4-0.5,0.6-1,0.5-1.6c-0.1-1.3-1.3-2.2-2.9-2.3
						c0.2-0.3,0.4-0.6,0.4-0.9c0-1.1-1.3-1.9-2.9-1.9c-0.5,0-1.1,0.1-1.5,0.3c-0.6-0.8-1.5-1.2-2.5-1.2c-0.2,0-0.3,0-0.5,0.1
						c-0.5-0.6-1.3-1-2.2-1c-1.5,0-2.7,1-2.7,2.3c0,0.2,0,0.4,0.1,0.6c-0.2,0.1-0.4,0.3-0.6,0.5c-0.5-0.5-1.2-0.8-2-0.8
						c-1.6,0-2.8,1.3-2.8,2.8c0,1,0.5,1.9,1.3,2.4c-0.2,0.3-0.3,0.7-0.3,1.1c0,0.9,0.5,1.6,1.2,2.1c-0.7,0.4-1.2,1.1-1.2,1.9
						c0,1,0.8,1.8,1.9,2.2c-0.7,0.5-1.2,1.2-1.1,1.9c0.1,1.3,1.5,2.2,3.2,2.1c0.1,0,0.2,0,0.2,0c0,0,0,0,0,0c0,1.6,1.6,2.8,3.7,2.8
						c1.2,0,2.2-0.4,2.8-1.1c0.1,0,0.2,0,0.3,0c0.7,0,1.4-0.2,2-0.6c0,1.6,1.1,2.9,2.4,2.9c1.3,0,2.4-1.3,2.4-3c0-0.5-0.1-1-0.3-1.5
						c1.4-0.3,2.4-1.3,2.4-2.5c0-0.6-0.2-1.1-0.7-1.5C96.9,54.7,97.7,53.6,97.7,52.3z"/>
					<path class="st1" d="M91.7,64.3c-1.4,0-2.6-1.1-2.9-2.6c-0.5,0.2-1.1,0.3-1.6,0.3c-0.8,0.7-1.9,1-3,1c-2.1,0-3.8-1.2-4.2-2.8
						c-1.9,0-3.4-1.2-3.5-2.7c0-0.6,0.2-1.3,0.6-1.8c-0.9-0.5-1.4-1.4-1.4-2.3c0-0.7,0.3-1.4,0.9-1.9c-0.6-0.6-0.9-1.3-0.9-2.1
						c0-0.3,0-0.6,0.1-0.9c-0.8-0.6-1.2-1.6-1.2-2.6c0-1.9,1.5-3.4,3.4-3.4c0.7,0,1.3,0.2,1.9,0.6c0-0.1,0-0.2,0-0.2
						c0-1.6,1.5-2.9,3.2-2.9c0.9,0,1.8,0.3,2.4,0.9c0.1,0,0.2,0,0.3,0c1,0,2,0.4,2.7,1.1c0.4-0.1,0.9-0.2,1.3-0.2
						c2,0,3.5,1.1,3.5,2.5c0,0.1,0,0.3-0.1,0.4c1.4,0.3,2.5,1.4,2.6,2.7c0,0.4,0,0.9-0.2,1.3c1.6,0.6,2.6,2,2.6,3.6
						c0,1.3-0.7,2.5-1.9,3.2c0.2,0.4,0.4,0.9,0.4,1.3c0,1.2-0.9,2.3-2.2,2.9c0.1,0.4,0.2,0.7,0.2,1.1C94.7,62.7,93.4,64.3,91.7,64.3
						z M89.9,59.7l0,1.1c0,1.3,0.8,2.3,1.9,2.3c1,0,1.9-1.1,1.9-2.4c0-0.4-0.1-0.8-0.3-1.2L93,58.9l0.7-0.2c1.2-0.3,2-1.1,2-1.9
						c0-0.5-0.3-0.9-0.5-1.1l-0.6-0.6l0.8-0.3c1.1-0.5,1.8-1.4,1.8-2.5c0-1.2-1-2.3-2.5-2.7l-0.9-0.2l0.5-0.7
						c0.2-0.3,0.4-0.7,0.4-1.2c-0.1-1-1.1-1.7-2.3-1.7l-1.2,0l0.7-0.9c0.1-0.2,0.2-0.4,0.2-0.5c0-0.6-1-1.3-2.3-1.3
						c-0.4,0-0.9,0.1-1.3,0.2l-0.4,0.2L87.9,43c-0.6-0.7-1.3-1-2.1-1c-0.1,0-0.2,0-0.4,0l-0.3,0.1l-0.3-0.3c-0.4-0.5-1-0.8-1.7-0.8
						c-1.1,0-2.1,0.8-2.1,1.8c0,0.1,0,0.2,0.1,0.4l0.1,0.4l-0.4,0.2c-0.2,0.1-0.3,0.2-0.4,0.4l-0.4,0.4l-0.4-0.4
						c-0.4-0.4-1-0.6-1.6-0.6c-1.2,0-2.2,1-2.2,2.2c0,0.8,0.4,1.5,1.1,1.9l0.4,0.3l-0.2,0.5c-0.1,0.3-0.2,0.5-0.2,0.8
						c0,0.6,0.4,1.2,1,1.6l0.8,0.5L77.8,52c-0.6,0.3-0.9,0.8-0.9,1.4c0,0.7,0.6,1.3,1.5,1.6l1.2,0.4l-1,0.7
						c-0.6,0.4-0.9,0.9-0.9,1.4c0.1,0.9,1.2,1.7,2.6,1.6c0,0,0.1,0,0.1,0l0.8-0.1l0,0.7c0,1.2,1.4,2.2,3.1,2.2
						c0.9,0,1.8-0.3,2.4-0.9l0.2-0.2l0.3,0c0,0,0.1,0,0.1,0c0,0,0.1,0,0.1,0c0.6,0,1.2-0.2,1.7-0.5L89.9,59.7z"/>
				</g>
				<g>
					<path class="st10" d="M79.3,58.5c0.6,1.1,1.8,1.9,3.2,1.9c0.9,0,1.6-0.3,2.3-0.8c0.4,0.1,0.8,0.2,1.3,0.2
						c1.7,0,3.1-0.8,3.1-1.8c0-1-1.3-1.8-2.9-1.8c0.7-0.5,1.2-1.4,1.2-2.5c0,0,0,0,0,0c1.9,0,3.5-1,3.5-2.3c0-1.3-1.6-2.3-3.5-2.3
						c-0.1,0-0.1,0-0.2,0c0,0,0,0,0,0c0-0.6-0.4-1.1-1-1.6c0.6-0.4,1-1,1-1.6c0-1.3-1.5-2.3-3.4-2.3c-1.6,0-2.8,0.7-3.2,1.7"/>
				</g>
				<g>
					<path class="st1" d="M91.7,64.3c-1.4,0-2.6-1.1-2.9-2.6c-0.5,0.2-1.1,0.3-1.6,0.3c-0.8,0.7-1.9,1-3,1c-2.1,0-3.8-1.2-4.2-2.8
						c-1.9,0-3.4-1.2-3.5-2.7c0-0.6,0.2-1.3,0.6-1.8c-0.9-0.5-1.4-1.4-1.4-2.3c0-0.7,0.3-1.4,0.9-1.9c-0.6-0.6-0.9-1.3-0.9-2.1
						c0-0.3,0-0.6,0.1-0.9c-0.8-0.6-1.2-1.6-1.2-2.6c0-1.9,1.5-3.4,3.4-3.4c0.7,0,1.3,0.2,1.9,0.6c0-0.1,0-0.2,0-0.2
						c0-1.6,1.5-2.9,3.2-2.9c0.9,0,1.8,0.3,2.4,0.9c0.1,0,0.2,0,0.3,0c1,0,2,0.4,2.7,1.1c0.4-0.1,0.9-0.2,1.3-0.2
						c2,0,3.5,1.1,3.5,2.5c0,0.1,0,0.3-0.1,0.4c1.4,0.3,2.5,1.4,2.6,2.7c0,0.4,0,0.9-0.2,1.3c1.6,0.6,2.6,2,2.6,3.6
						c0,1.3-0.7,2.5-1.9,3.2c0.2,0.4,0.4,0.9,0.4,1.3c0,1.2-0.9,2.3-2.2,2.9c0.1,0.4,0.2,0.7,0.2,1.1C94.7,62.7,93.4,64.3,91.7,64.3
						z M89.9,59.7l0,1.1c0,1.3,0.8,2.3,1.9,2.3c1,0,1.9-1.1,1.9-2.4c0-0.4-0.1-0.8-0.3-1.2L93,58.9l0.7-0.2c1.2-0.3,2-1.1,2-1.9
						c0-0.5-0.3-0.9-0.5-1.1l-0.6-0.6l0.8-0.3c1.1-0.5,1.8-1.4,1.8-2.5c0-1.2-1-2.3-2.5-2.7l-0.9-0.2l0.5-0.7
						c0.2-0.3,0.4-0.7,0.4-1.2c-0.1-1-1.1-1.7-2.3-1.7l-1.2,0l0.7-0.9c0.1-0.2,0.2-0.4,0.2-0.5c0-0.6-1-1.3-2.3-1.3
						c-0.4,0-0.9,0.1-1.3,0.2l-0.4,0.2L87.9,43c-0.6-0.7-1.3-1-2.1-1c-0.1,0-0.2,0-0.4,0l-0.3,0.1l-0.3-0.3c-0.4-0.5-1-0.8-1.7-0.8
						c-1.1,0-2.1,0.8-2.1,1.8c0,0.1,0,0.2,0.1,0.4l0.1,0.4l-0.4,0.2c-0.2,0.1-0.3,0.2-0.4,0.4l-0.4,0.4l-0.4-0.4
						c-0.4-0.4-1-0.6-1.6-0.6c-1.2,0-2.2,1-2.2,2.2c0,0.8,0.4,1.5,1.1,1.9l0.4,0.3l-0.2,0.5c-0.1,0.3-0.2,0.5-0.2,0.8
						c0,0.6,0.4,1.2,1,1.6l0.8,0.5L77.8,52c-0.6,0.3-0.9,0.8-0.9,1.4c0,0.7,0.6,1.3,1.5,1.6l1.2,0.4l-1,0.7
						c-0.6,0.4-0.9,0.9-0.9,1.4c0.1,0.9,1.2,1.7,2.6,1.6c0,0,0.1,0,0.1,0l0.8-0.1l0,0.7c0,1.2,1.4,2.2,3.1,2.2
						c0.9,0,1.8-0.3,2.4-0.9l0.2-0.2l0.3,0c0,0,0.1,0,0.1,0c0,0,0.1,0,0.1,0c0.6,0,1.2-0.2,1.7-0.5L89.9,59.7z"/>
				</g>
			</g>
			<g>
				<g>
					<path class="st11" d="M88.9,50.3c0-1.3-1.6-2.3-3.5-2.3c-0.1,0-0.1,0-0.2,0c0,0,0,0,0,0c0-0.6-0.4-1.1-1-1.6c0.6-0.4,1-1,1-1.6
						c0-1.3-1.5-2.3-3.4-2.3c-1.6,0-2.8,0.7-3.2,1.7c0,0,0,0-0.1,0c-0.3-0.6-0.8-1.2-1.3-1.5c0.1-0.3,0.2-0.6,0.2-0.9
						c0-1.8-1.9-3.3-4.2-3.3c-0.5,0-1.1,0.1-1.6,0.2C71.4,37.2,70,36,68.4,36c-1.8,0-3.2,1.4-3.2,3.2c0,0.1,0,0.2,0,0.4
						c-0.5,0.1-0.9,0.2-1.3,0.4c0-0.3,0.1-0.6,0.1-0.9c0-2.5-1.6-4.5-3.6-4.5c-1.2,0-2.3,0.8-3,1.9c-0.6-0.2-1.3-0.4-2.1-0.4
						c0.3-0.6,0.5-1.3,0.5-2c0-2.2-1.6-3.9-3.6-3.9c-1.5,0-2.8,2.5-3.4,3.7c-0.1,0.2-0.4,0.2-0.5,0c-0.7-1.3-1.8-2.1-3.2-2.1
						c-2.1,0-3.8,2.1-3.8,4.6c0,0.2,0,0.3,0,0.5C40.8,36.3,39.9,36,39,36c-0.8,0-1.6,0.2-2.3,0.6c-0.2-2-1.5-3.5-3.2-3.5
						c-1.8,0-3.2,1.7-3.2,3.9c0,0.4,0.1,0.7,0.1,1c-0.7-0.4-1.4-0.6-2.3-0.6c-2.3,0-4.1,1.7-4.1,3.9c0,0.9,0.3,1.6,0.8,2.3
						c-0.5,0.2-1,0.6-1.4,1c-0.5-0.1-1-0.2-1.6-0.2c-2.8,0-5.1,1.5-5.1,3.3c0,1,0.7,1.9,1.8,2.5c-0.4,0.4-0.6,0.9-0.6,1.4
						c0,0.8,0.6,1.5,1.4,2c-0.5,0.6-0.8,1.2-0.8,2c0,0.5,0.2,1,0.4,1.4c-0.6,0.7-1,1.6-1,2.6c0,2.2,1.9,4.1,4.3,4.1
						c0.3,0,0.6,0,0.9-0.1c0.8,1.6,2.2,2.6,3.7,2.6c2.2,0,4.1-2.1,4.6-5c0.3,0.1,0.6,0.1,1,0.1c0.5,1.3,2.7,2.4,5.4,2.4
						c3,0,5.5-1.3,5.5-2.9c0,0,0,0,0,0c0.8-0.4,1.4-1,1.8-1.7c0.8,0.5,2,0.8,3.3,0.8c2.5,0,4.5-1.2,4.5-2.6c0-0.1,0-0.2-0.1-0.4
						c0.2,0,0.3,0,0.5,0c0.4,0,0.9-0.1,1.3-0.1c-0.1,0.3-0.2,0.6-0.2,0.9c0,1.4,1.5,2.6,3.4,2.6c0.5,0,1-0.1,1.4-0.3
						c0.1,1.7,1.6,3,3.3,3c0.8,0,1.4-0.2,2-0.6c0.4,0.4,0.9,0.6,1.4,0.6c1.2,0,2.2-1.2,2.2-2.7c0-0.2,0-0.5-0.1-0.7
						c0.4,0.1,0.8,0.2,1.2,0.2c1.6,0,3-1.1,3.3-2.5c0.7,0.3,1.6,0.5,2.6,0.5c0.8,0,1.6-0.1,2.2-0.4c0.6,1.1,1.8,1.9,3.2,1.9
						c0.9,0,1.6-0.3,2.3-0.8c0.4,0.1,0.8,0.2,1.3,0.2c1.7,0,3.1-0.8,3.1-1.8c0-1-1.3-1.8-2.9-1.8c0.7-0.5,1.2-1.4,1.2-2.5
						c0,0,0,0,0,0C87.4,52.5,88.9,51.5,88.9,50.3z"/>
					<path class="st1" d="M26.9,66.8c-1.6,0-3.1-0.9-4-2.6c-0.2,0-0.4,0-0.6,0c-2.7,0-4.8-2.1-4.8-4.6c0-1,0.3-1.9,0.9-2.7
						c-0.2-0.4-0.3-0.9-0.3-1.4c0-0.7,0.2-1.3,0.6-1.8c-0.7-0.6-1.2-1.4-1.2-2.2c0-0.4,0.1-0.8,0.3-1.2c-1-0.7-1.5-1.7-1.5-2.7
						c0-2.2,2.5-3.9,5.6-3.9c0.5,0,0.9,0,1.4,0.1c0.2-0.2,0.5-0.4,0.7-0.6c-0.4-0.6-0.5-1.3-0.5-2.1c0-2.5,2.1-4.5,4.7-4.5
						c0.5,0,1.1,0.1,1.6,0.3c0,0,0,0,0-0.1c0-2.5,1.7-4.5,3.8-4.5c1.7,0,3.2,1.3,3.6,3.2c1.2-0.5,2.5-0.5,3.7,0
						c0.2-2.6,2.1-4.7,4.4-4.7c1.3,0,2.6,0.7,3.4,1.9c0.6-1.4,1.9-3.5,3.6-3.5c2.3,0,4.2,2,4.2,4.5c0,0.5-0.1,1-0.3,1.5
						c0.3,0.1,0.6,0.1,1,0.2c0.8-1.1,2-1.8,3.2-1.8c2.3,0,4.2,2.3,4.2,5.1c0,0,0,0,0,0c0,0,0,0,0,0c0-2,1.7-3.7,3.8-3.7
						c1.7,0,3.1,1.1,3.6,2.6c0.4-0.1,0.7-0.1,1.1-0.1c2.7,0,4.8,1.8,4.8,3.9c0,0.2,0,0.4-0.1,0.7c0.3,0.2,0.5,0.5,0.7,0.7
						c0.7-0.8,1.9-1.3,3.3-1.3c2.2,0,4,1.3,4,2.9c0,0.6-0.2,1.1-0.7,1.6c0.3,0.3,0.5,0.6,0.6,1c2.1,0.1,3.8,1.3,3.8,2.8
						c0,1.4-1.5,2.6-3.5,2.8c-0.1,0.6-0.3,1.1-0.6,1.6c1.4,0.4,2.3,1.2,2.3,2.2c0,1.4-1.6,2.4-3.7,2.4c-0.4,0-0.8,0-1.2-0.1
						c-0.7,0.5-1.5,0.8-2.4,0.8c-1.4,0-2.7-0.7-3.4-1.8c-1.4,0.4-2.9,0.3-4.2-0.1c-0.6,1.5-2.3,2.5-4.2,2.3c0,1.8-1.3,3.2-2.8,3.2
						c-0.5,0-1-0.2-1.5-0.5c-0.6,0.3-1.3,0.5-1.9,0.5c-1.8,0-3.4-1.2-3.8-2.8c-0.3,0.1-0.7,0.1-1,0.1c-2.2,0-4-1.4-4-3.2
						c0-0.1,0-0.1,0-0.2c-0.1,0-0.2,0-0.3,0c-0.2,1.7-2.4,3-5.1,3c-1.1,0-2.2-0.2-3.1-0.6c-0.4,0.5-0.8,0.9-1.4,1.3
						c-0.3,1.8-2.8,3.2-6,3.2c-2.7,0-5-1-5.8-2.4c0,0-0.1,0-0.1,0C31.3,64.8,29.3,66.8,26.9,66.8z M23.5,63l0.2,0.4
						c0.8,1.5,2,2.3,3.2,2.3c1.9,0,3.6-1.9,4-4.5l0.1-0.6l0.6,0.1c0.3,0.1,0.6,0.1,0.9,0.1l0.4,0l0.1,0.3c0.4,1,2.2,2,4.8,2
						c2.8,0,4.8-1.2,4.9-2.3l0-0.4l0.3-0.2c0.7-0.4,1.2-0.9,1.5-1.4l0.3-0.6l0.5,0.3c0.8,0.5,1.8,0.7,3,0.7c2.3,0,3.9-1.1,3.9-2
						c0,0,0-0.1,0-0.2L52,56.3l0.9,0c0.5,0,1,0,1.5-0.1l1.2-0.3l-0.5,1.1c-0.1,0.2-0.2,0.4-0.2,0.7c0,1.1,1.3,2,2.8,2
						c0.4,0,0.8-0.1,1.3-0.2l0.7-0.3l0.1,0.8c0.1,1.4,1.3,2.4,2.8,2.4c0.6,0,1.2-0.2,1.7-0.5l0.4-0.3l0.3,0.4c0.2,0.2,0.6,0.5,1,0.5
						c0.9,0,1.6-0.9,1.6-2.1c0-0.2,0-0.4-0.1-0.6l-0.2-1l1,0.3c1.7,0.6,3.4-0.4,3.7-1.8l0.1-0.7l0.7,0.3c1.3,0.6,3,0.7,4.4,0.1
						l0.5-0.2l0.2,0.5c0.5,1,1.5,1.6,2.6,1.6c0.7,0,1.4-0.2,1.9-0.7l0.2-0.2l0.3,0.1c0.4,0.1,0.8,0.2,1.1,0.2c1.4,0,2.5-0.7,2.5-1.3
						c0-0.6-1-1.2-2.4-1.3l-1.8-0.1l1.5-1c0.6-0.4,1-1.2,1-2.1V52l0.6,0c1.6,0,2.9-0.8,2.9-1.7c0-0.9-1.4-1.7-3-1.7
						c-0.1,0-0.1,0-0.1,0l-0.6,0V48c0-0.4-0.4-0.8-0.7-1l-0.7-0.5l0.7-0.5c0.3-0.2,0.7-0.6,0.7-1.1c0-0.9-1.3-1.7-2.8-1.7
						c-1.3,0-2.4,0.6-2.7,1.3L79,44.8l-0.8,0L78,44.5c-0.3-0.5-0.7-1-1.1-1.3L76.5,43l0.2-0.5c0.1-0.3,0.1-0.5,0.1-0.7
						c0-1.5-1.6-2.8-3.7-2.8c-0.5,0-0.9,0.1-1.4,0.2l-0.7,0.2L71,38.8c-0.2-1.3-1.3-2.2-2.6-2.2c-1.5,0-2.6,1.2-2.6,2.6
						c0,0.1,0,0.1,0,0.2l0.1,0.6l-0.5,0.1c-0.4,0.1-0.8,0.2-1.2,0.4l-1,0.4l0.2-1.1c0-0.3,0.1-0.5,0.1-0.8c0-2.2-1.4-3.9-3-3.9
						c-1,0-1.9,0.6-2.4,1.6l-0.2,0.4L57.2,37c-0.6-0.2-1.2-0.4-1.9-0.4l-0.9-0.1l0.4-0.8c0.3-0.5,0.5-1.1,0.5-1.7
						c0-1.8-1.4-3.3-3-3.3c-1,0-2.1,1.7-2.8,3.3c-0.1,0.3-0.4,0.5-0.7,0.5c-0.3,0-0.6-0.2-0.8-0.5c-0.6-1.1-1.6-1.8-2.7-1.8
						c-1.8,0-3.2,1.8-3.2,4c0,0.1,0,0.2,0,0.3l0.1,1.4l-1-0.7c-1.2-0.9-2.8-0.9-4.1-0.1l-0.8,0.5l-0.1-0.9c-0.1-1.7-1.3-3-2.6-3
						c-1.5,0-2.6,1.5-2.6,3.3c0,0.3,0,0.6,0.1,0.9l0.3,1.4l-1.2-0.7c-0.6-0.4-1.3-0.6-2-0.6c-2,0-3.6,1.5-3.6,3.3
						c0,0.7,0.2,1.4,0.7,1.9l0.5,0.6l-0.7,0.3c-0.4,0.2-0.8,0.5-1.2,0.8l-0.2,0.3l-0.3-0.1c-0.5-0.1-1-0.2-1.5-0.2
						c-2.4,0-4.5,1.3-4.5,2.7c0,0.7,0.5,1.5,1.5,2l0.6,0.4L19,50.6c-0.3,0.3-0.4,0.7-0.4,1c0,0.6,0.4,1.1,1.1,1.5l0.6,0.4l-0.5,0.5
						c-0.3,0.3-0.7,0.9-0.7,1.6c0,0.4,0.1,0.8,0.3,1.1l0.2,0.4l-0.3,0.3c-0.6,0.6-0.9,1.4-0.9,2.2c0,1.9,1.6,3.5,3.7,3.5
						c0.3,0,0.5,0,0.8-0.1L23.5,63z"/>
				</g>
				<g>
					<path class="st12" d="M77.1,49.3c0-0.7-1.1-1.2-2.4-1.2c0,0-0.1,0-0.1,0c0,0,0,0,0,0c0-0.3-0.2-0.6-0.6-0.8
						c0.4-0.2,0.6-0.5,0.6-0.8c0-0.7-1-1.2-2.3-1.2c-1,0-1.9,0.4-2.2,0.9c0,0,0,0-0.1,0c-0.2-0.3-0.5-0.6-0.9-0.8
						c0.1-0.2,0.1-0.3,0.1-0.5c0-1-1.3-1.7-2.9-1.7c-0.4,0-0.7,0-1,0.1c-0.1-0.8-1-1.4-2.1-1.4c-1.2,0-2.2,0.7-2.2,1.7
						c0,0.1,0,0.1,0,0.2c-0.3,0.1-0.6,0.1-0.9,0.2c0-0.2,0-0.3,0-0.5c0-1.3-1.1-2.4-2.4-2.4c-0.8,0-1.5,0.4-2,1
						c-0.4-0.1-0.9-0.2-1.4-0.2c0.2-0.3,0.4-0.7,0.4-1.1c0-1.1-1.1-2.1-2.4-2.1c-1,0-1.9,1.3-2.3,1.9c-0.1,0.1-0.3,0.1-0.3,0
						c-0.5-0.7-1.2-1.1-2.1-1.1c-1.4,0-2.6,1.1-2.6,2.4c0,0.1,0,0.2,0,0.3c-0.5-0.3-1-0.4-1.7-0.4c-0.6,0-1.1,0.1-1.5,0.3
						c-0.1-1-1-1.8-2.1-1.8c-1.2,0-2.2,0.9-2.2,2c0,0.2,0,0.4,0.1,0.5c-0.4-0.2-1-0.3-1.5-0.3c-1.5,0-2.8,0.9-2.8,2
						c0,0.4,0.2,0.9,0.5,1.2c-0.4,0.1-0.7,0.3-0.9,0.5c-0.3-0.1-0.7-0.1-1.1-0.1c-1.9,0-3.4,0.8-3.4,1.7c0,0.5,0.5,1,1.2,1.3
						c-0.2,0.2-0.4,0.5-0.4,0.7c0,0.4,0.4,0.8,0.9,1.1c-0.3,0.3-0.6,0.6-0.6,1c0,0.3,0.1,0.5,0.3,0.8c-0.4,0.4-0.7,0.8-0.7,1.4
						c0,1.2,1.3,2.1,2.9,2.1c0.2,0,0.4,0,0.6-0.1c0.6,0.8,1.5,1.4,2.5,1.4c1.5,0,2.8-1.1,3.1-2.6c0.2,0,0.4,0.1,0.6,0.1
						c0.3,0.7,1.8,1.2,3.6,1.2c2,0,3.7-0.7,3.7-1.5c0,0,0,0,0,0c0.5-0.2,1-0.5,1.2-0.9c0.6,0.3,1.3,0.4,2.2,0.4c1.7,0,3-0.6,3-1.4
						c0-0.1,0-0.1,0-0.2c0.1,0,0.2,0,0.3,0c0.3,0,0.6,0,0.9-0.1c-0.1,0.1-0.2,0.3-0.2,0.5c0,0.7,1,1.4,2.3,1.4c0.3,0,0.7-0.1,1-0.1
						c0.1,0.9,1,1.6,2.2,1.6c0.5,0,1-0.1,1.3-0.3c0.3,0.2,0.6,0.3,1,0.3c0.8,0,1.5-0.6,1.5-1.4c0-0.1,0-0.3-0.1-0.4
						c0.2,0.1,0.5,0.1,0.8,0.1c1.1,0,2-0.6,2.2-1.3c0.5,0.2,1.1,0.3,1.8,0.3c0.5,0,1-0.1,1.5-0.2c0.4,0.6,1.2,1,2.1,1
						c0.6,0,1.1-0.2,1.5-0.4c0.3,0.1,0.6,0.1,0.9,0.1c1.2,0,2.1-0.4,2.1-1c0-0.5-0.9-0.9-2-1c0.5-0.3,0.8-0.7,0.8-1.3c0,0,0,0,0,0
						C76,50.5,77.1,49.9,77.1,49.3z"/>
				</g>
			</g>
		</g>
	</g>
</g>
</svg>
