<?xml version="1.0" encoding="utf-8"?>
<!-- Generator: Adobe Illustrator 24.2.3, SVG Export Plug-In . SVG Version: 6.00 Build 0)  -->
<svg version="1.1" id="Lag_1" xmlns="http://www.w3.org/2000/svg" xmlns:xlink="http://www.w3.org/1999/xlink" x="0px" y="0px"
	 viewBox="0 0 74 74" style="enable-background:new 0 0 74 74;" xml:space="preserve">
<style type="text/css">
	.st0{fill:#C6A877;}
	.st1{fill:#110B09;}
	.st2{fill:#EADCC7;}
	.st3{fill:#AA926F;}
	.st4{fill:#223B3F;}
	.st5{fill:#325356;}
	.st6{fill:#466E70;}
	.st7{opacity:0.83;clip-path:url(#SVGID_2_);}
	.st8{fill:#81DAEF;}
</style>
<g>
	<g>
		<polygon class="st0" points="62.3,62 36.7,72.1 11.7,62 1.7,37 11.7,11.5 37,1.9 62.3,11.5 72.3,37 		"/>
		<path class="st1" d="M36.7,72.6l-0.2-0.1L11.4,62.4L1.1,37l10.2-25.9L37,1.4l25.6,9.7L72.9,37L62.6,62.4L36.7,72.6z M12.1,61.6
			l24.6,9.9l25.2-9.9L71.8,37l-9.9-25.1L37,2.5l-24.9,9.4L2.2,37L12.1,61.6z M62.3,62L62.3,62L62.3,62z"/>
	</g>
	<g>
		<path class="st2" d="M66.6,27.4c-0.2,0-0.4-0.1-0.5-0.3l-0.9-2.4c-0.1-0.3,0-0.6,0.3-0.7s0.6,0,0.7,0.3l0.9,2.4
			c0.1,0.3,0,0.6-0.3,0.7C66.7,27.4,66.6,27.4,66.6,27.4z"/>
	</g>
	<g>
		<path class="st2" d="M63.8,20.5c-0.2,0-0.4-0.1-0.5-0.3L62,17c-0.1-0.3,0-0.6,0.3-0.7s0.6,0,0.7,0.3l1.3,3.2
			c0.1,0.3,0,0.6-0.3,0.7C63.9,20.4,63.9,20.5,63.8,20.5z"/>
	</g>
	<g>
		<path class="st2" d="M57.2,11.8c-0.1,0-0.1,0-0.2,0l-7.9-3c-0.3-0.1-0.4-0.4-0.3-0.6c0.1-0.3,0.4-0.4,0.6-0.3l7.9,3
			c0.3,0.1,0.4,0.4,0.3,0.6C57.6,11.7,57.4,11.8,57.2,11.8z"/>
	</g>
	<g>
		<path class="st2" d="M45.7,7.5c-0.1,0-0.1,0-0.2,0l-4.7-1.8c-0.3-0.1-0.4-0.4-0.3-0.6c0.1-0.3,0.4-0.4,0.6-0.3l4.7,1.8
			c0.3,0.1,0.4,0.4,0.3,0.6C46.1,7.4,45.9,7.5,45.7,7.5z"/>
	</g>
	<g>
		<polygon class="st3" points="59.8,59.6 36.7,68.7 14.2,59.6 5,37 14.2,13.9 37,5.3 59.8,13.9 69,37 		"/>
	</g>
	<g>
		<polygon class="st4" points="58.1,57.9 36.7,66.3 15.9,57.9 7.4,37 15.9,15.7 37,7.7 58.1,15.7 66.6,37 		"/>
	</g>
	<g>
		<polygon class="st5" points="56.7,56.5 36.8,64.4 17.3,56.5 9.4,37 17.3,17.1 37,9.6 56.7,17.1 64.6,37 		"/>
	</g>
	<g>
		<polygon class="st6" points="55.1,54.9 36.8,62.1 18.9,54.9 11.7,37 18.9,18.8 37,11.9 55.1,18.8 62.3,37 		"/>
	</g>
	<g>
		<defs>
			<polygon id="SVGID_1_" points="58.1,57.9 36.7,66.3 15.9,57.9 7.4,37 15.9,15.7 37,7.7 58.1,15.7 66.6,37 			"/>
		</defs>
		<clipPath id="SVGID_2_">
			<use xlink:href="#SVGID_1_"  style="overflow:visible;"/>
		</clipPath>
		<g class="st7">
			<path class="st8" d="M31,49.4c-0.6-0.1-1.2-0.3-1.7-0.8c-0.3-0.4-0.6-0.9-0.8-1.4c-0.1-0.5-0.2-1-0.3-1.5
				c-0.1-1.3,0.1-2.4,0.3-3.6l0,0c0.1-0.3,0.1-0.3-0.3-0.4c-1.3-0.4-2.5-0.9-3.5-1.7c-0.6-0.4-1.1-0.9-1.5-1.5
				c-0.3-0.5-0.5-1-0.5-1.6c0-0.6,0.2-1,0.6-1.5c0.5-0.7,1.2-1.2,1.9-1.7c1-0.6,2.2-1,3.3-1.4c0.1,0,0.1-0.1,0.1-0.1
				c-0.1-0.6-0.3-1.1-0.3-1.7c-0.1-0.4-0.1-0.8-0.1-1.2c0-0.4,0-0.9,0-1.3c0.1-0.8,0.3-1.6,0.8-2.3c0.4-0.6,1-1,1.7-1
				c0.7-0.1,1.3,0.1,1.9,0.3c1,0.3,1.9,0.9,2.7,1.6c0.4,0.3,0.8,0.7,1.3,1c0.1,0.1,0.1,0.1,0.2,0c0.8-0.8,1.8-1.5,2.9-2.2
				c0.7-0.4,1.4-0.7,2.2-0.8c0.7-0.1,1.4,0,2,0.4c0.4,0.3,0.8,0.8,0.9,1.3c0.2,0.5,0.3,1,0.3,1.6c0.1,0.4,0.1,0.8,0.1,1.2
				c0,0.9-0.1,1.8-0.3,2.6c0,0.1-0.1,0.2-0.1,0.3c0,0.1,0,0.1,0.1,0.1c1,0.3,1.9,0.6,2.8,1.1c0.8,0.4,1.5,0.8,2,1.5
				c0.4,0.5,0.8,1,0.9,1.7c0.1,0.6-0.1,1-0.3,1.5c-0.4,0.7-1,1.2-1.6,1.7c-0.9,0.6-1.8,1-2.9,1.5c-0.3,0.1-0.6,0.2-0.9,0.3
				c-0.1,0-0.1,0.1-0.1,0.1c0.1,0.7,0.3,1.4,0.3,2.1c0.1,1.1,0.1,2.2-0.2,3.3c-0.1,0.6-0.4,1.2-0.9,1.6c-0.4,0.3-0.8,0.6-1.4,0.6
				h-0.1c-0.2,0-0.4,0-0.6,0c-0.1-0.1-0.1,0-0.2,0c-0.6-0.1-1.3-0.3-1.8-0.6c-1.2-0.6-2.2-1.4-3.1-2.3c-0.1-0.1-0.1-0.1-0.3,0
				c-0.1,0.1-0.1,0.1-0.1,0.1c-0.7,0.6-1.4,1.2-2.2,1.7C33.4,48.9,32.3,49.4,31,49.4z M36.9,41.5c0.8,0,1.6,0,2.4-0.1
				c0.1,0,0.1-0.1,0.2-0.1c0.9-1.3,1.7-2.8,2.4-4.2c0-0.1,0-0.1,0-0.2c-0.7-1.5-1.5-2.8-2.4-4.2c-0.1-0.1-0.1-0.1-0.3-0.1
				c-0.5,0-0.9-0.1-1.4-0.1c-1.1,0-2.2,0-3.4,0.1c-0.1,0-0.2,0.1-0.2,0.1c-0.9,1.3-1.7,2.7-2.4,4.2c0,0.1,0,0.1,0,0.2
				c0.3,0.6,0.6,1.3,1,1.9c0.5,0.8,1,1.6,1.5,2.4c0,0.1,0.1,0.1,0.1,0.1c0.2,0,0.4,0,0.7,0.1C35.7,41.5,36.3,41.5,36.9,41.5z
				 M29.1,40.6c0.1,0,0.1-0.1,0.1-0.1c0.3-1.1,0.8-2.3,1.3-3.3c0-0.1,0-0.1,0-0.1c-0.5-1.1-0.9-2.2-1.3-3.3c0-0.1-0.1-0.1-0.1-0.1
				c-0.4,0.1-0.8,0.3-1.3,0.4c-1,0.4-1.9,0.8-2.7,1.5c-0.3,0.3-0.6,0.6-0.8,0.9c-0.1,0.2-0.1,0.4-0.1,0.7c0.1,0.6,0.5,1.1,1,1.5
				c1,0.8,2.1,1.3,3.3,1.7C28.7,40.4,28.9,40.5,29.1,40.6z M31.4,48.1c0.3,0,0.6-0.1,0.9-0.1c0.6-0.2,1-0.5,1.6-0.8
				c0.8-0.5,1.5-1,2.2-1.7c0.1-0.1,0.1-0.1,0-0.1c-0.1-0.1-0.2-0.2-0.3-0.3c-0.7-0.8-1.4-1.6-2-2.5c0-0.1-0.1-0.1-0.1-0.1
				c-0.3,0-0.7-0.1-1-0.1c-0.8-0.1-1.5-0.2-2.3-0.3c-0.1,0-0.2-0.1-0.3-0.1c-0.1,0-0.1,0.1-0.1,0.2c-0.2,0.9-0.3,1.7-0.3,2.6
				c0,0.4,0,0.8,0.1,1.2c0.1,0.4,0.1,0.8,0.3,1.3c0.1,0.3,0.3,0.6,0.7,0.6C30.9,48.1,31.1,48.2,31.4,48.1z M44.3,44.8
				c0-0.1,0-0.3,0-0.4c0-0.8-0.1-1.5-0.3-2.4c0-0.1-0.1-0.1-0.1-0.1c-0.5,0.1-1,0.2-1.5,0.3c-0.7,0.1-1.3,0.2-2,0.3
				c-0.1,0-0.1,0.1-0.2,0.1c-0.1,0.2-0.3,0.5-0.5,0.7c-0.6,0.7-1.1,1.5-1.7,2.1c-0.1,0.1-0.1,0.1,0,0.1c0.3,0.2,0.5,0.5,0.8,0.7
				c0.8,0.6,1.6,1.2,2.5,1.6c0.5,0.2,1,0.3,1.5,0.3c0.3,0,0.5-0.1,0.7-0.2c0.4-0.3,0.6-0.8,0.8-1.3C44.2,46.1,44.3,45.5,44.3,44.8z
				 M29.6,29c0,0.1,0,0.3,0,0.6c0.1,0.8,0.2,1.6,0.4,2.4c0,0.1,0.1,0.1,0.1,0.1c1.1-0.3,2.2-0.4,3.4-0.6c0.1,0,0.3-0.1,0.3-0.2
				c0.4-0.6,0.8-1.1,1.3-1.6c0.3-0.3,0.6-0.7,0.9-1c0.1-0.1,0.1-0.1,0-0.1c-0.6-0.6-1.3-1.2-2.1-1.7c-0.8-0.5-1.6-0.9-2.5-1
				c-0.6-0.1-1,0.1-1.4,0.6c-0.1,0.2-0.2,0.4-0.3,0.6C29.6,27.7,29.5,28.3,29.6,29z M44.2,28.9c0-0.3,0-0.7-0.1-1
				c-0.1-0.5-0.2-1-0.4-1.4c-0.2-0.3-0.5-0.6-1-0.7c-0.3-0.1-0.6,0-0.9,0.1c-0.8,0.2-1.5,0.6-2.2,1.1c-0.7,0.4-1.3,1-1.9,1.5
				c-0.1,0.1-0.1,0.1,0,0.1c0.3,0.3,0.6,0.6,0.8,1c0.5,0.6,1,1.2,1.4,1.8c0.1,0.1,0.1,0.1,0.1,0.1c0.3,0,0.6,0.1,1,0.1
				c0.8,0.1,1.7,0.3,2.6,0.4c0.1,0,0.1,0,0.1-0.1C44.1,31,44.2,30,44.2,28.9z M49.6,37c0-0.3-0.1-0.6-0.3-0.8
				c-0.3-0.5-0.7-0.8-1.2-1.1c-1-0.7-2.2-1.2-3.4-1.5c-0.1,0-0.1,0-0.1,0.1c-0.3,1.1-0.8,2.2-1.3,3.3c0,0.1,0,0.1,0,0.2
				c0.5,1,1,2.2,1.3,3.3c0.1,0.1,0.1,0.1,0.2,0.1c0.9-0.3,1.9-0.6,2.7-1.1c0.6-0.3,1.2-0.8,1.6-1.3C49.4,37.7,49.6,37.4,49.6,37z
				 M40.9,41.3c0.1,0,0.2,0,0.3,0c0.8-0.1,1.5-0.2,2.2-0.3c0.1,0,0.1-0.1,0.1-0.1c-0.2-0.7-0.5-1.5-0.8-2.1c0-0.1-0.1-0.1-0.1-0.1
				C42.1,39.4,41.6,40.3,40.9,41.3z M38.6,42.6c-1.1,0.1-2.2,0.1-3.3,0l0,0c0.5,0.6,1,1.3,1.6,1.9c0.1,0.1,0.1,0.1,0.1,0
				c0.3-0.4,0.8-0.8,1.1-1.3C38.3,43.1,38.4,42.9,38.6,42.6z M31.2,38.4C31.2,38.5,31.2,38.5,31.2,38.4c-0.3,0.8-0.6,1.6-0.9,2.4
				c0,0.1,0,0.1,0.1,0.1c0.7,0.1,1.4,0.3,2.1,0.3c0.1,0,0.2,0.1,0.3,0C32.2,40.4,31.8,39.4,31.2,38.4z M35.3,31.4
				c1.1-0.1,2.2-0.1,3.3,0c0-0.1,0-0.1-0.1-0.1c-0.5-0.6-1-1.3-1.5-1.8c-0.1-0.1-0.1-0.1-0.1,0c-0.3,0.3-0.6,0.6-0.8,0.9
				C35.8,30.7,35.5,31,35.3,31.4z M42.6,35.6C42.6,35.6,42.6,35.6,42.6,35.6c0.3-0.8,0.6-1.5,0.8-2.3c0-0.1,0-0.1-0.1-0.1
				c-0.6-0.1-1.3-0.3-1.9-0.3c-0.1,0-0.3-0.1-0.5-0.1C41.6,33.7,42.1,34.6,42.6,35.6z M31.2,35.6c0.5-1,1-1.9,1.7-2.9
				c-0.4,0.1-0.8,0.1-1.2,0.1c-0.4,0.1-0.8,0.1-1.3,0.2c-0.1,0-0.1,0.1-0.1,0.1c0.1,0.1,0.1,0.2,0.1,0.3
				C30.6,34.3,30.9,34.9,31.2,35.6z"/>
			<path class="st8" d="M36.9,39.4c-1.3,0-2.5-1-2.5-2.5c0-1.4,1.2-2.5,2.5-2.4c1.3,0,2.5,1,2.4,2.5C39.4,38.4,38.2,39.5,36.9,39.4z
				"/>
		</g>
	</g>
	<path class="st1" d="M36.7,66.9l-0.2-0.1l-21.1-8.5L6.9,37l8.6-21.7L37,7.1l21.5,8.1L67.1,37l-8.6,21.3L36.7,66.9z M16.3,57.5
		l20.5,8.3l21-8.3L66,37l-8.3-20.9L37,8.2l-20.7,7.9L8,37L16.3,57.5z M58.1,57.9L58.1,57.9L58.1,57.9z"/>
</g>
</svg>
