<?xml version="1.0" encoding="utf-8"?>
<!-- Generator: Adobe Illustrator 24.2.3, SVG Export Plug-In . SVG Version: 6.00 Build 0)  -->
<svg version="1.1" id="Lag_1" xmlns="http://www.w3.org/2000/svg" xmlns:xlink="http://www.w3.org/1999/xlink" x="0px" y="0px"
	 viewBox="0 0 64.4 124" style="enable-background:new 0 0 64.4 124;" xml:space="preserve">
<style type="text/css">
	.st0{fill:#845338;}
	.st1{fill:#2D2521;}
	.st2{fill:#C69047;}
	.st3{fill:#F9D3A5;}
	.st4{fill:#8E8A88;}
	.st5{fill:#A3A2A2;}
	.st6{fill:#AFA0AE;}
	.st7{fill:#110B09;}
	.st8{fill:#938A93;}
	.st9{fill:#D6CCD6;}
	.st10{fill:#C1B4C1;}
	.st11{fill:#A59BA5;}
	.st12{fill:#D1C7D1;}
	.st13{fill:#EFE6EF;}
	.st14{fill:#DBC8DA;}
	.st15{fill:#C6B9C6;}
	.st16{fill:#E5D8E5;}
	.st17{fill:#F9F4F9;}
	.st18{fill:#D0CCDD;}
	.st19{fill:#DAD8E5;}
	.st20{fill:#E0DFEA;}
	.st21{opacity:0.59;}
</style>
<g>
	<g>
		<g>
			<g>
				<g>
					<path class="st0" d="M32.3,122.2L32.3,122.2c-1.3,0-2.4-1.1-2.4-2.4l0-110.1c0-1.3,1.1-2.4,2.4-2.4h0c1.3,0,2.4,1.1,2.4,2.4
						l0,110.1C34.7,121.1,33.6,122.2,32.3,122.2z"/>
					<path class="st1" d="M32.3,122.6c-1.6,0-2.9-1.3-2.9-2.9V9.7c0-1.6,1.3-2.9,2.9-2.9s2.9,1.3,2.9,2.9v110.1
						C35.2,121.3,33.9,122.6,32.3,122.6z M32.3,7.7c-1.1,0-2,0.9-2,2v110.1c0,1.1,0.9,2,2,2c1.1,0,2-0.9,2-2V9.7
						C34.3,8.6,33.4,7.7,32.3,7.7z"/>
				</g>
				<g>
					<g>
						<g>
							<path class="st1" d="M30.9,109.2l0.5-2.7c0.3-1.3,0.2-2.7-0.3-4l-0.4-1.2c-0.5-1.6-0.5-3.3,0.1-4.9c0.6-1.6,0.7-3.3,0.3-4.9
								l-0.7-2.8c-0.3-1.3-0.3-2.7,0.1-3.9l1.8-5.6c0.7-2.1,0.4-4.4-0.7-6.3l-1.2-2.1c-0.2-0.3-0.4-0.7-0.5-1.1v1.7l1.1,1.9
								c1,1.7,1.2,3.8,0.6,5.6l-1.7,5.4v5.4l0.5,2c0.4,1.4,0.3,3-0.3,4.4c-0.1,0.3-0.2,0.6-0.3,0.8v4.1c0,0.2,0.1,0.3,0.1,0.5
								l0.4,1.2c0.4,1.2,0.5,2.4,0.2,3.6l-0.5,2.7c-0.2,1-0.2,1.9,0,2.9l1.8,10.2c0.1,0,0.3,0,0.4,0c0.1,0,0.3,0,0.4,0l-1.8-10.4
								C30.7,110.9,30.7,110,30.9,109.2z"/>
						</g>
						<g>
							<path class="st1" d="M29.9,24.6c0.7,1.5,0.9,3.2,0.4,4.9l-0.4,1.6v8.2l1.3,9.5c0.1,0.7,0.1,1.4,0,2.1l-1.3,8.3l0,4.8l2.1-13
								c0.1-0.8,0.1-1.6,0-2.4l-1.9-13.2c-0.1-1-0.1-1.9,0.2-2.9l0.8-2.8c0.5-1.8,0.3-3.8-0.5-5.4l-0.7-1.4L29.9,24.6L29.9,24.6z"/>
						</g>
					</g>
					<g>
						<g>
							<path class="st1" d="M34.6,90l-1.8,4.5c-0.7,1.8-0.9,3.7-0.6,5.6l0.2,1.2c0.3,1.5,0.1,3.1-0.4,4.6c-0.5,1.4-0.6,2.9-0.5,4.4
								l1.3,11.7c0.3-0.1,0.5-0.2,0.7-0.4l-1.3-11.5c-0.2-1.4,0-2.8,0.4-4.1c0.5-1.6,0.7-3.4,0.4-5L33,99.9
								c-0.3-1.7-0.1-3.5,0.5-5.1l1.2-3v-2C34.7,89.8,34.7,89.9,34.6,90z"/>
						</g>
						<g>
							<path class="st1" d="M32.2,71.7c-0.8-1.7-1-3.6-0.7-5.4l0.6-3.8l2.1-11.8c0.3-1.5,0.2-3-0.2-4.4l-0.6-2.3
								c-0.1-0.3-0.2-0.7-0.2-1l-0.7-4.6c-0.2-1.3-0.1-2.7,0.2-4l1-3.7c0.4-1.5,0.5-3.2,0.2-4.8l-1.8-9c0-0.2-0.2-0.4-0.4-0.3
								c-0.2,0-0.3,0.3-0.3,0.5l1.8,9c0.3,1.4,0.2,2.9-0.2,4.4l-1,3.7c-0.4,1.4-0.5,2.9-0.3,4.3l0.7,4.6c0.1,0.4,0.1,0.7,0.2,1.1
								l0.6,2.3c0.4,1.3,0.4,2.7,0.2,4.1l-2.1,11.8l-0.6,3.8c-0.3,2,0,4.1,0.8,5.9l2.5,5.4c0.3,0.7,0.5,1.4,0.7,2.2v-2.5
								c0,0,0,0,0,0L32.2,71.7z"/>
						</g>
					</g>
					<g>
						<g>
							<path class="st1" d="M33.4,67.9l1.3,4.5v-2.7l-0.6-2.1c-0.3-1.1-0.3-2.3,0.1-3.4l0.5-1.6v-2.4L33.5,64
								C33.1,65.2,33,66.6,33.4,67.9z"/>
						</g>
						<g>
							<path class="st1" d="M34.7,113.6l-0.2-2.8c-0.1-0.7,0-1.4,0.2-2.1v-1.8c0,0.1-0.1,0.2-0.1,0.2c-0.6,1.1-0.9,2.4-0.8,3.8
								l0.8,9.7c0.1-0.3,0.2-0.7,0.2-1V113.6z"/>
						</g>
						<g>
							<path class="st1" d="M34.3,38l0.4,1.4V29.2L34,35.3C33.9,36.2,34,37.1,34.3,38z"/>
						</g>
					</g>
					<g>
						<path class="st1" d="M33.3,82.2c-0.6,0.1-1,0.4-1.2,1l-0.9,2.4C31,85.8,31,86.1,31,86.4l0.3,2.1c0.1,0.6,0.5,1.1,1.1,1.3
							c0.1,0,0.3,0,0.4,0c0.5,0,0.9-0.2,1.2-0.6l0.5-0.7c0.2-0.2,0.2-0.5,0.3-0.7l0-4.8c0,0,0-0.1,0-0.1
							C34.4,82.4,33.9,82.1,33.3,82.2z M34,87.6c0,0.2-0.1,0.3-0.1,0.4l-0.5,0.7c-0.2,0.3-0.5,0.4-0.8,0.3c-0.3-0.1-0.5-0.3-0.6-0.6
							l-0.3-2.1c0-0.1,0-0.3,0-0.4l0.9-2.4c0.1-0.3,0.3-0.5,0.6-0.5c0,0,0,0,0.1,0c0.3,0,0.5,0.1,0.6,0.4c0.1,0.1,0.1,0.3,0.1,0.5
							L34,87.6z"/>
					</g>
					<g>
						<g>
							<path class="st1" d="M33.1,87.6c0,0-0.1,0-0.1,0c-0.4-0.1-0.7-0.4-0.7-0.8l-0.1-1.1c0-0.1,0-0.2,0-0.4l0.1-0.6
								c0.1-0.3,0.3-0.6,0.6-0.7c0.3-0.1,0.6,0,0.8,0.2c0.2,0.2,0.3,0.4,0.3,0.7v1.7c0,0.1,0,0.3-0.1,0.4
								C33.7,87.4,33.4,87.6,33.1,87.6z M33.1,84.9C33.1,84.9,33.1,84.9,33.1,84.9c-0.1,0-0.1,0-0.1,0.1l-0.1,0.6c0,0,0,0,0,0
								l0.1,1.1c0,0.1,0,0.1,0.1,0.1c0,0,0.1,0,0.1-0.1c0,0,0,0,0-0.1V85C33.2,85,33.2,85,33.1,84.9C33.2,84.9,33.1,84.9,33.1,84.9z
								"/>
						</g>
					</g>
				</g>
			</g>
			<g>
				<g>
					<path class="st2" d="M35.3,114.4v5.4c0,1.8-1.3,3.2-3,3.2h0c-1.7,0-3-1.4-3-3.2v-5.4H35.3z"/>
					<path class="st1" d="M32.3,123.4c-1.9,0-3.4-1.6-3.4-3.7v-5.9h6.9v5.9C35.7,121.8,34.2,123.4,32.3,123.4z M29.8,114.8v5
						c0,1.5,1.1,2.8,2.5,2.8c1.4,0,2.5-1.2,2.5-2.8v-5H29.8z"/>
				</g>
				<g>
					<path class="st3" d="M30.6,119.4c-0.2,0-0.5-0.2-0.5-0.5v-2c0-0.2,0.2-0.5,0.5-0.5c0.2,0,0.5,0.2,0.5,0.5v2
						C31.1,119.2,30.9,119.4,30.6,119.4z"/>
				</g>
				<g>
					<path class="st3" d="M31.4,121.8c-0.1,0-0.1,0-0.2-0.1c-1-0.5-1-1.6-1-1.6c0-0.2,0.2-0.5,0.5-0.5c0.2,0,0.4,0.2,0.5,0.4
						c0,0,0,0.6,0.5,0.8c0.2,0.1,0.3,0.4,0.2,0.6C31.7,121.7,31.5,121.8,31.4,121.8z M31.1,120.2L31.1,120.2L31.1,120.2z"/>
				</g>
			</g>
			<g>
				<g>
					<g>
						<rect x="29.1" y="39.1" class="st4" width="6.4" height="24.9"/>
						<path class="st1" d="M35.9,64.4h-7.3V38.6h7.3V64.4z M29.6,63.5H35v-24h-5.5V63.5z"/>
					</g>
					<g>
						<rect x="28.4" y="62.8" class="st4" width="7.9" height="2.8"/>
						<path class="st1" d="M36.7,66h-8.8v-3.7h8.8V66z M28.8,65.1h7v-1.9h-7V65.1z"/>
					</g>
					<g>
						<rect x="28.4" y="37.8" class="st4" width="7.9" height="2.8"/>
						<path class="st1" d="M36.7,41.1h-8.8v-3.7h8.8V41.1z M28.8,40.2h7v-1.9h-7V40.2z"/>
					</g>
				</g>
				<g>
					<path class="st5" d="M30.6,60.4c-0.2,0-0.5-0.2-0.5-0.5V43.1c0-0.2,0.2-0.5,0.5-0.5c0.2,0,0.5,0.2,0.5,0.5v16.9
						C31.1,60.2,30.9,60.4,30.6,60.4z"/>
				</g>
			</g>
		</g>
		<g>
			<g>
				<g>
					<ellipse class="st6" cx="8.6" cy="18.8" rx="4.5" ry="5.8"/>
					<path class="st7" d="M8.6,25c-2.7,0-4.9-2.8-4.9-6.2s2.2-6.2,4.9-6.2c2.7,0,4.9,2.8,4.9,6.2S11.3,25,8.6,25z M8.6,13.4
						c-2.2,0-4,2.4-4,5.3c0,2.9,1.8,5.3,4,5.3s4-2.4,4-5.3C12.6,15.8,10.8,13.4,8.6,13.4z"/>
				</g>
				<g>
					<path class="st8" d="M6.3,13.8l0.3,3c0.1,1.2,0.1,2.3,0.1,3.5l-0.1,3.6h2.1V13.3L6.3,13.8z"/>
				</g>
				<g>
					<path class="st9" d="M5.4,18c-0.1,0-0.1,0-0.2,0C5,17.9,4.9,17.6,5,17.4l0.3-0.5c0.1-0.2,0.4-0.3,0.6-0.2
						c0.2,0.1,0.3,0.4,0.2,0.6l-0.3,0.5C5.7,17.9,5.6,18,5.4,18z"/>
				</g>
				<g>
					<path class="st7" d="M8.6,25c-2.7,0-4.9-2.8-4.9-6.2s2.2-6.2,4.9-6.2c2.7,0,4.9,2.8,4.9,6.2S11.3,25,8.6,25z M8.6,13.4
						c-2.2,0-4,2.4-4,5.3c0,2.9,1.8,5.3,4,5.3s4-2.4,4-5.3C12.6,15.8,10.8,13.4,8.6,13.4z"/>
				</g>
				<g>
					<path class="st7" d="M2.4,16.8c0,0-0.1,0-0.1,0c-0.2-0.1-0.4-0.3-0.3-0.6c0.4-1.6,1.2-2.9,2.3-3.9c0.2-0.2,0.5-0.1,0.6,0
						c0.2,0.2,0.1,0.5,0,0.6c-0.9,0.8-1.7,2-2,3.4C2.8,16.7,2.6,16.8,2.4,16.8z"/>
				</g>
				<g>
					<path class="st7" d="M3.2,23.2c-0.1,0-0.3-0.1-0.4-0.2c-0.8-1.3-1.2-2.8-1.2-4.4c0-0.2,0.2-0.5,0.5-0.5s0.5,0.2,0.5,0.5
						c0,1.4,0.4,2.8,1.1,3.9c0.1,0.2,0.1,0.5-0.1,0.6C3.4,23.2,3.3,23.2,3.2,23.2z"/>
				</g>
				<g>
					<g>
						<path class="st10" d="M32.9,27.5l-1.7,0.1C24.9,27.9,18.6,29,12.5,31l-6.2,2.1l0,0c2.4-9.3,2.4-19,0.2-28.3L6.3,3.9l4.5,2.2
							c7,3.4,14.4,5.6,22.1,6.5l0,0V27.5z"/>
						<path class="st7" d="M5.7,33.8L5.9,33c2.3-9.2,2.4-18.9,0.2-28.1L5.7,3.1l5.4,2.7C18,9.2,25.4,11.4,33,12.3l0.4,0V28L31.2,28
							c-6.3,0.3-12.6,1.4-18.6,3.4L5.7,33.8z M7,4.8c2.2,9.1,2.1,18.6,0,27.6l5.4-1.8c6.1-2,12.4-3.2,18.8-3.4l1.3-0.1v-14
							c-7.6-1-14.9-3.2-21.8-6.5L7,4.8z"/>
					</g>
					<g>
						<path class="st10" d="M32.9,24v-7.6l-3.8,0c-5.8,0-11.6-0.8-17.2-2.5l-4.1-1.2c0.4,4.4,0.4,8.8-0.2,13.1l9-1.2
							c2.9-0.4,5.8-0.6,8.8-0.6H32.9z"/>
					</g>
					<g>
						<path class="st11" d="M32.9,24v3.5l-1.7,0.1C24.9,27.9,18.6,29,12.5,31l-6.2,2.1l0,0c0.6-2.4,1.1-4.8,1.4-7.2l9-1.2
							c2.9-0.4,5.8-0.6,8.8-0.6H32.9z"/>
					</g>
					<g>
						<path class="st12" d="M32.9,16.4v-3.7l0,0c-7.7-0.9-15.1-3.1-22.1-6.5L6.3,3.9l0.2,0.9c0.6,2.6,1.1,5.2,1.3,7.9l4.1,1.2
							c5.6,1.6,11.4,2.5,17.2,2.5L32.9,16.4z"/>
					</g>
					<g>
						<path class="st13" d="M29.6,15C29.6,15,29.6,15,29.6,15L27,14.7c-0.6-0.1-1.2-0.1-1.9-0.2c-0.4-0.1-0.6-0.4-0.6-0.8
							c0.1-0.4,0.4-0.6,0.8-0.6c0.6,0.1,1.2,0.2,1.8,0.2l2.5,0.3c0.4,0,0.6,0.4,0.6,0.7C30.3,14.7,30,15,29.6,15z"/>
					</g>
					<g>
						<path class="st13" d="M23.1,14.1c0,0-0.1,0-0.1,0c-0.5-0.1-1-0.2-1.5-0.3c-0.4-0.1-0.6-0.4-0.5-0.8c0.1-0.4,0.4-0.6,0.8-0.5
							c0.5,0.1,1,0.2,1.5,0.3c0.4,0.1,0.6,0.4,0.5,0.8C23.7,13.9,23.5,14.1,23.1,14.1z"/>
					</g>
					<g>
						<path class="st13" d="M19.6,13.3c-0.1,0-0.1,0-0.2,0c-1.8-0.5-3.5-1-5.2-1.6c-0.3-0.1-0.5-0.5-0.4-0.9
							c0.1-0.3,0.5-0.5,0.9-0.4c1.7,0.6,3.4,1.2,5.1,1.6c0.4,0.1,0.6,0.5,0.5,0.8C20.2,13.1,19.9,13.3,19.6,13.3z"/>
					</g>
					<g>
						<path class="st7" d="M5.7,33.8L5.9,33c2.3-9.2,2.4-18.9,0.2-28.1L5.7,3.1l5.4,2.7C18,9.2,25.4,11.4,33,12.3l0.4,0V28L31.2,28
							c-6.3,0.3-12.6,1.4-18.6,3.4L5.7,33.8z M7,4.8c2.2,9.1,2.1,18.6,0,27.6l5.4-1.8c6.1-2,12.4-3.2,18.8-3.4l1.3-0.1v-14
							c-7.6-1-14.9-3.2-21.8-6.5L7,4.8z"/>
					</g>
				</g>
				<g>
					<g>
						<path class="st14" d="M10.3,32.6l-4.4,2.3l0,0C8.2,24.5,8.3,13.6,6.1,3.1l-0.2-1L10,4.7L10.3,32.6z"/>
						<path class="st7" d="M5.2,35.7l0.2-1C7.8,24.5,7.8,13.6,5.6,3.2l-0.4-2l5.2,3.2l0.3,28.4L5.2,35.7z M6.5,3.1
							c2.2,10.1,2.2,20.8,0,30.9l3.3-1.7L9.5,4.9L6.5,3.1z"/>
					</g>
					<g>
						<path class="st15" d="M10.2,24l0.1,8.6l-4.4,2.3l0,0c0.7-3.1,1.2-6.3,1.5-9.5L10.2,24z"/>
					</g>
					<g>
						<path class="st14" d="M10.2,24L10,12.9l-2.7-1c0.4,4.5,0.4,9,0,13.6L10.2,24z"/>
					</g>
					<g>
						<path class="st16" d="M10,12.9L10,4.7L5.9,2.1l0.2,1C6.7,6,7.1,8.9,7.4,11.8L10,12.9z"/>
					</g>
					<g>
						<polygon class="st17" points="6.5,5.2 10,7.5 10,8.7 6.9,7.6 						"/>
					</g>
					<g>
						<path class="st7" d="M5.2,35.7l0.2-1C7.8,24.5,7.8,13.6,5.6,3.2l-0.4-2l5.2,3.2l0.3,28.4L5.2,35.7z M6.5,3.1
							c2.2,10.1,2.2,20.8,0,30.9l3.3-1.7L9.5,4.9L6.5,3.1z"/>
					</g>
				</g>
			</g>
			<g>
				<g>
					<ellipse class="st6" cx="56.6" cy="18.8" rx="4.5" ry="5.8"/>
					<path class="st7" d="M56.6,25c-2.7,0-4.9-2.8-4.9-6.2s2.2-6.2,4.9-6.2c2.7,0,4.9,2.8,4.9,6.2S59.3,25,56.6,25z M56.6,13.4
						c-2.2,0-4,2.4-4,5.3c0,2.9,1.8,5.3,4,5.3s4-2.4,4-5.3C60.6,15.8,58.8,13.4,56.6,13.4z"/>
				</g>
				<g>
					<path class="st8" d="M58.9,13.8l-0.3,3c-0.1,1.2-0.1,2.3-0.1,3.5l0.1,3.6h-2.1V13.3L58.9,13.8z"/>
				</g>
				<g>
					<path class="st9" d="M59.8,18c-0.2,0-0.3-0.1-0.4-0.3l-0.3-0.5c-0.1-0.2,0-0.5,0.2-0.6c0.2-0.1,0.5,0,0.6,0.2l0.3,0.5
						c0.1,0.2,0,0.5-0.2,0.6C60,18,59.9,18,59.8,18z"/>
				</g>
				<g>
					<path class="st7" d="M56.6,25c-2.7,0-4.9-2.8-4.9-6.2s2.2-6.2,4.9-6.2c2.7,0,4.9,2.8,4.9,6.2S59.3,25,56.6,25z M56.6,13.4
						c-2.2,0-4,2.4-4,5.3c0,2.9,1.8,5.3,4,5.3s4-2.4,4-5.3C60.6,15.8,58.8,13.4,56.6,13.4z"/>
				</g>
				<g>
					<path class="st7" d="M62.9,16.8c-0.2,0-0.4-0.1-0.4-0.3c-0.4-1.4-1.1-2.6-2-3.4c-0.2-0.2-0.2-0.4,0-0.6c0.2-0.2,0.4-0.2,0.6,0
						c1.1,0.9,1.9,2.3,2.3,3.9c0.1,0.2-0.1,0.5-0.3,0.6C62.9,16.8,62.9,16.8,62.9,16.8z"/>
				</g>
				<g>
					<path class="st7" d="M62,23.2c-0.1,0-0.2,0-0.2-0.1c-0.2-0.1-0.3-0.4-0.1-0.6c0.7-1.1,1.1-2.5,1.1-3.9c0-0.2,0.2-0.5,0.5-0.5
						s0.5,0.2,0.5,0.5c0,1.6-0.4,3.1-1.2,4.4C62.3,23.2,62.1,23.2,62,23.2z"/>
				</g>
				<g>
					<g>
						<path class="st10" d="M32.3,27.5l1.7,0.1c6.4,0.3,12.7,1.4,18.7,3.4l6.2,2.1l0,0c-2.4-9.3-2.4-19-0.2-28.3l0.2-0.9l-4.5,2.2
							c-7,3.4-14.4,5.6-22.1,6.5l0,0V27.5z"/>
						<path class="st7" d="M59.6,33.8l-7-2.3c-6-2-12.3-3.1-18.6-3.4L31.8,28V12.3l0.4,0c7.6-0.9,15-3.1,21.9-6.5l5.4-2.7l-0.4,1.8
							C56.9,14.1,57,23.8,59.4,33L59.6,33.8z M32.7,27.1l1.3,0.1c6.4,0.3,12.7,1.4,18.8,3.4l5.4,1.8c-2.2-9-2.2-18.6,0-27.6
							l-3.7,1.8c-6.9,3.4-14.2,5.6-21.8,6.5V27.1z"/>
					</g>
					<g>
						<path class="st10" d="M32.3,24v-7.6l3.8,0c5.8,0,11.6-0.8,17.2-2.5l4.1-1.2c-0.4,4.4-0.4,8.8,0.2,13.1l-9-1.2
							c-2.9-0.4-5.8-0.6-8.8-0.6H32.3z"/>
					</g>
					<g>
						<path class="st11" d="M32.3,24v3.5l1.7,0.1c6.4,0.3,12.7,1.4,18.7,3.4l6.2,2.1l0,0c-0.6-2.4-1.1-4.8-1.4-7.2l-9-1.2
							c-2.9-0.4-5.8-0.6-8.8-0.6H32.3z"/>
					</g>
					<g>
						<path class="st12" d="M32.3,16.4v-3.7l0,0c7.7-0.9,15.1-3.1,22.1-6.5l4.5-2.2l-0.2,0.9c-0.6,2.6-1.1,5.2-1.3,7.9l-4.1,1.2
							c-5.6,1.6-11.4,2.5-17.2,2.5L32.3,16.4z"/>
					</g>
					<g>
						<path class="st13" d="M35.6,15c-0.3,0-0.6-0.3-0.7-0.6c0-0.4,0.2-0.7,0.6-0.7l2.5-0.3c0.6-0.1,1.2-0.1,1.8-0.2
							c0.4-0.1,0.7,0.2,0.8,0.6c0.1,0.4-0.2,0.7-0.6,0.8c-0.6,0.1-1.2,0.2-1.9,0.2L35.6,15C35.6,15,35.6,15,35.6,15z"/>
					</g>
					<g>
						<path class="st13" d="M42.1,14.1c-0.3,0-0.6-0.2-0.7-0.6c-0.1-0.4,0.2-0.7,0.5-0.8c0.5-0.1,1-0.2,1.5-0.3
							c0.4-0.1,0.7,0.2,0.8,0.5c0.1,0.4-0.2,0.7-0.5,0.8c-0.5,0.1-1,0.2-1.5,0.3C42.2,14.1,42.1,14.1,42.1,14.1z"/>
					</g>
					<g>
						<path class="st13" d="M45.6,13.3c-0.3,0-0.6-0.2-0.7-0.5c-0.1-0.4,0.1-0.7,0.5-0.8c1.7-0.4,3.4-1,5.1-1.6
							c0.3-0.1,0.7,0,0.9,0.4c0.1,0.3,0,0.7-0.4,0.9c-1.7,0.6-3.5,1.2-5.2,1.6C45.7,13.3,45.7,13.3,45.6,13.3z"/>
					</g>
					<g>
						<path class="st7" d="M59.6,33.8l-7-2.3c-6-2-12.3-3.1-18.6-3.4L31.8,28V12.3l0.4,0c7.6-0.9,15-3.1,21.9-6.5l5.4-2.7l-0.4,1.8
							C56.9,14.1,57,23.8,59.4,33L59.6,33.8z M32.7,27.1l1.3,0.1c6.4,0.3,12.7,1.4,18.8,3.4l5.4,1.8c-2.2-9-2.2-18.6,0-27.6
							l-3.7,1.8c-6.9,3.4-14.2,5.6-21.8,6.5V27.1z"/>
					</g>
				</g>
				<g>
					<g>
						<path class="st14" d="M55,32.6l4.4,2.3l0,0C57,24.5,56.9,13.6,59.2,3.1l0.2-1l-4.1,2.5L55,32.6z"/>
						<path class="st7" d="M60,35.7l-5.5-2.9l0.3-28.4L60,1.2l-0.4,2c-2.2,10.3-2.1,21.2,0.2,31.5L60,35.7z M55.4,32.3l3.3,1.7
							c-2.2-10.1-2.2-20.8,0-30.9l-3,1.8L55.4,32.3z"/>
					</g>
					<g>
						<path class="st15" d="M55.1,24L55,32.6l4.4,2.3l0,0c-0.7-3.1-1.2-6.3-1.5-9.5L55.1,24z"/>
					</g>
					<g>
						<path class="st14" d="M55.1,24l0.1-11.1l2.7-1c-0.4,4.5-0.4,9,0,13.6L55.1,24z"/>
					</g>
					<g>
						<path class="st16" d="M55.2,12.9l0.1-8.2l4.1-2.5l-0.2,1c-0.6,2.9-1.1,5.8-1.3,8.7L55.2,12.9z"/>
					</g>
					<g>
						<polygon class="st17" points="58.7,5.2 55.2,7.5 55.2,8.7 58.4,7.6 						"/>
					</g>
					<g>
						<path class="st7" d="M60,35.7l-5.5-2.9l0.3-28.4L60,1.2l-0.4,2c-2.2,10.3-2.1,21.2,0.2,31.5L60,35.7z M55.4,32.3l3.3,1.7
							c-2.2-10.1-2.2-20.8,0-30.9l-3,1.8L55.4,32.3z"/>
					</g>
				</g>
			</g>
			<g>
				<g>
					<path class="st18" d="M36.6,31.2h-8.5c-1.1,0-1.9-0.9-1.9-1.9v-17c0-1.4,1.4-2.3,2.7-1.8l0,0c2.2,1,4.7,1,6.9,0l0.1,0
						c1.3-0.6,2.7,0.4,2.7,1.8v17.1C38.5,30.4,37.7,31.2,36.6,31.2z"/>
					<path class="st7" d="M36.6,31.7h-8.5c-1.3,0-2.4-1.1-2.4-2.4v-17c0-0.8,0.4-1.6,1.1-2c0.7-0.4,1.5-0.5,2.3-0.2
						c2.1,0.9,4.5,0.9,6.5,0l0.1,0c0.7-0.3,1.6-0.2,2.3,0.2c0.7,0.4,1.1,1.2,1.1,2v17.1C39,30.6,37.9,31.7,36.6,31.7z M28.1,10.7
						c-0.3,0-0.6,0.1-0.8,0.2c-0.4,0.3-0.7,0.7-0.7,1.2v17c0,0.8,0.7,1.5,1.5,1.5h8.5c0.8,0,1.5-0.7,1.5-1.5V12.2
						c0-0.5-0.2-1-0.7-1.2c-0.4-0.3-0.9-0.3-1.4-0.1l-0.1,0c-2.3,1-5,1-7.3,0C28.5,10.8,28.3,10.7,28.1,10.7z"/>
				</g>
				<g>
					<path class="st19" d="M35.6,29.7h-6.4c-0.8,0-1.5-0.7-1.5-1.7V13.5c0-1.2,1.1-2,2-1.5l0,0c1.7,0.8,3.5,0.8,5.2,0l0.1,0
						c1-0.5,2,0.3,2,1.5V28C37,28.9,36.4,29.7,35.6,29.7z"/>
				</g>
				<g>
					<path class="st20" d="M34.6,27.5h-4.5c-0.6,0-1-0.6-1-1.2V15.3c0-0.9,0.8-1.5,1.4-1.1l0,0c1.2,0.6,2.5,0.6,3.6,0l0,0
						c0.7-0.4,1.4,0.2,1.4,1.1v11C35.6,26.9,35.2,27.5,34.6,27.5z"/>
				</g>
			</g>
		</g>
	</g>
	<g class="st21">
		<path d="M11.9,17.7h0.9v2.7h1.3v0.8h-2.3V17.7z"/>
	</g>
	<g class="st21">
		<path d="M51,17.7h1.3c0.8,0,1.4,0.3,1.4,1.1c0,0.8-0.6,1.2-1.4,1.2h-0.4v1.2H51V17.7z M52.2,19.3c0.4,0,0.6-0.2,0.6-0.5
			c0-0.3-0.2-0.4-0.6-0.4h-0.3v0.9H52.2z M52.1,19.8l0.6-0.6l1.1,2h-1L52.1,19.8z"/>
	</g>
</g>
</svg>
