<?xml version="1.0" encoding="utf-8"?>
<!-- Generator: Adobe Illustrator 24.2.1, SVG Export Plug-In . SVG Version: 6.00 Build 0)  -->
<svg version="1.1" id="Lag_1" xmlns="http://www.w3.org/2000/svg" xmlns:xlink="http://www.w3.org/1999/xlink" x="0px" y="0px"
	 viewBox="0 0 74 72" style="enable-background:new 0 0 74 72;" xml:space="preserve">
<style type="text/css">
	.st0{fill:#DBB675;stroke:#110B09;stroke-width:2;stroke-miterlimit:10;}
	.st1{fill:none;stroke:#F7E7CD;stroke-width:2;stroke-linecap:round;stroke-miterlimit:10;}
	.st2{fill:#C4A474;}
	.st3{fill:#C1AD91;stroke:#110B09;stroke-width:2;stroke-miterlimit:10;}
	.st4{fill:#D3BEA5;}
	.st5{fill:#E0CDB8;}
	.st6{opacity:0.28;fill:#110B09;stroke:#0A0908;stroke-width:2;stroke-miterlimit:10;}
	.st7{fill:#604333;stroke:#110B09;stroke-width:2;stroke-miterlimit:10;}
</style>
<g>
	<g>
		<polygon class="st0" points="37,1.8 52.4,2.6 62.7,14.2 71.6,26.8 69,42 64.8,56.8 51.3,64.3 37,70.2 22.7,64.3 9.2,56.8 5,42 
			2.4,26.8 11.3,14.2 21.6,2.6 		"/>
		<line class="st1" x1="60.4" y1="16.1" x2="62.2" y2="18.5"/>
		<line class="st1" x1="54.1" y1="8.9" x2="57.8" y2="13.1"/>
		<line class="st1" x1="44.7" y1="5.2" x2="49.1" y2="5.5"/>
		<polygon class="st2" points="37,7.3 49.9,8 58.5,17.7 66,28.2 63.8,41 60.3,53.4 48.9,59.7 37,64.7 25.1,59.7 13.7,53.4 10.2,41 
			8,28.2 15.5,17.7 24.1,8 		"/>
		<polygon class="st3" points="37,9.7 48.9,10.3 56.8,19.2 63.7,28.9 61.6,40.6 58.4,52 48,57.7 37,62.3 26,57.7 15.6,52 12.4,40.6 
			10.3,28.9 17.2,19.2 25.1,10.3 		"/>
		<polygon class="st4" points="37,13.1 47.3,13.7 54.2,21.4 60.2,29.8 58.4,40 55.6,49.9 46.5,54.9 37,58.9 27.5,54.9 18.4,49.9 
			15.6,40 13.8,29.8 19.8,21.4 26.7,13.7 		"/>
		<polygon class="st5" points="37,16.8 45.7,17.3 51.4,23.7 56.5,30.8 55,39.4 52.6,47.7 45,51.9 37,55.2 29,51.9 21.4,47.7 
			19,39.4 17.5,30.8 22.6,23.7 28.3,17.3 		"/>
	</g>
	<polygon class="st6" points="49.4,28 44.3,23.5 38,30.6 30.1,23.2 25.4,28.2 33.5,35.7 26.5,43.7 31.6,48.2 38.5,40.4 44.6,46 
		49.2,41.1 43,35.3 	"/>
	<polygon class="st7" points="49.7,27.4 44.6,22.8 38.3,30 30.3,22.6 25.7,27.6 33.8,35.1 26.7,43.1 31.8,47.6 38.7,39.8 44.8,45.4 
		49.5,40.5 43.3,34.7 	"/>
</g>
</svg>
