<?xml version="1.0" encoding="utf-8"?>
<!-- Generator: Adobe Illustrator 27.0.0, SVG Export Plug-In . SVG Version: 6.00 Build 0)  -->
<svg version="1.1" id="Lag_1" xmlns="http://www.w3.org/2000/svg" xmlns:xlink="http://www.w3.org/1999/xlink" x="0px" y="0px"
	 viewBox="0 0 158 202" style="enable-background:new 0 0 158 202;" xml:space="preserve">
<style type="text/css">
	.st0{fill:#747889;}
	.st1{fill:#281C15;}
	.st2{fill:#525563;}
	.st3{fill:#43464F;}
	.st4{fill:#AD59C1;}
	.st5{fill:#9E49B2;}
	.st6{fill:#8E47A0;}
	.st7{fill:#E8CEEF;}
	.st8{fill:#62667A;}
	.st9{fill:#585C68;}
	.st10{fill:#4E5260;}
	.st11{fill:#95969B;}
	.st12{fill:#A7ADC1;}
	.st13{fill:#B2ADA6;}
	.st14{fill:#D3CCC5;}
	.st15{fill:#E8E1DA;}
	.st16{opacity:0.51;}
</style>
<g>
	<g>
		<g>
			<g>
				<path class="st0" d="M10,33c0-4.8,30.9-8.7,69-8.7s69,3.9,69,8.7"/>
				<path class="st1" d="M149,33h-2.1c0,0-0.5-2.7-19.3-5.1c-13-1.6-30.3-2.5-48.7-2.5c-18.4,0-35.7,0.9-48.7,2.5
					C11.5,30.2,11,32.9,11,33H8.9c0-1.2,0-4.6,21.1-7.2c13.1-1.7,30.4-2.6,48.9-2.6s35.8,0.9,48.9,2.6C149,28.4,149,31.7,149,33z"/>
			</g>
			<g>
				<ellipse class="st2" cx="79" cy="33" rx="57.3" ry="3.4"/>
			</g>
			<g>
				<ellipse class="st3" cx="79" cy="33" rx="50.5" ry="1.5"/>
			</g>
			<g>
				<g>
					<path class="st1" d="M52,31.1c-0.6,0-1-0.5-1.1-1c0-0.6,0.4-1.1,1-1.1c8.2-0.3,17.6-0.4,27-0.4c2.7,0,5.4,0,8.1,0
						c0.6,0,1.1,0.5,1.1,1.1c0,0.6-0.5,1.1-1.1,1.1c0,0,0,0,0,0c-2.6,0-5.3,0-8,0C69.6,30.7,60.3,30.8,52,31.1
						C52,31.1,52,31.1,52,31.1z"/>
				</g>
				<g>
					<path class="st1" d="M21.7,34c-0.6,0-1.1-0.5-1.1-1.1c0-1.2,0-2.7,24.5-3.8c0.6,0,1.1,0.4,1.1,1c0,0.6-0.4,1.1-1,1.1
						c-18.5,0.8-22,1.9-22.6,2.2C22.4,33.8,22.1,34,21.7,34z"/>
				</g>
				<g>
					<path class="st1" d="M136.2,34c-0.4,0-0.7-0.2-0.9-0.5c-1.6-0.8-12.7-2.1-37.5-2.6c-0.6,0-1.1-0.5-1-1.1c0-0.6,0.5-1.1,1.1-1
						c11.1,0.2,20.7,0.6,27.6,1.2c11.8,1,11.8,2,11.8,3C137.3,33.6,136.8,34,136.2,34z M135.4,33.6L135.4,33.6L135.4,33.6z"/>
				</g>
			</g>
			<g>
				<g>
					<path class="st4" d="M135.8,29.3L135.8,29.3c-2,1.7-4.6,2.1-6.9,1l-3.9-1.9c-1.8-0.9-1.8-11.9-8.5-11.9
						c-3.8,0-8.5,7.3-12.8,8.3c-6.2,1.5-11.8-3.1-13.6-3.1c-0.8,0-3.7,3.6-8.1,2.9c-4.5-0.7-10.5-1.4-13.7-1.4
						c-3.2,0-9.1,3.1-14.8,4.1c-5.8,1-11.4-4.4-14.1-4.4c-5.2,0-9.4,11.2-11.2,12.3l0,0c-1,0.6-2.2,0.3-2.9-0.7l-1.8-2.5
						c-0.2-0.2-0.5-0.1-0.5,0.2v26.3h113.2V29.6C136.2,29.3,135.9,29.2,135.8,29.3z"/>
				</g>
				<g>
					<path class="st5" d="M23,42.2l2.3-2.7c0.8-1,2-1.3,3.1-0.8l0.7,0.3c1.3,0.6,2.8-0.1,3.6-1.7l1.5-3.2c1.6-3.3,4.3-5.3,7.2-5.3h0
						c1,0,1.9,0.2,2.8,0.7l2.8,1.3c1.6,0.8,3.3,0.9,5,0.3l2.2-0.8c2.5-0.9,5.2-0.2,7.3,1.9l0.1,0.1c2,2.1,4.6,2.8,7,2l7.3-2.3
						c0,0,4.7,0.4,7.5-0.6c1.6-0.6,2.6-1.6,3.2-2.5c0.9-1.3,2-2.2,3.2-2.5c0.8-0.2,1.7-0.1,2.2,0.6l2.7,3.5c0.8,1,1.8,1.4,2.8,1.1
						l5.1-1.5c0.9-0.3,1.7-0.7,2.5-1.4l3.1-2.6c1.8-1.5,3.9-2,5.9-1.4l0.7,0.2c1.9,0.5,3.5,1.9,4.8,3.9l0,0c1.3,2.2,3.1,3.6,5.1,4
						l1.8,0.4c0.1,0,0.2,0.1,0.3,0.1l9.6,3.4v22H23V42.2z"/>
				</g>
				<g>
					<path class="st6" d="M23,42.5l3.2,2.1c1.3-1.4,3.1-1.8,4.7-1.1l0,0c2.2,1,4.5-0.1,5.8-2.7l0,0c1.7-3.4,4.5-5.4,7.4-5.4h1.3
						c1.2,0,2.4,0.3,3.6,0.8l3.5,1.6c0.7,0.3,1.4,0.7,2,1.2l2.8,2.2c1.7,1.3,3.6,2,5.6,2h4.9c1.3,0,2.5-0.7,3.5-1.9l2.5-3.2
						c1.3-1.6,3-2.2,4.7-1.7l3.3,1.1c1.7,0.6,3.6-0.2,4.8-2v0c1.6-2.2,4-2.8,6-1.4l1.8,1.2c0.9,0.6,1.9,0.9,2.9,0.7l1.6-0.2
						c1.1-0.2,2.1-0.5,3.1-1l0,0c4-1.9,8.5-1.3,12.1,1.7l1.1,0.9c0.8,0.7,1.7,1.2,2.6,1.7l5.4,2.6c0.2,0.1,0.4,0.2,0.6,0.2l3.5,1.1
						c2.9,0.9,6,1.1,9,0.7h0v14.8H23V42.5z"/>
				</g>
				<g>
					<path class="st1" d="M137.3,59.4H21.9V32.1c0-0.6,0.4-1.1,0.9-1.3c0.5-0.2,1.1,0,1.5,0.5l1.8,2.5c0.4,0.5,1,0.7,1.5,0.4
						c0.4-0.3,1.3-1.8,2.1-3.1c2.3-3.9,5.6-9.3,9.7-9.3c1.2,0,2.7,0.8,4.5,1.8c2.7,1.4,6.1,3.3,9.4,2.7c2.7-0.5,5.5-1.4,8-2.3
						c2.8-1,5.1-1.8,7-1.8c3.4,0,9.6,0.7,13.9,1.4c2.8,0.4,5-1.1,6.2-2c0.7-0.5,1.2-0.8,1.7-0.8c0.8,0,1.8,0.5,3.1,1.1
						c2.5,1.2,6.3,3,10.2,2.1c1.8-0.4,3.9-2.3,5.9-4.1c2.5-2.2,4.8-4.3,7.2-4.3c5.3,0,7,5.6,8.1,9.3c0.3,1,0.7,2.4,1,2.7l3.8,1.8
						c1.9,0.9,4.1,0.6,5.7-0.8l0,0c0.4-0.3,0.9-0.4,1.4-0.2c0.5,0.2,0.8,0.7,0.8,1.2V59.4z M24.1,57.3h111.1V31.1
						c-2.1,1.2-4.5,1.3-6.7,0.2l-3.9-1.9c-1-0.5-1.4-1.9-2-4c-1.2-4.1-2.6-7.8-6-7.8c-1.6,0-3.7,1.9-5.8,3.8c-2.2,2-4.4,4-6.8,4.5
						c-4.7,1.1-8.9-0.9-11.7-2.2c-0.7-0.4-1.6-0.8-2.1-0.9c-0.2,0.1-0.4,0.3-0.6,0.4c-1.4,1-4.1,3-7.8,2.4
						c-4.3-0.7-10.3-1.4-13.6-1.4c-1.5,0-3.8,0.8-6.3,1.7c-2.6,0.9-5.4,1.9-8.3,2.4c-4,0.7-7.9-1.4-10.7-2.9
						c-1.4-0.7-2.8-1.5-3.5-1.5c-2.9,0-5.9,5-7.9,8.3c-1.3,2.2-2,3.4-2.8,3.8c-1.5,0.9-3.3,0.5-4.3-1l-0.3-0.5V57.3z"/>
				</g>
				<g>
					<path class="st4" d="M119.2,11.8L119.2,11.8c0.9,0.2,1.8-0.1,2.3-0.9l0.7-1c0.7-1,0.8-2.4,0.2-3.5L122,5.5
						c-0.7-1.4-2.3-1.9-3.6-1.1l0,0c-1.1,0.7-1.7,2.1-1.4,3.5l0.5,2.1C117.7,10.9,118.4,11.6,119.2,11.8z"/>
					<path class="st1" d="M119.7,12.9c-0.3,0-0.5,0-0.8-0.1h0c-1.2-0.3-2.1-1.3-2.5-2.6l-0.5-2.1c-0.4-1.8,0.3-3.7,1.9-4.6
						c0.9-0.5,1.8-0.6,2.8-0.4c1,0.3,1.8,1,2.3,1.9l0.5,0.9c0.8,1.4,0.7,3.3-0.3,4.6l-0.7,1C121.7,12.4,120.7,12.9,119.7,12.9z
						 M119.5,10.7c0.4,0.1,0.9-0.1,1.2-0.5l0.7-1c0.5-0.7,0.5-1.6,0.1-2.3L121.1,6c-0.2-0.4-0.6-0.7-1-0.9c-0.4-0.1-0.8-0.1-1.1,0.1
						c-0.7,0.4-1.1,1.4-0.9,2.3l0.5,2.1C118.7,10.2,119,10.6,119.5,10.7L119.5,10.7z"/>
				</g>
				<g>
					<path class="st4" d="M38.7,18.4L38.7,18.4c1.2-0.2,2.2-1.2,2.5-2.5l0.7-2.9c0.5-2.1-0.4-4.3-2.3-5.1l0,0
						c-1.7-0.8-3.7-0.1-4.7,1.5l-0.5,0.8c-0.9,1.5-0.9,3.4,0,4.8l1.2,1.9C36.3,18,37.5,18.6,38.7,18.4z"/>
					<path class="st1" d="M38.2,19.5c-1.4,0-2.7-0.7-3.5-2l-1.2-1.9c-1.1-1.8-1.1-4.2,0-6L34,8.9C35.4,6.8,37.9,6,40.1,7
						c2.3,1,3.5,3.8,2.8,6.3l-0.7,2.9c-0.4,1.7-1.7,3-3.3,3.3l0,0C38.6,19.5,38.4,19.5,38.2,19.5z M38.1,8.7c-0.9,0-1.8,0.5-2.3,1.4
						l-0.5,0.8c-0.7,1.1-0.7,2.6,0,3.7l1.2,1.9c0.5,0.7,1.2,1.1,2,1c0.8-0.1,1.4-0.8,1.7-1.7l0.7-2.9c0.4-1.6-0.3-3.2-1.7-3.9
						C38.9,8.8,38.5,8.7,38.1,8.7z"/>
				</g>
				<g>
					<ellipse class="st5" cx="75.3" cy="28.9" rx="1.5" ry="1.9"/>
				</g>
				<g>
					<ellipse class="st6" cx="89.8" cy="30.4" rx="0.8" ry="1.4"/>
				</g>
				<g>
					<ellipse class="st6" cx="111" cy="32.8" rx="2.2" ry="2.4"/>
				</g>
				<g>
					<ellipse class="st5" cx="93.9" cy="41.9" rx="3.3" ry="3.6"/>
				</g>
				<g>
					<ellipse class="st5" cx="96.7" cy="39.3" rx="1.2" ry="1.3"/>
				</g>
				<g>
					<ellipse class="st5" cx="79.6" cy="40.7" rx="1.1" ry="1.2"/>
				</g>
				<g>
					<ellipse class="st5" cx="78.9" cy="44.3" rx="0.3" ry="0.4"/>
				</g>
				<g>
					<ellipse class="st4" cx="94.1" cy="40.4" rx="0.5" ry="0.5"/>
				</g>
				<g>
					<ellipse class="st4" cx="93.7" cy="41.5" rx="0.9" ry="1"/>
				</g>
				<g>
					<ellipse class="st4" cx="116.5" cy="38.8" rx="1.6" ry="1.8"/>
				</g>
				<g>
					<ellipse class="st5" cx="45" cy="40.4" rx="2" ry="2.2"/>
				</g>
				<g>
					<ellipse class="st4" cx="44.8" cy="40.4" rx="0.5" ry="0.7"/>
				</g>
				<g>
					<ellipse class="st5" cx="44.5" cy="38.4" rx="0.6" ry="0.7"/>
				</g>
				<g>
					<ellipse class="st5" cx="69.1" cy="27.9" rx="0.4" ry="0.4"/>
				</g>
				<g>
					<ellipse class="st5" cx="66.1" cy="30.6" rx="1" ry="1.1"/>
				</g>
				<g>
					<ellipse class="st5" cx="76.6" cy="28" rx="0.8" ry="0.9"/>
				</g>
				<g>
					<ellipse class="st5" cx="39.7" cy="27" rx="0.7" ry="1.1"/>
				</g>
				<g>
					<ellipse class="st5" cx="118.4" cy="23.5" rx="1.3" ry="1.7"/>
				</g>
				<g>
					<ellipse class="st5" cx="116.6" cy="22.3" rx="1.2" ry="1.3"/>
				</g>
				<g>
					<ellipse class="st4" cx="118.8" cy="23.3" rx="0.3" ry="0.3"/>
				</g>
				<g>
					<ellipse class="st4" cx="118.6" cy="23.1" rx="0.2" ry="0.2"/>
				</g>
				<g>
					<ellipse class="st5" cx="55" cy="51.2" rx="3.9" ry="4.3"/>
				</g>
				<g>
					<ellipse class="st5" cx="52.5" cy="47.1" rx="1.4" ry="1.6"/>
				</g>
				<g>
					<ellipse class="st6" cx="108.1" cy="34.1" rx="1" ry="1.1"/>
				</g>
				<g>
					<ellipse class="st4" cx="59.5" cy="37.4" rx="1.7" ry="1.9"/>
				</g>
				<g>
					<ellipse class="st4" cx="56.7" cy="35.6" rx="0.7" ry="0.8"/>
				</g>
				<g>
					<path class="st7" d="M120.9,23.5c-0.2,0-0.4-0.1-0.5-0.3l-0.4-0.8c-0.3-0.6-0.8-1.2-1.2-1.7c-0.2-0.2-0.2-0.5,0-0.8
						c0.2-0.2,0.5-0.2,0.8,0c0.6,0.6,1,1.2,1.4,1.9l0.4,0.8c0.1,0.3,0,0.6-0.2,0.7C121,23.5,121,23.5,120.9,23.5z"/>
				</g>
				<g>
					<path class="st7" d="M117.7,19.8c-0.1,0-0.2,0-0.3-0.1c-0.4-0.2-0.7-0.4-1.1-0.6c-0.3-0.1-0.4-0.4-0.3-0.7
						c0.1-0.3,0.4-0.4,0.7-0.3c0.4,0.2,0.9,0.4,1.3,0.7c0.2,0.2,0.3,0.5,0.2,0.7C118.1,19.7,117.9,19.8,117.7,19.8z"/>
				</g>
				<g>
					<path class="st7" d="M91.9,25.8c-0.1,0-0.2,0-0.2-0.1l-1.3-0.7c-0.3-0.1-0.4-0.5-0.2-0.7c0.1-0.3,0.5-0.4,0.7-0.2l1.3,0.7
						c0.3,0.1,0.4,0.5,0.2,0.7C92.3,25.7,92.1,25.8,91.9,25.8z"/>
				</g>
				<g>
					<path class="st7" d="M39.7,12.8c-0.3,0-0.5-0.2-0.5-0.5l0-0.2c0-0.3-0.1-0.5-0.2-0.7c-0.1-0.3,0-0.6,0.2-0.7
						c0.3-0.1,0.6,0,0.7,0.2c0.2,0.3,0.3,0.7,0.4,1.1l0,0.2C40.3,12.5,40.1,12.8,39.7,12.8C39.8,12.8,39.8,12.8,39.7,12.8z"/>
				</g>
				<g>
					<path class="st7" d="M38.4,10.7c-0.1,0-0.2,0-0.3-0.1c-0.2-0.1-0.4-0.2-0.6-0.3c-0.3-0.1-0.5-0.4-0.4-0.7
						c0.1-0.3,0.4-0.4,0.6-0.4l0,0c0.3,0.1,0.6,0.2,0.9,0.4c0.2,0.2,0.3,0.5,0.2,0.7C38.8,10.6,38.6,10.7,38.4,10.7z"/>
				</g>
				<g>
					<path class="st7" d="M71.7,26.1C71.7,26.1,71.7,26.1,71.7,26.1L70.3,26c-0.3,0-0.5-0.3-0.5-0.6c0-0.3,0.3-0.5,0.6-0.5l1.4,0.1
						c0.3,0,0.5,0.3,0.5,0.6C72.2,25.9,72,26.1,71.7,26.1z"/>
				</g>
				<g>
					<path class="st7" d="M66.7,26.2c-0.3,0-0.5-0.2-0.5-0.5c0-0.3,0.2-0.6,0.4-0.6c0.7-0.1,1.4-0.2,2.1-0.2c0.3,0,0.5,0.2,0.5,0.5
						c0,0.3-0.2,0.5-0.5,0.5C68.1,26,67.4,26.1,66.7,26.2C66.8,26.2,66.8,26.2,66.7,26.2z"/>
				</g>
				<g>
					<path class="st7" d="M63.3,27.1c-0.2,0-0.4-0.1-0.5-0.4c-0.1-0.3,0.1-0.6,0.4-0.7l1.6-0.5c0.3-0.1,0.6,0.1,0.7,0.4
						c0.1,0.3-0.1,0.6-0.4,0.7L63.5,27C63.4,27,63.4,27.1,63.3,27.1z"/>
				</g>
			</g>
			<g>
				<g>
					<path class="st8" d="M141,43.2c2.1,4.6,3.9,9.5,5.1,14.6c1.7,6.7,4.8,13.8,4.8,21.1c0,21.4-3.2,40.8-15.8,55.1
						c-13.3,15.2-29.2,24.6-56.3,24.6c-26.1,0-44.8-10.4-58.3-26.9C9.2,117.6,6.8,99.1,6.8,78.9c0-7.7,3.3-15.1,5.1-22.2
						c1.3-5.1,3.1-9.9,5.3-14.5"/>
					<path class="st1" d="M78.9,159.7c-24.5,0-44.4-9.2-59.1-27.3C7.4,117.1,5.7,96.7,5.7,78.9c0-5.7,1.7-11.3,3.4-16.6
						c0.6-2,1.2-3.9,1.7-5.8c1.3-5.1,3.2-10,5.4-14.7l1.9,0.9C16,47.2,14.3,52,12.9,57c-0.5,2-1.2,4-1.8,5.9
						c-1.6,5.2-3.3,10.6-3.3,16c0,17.5,1.6,37.4,13.6,52.1c14.3,17.6,33.6,26.5,57.4,26.5c24,0,40.6-7.3,55.5-24.3
						c10.7-12.2,15.5-29,15.5-54.4c0-5-1.5-9.9-3-14.7c-0.6-2-1.3-4.1-1.8-6.1c-1.2-5-3-9.8-5.1-14.4l1.9-0.9
						c2.2,4.7,3.9,9.7,5.2,14.8c0.5,2,1.1,3.9,1.8,6c1.5,4.9,3.1,10,3.1,15.3c0,26-4.9,43.2-16,55.8
						C120.6,152.2,103.5,159.7,78.9,159.7z"/>
				</g>
				<g>
					<path class="st9" d="M14.1,121.2c1.8,3.7,3.9,7.2,6.6,10.4c13.4,16.5,32.2,26.9,58.3,26.9c27.1,0,43-9.5,56.3-24.6l-22.6,5
						c-33.8,7.6-51.1,6.3-88-11.3L14.1,121.2z"/>
				</g>
				<g>
					<path class="st10" d="M14.1,49.8c8.1,5.2,34.1,8.9,64.9,8.9c9.3,0,18.2-0.3,26.3-1l5.8-4.7l3.9,3.7c13.6-1.6,23.9-4,28.7-6.9
						l-4.1-9.2L17.9,40L14.1,49.8z"/>
				</g>
				<g>
					<path class="st1" d="M78.9,159.7c-24.5,0-44.4-9.2-59.1-27.3C7.4,117.1,5.7,96.7,5.7,78.9c0-5.7,1.7-11.3,3.4-16.6
						c0.6-2,1.2-3.9,1.7-5.8c1.3-5.1,3.2-10,5.4-14.7l1.9,0.9C16,47.2,14.3,52,12.9,57c-0.5,2-1.2,4-1.8,5.9
						c-1.6,5.2-3.3,10.6-3.3,16c0,17.5,1.6,37.4,13.6,52.1c14.3,17.6,33.6,26.5,57.4,26.5c24,0,40.6-7.3,55.5-24.3
						c10.7-12.2,15.5-29,15.5-54.4c0-5-1.5-9.9-3-14.7c-0.6-2-1.3-4.1-1.8-6.1c-1.2-5-3-9.8-5.1-14.4l1.9-0.9
						c2.2,4.7,3.9,9.7,5.2,14.8c0.5,2,1.1,3.9,1.8,6c1.5,4.9,3.1,10,3.1,15.3c0,26-4.9,43.2-16,55.8
						C120.6,152.2,103.5,159.7,78.9,159.7z"/>
				</g>
			</g>
			<g>
				<path class="st8" d="M143.6,34.8c-11.1,4.7-32.9,7-64.6,7c-32.7,0-53.3-2.3-64.9-6.7c-2.5-0.9-4.8-1.4-4.1,1.6l1.4,6.4
					c0,6.8,30.2,12.4,67.6,12.4c9.3,0,18.2-0.3,26.3-1l5.8-4.7l3.9,3.7c18.9-2.2,31.5-6,31.5-10.4l1.3-5.7
					C148.5,34.4,146.1,33.8,143.6,34.8z"/>
				<path class="st1" d="M79,56.5c-33.1,0-68.3-4.7-68.6-13.3L9,37c-0.3-1.4-0.1-2.4,0.6-3.1c1.2-1,3.1-0.5,4.9,0.2
					c11.6,4.5,32.7,6.7,64.5,6.7c31.6,0,53.2-2.3,64.2-6.9l0,0c1.9-0.8,3.7-0.7,4.8,0.2c0.7,0.6,1.4,1.6,0.9,3.7l-1.2,5.5
					c-0.3,6.7-20.4,10-32.5,11.4l-0.5,0.1l-3.6-3.4l-5.3,4.3l-0.3,0C97.1,56.2,88.2,56.5,79,56.5z M11,35.5c0,0-0.1,0.2,0.1,1
					l1.5,6.6c0,5.3,27.3,11.3,66.5,11.3c9,0,17.7-0.3,25.9-0.9l6.3-5l4.2,4c20.8-2.4,30.1-6.4,30.1-9.3l0-0.2l1.3-5.7
					c0.1-0.4,0.2-1.2-0.2-1.6c-0.4-0.3-1.3-0.4-2.6,0.1c-11.2,4.7-33.1,7.1-65,7.1c-32,0-53.4-2.2-65.3-6.8
					C11.5,35.3,11,35.5,11,35.5z"/>
			</g>
			<g>
				<path class="st0" d="M147.9,33c0,4.8-30.9,8.7-69,8.7S10,37.8,10,33h11.7c0,1.9,25.6,3.4,57.3,3.4s57.3-1.5,57.3-3.4H147.9z"/>
			</g>
			<g>
				<path class="st1" d="M79,42.8c-18.5,0-35.8-0.9-48.9-2.6C8.9,37.5,8.9,34.2,8.9,33H11c0,0,0.5,2.7,19.3,5.1
					c13,1.6,30.3,2.5,48.7,2.5s35.7-0.9,48.7-2.5c18.8-2.4,19.3-5.1,19.3-5.1h2.1c0,1.2,0,4.6-21.1,7.2
					C114.8,41.9,97.4,42.8,79,42.8z"/>
			</g>
			<g>
				<path class="st1" d="M79,37.4c-15.3,0-29.7-0.4-40.5-1c-17.8-1-17.8-2.3-17.8-3.4c0-0.6,0.5-1.1,1.1-1.1c0.4,0,0.7,0.2,0.9,0.5
					c2.4,1.2,22.8,2.8,56.3,2.8s53.9-1.6,56.3-2.8c0.2-0.3,0.5-0.5,0.9-0.5c0.6,0,1.1,0.5,1.1,1.1c0,1.2,0,2.4-17.8,3.4
					C108.7,37.1,94.3,37.4,79,37.4z"/>
			</g>
			<g>
				<g>
					<polygon class="st11" points="88,186 88.6,179.4 86.8,171.8 82.4,167.1 82.2,174.4 84,179.9 					"/>
					<path class="st1" d="M88.8,189.2l-5.8-8.9l-1.9-5.6l0.3-10.1l6.4,6.8l1.9,8.1L88.8,189.2z M85,179.4l2.2,3.4l0.3-3.3l-1.7-7.2
						l-2.5-2.6l-0.1,4.6L85,179.4z"/>
				</g>
				<g>
					<polygon class="st11" points="69.8,167.1 70.4,173.6 68.7,181.3 64.2,186 64,178.6 65.9,173.2 					"/>
					<path class="st1" d="M63.2,188.6l-0.3-10.1l2-5.9l5.7-8.7l0.9,9.8l-1.9,8.1L63.2,188.6z M65.1,178.8l0.1,4.6l2.5-2.6l1.7-7.2
						l-0.3-3.3l-2.2,3.4L65.1,178.8z"/>
				</g>
				<g>
					<path class="st11" d="M84.1,139.5c-0.1,0-0.1,0-0.2,0c-4.9,1-9.9,1-14.7,0l-0.2,0c-2.5-0.5-4.8,1.5-4.5,4.1l0.4,16.4l5.1,17.5
						c0.7,2.6,2.3,4.5,4.2,5l0.2,2l1.1,5.2l1,4.5l1-4.2l1.3-5.5l0.2-2c1.9-0.5,3.6-2.4,4.2-5l5.1-17.5l0.4-16.4
						C88.9,141.1,86.6,139,84.1,139.5z"/>
					<path class="st1" d="M76.5,199l-3.2-14.4l-0.1-1.3c-2-0.8-3.6-2.9-4.3-5.5L63.8,160l-0.4-16.4c-0.1-1.5,0.4-3,1.6-4
						s2.7-1.5,4.2-1.2l0.2,0c4.7,0.9,9.6,0.9,14.3,0l0.2,0c1.5-0.3,3.1,0.1,4.2,1.2c1.2,1,1.7,2.5,1.6,4.1l-0.4,16.6l-5.1,17.5
						c-0.7,2.6-2.3,4.6-4.2,5.4l-0.1,1.5L76.5,199z M75.4,184.3l1.1,5l1.2-5l0.2-2.7l0.7-0.2c1.6-0.4,2.9-2,3.5-4.2l5.1-17.4
						l0.4-16.3c0.1-0.9-0.2-1.8-0.9-2.4c-0.6-0.6-1.5-0.8-2.4-0.6l-0.1,0c-5.1,1-10.2,1-15.2,0l-0.2,0c-0.9-0.2-1.7,0.1-2.4,0.7
						c-0.6,0.6-1,1.4-0.9,2.3l0.4,16.3l5.1,17.4c0.6,2.2,1.9,3.8,3.5,4.2l0.7,0.2L75.4,184.3z"/>
				</g>
			</g>
			<g>
				<g>
					<polygon class="st11" points="10.2,153.5 10.7,159 9.2,165.3 5.5,169.2 5.3,163.1 6.9,158.6 					"/>
					<path class="st1" d="M4.5,171.8l-0.3-8.9l1.7-5l5-7.7l0.8,8.7l-1.6,6.8L4.5,171.8z M6.4,163.3l0.1,3.4l1.7-1.8l1.4-5.9
						l-0.2-2.2L7.8,159L6.4,163.3z"/>
				</g>
				<g>
					<path class="st11" d="M28.9,140.8l-1-15.5c-0.1-2.1-2.2-3.5-4.2-2.8l-7.1,2.5l-7.1,15v22.6h4.3l0.2,2.3l1,4.3l0.8,3.7l0.8-3.5
						l1.1-4.6l0.4-4.6L28.9,140.8z"/>
					<path class="st1" d="M15.6,177.8L12.8,165l-0.1-1.3H8.3v-23.9l7.4-15.6l7.5-2.7c1.3-0.4,2.6-0.3,3.7,0.5
						c1.1,0.7,1.8,1.9,1.9,3.3l1,15.8l-11,19.6l-0.4,4.6L15.6,177.8z M14.9,164.8l0.7,3.4l0.8-3.4l0.4-4.8l11-19.4l-1-15.2
						c0-0.7-0.4-1.3-0.9-1.6c-0.6-0.4-1.2-0.4-1.9-0.2l-6.7,2.4l-6.8,14.3v21.3h4.2L14.9,164.8z"/>
				</g>
			</g>
			<g>
				<g>
					<polygon class="st11" points="149.2,152.4 148.8,157.8 150.2,164.2 153.9,168.1 154.1,162 152.5,157.4 					"/>
					<path class="st1" d="M154.9,170.7l-5.6-6l-1.6-6.8l0.8-8.7l5.1,7.9l1.6,4.7L154.9,170.7z M151.2,163.7l1.7,1.8l0.1-3.4
						l-1.4-4.2l-1.6-2.4l-0.2,2.2L151.2,163.7z"/>
				</g>
				<g>
					<path class="st11" d="M150,138.9l-7.1-15l-7.1-2.5c-2-0.7-4.1,0.7-4.2,2.8l-1,15.5l11,19.5l0.4,4.6l1.1,4.6l0.8,3.5l0.8-3.7
						l1-4.3l0.2-2.3h4.3V138.9z"/>
					<path class="st1" d="M143.8,176.7l-3-12.8l-0.4-4.4l-11-19.6l1-15.8c0.1-1.3,0.8-2.5,1.9-3.3c1.1-0.7,2.5-0.9,3.7-0.5l7.5,2.7
						l7.4,15.6v23.9h-4.3l-0.1,1.5L143.8,176.7z M143,163.6l0.8,3.4l0.7-3.4l0.3-3.2h4.2v-21.3l-6.8-14.3l-6.7-2.4
						c-0.6-0.2-1.3-0.1-1.9,0.2c-0.6,0.4-0.9,1-0.9,1.6l-1,15.2l11,19.4L143,163.6z"/>
				</g>
			</g>
			<g>
				<path class="st12" d="M141.7,74C141.7,74,141.7,74,141.7,74c-0.6,0-1.1-0.5-1.1-1.1c0-1.1,0-2.2,0-3.2c0-0.6,0.4-1.1,1-1.1
					c0.6,0,1.1,0.4,1.1,1c0,1.1,0,2.2,0,3.4C142.8,73.5,142.3,74,141.7,74z"/>
			</g>
			<g>
				<path class="st12" d="M140.8,64.6c-0.5,0-1-0.4-1.1-1c-0.2-2.3-0.6-4.5-1-6.7c-0.1-0.6,0.3-1.1,0.8-1.3c0.6-0.1,1.1,0.3,1.3,0.8
					c0.5,2.3,0.8,4.6,1,7c0.1,0.6-0.4,1.1-1,1.2C140.9,64.6,140.8,64.6,140.8,64.6z"/>
			</g>
			<g>
				<path class="st12" d="M124.7,49.3c-0.5,0-1-0.4-1.1-0.9c-0.1-0.6,0.3-1.1,0.9-1.2l0.5-0.1c3-0.4,6-1,8.9-1.8
					c0.6-0.1,1.2,0.2,1.3,0.8c0.1,0.6-0.2,1.2-0.8,1.3c-3,0.8-6.1,1.4-9.1,1.8l-0.5,0.1C124.8,49.3,124.8,49.3,124.7,49.3z"/>
			</g>
			<g>
				<path class="st12" d="M139,46.1c-0.5,0-0.9-0.3-1-0.7c-0.2-0.6,0.1-1.2,0.7-1.3c1.3-0.4,2.6-0.9,3.9-1.4
					c0.6-0.2,1.2,0.1,1.4,0.6c0.2,0.6-0.1,1.2-0.6,1.4c-1.3,0.5-2.7,1-4,1.4C139.2,46,139.1,46.1,139,46.1z"/>
			</g>
		</g>
		<g>
			<g>
				<polygon class="st13" points="4.9,77.3 2.9,88.1 5,97.7 78.9,106.5 152.2,96.3 154.1,87.9 153.3,78.7 78.5,80.4 				"/>
				<path class="st1" d="M78.9,107.6L4.2,98.7L1.9,88.2L4,76.2l74.5,3.1l75.7-1.7l0.9,10.4l-2.1,9.3L78.9,107.6z M5.9,96.7l73,8.7
					l72.4-10.1l1.7-7.5l-0.7-8.1l-73.8,1.7l-72.8-3L4,88.1L5.9,96.7z"/>
			</g>
			<g>
				<g>
					<path class="st14" d="M92.7,116.4H65.4c-0.7,0-1.3-0.6-1.3-1.3v-42c0-0.7,0.6-1.3,1.3-1.3h27.3c0.7,0,1.3,0.6,1.3,1.3v42
						C94,115.8,93.4,116.4,92.7,116.4z"/>
					<path class="st1" d="M91,117.5H67c-2.3,0-4.1-1.8-4.1-4.1V74.8c0-2.3,1.8-4.1,4.1-4.1H91c2.3,0,4.1,1.8,4.1,4.1v38.6
						C95.1,115.6,93.2,117.5,91,117.5z M67,72.8c-1.1,0-2,0.9-2,2v38.6c0,1.1,0.9,2,2,2H91c1.1,0,2-0.9,2-2V74.8c0-1.1-0.9-2-2-2H67
						z"/>
				</g>
				<g>
					<path class="st15" d="M90.1,94.7c-0.6,0-1.1-0.5-1.1-1.1v-3.4c0-0.6,0.5-1.1,1.1-1.1c0.6,0,1.1,0.5,1.1,1.1v3.4
						C91.1,94.2,90.6,94.7,90.1,94.7z"/>
				</g>
				<g>
					<path class="st15" d="M90.1,87.1c-0.6,0-1.1-0.5-1.1-1.1v-7c0-0.6,0.5-1.1,1.1-1.1c0.6,0,1.1,0.5,1.1,1.1v7
						C91.1,86.6,90.6,87.1,90.1,87.1z"/>
				</g>
				<g class="st16">
					<line class="st14" x1="68" y1="79.5" x2="78.5" y2="79.5"/>
					<path class="st1" d="M78.5,80.5H68c-0.6,0-1.1-0.5-1.1-1.1c0-0.6,0.5-1.1,1.1-1.1h10.5c0.6,0,1.1,0.5,1.1,1.1
						C79.6,80,79.1,80.5,78.5,80.5z"/>
				</g>
				<g class="st16">
					<line class="st14" x1="68" y1="84.8" x2="75.3" y2="84.8"/>
					<path class="st1" d="M75.3,85.9H68c-0.6,0-1.1-0.5-1.1-1.1s0.5-1.1,1.1-1.1h7.3c0.6,0,1.1,0.5,1.1,1.1S75.9,85.9,75.3,85.9z"/>
				</g>
				<g class="st16">
					<line class="st14" x1="68" y1="90.1" x2="79.6" y2="90.1"/>
					<path class="st1" d="M79.6,91.2H68c-0.6,0-1.1-0.5-1.1-1.1s0.5-1.1,1.1-1.1h11.6c0.6,0,1.1,0.5,1.1,1.1S80.2,91.2,79.6,91.2z"
						/>
				</g>
				<g class="st16">
					<line class="st14" x1="68" y1="95.4" x2="78.5" y2="95.4"/>
					<path class="st1" d="M78.5,96.5H68c-0.6,0-1.1-0.5-1.1-1.1c0-0.6,0.5-1.1,1.1-1.1h10.5c0.6,0,1.1,0.5,1.1,1.1
						C79.6,96,79.1,96.5,78.5,96.5z"/>
				</g>
				<g class="st16">
					<line class="st14" x1="68" y1="100.8" x2="78.5" y2="100.8"/>
					<path class="st1" d="M78.5,101.8H68c-0.6,0-1.1-0.5-1.1-1.1s0.5-1.1,1.1-1.1h10.5c0.6,0,1.1,0.5,1.1,1.1S79.1,101.8,78.5,101.8
						z"/>
				</g>
				<g class="st16">
					<line class="st14" x1="68" y1="106.1" x2="73.2" y2="106.1"/>
					<path class="st1" d="M73.2,107.2H68c-0.6,0-1.1-0.5-1.1-1.1s0.5-1.1,1.1-1.1h5.2c0.6,0,1.1,0.5,1.1,1.1S73.8,107.2,73.2,107.2z
						"/>
				</g>
			</g>
		</g>
	</g>
</g>
</svg>
