<?xml version="1.0" encoding="utf-8"?>
<!-- Generator: Adobe Illustrator 27.0.0, SVG Export Plug-In . SVG Version: 6.00 Build 0)  -->
<svg version="1.1" id="Lag_1" xmlns="http://www.w3.org/2000/svg" xmlns:xlink="http://www.w3.org/1999/xlink" x="0px" y="0px"
	 viewBox="0 0 221 114" style="enable-background:new 0 0 221 114;" xml:space="preserve">
<style type="text/css">
	.st0{fill:#593927;}
	.st1{fill:#2D2521;}
	.st2{fill:#442C20;}
	.st3{fill:#6D4632;}
	.st4{fill:#C4C0B8;}
	.st5{fill:#DBD6CA;}
	.st6{opacity:0.63;}
	.st7{fill:#CCC2B4;}
	.st8{fill:#DDD4CA;}
	.st9{fill:#EDE6DF;}
	.st10{fill:#BA6450;}
	.st11{opacity:0.55;}
	.st12{fill:#110B09;}
	.st13{opacity:0.51;}
	.st14{opacity:0.69;}
	.st15{fill:#996E44;}
	.st16{fill:#EDDACC;}
	.st17{fill:#C18274;}
	.st18{fill:#E1EDEF;}
	.st19{fill:#AD804B;}
	.st20{fill:#E8B7AF;}
	.st21{fill:#FFFFFF;}
	.st22{clip-path:url(#SVGID_00000010291753579467928510000016390195675577863345_);}
	.st23{opacity:0.19;fill:#83BADD;}
	.st24{fill:#6A8C9B;}
	.st25{fill:#85A8B5;}
	.st26{fill:none;stroke:#D8E7EF;stroke-width:3;stroke-linecap:round;stroke-miterlimit:10;}
</style>
<g>
	<g>
		<g>
			<g>
				<path class="st0" d="M87.2,110.2L87.2,110.2c6.6,2.6,13.9,2.9,20.6,0.8l0.8-0.2c0.2-0.1,0.4-0.3,0.4-0.5l-1.7-58.4L90,51.8
					l-3.1,57.9C86.8,109.9,87,110.1,87.2,110.2z"/>
				<path class="st1" d="M98.7,113.1c-4,0-8-0.8-11.7-2.3c-0.5-0.2-0.8-0.7-0.8-1.2l3.1-58.5l18.7,0.1l1.8,59.1
					c0,0.6-0.3,1.1-0.9,1.2l-0.8,0.2C105,112.6,101.8,113.1,98.7,113.1z M87.6,109.6c6.4,2.5,13.5,2.8,20,0.7l0.7-0.2l-1.7-57.5
					l-15.9-0.1L87.6,109.6z"/>
			</g>
			<g>
				<path class="st2" d="M86.8,107.2l0.4,0.1c6.6,2.6,13.9,2.9,20.6,0.8l1.2-0.4L107.3,49L90,48.9L86.8,107.2z"/>
			</g>
			<g>
				<g>
					<path class="st3" d="M86.9,109.7L4.5,77c-1.9-0.7-3.1-2.6-3-4.6l1.8-60.9c0.1-3.1,3.1-5.3,6.1-4.4L95,32.5L86.9,109.7z"/>
					<path class="st1" d="M87.5,110.7l-83.2-33c-2.1-0.8-3.5-2.9-3.4-5.2l1.8-60.9c0.1-1.7,0.9-3.3,2.3-4.3C6.3,6.3,8,6,9.7,6.5
						l86.1,25.5L87.5,110.7z M8.1,7.7c-0.8,0-1.7,0.3-2.3,0.8c-1,0.7-1.6,1.9-1.7,3.1L2.3,72.5c-0.1,1.7,1,3.2,2.5,3.9l81.5,32.3
						L94.2,33L9.3,7.8C8.9,7.7,8.5,7.7,8.1,7.7z"/>
				</g>
				<g>
					<path class="st0" d="M87.2,105L8.6,73.9c-1.8-0.7-2.9-2.4-2.9-4.3l1.8-58.2c0.1-3,3-5,5.8-4.2L95,31.3L87.2,105z"/>
				</g>
			</g>
			<g>
				<g>
					<path class="st3" d="M108.1,110.3l82.3-32.6c1.9-0.7,3.1-2.6,3-4.6l-1.8-60.9c-0.1-3.1-3.1-5.3-6.1-4.4l-85.5,25.3L108.1,110.3
						z"/>
					<path class="st1" d="M107.5,111.3l-8.3-78.7l86.1-25.5c1.6-0.5,3.4-0.2,4.8,0.8c1.4,1,2.2,2.6,2.3,4.3l1.8,60.9
						c0.1,2.3-1.3,4.4-3.4,5.2L107.5,111.3z M100.8,33.6l7.9,75.7L190.2,77c1.6-0.6,2.6-2.2,2.5-3.9l-1.8-60.9
						c0-1.3-0.6-2.4-1.7-3.1c-1-0.7-2.3-1-3.5-0.6L100.8,33.6z"/>
				</g>
				<g>
					<path class="st0" d="M107.8,105.7l78.6-31.2c1.8-0.7,2.9-2.4,2.9-4.3L187.5,12c-0.1-3-3-5-5.8-4.2L100.1,32L107.8,105.7z"/>
				</g>
			</g>
		</g>
		<g>
			<g>
				<path class="st4" d="M108.2,71.6l0.1-29.8l11.2-10.4c5-4.7,11.2-7.9,17.9-9.4l0,0c3.2-0.7,6.4-1,9.7-0.9l6.3,0.2
					c4,0.1,7.9-0.3,11.7-1.3l1.3-12.9l10.1-5.1l2.4,0.6l1.5,0.8l1.4,2.2l2.2-0.3l0.9,2.5l2-0.7l-0.9,9.8l0,0l-1.4,13
					c-0.9,8-0.9,16,0,24l2.1,19.1L176.7,79c-2.4,1.5-5,2.7-7.7,3.6h0c-5.1,1.8-10.4,2.7-15.8,2.5L147,85c-3.3-0.1-6.5,0.2-9.7,0.9
					c-6.7,1.5-12.9,4.8-17.9,9.4l-11.2,10.4l-10.4-8l0-25.5L108.2,71.6z"/>
				<path class="st1" d="M108.2,106.7L97,98.1l0-26.5l10.4-0.6l0.1-29.5L119,30.9c5.1-4.7,11.4-8.1,18.3-9.6c3.2-0.7,6.6-1,9.9-1
					l6.3,0.2c3.7,0.1,7.4-0.3,11.1-1.1l1.3-12.8l10.7-5.4l2.8,0.8l1.7,0.9l1.3,2l2.4-0.3l0.8,2.3l2.4-0.9l-1,10.9l-1.4,13
					c-0.9,7.9-0.9,15.9,0,23.8l2.2,19.6l-10.5,6.3c-2.5,1.5-5.1,2.7-7.8,3.7c-5.2,1.8-10.6,2.7-16,2.5l-6.3-0.2
					c-3.2-0.1-6.4,0.2-9.5,0.9c-6.6,1.5-12.7,4.7-17.6,9.3L108.2,106.7z M98.4,97.4l9.6,7.4l10.8-10c5.1-4.7,11.4-8.1,18.3-9.6
					c3.2-0.7,6.6-1,9.9-1l6.3,0.2c5.3,0.2,10.5-0.7,15.5-2.5c2.6-0.9,5.2-2.1,7.5-3.6l9.7-5.8L184,53.9c-0.9-8-0.9-16.1,0-24.2
					l1.4-13l0.8-8.6l-1.6,0.6l-0.9-2.6l-2.1,0.3L180,4l-1.3-0.7l-2-0.5l-9.5,4.8l-1.3,13l-0.5,0.1c-3.9,1-7.9,1.4-11.9,1.3l-6.3-0.2
					c-3.2-0.1-6.4,0.2-9.5,0.9c-6.6,1.5-12.7,4.7-17.6,9.3l-11,10.2l-0.1,30.2L98.5,73L98.4,97.4z M108.2,71.6L108.2,71.6
					L108.2,71.6z"/>
			</g>
			<g>
				<polyline class="st5" points="176.4,64.9 178.8,66.9 179.3,68.2 182.2,68.3 182.5,70.6 185.2,71.7 186.8,73 				"/>
				<path class="st1" d="M186.8,73.7c-0.2,0-0.3,0-0.4-0.2l-1.6-1.2l-2.9-1.1l-0.3-2.2l-2.8-0.1l-0.6-1.6l-2.2-1.8
					c-0.3-0.3-0.3-0.7-0.1-1c0.3-0.3,0.7-0.3,1-0.1l2.5,2.1l0.4,1l3,0.1l0.4,2.5l2.5,1l1.7,1.3c0.3,0.2,0.4,0.7,0.1,1
					C187.3,73.6,187.1,73.7,186.8,73.7z"/>
			</g>
			<g>
				<path class="st5" d="M98.1,97.4l10.8-10c5-4.7,11.2-7.9,17.9-9.4l0,0c3.2-0.7,6.4-1,9.7-0.9l6.3,0.2c5.4,0.2,10.7-0.7,15.8-2.5
					l0,0c2.7-1,5.2-2.2,7.7-3.6l10.1-6.1l-2.1-19.1c-0.9-8-0.9-16,0-24l2.2-19.9l-10.1,5.1c-2.4,1.5-5,2.7-7.7,3.6l0,0
					c-5.1,1.8-10.4,2.7-15.8,2.5l-6.3-0.2c-3.3-0.1-6.5,0.2-9.7,0.9l0,0c-6.7,1.5-12.9,4.8-17.9,9.4L97.8,33.8l-0.1,63.4
					C97.7,97.4,98,97.5,98.1,97.4z"/>
				<path class="st1" d="M98,98.2c-0.1,0-0.3,0-0.4-0.1c-0.3-0.2-0.6-0.5-0.6-0.9l0.1-63.7l11.5-10.6c5.1-4.7,11.4-8.1,18.3-9.6
					c3.2-0.7,6.6-1.1,9.9-1l6.3,0.2c5.3,0.2,10.5-0.7,15.5-2.5c2.6-0.9,5.2-2.1,7.5-3.6l11.3-5.7L175,21.9c-0.9,7.9-0.9,15.9,0,23.8
					l2.2,19.6l-10.5,6.3c-2.5,1.5-5.1,2.7-7.8,3.7c-5.2,1.8-10.6,2.7-16,2.5l-6.3-0.2c-3.2-0.1-6.4,0.2-9.5,0.9
					c-6.6,1.5-12.7,4.7-17.6,9.3l-10.8,10C98.4,98.1,98.2,98.2,98,98.2z M98.1,97.4L98.1,97.4L98.1,97.4z M98.6,34.1l-0.1,62l10-9.3
					c5.1-4.7,11.4-8.1,18.3-9.6c3.2-0.7,6.6-1.1,9.9-1l6.3,0.2c5.3,0.2,10.5-0.7,15.5-2.5c2.6-0.9,5.2-2.1,7.5-3.6l9.7-5.8
					l-2.1-18.7c-0.9-8-0.9-16.1,0-24.2l2.1-18.5l-8.9,4.5c-2.4,1.5-5,2.7-7.8,3.7c-5.2,1.8-10.6,2.7-16,2.5l-6.3-0.2
					c-3.2-0.1-6.4,0.2-9.5,0.9c-6.6,1.5-12.7,4.7-17.6,9.3L98.6,34.1z"/>
			</g>
			<g class="st6">
				<path class="st7" d="M162.9,16.4l-15.1,3.3c-0.6,0.1-1.2,0.2-1.8,0.3l-16.8,2.5c-5,0.7-9.7,2.6-13.8,5.4l-4.8,3.3
					c-3.3,2.3-5.4,6-5.5,10l-0.5,18.2l-0.5,18.2c-0.1,1.8,1.4,3.4,3.2,3.4l0,0c0.7,0,1.3-0.2,1.9-0.5l9.8-6.1
					c3.4-2.1,7.4-3.1,11.4-2.9l7.3,0.5c3.2,0.2,6.4-0.2,9.5-1.2l10.9-3.5l5.3-1.9c3.7-1.3,6.1-4.7,6.2-8.6l0.1-5
					c0.2-7.5-0.2-15.1-1.2-22.5l-1.4-10.3C166.6,17.2,164.8,15.9,162.9,16.4z"/>
			</g>
			<g class="st6">
				<path class="st8" d="M158.7,21.6L146,24.4c-0.5,0.1-1,0.2-1.5,0.3l-14.1,2.1c-4.2,0.6-8.1,2.2-11.6,4.5l-4.1,2.7
					c-2.8,1.9-4.5,5-4.6,8.4l-0.4,15.2l-0.4,15.2c0,1.5,1.2,2.8,2.7,2.9l0,0c0.6,0,1.1-0.1,1.6-0.4l8.2-5.1c2.9-1.8,6.2-2.6,9.6-2.4
					l6.1,0.4c2.7,0.2,5.4-0.2,7.9-1l9.1-2.9l4.5-1.6c3.1-1.1,5.1-3.9,5.2-7.2l0.1-4.2c0.2-6.3-0.2-12.6-1-18.9l-1.2-8.6
					C161.8,22.3,160.3,21.2,158.7,21.6z"/>
			</g>
			<g class="st6">
				<path class="st9" d="M154.1,27.4l-10,2.2c-0.4,0.1-0.8,0.2-1.2,0.2l-11.1,1.7c-3.3,0.5-6.4,1.7-9.1,3.6l-3.2,2.2
					c-2.2,1.5-3.6,4-3.6,6.6l-0.3,12l-0.3,12c0,1.2,0.9,2.2,2.1,2.3h0c0.4,0,0.9-0.1,1.2-0.3l6.5-4c2.3-1.4,4.9-2.1,7.5-1.9l4.8,0.3
					c2.1,0.1,4.2-0.1,6.2-0.8l7.2-2.3l3.5-1.2c2.4-0.8,4-3.1,4.1-5.6l0.1-3.3c0.1-5-0.1-9.9-0.8-14.9l-0.9-6.8
					C156.6,27.9,155.4,27.1,154.1,27.4z"/>
			</g>
		</g>
		<g>
			<g>
				<path class="st4" d="M87.5,71.3l-0.1-29.8L76.2,31.1c-5-4.7-11.2-7.9-17.9-9.4l0,0c-3.2-0.7-6.4-1-9.7-0.9l-6.3,0.2
					c-4,0.1-7.9-0.3-11.7-1.3L29.2,6.8L19.1,1.6l-2.4,0.6l-1.5,0.8l-1.4,2.2L11.5,5l-0.9,2.5l-2-0.7l0.9,9.8l0,0l1.4,13
					c0.9,8,0.9,16,0,24L8.8,72.6l10.1,6.1c2.4,1.5,5,2.7,7.7,3.6l0,0c5.1,1.8,10.4,2.7,15.8,2.5l6.3-0.2c3.3-0.1,6.5,0.2,9.7,0.9
					c6.7,1.5,12.9,4.8,17.9,9.4l11.2,10.4l10.4-8l0-25.5L87.5,71.3z"/>
				<path class="st1" d="M87.5,106.4L75.8,95.6c-4.9-4.6-11-7.8-17.6-9.3c-3.1-0.7-6.3-1-9.5-0.9l-6.3,0.2c-5.5,0.2-10.9-0.7-16-2.6
					c-2.7-1-5.3-2.2-7.8-3.7L8,73l2.2-19.6c0.9-7.9,0.9-15.9,0-23.8l-1.4-13l-1-10.9l2.4,0.9L11,4.2l2.4,0.3l1.3-2l1.9-1l2.7-0.7
					l10.7,5.4l1.3,12.8c3.6,0.9,7.3,1.3,11.1,1.1l6.3-0.2c3.3-0.1,6.7,0.2,9.9,1c6.8,1.5,13.1,4.9,18.3,9.6l11.5,10.6l0.1,29.5
					l10.4,0.6l0,26.5L87.5,106.4z M49.8,84c2.9,0,5.9,0.3,8.8,1c6.8,1.5,13.1,4.9,18.3,9.6l10.8,10l9.6-7.4l0-24.4L86.8,72
					l-0.1-30.2l-11-10.2c-4.9-4.6-11-7.8-17.6-9.3c-3.1-0.7-6.3-1-9.5-0.9l-6.3,0.2c-4,0.1-8-0.3-11.9-1.3l-0.5-0.1l-1.3-13L19,2.4
					l-2,0.5l-1.3,0.7L14.1,6L12,5.8l-0.9,2.6L9.5,7.8l0.8,8.7l1.4,13c0.9,8,0.9,16.1,0,24.2L9.6,72.3l9.7,5.8
					c2.4,1.4,4.9,2.6,7.5,3.6c5,1.8,10.2,2.6,15.5,2.5l6.3-0.2C49,84,49.4,84,49.8,84z"/>
			</g>
			<g>
				<polyline class="st5" points="19.2,64.6 16.8,66.6 16.4,67.9 13.5,68 13.1,70.3 10.5,71.4 8.8,72.6 				"/>
				<path class="st1" d="M8.8,73.4c-0.2,0-0.4-0.1-0.6-0.3c-0.2-0.3-0.2-0.8,0.1-1l1.8-1.4l2.3-0.9l0.4-2.5l3-0.1l0.4-1l2.5-2.1
					c0.3-0.3,0.8-0.2,1,0.1c0.3,0.3,0.2,0.8-0.1,1L17.4,67l-0.6,1.6l-2.8,0.1l-0.3,2.2L10.8,72l-1.6,1.2C9.1,73.3,9,73.4,8.8,73.4z"
					/>
			</g>
			<g>
				<path class="st5" d="M97.5,97.1L86.7,87c-5-4.7-11.2-7.9-17.9-9.4h0c-3.2-0.7-6.4-1-9.7-0.9l-6.3,0.2C47.4,77,42.1,76.2,37,74.3
					h0c-2.7-1-5.2-2.2-7.7-3.6l-10.1-6.1l2.1-19.1c0.9-8,0.9-16,0-24L19.1,1.6l10.1,5.1c2.4,1.5,5,2.7,7.7,3.6l0,0
					c5.1,1.8,10.4,2.7,15.8,2.5l6.3-0.2c3.3-0.1,6.5,0.2,9.7,0.9l0,0c6.7,1.5,12.9,4.8,17.9,9.4l11.2,10.4l0.1,63.4
					C97.9,97.1,97.7,97.2,97.5,97.1z"/>
				<path class="st1" d="M97.7,97.8c-0.2,0-0.5-0.1-0.6-0.3l0,0l-10.8-10c-4.9-4.6-11-7.8-17.6-9.3c-3.1-0.7-6.3-1-9.5-0.9l-6.3,0.2
					c-5.5,0.2-10.9-0.7-16-2.5c-2.7-1-5.3-2.2-7.8-3.7L18.4,65l2.2-19.6c0.9-7.9,0.9-15.9,0-23.8L18.3,0.4l11.3,5.7
					c2.4,1.5,5,2.7,7.6,3.6c5,1.8,10.2,2.6,15.5,2.5l6.3-0.2c3.3-0.1,6.6,0.2,9.9,1c6.8,1.5,13.1,4.9,18.3,9.6l11.5,10.6l0.1,63.7
					c0,0.4-0.2,0.7-0.6,0.9C97.9,97.8,97.8,97.8,97.7,97.8z M60.2,75.9c2.9,0,5.9,0.3,8.8,1c6.8,1.5,13.1,4.9,18.3,9.6l10,9.3
					l-0.1-62l-11-10.2c-4.9-4.6-11-7.8-17.6-9.3c-3.1-0.7-6.3-1-9.5-0.9l-6.3,0.2c-5.5,0.2-10.9-0.7-16-2.5c-2.7-1-5.3-2.2-7.8-3.7
					L20,2.9l2.1,18.5c0.9,8,0.9,16.1,0,24.2L20,64.2l9.7,5.8c2.4,1.4,4.9,2.6,7.5,3.6c5,1.8,10.2,2.6,15.5,2.5L59,76
					C59.4,75.9,59.8,75.9,60.2,75.9z"/>
			</g>
			<g class="st6">
				<path class="st7" d="M32.8,16l15.1,3.3c0.6,0.1,1.2,0.2,1.8,0.3l16.8,2.5c5,0.7,9.7,2.6,13.8,5.4l4.8,3.3c3.3,2.3,5.4,6,5.5,10
					l0.5,18.2l0.5,18.2c0.1,1.8-1.4,3.4-3.2,3.4h0c-0.7,0-1.3-0.2-1.9-0.5l-9.8-6.1c-3.4-2.1-7.4-3.1-11.4-2.9l-7.3,0.5
					c-3.2,0.2-6.4-0.2-9.5-1.2l-10.9-3.5l-5.3-1.9c-3.7-1.3-6.1-4.7-6.2-8.6l-0.1-5c-0.2-7.5,0.2-15.1,1.2-22.5l1.4-10.3
					C29,16.9,30.9,15.6,32.8,16z"/>
			</g>
			<g class="st6">
				<path class="st8" d="M36.9,21.3l12.7,2.8c0.5,0.1,1,0.2,1.5,0.3l14.1,2.1c4.2,0.6,8.1,2.2,11.6,4.5l4.1,2.7
					c2.8,1.9,4.5,5,4.6,8.4l0.4,15.2l0.4,15.2c0,1.5-1.2,2.8-2.7,2.9h0c-0.6,0-1.1-0.1-1.6-0.4L73.9,70c-2.9-1.8-6.2-2.6-9.6-2.4
					l-6.1,0.4c-2.7,0.2-5.4-0.2-7.9-1l-9.1-2.9l-4.5-1.6c-3.1-1.1-5.1-3.9-5.2-7.2l-0.1-4.2c-0.2-6.3,0.2-12.6,1-18.9l1.2-8.6
					C33.8,22,35.4,20.9,36.9,21.3z"/>
			</g>
			<g class="st6">
				<path class="st9" d="M41.5,27l10,2.2c0.4,0.1,0.8,0.2,1.2,0.2l11.1,1.7c3.3,0.5,6.4,1.7,9.1,3.6l3.2,2.2c2.2,1.5,3.6,4,3.6,6.6
					l0.3,12l0.3,12c0,1.2-0.9,2.2-2.1,2.3l0,0c-0.4,0-0.9-0.1-1.2-0.3l-6.5-4c-2.3-1.4-4.9-2.1-7.5-1.9l-4.8,0.3
					c-2.1,0.1-4.2-0.1-6.2-0.8l-7.2-2.3l-3.5-1.2c-2.4-0.8-4-3.1-4.1-5.6l-0.1-3.3c-0.1-5,0.1-9.9,0.8-14.9l0.9-6.8
					C39,27.6,40.3,26.8,41.5,27z"/>
			</g>
		</g>
		<g>
			<g>
				<path class="st10" d="M108.6,110.3c-0.4,0-0.8-0.1-1.2-0.4l-8.6-6.7c-0.6-0.5-1.5-0.5-2.1,0l-8.1,6.4c-0.8,0.7-2,0.5-2.7-0.3
					c-0.7-0.8-0.5-2.1,0.3-2.7l8.1-6.4c2-1.6,4.8-1.6,6.8,0l8.6,6.7c0.8,0.7,1,1.9,0.3,2.7C109.7,110,109.1,110.3,108.6,110.3z"/>
				<path class="st1" d="M108.6,111c-0.6,0-1.2-0.2-1.6-0.6l-8.6-6.7c-0.3-0.3-0.8-0.3-1.2,0l-8.1,6.4c-0.6,0.4-1.2,0.6-1.9,0.6
					c-0.7-0.1-1.3-0.4-1.8-1c-0.4-0.6-0.6-1.2-0.6-1.9c0.1-0.7,0.4-1.3,1-1.8l8.1-6.4c2.3-1.8,5.4-1.8,7.7,0l8.6,6.7
					c1.1,0.9,1.4,2.6,0.5,3.7C110.2,110.6,109.4,111,108.6,111z M97.7,102.1c0.5,0,1,0.2,1.5,0.5l8.6,6.7c0.5,0.4,1.3,0.3,1.7-0.2
					c0.4-0.5,0.3-1.3-0.2-1.7l-8.6-6.7c-1.8-1.4-4.2-1.4-6,0l-8.1,6.4c-0.3,0.2-0.4,0.5-0.5,0.8c0,0.3,0.1,0.6,0.3,0.9
					c0.2,0.3,0.5,0.4,0.8,0.5c0.3,0,0.6-0.1,0.9-0.3l8.1-6.4C96.7,102.3,97.2,102.1,97.7,102.1z"/>
			</g>
		</g>
	</g>
	<g class="st11">
		<path class="st12" d="M31.3,23.4l1.3-4.9l1.6,0.4l-0.5,1.9l2.4,0.6l0.5-1.9l1.6,0.4l-1.3,4.9l-1.6-0.4l0.5-2l-2.4-0.6l-0.5,2
			L31.3,23.4z"/>
		<path class="st12" d="M39.8,25.7c-0.2-0.1-0.5-0.2-0.6-0.3c-0.2-0.1-0.3-0.2-0.4-0.4c-0.1-0.1-0.2-0.3-0.2-0.4c0-0.2,0-0.3,0-0.5
			c0.1-0.4,0.4-0.6,1-0.7c0.5-0.1,1.3,0,2.4,0.2c0-0.2,0-0.3-0.1-0.4c-0.1-0.1-0.3-0.2-0.6-0.3c-0.2-0.1-0.5-0.1-0.7-0.1
			c-0.2,0-0.5,0-0.8,0.1l-0.4-0.9c0.4-0.1,0.8-0.1,1.2-0.1c0.4,0,0.8,0.1,1.2,0.2c0.7,0.2,1.2,0.5,1.5,0.8c0.3,0.4,0.4,0.8,0.2,1.4
			l-0.6,2.1l-1.3-0.3l0-0.4l0,0c-0.3,0.1-0.5,0.1-0.8,0.2C40.4,25.8,40.1,25.8,39.8,25.7z M40.6,25c0.2,0,0.3,0.1,0.5,0
			c0.1,0,0.3-0.1,0.5-0.1l0.2-0.7c-0.6-0.1-1-0.1-1.2-0.1c-0.2,0-0.4,0.1-0.4,0.3c0,0.1,0,0.2,0.1,0.3C40.2,24.9,40.4,25,40.6,25z"
			/>
		<path class="st12" d="M46.1,22.7c-0.3-0.1-0.5-0.2-0.6-0.3c-0.1-0.2-0.2-0.3-0.2-0.5c0-0.2,0.2-0.3,0.4-0.3c0.2-0.1,0.4-0.1,0.7,0
			c0.3,0.1,0.5,0.2,0.6,0.3c0.1,0.1,0.2,0.3,0.1,0.5s-0.2,0.3-0.4,0.4C46.6,22.8,46.4,22.8,46.1,22.7z M44.2,26.8l1-3.7l1.6,0.4
			l-1,3.7L44.2,26.8z"/>
		<path class="st12" d="M47.2,27.6l1-3.7l1.3,0.3l-0.1,0.7l0,0c0.3-0.2,0.5-0.3,0.9-0.4c0.3,0,0.6,0,0.9,0c0.2,0,0.3,0.1,0.4,0.1
			s0.2,0.1,0.3,0.1l-0.5,0.9c-0.1,0-0.2-0.1-0.3-0.1c-0.1,0-0.2-0.1-0.3-0.1c-0.2-0.1-0.4-0.1-0.7,0c-0.2,0-0.5,0.2-0.7,0.4L48.8,28
			L47.2,27.6z"/>
		<path class="st12" d="M56.9,30.2c-0.5-0.1-0.9-0.3-1.3-0.5c-0.4-0.2-0.7-0.5-1-0.8c-0.3-0.3-0.4-0.6-0.5-1c-0.1-0.4-0.1-0.7,0-1.2
			c0.1-0.4,0.3-0.7,0.6-1c0.3-0.3,0.6-0.5,1-0.6c0.4-0.1,0.8-0.2,1.2-0.2c0.5,0,0.9,0.1,1.4,0.2c0.5,0.1,0.9,0.3,1.3,0.5
			c0.3,0.2,0.6,0.5,0.8,0.7l-1,0.5c-0.2-0.2-0.3-0.3-0.5-0.4c-0.2-0.1-0.4-0.2-0.7-0.3C57.8,26,57.5,26,57.3,26
			c-0.2,0-0.5,0.1-0.7,0.2c-0.2,0.1-0.4,0.2-0.5,0.4c-0.1,0.2-0.2,0.4-0.3,0.6c-0.1,0.5-0.1,0.9,0.2,1.3c0.3,0.4,0.7,0.6,1.4,0.8
			c0.1,0,0.3,0.1,0.4,0.1c0.1,0,0.3,0,0.4,0l0.2-0.8l-1.2-0.3l0.2-0.9L60,28l-0.6,2.3c-0.3,0.1-0.7,0.2-1.1,0.2
			C57.9,30.4,57.4,30.3,56.9,30.2z"/>
		<path class="st12" d="M60.6,31.1l1-3.7l1.3,0.3l-0.1,0.7l0,0c0.3-0.2,0.5-0.3,0.9-0.4c0.3,0,0.6,0,0.9,0c0.2,0,0.3,0.1,0.4,0.1
			c0.1,0,0.2,0.1,0.3,0.1l-0.5,0.9c-0.1,0-0.2-0.1-0.3-0.1c-0.1,0-0.2-0.1-0.3-0.1c-0.2-0.1-0.4-0.1-0.7,0c-0.2,0-0.5,0.2-0.7,0.4
			l-0.6,2.2L60.6,31.1z"/>
		<path class="st12" d="M67.1,32.9c-0.3-0.1-0.7-0.2-1-0.4c-0.3-0.2-0.5-0.4-0.7-0.6c-0.2-0.2-0.3-0.5-0.4-0.8
			c-0.1-0.3-0.1-0.6,0-0.9c0.1-0.3,0.2-0.6,0.4-0.8c0.2-0.2,0.5-0.4,0.7-0.5c0.3-0.1,0.6-0.2,0.9-0.2c0.3,0,0.7,0,1,0.1
			s0.7,0.2,0.9,0.4c0.3,0.2,0.5,0.4,0.7,0.6c0.2,0.2,0.3,0.5,0.4,0.8c0.1,0.3,0.1,0.6,0,0.9c-0.1,0.3-0.2,0.6-0.4,0.8
			c-0.2,0.2-0.5,0.4-0.7,0.5c-0.3,0.1-0.6,0.2-0.9,0.2C67.8,33,67.5,32.9,67.1,32.9z M67.4,32c0.3,0.1,0.6,0.1,0.8-0.1
			c0.2-0.1,0.4-0.4,0.5-0.7c0.1-0.3,0.1-0.6,0-0.8c-0.1-0.2-0.3-0.4-0.7-0.5c-0.3-0.1-0.6-0.1-0.8,0.1c-0.2,0.1-0.4,0.4-0.4,0.7
			c-0.1,0.3-0.1,0.6,0,0.8C66.8,31.7,67,31.9,67.4,32z"/>
		<path class="st12" d="M71.7,34l-0.4-4.1l1.6,0.4l0.1,1.9c0,0.2,0,0.4,0,0.6c0,0.2,0,0.4,0,0.6l0,0c0.1-0.2,0.2-0.4,0.3-0.5
			c0.1-0.2,0.2-0.3,0.3-0.5l1-1.6l1.4,0.4l0.2,1.9c0,0.2,0,0.4,0,0.6c0,0.2,0,0.4,0,0.6l0,0c0.1-0.2,0.2-0.4,0.3-0.5
			c0.1-0.2,0.2-0.3,0.3-0.5l1-1.6l1.5,0.4L77,35.3l-1.9-0.5L75,33.2c0-0.2,0-0.4,0-0.6c0-0.2,0-0.4,0-0.6l0,0
			c-0.1,0.2-0.2,0.4-0.3,0.5c-0.1,0.2-0.2,0.3-0.3,0.5l-0.9,1.4L71.7,34z"/>
		<path class="st12" d="M81.3,36.5c-0.3-0.1-0.6-0.2-0.8-0.3c-0.2-0.1-0.4-0.3-0.5-0.4c-0.1-0.2-0.2-0.3-0.2-0.5c0-0.2,0-0.4,0-0.6
			l0.4-1.5l-0.7-0.2l0.2-0.8l0.8,0.2l0.4-0.9l1.3,0.3l-0.3,1l1.3,0.3l-0.2,0.9l-1.3-0.3L81.4,35c-0.1,0.2,0,0.4,0.1,0.5
			c0.1,0.1,0.3,0.2,0.5,0.3c0.1,0,0.2,0,0.3,0c0.1,0,0.2,0,0.3,0l0,0.9c-0.2,0-0.3,0-0.5,0C81.8,36.7,81.5,36.6,81.3,36.5z"/>
		<path class="st12" d="M83.4,37l1.4-5.3l1.6,0.4L86,33.4l-0.3,0.6c0.2-0.1,0.5-0.1,0.8-0.2c0.3,0,0.6,0,1,0.1
			c0.6,0.2,1,0.4,1.2,0.7c0.2,0.3,0.2,0.7,0.1,1.2l-0.6,2.3l-1.6-0.4l0.6-2.2c0.1-0.3,0.1-0.5,0-0.6c-0.1-0.1-0.2-0.2-0.5-0.3
			c-0.2-0.1-0.4-0.1-0.5,0c-0.2,0-0.3,0.1-0.5,0.1L85,37.4L83.4,37z"/>
	</g>
	<g class="st13">
		<path class="st12" d="M32.7,31.2c2.7,1.7,5.5,3.3,8.5,4.5c0.8,0.3,1.7,0.7,2.5,0.5c2-1.3,4.7-1,6.9-0.4c1.4,0.4,2.8,1,3.8,2.1
			c1.8,2,3.9,4.8,6.9,4.4c2.1-0.5,4.1-1.6,6.3-1.5c2.2,0,4.6,0.5,6.1,2.1c0.4,0.4,0.7,0.9,1.1,1.1c0.5,0.2,1,0,1.6-0.1l3.2-0.7
			l-3.2,0.8c-0.5,0.1-1.1,0.3-1.7,0.1c-0.5-0.3-0.8-0.8-1.2-1.1c-2.4-2.2-6.1-2.2-9.1-1.2c-1,0.3-2,1-3.1,1.2
			c-1.2,0.2-2.4,0-3.4-0.6c-1.8-0.9-3.1-2.4-4.4-3.8c-0.9-0.9-2.1-1.3-3.3-1.7c-1.7-0.4-3.6-0.6-5.2,0.1c-0.2,0.1-0.4,0.3-0.6,0.4
			c-0.8,0.5-1.4,0.3-2.1,0.2c-3.8-0.9-7.3-2.9-10.7-4.7C31.7,32.9,32.7,31.2,32.7,31.2L32.7,31.2z"/>
	</g>
	<g class="st13">
		<path class="st12" d="M34,41.2c2.7,1.7,5.5,3.3,8.5,4.5c0.8,0.3,1.7,0.7,2.5,0.5c2-1.3,4.7-1,6.9-0.4c1.4,0.4,2.8,1,3.8,2.1
			c1.8,2,3.9,4.8,6.9,4.4c2.1-0.5,4.1-1.6,6.3-1.5c2.2,0,4.6,0.5,6.1,2.1c0.4,0.4,0.7,0.9,1.1,1.1c0.5,0.2,1,0,1.6-0.1
			c0,0,3.2-0.7,3.2-0.7s-3.2,0.8-3.2,0.8c-0.5,0.1-1.1,0.3-1.7,0.1c-0.5-0.3-0.8-0.8-1.2-1.1c-2.4-2.2-6.1-2.2-9.1-1.2
			c-1,0.3-2,1-3.1,1.2c-1.2,0.2-2.4,0-3.4-0.6c-1.8-0.9-3.1-2.4-4.4-3.8c-0.9-0.9-2.1-1.3-3.3-1.7c-1.7-0.4-3.6-0.6-5.2,0.1
			c-0.2,0.1-0.4,0.3-0.6,0.4c-0.8,0.5-1.4,0.3-2.1,0.2c-3.8-0.9-7.3-2.9-10.7-4.7C33,42.9,34,41.2,34,41.2L34,41.2z"/>
	</g>
	<g class="st13">
		<path class="st12" d="M32.7,51c1.6,1.1,3.3,2.1,5,3c2,0.9,4,2.4,6.1,2.2c1.5-0.9,3.3-0.9,4.9-0.6c1.9,0.3,4,1,5.3,2.5
			c-1.4-1.4-3.5-1.8-5.4-2c-1.4-0.1-2.9-0.1-4,0.7c-0.5,0.4-1.1,0.5-1.7,0.4c-4.1-0.6-7.6-2.7-11.2-4.5C31.7,52.7,32.7,51,32.7,51
			L32.7,51z"/>
	</g>
	<g class="st14">
		<g>
			<path class="st15" d="M152,31.1c0,0,13.6-1.8,7.8,12.2s-13.4,0.1-25.9,5.9c-12.4,5.8-4.1,8.2-11.1,13.3c-7,5.1-8-1.6-13.3,0.1
				c0,0,3.7-7.6,9.4-9.3c5.7-1.6-0.8-11,6.8-15.1c7.6-4.2,9-1.3,13.3-5.4S147.4,31.6,152,31.1z"/>
			<path class="st12" d="M119.4,64.5c-2,0.5-3.4-0.2-4.8-0.9c-1.5-0.7-2.8-1.5-5-0.8l-0.4,0.1l0.2-0.4c0.2-0.3,3.8-7.7,9.5-9.4
				c2.5-0.7,2.5-2.9,2.5-5.8c0-3.3,0.1-7.1,4.3-9.3c3.7-2,5.9-2.4,7.7-2.7c2-0.3,3.4-0.6,5.6-2.7c2.9-2.8,5.7-2.4,8.6-2
				c1.4,0.2,2.9,0.4,4.4,0.2c0.3,0,5.7-0.7,8.2,2.5c1.7,2.2,1.6,5.5-0.3,10c-3.3,8.2-7.3,7.1-12.4,5.7c-3.9-1-8.2-2.2-13.5,0.3
				c-7,3.3-7.3,5.4-7.6,7.6c-0.2,1.7-0.4,3.4-3.5,5.7C121.6,63.7,120.4,64.3,119.4,64.5z M110,62.3c2-0.5,3.4,0.2,4.8,0.9
				c2.1,1,4,2,8-0.9c2.9-2.1,3.1-3.7,3.3-5.4c0.3-2.3,0.6-4.6,7.8-8c5.4-2.5,9.9-1.3,13.8-0.3c5.1,1.4,8.7,2.3,11.9-5.5
				c1.8-4.3,1.9-7.6,0.3-9.6c-2.4-3.1-7.8-2.4-7.9-2.4l0,0c-1.6,0.2-3.1,0-4.5-0.2c-2.8-0.4-5.5-0.8-8.3,1.9
				c-2.3,2.2-3.8,2.5-5.8,2.8c-1.8,0.3-4,0.7-7.6,2.6c-4,2.2-4,5.8-4.1,9c0,2.7,0,5.3-2.8,6.1C114.2,54.9,110.8,60.7,110,62.3
				C110,62.3,110,62.3,110,62.3z"/>
		</g>
		<g>
			<g>
				
					<ellipse transform="matrix(0.9716 -0.2367 0.2367 0.9716 -9.1213 38.4225)" class="st16" cx="155.5" cy="57.2" rx="8.6" ry="3.9"/>
				<path class="st12" d="M156.4,61.2c-4.8,1.2-9,0.3-9.5-1.9c-0.5-2.2,2.8-4.9,7.6-6c4.8-1.2,9-0.3,9.5,1.9
					C164.5,57.3,161.2,60,156.4,61.2z M154.6,53.6c-4.5,1.1-7.8,3.6-7.3,5.6c0.5,2,4.5,2.7,9,1.6c4.5-1.1,7.8-3.6,7.3-5.6
					C163.1,53.2,159.1,52.5,154.6,53.6z"/>
			</g>
			<g>
				<path class="st16" d="M148.7,57.4c2.1-4.5,0-8.1,0-8.1l2.9-2.6l3,5.7l0.5,1"/>
				<path class="st12" d="M148.9,57.4l-0.4-0.2c2-4.4,0.1-7.9,0-7.9l-0.1-0.1l3.2-2.9l3.2,5.9l0.5,1l-0.4,0.2l-0.5-1l-2.9-5.4
					l-2.6,2.4C149.3,50,150.7,53.4,148.9,57.4z"/>
			</g>
			<g>
				<path class="st16" d="M151.2,48l0.9,2.3l1.7,3.8l4.9,0.1l2.1,0.9c0.6,0.3,1.3,0.1,1.7-0.5l0.5-0.7c0,0,0-0.1,0.1-0.1l0.6-0.8
					c0.5-0.6,0.4-1.5-0.3-2l-0.7-0.6l-0.6-3.7c-0.5-1.1,0-1.9,0-1.9c2-0.3,0.8-2.3,0.8-2.3l-0.3-0.3c-0.1-0.1-0.1-0.3-0.1-0.4
					c0.4-0.6,1-2-1.1-2.1l0,0c-1.3-3.8-5.7-6-10.2-4.9c-3.9,0.9-6.6,4.1-6.8,7.6c0,0,0,0,0,0c-0.9,0.2-1.3,1.5-1,2.9
					c0.3,1.4,1.3,2.3,2.2,2.1c0.1,0,0.2-0.1,0.3-0.1c0.7,0.9,1.7,1.7,2.8,2.2"/>
				<path class="st12" d="M161.7,55.4c-0.3,0.1-0.7,0.1-1-0.1l-2.1-0.9l-5-0.1l-1.7-3.9l-0.9-2.3l0.4-0.2l0.9,2.3l1.6,3.7l4.9,0.1
					l2.1,0.9c0.5,0.2,1.1,0.1,1.4-0.4l0.5-0.7c0,0,0.1-0.1,0.1-0.1l0.6-0.8c0.2-0.3,0.3-0.6,0.3-0.9c0-0.3-0.2-0.6-0.5-0.8l-0.8-0.6
					l-0.6-3.8c-0.5-1.2,0-2,0-2.1l0-0.1l0.1,0c0.5-0.1,0.8-0.2,0.9-0.5c0.3-0.5-0.1-1.3-0.2-1.5l-0.3-0.3c-0.2-0.2-0.2-0.5-0.1-0.7
					c0.2-0.3,0.5-0.9,0.3-1.3c-0.1-0.3-0.5-0.4-1.2-0.5l-0.2,0l0-0.1c-1.3-3.7-5.6-5.9-9.9-4.8c-3.7,0.9-6.5,3.9-6.7,7.4l0,0.2
					l-0.2,0c0,0,0,0,0,0c-0.8,0.2-1.1,1.4-0.8,2.6c0.3,1.4,1.4,2.4,2.2,1.8L146,47l0.1,0.1c0.7,0.9,1.6,1.6,2.7,2.2l-0.2,0.4
					c-1.1-0.5-2-1.3-2.7-2.1c-1,0.5-2.3-0.5-2.6-2.2c-0.4-1.4,0.1-2.8,1-3.1c0.3-3.6,3.1-6.7,7-7.6c4.4-1.1,9,1.1,10.3,4.9
					c0.7,0.1,1.2,0.3,1.4,0.7c0.3,0.6-0.1,1.3-0.3,1.7c0,0.1,0,0.1,0,0.2l0.3,0.3c0,0,0.6,1.1,0.2,1.9c-0.2,0.4-0.6,0.6-1.1,0.7
					c-0.1,0.2-0.3,0.8,0.1,1.7l0,0l0.6,3.7l0.7,0.5c0.3,0.3,0.6,0.6,0.6,1.1c0.1,0.4-0.1,0.9-0.3,1.2l-0.6,0.8c0,0,0,0.1-0.1,0.1
					l-0.5,0.7C162.4,55.1,162.1,55.3,161.7,55.4z"/>
			</g>
			<g>
				<path class="st12" d="M153.5,50.5l-0.4,0c-0.1-1.6-0.9-2.3-1.2-2.5c-1.7,0.7-2.9,0.7-3.6,0.1c-1-0.9-0.5-2.7-0.4-2.8l0.4,0.1
					c0,0-0.5,1.7,0.3,2.4c0.6,0.5,1.7,0.4,3.3-0.2l0.1,0l0.1,0.1C152.1,47.6,153.3,48.4,153.5,50.5z"/>
			</g>
			<g>
				<path class="st12" d="M156.1,47.4c-0.1-0.4-0.1-0.8,0.1-1.1c0.5-0.6,1.5-0.6,1.5-0.6l0,0.4c0,0-0.9,0-1.2,0.4
					c-0.1,0.2-0.2,0.4-0.1,0.7L156.1,47.4z"/>
			</g>
			<g>
				<g>
					<path class="st17" d="M156.7,51.1c0,0,1,1.7,2.8,1.1c1.7-0.6,2.4-1.1,1.9-2.2"/>
					<path class="st12" d="M159.3,52.5c-1.7,0.4-2.7-1.2-2.8-1.2l0.3-0.2c0,0.1,1,1.6,2.5,1c1.1-0.4,1.7-0.7,1.9-1.1
						c0.1-0.2,0.1-0.5,0-0.9l0.4-0.1c0.2,0.5,0.2,0.9,0,1.2c-0.3,0.6-1,0.9-2.1,1.3C159.5,52.4,159.4,52.4,159.3,52.5z"/>
				</g>
				<g>
					<path class="st17" d="M159.6,50.8c0,0,0.2,0,0.3,0.3"/>
					<path class="st12" d="M160,51.1l-0.4,0c0-0.1-0.1-0.1-0.1-0.1l0-0.4C159.7,50.6,160,50.7,160,51.1z"/>
				</g>
				<g>
					<path class="st17" d="M161.7,49.7c-2.4-1.6-2.6,0.4-2.6,0.4c-1.3-2.1-2.6,0.9-2.6,0.9s0.9,0.8,2.2-0.4c0,0,0.5,1,1.3-0.3l0.1,0
						C160.7,50.4,161.3,50.2,161.7,49.7L161.7,49.7z"/>
					<path class="st12" d="M159.3,51.1c0,0-0.1,0-0.1,0c-0.2,0-0.4-0.1-0.5-0.3c-1.3,1.1-2.3,0.2-2.3,0.2l-0.1-0.1l0.1-0.1
						c0.1-0.2,0.8-1.7,1.7-1.7c0.3,0,0.7,0.1,1,0.5c0.1-0.2,0.3-0.5,0.6-0.7c0.5-0.2,1.3-0.1,2.2,0.6l0.2,0.1l-0.1,0.2
						c-0.5,0.5-1.1,0.8-1.8,0.7C159.8,50.8,159.6,51.1,159.3,51.1z M158.7,50.2l0.1,0.2c0,0.1,0.2,0.3,0.3,0.3
						c0.2,0,0.4-0.2,0.6-0.6l0.1-0.1l0.3,0c0.5,0.1,0.9-0.1,1.3-0.4c-0.7-0.4-1.2-0.6-1.6-0.4c-0.4,0.2-0.5,0.8-0.5,0.8l-0.1,0.6
						l-0.3-0.5c-0.3-0.4-0.6-0.7-0.8-0.6c-0.5,0-1.1,0.9-1.3,1.4c0.3,0.1,0.9,0.4,1.8-0.5L158.7,50.2z"/>
				</g>
			</g>
			<g>
				<path class="st12" d="M162.8,53.9c-0.1-0.1-0.3-0.5-0.6-0.6c-0.1,0-0.3,0-0.5,0.1l-0.3-0.3c0.3-0.2,0.5-0.3,0.8-0.2
					c0.5,0.1,0.8,0.8,0.9,0.8L162.8,53.9z"/>
			</g>
			<g>
				<g>
					<path class="st18" d="M161.6,41.9c0.2,0.7-0.5,1.5-1.4,1.7c-0.9,0.2-1.9-0.2-2-0.9"/>
					<path class="st12" d="M160.2,43.8c-1.1,0.3-2.1-0.2-2.3-1l0.4-0.1c0.1,0.6,0.9,0.9,1.8,0.7c0.8-0.2,1.4-0.9,1.3-1.5l0.4-0.1
						C162,42.6,161.3,43.5,160.2,43.8z"/>
				</g>
				<g>
					
						<ellipse transform="matrix(0.9716 -0.2367 0.2367 0.9716 -5.5003 39.0517)" class="st12" cx="159.9" cy="42.4" rx="0.7" ry="0.5"/>
				</g>
				<g>
					<path class="st16" d="M160.4,41.4c-0.5,0-0.9-0.1-1.1-0.3c-0.8,0.3-1.3,1-1.1,1.6c0,0,2.3-0.8,3.4-0.8
						c-0.1-0.2-0.2-0.4-0.3-0.6C161,41.4,160.7,41.4,160.4,41.4z"/>
					<path class="st12" d="M161.8,42l-0.2,0c-1,0.1-3.4,0.8-3.4,0.8l-0.2,0.1l-0.1-0.2c-0.2-0.7,0.3-1.5,1.3-1.9l0.1,0l0.1,0
						c0.3,0.2,0.6,0.2,1,0.3l0,0c0.3,0,0.5,0,0.8-0.1l0.1,0l0.1,0.1c0.2,0.2,0.3,0.4,0.4,0.7L161.8,42z M159.3,41.3
						c-0.6,0.2-0.9,0.7-0.9,1.1c0.6-0.2,2-0.6,3-0.7c0-0.1-0.1-0.1-0.1-0.2c-0.2,0-0.5,0.1-0.8,0l0,0
						C160,41.5,159.6,41.4,159.3,41.3z"/>
				</g>
				<g>
					<path class="st12" d="M161.4,42l-0.3-0.2c0,0,0.3-0.4,0.7-0.5c0.2,0,0.4,0,0.6,0.2l-0.3,0.3c-0.1-0.1-0.2-0.1-0.3-0.1
						C161.6,41.7,161.4,41.9,161.4,42z"/>
				</g>
				<g>
					<path class="st12" d="M161.6,42l-0.3-0.3c0.2-0.2,0.5-0.3,0.8-0.1l-0.3,0.3C161.7,41.8,161.6,42,161.6,42z"/>
				</g>
				<g>
					<path class="st12" d="M161.2,41.9l-0.4,0.1c0-0.2,0-0.5,0.3-0.7l0.2,0.4C161.2,41.7,161.2,41.9,161.2,41.9z"/>
				</g>
				<g>
					<path class="st12" d="M159.3,41.3c0,0-0.4-0.1-0.5-0.7l0.4-0.1c0.1,0.3,0.3,0.4,0.3,0.4L159.3,41.3z"/>
				</g>
				<g>
					<path class="st12" d="M161.2,41.5c-0.1,0-0.2,0-0.2,0l0-0.4c0.3,0,0.4-0.2,0.4-0.2l0.4,0.2C161.7,41.2,161.6,41.4,161.2,41.5z"
						/>
				</g>
			</g>
			<g>
				<g>
					<path class="st18" d="M151.6,44.2c0.2,0.8,1.2,1.3,2.3,1s1.8-1.1,1.6-2"/>
					<path class="st12" d="M154,45.4c-1.2,0.3-2.3-0.2-2.6-1.1l0.4-0.1c0.2,0.7,1.1,1.1,2.1,0.9c1-0.2,1.6-1,1.5-1.7l0.4-0.1
						C156,44.1,155.2,45.1,154,45.4z"/>
				</g>
				<g>
					
						<ellipse transform="matrix(0.9716 -0.2367 0.2367 0.9716 -6.023 37.6249)" class="st12" cx="153.7" cy="43.9" rx="0.8" ry="0.6"/>
				</g>
				<g>
					<path class="st16" d="M152.6,43.1c0.5-0.3,0.8-0.6,1-0.9c1-0.1,1.8,0.3,2,1.1c0,0-2.8,0.5-3.9,1c-0.1-0.2,0-0.5,0.1-0.7
						C152,43.4,152.3,43.3,152.6,43.1z"/>
					<path class="st12" d="M151.5,44.5l-0.1-0.2c-0.1-0.3,0-0.6,0.1-0.9l0-0.1l0.1,0c0.3-0.1,0.5-0.2,0.8-0.3l0,0
						c0.4-0.2,0.8-0.5,0.9-0.8l0.1-0.1l0.1,0c1.1-0.1,2,0.4,2.2,1.2l0.1,0.2l-0.2,0c0,0-2.8,0.5-3.9,0.9L151.5,44.5z M153.1,43.6
						c0.9-0.2,1.8-0.4,2.2-0.5c-0.2-0.5-0.9-0.8-1.6-0.7c-0.2,0.3-0.6,0.6-1,0.9l0,0c-0.3,0.2-0.5,0.3-0.8,0.4c0,0.1,0,0.2,0,0.3
						C152.2,43.8,152.6,43.7,153.1,43.6z"/>
				</g>
				<g>
					<path class="st12" d="M151.9,44.2c-0.1-0.1-0.4-0.2-0.7-0.1c-0.1,0-0.2,0.1-0.3,0.3l-0.4-0.1c0.1-0.3,0.3-0.4,0.5-0.5
						c0.5-0.2,1,0.1,1,0.1L151.9,44.2z"/>
				</g>
				<g>
					<path class="st12" d="M151.7,44.3c0,0-0.3-0.1-0.3,0.1l-0.4-0.1c0.1-0.4,0.5-0.4,0.8-0.3L151.7,44.3z"/>
				</g>
				<g>
					<path class="st12" d="M152,44c0,0-0.1-0.2-0.2-0.2l0-0.4c0.4,0,0.6,0.3,0.6,0.5L152,44z"/>
				</g>
				<g>
					<path class="st12" d="M153.6,42.4l-0.3-0.3l0.1,0.1l-0.1-0.1c0,0,0.2-0.2,0.1-0.6l0.4-0.1C154,42.1,153.7,42.4,153.6,42.4z"/>
				</g>
				<g>
					<path class="st12" d="M151.8,43.6c-0.4,0.1-0.7-0.1-0.7-0.1l0.2-0.3l-0.1,0.2l0.1-0.2c0,0,0.2,0.1,0.6,0l0.2,0.4
						C152,43.6,151.9,43.6,151.8,43.6z"/>
				</g>
			</g>
			<g>
				<path class="st16" d="M156.5,41l1,0.9c0.2,0.2,0.4,0.3,0.6,0.4l0,0c0.5,0.2,0.9,0.6,1.2,1.1l0.5,1.1c0.1,0.1,0.2,0.3,0.3,0.4
					l0.5,0.7c0.2,0.2,0.1,0.5-0.1,0.7l-0.8,0.7c-0.1,0.1-0.3,0.2-0.5,0.1l-1.3-0.3c0,0-0.8-0.3-0.8,0.2c0,0.3,0.3,0.5,0.6,0.5l0.6,0
					"/>
				<path class="st12" d="M158.5,48l-0.6,0c-0.4,0-0.8-0.3-0.8-0.7c0-0.2,0.1-0.4,0.2-0.4c0.3-0.2,0.8,0,0.9,0l1.3,0.2
					c0.1,0,0.2,0,0.3-0.1l0.8-0.7c0.1-0.1,0.1-0.3,0-0.5l-0.5-0.7c-0.1-0.1-0.2-0.3-0.3-0.5l-0.5-1.1c-0.2-0.5-0.6-0.8-1.1-1
					c-0.3-0.1-0.5-0.3-0.7-0.5l-1-0.9l0.3-0.3l1,0.9c0.2,0.2,0.4,0.3,0.6,0.4c0.6,0.2,1,0.7,1.3,1.2l0.5,1.1
					c0.1,0.1,0.2,0.3,0.2,0.4l0.5,0.7c0.2,0.3,0.2,0.7-0.1,1l-0.8,0.7c-0.2,0.2-0.4,0.2-0.6,0.2l-1.3-0.3c-0.2-0.1-0.5-0.1-0.5-0.1
					c0,0,0,0.1,0,0.1c0,0.2,0.2,0.3,0.4,0.3l0.6,0L158.5,48z"/>
			</g>
			<g>
				<path class="st16" d="M154.1,38.3c0,0,1.8,0.8,1.4,3.1"/>
				<path class="st12" d="M155.7,41.4l-0.4-0.1c0.4-2.2-1.3-2.9-1.3-2.9l0.2-0.4C154.2,38.1,156.2,39,155.7,41.4z"/>
			</g>
			<g>
				<path class="st16" d="M156.6,37.9c0,0-0.5,1.1,0.9,3"/>
				<path class="st12" d="M157.4,41c-1.5-2-1-3.2-0.9-3.2l0.4,0.2l-0.2-0.1l0.2,0.1c0,0-0.5,1,0.9,2.8L157.4,41z"/>
			</g>
			<g>
				<path class="st19" d="M150.7,41.6c0.3,0.1,0.7-0.1,0.9-0.3c0.3-0.2,0.4-0.5,0.7-0.7c0.2-0.2,0.5-0.3,0.8-0.3c0,0,0.1,0,0.1,0
					c0,0.3-0.1,0.6-0.2,0.8c-0.1,0.2-0.4,0.4-0.7,0.5C151.8,41.9,151.1,42.1,150.7,41.6C150.7,41.7,150.7,41.6,150.7,41.6
					L150.7,41.6z"/>
				<path class="st12" d="M151.8,42.1c-0.4,0.1-0.9,0.1-1.2-0.2l-0.1-0.1l0.2-0.3l0.1,0c0.2,0.1,0.5,0,0.8-0.2
					c0.2-0.1,0.3-0.2,0.4-0.4c0.1-0.1,0.2-0.3,0.4-0.4c0.2-0.2,0.5-0.3,0.8-0.4l0.1,0l0.2,0.2l0,0.1c0,0.3-0.1,0.6-0.3,0.9
					c-0.1,0.2-0.4,0.4-0.6,0.5c-0.1,0-0.1,0.1-0.2,0.1C152.2,41.9,152,42,151.8,42.1z M151.4,41.7c0.3,0,0.5-0.1,0.8-0.3
					c0,0,0.1-0.1,0.2-0.1c0.2-0.1,0.3-0.2,0.4-0.3c0.1-0.2,0.2-0.4,0.2-0.5c-0.2,0.1-0.3,0.1-0.5,0.3c-0.1,0.1-0.2,0.2-0.3,0.3
					c-0.1,0.2-0.3,0.3-0.4,0.4C151.7,41.6,151.5,41.7,151.4,41.7z"/>
			</g>
			<g>
				<path class="st19" d="M160.5,39.4c-0.2,0.2-0.5,0.2-0.7,0.1c-0.3,0-0.5-0.2-0.7-0.2c-0.2,0-0.4,0-0.6,0c0,0,0,0.1,0,0.1
					c0.1,0.2,0.3,0.4,0.4,0.5c0.2,0.1,0.4,0.1,0.6,0.1C159.9,39.9,160.4,39.8,160.5,39.4C160.6,39.4,160.5,39.4,160.5,39.4
					L160.5,39.4z"/>
				<path class="st12" d="M160,40.1c-0.2,0-0.4,0.1-0.5,0.1c0,0-0.1,0-0.1,0c-0.2,0-0.4,0-0.6-0.1c-0.2-0.1-0.4-0.3-0.5-0.6l0-0.1
					l0.1-0.2l0.1,0c0.3-0.1,0.5-0.1,0.7-0.1c0.2,0,0.3,0.1,0.4,0.1c0.1,0.1,0.2,0.1,0.3,0.1c0.3,0.1,0.5,0,0.6-0.1l0.1-0.1l0.3,0.2
					l-0.1,0.2C160.7,39.8,160.3,40,160,40.1z M158.7,39.4c0.1,0.1,0.2,0.1,0.3,0.2c0.1,0.1,0.2,0.1,0.4,0.1c0,0,0.1,0,0.1,0
					c0.1,0,0.2,0,0.3,0c0,0,0,0,0,0c-0.2,0-0.3-0.1-0.4-0.1c-0.1,0-0.2-0.1-0.3-0.1C158.9,39.4,158.8,39.4,158.7,39.4z"/>
			</g>
			<g>
				<path class="st16" d="M156.3,50.2c0,0-0.7,0.5-0.3,1.1"/>
				<path class="st12" d="M155.9,51.4c-0.1-0.2-0.2-0.4-0.2-0.6c0.1-0.4,0.5-0.7,0.5-0.7l0.2,0.3c-0.1,0.1-0.3,0.3-0.3,0.5
					c0,0.1,0,0.2,0.1,0.3L155.9,51.4z"/>
			</g>
			<g>
				
					<ellipse transform="matrix(0.9716 -0.2367 0.2367 0.9716 -7.4727 39.4783)" class="st20" cx="160.7" cy="50.9" rx="0.4" ry="0.2"/>
			</g>
			<g>
				
					<ellipse transform="matrix(0.9716 -0.2367 0.2367 0.9716 -6.0275 37.8085)" class="st21" cx="154.4" cy="44" rx="0.3" ry="0.2"/>
			</g>
			<g>
				
					<ellipse transform="matrix(0.9716 -0.2367 0.2367 0.9716 -5.5056 39.2267)" class="st21" cx="160.6" cy="42.5" rx="0.3" ry="0.2"/>
			</g>
		</g>
		<g>
			<path class="st15" d="M155.9,34.3c0,0-3.3,10.7-17.6,6.6"/>
			<path class="st12" d="M147.9,41.6c-2.5,0.6-5.6,0.6-9.6-0.5l0.1-0.4c13.9,4,17.2-6,17.3-6.4l0.4,0.1
				C156.1,34.4,154.3,40,147.9,41.6z"/>
		</g>
		<g>
			<ellipse transform="matrix(0.9652 -0.2617 0.2617 0.9652 -4.362 39.814)" class="st15" cx="147.3" cy="36.3" rx="7.9" ry="2.3"/>
		</g>
		<g>
			<path class="st16" d="M144.5,42.4c0,0,1.4-0.2,2.1,0.8"/>
			<path class="st12" d="M146.4,43.3c-0.6-0.9-1.9-0.7-1.9-0.7l-0.1-0.4c0.1,0,1.6-0.3,2.3,0.9L146.4,43.3z"/>
		</g>
		<g>
			<path class="st16" d="M144.7,43.9c0,0,1.5-0.1,0.8,2"/>
			<path class="st12" d="M145.6,46l-0.4-0.1c0.2-0.7,0.2-1.2,0-1.4c-0.2-0.3-0.6-0.3-0.6-0.3l0-0.4c0,0,0.6,0,1,0.4
				C145.9,44.6,145.9,45.2,145.6,46z"/>
		</g>
		<g>
			<path class="st15" d="M145.6,45c0,0-0.6-0.1-1,0.6"/>
			<path class="st12" d="M144.8,45.7l-0.3-0.2c0.4-0.7,1.2-0.7,1.2-0.7l0,0.4l0-0.2l0,0.2C145.6,45.2,145.1,45.2,144.8,45.7z"/>
		</g>
	</g>
	<g>
		<g>
			<defs>
				<circle id="SVGID_1_" cx="146.3" cy="39.6" r="28.9"/>
			</defs>
			<clipPath id="SVGID_00000133489141546450177630000006375108991570076050_">
				<use xlink:href="#SVGID_1_"  style="overflow:visible;"/>
			</clipPath>
			<g style="clip-path:url(#SVGID_00000133489141546450177630000006375108991570076050_);">
				<g>
					<path class="st15" d="M146,16.5c0,0,28.5-2.9,15.4,26.2c-13.1,29.1-28.2-0.7-54.6,10.5s-9.1,17-24.2,27.1s-16.7-3.9-27.9-0.7
						c0,0,8.3-15.7,20.3-18.7c12.1-3-0.9-23,15.4-31.2s19.1-2,28.4-10.4S136.2,17.3,146,16.5z"/>
					<path class="st12" d="M75.1,84.2c-4.3,0.9-7.2-0.7-10-2.3c-3-1.7-5.8-3.3-10.3-2l-0.9,0.3l0.5-0.9c0.3-0.6,8.5-15.9,20.6-18.9
						c5.3-1.3,5.5-6,5.7-11.9c0.3-6.9,0.6-14.8,9.6-19.3c7.9-3.9,12.6-4.6,16.4-5.1c4.1-0.6,7.1-1,11.9-5.3
						c6.4-5.7,12.1-4.7,18.2-3.6c3,0.5,6,1.1,9.2,0.8c0.6-0.1,12.1-1.1,17.1,5.9c3.3,4.6,2.9,11.7-1.3,21
						c-7.6,16.8-15.9,14.3-26.4,11.1c-8-2.4-17.1-5.2-28.4-0.4c-15,6.3-15.7,10.8-16.4,15.5c-0.6,3.5-1.1,7.2-7.7,11.6
						C79.8,82.7,77.3,83.8,75.1,84.2z M55.6,78.9c4.3-0.9,7.1,0.7,9.9,2.3c4.2,2.3,8.2,4.6,16.8-1.2c6.3-4.2,6.8-7.5,7.4-11
						c0.7-4.7,1.5-9.6,16.9-16.1c11.6-4.9,20.8-2.1,29,0.4c10.5,3.2,18.1,5.5,25.4-10.6c4-9,4.5-15.7,1.4-20.1
						c-4.7-6.6-16.2-5.5-16.3-5.5l0,0c-3.3,0.3-6.4-0.3-9.5-0.8c-5.9-1-11.5-2-17.5,3.4c-5,4.5-8.2,4.9-12.3,5.5
						c-3.8,0.5-8.4,1.1-16.2,5c-8.5,4.3-8.9,11.9-9.2,18.5c-0.2,5.8-0.5,11.2-6.4,12.7C64.9,63.8,57.4,75.7,55.6,78.9
						C55.5,78.9,55.5,78.9,55.6,78.9z"/>
				</g>
				<g>
					<g>
						
							<ellipse transform="matrix(0.9792 -0.2028 0.2028 0.9792 -11.359 32.163)" class="st16" cx="151.3" cy="71.5" rx="18" ry="8.2"/>
						<path class="st12" d="M153,79.9c-10.1,2.1-18.8,0-19.8-4.7c-1-4.7,6.2-10,16.3-12.1c10.1-2.1,18.8,0,19.8,4.7
							C170.3,72.5,163.1,77.8,153,79.9z M149.7,63.9c-9.5,2-16.5,7-15.6,11.1c0.9,4.2,9.3,6,18.8,4c9.5-2,16.5-7,15.6-11.1
							S159.2,62,149.7,63.9z"/>
					</g>
					<g>
						<path class="st16" d="M137,71.4c4.7-9.3,0.7-17,0.7-17l6.3-5.3l6,12.1l0.9,2.1"/>
						<path class="st12" d="M137.4,71.5l-0.7-0.4c4.6-9,0.7-16.5,0.7-16.6l-0.2-0.3l7-5.8l6.2,12.6l0.9,2.1l-0.8,0.3l-0.9-2.1
							l-5.7-11.6l-5.7,4.7C138.9,56,141.6,63.2,137.4,71.5z"/>
					</g>
					<g>
						<path class="st16" d="M143,51.9l1.8,4.9l3.2,8.1l10.3,0.6l4.3,2c1.3,0.6,2.8,0.2,3.6-0.9l1-1.4c0.1-0.1,0.1-0.1,0.2-0.2
							l1.3-1.5c1.1-1.2,0.9-3.1-0.4-4.2l-1.5-1.2l-0.9-7.8c-0.9-2.4,0.1-4,0.1-4c4.2-0.5,1.9-4.8,1.9-4.8l-0.6-0.6
							c-0.2-0.2-0.3-0.6-0.1-0.9c0.8-1.1,2.3-4.1-2.1-4.4l-0.1,0c-2.4-8.1-11.5-13-20.9-11.1c-8.2,1.7-14.1,8.1-14.8,15.3
							c0,0,0,0-0.1,0c-1.8,0.4-2.8,3-2.2,5.9s2.6,4.9,4.4,4.6c0.2-0.1,0.5-0.1,0.7-0.3c1.5,2,3.4,3.6,5.6,4.8"/>
						<path class="st12" d="M164.5,68.2c-0.7,0.1-1.4,0.1-2.1-0.3l-4.3-2l-10.5-0.6l-3.3-8.3l-1.8-4.9l0.8-0.3l1.8,4.9l3.1,7.8
							l10.2,0.6l4.3,2c1.1,0.5,2.4,0.2,3.1-0.8l1-1.4c0.1-0.1,0.1-0.2,0.2-0.2l1.3-1.5c0.4-0.5,0.7-1.2,0.6-1.8
							c-0.1-0.7-0.4-1.3-0.9-1.7l-1.6-1.3l-1-7.9c-0.9-2.6,0.1-4.3,0.1-4.3l0.1-0.2l0.2,0c1-0.1,1.6-0.5,2-1
							c0.6-1.1-0.2-2.8-0.3-3.1l-0.6-0.6c-0.4-0.4-0.4-1-0.1-1.4c0.4-0.5,1.1-1.8,0.7-2.7c-0.3-0.6-1.1-1-2.5-1.1l-0.4-0.1l-0.1-0.2
							c-2.4-7.9-11.4-12.7-20.4-10.8c-7.8,1.6-13.8,7.8-14.5,15l0,0.3l-0.3,0.1c0,0,0,0,0,0c-1.6,0.3-2.5,2.8-2,5.4
							c0.6,2.9,2.8,5,4.5,4l0.3-0.2l0.2,0.3c1.4,1.9,3.3,3.5,5.5,4.7l-0.4,0.7c-2.2-1.2-4.1-2.8-5.6-4.7c-2.2,0.9-4.7-1.3-5.4-4.7
							c-0.6-3,0.4-5.8,2.3-6.4c0.9-7.4,7-13.7,15.1-15.4c9.4-1.9,18.7,2.9,21.3,11.1c1.5,0.2,2.5,0.7,2.9,1.6
							c0.6,1.2-0.2,2.7-0.8,3.5c-0.1,0.1-0.1,0.3,0,0.4l0.7,0.7c0,0.1,1.2,2.3,0.3,4c-0.4,0.8-1.2,1.3-2.4,1.4
							c-0.2,0.4-0.6,1.7,0,3.5l0,0l0.9,7.7l1.4,1.1c0.7,0.6,1.2,1.4,1.2,2.3c0.1,0.9-0.2,1.8-0.8,2.5l-1.3,1.5
							c-0.1,0.1-0.1,0.1-0.1,0.2l-1,1.4C166,67.6,165.3,68,164.5,68.2z"/>
					</g>
					<g>
						<path class="st12" d="M147.6,57.2l-0.8,0c-0.2-3.3-1.8-4.9-2.3-5.4c-3.6,1.3-6.1,1.3-7.5-0.1c-2-1.9-0.7-5.8-0.7-5.9l0.8,0.3
							c0,0-1.1,3.5,0.5,5.1c1.1,1.1,3.5,1,6.9-0.2l0.2-0.1l0.2,0.1C144.9,51.2,147.4,52.9,147.6,57.2z"/>
					</g>
					<g>
						<path class="st12" d="M153.4,51c-0.2-0.9-0.1-1.7,0.4-2.2c1-1.2,3.1-1.1,3.2-1.1l0,0.8c0,0-1.8-0.1-2.5,0.8
							c-0.3,0.4-0.4,0.9-0.2,1.5L153.4,51z"/>
					</g>
					<g>
						<g>
							<path class="st17" d="M154.4,58.8c0,0,2,3.6,5.7,2.5c3.7-1.1,5-2.2,4.2-4.5"/>
							<path class="st12" d="M159.7,61.8c-3.6,0.7-5.7-2.8-5.7-2.8l0.7-0.4c0.1,0.1,1.9,3.3,5.2,2.3c2.4-0.7,3.6-1.4,4-2.2
								c0.2-0.5,0.2-1.1,0-1.8l0.8-0.3c0.3,1,0.3,1.8,0,2.5c-0.6,1.2-2.2,1.9-4.5,2.6C160.1,61.8,159.9,61.8,159.7,61.8z"/>
						</g>
						<g>
							<path class="st17" d="M160.3,58.3c0,0,0.5,0.1,0.5,0.7"/>
							<path class="st12" d="M161.3,59l-0.8,0c0-0.2-0.1-0.3-0.2-0.3l0.1-0.8C160.7,57.9,161.3,58.2,161.3,59z"/>
						</g>
						<g>
							<path class="st17" d="M164.8,56.2c-4.9-3.6-5.5,0.6-5.5,0.6c-2.5-4.5-5.5,1.7-5.5,1.7s1.9,1.8,4.6-0.7c0,0,1.1,2.2,2.6-0.5
								l0.3,0.1C162.7,57.6,164,57.2,164.8,56.2L164.8,56.2z"/>
							<path class="st12" d="M159.8,59.1c-0.1,0-0.2,0-0.3,0c-0.5,0-0.9-0.3-1.1-0.6c-2.8,2.2-4.8,0.4-4.8,0.3l-0.2-0.2l0.1-0.3
								c0.2-0.4,1.7-3.5,3.7-3.5c0.7,0,1.4,0.3,2,1.1c0.2-0.5,0.6-1.1,1.3-1.4c1.1-0.5,2.7,0,4.5,1.4l0.4,0.3l-0.3,0.3
								c-1,1-2.4,1.5-3.8,1.2C160.8,58.5,160.3,59,159.8,59.1z M158.6,57.2l0.2,0.5c0.1,0.2,0.4,0.6,0.7,0.6c0.3,0,0.8-0.4,1.2-1.2
								l0.1-0.3l0.6,0.1c1,0.2,1.9-0.1,2.7-0.7c-1.4-1-2.5-1.3-3.3-1c-0.9,0.4-1.1,1.6-1.1,1.6l-0.2,1.2L159,57
								c-0.5-1-1.1-1.4-1.7-1.4c-1.1,0-2.3,1.8-2.8,2.8c0.5,0.3,1.9,0.9,3.8-0.8L158.6,57.2z"/>
						</g>
					</g>
					<g>
						<path class="st12" d="M167,65.2c-0.1-0.3-0.6-1.2-1.2-1.3c-0.3-0.1-0.6,0-1,0.3l-0.5-0.7c0.6-0.4,1.1-0.6,1.7-0.4
							c1.1,0.3,1.7,1.8,1.7,1.8L167,65.2z"/>
					</g>
					<g>
						<g>
							<path class="st18" d="M165.3,39.8c0.3,1.5-1.1,3.1-3.1,3.5s-3.9-0.5-4.2-2"/>
							<path class="st12" d="M162.3,43.7c-2.2,0.5-4.3-0.6-4.7-2.3l0.8-0.2c0.3,1.3,1.9,2,3.7,1.6c1.8-0.4,3-1.7,2.7-3l0.8-0.2
								C166,41.4,164.5,43.2,162.3,43.7z"/>
						</g>
						<g>
							
								<ellipse transform="matrix(0.9792 -0.2028 0.2028 0.9792 -4.9316 33.6285)" class="st12" cx="161.6" cy="40.9" rx="1.4" ry="1"/>
						</g>
						<g>
							<path class="st16" d="M162.9,38.7c-1-0.1-1.8-0.3-2.4-0.7c-1.7,0.6-2.8,2-2.5,3.3c0,0,5-1.4,7.3-1.5
								c-0.1-0.5-0.3-0.9-0.7-1.2C164.1,38.7,163.5,38.7,162.9,38.7z"/>
							<path class="st12" d="M165.8,40.2l-0.5,0c-2.2,0.1-7.1,1.5-7.2,1.5l-0.4,0.1l-0.1-0.4c-0.3-1.5,0.8-3.1,2.8-3.8l0.2-0.1
								l0.2,0.1c0.5,0.3,1.3,0.6,2.2,0.6l0,0c0.6,0,1.1,0,1.6-0.1l0.2,0l0.2,0.1c0.4,0.4,0.7,0.9,0.8,1.4L165.8,40.2z M160.5,38.4
								c-1.2,0.5-2,1.4-2.1,2.3c1.2-0.3,4.3-1.1,6.3-1.3c-0.1-0.1-0.2-0.2-0.3-0.4c-0.5,0.1-1.1,0.1-1.6,0l0,0
								C161.9,39,161.1,38.8,160.5,38.4z"/>
						</g>
						<g>
							<path class="st12" d="M164.8,40.1l-0.7-0.5c0.1-0.1,0.7-0.9,1.6-1c0.4,0,0.9,0.1,1.3,0.5l-0.6,0.6c-0.2-0.2-0.4-0.3-0.6-0.3
								C165.3,39.4,164.9,39.9,164.8,40.1z"/>
						</g>
						<g>
							<path class="st12" d="M165.2,40.1l-0.6-0.6c0.5-0.4,1.2-0.7,1.7-0.1l-0.6,0.6C165.6,39.8,165.2,40.1,165.2,40.1z"/>
						</g>
						<g>
							<path class="st12" d="M164.5,39.8l-0.8,0.2c-0.1-0.3,0-1.1,0.7-1.4l0.3,0.8C164.4,39.5,164.5,39.8,164.5,39.8z"/>
						</g>
						<g>
							<path class="st12" d="M160.5,38.5c-0.1,0-0.8-0.3-1.1-1.4l0.8-0.2c0.2,0.7,0.5,0.8,0.5,0.8L160.5,38.5z"/>
						</g>
						<g>
							<path class="st12" d="M164.5,39.1c-0.2,0-0.3,0.1-0.5,0.1l0-0.8c0.7,0,0.9-0.3,0.9-0.3l0.7,0.4
								C165.6,38.4,165.3,38.9,164.5,39.1z"/>
						</g>
					</g>
					<g>
						<g>
							<path class="st18" d="M144.2,44c0.4,1.7,2.5,2.7,4.8,2.3c2.3-0.5,3.9-2.3,3.5-4"/>
							<path class="st12" d="M149.1,46.7c-2.5,0.5-4.9-0.6-5.3-2.6l0.8-0.2c0.3,1.5,2.3,2.4,4.3,1.9c2.1-0.4,3.5-2,3.2-3.5l0.8-0.2
								C153.3,44.2,151.6,46.2,149.1,46.7z"/>
						</g>
						<g>
							
								<ellipse transform="matrix(0.9792 -0.2028 0.2028 0.9792 -5.7346 31.0238)" class="st12" cx="148.5" cy="43.5" rx="1.6" ry="1.2"/>
						</g>
						<g>
							<path class="st16" d="M146.2,41.8c1-0.5,1.7-1.2,2.2-1.8c2-0.2,3.8,0.8,4.1,2.4c0,0-5.9,0.8-8.3,1.7c-0.1-0.5,0-1.1,0.2-1.6
								C144.9,42.3,145.6,42.1,146.2,41.8z"/>
							<path class="st12" d="M143.9,44.6l-0.1-0.5c-0.1-0.6-0.1-1.2,0.2-1.8l0.1-0.2l0.2,0c0.6-0.1,1.2-0.4,1.7-0.7l0,0
								c0.9-0.5,1.6-1.1,2-1.7l0.1-0.2l0.2,0c2.3-0.2,4.2,0.9,4.6,2.7l0.1,0.4l-0.4,0.1c-0.1,0-5.9,0.8-8.2,1.7L143.9,44.6z
								 M147.4,42.7c1.8-0.4,3.7-0.7,4.6-0.8c-0.5-1-1.8-1.7-3.4-1.6c-0.5,0.7-1.3,1.3-2.2,1.8l0,0c-0.6,0.3-1.2,0.5-1.7,0.7
								c-0.1,0.2-0.1,0.4-0.1,0.6C145.3,43.2,146.3,42.9,147.4,42.7z"/>
						</g>
						<g>
							<path class="st12" d="M144.8,44c-0.2-0.1-0.9-0.4-1.4-0.2c-0.2,0.1-0.4,0.3-0.6,0.6l-0.8-0.3c0.2-0.5,0.6-0.9,1.1-1
								c1-0.3,2,0.3,2.1,0.3L144.8,44z"/>
						</g>
						<g>
							<path class="st12" d="M144.4,44.2c0,0-0.6-0.2-0.7,0.1l-0.8-0.3c0.3-0.7,1.1-0.8,1.7-0.6L144.4,44.2z"/>
						</g>
						<g>
							<path class="st12" d="M145.1,43.6c0,0-0.1-0.4-0.4-0.4l0-0.8c0.8,0,1.2,0.7,1.3,1.1L145.1,43.6z"/>
						</g>
						<g>
							<path class="st12" d="M148.5,40.4l-0.5-0.6l0.3,0.3l-0.3-0.3c0,0,0.3-0.3,0.2-1.2l0.8-0.1C149.2,39.8,148.6,40.3,148.5,40.4z
								"/>
						</g>
						<g>
							<path class="st12" d="M144.6,42.8c-0.9,0.2-1.4-0.2-1.5-0.2l0.5-0.7l-0.3,0.3l0.2-0.3c0,0,0.4,0.3,1.2-0.1l0.3,0.8
								C145,42.7,144.8,42.8,144.6,42.8z"/>
						</g>
					</g>
					<g>
						<path class="st16" d="M154.6,37.7l2.1,2c0.4,0.4,0.8,0.7,1.3,0.9v0c1.1,0.5,1.9,1.4,2.4,2.4l1.1,2.4c0.1,0.3,0.3,0.6,0.5,0.9
							l1.1,1.5c0.4,0.5,0.3,1.1-0.2,1.5l-1.8,1.5c-0.3,0.2-0.6,0.3-1,0.2l-2.7-0.6c0,0-1.7-0.7-1.7,0.4c0,0.6,0.6,1.1,1.3,1.1l1.2,0
							"/>
						<path class="st12" d="M158.2,52.5l-1.2,0c-0.9,0-1.6-0.7-1.7-1.5c0-0.5,0.2-0.8,0.4-0.9c0.6-0.4,1.7,0,1.9,0.1l2.6,0.6
							c0.2,0,0.4,0,0.6-0.1l1.8-1.5c0.3-0.2,0.3-0.7,0.1-1l-1.1-1.5c-0.2-0.3-0.4-0.6-0.6-1l-1.1-2.4c-0.4-1-1.2-1.8-2.2-2.2
							c-0.5-0.3-1-0.6-1.4-1l-2.1-2l0.6-0.6l2.1,2c0.4,0.3,0.8,0.6,1.2,0.8c1.2,0.5,2.1,1.5,2.6,2.7l1.1,2.4
							c0.1,0.3,0.3,0.6,0.5,0.8l1.1,1.5c0.5,0.7,0.4,1.6-0.3,2.1l-1.8,1.5c-0.4,0.3-0.9,0.4-1.3,0.3l-2.7-0.6
							c-0.4-0.2-1-0.3-1.1-0.2c0,0,0,0.1,0,0.2c0,0.4,0.4,0.7,0.8,0.7l1.2,0L158.2,52.5z"/>
					</g>
					<g>
						<path class="st16" d="M149.8,31.7c0,0,3.8,1.8,2.8,6.7"/>
						<path class="st12" d="M153,38.5l-0.8-0.2c0.9-4.6-2.5-6.2-2.6-6.2l0.4-0.8C150,31.4,154.1,33.3,153,38.5z"/>
					</g>
					<g>
						<path class="st16" d="M155.1,31.2c0,0-1.2,2.3,1.7,6.4"/>
						<path class="st12" d="M156.5,37.8c-3-4.3-1.8-6.7-1.7-6.8l0.7,0.4l-0.4-0.2l0.4,0.2c0,0-1,2.1,1.7,6L156.5,37.8z"/>
					</g>
					<g>
						<path class="st19" d="M142.5,38.5c0.7,0.2,1.4-0.1,2-0.5c0.7-0.4,1-1.1,1.6-1.5c0.5-0.3,1-0.5,1.6-0.6c0,0,0.1,0.1,0.1,0.1
							c0,0.7-0.2,1.3-0.6,1.7c-0.3,0.5-0.9,0.7-1.4,1c-1,0.5-2.5,0.9-3.4,0C142.3,38.7,142.5,38.5,142.5,38.5L142.5,38.5z"/>
						<path class="st12" d="M144.6,39.5c-0.9,0.2-1.9,0.1-2.6-0.6l-0.3-0.3l0.5-0.6l0.3,0.1c0.5,0.2,1,0,1.6-0.4
							c0.3-0.2,0.5-0.5,0.8-0.7c0.2-0.3,0.5-0.6,0.8-0.8c0.5-0.3,1-0.6,1.8-0.7l0.2,0l0.4,0.3l0,0.2c0,0.7-0.2,1.4-0.6,2
							c-0.3,0.5-0.8,0.7-1.3,0.9c-0.1,0.1-0.2,0.1-0.3,0.2C145.5,39.3,145.1,39.4,144.6,39.5z M144,38.8c0.5,0,1.1-0.2,1.6-0.5
							c0.1-0.1,0.2-0.1,0.3-0.2c0.4-0.2,0.7-0.4,0.9-0.7c0.3-0.4,0.4-0.7,0.5-1.1c-0.4,0.1-0.7,0.3-1.1,0.5
							c-0.2,0.2-0.4,0.4-0.6,0.6c-0.3,0.3-0.6,0.7-1,0.9C144.4,38.6,144.2,38.7,144,38.8z"/>
					</g>
					<g>
						<path class="st19" d="M163.2,34.5c-0.4,0.4-1,0.4-1.5,0.2c-0.6-0.1-1-0.5-1.5-0.6c-0.4-0.1-0.8-0.1-1.3,0c0,0-0.1,0.1-0.1,0.1
							c0.2,0.5,0.5,0.8,0.9,1c0.4,0.2,0.9,0.2,1.3,0.2c0.8,0.1,2-0.1,2.3-1C163.3,34.5,163.2,34.5,163.2,34.5L163.2,34.5z"/>
						<path class="st12" d="M162,35.9c-0.4,0.1-0.7,0.1-1.1,0.1c-0.1,0-0.2,0-0.3,0c-0.4,0-0.8,0-1.2-0.3c-0.5-0.3-0.8-0.7-1.1-1.2
							l-0.1-0.2l0.2-0.4l0.2,0c0.6-0.2,1-0.1,1.5-0.1c0.3,0.1,0.6,0.2,0.8,0.3c0.2,0.1,0.5,0.2,0.7,0.3c0.6,0.1,1,0.1,1.2-0.1
							l0.2-0.2l0.7,0.3l-0.1,0.4C163.4,35.4,162.8,35.8,162,35.9z M159.4,34.5c0.1,0.2,0.3,0.3,0.5,0.5c0.2,0.1,0.5,0.2,0.8,0.2
							c0.1,0,0.2,0,0.3,0c0.2,0,0.4,0,0.6,0c0,0,0,0-0.1,0c-0.3,0-0.6-0.2-0.9-0.3c-0.2-0.1-0.4-0.2-0.6-0.2
							C159.8,34.5,159.6,34.5,159.4,34.5z"/>
					</g>
					<g>
						<path class="st16" d="M153.6,56.9c0,0-1.5,1-0.7,2.2"/>
						<path class="st12" d="M152.5,59.4c-0.3-0.4-0.4-0.8-0.3-1.3c0.2-0.9,1.1-1.5,1.1-1.5l0.5,0.7c-0.2,0.1-0.7,0.5-0.7,1
							c0,0.2,0,0.4,0.2,0.7L152.5,59.4z"/>
					</g>
					<g>
						
							<ellipse transform="matrix(0.9792 -0.2028 0.2028 0.9792 -8.5046 34.2082)" class="st20" cx="162.7" cy="58.6" rx="0.8" ry="0.4"/>
					</g>
					<g>
						
							<ellipse transform="matrix(0.9792 -0.2028 0.2028 0.9792 -5.7597 31.3523)" class="st21" cx="150.1" cy="43.8" rx="0.7" ry="0.5"/>
					</g>
					<g>
						
							<ellipse transform="matrix(0.9792 -0.2028 0.2028 0.9792 -4.9574 33.9415)" class="st21" cx="163.1" cy="41.2" rx="0.7" ry="0.5"/>
					</g>
				</g>
				<g>
					<path class="st15" d="M153.9,23.5c0,0-7.7,22.1-37.3,12.5"/>
					<path class="st12" d="M136.5,38.2c-5.2,1.1-11.8,0.9-20-1.8l0.3-0.8c28.9,9.4,36.5-11.3,36.8-12.2l0.8,0.3
						C154.3,23.8,150,35.4,136.5,38.2z"/>
				</g>
				<g>
					
						<ellipse transform="matrix(0.9737 -0.228 0.228 0.9737 -2.5987 31.6572)" class="st15" cx="135.7" cy="27.1" rx="16.6" ry="4.7"/>
				</g>
				<g>
					<path class="st16" d="M129.3,39.7c0,0,3-0.4,4.3,1.9"/>
					<path class="st12" d="M133.3,41.8c-1.1-2-3.9-1.7-3.9-1.7l-0.1-0.8c0.1,0,3.3-0.4,4.7,2.1L133.3,41.8z"/>
				</g>
				<g>
					<path class="st16" d="M129.6,42.9c0,0,3.2,0,1.5,4.2"/>
					<path class="st12" d="M131.5,47.2l-0.8-0.3c0.5-1.4,0.6-2.4,0.2-3c-0.4-0.6-1.3-0.7-1.3-0.7l0-0.8c0.1,0,1.3,0,2,1
						C132.2,44.3,132.2,45.6,131.5,47.2z"/>
				</g>
				<g>
					<path class="st15" d="M131.6,45.3c0,0-1.3-0.2-2.1,1.1"/>
					<path class="st12" d="M129.8,46.6l-0.7-0.4c0.9-1.5,2.5-1.3,2.5-1.3l-0.1,0.8l0.1-0.4l0,0.4C131.5,45.7,130.5,45.6,129.8,46.6z
						"/>
				</g>
			</g>
		</g>
		<circle class="st23" cx="146.3" cy="39.6" r="28.9"/>
		<path class="st24" d="M166.6,7.5c-17.6-11.2-41.1-5.9-52.3,11.7c-11.2,17.6-5.9,41.1,11.7,52.3c15.3,9.7,35,7,47.2-5.3
			c0.1,0,0.1,0.1,0.2,0.1l32.2,20.4c3.8,2.4,8.8,1.3,11.2-2.5c2.4-3.8,1.3-8.8-2.5-11.2l-32.2-20.4c-0.1,0-0.1-0.1-0.2-0.1
			C187.9,36.2,181.9,17.2,166.6,7.5z M169.8,54.4c-8.2,12.9-25.4,16.8-38.3,8.6c-12.9-8.2-16.8-25.4-8.6-38.3
			c8.2-12.9,25.4-16.8,38.3-8.6C174.1,24.3,178,41.5,169.8,54.4z"/>
		<path class="st25" d="M214.8,83c-1.7,2.7-5.4,3.5-8.1,1.8l-32.2-20.4l-0.1-0.1l-1.5-1.1l-1.3,1.3c-11.7,11.8-30.4,13.9-44.4,5
			c-16.6-10.5-21.5-32.6-11-49.2s32.6-21.5,49.2-11c14,8.9,20.1,26.7,14.4,42.3l-0.6,1.8l1.8,1L213,74.9
			C215.8,76.7,216.6,80.3,214.8,83z M120.9,23.5c-8.9,14-4.7,32.6,9.3,41.4s32.6,4.7,41.4-9.3c8.9-14,4.7-32.6-9.3-41.4
			C148.4,5.3,129.8,9.5,120.9,23.5z"/>
		<g>
			<path class="st12" d="M146.4,1.7c6.9,0,14,1.9,20.2,5.9c15.3,9.7,21.3,28.6,15.3,45c0.1,0,0.1,0.1,0.2,0.1L214.2,73
				c3.8,2.4,4.9,7.4,2.5,11.2c-1.5,2.4-4.2,3.8-6.9,3.8c-1.5,0-3-0.4-4.3-1.3l-32.2-20.4c-0.1,0-0.1-0.1-0.2-0.1
				c-7.2,7.3-17,11.2-27,11.2c-6.9,0-13.9-1.9-20.2-5.9c-17.6-11.2-22.9-34.7-11.7-52.3C121.5,7.9,133.8,1.7,146.4,1.7 M146.2,67.3
				c9.2,0,18.2-4.6,23.5-12.9c8.2-12.9,4.4-30.1-8.6-38.3c-4.6-2.9-9.7-4.3-14.8-4.3c-9.2,0-18.2,4.6-23.5,12.9
				c-8.2,12.9-4.4,30.1,8.6,38.3C136,65.9,141.2,67.3,146.2,67.3 M146.4-0.3c-13.8,0-26.4,6.9-33.8,18.5c-5.7,9-7.6,19.7-5.2,30.1
				c2.3,10.4,8.6,19.3,17.5,25c6.4,4.1,13.8,6.2,21.3,6.2c10.1,0,19.9-3.9,27.2-10.7l31,19.7c1.6,1,3.5,1.6,5.4,1.6
				c3.5,0,6.7-1.8,8.6-4.7c1.4-2.3,1.9-5,1.3-7.6c-0.6-2.6-2.2-4.9-4.5-6.3l-31-19.7c5.4-17.1-1.4-36.1-16.6-45.8
				C161.3,1.8,153.9-0.3,146.4-0.3L146.4-0.3z M146.2,65.3c-4.9,0-9.6-1.4-13.8-4c-5.8-3.7-9.8-9.4-11.3-16.1
				c-1.5-6.7-0.3-13.6,3.4-19.4c4.8-7.5,12.9-12,21.8-12c4.9,0,9.6,1.4,13.8,4c12,7.6,15.6,23.6,8,35.6
				C163.3,60.9,155.2,65.3,146.2,65.3L146.2,65.3z"/>
		</g>
		<path class="st26" d="M141,20.7c3.6-0.9,8.1-1,13.4,0.9"/>
		<path class="st26" d="M131,26.2c0,0,1.7-1.8,4.7-3.5"/>
	</g>
</g>
</svg>
