<?xml version="1.0" encoding="utf-8"?>
<!-- Generator: Adobe Illustrator 27.0.0, SVG Export Plug-In . SVG Version: 6.00 Build 0)  -->
<svg version="1.1" id="Lag_1" xmlns="http://www.w3.org/2000/svg" xmlns:xlink="http://www.w3.org/1999/xlink" x="0px" y="0px"
	 viewBox="0 0 93 93" style="enable-background:new 0 0 93 93;" xml:space="preserve">
<style type="text/css">
	.st0{fill:#C4A474;}
	.st1{fill:#DBB675;}
	.st2{fill:#110B09;}
	.st3{fill:#E0CDB8;}
	.st4{fill:#D3BEA5;}
	.st5{fill:#C1AD91;}
	.st6{fill:#F7E7CD;}
</style>
<g>
	<g>
		<g>
			<g>
				<polygon class="st0" points="14.1,56.8 39.8,53.2 36.2,78.9 29.8,72.4 16.9,85.3 7.7,76.1 20.6,63.2 				"/>
			</g>
			<g>
				<path class="st0" d="M35.9,78l-4-4l-2.1-2.1l-2.1,2.1L16.9,84.7l-8.6-8.6l10.8-10.8l2.1-2.1l-2.1-2.1l-4-4l11.1-1.5l13.1-1.9
					l-1.9,13.1L35.9,78 M36.5,79.8l0.2-1.7l1.5-11.1l1.9-13.1l0.2-1.1l-1.1,0.2l-13.1,1.9l-11.2,1.6l-1.7,0.2l1.2,1.2l4.1,4.1
					l1.5,1.5l-1.5,1.5L7.7,75.5l-0.6,0.6l0.6,0.6l8.6,8.6l0.6,0.6l0.6-0.6l10.8-10.8l1.5-1.5l1.5,1.5l4.1,4.1L36.5,79.8L36.5,79.8z"
					/>
			</g>
		</g>
		<g>
			<path class="st1" d="M36.2,78.9l-4.6-4.6l-1.8-1.8L28,74.2L16.9,85.3l-9.2-9.2L18.8,65l1.8-1.8l-1.8-1.8l-4.6-4.6l12-1.7
				l13.7-1.9l-1.9,13.7L36.2,78.9 M38,84.2l2.4-17l2.4-17l-17,2.4L8.7,55l8.3,8.3L4.1,76.1l12.7,12.7L29.7,76L38,84.2L38,84.2z"/>
		</g>
		<g>
			<path class="st2" d="M29.8,76.9L16.9,89.8L3.2,76.1l12.9-12.9l-8.7-8.7L25.7,52l17.8-2.5l-5.1,36.1L29.8,76.9z M25.9,53.3
				l-15.7,2.2l7.8,7.8L5,76.1L16.9,88l12.9-12.9l7.8,7.8L42,51L25.9,53.3z"/>
		</g>
		<g>
			<polygon class="st3" points="37.8,55.2 26.4,56.8 17.7,58 20,60.3 22.1,62.4 23,63.3 22.1,64.1 20,66.2 10.1,76.1 16.9,82.9 
				26.8,73 28.9,70.9 29.7,70 30.6,70.9 32.7,73 35,75.3 36.2,66.6 			"/>
		</g>
		<g>
			<path class="st4" d="M32.9,69l-0.2-0.2l-0.9-0.9l-2.1-2.1l-2.1,2.1l-0.9,0.9l-2.1,2.1l-7.8,7.8l-2.6-2.6l7.8-7.8l2.1-2.1l0.9-0.9
				l2.1-2.1L25,61.1l-0.9-0.9L24,60.1l2.8-0.4l7.6-1.1l-1.1,7.6L32.9,69 M35,75.3l1.2-8.6l1.5-11.5l-11.4,1.6L17.7,58l2.3,2.3
				l2.1,2.1l0.9,0.9l-0.9,0.9L20,66.2l-9.9,9.9l6.8,6.8l9.9-9.9l2.1-2.1l0.9-0.9l0.9,0.9l2.1,2.1L35,75.3L35,75.3z"/>
		</g>
		<g>
			<path class="st5" d="M33.8,71.7l-2-1.9l-0.9-0.9l-1.2-1.2l-1.2,1.2l-0.9,0.9l-2.1,2.1l-8.7,8.7l-4.4-4.4l8.7-8.7l2.1-2.1l0.9-0.9
				l1.2-1.2L24.2,62l-0.9-0.9l-2-2l5.3-0.7l9.3-1.3l-1.3,9.3L33.8,71.7 M35,75.3l1.2-8.6l1.5-11.5l-11.4,1.6L17.7,58l2.3,2.3
				l2.1,2.1l0.9,0.9l-0.9,0.9L20,66.2l-9.9,9.9l6.8,6.8l9.9-9.9l2.1-2.1l0.9-0.9l0.9,0.9l2.1,2.1L35,75.3L35,75.3z"/>
		</g>
		<g>
			<path class="st2" d="M29.7,70.9L16.9,83.8l-7.7-7.7l12.9-12.9l-5.7-5.7l9.9-1.4l12.3-1.7l-1.7,12.3l-1.4,9.9L29.7,70.9z
				 M37.1,55.9l-10.6,1.5l-7.4,1.1l4.8,4.8L11,76.1l5.9,5.9l12.9-12.9l4.8,4.8l1.1-7.4L37.1,55.9z"/>
		</g>
		<g>
			<g>
				<path class="st6" d="M28.2,75.5c0.2,0.2,0.2,0.4,0,0.5l-1.9,1.9c-0.2,0.2-0.4,0.2-0.5,0c-0.2-0.2-0.2-0.4,0-0.5l1.9-1.9
					C27.9,75.4,28.1,75.4,28.2,75.5z"/>
			</g>
		</g>
		<g>
			<g>
				<path class="st6" d="M23.6,80.2c0.2,0.2,0.2,0.4,0,0.5L20.3,84c-0.2,0.2-0.4,0.2-0.5,0c-0.2-0.2-0.2-0.4,0-0.5l3.2-3.2
					C23.2,80,23.5,80,23.6,80.2z"/>
			</g>
		</g>
	</g>
	<g>
		<g>
			<g>
				<polygon class="st0" points="56.8,14.1 53.2,39.8 78.9,36.2 72.4,29.8 85.3,16.9 76.1,7.7 63.2,20.6 				"/>
			</g>
			<g>
				<path class="st0" d="M78,35.9l-11.1,1.5l-13.1,1.9l1.9-13.1L57.1,15l4,4l2.1,2.1l2.1-2.1L76.1,8.3l8.6,8.6L73.9,27.7l-2.1,2.1
					l2.1,2.1L78,35.9 M79.8,36.5l-1.2-1.2l-4.1-4.1L73,29.8l1.5-1.5l10.8-10.8l0.6-0.6l-0.6-0.6l-8.6-8.6l-0.6-0.6l-0.6,0.6
					L64.7,18.5L63.2,20l-1.5-1.5l-4.1-4.1l-1.2-1.2l-0.2,1.7l-1.6,11.2l-1.9,13.1l-0.2,1.1l1.1-0.2l13.1-1.9l11.1-1.5L79.8,36.5
					L79.8,36.5z"/>
			</g>
		</g>
		<g>
			<path class="st1" d="M78.9,36.2l-12,1.7l-13.7,1.9l1.9-13.7l1.7-12l4.6,4.6l1.8,1.8l1.8-1.8L76.1,7.7l9.2,9.2L74.2,28l-1.8,1.8
				l1.8,1.8L78.9,36.2 M84.2,38L76,29.7l12.9-12.9L76.1,4.1L63.2,17L55,8.7l-2.4,17.1l-2.4,17l17-2.4L84.2,38L84.2,38z"/>
		</g>
		<g>
			<path class="st2" d="M85.6,38.4l-36.1,5.1L52,25.7l2.6-18.3l8.7,8.7L76.1,3.2l13.7,13.7L76.9,29.8L85.6,38.4z M51,42l31.9-4.5
				l-7.8-7.8L88,16.9L76.1,5L63.2,17.9l-7.8-7.8l-2.2,15.7L51,42z"/>
		</g>
		<g>
			<polygon class="st3" points="55.2,37.8 56.8,26.4 58,17.7 60.3,20 62.4,22.1 63.3,23 64.1,22.1 66.2,20 76.1,10.1 82.9,16.9 
				73,26.8 70.9,28.9 70,29.7 70.9,30.6 73,32.7 75.3,35 66.6,36.2 			"/>
		</g>
		<g>
			<path class="st4" d="M69,32.9l-2.8,0.4l-7.6,1.1l1.1-7.6l0.4-2.8l0.2,0.2l0.9,0.9l2.1,2.1l2.1-2.1l0.9-0.9l2.1-2.1l7.8-7.8
				l2.6,2.6l-7.8,7.8l-2.1,2.1l-0.9,0.9l-2.1,2.1l2.1,2.1l0.9,0.9L69,32.9 M75.3,35L73,32.7l-2.1-2.1L70,29.7l0.9-0.9l2.1-2.1
				l9.9-9.9l-6.8-6.8L66.2,20l-2.1,2.1l-0.9,0.9l-0.9-0.9L60.3,20L58,17.7l-1.2,8.6l-1.6,11.4l11.5-1.5L75.3,35L75.3,35z"/>
		</g>
		<g>
			<path class="st5" d="M71.7,33.8l-5.3,0.7l-9.3,1.3l1.3-9.3l0.7-5.3l2,2l0.9,0.9l1.2,1.2l1.2-1.2l0.9-0.9l2.1-2.1l8.7-8.7l4.4,4.4
				l-8.7,8.7l-2.1,2.1l-0.9,0.9l-1.2,1.2l1.2,1.2l0.9,0.9L71.7,33.8 M75.3,35L73,32.7l-2.1-2.1L70,29.7l0.9-0.9l2.1-2.1l9.9-9.9
				l-6.8-6.8L66.2,20l-2.1,2.1l-0.9,0.9l-0.9-0.9L60.3,20L58,17.7l-1.2,8.6l-1.6,11.4l11.5-1.5L75.3,35L75.3,35z"/>
		</g>
		<g>
			<path class="st2" d="M76.6,35.4l-9.9,1.4l-12.3,1.7l1.7-12.3l1.4-9.9l5.7,5.7L76.1,9.2l7.7,7.7L70.9,29.7L76.6,35.4z M66.5,35.6
				l7.4-1.1l-4.8-4.8L82,16.9L76.1,11L63.3,23.9l-4.8-4.8l-1.1,7.4l-1.5,10.6L66.5,35.6z"/>
		</g>
		<g>
			<g>
				<path class="st6" d="M75.5,28.2c0.2,0.2,0.4,0.2,0.5,0l1.9-1.9c0.2-0.2,0.2-0.4,0-0.5c-0.2-0.2-0.4-0.2-0.5,0l-1.9,1.9
					C75.4,27.9,75.4,28.1,75.5,28.2z"/>
			</g>
		</g>
		<g>
			<g>
				<path class="st6" d="M80.2,23.6c0.2,0.2,0.4,0.2,0.5,0l3.2-3.2c0.2-0.2,0.2-0.4,0-0.5s-0.4-0.2-0.5,0L80.2,23
					C80,23.2,80,23.5,80.2,23.6z"/>
			</g>
		</g>
	</g>
	<g>
		<g>
			<g>
				<polygon class="st0" points="56.8,78.9 53.2,53.2 78.9,56.8 72.4,63.2 85.3,76.1 76.1,85.3 63.2,72.4 				"/>
			</g>
			<g>
				<path class="st0" d="M78,57.1l-4,4l-2.1,2.1l2.1,2.1l10.8,10.8l-8.6,8.6L65.3,73.9l-2.1-2.1l-2.1,2.1l-4,4l-1.5-11.1l-1.9-13.1
					l13.1,1.9L78,57.1 M79.8,56.5l-1.7-0.2l-11.1-1.5l-13.1-1.9l-1.1-0.2l0.2,1.1l1.9,13.1l1.6,11.2l0.2,1.7l1.2-1.2l4.1-4.1
					l1.5-1.5l1.5,1.5l10.8,10.8l0.6,0.6l0.6-0.6l8.6-8.6l0.6-0.6l-0.6-0.6L74.5,64.7L73,63.2l1.5-1.5l4.1-4.1L79.8,56.5L79.8,56.5z"
					/>
			</g>
		</g>
		<g>
			<path class="st1" d="M78.9,56.8l-4.6,4.6l-1.8,1.8l1.8,1.8l11.1,11.1l-9.2,9.2L65,74.2l-1.8-1.8l-1.8,1.8l-4.6,4.6l-1.7-12
				l-1.9-13.7l13.7,1.9L78.9,56.8 M84.2,55l-17-2.4l-17-2.4l2.4,17L55,84.3l8.3-8.3l12.9,12.9l12.7-12.7L76,63.3L84.2,55L84.2,55z"
				/>
		</g>
		<g>
			<path class="st2" d="M76.9,63.2l12.9,12.9L76.1,89.8L63.2,76.9l-8.7,8.7L52,67.3l-2.5-17.8l36.1,5.1L76.9,63.2z M53.3,67.1
				l2.2,15.7l7.8-7.8L76.1,88L88,76.1L75.1,63.2l7.8-7.8L51,51L53.3,67.1z"/>
		</g>
		<g>
			<polygon class="st3" points="55.2,55.2 56.8,66.6 58,75.3 60.3,73 62.4,70.9 63.3,70 64.1,70.9 66.2,73 76.1,82.9 82.9,76.1 
				73,66.2 70.9,64.1 70,63.3 70.9,62.4 73,60.3 75.3,58 66.6,56.8 			"/>
		</g>
		<g>
			<path class="st4" d="M69,60.1l-0.2,0.2l-0.9,0.9l-2.1,2.1l2.1,2.1l0.9,0.9l2.1,2.1l7.8,7.8l-2.6,2.6l-7.8-7.8l-2.1-2.1L65.3,68
				l-2.1-2.1L61.1,68l-0.9,0.9L60.1,69l-0.4-2.8l-1.1-7.6l7.6,1.1L69,60.1 M75.3,58l-8.6-1.2l-11.5-1.5l1.6,11.4l1.2,8.6l2.3-2.3
				l2.1-2.1l0.9-0.9l0.9,0.9l2.1,2.1l9.9,9.9l6.8-6.8L73,66.2l-2.1-2.1L70,63.3l0.9-0.9l2.1-2.1L75.3,58L75.3,58z"/>
		</g>
		<g>
			<path class="st5" d="M71.7,59.2l-1.9,2l-0.9,0.9l-1.2,1.2l1.2,1.2l0.9,0.9l2.1,2.1l8.7,8.7l-4.4,4.4l-8.7-8.7l-2.1-2.1l-0.9-0.9
				l-1.2-1.2L62,68.8l-0.9,0.9l-2,2l-0.7-5.3l-1.3-9.3l9.3,1.3L71.7,59.2 M75.3,58l-8.6-1.2l-11.5-1.5l1.6,11.4l1.2,8.6l2.3-2.3
				l2.1-2.1l0.9-0.9l0.9,0.9l2.1,2.1l9.9,9.9l6.8-6.8L73,66.2l-2.1-2.1L70,63.3l0.9-0.9l2.1-2.1L75.3,58L75.3,58z"/>
		</g>
		<g>
			<path class="st2" d="M70.9,63.3l12.9,12.9l-7.7,7.7L63.3,70.9l-5.7,5.7l-1.4-9.9l-1.7-12.3l12.3,1.7l9.9,1.4L70.9,63.3z
				 M55.9,55.9l1.5,10.6l1.1,7.4l4.8-4.8L76.1,82l5.9-5.9L69.1,63.3l4.8-4.8l-7.4-1.1L55.9,55.9z"/>
		</g>
		<g>
			<g>
				<path class="st6" d="M75.5,64.8c0.2-0.2,0.4-0.2,0.5,0l1.9,1.9c0.2,0.2,0.2,0.4,0,0.5c-0.2,0.2-0.4,0.2-0.5,0l-1.9-1.9
					C75.4,65.1,75.4,64.9,75.5,64.8z"/>
			</g>
		</g>
		<g>
			<g>
				<path class="st6" d="M80.2,69.4c0.2-0.2,0.4-0.2,0.5,0l3.2,3.2c0.2,0.2,0.2,0.4,0,0.5c-0.2,0.2-0.4,0.2-0.5,0L80.2,70
					C80,69.8,80,69.5,80.2,69.4z"/>
			</g>
		</g>
	</g>
	<g>
		<g>
			<g>
				<polygon class="st0" points="14.1,36.2 39.8,39.8 36.2,14.1 29.8,20.6 16.9,7.7 7.7,16.9 20.6,29.8 				"/>
			</g>
			<g>
				<path class="st0" d="M35.9,15l1.5,11.1l1.9,13.1l-13.1-1.9L15,35.9l4-4l2.1-2.1l-2.1-2.1L8.3,16.9l8.6-8.6l10.8,10.8l2.1,2.1
					l2.1-2.1L35.9,15 M36.5,13.2l-1.2,1.2l-4.1,4.1L29.8,20l-1.5-1.5L17.5,7.7l-0.6-0.6l-0.6,0.6l-8.6,8.6l-0.6,0.6l0.6,0.6
					l10.8,10.8l1.5,1.5l-1.5,1.5l-4.1,4.1l-1.2,1.2l1.7,0.2l11.2,1.6l13.1,1.9l1.1,0.2l-0.2-1.1l-1.9-13.1l-1.5-11.1L36.5,13.2
					L36.5,13.2z"/>
			</g>
		</g>
		<g>
			<path class="st1" d="M36.2,14.1l1.7,12l1.9,13.7l-13.7-1.9l-12-1.7l4.6-4.6l1.8-1.8L18.8,28L7.7,16.9l9.2-9.2L28,18.8l1.8,1.8
				l1.8-1.8L36.2,14.1 M38,8.8L29.7,17L16.9,4.2L4.1,16.9L17,29.8L8.7,38l17.1,2.4l17,2.4l-2.4-17L38,8.8L38,8.8z"/>
		</g>
		<g>
			<path class="st2" d="M38.4,7.4l5.1,36.1L25.7,41L7.4,38.4l8.7-8.7L3.2,16.9L16.9,3.2l12.9,12.9L38.4,7.4z M42,42l-4.5-31.9
				l-7.8,7.8L16.9,5L5,16.9l12.9,12.9l-7.8,7.8l15.7,2.2L42,42z"/>
		</g>
		<g>
			<polygon class="st3" points="37.8,37.8 26.4,36.2 17.7,35 20,32.7 22.1,30.6 23,29.7 22.1,28.9 20,26.8 10.1,16.9 16.9,10.1 
				26.8,20 28.9,22.1 29.7,23 30.6,22.1 32.7,20 35,17.7 36.2,26.4 			"/>
		</g>
		<g>
			<path class="st4" d="M32.9,24l0.4,2.8l1.1,7.6l-7.6-1.1L24,32.9l0.2-0.2l0.9-0.9l2.1-2.1L25,27.7l-0.9-0.9l-2.1-2.1l-7.8-7.8
				l2.6-2.6l7.8,7.8l2.1,2.1l0.9,0.9l2.1,2.1l2.1-2.1l0.9-0.9L32.9,24 M35,17.7L32.7,20l-2.1,2.1L29.7,23l-0.9-0.9L26.8,20l-9.9-9.9
				l-6.8,6.8l9.9,9.9l2.1,2.1l0.9,0.9l-0.9,0.9L20,32.7L17.7,35l8.6,1.2l11.4,1.6l-1.5-11.5L35,17.7L35,17.7z"/>
		</g>
		<g>
			<path class="st5" d="M33.8,21.3l0.7,5.3l1.3,9.3l-9.3-1.3l-5.3-0.7l2-2l0.9-0.9l1.2-1.2l-1.2-1.2l-0.9-0.9l-2.1-2.1l-8.7-8.7
				l4.4-4.4l8.7,8.7l2.1,2.1l0.9,0.9l1.2,1.2l1.2-1.2l0.9-0.9L33.8,21.3 M35,17.7L32.7,20l-2.1,2.1L29.7,23l-0.9-0.9L26.8,20
				l-9.9-9.9l-6.8,6.8l9.9,9.9l2.1,2.1l0.9,0.9l-0.9,0.9L20,32.7L17.7,35l8.6,1.2l11.4,1.6l-1.5-11.5L35,17.7L35,17.7z"/>
		</g>
		<g>
			<path class="st2" d="M35.4,16.4l1.4,9.9l1.7,12.3l-12.3-1.7l-9.9-1.4l5.7-5.7L9.2,16.9l7.7-7.7l12.9,12.9L35.4,16.4z M35.6,26.5
				l-1.1-7.4l-4.8,4.8L16.9,11L11,16.9l12.9,12.9l-4.8,4.8l7.4,1.1l10.6,1.5L35.6,26.5z"/>
		</g>
		<g>
			<g>
				<path class="st6" d="M28.2,17.5c0.2-0.2,0.2-0.4,0-0.5l-1.9-1.9c-0.2-0.2-0.4-0.2-0.5,0c-0.2,0.2-0.2,0.4,0,0.5l1.9,1.9
					C27.9,17.6,28.1,17.6,28.2,17.5z"/>
			</g>
		</g>
		<g>
			<g>
				<path class="st6" d="M23.6,12.8c0.2-0.2,0.2-0.4,0-0.5L20.3,9c-0.2-0.2-0.4-0.2-0.5,0c-0.2,0.2-0.2,0.4,0,0.5l3.2,3.2
					C23.2,13,23.5,13,23.6,12.8z"/>
			</g>
		</g>
	</g>
</g>
</svg>
